<?xml version="1.0" standalone="no"?>
<!DOCTYPE svg PUBLIC "-//W3C//DTD SVG 20010904//EN"
 "http://www.w3.org/TR/2001/REC-SVG-20010904/DTD/svg10.dtd">
<svg version="1.0" xmlns="http://www.w3.org/2000/svg"
 width="700.000000pt" height="700.000000pt" viewBox="0 0 700.000000 700.000000"
 preserveAspectRatio="xMidYMid meet">
<metadata>
Created by potrace 1.11, written by Peter Selinger 2001-2013
</metadata>
<g transform="translate(0.000000,700.000000) scale(0.100000,-0.100000)"
fill="#000000" stroke="none">
<path d="M1160 5370 l0 -470 1870 0 1870 0 0 -935 0 -935 470 0 470 0 0 1405
0 1405 -2340 0 -2340 0 0 -470z"/>
<path d="M1160 2565 l0 -1405 2340 0 2340 0 0 470 0 470 -1870 0 -1870 0 0
935 0 935 -470 0 -470 0 0 -1405z"/>
<path d="M3030 3500 l0 -470 470 0 470 0 0 470 0 470 -470 0 -470 0 0 -470z"/>
</g>
</svg>
