<svg xmlns="http://www.w3.org/2000/svg" viewBox="0 0 22 36"><style>.st0{fill:#022f51}.st1{fill:none}.st2{fill:#2a5db8}.st3{fill:none;stroke:#fff;stroke-width:2;stroke-miterlimit:10}.st4{fill:#fff}.st5,.st6{fill:#022f51;stroke:#022f51;stroke-width:.75;stroke-miterlimit:10}.st6{fill:none;stroke-width:8}.st7{opacity:.5;stroke:#ffa683;stroke-width:2}.st7,.st8,.st9{fill:none;stroke-miterlimit:10}.st8{opacity:.5;stroke:#ffa683;stroke-width:1.4142}.st9{stroke:#022f51;stroke-width:4}.st10{opacity:.99;fill:#022f51}</style><g id="Layer_1"><path class="st0" d="M22 12V8H0v20h22V12zM2 10h18v2H2v-2zm18 16.1H2V14h18v12.1z"/><path class="st0" d="M4 16h2v2H4zM8 16h2v2H8zM12 16h2v2h-2zM16 16h2v2h-2zM4 19h2v2H4zM8 19h2v2H8zM12 19h2v2h-2zM16 19h2v2h-2zM4 22h2v2H4zM8 22h2v2H8zM12 22h2v2h-2z"/></g></svg>
