<svg xmlns="http://www.w3.org/2000/svg" viewBox="0 0 21 36"><style>.st0{fill:#022f51}.st1{fill:none}.st2{fill:#2a5db8}.st3{fill:none;stroke:#fff;stroke-width:2;stroke-miterlimit:10}.st4{fill:#fff}.st5,.st6{fill:#022f51;stroke:#022f51;stroke-width:.75;stroke-miterlimit:10}.st6{fill:none;stroke-width:8}.st7{opacity:.5;stroke:#ffa683;stroke-width:2}.st7,.st8,.st9{fill:none;stroke-miterlimit:10}.st8{opacity:.5;stroke:#ffa683;stroke-width:1.4142}.st9{stroke:#022f51;stroke-width:4}.st10{opacity:.99;fill:#022f51}</style><g id="Layer_1"><path class="st0" d="M14 21H9v-7h2v5h3z"/><path class="st0" d="M20.6 18.9c0-5.6-4.5-10.1-10.1-10.1S.4 13.3.4 18.9c0 3.6 1.9 6.8 4.8 8.6l-1.1 3.2 1.9.7 1.1-3c1.1.4 2.3.6 3.5.6 1.2 0 2.3-.2 3.4-.6l1.2 3 1.9-.7-1.2-3.1c2.7-1.8 4.7-5 4.7-8.7zM10.5 27c-4.5 0-8.1-3.6-8.1-8.1s3.6-8.1 8.1-8.1 8.1 3.6 8.1 8.1S15 27 10.5 27zM3 9.9L1.6 8.6s.9-.9 2.4-1.7C5.6 6 6.9 5.8 6.9 5.8l.4 2s-1.1.2-2.4.9C3.7 9.3 3 9.9 3 9.9zM18.3 9.9s-.7-.7-1.9-1.3C15.1 8 14 7.7 14 7.7l.4-2c.1 0 1.4.3 2.9 1.1 1.6.8 2.4 1.7 2.4 1.7l-1.4 1.4.7-.7-.7.7z"/></g></svg>
