<svg xmlns="http://www.w3.org/2000/svg" viewBox="0 0 26 36"><style>.st0{fill:#022f51}.st1{fill:none}.st2{fill:#2a5db8}.st3{fill:none;stroke:#fff;stroke-width:2;stroke-miterlimit:10}.st4{fill:#fff}.st5,.st6{fill:#022f51;stroke:#022f51;stroke-width:.75;stroke-miterlimit:10}.st6{fill:none;stroke-width:8}.st7{opacity:.5;stroke:#ffa683;stroke-width:2}.st7,.st8,.st9{fill:none;stroke-miterlimit:10}.st8{opacity:.5;stroke:#ffa683;stroke-width:1.4142}.st9{stroke:#022f51;stroke-width:4}.st10{opacity:.99;fill:#022f51}</style><g id="Layer_1"><path class="st0" d="M13 31C5.8 31 0 25.2 0 18S5.8 5 13 5s13 5.8 13 13-5.8 13-13 13zm0-24C6.9 7 2 11.9 2 18s4.9 11 11 11 11-4.9 11-11S19.1 7 13 7z"/><path class="st0" d="M7.1 23.9l2.1-6.4 7.2-7.2 4.2 4.2-7.2 7.2-6.3 2.2zm3.9-5.3l-.7 2.1 2.1-.7 5.5-5.5-1.4-1.4-5.5 5.5z"/></g></svg>
