<svg xmlns="http://www.w3.org/2000/svg" viewBox="0 0 36 36"><style>.st0{fill:#022f51}.st1{fill:none}.st2{fill:#2a5db8}.st3{fill:none;stroke:#fff;stroke-width:2;stroke-miterlimit:10}.st4{fill:#fff}.st5,.st6{fill:#022f51;stroke:#022f51;stroke-width:.75;stroke-miterlimit:10}.st6{fill:none;stroke-width:8}.st7{opacity:.5;stroke:#ffa683;stroke-width:2}.st7,.st8,.st9{fill:none;stroke-miterlimit:10}.st8{opacity:.5;stroke:#ffa683;stroke-width:1.4142}.st9{stroke:#022f51;stroke-width:4}.st10{opacity:.99;fill:#022f51}</style><g id="Layer_1"><path class="st0" d="M18 0C8.1 0 0 8.1 0 18s8.1 18 18 18 18-8.1 18-18S27.9 0 18 0z"/><path class="st4" d="M23.2 26.5H12.8l1.7-9.4c-1.3-1-2-2.5-2-4.1 0-3 2.5-5.5 5.5-5.5s5.5 2.5 5.5 5.5c0 1.6-.7 3-2 4l1.7 9.5zm-8-2h5.6l-1.5-8.4.5-.4c.7-.5 1.6-1.3 1.6-2.8 0-1.9-1.6-3.5-3.5-3.5s-3.5 1.6-3.5 3.5c0 1.5.9 2.3 1.7 2.8l.6.4-1.5 8.4z"/></g></svg>
