<svg xmlns="http://www.w3.org/2000/svg" viewBox="0 0 25 36"><style>.st0{fill:#022f51}.st1{fill:none}.st2{fill:#2a5db8}.st3{fill:none;stroke:#fff;stroke-width:2;stroke-miterlimit:10}.st4{fill:#fff}.st5,.st6{fill:#022f51;stroke:#022f51;stroke-width:.75;stroke-miterlimit:10}.st6{fill:none;stroke-width:8}.st7{opacity:.5;stroke:#ffa683;stroke-width:2}.st7,.st8,.st9{fill:none;stroke-miterlimit:10}.st8{opacity:.5;stroke:#ffa683;stroke-width:1.4142}.st9{stroke:#022f51;stroke-width:4}.st10{opacity:.99;fill:#022f51}</style><path class="st0" d="M24.5 28.5h-7v-8c0-.6-.4-1-1-1s-1 .4-1 1v8h-7v-1-12.9l-.1-1.1h7.1v.7c.8-.3 1.8-.6 2.9-.6 3.7 0 6.1 2.8 6.1 7.3v7.6zm-5-2h3v-5.7c0-3.4-1.5-5.3-4.1-5.3-1.9 0-3.2 1.2-3.3 1.2l-1.7 1.6v-2.8h-3v11h3v-6c0-1.7 1.3-3 3-3s3 1.3 3 3v6zm-12 2h-7v-15h7v15zm-5-2h3v-11h-3v11zm1.5-14C2 12.5.5 11 .5 9 .5 7.1 2 5.6 4 5.6S7.5 7 7.5 9 6 12.5 4 12.5zm0-4.9c-.9 0-1.5.6-1.5 1.4 0 .7.5 1.5 1.5 1.5 1.1 0 1.5-.7 1.5-1.4S5.1 7.6 4 7.6z" id="Layer_1"/></svg>
