<svg xmlns="http://www.w3.org/2000/svg" id="Layer_1" viewBox="0 0 18.3 36"><style>.st0{fill:#022f51}</style><g id="Layer_1_1_"><path class="st0" d="M14.1 4h-10c-2.2 0-4 1.8-4 4v20c0 2.2 1.8 4 4 4h10c2.2 0 4-1.8 4-4V8c0-2.2-1.8-4-4-4zm2 24c0 1.1-.9 2-2 2h-10c-1.1 0-2-.9-2-2v-3h14v3zm-14-5V8c0-1.1.9-2 2-2h10c1.1 0 2 .9 2 2v15h-14z"/><path class="st0" d="M7.1 8h4v2h-4V8zm2 21c-.8 0-1.5-.7-1.5-1.5S8.3 26 9.1 26s1.5.7 1.5 1.5S9.9 29 9.1 29zm0-2c-.3 0-.5.2-.5.5s.2.5.5.5.5-.2.5-.5-.2-.5-.5-.5z"/></g></svg>
