<svg xmlns="http://www.w3.org/2000/svg" viewBox="0 0 36 36"><style>.st0{fill:#022f51}.st1{fill:none}.st2{fill:#2a5db8}.st3{fill:none;stroke:#fff;stroke-width:2;stroke-miterlimit:10}.st4{fill:#fff}.st5{fill:none;stroke:#022f51;stroke-width:8;stroke-miterlimit:10}.st6{opacity:.5;stroke:#ffa683;stroke-width:2}.st6,.st7,.st8{fill:none;stroke-miterlimit:10}.st7{opacity:.5;stroke:#ffa683;stroke-width:1.4142}.st8{stroke:#022f51;stroke-width:4}.st9{opacity:.99;fill:#022f51}</style><g id="Layer_1"><circle class="st0" cx="18" cy="11.4" r="2.8"/><path class="st0" d="M18 0C8.1 0 0 8.1 0 18s8.1 18 18 18 18-8.1 18-18S27.9 0 18 0zm0 6.7c2.6 0 4.8 2.1 4.8 4.8s-2.1 4.8-4.8 4.8-4.8-2.1-4.8-4.8 2.2-4.8 4.8-4.8zm7.1 20.6h-2v-4.4c0-.6-.4-1.2-1.3-1.6-1-.5-2.3-.7-3.7-.7-2.5 0-5.1.9-5.1 2.3v4.4h-2v-4.4c0-3 3.7-4.3 7.1-4.3 3.4 0 7.1 1.3 7.1 4.3v4.4z"/></g></svg>
