<?xml version="1.0" encoding="utf-8"?>
<!-- Generator: Adobe Illustrator 16.0.0, SVG Export Plug-In . SVG Version: 6.00 Build 0)  -->
<!DOCTYPE svg PUBLIC "-//W3C//DTD SVG 1.1//EN" "http://www.w3.org/Graphics/SVG/1.1/DTD/svg11.dtd">
<svg version="1.1" id="Layer_1" xmlns="http://www.w3.org/2000/svg" xmlns:xlink="http://www.w3.org/1999/xlink" x="0px" y="0px"
	 width="191.906px" height="23.153px" viewBox="21.161 12.494 191.906 23.153"
	 enable-background="new 21.161 12.494 191.906 23.153" xml:space="preserve">
<g>
	<path fill="#FFFFFF" d="M58.766,32.374h-4.469V21.328h4.299c2.047,0,3.334,1.164,3.334,3.025c0,1.194-0.744,2.048-1.489,2.343
		c0.853,0.342,1.66,1.162,1.66,2.559C62.101,31.288,60.72,32.374,58.766,32.374z M58.455,22.833h-2.48v3.165h2.48
		c1.07,0,1.799-0.559,1.799-1.583S59.525,22.833,58.455,22.833z M58.611,27.502h-2.637v3.365h2.637c1.163,0,1.814-0.715,1.814-1.691
		S59.773,27.502,58.611,27.502z"/>
	<path fill="#FFFFFF" d="M68.569,26.355c-0.357-0.357-0.636-0.529-1.179-0.529c-0.854,0-1.567,0.682-1.567,1.77v4.777h-1.582v-7.865
		h1.551v0.853c0.403-0.558,1.21-0.946,2.095-0.946c0.76,0,1.334,0.202,1.877,0.745L68.569,26.355z"/>
	<path fill="#FFFFFF" d="M75.674,31.536c-0.512,0.526-1.287,0.93-2.357,0.93c-0.652,0-1.179-0.154-1.613-0.387l-0.184,0.312h-1.07
		l0.51-0.87c-0.745-0.775-0.916-1.77-0.916-3.087s0.187-2.312,0.931-3.087c0.513-0.527,1.271-0.931,2.343-0.931
		c0.65,0,1.193,0.155,1.629,0.388l0.168-0.295h1.071l-0.511,0.838c0.745,0.775,0.932,1.77,0.932,3.087
		C76.604,29.768,76.419,30.76,75.674,31.536z M73.316,25.826c-0.465,0-0.854,0.155-1.148,0.451
		c-0.479,0.479-0.542,1.302-0.542,2.155c0,0.621,0.031,1.227,0.233,1.691l2.389-4.033C73.982,25.919,73.673,25.826,73.316,25.826z
		 M74.79,26.743l-2.39,4.032c0.248,0.171,0.559,0.279,0.916,0.279c0.465,0,0.868-0.171,1.163-0.466
		c0.48-0.479,0.544-1.303,0.544-2.156C75.022,27.812,74.991,27.208,74.79,26.743z"/>
	<path fill="#FFFFFF" d="M83.384,32.374v-4.795c0-1.224-0.698-1.752-1.582-1.752c-0.885,0-1.629,0.543-1.629,1.752v4.795H78.59
		v-7.865h1.552V25.3c0.543-0.589,1.304-0.885,2.094-0.885c0.807,0,1.474,0.264,1.938,0.714c0.605,0.59,0.792,1.334,0.792,2.219
		v5.025H83.384z"/>
	<path fill="#FFFFFF" d="M92.04,32.374v-4.795c0-1.224-0.699-1.752-1.582-1.752c-0.885,0-1.629,0.543-1.629,1.752v4.795h-1.582
		v-7.865h1.551V25.3c0.543-0.589,1.304-0.885,2.095-0.885c0.807,0,1.474,0.264,1.938,0.714c0.605,0.59,0.792,1.334,0.792,2.219
		v5.025H92.04z"/>
	<path fill="#FFFFFF" d="M101.161,31.536c-0.513,0.526-1.288,0.93-2.357,0.93c-0.652,0-1.18-0.154-1.613-0.387l-0.186,0.312h-1.069
		l0.51-0.87c-0.744-0.775-0.915-1.77-0.915-3.087s0.186-2.312,0.93-3.087c0.513-0.527,1.272-0.931,2.342-0.931
		c0.652,0,1.194,0.155,1.63,0.388l0.168-0.295h1.069l-0.509,0.838c0.744,0.775,0.93,1.77,0.93,3.087
		C102.091,29.768,101.905,30.76,101.161,31.536z M98.803,25.826c-0.466,0-0.854,0.155-1.148,0.451
		c-0.48,0.479-0.543,1.302-0.543,2.155c0,0.621,0.031,1.227,0.233,1.691l2.389-4.033C99.47,25.919,99.16,25.826,98.803,25.826z
		 M100.276,26.743l-2.389,4.032c0.247,0.171,0.558,0.279,0.914,0.279c0.466,0,0.869-0.171,1.163-0.466
		c0.481-0.479,0.543-1.303,0.543-2.156C100.509,27.812,100.478,27.208,100.276,26.743z"/>
	<path fill="#FFFFFF" d="M106.544,33.94c-0.154,0.434-0.342,0.744-0.573,0.979c-0.436,0.434-1.01,0.574-1.614,0.574h-0.636v-1.43
		h0.402c0.667,0,0.9-0.2,1.132-0.837L105.69,32l-2.746-7.493h1.675l1.877,5.538l1.831-5.538h1.691L106.544,33.94z"/>
	<path fill="#FFFFFF" d="M113.726,32.465c-1.287,0-2.373-0.217-3.305-1.133l1.039-1.039c0.638,0.651,1.49,0.822,2.266,0.822
		c0.962,0,1.722-0.342,1.722-1.086c0-0.527-0.294-0.869-1.055-0.932l-1.256-0.107c-1.475-0.123-2.327-0.793-2.327-2.172
		c0-1.536,1.317-2.405,2.963-2.405c1.179,0,2.187,0.248,2.917,0.885l-0.994,1.008c-0.496-0.419-1.195-0.574-1.939-0.574
		c-0.945,0-1.427,0.42-1.427,1.01c0,0.465,0.249,0.821,1.086,0.898l1.24,0.109c1.474,0.123,2.343,0.822,2.343,2.217
		C116.999,31.612,115.603,32.465,113.726,32.465z"/>
	<path fill="#FFFFFF" d="M123.514,32.374v-0.791c-0.543,0.59-1.305,0.883-2.095,0.883c-0.808,0-1.474-0.262-1.938-0.713
		c-0.605-0.588-0.791-1.334-0.791-2.217v-5.027h1.582v4.792c0,1.227,0.696,1.754,1.582,1.754c0.884,0,1.629-0.542,1.629-1.754
		v-4.792h1.582v7.865H123.514z"/>
	<path fill="#FFFFFF" d="M132.216,32.374v-4.795c0-1.224-0.696-1.752-1.582-1.752c-0.885,0-1.629,0.543-1.629,1.752v4.795h-1.581
		v-7.865h1.551V25.3c0.544-0.589,1.304-0.885,2.094-0.885c0.808,0,1.474,0.264,1.938,0.714c0.605,0.59,0.792,1.334,0.792,2.219
		v5.025H132.216z"/>
	<path fill="#FFFFFF" d="M140.593,32.374v-0.838c-0.59,0.713-1.226,0.93-2.078,0.93c-0.79,0-1.489-0.262-1.924-0.697
		c-0.792-0.79-0.885-2.141-0.885-3.335s0.093-2.528,0.885-3.319c0.435-0.434,1.116-0.698,1.907-0.698
		c0.838,0,1.489,0.202,2.063,0.885v-3.972h1.583v11.044H140.593L140.593,32.374z M138.933,25.826c-1.428,0-1.646,1.211-1.646,2.606
		s0.218,2.622,1.646,2.622c1.427,0,1.629-1.228,1.629-2.622S140.36,25.826,138.933,25.826z"/>
	<path fill="#FFFFFF" d="M148.831,26.355c-0.356-0.357-0.637-0.529-1.18-0.529c-0.854,0-1.566,0.682-1.566,1.77v4.777h-1.582v-7.865
		h1.553v0.853c0.402-0.558,1.21-0.946,2.093-0.946c0.761,0,1.335,0.202,1.878,0.745L148.831,26.355z"/>
	<path fill="#FFFFFF" d="M151.84,28.898c0,1.349,0.712,2.203,2,2.203c0.886,0,1.351-0.248,1.908-0.808l1.009,0.945
		c-0.808,0.809-1.566,1.227-2.946,1.227c-1.971,0-3.537-1.039-3.537-4.033c0-2.544,1.318-4.018,3.334-4.018
		c2.109,0,3.336,1.552,3.336,3.784v0.699L151.84,28.898L151.84,28.898z M155.16,26.727c-0.248-0.592-0.808-0.994-1.553-0.994
		c-0.744,0-1.318,0.402-1.566,0.994c-0.154,0.355-0.186,0.589-0.2,1.068h3.536C155.361,27.316,155.314,27.083,155.16,26.727z"/>
	<path fill="#FFFFFF" d="M161.52,35.647c-1.194,0-1.955-0.279-2.778-1.04l1.01-1.009c0.496,0.465,0.931,0.697,1.705,0.697
		c1.335,0,1.846-0.945,1.846-2v-1.01c-0.572,0.684-1.225,0.899-2.03,0.899c-0.791,0-1.441-0.263-1.878-0.698
		c-0.76-0.76-0.883-1.859-0.883-3.193c0-1.336,0.123-2.438,0.883-3.196c0.437-0.435,1.103-0.683,1.894-0.683
		c0.838,0,1.476,0.218,2.063,0.931v-0.837h1.535v7.819C164.885,34.25,163.614,35.647,161.52,35.647z M161.707,25.826
		c-1.428,0-1.614,1.227-1.614,2.467c0,1.242,0.188,2.467,1.614,2.467c1.426,0,1.596-1.225,1.596-2.467
		C163.302,27.053,163.132,25.826,161.707,25.826z"/>
	<path fill="#FFFFFF" d="M167.197,22.957v-1.675h1.675v1.675H167.197z M167.244,32.374v-7.865h1.582v7.865H167.244z"/>
	<path fill="#FFFFFF" d="M173.727,32.465c-1.287,0-2.373-0.217-3.305-1.133l1.039-1.039c0.637,0.651,1.49,0.822,2.266,0.822
		c0.963,0,1.722-0.342,1.722-1.086c0-0.527-0.294-0.869-1.055-0.932l-1.256-0.107c-1.476-0.123-2.327-0.793-2.327-2.172
		c0-1.536,1.318-2.405,2.964-2.405c1.178,0,2.187,0.248,2.916,0.885l-0.993,1.008c-0.497-0.419-1.194-0.574-1.94-0.574
		c-0.943,0-1.426,0.42-1.426,1.01c0,0.465,0.248,0.821,1.085,0.898l1.241,0.109c1.475,0.123,2.343,0.822,2.343,2.217
		C177,31.612,175.604,32.465,173.727,32.465z"/>
	<path fill="#FFFFFF" d="M180.957,32.374c-1.474,0-2.157-1.056-2.157-2.188v-4.329H177.9v-1.209h0.898v-2.389h1.583v2.389h1.521
		v1.209h-1.521v4.252c0,0.573,0.278,0.914,0.868,0.914h0.651v1.351H180.957z"/>
	<path fill="#FFFFFF" d="M188.092,26.355c-0.355-0.357-0.637-0.529-1.18-0.529c-0.854,0-1.565,0.682-1.565,1.77v4.777h-1.582v-7.865
		h1.551v0.853c0.402-0.558,1.211-0.946,2.094-0.946c0.761,0,1.335,0.202,1.878,0.745L188.092,26.355z"/>
	<path fill="#FFFFFF" d="M191.101,28.898c0,1.349,0.714,2.203,2.001,2.203c0.884,0,1.35-0.248,1.908-0.808l1.008,0.945
		c-0.808,0.809-1.566,1.227-2.947,1.227c-1.97,0-3.535-1.039-3.535-4.033c0-2.544,1.317-4.018,3.334-4.018
		c2.108,0,3.335,1.552,3.335,3.784v0.699L191.101,28.898L191.101,28.898z M194.421,26.727c-0.248-0.592-0.807-0.994-1.552-0.994
		c-0.744,0-1.318,0.402-1.565,0.994c-0.155,0.355-0.188,0.589-0.202,1.068h3.536C194.623,27.316,194.575,27.083,194.421,26.727z"/>
	<path fill="#FFFFFF" d="M202.937,32.374v-4.795c0-1.224-0.698-1.752-1.582-1.752c-0.885,0-1.63,0.543-1.63,1.752v4.795h-1.582
		v-7.865h1.552V25.3c0.544-0.589,1.303-0.885,2.094-0.885c0.808,0,1.476,0.264,1.938,0.714c0.605,0.59,0.792,1.334,0.792,2.219
		v5.025H202.937z"/>
	<path fill="#FFFFFF" d="M207.963,28.898c0,1.349,0.713,2.203,2.001,2.203c0.886,0,1.351-0.248,1.908-0.808l1.009,0.945
		c-0.808,0.809-1.566,1.227-2.946,1.227c-1.972,0-3.537-1.039-3.537-4.033c0-2.544,1.317-4.018,3.334-4.018
		c2.109,0,3.336,1.552,3.336,3.784v0.699L207.963,28.898L207.963,28.898z M211.283,26.727c-0.248-0.592-0.808-0.994-1.552-0.994
		s-1.318,0.402-1.566,0.994c-0.155,0.355-0.187,0.589-0.201,1.068h3.537C211.485,27.316,211.438,27.083,211.283,26.727z"/>
</g>
<rect x="21.161" y="12.494" fill="#FFFFFF" width="6.628" height="2.209"/>
<rect x="30" y="12.494" fill="#FFFFFF" width="6.629" height="2.209"/>
<rect x="38.839" y="12.494" fill="#FFFFFF" width="6.629" height="2.209"/>
<rect x="21.161" y="16.913" fill="#FFFFFF" width="6.628" height="2.21"/>
<rect x="30" y="16.913" fill="#FFFFFF" width="6.629" height="2.21"/>
<rect x="38.839" y="16.913" fill="#FFFFFF" width="6.629" height="2.21"/>
<rect x="21.161" y="21.333" fill="#FFFFFF" width="6.628" height="2.21"/>
<rect x="30" y="21.333" fill="#FFFFFF" width="6.629" height="2.21"/>
<rect x="21.161" y="25.752" fill="#FFFFFF" width="6.628" height="2.209"/>
<rect x="30" y="25.752" fill="#FFFFFF" width="6.629" height="2.209"/>
<rect x="21.161" y="30.172" fill="#FFFFFF" width="6.628" height="2.209"/>
<rect x="30" y="30.172" fill="#FFFFFF" width="6.629" height="2.209"/>
</svg>
