<?xml version="1.0" encoding="UTF-8"?>
<svg width="236px" height="193px" viewBox="0 0 236 193" version="1.1" xmlns="http://www.w3.org/2000/svg" xmlns:xlink="http://www.w3.org/1999/xlink">
    <!-- Generator: Sketch 44.1 (41455) - http://www.bohemiancoding.com/sketch -->
    <title>brreg_logo_nn</title>
    <desc>Created with Sketch.</desc>
    <defs></defs>
    <g id="Page-1" stroke="none" stroke-width="1" fill="none" fill-rule="evenodd">
        <g id="brreg_logo_nn" fill-rule="nonzero">
            <rect id="Rectangle-path" fill="#010202" x="0" y="0" width="63.99984" height="21.3566316"></rect>
            <rect id="Rectangle-path" fill="#010202" x="85.3448933" y="0" width="64.0116133" height="21.3566316"></rect>
            <rect id="Rectangle-path" fill="#D8D8D8" x="170.689787" y="0" width="64.0116133" height="21.3566316"></rect>
            <rect id="Rectangle-path" fill="#010202" x="0" y="42.7250526" width="63.99984" height="21.3684211"></rect>
            <rect id="Rectangle-path" fill="#D8D8D8" x="85.3448933" y="42.7250526" width="64.0116133" height="21.3684211"></rect>
            <rect id="Rectangle-path" fill="#010202" x="170.689787" y="42.7250526" width="64.0116133" height="21.3684211"></rect>
            <rect id="Rectangle-path" fill="#010202" x="0" y="85.4618947" width="63.99984" height="21.3684211"></rect>
            <rect id="Rectangle-path" fill="#D8D8D8" x="85" y="85" width="64.0116133" height="21.3684211"></rect>
            <rect id="Rectangle-path-Copy" fill="#010202" x="171" y="85" width="64.0116133" height="21.3684211"></rect>
            <rect id="Rectangle-path" fill="#010202" x="0" y="128.181053" width="63.99984" height="21.3625263"></rect>
            <rect id="Rectangle-path" fill="#D8D8D8" x="85" y="128" width="64.0116133" height="21.3625263"></rect>
            <rect id="Rectangle-path-Copy-2" fill="#010202" x="171" y="128" width="64.0116133" height="21.3625263"></rect>
            <rect id="Rectangle-path" fill="#010202" x="0" y="170.917895" width="63.99984" height="21.3566316"></rect>
            <rect id="Rectangle-path" fill="#010202" x="85" y="171" width="64.0116133" height="21.3566316"></rect>
            <rect id="Rectangle-path-Copy-3" fill="#D8D8D8" x="171" y="171" width="64.0116133" height="21.3566316"></rect>
        </g>
    </g>
</svg>