<svg width="281" height="25" viewBox="0 0 281 25" fill="none" xmlns="http://www.w3.org/2000/svg">
<path d="M143.544 0.135986H141.84L135 20.776H136.704L143.544 0.135986ZM154.451 19V1.91199H152.723V8.55999C151.739 7.33599 150.707 7.04799 149.387 7.04799C148.163 7.04799 147.131 7.45599 146.507 8.07999C145.331 9.25599 145.067 11.2 145.067 13.096C145.067 14.992 145.331 16.912 146.507 18.112C147.131 18.736 148.163 19.144 149.387 19.144C150.731 19.144 151.763 18.832 152.747 17.584V19H154.451ZM152.723 13.096C152.723 15.4 152.339 17.608 149.771 17.608C147.179 17.608 146.795 15.4 146.795 13.096C146.795 10.792 147.179 8.58399 149.771 8.58399C152.339 8.58399 152.723 10.792 152.723 13.096ZM160.497 19V7.19199H158.769V19H160.497ZM160.617 3.83199V1.88799H158.673V3.83199H160.617ZM173.528 19.36V7.19199H171.824V8.58399C170.864 7.33599 169.808 7.04799 168.512 7.04799C167.312 7.04799 166.256 7.45599 165.632 8.07999C164.456 9.25599 164.192 11.08 164.192 13C164.192 14.92 164.456 16.744 165.632 17.92C166.256 18.544 167.288 18.976 168.488 18.976C169.76 18.976 170.84 18.664 171.8 17.44V19.288C171.8 21.304 170.84 22.912 168.56 22.912C167.192 22.912 166.592 22.504 165.728 21.736L164.6 22.84C165.848 23.968 166.832 24.424 168.608 24.424C171.704 24.424 173.528 22.288 173.528 19.36ZM171.8 13C171.8 15.208 171.44 17.416 168.872 17.416C166.304 17.416 165.92 15.208 165.92 13C165.92 10.792 166.304 8.58399 168.872 8.58399C171.44 8.58399 171.8 10.792 171.8 13ZM179.576 19V7.19199H177.847V19H179.576ZM179.695 3.83199V1.88799H177.751V3.83199H179.695ZM188.43 19V17.512H187.518C186.414 17.512 185.91 16.864 185.91 15.784V8.51199H188.43V7.19199H185.91V3.56799H184.182V7.19199H182.694V8.51199H184.182V15.832C184.182 17.584 185.19 19 187.206 19H188.43ZM200.17 19V10.984C200.17 8.43999 198.634 7.04799 195.442 7.04799C193.498 7.04799 192.298 7.45599 191.266 8.82399L192.442 9.90399C193.162 8.91999 193.93 8.53599 195.418 8.53599C197.602 8.53599 198.442 9.42399 198.442 11.128V12.256H194.914C192.274 12.256 190.81 13.576 190.81 15.664C190.81 16.6 191.098 17.488 191.698 18.064C192.514 18.856 193.402 19.144 195.034 19.144C196.618 19.144 197.506 18.808 198.442 17.872V19H200.17ZM198.442 14.824C198.442 15.808 198.25 16.48 197.842 16.864C197.074 17.56 196.21 17.656 195.226 17.656C193.33 17.656 192.49 17.008 192.49 15.64C192.49 14.248 193.378 13.552 195.154 13.552H198.442V14.824ZM208.579 19V17.512H207.643C206.443 17.512 206.059 16.936 206.059 15.784V1.91199H204.331V15.856C204.331 17.656 205.267 19 207.331 19H208.579ZM213.161 19V7.19199H211.433V19H213.161ZM213.281 3.83199V1.88799H211.337V3.83199H213.281ZM226 15.544C226 13.312 224.584 12.544 222.52 12.352L220.672 12.184C219.208 12.04 218.56 11.512 218.56 10.456C218.56 9.23199 219.472 8.51199 221.2 8.51199C222.424 8.51199 223.504 8.79999 224.344 9.44799L225.472 8.31999C224.392 7.45599 222.928 7.04799 221.224 7.04799C218.68 7.04799 216.88 8.34399 216.88 10.504C216.88 12.472 218.104 13.48 220.408 13.672L222.352 13.84C223.744 13.96 224.32 14.512 224.32 15.568C224.32 16.96 223.144 17.656 221.176 17.656C219.712 17.656 218.416 17.248 217.504 16.288L216.352 17.44C217.624 18.688 219.184 19.144 221.2 19.144C224.08 19.144 226 17.824 226 15.544ZM238.435 13.552V12.784C238.435 9.23199 236.659 7.04799 233.587 7.04799C230.587 7.04799 228.739 9.25599 228.739 13.096C228.739 17.272 230.755 19.144 233.899 19.144C235.891 19.144 237.019 18.52 238.219 17.32L237.043 16.288C236.107 17.224 235.315 17.632 233.947 17.632C231.667 17.632 230.467 16.144 230.467 13.552H238.435ZM236.731 12.256H230.467C230.515 11.296 230.539 10.912 230.827 10.288C231.331 9.20799 232.315 8.51199 233.587 8.51199C234.859 8.51199 235.843 9.20799 236.347 10.288C236.635 10.912 236.659 11.296 236.731 12.256ZM249.985 8.15199C249.145 7.31199 248.281 7.04799 247.153 7.04799C245.785 7.04799 244.489 7.64799 243.841 8.63199V7.19199H242.113V19H243.841V11.752C243.841 9.95199 244.945 8.58399 246.673 8.58399C247.585 8.58399 248.065 8.79999 248.713 9.44799L249.985 8.15199ZM253.943 19V7.19199H252.215V19H253.943ZM254.063 3.83199V1.88799H252.119V3.83199H254.063ZM267.55 19V11.44C267.55 10.072 267.166 8.96799 266.326 8.15199C265.606 7.43199 264.574 7.04799 263.302 7.04799C261.982 7.04799 260.83 7.52799 259.99 8.48799V7.19199H258.262V19H259.99V11.728C259.99 9.66399 261.142 8.58399 262.918 8.58399C264.694 8.58399 265.822 9.63999 265.822 11.728V19H267.55ZM280.45 19.36V7.19199H278.746V8.58399C277.786 7.33599 276.73 7.04799 275.434 7.04799C274.234 7.04799 273.178 7.45599 272.554 8.07999C271.378 9.25599 271.114 11.08 271.114 13C271.114 14.92 271.378 16.744 272.554 17.92C273.178 18.544 274.21 18.976 275.41 18.976C276.682 18.976 277.762 18.664 278.722 17.44V19.288C278.722 21.304 277.762 22.912 275.482 22.912C274.114 22.912 273.514 22.504 272.65 21.736L271.522 22.84C272.77 23.968 273.754 24.424 275.53 24.424C278.626 24.424 280.45 22.288 280.45 19.36ZM278.722 13C278.722 15.208 278.362 17.416 275.794 17.416C273.226 17.416 272.842 15.208 272.842 13C272.842 10.792 273.226 8.58399 275.794 8.58399C278.362 8.58399 278.722 10.792 278.722 13Z" fill="white"/>
<path d="M73.1304 19.7446V18.5033C72.1644 19.4681 71.2544 19.8823 69.6001 19.8823C67.9726 19.8823 66.7873 19.4681 65.9321 18.6141C65.1586 17.8138 64.7456 16.6564 64.7456 15.3871C64.7456 13.0981 66.3171 11.2233 69.6538 11.2233H73.0453V10.507C73.0453 8.93548 72.2729 8.24598 70.3701 8.24598C68.9911 8.24598 68.3576 8.57732 67.6121 9.43248L65.3231 7.19832C66.7289 5.65365 68.1079 5.21265 70.5078 5.21265C74.5339 5.21265 76.6293 6.92182 76.6293 10.2865V19.7458H73.1304V19.7446ZM73.0476 13.678H70.2068C68.9106 13.678 68.1943 14.2846 68.1943 15.3043C68.1943 16.2971 68.8558 16.9586 70.2616 16.9586C71.2544 16.9586 71.8891 16.8758 72.5238 16.2691C72.9099 15.9109 73.0476 15.3323 73.0476 14.4491V13.678Z" fill="white"/>
<path d="M83.8556 19.7446C80.9051 19.7446 79.6638 17.6761 79.6638 15.6356V0.11084H83.249V15.4151C83.249 16.2703 83.6083 16.7113 84.5183 16.7113H85.8973V19.7446H83.8556Z" fill="white"/>
<path d="M92.5694 19.7447C89.6469 19.7447 88.4056 17.6762 88.4056 15.6357V8.52135H86.8889V5.79135H88.4056V1.54468H91.9907V5.79135H94.5271V8.52135H91.9907V15.4152C91.9907 16.2424 92.3769 16.7114 93.2321 16.7114H94.5282V19.7447H92.5694Z" fill="white"/>
<path d="M97.0354 2.92367V0H100.703V2.92367H97.0354ZM97.0914 19.7447V5.37717H100.677V19.7447H97.0914Z" fill="white"/>
<path d="M112.34 19.7446V11.0576C112.34 9.09993 111.098 8.43726 109.969 8.43726C108.839 8.43726 107.569 9.09876 107.569 11.0576V19.7434H103.984V5.37709H107.486V6.7001C108.423 5.70726 109.747 5.21143 111.072 5.21143C112.505 5.21143 113.664 5.68043 114.463 6.4796C115.62 7.63693 115.925 8.9891 115.925 10.5606V19.7434H112.34V19.7446Z" fill="white"/>
<path d="M127.45 19.7446V11.0576C127.45 9.09993 126.208 8.43726 125.079 8.43726C123.948 8.43726 122.679 9.09876 122.679 11.0576V19.7434H119.094V5.37709H122.596V6.7001C123.533 5.70726 124.857 5.21143 126.181 5.21143C127.615 5.21143 128.774 5.68043 129.573 6.4796C130.73 7.63693 131.035 8.9891 131.035 10.5606V19.7434H127.45V19.7446Z" fill="white"/>
<path d="M52 0H40V4H52V0Z" fill="white"/>
<path d="M52 8H40V12H52V8Z" fill="white"/>
<path d="M52 16H40V20H52V16Z" fill="white"/>
<path d="M4 0H0V4H4V0Z" fill="white"/>
<path d="M4 8H0V12H4V8Z" fill="white"/>
<path d="M4 16H0V20H4V16Z" fill="white"/>
<path d="M12 0H8V4H12V0Z" fill="white"/>
<path d="M12 8H8V12H12V8Z" fill="white"/>
<path d="M12 16H8V20H12V16Z" fill="white"/>
<path d="M16 0H36V12H32V4H16V0Z" fill="white"/>
<path d="M28 8H24V12H28V8Z" fill="white"/>
<path d="M16 8H20V16H36V20H16V8Z" fill="white"/>
</svg>
