<svg width="55" height="74" viewBox="0 0 55 74" version="1.1" xmlns="http://www.w3.org/2000/svg" xmlns:xlink="http://www.w3.org/1999/xlink">
<g id="Canvas" fill="none">
<g id="Layer 1">
<g id="Vector">
<path d="M 54.8077 73.2561L 0 73.2561L 0 0L 54.8077 0L 54.8077 73.2561ZM 6.08975 67.1514L 48.718 67.1514L 48.718 6.10468L 6.08975 6.10468L 6.08975 67.1514Z" fill="#FFFFFF"/>
</g>
<g id="Vector_2">
<path d="M 0 12.2094L 30.4487 12.2094L 30.4487 18.314L 0 18.314L 0 12.2094ZM 0 0L 15.2244 0L 15.2244 6.10468L 0 6.10468L 0 0ZM 0 24.4187L 30.4487 24.4187L 30.4487 30.5234L 0 30.5234L 0 24.4187ZM 0 36.6281L 30.4487 36.6281L 30.4487 42.7327L 0 42.7327L 0 36.6281Z" transform="translate(12.1796 15.2617)" fill="#FFFFFF"/>
</g>
</g>
</g>
</svg>