<svg width="75" height="69" viewBox="0 0 75 69" version="1.1" xmlns="http://www.w3.org/2000/svg" xmlns:xlink="http://www.w3.org/1999/xlink">
<g id="Canvas" fill="none">
<g id="Layer 1">
<g id="Vector">
<path d="M 74.8083 13.6349L 74.8083 0L 0 0L 0 68.1743L 74.8083 68.1743L 74.8083 13.6349ZM 6.80075 6.81743L 68.0075 6.81743L 68.0075 13.6349L 6.80075 13.6349L 6.80075 6.81743ZM 68.0075 61.6977L 6.80075 61.6977L 6.80075 20.4523L 68.0075 20.4523L 68.0075 61.6977Z" fill="#022F51"/>
</g>
<g id="Vector_2">
<path d="M 0 0L 6.80075 0L 6.80075 6.81743L 0 6.81743L 0 0ZM 13.6015 0L 20.4023 0L 20.4023 6.81743L 13.6015 6.81743L 13.6015 0ZM 27.203 0L 34.0038 0L 34.0038 6.81743L 27.203 6.81743L 27.203 0ZM 40.8045 0L 47.6053 0L 47.6053 6.81743L 40.8045 6.81743L 40.8045 0ZM 0 10.2261L 6.80075 10.2261L 6.80075 17.0436L 0 17.0436L 0 10.2261ZM 13.6015 10.2261L 20.4023 10.2261L 20.4023 17.0436L 13.6015 17.0436L 13.6015 10.2261ZM 27.203 10.2261L 34.0038 10.2261L 34.0038 17.0436L 27.203 17.0436L 27.203 10.2261ZM 40.8045 10.2261L 47.6053 10.2261L 47.6053 17.0436L 40.8045 17.0436L 40.8045 10.2261ZM 0 20.4523L 6.80075 20.4523L 6.80075 27.2697L 0 27.2697L 0 20.4523ZM 13.6015 20.4523L 20.4023 20.4523L 20.4023 27.2697L 13.6015 27.2697L 13.6015 20.4523ZM 27.203 20.4523L 34.0038 20.4523L 34.0038 27.2697L 27.203 27.2697L 27.203 20.4523Z" transform="translate(13.6014 27.2695)" fill="#022F51"/>
</g>
</g>
</g>
</svg>