<svg width="122" height="122" viewBox="0 0 122 122" version="1.1" xmlns="http://www.w3.org/2000/svg" xmlns:xlink="http://www.w3.org/1999/xlink">
<g id="Canvas" fill="none">
<g id="Group">
<g id="Ellipse">
<circle cx="61" cy="61" r="61" fill="#1EADF7"/>
</g>
<g id="Vector">
<path d="M 29.6232 25.9991C 9.62311 31.9981 0.123452 41 0.123452 41C -2.18655 46.6871 28.439 78.1098 48.6231 81.802C 65.6046 84.9084 87.4588 82.2505 101.623 69C 132.623 40 120.296 9.13753 119.623 6L 101.623 0C 101.623 0 85.4032 2.02548 78.6231 6C 78.6231 6 76.2113 30.5064 64.6231 37C 64.6231 37 49.6233 20 29.6232 25.9991Z" transform="translate(-1.62305 39.001)" fill="#0062BA"/>
<path d="M 0.123452 41C 0.123452 41 9.62311 31.9981 29.6232 25.9991C 49.6233 20 64.6231 37 64.6231 37C 76.2113 30.5064 78.6231 6 78.6231 6C 85.4032 2.02548 101.623 0 101.623 0L 119.623 6C 120.296 9.13753 132.623 40 101.623 69C 87.4588 82.2505 65.6046 84.9084 48.6231 81.802C 28.439 78.1098 -2.18655 46.6871 0.123452 41Z" stroke-width="2" transform="translate(-1.62305 39.001)" stroke="#0062BA"/>
</g>
</g>
</g>
</svg>
