<svg width="300" height="31" viewBox="0 0 300 31" fill="none" xmlns="http://www.w3.org/2000/svg">
<g clip-path="url(#clip0)">
<path d="M14.9059 0H0.588235C0.258824 0 0 0.258824 0 0.588235V28.5059C0 28.8353 0.258824 29.0941 0.588235 29.0941H14.9059C22.7765 28.9176 29.0941 22.4706 29.0941 14.5412C29.0941 6.62353 22.7647 0.176471 14.9059 0ZM16.2941 24.7412C9.21176 25.9059 3.2 19.8824 4.35294 12.8C5.05882 8.50588 8.51765 5.04706 12.8 4.35294C19.8941 3.2 25.9059 9.21176 24.7529 16.3059C24.0471 20.5882 20.5882 24.0471 16.2941 24.7412Z" fill="black"/>
<path d="M48.7059 4.23523H52.6C52.6824 4.23523 52.753 4.24699 52.8 4.28229L59.6353 24.7058C59.6706 24.8588 59.6236 24.9411 59.4824 24.9411H56.4353C56.3765 24.9411 56.3177 24.8941 56.2824 24.7999L54.9412 20.5882C54.9177 20.5882 54.8471 20.5882 54.7177 20.5882H45.8824C45.8 20.5882 45.7412 20.5529 45.7059 20.4705L44.3412 24.6941C44.3059 24.8588 44.2588 24.9411 44.2118 24.9411H41.753C41.6353 24.9411 41.5765 24.8941 41.6 24.7999L48.5412 4.37641C48.5647 4.28229 48.6236 4.23523 48.7059 4.23523ZM46.6706 18.0941H53.9647C54.0824 18.0941 54.1177 18.047 54.0824 17.9411L50.6471 7.17641C50.5883 7.03523 50.4824 6.96464 50.3294 6.96464C50.1765 6.96464 50.0824 6.99994 50.0353 7.08229L46.553 17.8352C46.5177 18.0117 46.553 18.0941 46.6706 18.0941Z" fill="black"/>
<path d="M65.2824 4.37641V24.7999C65.2824 24.8941 65.2353 24.9411 65.1412 24.9411H62.6471C62.553 24.9411 62.4941 24.8941 62.4941 24.7999V4.37641C62.4941 4.28229 62.5412 4.23523 62.6471 4.23523H65.1412C65.2235 4.23523 65.2824 4.28229 65.2824 4.37641Z" fill="black"/>
<path d="M77.1294 22.5882V24.7999C77.1294 24.894 77.0824 24.9411 76.9765 24.9411H74.7177C72.153 24.9999 70.8588 23.8352 70.8588 21.4705V12.4235C70.8588 12.3293 70.8118 12.2705 70.7177 12.2705H68.1059C68.0118 12.2705 67.9647 12.2235 67.9647 12.1293V10.2117C67.9647 10.1176 68.0118 10.0705 68.1059 10.0705H70.7177C70.8118 10.0705 70.8588 10.0235 70.8588 9.91757V5.9411C70.8588 5.84699 70.9059 5.79993 71.0118 5.79993H73.5059C73.6 5.79993 73.6471 5.84699 73.6471 5.9411V9.90581C73.6471 9.99993 73.6941 10.0588 73.7883 10.0588H76.9647C77.0588 10.0588 77.1177 10.1058 77.1177 10.1999V12.1058C77.1177 12.1999 77.0706 12.247 76.9647 12.247H73.7883C73.6941 12.247 73.6471 12.294 73.6471 12.3999V20.9646C73.6471 21.9411 74.1765 22.4352 75.2353 22.4352H76.953C77.0706 22.447 77.1294 22.494 77.1294 22.5882Z" fill="black"/>
<path d="M83.2118 4.37641V7.45876C83.2118 7.55288 83.1647 7.6117 83.0589 7.6117H79.9765C79.8824 7.6117 79.8353 7.56464 79.8353 7.45876V4.37641C79.8353 4.28229 79.8824 4.23523 79.9765 4.23523H83.0589C83.1647 4.23523 83.2118 4.28229 83.2118 4.37641ZM82.9177 10.2117V24.7999C82.9177 24.8941 82.8706 24.9411 82.7765 24.9411H80.2589C80.1647 24.9411 80.1177 24.8941 80.1177 24.7999V10.2117C80.1177 10.1176 80.1647 10.0705 80.2589 10.0705H82.7765C82.8589 10.0588 82.9177 10.1058 82.9177 10.2117Z" fill="black"/>
<path d="M87.1059 10.0588H89.3176C89.3765 10.0588 89.4235 10.1058 89.4588 10.1999L89.7647 11.5294C89.7882 11.6117 89.8471 11.647 89.9176 11.647C89.9882 11.647 90.0471 11.6235 90.0941 11.5646C90.9529 10.3646 92.2353 9.76465 93.9412 9.76465C95.9765 9.76465 97.5529 10.4117 98.6706 11.7176C99.7882 13.0235 100.353 14.6823 100.353 16.7176V24.7999C100.353 24.8941 100.306 24.9411 100.2 24.9411H97.7059C97.6118 24.9411 97.5647 24.8941 97.5647 24.7999V16.7176C97.5647 15.4588 97.2588 14.3999 96.6353 13.5411C96 12.6941 95.0588 12.2588 93.8 12.2588C92.5412 12.2588 91.5529 12.6941 90.8471 13.5646C90.1412 14.4352 89.7882 15.4823 89.7882 16.7058V24.7882C89.7882 24.8823 89.7412 24.9294 89.6471 24.9294H87.1294C87.0353 24.9294 86.9882 24.8823 86.9882 24.7882V10.2117C86.9647 10.1058 87.0118 10.0588 87.1059 10.0588Z" fill="black"/>
<path d="M103.953 10.0587H106.165C106.224 10.0587 106.271 10.1057 106.306 10.1999L106.612 11.5175C106.635 11.5999 106.694 11.6352 106.765 11.6352C106.835 11.6352 106.894 11.6116 106.941 11.5528C107.8 10.3528 109.082 9.75281 110.788 9.75281C112.824 9.75281 114.4 10.3999 115.518 11.7057C116.635 13.0116 117.2 14.6705 117.2 16.7057V24.7881C117.2 24.8822 117.153 24.9293 117.047 24.9293H114.553C114.459 24.9293 114.412 24.8822 114.412 24.7881V16.7057C114.412 15.4469 114.106 14.3881 113.482 13.5293C112.847 12.6822 111.906 12.2469 110.647 12.2469C109.388 12.2469 108.4 12.6822 107.694 13.5528C106.988 14.4234 106.635 15.4705 106.635 16.694V24.7763C106.635 24.8705 106.588 24.9175 106.494 24.9175H103.977C103.882 24.9175 103.835 24.8705 103.835 24.7763V10.2116C103.812 10.1057 103.859 10.0587 103.953 10.0587Z" fill="black"/>
<path d="M140.471 24.8941C140.376 24.8941 140.353 24.8352 140.329 24.7529L140.035 23.5764C139.976 23.4 139.835 23.4352 139.741 23.5176C138.953 24.3058 137.012 25.1882 135.541 25.1882C131.247 25.1882 128.541 22.047 128.541 17.4588C128.541 12.8705 131.247 9.72936 135.541 9.72936C137.6 9.72936 139.388 10.9882 139.741 11.4C139.882 11.5764 140.035 11.4588 140.035 11.3411V4.34113C140.035 4.24701 140.094 4.19995 140.176 4.19995H142.671C142.753 4.19995 142.812 4.25877 142.812 4.34113V24.7529C142.812 24.847 142.753 24.8941 142.671 24.8941H140.471ZM135.823 22.6823C138.494 22.6823 140.023 20.5058 140.023 17.447C140.023 14.3882 138.494 12.2117 135.823 12.2117C133 12.2117 131.329 14.3882 131.329 17.447C131.329 20.5058 133 22.6823 135.823 22.6823Z" fill="black"/>
<path d="M147.094 8.15294C147.012 8.15294 146.953 8.09412 146.953 8.01177V5.04706C146.953 4.96471 147.012 4.90588 147.094 4.90588H150.035C150.129 4.90588 150.176 4.96471 150.176 5.04706V8.01177C150.176 8.10588 150.118 8.15294 150.035 8.15294H147.094ZM149.976 24.7412C149.976 24.8353 149.918 24.8824 149.835 24.8824H147.341C147.247 24.8824 147.2 24.8235 147.2 24.7412V10.1529C147.2 10.0706 147.259 10.0118 147.341 10.0118H149.835C149.918 10.0118 149.976 10.0706 149.976 10.1529V24.7412Z" fill="black"/>
<path d="M160.529 28.5058C163.612 28.5058 164.706 26.3882 164.706 24.3294V23.5411C164.706 23.4235 164.529 23.3058 164.412 23.4823C164.094 23.8941 162.271 25.1882 160.212 25.1882C156.212 25.1882 153.212 22.047 153.212 17.4588C153.212 12.8705 155.918 9.72937 160.212 9.72937C161.682 9.72937 163.588 10.5529 164.412 11.3764C164.506 11.4588 164.647 11.5176 164.706 11.3529L165 10.1764C165.024 10.0941 165.059 10.0353 165.141 10.0353H167.341C167.424 10.0353 167.482 10.0941 167.482 10.1764V24.3529C167.482 28.3176 164.659 31.0235 160.518 31.0235C156.906 31.0235 154.165 29 153.929 26.647C153.929 26.5529 153.988 26.5058 154.071 26.5058H156.624C156.706 26.5058 156.741 26.5647 156.765 26.647C157.035 27.3058 158.094 28.5058 160.529 28.5058ZM160.506 22.6823C163.176 22.6823 164.706 20.5058 164.706 17.447C164.706 14.3882 163.176 12.2117 160.506 12.2117C157.682 12.2117 156.012 14.3882 156.012 17.447C156 20.5058 157.682 22.6823 160.506 22.6823Z" fill="black"/>
<path d="M171.765 8.15294C171.682 8.15294 171.623 8.09412 171.623 8.01177V5.04706C171.623 4.96471 171.682 4.90588 171.765 4.90588H174.706C174.8 4.90588 174.847 4.96471 174.847 5.04706V8.01177C174.847 8.10588 174.788 8.15294 174.706 8.15294H171.765ZM174.647 24.7412C174.647 24.8353 174.588 24.8824 174.506 24.8824H172.012C171.918 24.8824 171.871 24.8235 171.871 24.7412V10.1529C171.871 10.0706 171.929 10.0118 172.012 10.0118H174.506C174.588 10.0118 174.647 10.0706 174.647 10.1529V24.7412Z" fill="black"/>
<path d="M185.741 24.7412C185.741 24.8353 185.682 24.8823 185.6 24.8823H183.341C180.906 24.8823 179.494 23.8235 179.494 21.4118V12.3529C179.494 12.2706 179.435 12.2118 179.353 12.2118H176.741C176.659 12.2118 176.6 12.1529 176.6 12.0706V10.1529C176.6 10.0706 176.659 10.0118 176.741 10.0118H179.353C179.435 10.0118 179.494 9.95293 179.494 9.87058V5.89411C179.494 5.79999 179.553 5.75293 179.635 5.75293H182.129C182.212 5.75293 182.271 5.81175 182.271 5.89411V9.85881C182.271 9.95293 182.329 9.99999 182.412 9.99999H185.588C185.671 9.99999 185.729 10.0588 185.729 10.1412V12.047C185.729 12.1412 185.671 12.1882 185.588 12.1882H182.412C182.318 12.1882 182.271 12.247 182.271 12.3294V20.8823C182.271 21.7882 182.682 22.3529 183.859 22.3529H185.588C185.671 22.3529 185.729 22.4118 185.729 22.4941V24.7412H185.741Z" fill="black"/>
<path d="M203.118 24.7411C203.118 24.8352 203.059 24.8823 202.976 24.8823H202.118C200.447 24.8823 199.447 24.4705 199 23.5293C198.941 23.3882 198.788 23.4117 198.729 23.4705C198.023 24.1999 196.2 25.1764 193.494 25.1764C189.553 25.1764 187.612 23.2705 187.612 20.4705C187.612 17.9176 189.753 15.9999 194.082 15.9999H197.376C198.024 15.9999 198.341 15.447 198.341 15.0352C198.341 13.8352 198.047 12.2117 194.553 12.2117C192.023 12.2117 190.882 13.3882 190.882 14.8823C190.882 14.9764 190.823 15.0235 190.741 15.0235H188.235C188.141 15.0235 188.094 14.9646 188.094 14.8823C188.094 11.4117 191.235 9.70581 194.565 9.70581C198.624 9.70581 201.153 11.4352 201.153 15.0235V21.3999C201.153 21.847 201.506 22.3646 202.118 22.3646H202.976C203.059 22.3646 203.118 22.4235 203.118 22.5058V24.7411ZM198.353 18.3646C198.353 18.2823 198.294 18.2235 198.212 18.2235H194.094C190.976 18.2235 190.423 19.4588 190.423 20.4823C190.423 21.5411 191.153 22.6823 193.506 22.6823C197.059 22.6823 198.294 20.5646 198.353 18.7764V18.3646Z" fill="black"/>
<path d="M208.353 24.7412C208.353 24.8353 208.294 24.8823 208.212 24.8823H205.718C205.623 24.8823 205.576 24.8235 205.576 24.7412C205.576 17.9529 205.576 11.1294 205.576 4.32941C205.576 4.23529 205.635 4.18823 205.718 4.18823H208.212C208.294 4.18823 208.353 4.24706 208.353 4.32941V24.7412Z" fill="black"/>
<path d="M212.623 8.15294C212.541 8.15294 212.482 8.09412 212.482 8.01177V5.04706C212.482 4.96471 212.541 4.90588 212.623 4.90588H215.565C215.659 4.90588 215.706 4.96471 215.706 5.04706V8.01177C215.706 8.10588 215.647 8.15294 215.565 8.15294H212.623ZM215.506 24.7412C215.506 24.8353 215.447 24.8824 215.365 24.8824H212.871C212.776 24.8824 212.729 24.8235 212.729 24.7412V10.1529C212.729 10.0706 212.788 10.0118 212.871 10.0118H215.365C215.447 10.0118 215.506 10.0706 215.506 10.1529V24.7412Z" fill="black"/>
<path d="M228.623 15.0352C228.529 15.0352 228.482 14.9764 228.482 14.894C228.482 13.2823 227.188 12.2235 224.812 12.2235C222.612 12.2235 221.635 13.1882 221.635 14.1058C221.635 15.7764 223.753 15.8117 225.223 16.0117C228.165 16.4235 231.694 16.694 231.694 20.447C231.694 23.7999 228.906 25.1764 225.223 25.1764C220.753 25.1764 218.576 22.8235 218.576 19.9999C218.576 19.9058 218.635 19.8588 218.718 19.8588H221.188C221.282 19.8588 221.365 19.9176 221.365 19.9999C221.365 21.4705 222.859 22.6705 225.212 22.6705C226.706 22.6705 228.882 22.3529 228.882 20.4352C228.882 18.7646 226.447 18.647 225.212 18.494C222.388 18.1764 218.835 17.7293 218.835 14.0823C218.835 11.6705 221.153 9.70581 224.8 9.70581C228.412 9.70581 231.271 11.4117 231.271 14.8823C231.271 14.9764 231.235 15.0235 231.153 15.0235H228.623V15.0352Z" fill="black"/>
<path d="M236.941 18.447C236.847 18.447 236.8 18.5058 236.8 18.5882C236.8 20.7293 238.353 22.6705 240.976 22.6705C243.059 22.6705 244.094 21.7882 244.706 20.6117C244.765 20.494 244.823 20.4705 244.906 20.4705H247.518C247.612 20.4705 247.694 20.494 247.659 20.6117C246.894 23.494 244.282 25.1646 240.953 25.1646C236.541 25.1646 233.812 22.0235 233.812 17.4352C233.812 12.8235 236.4 9.70581 240.953 9.70581C245.541 9.70581 248.129 12.847 248.129 17.4352C248.129 17.7293 248.047 18.047 247.988 18.2823C247.965 18.3764 247.929 18.4235 247.847 18.4235H236.941V18.447ZM240.976 12.2117C238.129 12.2117 236.8 14.7058 236.8 16.094C236.8 16.1764 236.882 16.2352 236.941 16.2352H244.941C245.023 16.2352 245.082 16.1764 245.082 16.094C245.094 14.4235 243.882 12.2117 240.976 12.2117Z" fill="black"/>
<path d="M258.035 12.2118C255.565 12.2118 254.153 14.3529 254.153 16.6471V24.7294C254.153 24.8235 254.094 24.8706 254.012 24.8706H251.518C251.423 24.8706 251.376 24.8118 251.376 24.7294V10.1529C251.376 10.0706 251.435 10.0118 251.518 10.0118H253.718C253.8 10.0118 253.835 10.0706 253.859 10.1529L254.153 11.4706C254.212 11.6471 254.388 11.5882 254.471 11.5059C255.471 10.5059 256.553 9.71765 258.023 9.71765H259.518C259.612 9.71765 259.659 9.77647 259.659 9.85883V12.0588C259.659 12.1529 259.6 12.2 259.518 12.2H258.035V12.2118Z" fill="black"/>
<path d="M262.035 8.15294C261.953 8.15294 261.894 8.09412 261.894 8.01177V5.04706C261.894 4.96471 261.953 4.90588 262.035 4.90588H264.976C265.071 4.90588 265.118 4.96471 265.118 5.04706V8.01177C265.118 8.10588 265.059 8.15294 264.976 8.15294H262.035ZM264.918 24.7412C264.918 24.8353 264.859 24.8824 264.776 24.8824H262.282C262.188 24.8824 262.141 24.8235 262.141 24.7412V10.1529C262.141 10.0706 262.2 10.0118 262.282 10.0118H264.776C264.859 10.0118 264.918 10.0706 264.918 10.1529V24.7412Z" fill="black"/>
<path d="M271.624 10.0118C271.706 10.0118 271.741 10.0706 271.765 10.1529L272.059 11.4706C272.082 11.6471 272.318 11.5882 272.376 11.5059C272.965 10.6235 274.259 9.71765 276.223 9.71765C280.482 9.71765 282.635 12.8353 282.635 16.6588V24.7412C282.635 24.8353 282.576 24.8824 282.494 24.8824H280C279.918 24.8824 279.859 24.8235 279.859 24.7412V16.6588C279.859 14.4235 278.859 12.2235 275.953 12.2235C273.482 12.2235 272.071 14.3647 272.071 16.6588V24.7412C272.071 24.8353 272.012 24.8824 271.929 24.8824H269.412C269.318 24.8824 269.271 24.8235 269.271 24.7412V10.1529C269.271 10.0706 269.329 10.0118 269.412 10.0118H271.624Z" fill="black"/>
<path d="M292.976 28.5058C296.059 28.5058 297.153 26.3882 297.153 24.3294V23.5411C297.153 23.4235 296.976 23.3058 296.859 23.4823C296.541 23.8941 294.718 25.1882 292.659 25.1882C288.659 25.1882 285.659 22.047 285.659 17.4588C285.659 12.8705 288.365 9.72937 292.659 9.72937C294.129 9.72937 296.035 10.5529 296.859 11.3764C296.953 11.4588 297.094 11.5176 297.153 11.3529L297.447 10.1764C297.471 10.0941 297.506 10.0353 297.588 10.0353H299.788C299.871 10.0353 299.929 10.0941 299.929 10.1764V24.3529C299.929 28.3176 297.106 31.0235 292.965 31.0235C289.353 31.0235 286.612 29 286.376 26.647C286.376 26.5529 286.435 26.5058 286.518 26.5058H289.071C289.153 26.5058 289.188 26.5647 289.212 26.647C289.471 27.3058 290.529 28.5058 292.976 28.5058ZM292.941 22.6823C295.612 22.6823 297.141 20.5058 297.141 17.447C297.141 14.3882 295.612 12.2117 292.941 12.2117C290.118 12.2117 288.447 14.3882 288.447 17.447C288.447 20.5058 290.118 22.6823 292.941 22.6823Z" fill="black"/>
</g>
<defs>
<clipPath id="clip0">
<rect width="299.941" height="31" fill="white"/>
</clipPath>
</defs>
</svg>
