<?xml version="1.0" encoding="utf-8"?>
<!-- Generator: Adobe Illustrator 21.0.2, SVG Export Plug-In . SVG Version: 6.00 Build 0)  -->
<svg version="1.1" id="Layer_1" xmlns="http://www.w3.org/2000/svg" xmlns:xlink="http://www.w3.org/1999/xlink" x="0px" y="0px"
	 viewBox="0 0 48 48" style="enable-background:new 0 0 48 48;" xml:space="preserve">
<style type="text/css">
	.st0{fill:#3CCD6D;}
	.st1{fill:#D3F0FE;}
</style>
<g>
	<path class="st0" d="M32.7,2.1c0.1,0.1,0.2,0.2,0.3,0.3c-0.3,0.1-0.6,0.2-0.8,0.4C32.1,2.8,32,2.9,32,3c0,0.2-0.1,0.4-0.3,0.5
		c0,0-0.1,0.3-0.1,0.3c-0.3,0.1-0.4-0.1-0.3,0.9c-0.2,0-0.3,0-0.5,0c0,0,0-0.3,0-0.2c0.1,0.1,0.2-0.1,0.3,0
		c-0.3,0.1-0.7-0.2-0.8-0.4c-0.1-0.2,0-0.3,0.2-0.4c0.2,0,0.3-0.1,0.3-0.4c0-0.2-0.2-0.2-0.4-0.3C29.9,3.1,29.5,3,29,2.8
		c-0.1,0-0.2-0.2-0.3-0.2c-0.3,0-0.5,0-0.8,0.1c-0.7,0.2-1.2,0.8-1.5,1.4c-0.4,0.6-0.8,1-1.5,1.2c-0.3,0.1-0.5,0.4-0.5,0.7
		c0,0.3,0.1,0.6,0.4,0.7c0.2,0.1,0.4,0.1,0.5,0c0.4-0.2,0.7-0.1,0.9,0.3c0,0.1,0.1,0.2,0.1,0.3c0.1,0.3,0.1,0.3,0.3,0.3
		c0.2-0.1,0.3-0.1,0.4-0.2c0.1-0.1,0.2-0.2,0.2-0.4c0.1-0.3,0.1-0.5,0.1-0.8c0-0.4,0-0.7,0-1.1c0-0.1,0.1-0.3,0.2-0.3
		C27.9,4.8,28,4.6,28,4.4c0-0.1,0.1-0.3,0.1-0.3c0.1,0,0.3,0,0.4,0.1c0,0,0,0.2,0,0.3c-0.1,0.1-0.1,0.3-0.2,0.4
		c-0.1,0.3-0.1,0.6,0.1,0.8C28.5,6,28.7,6.1,29,6c0.2-0.1,0.4-0.1,0.6-0.2c0.2,0,0.3,0,0.5,0c0,0,0,0.1,0,0.1
		c-0.2,0-0.3,0.1-0.5,0.1c-0.4,0-0.5,0.1-0.4,0.5c0.1,0.2-0.1,0.3-0.2,0.3C28.6,7,28.6,7,28.6,7.4c0.1,0.3-0.1,0.5-0.3,0.6
		c-0.4,0.1-0.9,0.2-1.4,0.3c-0.3-0.3-0.5-0.2-0.8-0.1c-0.1,0-0.3-0.2-0.4-0.3c0-0.1,0-0.2,0.1-0.3C26,7.3,26,7.2,25.9,6.9
		c-0.3,0.3-0.4,0.6-0.4,1c0,0.3,0,0.4-0.3,0.5c-0.4,0-0.8,0.3-1.1,0.5c-0.4,0.3-0.8,0.7-1.3,0.9c-0.1,0.1-0.3,0-0.5,0
		c0,0.3-0.2,0.3-0.5,0.2c-0.2-0.1-0.4,0-0.5,0.3c0.5,0,0.6,0.5,0.9,0.7c0,0,0.1,0.2,0,0.2c-0.1,0.2-0.1,0.4-0.2,0.7
		c-0.1,0.2-0.2,0.3-0.4,0.3c-0.5-0.1-1.1-0.2-1.6-0.3c-0.1,0-0.3,0.1-0.5,0.1c-0.3,0-0.1,0.3-0.2,0.4c-0.1,0.4-0.2,0.7-0.4,1.1
		c0,0.1-0.1,0.2-0.2,0.3c0.3,0.1,0.2,0.3,0.2,0.5c-0.1,0.3,0.1,0.5,0.4,0.4c0.2-0.1,0.3,0,0.4,0.2c0.1,0.3,0.1,0.3,0.4,0.2
		c0.2-0.1,0.5-0.1,0.7-0.1c0.2,0,0.4,0,0.5-0.2c0-0.1,0.1-0.1,0.2-0.1c0.4-0.1,0.4-0.3,0.5-0.6c0.1-0.2,0.3-0.5,0.5-0.6
		c0.2-0.1,0.4-0.2,0.6-0.3c0.2-0.1,0.3-0.2,0.3-0.4c0.1-0.4,0.2-0.5,0.6-0.3c0.2,0.1,0.4,0.1,0.6,0c0.2-0.1,0.3-0.2,0.5-0.3
		c0.3-0.1,0.5,0,0.7,0.1c0.6,0.5,1.2,1.1,1.8,1.6c0.2,0.2,0.5,0.3,0.2,0.7c0,0,0,0.1,0,0.1s0,0.1,0,0.1c0,0,0,0,0,0
		c0,0,0.1,0,0.1-0.1c0.1-0.1,0.2-0.3,0.2-0.4c0-0.2-0.4-0.2-0.1-0.4c0.2-0.1,0.4,0,0.4,0.2c0,0,0.1,0,0.1,0c0-0.1,0-0.2-0.1-0.3
		c-0.1-0.1-0.2-0.1-0.3-0.2c-0.3-0.2-0.7-0.3-1-0.5c-0.2-0.1-0.3-0.3-0.4-0.5c-0.1-0.2-0.3-0.4-0.4-0.6c0-0.1,0-0.2,0-0.3
		c0.1,0,0.2,0,0.3,0c0.4,0.3,0.9,0.6,1.3,0.9c0.1,0.1,0.3,0.2,0.4,0.2c0.3,0.1,0.5,0.3,0.5,0.6c0,0.5,0.5,0.8,0.9,0.8
		c0.1,0,0.2-0.1,0.3-0.2c0,0-0.1-0.2-0.1-0.2c0-0.1,0-0.1-0.1-0.2c0.2-0.1,0.4-0.3,0.6-0.3c0.2,0,0.4,0.1,0.6,0.1
		c0,0.2,0.1,0.3,0.1,0.5c0,0.1,0.1,0.3,0.1,0.4c0.1,0.1,0.2,0.2,0.3,0.4c0.3,0.4,0.8,0.5,1.2,0.2c0.1,0,0.2,0,0.3,0
		c0.3,0.2,0.6,0.1,0.8-0.1c0.2-0.1,0.4-0.2,0.6-0.3c0.1,0.5,0.2,0.9,0.3,1.3c0.1,0.6-0.1,1.3-1,1.3c-0.7,0-1.5,0.1-2.2,0
		c-0.4,0-0.9-0.1-1.3-0.4c-0.4-0.3-0.9,0-1,0.5c0,0.5-0.3,0.7-0.7,0.5c-0.4-0.1-0.7-0.3-1.1-0.5c-0.2-0.1-0.4-0.3-0.6-0.4
		c-0.4-0.2-0.9-0.3-1.3-0.5c-0.2-0.1-0.2-0.1-0.1-0.3c0-0.1,0.1-0.1,0.2-0.2c0.1-0.1,0.2-0.3,0.1-0.5C26,15.4,26,15.3,26,15.2
		c-0.1-0.2-0.2-0.3-0.4-0.3c-1.3,0.1-2.6,0.3-3.9,0.4c-0.1,0-0.3,0-0.4,0.1c-0.4,0.2-0.9,0.1-1.3,0.1c-0.2,0-0.4,0-0.5,0.1
		c-0.4,0.3-0.7,0.6-1.1,0.9c-0.3,0.2-0.4,0.5-0.4,0.8c0,0.2-0.1,0.4-0.3,0.5c-0.3,0.2-0.7,0.3-1.1,0.5c-0.2,0.1-0.5,0.2-0.6,0.3
		c-0.6,0.7-1.1,1.5-1.7,2.2c-0.1,0.2-0.1,0.4,0,0.6c0.2,0.4,0.1,0.9,0,1.4c-0.1,0.5-0.3,1-0.4,1.5c-0.1,0.4-0.1,0.7,0.1,1
		c0.3,0.4,0.4,0.9,0.5,1.4c0.1,0.6,0.4,1.2,0.9,1.7c0.2,0.2,0.5,0.4,0.7,0.7c0.3,0.4,0.8,0.5,1.3,0.6c0.8,0.1,1.6,0.3,2.4,0.4
		c0.3,0,0.7,0,1-0.1c0.5-0.2,0.9-0.4,1.4-0.5c0.6-0.2,0.9,0.1,1.1,0.7c0.1,0.2,0.2,0.4,0.4,0.4c0.3,0,0.5,0,0.8-0.1
		c0.6-0.1,1,0.3,0.9,0.9c0,0.2,0,0.4-0.1,0.7c-0.1,0.3-0.2,0.6-0.3,1c0.1,0.3,0.5,0.6,0.9,0.9c0.1,0.1,0.3,0.2,0.3,0.3
		c0.4,0.6,0.7,1.2,0.8,2c0,0.1,0.1,0.2,0.1,0.4c0.2,0.3,0.1,0.6-0.2,0.8c-0.1,0.1-0.2,0.2-0.3,0.4c-0.1,0.4-0.3,0.8-0.4,1.2
		c-0.1,0.2,0,0.3,0.1,0.5c0.4,0.5,0.8,1,1.2,1.5c0.1,0.1,0.1,0.3,0.1,0.4c-0.2,0.6,0.1,1,0.4,1.4c0.2,0.3,0.4,0.6,0.6,0.8
		c0,0.1,0.1,0.2,0.1,0.3c-0.1,0.3,0.1,0.4,0.4,0.5c0.3,0.1,0.7,0.1,1,0c0.4-0.1,0.9-0.2,1.4-0.3c0.2,0,0.5-0.1,0.7-0.2
		c0.8-0.4,1.6-1,2.2-1.7c0.2-0.2,0.2-0.4,0.3-0.7c0-0.1,0.1-0.2,0.1-0.2c0.2-0.2,0.4-0.3,0.7-0.5c0.4-0.2,0.5-0.5,0.5-0.8
		c0-0.6,0.3-1,0.7-1.3c0.4-0.3,0.8-0.6,1.3-0.9c0.4-0.3,0.6-0.7,0.6-1.1c0-1-0.1-2.1-0.3-3.1c0-0.2,0-0.4,0.1-0.5
		c0.5-0.8,1-1.7,1.5-2.5c0.2-0.3,0.4-0.6,0.7-0.9c0.8-0.7,1.2-1.6,1.5-2.6c0.1-0.5,0.3-0.9,0.4-1.4c0.1-0.4,0.1-0.8,0.1-1.2
		c-0.6,0.3-1.1,0.7-1.6,0.9c-0.3,0.1-0.6,0.1-0.9,0.1c-0.2,0-0.3-0.3-0.4-0.4c-0.1-0.3-0.2-0.5-0.5-0.7c-0.4-0.3-0.7-0.5-1.1-0.8
		c-0.6-0.5-1-1.1-1.1-1.8c-0.1-0.3-0.2-0.5-0.3-0.7c-0.7-1-1.3-2-2-2.9c-0.1-0.1-0.1-0.2-0.1-0.3c0.2,0.2,0.4,0.5,0.6,0.7
		c0,0,0.1,0,0.1-0.1c0-0.1,0-0.3,0.1-0.5c0.4,0.5,0.7,1,1.1,1.5c0.1,0.1,0.2,0.3,0.3,0.4c0.4,0.2,0.6,0.6,0.7,1
		c0.1,0.4,0.4,0.8,0.7,1c0.6,0.4,0.9,1,1.1,1.7c0.1,0.3,0.2,0.6,0.3,0.9c0.1,0.2,0.3,0.3,0.5,0.2c0.2-0.1,0.4-0.2,0.6-0.4
		c0.4-0.3,0.8-0.7,1.2-1c0.2-0.2,0.4-0.5,0.5-0.8c0.1-0.2,0.3-0.4,0.5-0.5c0.2,0,0.2-0.2,0.3-0.3c0.1-0.3,0.3-0.6,0.5-0.9
		c0-0.1,0-0.2,0.1-0.3c0-0.1,0-0.3,0.1-0.4c0-0.3,0.1-0.6,0.1-0.9c0-0.3-0.3-0.5-0.6-0.5c-0.2,0-0.4-0.1-0.5-0.1
		c-0.2-0.1-0.4,0-0.6,0.2c-0.2,0.2-0.4,0.3-0.6,0.4c0,0-0.1,0-0.2-0.1c-0.1-0.1-0.3-0.2-0.4-0.3c-0.4-0.5-0.8-1-1.1-1.5
		c-0.1-0.1-0.1-0.2-0.1-0.3c0-0.1,0.1-0.2,0.2-0.3c0.1,0,0.2,0,0.3,0.1c0.3,0.3,0.7,0.6,1,0.9c0.1,0.1,0.3,0.2,0.5,0.2
		c0.2,0.1,0.3,0,0.5-0.2c0.2-0.3,0.4-0.3,0.5,0c0.2,0.4,0.5,0.3,0.8,0.3c0.5-0.1,1-0.3,1.5-0.6c0.9-0.6,1.8-0.3,2.2,0.7
		c-2-7.3-7.4-13.2-14.3-15.9C32.9,1.8,32.9,1.8,32.7,2.1z"/>
	<path class="st0" d="M15,1.8c0.2-0.1,0.3-0.2,0.5-0.3c0,0.1-0.1,0.1-0.1,0.2c0.2-0.1,0.4-0.1,0.6-0.2c0,0,0.1-0.1,0.1-0.1
		c0.1-0.1,0.2-0.3,0.4-0.3c-0.7,0.2-1.4,0.5-2,0.8c0,0.1,0,0.2,0,0.3C14.7,2.1,14.9,1.9,15,1.8z"/>
	<path class="st0" d="M29.8,0.7c0.1,0,0.2,0,0.3,0.1C30,0.8,29.9,0.7,29.8,0.7z"/>
	<path class="st0" d="M0.5,19.3c0.2-0.7,0.3-1.4,0.5-2.1C0.8,17.8,0.6,18.5,0.5,19.3z"/>
	<path class="st0" d="M6.2,7.9C6.2,7.9,6.2,7.9,6.2,7.9C6.2,7.9,6.2,7.9,6.2,7.9z"/>
	<path class="st0" d="M28.8,0.5C28.8,0.5,28.8,0.5,28.8,0.5C28.8,0.5,28.8,0.5,28.8,0.5z"/>
	<path class="st0" d="M16.7,1.1c0.6-0.2,1.1-0.3,1.7-0.5C17.8,0.8,17.2,1,16.7,1.1z"/>
	<path class="st0" d="M19.1,0.6c-0.2,0.1-0.4,0.2-0.6,0.2c0,0,0.1,0,0.1,0.1c-0.1,0.1-0.1,0.3-0.2,0.3c-0.3,0.2-0.6,0.3-1,0.4
		c-0.5,0.1-0.9,0.4-1.2,0.7c-0.1,0,0,0.2-0.1,0.3c-0.5,0.1-0.7,0.6-1,1.1c0.4,0.1,0.1,0.3,0.1,0.5c0.1,0,0.1,0,0.2-0.1
		C15.7,4,16,3.8,16.3,3.6c0,0,0.1,0,0.1,0c0.4,0,0.7-0.3,1-0.5C17.5,3,17.7,3,17.9,3c0.3-0.1,0.7,0,0.9-0.2c0.3-0.2,0.6-0.2,0.9-0.1
		c0.3,0,0.6,0,0.8,0c1.3-0.3,2.5-0.9,3.6-1.8c0.2-0.2,0.5-0.3,0.7-0.5c0.2-0.2,0.4-0.3,0.7-0.3C25,0,24.5,0,24,0
		c-1.7,0-3.4,0.2-5.1,0.5C19,0.5,19,0.5,19.1,0.6C19.1,0.6,19.1,0.6,19.1,0.6z"/>
	<path class="st0" d="M5.9,39c-0.1-0.2,0-0.4,0.1-0.5c0.3-0.2,0.5-0.4,0.8-0.5c0.1,0,0.2,0,0.3,0c0.3,0.1,0.4,0,0.4-0.3
		c0-0.3,0-0.7,0-1c-0.1-0.6-0.2-1.1-0.3-1.7c0-0.1,0-0.2,0.1-0.3c0.3-0.5,0.7-1,1-1.5c0.2-0.4,0.1-0.7-0.2-1.1
		c-0.6-0.7-1.2-1.5-1.8-2.2c-0.2-0.2-0.6-0.4-0.9-0.6c-0.1,0-0.1-0.1-0.1-0.2C5.1,29,5,28.7,4.8,28.4c-0.1-0.1-0.3-0.1-0.5-0.1
		c-0.1-0.2-0.2-0.4-0.4-0.7c0-0.1-0.1-0.3-0.1-0.3c0.1-0.3,0.1-0.5,0-0.7c-0.5-1-1.1-2-1.9-2.8c-0.1-0.1-0.1-0.1-0.1-0.2
		c-0.2-0.6-0.4-1.2-0.5-1.8c-0.1-0.2,0-0.5,0-0.8c0-0.2,0-0.4-0.3-0.4c0,0-0.1,0-0.1-0.1c-0.1-0.2-0.2-0.4-0.5-0.4
		c0,0-0.1-0.1-0.1-0.2C0.1,21.2,0,22.6,0,24c0,6.3,2.5,12.1,6.5,16.4c-0.2-0.3-0.3-0.5-0.3-0.9C6.1,39.3,6,39.1,5.9,39z"/>
	<path class="st0" d="M21.3,8.8c0.2,0.1,0.4,0.1,0.6,0.2c-0.2,0.1-0.5,0.2-0.7,0.3c0,0,0,0,0,0c0.6,0,1.2-0.1,1.8-0.1
		C23,9.1,23,9,23,9c0.1-0.1,0.2-0.2,0.2-0.4c-0.1-0.1-0.3-0.2-0.4-0.3c0-0.1-0.1-0.3-0.2-0.5c0-0.1-0.1-0.2-0.1-0.2
		c0-0.3,0-0.5,0-0.8c0,0-0.2,0-0.3-0.1c0.1-0.1,0.1-0.1,0.2-0.2c-0.4-0.3-0.5,0.2-0.7,0.2c0,0.2-0.1,0.4-0.1,0.7
		c0.1,0,0.2-0.1,0.3-0.1c0,0,0,0.1,0,0.1c0,0.1-0.1,0.1-0.1,0.2c0.1,0,0.1,0,0.2,0.1c0.2,0.1,0.2,0.3,0,0.4
		c-0.2,0.1-0.4,0.1-0.2,0.4c0,0-0.1,0.1-0.2,0.1C21.5,8.7,21.4,8.7,21.3,8.8z"/>
	<path class="st0" d="M20.8,8.6c0.2,0,0.3-0.1,0.4-0.4c0-0.2,0.1-0.3,0.2-0.5c0-0.1-0.2-0.3-0.3-0.2c-0.3,0.1-0.5,0.3-0.7,0.5
		c-0.1,0.1-0.2,0.3-0.2,0.4c0,0.1,0,0.2-0.1,0.2c0.1,0,0.2,0,0.2,0C20.5,8.7,20.6,8.6,20.8,8.6z"/>
	<path class="st0" d="M6.9,7.4C7.2,7,7.7,6.9,8.2,6.9c0.3,0,0.5,0.1,0.6-0.3c0-0.1,0.1-0.2,0.2-0.2C8.9,6.2,9,6.2,9,6.1
		c0.1,0,0.2,0,0.3-0.1c0.1,0,0.1-0.2,0.1-0.2c0-0.1-0.1-0.1-0.2-0.1c-0.1,0-0.2,0-0.4,0c0,0,0-0.1,0-0.1c0.3-0.1,0.5-0.1,0.8-0.1
		c0.1,0,0.3,0.1,0.3,0.2c0.1,0.2,0.3,0.2,0.4,0.2c0.1,0,0.3-0.1,0.4-0.1c0.4,0,0.7-0.2,0.8-0.6c0.1-0.3,0.3-0.7,0.5-1
		c0.2-0.3,0.4-0.4,0.6-0.7C12.9,3.4,13,3.3,13,3.1c-0.1,0-0.2-0.1-0.4-0.1c0.1-0.1,0.1-0.2,0.2-0.3c-2.4,1.3-4.6,3-6.5,5
		c0.1-0.1,0.2-0.1,0.3-0.2C6.8,7.5,6.9,7.5,6.9,7.4z"/>
	<path class="st0" d="M14.4,2c-0.2,0.1-0.4,0.2-0.6,0.3c0,0,0,0,0.1,0C14,2.2,14.2,2.2,14.4,2z"/>
	<path class="st1" d="M12.9,2.7C12.9,2.7,12.9,2.7,12.9,2.7c0.3-0.1,0.6-0.3,0.9-0.4C13.4,2.4,13.2,2.6,12.9,2.7z"/>
	<path class="st1" d="M14.5,1.9C14.5,1.9,14.4,2,14.4,2C14.4,2,14.5,2,14.5,1.9C14.5,1.9,14.5,1.9,14.5,1.9z"/>
	<path class="st1" d="M1.1,16.7C1.1,16.8,1,17,1,17.1c1-3.5,2.8-6.6,5.2-9.3C3.9,10.4,2.2,13.4,1.1,16.7z"/>
	<path class="st1" d="M6.4,7.7c0,0-0.1,0.1-0.1,0.1C6.3,7.8,6.3,7.7,6.4,7.7C6.4,7.7,6.4,7.7,6.4,7.7z"/>
	<path class="st1" d="M47.2,17.9c0-0.1-0.1-0.2-0.1-0.2c0.6,2,0.9,4.2,0.9,6.4c0,13.2-10.7,24-24,24c-6.9,0-13.1-2.9-17.5-7.6
		C6.6,40.6,6.8,40.8,7,41c6,5.7,13.1,8,21.3,6.6c6.2-1.1,11.2-4.3,15-9.4c2.8-3.7,4.3-7.9,4.6-12.5C48.1,23.1,47.9,20.4,47.2,17.9z"
		/>
	<path class="st1" d="M0.4,19.7c0,0,0,0.1,0,0.2c0-0.2,0.1-0.4,0.1-0.6C0.4,19.4,0.4,19.6,0.4,19.7z"/>
	<path class="st1" d="M16.6,1.2C16.6,1.2,16.5,1.2,16.6,1.2C16.6,1.2,16.6,1.2,16.6,1.2C16.6,1.2,16.6,1.2,16.6,1.2z"/>
	<path class="st1" d="M28.8,0.5c0.3,0.1,0.7,0.2,1,0.2C29.5,0.6,29.2,0.6,28.8,0.5z"/>
	<path class="st1" d="M32.6,1.6c0,0-0.1,0-0.1-0.1c-0.8-0.3-1.6-0.5-2.4-0.7C31,1,31.9,1.3,32.8,1.7C32.7,1.6,32.7,1.6,32.6,1.6z"/>
	<path class="st1" d="M25.9,0.1c-0.1,0-0.2,0-0.3,0c1.1,0.1,2.2,0.2,3.3,0.4C27.8,0.3,26.9,0.1,25.9,0.1z"/>
	<path class="st1" d="M18.8,0.5c-0.1,0-0.3,0.1-0.4,0.1c0.2,0,0.4-0.1,0.5-0.1C18.9,0.5,18.8,0.5,18.8,0.5z"/>
	<path class="st1" d="M24,48c13.2,0,24-10.7,24-24c0-2.2-0.3-4.3-0.9-6.4c-0.4-0.9-1.3-1.2-2.2-0.7c-0.5,0.3-0.9,0.5-1.5,0.6
		c-0.3,0.1-0.6,0.1-0.8-0.3c-0.1-0.3-0.3-0.2-0.5,0c-0.1,0.2-0.3,0.2-0.5,0.2c-0.2-0.1-0.4-0.1-0.5-0.2c-0.4-0.3-0.7-0.6-1-0.9
		c-0.1-0.1-0.2-0.1-0.3-0.1c-0.1,0-0.2,0.2-0.2,0.3c0,0.1,0.1,0.2,0.1,0.3c0.4,0.5,0.7,1,1.1,1.5c0.1,0.1,0.3,0.2,0.4,0.3
		c0,0,0.1,0.1,0.2,0.1c0.2-0.1,0.5-0.2,0.6-0.4c0.2-0.2,0.4-0.3,0.6-0.2c0.2,0.1,0.4,0.1,0.5,0.1c0.3,0,0.6,0.2,0.6,0.5
		c0,0.3-0.1,0.6-0.1,0.9c0,0.1,0,0.3-0.1,0.4c0,0.1,0,0.2-0.1,0.3c-0.1,0.3-0.3,0.6-0.5,0.9c-0.1,0.2-0.1,0.3-0.3,0.3
		c-0.3,0.1-0.4,0.2-0.5,0.5c-0.1,0.3-0.3,0.6-0.5,0.8c-0.4,0.4-0.8,0.7-1.2,1c-0.2,0.1-0.4,0.3-0.6,0.4c-0.2,0.1-0.4,0.1-0.5-0.2
		c-0.1-0.3-0.3-0.6-0.3-0.9c-0.2-0.7-0.5-1.3-1.1-1.7c-0.4-0.2-0.6-0.6-0.7-1c-0.1-0.4-0.3-0.8-0.7-1c-0.1-0.1-0.2-0.2-0.3-0.4
		c-0.4-0.5-0.7-1-1.1-1.5c0,0.2,0,0.3-0.1,0.5c0,0-0.1,0-0.1,0.1c-0.2-0.2-0.4-0.5-0.6-0.7c0,0.1,0.1,0.2,0.1,0.3c0.7,1,1.3,2,2,2.9
		c0.1,0.2,0.3,0.5,0.3,0.7c0.2,0.7,0.6,1.3,1.1,1.8c0.3,0.3,0.7,0.5,1.1,0.8c0.2,0.2,0.4,0.4,0.5,0.7c0.1,0.2,0.2,0.4,0.4,0.4
		c0.3,0,0.6,0,0.9-0.1c0.5-0.2,1-0.6,1.6-0.9c0,0.4,0,0.8-0.1,1.2c-0.1,0.5-0.3,0.9-0.4,1.4c-0.3,1-0.7,1.9-1.5,2.6
		c-0.3,0.2-0.5,0.5-0.7,0.9c-0.5,0.8-1,1.6-1.5,2.5c-0.1,0.1-0.1,0.4-0.1,0.5c0.2,1,0.4,2,0.3,3.1c0,0.5-0.2,0.9-0.6,1.1
		c-0.4,0.3-0.8,0.6-1.3,0.9c-0.5,0.3-0.7,0.7-0.7,1.3c0,0.4-0.1,0.7-0.5,0.8c-0.2,0.1-0.5,0.3-0.7,0.5c-0.1,0-0.1,0.1-0.1,0.2
		c-0.1,0.2-0.2,0.5-0.3,0.7c-0.6,0.7-1.4,1.3-2.2,1.7c-0.2,0.1-0.4,0.1-0.7,0.2C30.9,44,30.4,44,30,44.2c-0.4,0.1-0.7,0.1-1,0
		c-0.2-0.1-0.5-0.1-0.4-0.5c0-0.1,0-0.2-0.1-0.3c-0.2-0.3-0.4-0.6-0.6-0.8c-0.3-0.4-0.6-0.8-0.4-1.4c0-0.1,0-0.3-0.1-0.4
		c-0.4-0.5-0.8-1-1.2-1.5c-0.1-0.2-0.2-0.3-0.1-0.5c0.1-0.4,0.2-0.8,0.4-1.2c0.1-0.1,0.2-0.3,0.3-0.4c0.3-0.2,0.3-0.4,0.2-0.8
		c-0.1-0.1-0.1-0.2-0.1-0.4c-0.1-0.7-0.4-1.4-0.8-2c-0.1-0.1-0.2-0.2-0.3-0.3c-0.4-0.3-0.7-0.6-0.9-0.9c0.1-0.4,0.2-0.7,0.3-1
		c0.1-0.2,0.1-0.4,0.1-0.7c0.1-0.6-0.4-1-0.9-0.9c-0.3,0-0.5,0.1-0.8,0.1c-0.2,0-0.4-0.1-0.4-0.4c-0.1-0.6-0.5-0.8-1.1-0.7
		c-0.5,0.1-0.9,0.4-1.4,0.5c-0.3,0.1-0.7,0.2-1,0.1c-0.8-0.1-1.6-0.3-2.4-0.4c-0.5-0.1-0.9-0.2-1.3-0.6c-0.2-0.2-0.4-0.5-0.7-0.7
		c-0.5-0.4-0.8-1-0.9-1.7c-0.1-0.5-0.2-1-0.5-1.4c-0.2-0.3-0.2-0.7-0.1-1c0.1-0.5,0.3-1,0.4-1.5c0.1-0.5,0.2-0.9,0-1.4
		c-0.1-0.2-0.1-0.4,0-0.6c0.6-0.7,1.1-1.5,1.7-2.2c0.1-0.2,0.4-0.2,0.6-0.3c0.4-0.2,0.7-0.3,1.1-0.5c0.1-0.1,0.2-0.3,0.3-0.5
		c0.1-0.3,0.2-0.6,0.4-0.8c0.4-0.3,0.7-0.6,1.1-0.9c0.1-0.1,0.4-0.1,0.5-0.1c0.4,0,0.9,0.2,1.3-0.1c0.1-0.1,0.2-0.1,0.4-0.1
		c1.3-0.1,2.6-0.3,3.9-0.4c0.2,0,0.4,0.1,0.4,0.3c0,0.1,0.1,0.2,0.1,0.3c0.1,0.2,0.1,0.3-0.1,0.5c-0.1,0.1-0.1,0.1-0.2,0.2
		c-0.1,0.1-0.1,0.2,0.1,0.3c0.4,0.2,0.9,0.3,1.3,0.5c0.2,0.1,0.4,0.3,0.6,0.4c0.3,0.2,0.7,0.4,1.1,0.5c0.4,0.1,0.7-0.1,0.7-0.5
		c0-0.5,0.6-0.8,1-0.5c0.4,0.3,0.9,0.3,1.3,0.4c0.7,0.1,1.5,0,2.2,0c0.9,0,1.1-0.6,1-1.3c-0.1-0.4-0.2-0.8-0.3-1.3
		c-0.2,0.1-0.4,0.1-0.6,0.3c-0.3,0.2-0.5,0.2-0.8,0.1c-0.1,0-0.2-0.1-0.3,0c-0.4,0.2-0.9,0.1-1.2-0.2c-0.1-0.1-0.2-0.2-0.3-0.4
		c0-0.2-0.1-0.3-0.1-0.4c0-0.1-0.1-0.3-0.1-0.5c-0.1,0-0.4-0.1-0.6-0.1c-0.2,0-0.4,0.2-0.6,0.3c0,0.1,0.1,0.1,0.1,0.2
		c0,0.1,0.1,0.2,0.1,0.2c-0.1,0.1-0.2,0.2-0.3,0.2c-0.5,0-0.9-0.3-0.9-0.8c0-0.3-0.2-0.5-0.5-0.6c-0.2,0-0.3-0.1-0.4-0.2
		c-0.4-0.3-0.9-0.6-1.3-0.9c-0.1,0-0.2,0-0.3,0c0,0.1,0,0.2,0,0.3c0.1,0.2,0.3,0.4,0.4,0.6c0.1,0.2,0.2,0.4,0.4,0.5
		c0.3,0.2,0.6,0.3,1,0.5c0.1,0.1,0.2,0.1,0.3,0.2c0.1,0.1,0,0.2,0.1,0.3c0,0-0.1,0-0.1,0c-0.1-0.2-0.2-0.4-0.4-0.2
		c-0.3,0.2,0.1,0.3,0.1,0.4c-0.1,0.1-0.1,0.3-0.2,0.4c0,0-0.1,0.1-0.1,0.1c0,0,0,0,0,0c0,0,0-0.1,0-0.1s0-0.1,0-0.1
		c0.3-0.3,0-0.5-0.2-0.7c-0.6-0.5-1.2-1-1.8-1.6c-0.2-0.2-0.4-0.3-0.7-0.1c-0.2,0.1-0.3,0.2-0.5,0.3c-0.2,0.1-0.4,0.1-0.6,0
		c-0.4-0.2-0.5-0.1-0.6,0.3c0,0.2-0.1,0.3-0.3,0.4c-0.2,0.1-0.5,0.1-0.6,0.3c-0.2,0.2-0.4,0.4-0.5,0.6c-0.1,0.4-0.1,0.5-0.5,0.6
		c-0.1,0-0.1,0.1-0.2,0.1c-0.1,0.2-0.3,0.2-0.5,0.2c-0.2,0-0.5,0-0.7,0.1c-0.3,0.2-0.3,0.1-0.4-0.2c0-0.2-0.1-0.3-0.4-0.2
		c-0.3,0.1-0.4-0.1-0.4-0.4c0-0.2,0.1-0.4-0.2-0.5c0.1-0.1,0.2-0.2,0.2-0.3c0.1-0.3,0.3-0.7,0.4-1.1c0-0.1-0.1-0.3,0.2-0.4
		c0.2,0,0.3-0.1,0.5-0.1c0.5,0.1,1.1,0.2,1.6,0.3c0.2,0.1,0.4-0.1,0.4-0.3c0.1-0.2,0.1-0.4,0.2-0.7c0-0.1,0-0.2,0-0.2
		c-0.3-0.3-0.3-0.8-0.9-0.7c0.1-0.2,0.2-0.4,0.5-0.3c0.2,0.1,0.5,0.1,0.5-0.2c0.2,0,0.4,0.1,0.5,0c0.4-0.3,0.9-0.6,1.3-0.9
		c0.3-0.3,0.7-0.5,1.1-0.5c0.4,0,0.4-0.2,0.3-0.5c0-0.4,0.1-0.7,0.4-1C26,7.2,26,7.3,25.8,7.5c-0.1,0.1-0.1,0.3-0.1,0.3
		c0.1,0.1,0.3,0.3,0.4,0.3C26.5,8.1,26.7,8,27,8.2c0.5-0.1,0.9-0.1,1.4-0.3c0.2-0.1,0.3-0.3,0.3-0.6C28.6,7,28.6,7,29,6.9
		c0.2,0,0.3-0.1,0.2-0.3c-0.2-0.4-0.1-0.5,0.4-0.5c0.2,0,0.3-0.1,0.5-0.1c0,0,0-0.1,0-0.1c-0.2,0-0.3,0-0.5,0
		c-0.2,0-0.4,0.1-0.6,0.2c-0.3,0.1-0.4,0-0.6-0.2c-0.2-0.3-0.2-0.5-0.1-0.8c0.1-0.1,0.2-0.3,0.2-0.4c0-0.1,0.1-0.3,0-0.3
		c-0.1-0.1-0.3-0.1-0.4-0.1c-0.1,0-0.1,0.2-0.1,0.3c0,0.2-0.1,0.4-0.3,0.5c-0.1,0.1-0.2,0.2-0.2,0.3c0,0.4,0,0.7,0,1.1
		c0,0.3,0,0.5-0.1,0.8c0,0.1-0.1,0.3-0.2,0.4c-0.1,0.1-0.3,0.2-0.4,0.2c-0.2-0.1-0.2-0.1-0.3-0.3c0-0.1-0.1-0.2-0.1-0.3
		c-0.2-0.4-0.5-0.5-0.9-0.3c-0.2,0.1-0.4,0.1-0.5,0c-0.3-0.1-0.4-0.4-0.4-0.7c0-0.3,0.2-0.6,0.5-0.7c0.6-0.3,1.1-0.6,1.5-1.2
		c0.3-0.6,0.8-1.2,1.5-1.4c0.2-0.1,0.5-0.1,0.8-0.1c0.1,0,0.2,0.2,0.3,0.2C29.5,3,29.9,3,30.4,3.1c0.2,0,0.4,0,0.4,0.3
		c0,0.2-0.1,0.3-0.3,0.3c-0.2,0-0.3,0.2-0.2,0.3c0.1,0.2,0.6,0.4,0.8,0.3c-0.1-0.1-0.2,0.2-0.3,0.1c0,0,0,0.2,0,0.2
		c0.1,0,0.3,0,0.5,0c-0.1-1-0.1-0.8,0.3-0.9c0,0,0.1-0.2,0.1-0.2C31.8,3.5,32,3.3,32,3c0-0.1,0.1-0.2,0.2-0.3
		c0.3-0.1,0.5-0.3,0.8-0.4c-0.1-0.1-0.2-0.2-0.3-0.3c0.2-0.2,0.2-0.3,0.1-0.4C31.9,1.3,31,1,30.1,0.8c-0.1,0-0.2,0-0.3-0.1
		c-0.3-0.1-0.7-0.2-1-0.2c0,0,0,0,0,0c-1.1-0.2-2.2-0.4-3.3-0.4c-0.3,0-0.5,0.1-0.7,0.3c-0.2,0.2-0.5,0.3-0.7,0.5
		c-1,0.9-2.3,1.4-3.6,1.8c-0.3,0.1-0.6,0.1-0.8,0c-0.3,0-0.6,0-0.9,0.1C18.5,3,18.2,2.9,17.9,3c-0.2,0-0.4,0.1-0.5,0.1
		c-0.3,0.1-0.6,0.5-1,0.5c0,0-0.1,0-0.1,0C16,3.8,15.7,4,15.4,4.2c0,0-0.1,0-0.2,0.1c0-0.2,0.3-0.5-0.1-0.5c0.3-0.4,0.5-0.9,1-1.1
		c0-0.1,0-0.2,0.1-0.3c0.4-0.3,0.7-0.6,1.2-0.7c0.3-0.1,0.7-0.3,1-0.4c0.1-0.1,0.1-0.2,0.2-0.3c0,0-0.1,0-0.1-0.1
		c0.2-0.1,0.4-0.2,0.6-0.2c0,0,0-0.1,0-0.1c0,0-0.1,0-0.1,0c-0.2,0-0.4,0.1-0.5,0.1c-0.6,0.2-1.1,0.3-1.7,0.5c0,0-0.1,0-0.1,0
		c-0.1,0.1-0.2,0.2-0.4,0.3c0,0-0.1,0.1-0.1,0.1c-0.2,0.1-0.4,0.1-0.6,0.2c0.1-0.1,0.1-0.2,0.1-0.2c-0.2,0.1-0.4,0.2-0.5,0.3
		c-0.2,0.1-0.3,0.2-0.5,0.4c0-0.1,0-0.2,0-0.3C14.5,2,14.4,2,14.4,2c-0.2,0.1-0.4,0.2-0.6,0.3c0,0,0,0-0.1,0
		c-0.3,0.1-0.6,0.3-0.9,0.4c-0.1,0.1-0.2,0.2-0.2,0.3c0.2,0.1,0.3,0.1,0.4,0.1c-0.1,0.1-0.1,0.3-0.2,0.3c-0.2,0.2-0.5,0.4-0.6,0.7
		c-0.2,0.3-0.4,0.7-0.5,1c-0.2,0.4-0.4,0.6-0.8,0.6c-0.1,0-0.3,0-0.4,0.1c-0.2,0.1-0.3,0-0.4-0.2C9.9,5.6,9.8,5.5,9.7,5.5
		c-0.3,0-0.5,0.1-0.8,0.1c0,0,0,0.1,0,0.1c0.1,0,0.2,0,0.4,0c0.1,0,0.2,0.1,0.2,0.1c0,0-0.1,0.2-0.1,0.2C9.2,6.1,9.1,6.1,9,6.1
		C9,6.2,8.9,6.2,8.9,6.3C8.8,6.4,8.7,6.5,8.7,6.6c0,0.4-0.3,0.3-0.6,0.3C7.7,6.9,7.2,7,6.9,7.4c0,0.1-0.1,0.1-0.2,0.1
		C6.6,7.6,6.5,7.6,6.4,7.7c0,0.1-0.1,0.1-0.2,0.2c0,0,0,0,0,0C3.8,10.5,2,13.6,1,17.1c-0.2,0.7-0.4,1.4-0.5,2.1
		c0,0.2-0.1,0.4-0.1,0.6c0,0.1,0,0.2,0.1,0.2c0.2,0.1,0.4,0.2,0.5,0.4c0,0,0.1,0.1,0.1,0.1c0.3,0,0.3,0.2,0.3,0.4
		c0,0.3-0.1,0.5,0,0.8c0.1,0.6,0.3,1.2,0.5,1.8c0,0.1,0.1,0.2,0.1,0.2c0.8,0.8,1.4,1.8,1.9,2.8c0.1,0.2,0.2,0.5,0,0.7
		c0,0.1,0,0.2,0.1,0.3c0.1,0.2,0.2,0.5,0.4,0.7c0.1,0,0.4,0,0.5,0.1C5,28.7,5.1,29,5.3,29.3c0,0.1,0.1,0.1,0.1,0.2
		c0.3,0.2,0.6,0.3,0.9,0.6c0.6,0.7,1.2,1.4,1.8,2.2c0.2,0.3,0.4,0.7,0.2,1.1c-0.3,0.5-0.6,1-1,1.5c-0.1,0.1-0.1,0.2-0.1,0.3
		c0.1,0.6,0.2,1.1,0.3,1.7c0,0.3,0,0.7,0,1c0,0.3-0.1,0.4-0.4,0.3c-0.1,0-0.2-0.1-0.3,0c-0.3,0.2-0.5,0.3-0.8,0.5
		c-0.2,0.1-0.3,0.3-0.1,0.5c0.1,0.1,0.2,0.3,0.2,0.5c0,0.3,0.2,0.6,0.3,0.9C10.8,45,17.1,48,24,48z M21.9,8.2c0.2-0.1,0.1-0.3,0-0.4
		c-0.1,0-0.1,0-0.2-0.1c0-0.1,0.1-0.2,0.1-0.2c0,0,0,0,0-0.1c-0.1,0-0.1,0.1-0.3,0.1c0-0.2,0.1-0.4,0.1-0.7c0.3,0,0.4-0.5,0.7-0.2
		c0,0.1-0.1,0.1-0.2,0.2c0.1,0,0.2,0,0.3,0.1c0,0.3,0,0.6,0,0.8c0,0.1,0.1,0.2,0.1,0.2c0.1,0.2,0.1,0.3,0.2,0.5
		c0.1,0.1,0.3,0.2,0.4,0.3C23.1,8.8,23.1,8.9,23,9c0,0,0,0.1,0.1,0.2c-0.6,0-1.2,0.1-1.8,0.1c0,0,0,0,0,0c0.2-0.1,0.4-0.2,0.7-0.3
		c-0.2-0.1-0.4-0.1-0.6-0.2c0.1,0,0.2-0.1,0.2-0.1c0.1,0,0.2-0.1,0.2-0.1C21.5,8.2,21.8,8.3,21.9,8.2z M20.2,8.5
		c0.1-0.1,0.1-0.3,0.2-0.4c0.2-0.2,0.4-0.4,0.7-0.5c0.2-0.1,0.3,0.1,0.3,0.2c-0.1,0.2-0.2,0.3-0.2,0.5c-0.1,0.2-0.2,0.3-0.4,0.4
		c-0.1,0-0.3,0.1-0.4,0.1c-0.1,0-0.2,0-0.2,0C20.1,8.6,20.1,8.5,20.2,8.5z"/>
</g>
</svg>
