<svg id="Layer_2" data-name="Layer 2" xmlns="http://www.w3.org/2000/svg" xmlns:xlink="http://www.w3.org/1999/xlink" viewBox="0 0 1024 467.2"><defs><clipPath id="clip-path"><rect width="1024" height="467.2" fill="none"/></clipPath></defs><title>Artboard 1</title><g clip-path="url(#clip-path)"><path d="M1053.47,404.78l1.53-.28-2-128.67-167.76,2.83L553,342l.6.22L1046,404.78Z" fill="#fff"/><polygon points="889.67 283.43 986.67 268.07 986.67 181 884.33 169.67 889.67 283.43" fill="#422d62"/><polygon points="-18.5 350.27 333 327 564.63 356 786.83 436 870 441 1088 411 1088 491 -18.5 491 -18.5 350.27" fill="#0062bd"/><polygon points="996.33 -13.67 996.33 266.33 1053 274.33 1053 -18.33 996.33 -13.67" fill="#fff"/><polygon points="882.33 -22.33 884.33 169.67 986.67 181 986.67 -11.67 882.33 -22.33" fill="#00aff9"/><polygon points="550 313.5 550 -6 -18.5 -6 -18.5 232.92 550 313.5" fill="#00aff9"/><polygon points="643.25 308.04 550 313.5 550 130.75 637 259.25 643.25 308.04" fill="#c0efff"/><polygon points="879 -11.67 879 273.67 646.67 321 631.08 268.6 633.97 244.44 592 160 592 -2.4 879 -11.67" fill="#c0efff"/><path d="M767.33,69.33s0,87.33-71,102L691.33-6,812.67-4V157.5S780.66,143.1,767.33,69.33Z" fill="#fff"/><polygon points="696.17 177 819.5 159 810.67 155.62 694.67 171.33 696.17 177" fill="#6a6a6a"/><polygon points="821.96 159.95 821.96 -10.72 810.67 -11.67 810.67 155.62 821.96 159.95" fill="#ffcad4"/><path d="M701.39,187.38l127.09-19.8.57-179.24H819.5V150.09c0,6.18-.84,9-6.83,9.91L691.33,177.72Z" fill="#ffcad4"/><polygon points="879 -11.67 879 278.33 889.67 276.33 889.67 -17 879 -11.67" fill="#ffcad4"/><polygon points="990.75 -6 990.75 255.5 983.25 255.5 983.25 -8 990.75 -6" fill="#c0efff"/><polygon points="998.75 -8 998.75 271.89 990.75 266.08 990.75 -9.75 998.75 -8" fill="#ffcad4"/><path d="M990.75,49.6c2.82,0,2.77,5.52,2.77,9.5s-.34,9.5-2.77,9.5-2.86-3.57-2.86-9.5C987.89,55.19,987.56,49.6,990.75,49.6Z" fill="#6a6a6a"/><path d="M990.75,177c2.82,0,2.77,5.52,2.77,9.5s-.34,9.5-2.77,9.5-2.86-3.57-2.86-9.5C987.89,182.55,987.56,177,990.75,177Z" fill="#6a6a6a"/><path d="M990.75,266.08,885.24,282.61s18.68,4.09,45.22,11.63,39.35,8,80.92,0c41.79-8,64.54-27.57,64.54-27.57Z" fill="#0062bd"/><path d="M518.25,300.06c7.34,3.67,35.49,11.53,50,10.4,31-2.41,68.89-5.9,68.89-5.9v44.86s-63.66,16.42-94.73,16.42-228.12-34.61-228.12-34.61V276.33S471.25,276.57,518.25,300.06Z" fill="#0062bd"/><polygon points="879 266.67 694.67 301.49 694.67 315.73 879 279.57 879 266.67" fill="#0062bd"/><path d="M874.7,385.22c-8.33.55-16.27,1.57-24.53-.33-8-1.85-15.61-5.41-22.72-9.53a41.11,41.11,0,0,0-7.36-3.72c-3.75-1.26-7.79-1.26-11.75-1.2a76.51,76.51,0,0,0-14,1.14c-11.22,2.27-25.26,7.38-29.83-7.6-3.87-12.68,15-24.72,5.27-35.94-2.45-2.83-6-4.36-9-6.64s-5.45-6.06-4.24-9.59c.85-2.48,3.28-4.06,5.69-5.11,7.53-3.26,16-3.12,24.2-3.69,11.08-.77,25.11-1.54,34.92-6.81,4.51-2.42,9.21-4.43,13.57-7.12a48.33,48.33,0,0,0,6.33-4.56c.79-.68,4.2-5.18,4.89-5.2-10.08.29-19.45,4.88-28.88,8.48C787,299.3,753.83,301,723.46,312.06,713,315.87,702.89,320.79,692,322.9c-9.57,1.86-19.47,1.49-29,3.35a63.73,63.73,0,0,0-20.67,8c-6,3.63-11.38,9-17.9,11.68-2.19.91-4.57,1.49-6.49,2.88-2.65,1.92-4.07,5.1-5.07,8.22a52,52,0,0,0-1.85,7.81,11.14,11.14,0,0,0,0,4.66c.81,2.94,3.59,4.84,6.25,6.33,4.1,2.29,8.4,4.22,12.45,6.61,4.71,2.78,9,6.18,13.89,8.72,5.21,2.74,10.89,4.43,16.54,6.06,15.5,4.45,31.24,8.49,47.34,9.53,10,.65,20.29.15,30,3,9,2.65,17.05,9.4,25.94,12.86,14.09,5.49,29.5,6.52,44.62,6.62,29.91.19,60.58-3.27,87.33-16.67,7.16-3.58,14-7.85,21.2-11.26,10.26-4.84,21.24-7.9,32-11.55a307.78,307.78,0,0,0,32-12.89c6.53-3.07,9.44,37.12,6.51,28-43.43,8-50.77-23.65-84-22.07C893.55,383.15,884.16,384.59,874.7,385.22Z" fill="#c0efff"/><path d="M767,419c-70.76-25-203.59-73.22-213.4-76.78l-.6-.07V365.5s140.5,51,214,77S1055,428,1055,428l-1.53-23.23C1034.18,408.33,836.88,443.71,767,419Z" fill="#6a6a6a"/><path d="M324,426h-1" fill="#0062bd"/><path d="M507.58,401.22c20.53,14.24,59.87,17,81.92,11.67,7-1.68,49-9.77,54.38-14.5S630,366.54,627.29,359.9c-2.42-5.91-36.52,10.15-42.39,7.62-29-12.48-65.15,2.29-89.7-23.39-34.91-36.52-106.76,12.44-149.59,39.25-10,6.25-12.37,18.71,1.5,19.31C359.94,403.25,507,368.1,507,368.1S484.83,385.44,507.58,401.22Z" fill="#0062bd"/><path d="M649.91,207.56s-5.23,7.59,1.67,20.17,20.35,20.46,5.8,35.7l3,2.77s7.92-9.08,7.2-17.65-5.17-12-8.53-16.7-6.62-10.52-5.21-16c0,0,11.31-.76,15.76-11.5s.42-14.64,9.08-20.71S682,171.33,682,171.33s5.21,6.4,16,1.42,12.55-19.78,4.17-26.68S664.33,155,664.33,155Z" fill="#0062bd"/><path d="M550,186c0-14,10.5-20.75,17.5-9s1.51,47.6,19.75,52.25c16.68,4.25,19.63,12.5,19.57,23.75s21.87,17.83,21.87,17.83l4.68-8.51L633,226.16l-12.4-21.91L597.75,149.5,587.25,40.25S550.75-17.75,550-17s-30.25,0-30.25,0Z" fill="#00aff9"/><path d="M556-15.5s-18.29,5.47-18.5,31c-.17,20,24.63,38.93,38.88,45.43s-15.49,11.2-8.09,35.63c7.19,23.73,18.2,19.45,19,39.7s-6.25,35.25,8.88,56.5,16.91,29.09,17.71,23.92c1-6.5,8.73-8.44,10.36-.33,0,0-6.15,5.5-2.75,10.67,0,0-6.94-2.17-7.1,4.33s9.4,3,6.28,6-2.45,9.5,1.72,9.92,7.93-6,9.33,2.4-4,17.68-4,17.68A32.62,32.62,0,0,0,635.5,242c-1-9.33,3.11-13.06,6.75-15.66,5.92-4.22,4-12.51-2.17-7.84-3.12,2.35-5.08,7.33-5.08,7.33s-4.17-14.83,10.83-21-3.16-15.33-11.33.83-9.58,5.67-8-1.17,3.46-15-9.71-23.25,7.33-11.25,11.83-27.5-2-165.42-2-165.42Z" fill="#422d62"/><path d="M654.1,209.79c-10,1.24-17.5-3.18-18.43-13s-10.08-8.75-9.28-21.61,4.11-48-21.35-50.65c0,0,1.86-7.82-3-11.4s-9.41-3.85-6.76-14.58S583,90.19,589,83c4-4.77,10.92-10,9.41-17.77C596.82,57,590.73,55.5,584,53.6c-13.26-3.71-4.58-24.4,12.16-25.19s38-15.38,17.8-43c0,0,107.4-13.79,105.81,25.59,0,0,15.78-3.85,23.2,8.22s-.8,18.7,0,21.74,7.52-1.86,9.06,5.3-4,22.81-13.7,31.82c-8.68,8.09-4.51,19.89-7.56,34.34s-15.78,16-15.78,16,0,29.7-30.1,25.72a112.17,112.17,0,0,0-12.72,24.15c-3.49,9.21-2,21.66-8.32,26.63C661.25,207,657.2,209.41,654.1,209.79Z" fill="#00aff9"/><path d="M617,129.45c8.12-2.54,20.81.57,22.65,14.78s-13.22,31-13.22,31S623,179,620.31,177s3.31-6.69-1-9.43-2.88-9.15,1.65-17.16C625.62,142.17,620.65,130.83,617,129.45Z" fill="#0062bd"/><path d="M620.63-8.89s-8.22,10.19-1.52,21c6,9.65,16.59,5.31,23,18.22S640,55,640.8,65.93s13.34,8.68,14.42,19.74-4.55,16.27-1,18.65,12.59-2.53,18.22-16.47c2.71-6.71,1.92-13.7.22-19.43-4-13.45,3.8-19,4.06-29.17.18-6.91-3.78-10.6-5.14-15.83-3.36-12.9,23-14.53,17.78-32.32Z" fill="#0062bd"/><path d="M683.53,21.9s5.31,1.84,5.31,11.28,2.93,10.63,8.35,16.92c3.57,4.14,6.06,19.89,6.06,19.89s-11.42,5.59-14,12.54c-3.37,9.21,3.91,16.51,12.24,2.38,2.06-3.5,3-13.67,3-13.67s17.08,3.57,23.73-4.79c8.26-10.39,6.06-25.24-5.15-32-5.67-3.41-2.89-7.19-7.59-11.39s-6.65-9.8,4.21-12.06c0,0,5.52-16.5-12.26-15.53s-5,8.49-4.1,20.32S686.89,11.28,683.53,21.9Z" fill="#0062bd"/><path d="M663.82,205c7.31-8.54,5.08-17.64,3.33-19.58-3.33-3.69,3.17-3.25,2.39-6.4-.74-3-4.45-8.62,1.74-11.47s9.87-10,6.4-22.8-3.24-23.41,10.22-30.8c20-11,10.6-22.85,26.87-26.12,0,0-5.64,5.62-5.21,13.65s-11.6,14-11.6,14,4.66,11.42,2.32,20.93c-1.89,7.69-5.08,13.83-14.29,18-.68,4.33-3,22.63-13,25.65A24.74,24.74,0,0,1,663.82,205Z" fill="#0062bd"/><path d="M640.64,255.18a7.84,7.84,0,0,1,4-8.35c6.14-3.58,6-9.75-1-5.1s-1.42-1.27,2-4.65c4.91-4.87-1-12.58-7.16-2.51C634.75,240.65,633.42,252.47,640.64,255.18Z" fill="#0062bd"/><path d="M720.88,247.25l-5.82,62.36s.7,4.94-12.93,8.29-17,.72-17,.72L680,255.25Z" fill="#422d62"/><path d="M685,330.25s15.17,3.06,26.33-3.25c5.75-3.25,6.25-7.4,6.25-7.4v-6.77s-.78-2.38-2.64-2.38c0,0-6.77,11.6-30.27,7.45Z" fill="#00aff9"/><path d="M711.17,259.74s5.44,1.1,8.58-8.08c3-8.77,7.08-5.67,10.92-18.59s-7.92-24.83-7.92-24.83-.91-25.43-8.58-29.08-6.5-6.92-10.58-10.1c-3.41-2.66-9.33-3.4-16.5,12.18s-8.75,10.75-13.33,29.58,12,35.83,12,35.83l16.44,12.5Z" fill="#00aff9"/><path d="M709.5,223.92a10.64,10.64,0,0,1,11.38-3.75s12.71-12.5,2-19.17c0,0,4.85-15.8-8.75-21.83-8.83-3.92-12,8.21-12,8.21s9.06-1.46,11.81,9.2.5,13-3.58,8.92-14.25-6.83-19.08.83,3.69,2.14,9.58,3.83C707.31,212,709.92,218.17,709.5,223.92Z" fill="#0062bd"/><path d="M687.08,181.25c-5.75,2.83-10.83,7.5-12.58,18.75s-8.42,13.25-9.17,22.5,3.58,11.92,6.17,16.33-2.36,9.16,1.39,14.58,13.94,13,26.19,11.87S716,257.93,716,257.93s-6.19-5-12.28-2.27-1.42-3.42-4-8.42-11.86-2.58-11.86-2.58,5.36-6.17.86-10.67-4.67-6.19-4-10.68-3.08-5.82-7-5.91-5.25-5.25-.67-11.42.72-9.32,4.61-14.7A40,40,0,0,0,687.08,181.25Z" fill="#422d62"/><path d="M698,309l-84.65,2.27a149.06,149.06,0,0,0-.89,26.71c.76,12.09,14.56,16.65,22.1,23.56,6.21,2.1,1.42,12.07,7.58,12.81,15.91,1.92,31.1-.76,42.78-8.44C701.15,355.29,698,309,698,309Z" fill="#fff"/><path d="M613.36,311.29s-9.93,41.41,8.19,55.41c24.09,18.61,56.93,2.81,56.93,2.81s-10-15.68-34.84-18.1c-7.64-.75-15.57-13.21-18.43-17.06C612,316.61,613.36,311.29,613.36,311.29Z" fill="#422d62"/><path d="M625.92,320.89c.38.05,58.46,5,74.69-13.92s4.31-28.39-2.22-26.19-1.8-6.12-3.27-13.23c-2.33-11.22-16.54-16.42-28.08-7.11-11.22,9-6.27,3.32-5.13-2.27,1.46-7.14-4.49-13.18-14.42-8.11s-3.12,13.52-3.12,13.52-3.57-8-9.26-7.36-9.62,24.17-9.62,24.17l-9.19,25.91S615.61,319.39,625.92,320.89Z" fill="#00aff9"/><path d="M638.39,256.82s-3-3.18-8.34.22-5.55,10.38-5.55,10.38-8.93-1.61-13.78,8.1c-5.25,10.53,3.34,18.8,3.47,23.74s.28,10.48,8.2,10.48-2.11-6.19,1.38-12.42c3.15-5.62,8.63-4.37,11.32-12.94C637.87,275.5,628.36,266.63,638.39,256.82Z" fill="#6a6a6a"/><path d="M609.14,280.61a11.56,11.56,0,0,0,4.19,6c3.1,2,4.93,9.44,2.82,15.91S629,306.76,632,313.31s10.84,0,11.58,4.11-9,5.59-20,2.9-17.84-11.69-19.14-18.15a12,12,0,0,1,5.83-13S608.21,284.24,609.14,280.61Z" fill="#422d62"/><path d="M679.59,297s-4.15-6.19-12.7-3.9-14.4,14.4-22.84,11-3.48-24.33,16-18.43,19.16.22,19.24-1.59-3.36-5.4-7.44-4.26c0,0,12.88-13,5-18.52-5.26-3.73-11.4,7.44-15,10.47s-10.08,6.92-4.15-1.85,12.35-14.65,23.89-14.18c8.27.34,6.35,10.16,2.37,15.44-3.77,5,4.57-2.21,6,5.33.71,3.79,3.52-5.49,7.82-3.42s2.39,7.61,2.39,7.61-5.66-.2-7.13,7.3-3.62,4.19-5.22-2.95c-1.75-7.8-7.27-9.18-6.35,2.87C682,295.76,679.59,297,679.59,297Z" fill="#c0efff"/><path d="M744.76,327.21c-3.5-3.66-2.1-7.66.47-19.9s-4.32-14.46-18.31-14.46-20.88,2.22-18.31,14.46,4,16.25.47,19.9.35,8.79,17.84,8.79S748.26,330.87,744.76,327.21Z" fill="#6a6a6a"/><ellipse cx="726.92" cy="299.1" rx="15.6" ry="3.85" fill="#0062bd"/><path d="M808.66,201.93c16.78-2.82,49.23-9.3,50.93-7.34,2.38,2.74-1.89,3.83-3,6.21-2.57,5.61-.23,13.07,1.56,19s3,10.61,4.54,16.58a71.2,71.2,0,0,1,1.87,16.4c.22,10.26-.4,20.71-3.95,30.33s-10.33,18.42-19.73,22.53a50.68,50.68,0,0,1-11.26,3.12,158.45,158.45,0,0,1-23.83,2.52,25.69,25.69,0,0,1-9.21-.94c-2.93-1-5.62-3.23-6.43-6.23a6.5,6.5,0,0,0-.84-2.41c-1.78-2.3-6.34.15-8.06-2.19a3.62,3.62,0,0,1-.58-1.75c-.68-5.85,3.87-10.87,5.81-16.43,3.48-10-1.72-20.73-2.75-31.27-.58-5.91-11.28-17.46-10.77-23.37.59-6.86,1.81-11.68,6.31-14.79C788.14,205.75,797.9,203.74,808.66,201.93Z" fill="#6a6a6a"/><path d="M789,249.24c3.92,13.07,7.64,16.75,5.52,28.06-1.45,7.75-3.93,16.41-8.6,22.75-.39.52-2-.39-2.63-.14a2.5,2.5,0,0,1-2.74-.86,6.57,6.57,0,0,1-1.18-2.81,41.47,41.47,0,0,1-1.09-9.74c0-6.31,1.53-12.63.73-18.9a69.33,69.33,0,0,0-1.66-7.63,152.51,152.51,0,0,1-3-17.44c-.4-3.25-3.1-17.3.11-19.54C781.6,218,784.91,235.58,789,249.24Z" fill="#422d62"/><path d="M848.65,195.21c-18.79,2.73-39,5.17-57.28,12.44-2.15.86-14.55,6.69-14,8.42s14.41-5.2,19.7-7.43C816.73,200.33,844.64,197.16,848.65,195.21Z" fill="#422d62"/><path d="M716.77,331.82c5.54-4.5,14.56-13.32,17.28-5s8.59,8.86,15.13,6.49c1.06-.38,2.38-.82,3.86-1.27,7.72-2.34,19.81-4.94,21.64-1.08l-10.12,5.25-27.71,4.82-19.81,4.24-7.09-4.6A22.91,22.91,0,0,1,716.77,331.82Z" fill="#00aff9"/><path d="M706,345.08c2.61,2.33,15.11,6.25,29.64,5.73,14-.5,13.18-4.68,11-8s9.49-4.87,17-4.9,11-6.94,11-6.94-48.48,8.27-55.79,9.53-7.24-5.12-2.14-8.72C716.77,331.82,702.37,341.84,706,345.08Z" fill="#0062bd"/><path d="M691.19,385.34s8,33.83-6.46,49.18c-5.59,6-11.08,5.9-11.08,5.9s9.52-20.23,2.65-51.92Z" fill="#eee"/><path d="M623.19,335c-.48,19.94-9.69,65.29-17.88,66.12-5.84.59-17.59,1.11-23.64,1.83-4.09.49-14-.45-17.5-1.5-7.75-2.35-15.91-53.49-13.33-66.28,3.29-16.3,40.39-14.64,56.51-11.8C624.77,326.48,623.2,334.57,623.19,335Z" fill="#422d62"/><path d="M593.88,325.85c-5.44-.23-27.83-.95-36.56,5.24-3.53,2.5,1.12,5.25,6.84,6.56,11.52,2.66,31,2.41,44.29-2C625.45,330.09,606.33,326.38,593.88,325.85Z" fill="#6a6a6a"/><path d="M595.8,386.62c3.67-1.28,23.18-.82,36.79,3.4a14.06,14.06,0,0,1,4.21,1.88c2.71,2,3.82,5.42,4.77,8.64.65,2.17,1.29,4.53.49,6.66-.68,1.82-1.09,8-2.65,9.17-4.61,3.43-32.87,14.35-41.35,12.87-5.66-1-9.49-5.63-11-20.24S592.13,387.9,595.8,386.62Z" fill="#00aff9"/><path d="M591.37,407.2c.69,11.15,4.19,17.75,8.46,17.75s8.16-4.14,8.15-14.63c0-8.67-2.72-19.58-9.31-19.56C593.32,390.77,590.91,399.79,591.37,407.2Z" fill="#422d62"/><path d="M633.07,388.83s-7,35.46,10.34,47.89c12.91,9.25,30.23,3.7,30.23,3.7s7.24-5.39,8.54-29.06C683,397,680,389.22,680,389.22S665.45,396.46,633.07,388.83Z" fill="#6a6a6a"/><path d="M633.07,388.83c-6.36-2.17-8.08-13.52-.88-18.61s6-4.85,7.7-8,19-.45,19-.45l13,2.87s14-.07,19.78,1.81c6,1.94,8.3,12.54-.42,18.89S655,396.31,633.07,388.83Z" fill="#00aff9"/><path d="M668.66,380.84s14.34-18,25-13.27c0,0-.14-13.1-14.09-9.91s-17.8,10.83-17.8,10.83S670.13,372.22,668.66,380.84Z" fill="#0062bd"/><path d="M644.51,370.28s10.13-7,17.29-1.78l4.7-5L653,356.32S641.45,363.46,644.51,370.28Z" fill="#0062bd"/><path d="M644.51,370.28c-7.18,4.76-12.54-3.73-7.52-13.2,4.61-8.7,11.12-5,16.32-5.61,6.78-.74,8.37-8.38,16.75-7.61,8,.73,9.3,9.07,11.38,9.44s10.39.42,9.16,6.5-11-2.14-11-2.14-2.17,7.12-13,7.21-12.83-4.58-12.83-4.58S642.38,359.94,644.51,370.28Z" fill="#c0efff"/><path d="M872.9,385.73c14.37-2.36,30.89-1.82,39.63,0s16.05-7.85,16.05-7.85l-37.64-4.77-19.49,10.79Z" fill="#422d62"/><path d="M902.27,370.56a193.5,193.5,0,0,1,20.47,2c2.69.48,6.3,1.78,6.64,2.94.89,3-5.86,6.24-13,5.36s-3.11,1.11-1,3,2.59,2.29-1,2.07-2-.54-4.7-2.48c-4.5-3.27-10.88-4.57-10.88-4.57l-14.22-1.09Z" fill="#ffe262"/><path d="M823.07,344.08s-8.94,13.36-16.23,16.21-7.67,5.85-7.67,5.85l17.54,3.67,23.16-15.21,9.22-16.41S826.37,335.89,823.07,344.08Z" fill="#422d62"/><path d="M806,360.64s-.23-1.14,1.59-2,2.57-1.42,3.34-.77a11,11,0,0,1,3.14,6.58c.17,3.1,10.72,1.69,10.72,1.69l-2,8.35s-26.12-.9-27.13-5.53l3.48-2.78s9.58,1.59,8.85-.94A20.42,20.42,0,0,0,806,360.64Z" fill="#ffcad4"/><path d="M807.23,300.77s.66,13.65-2.57,13.89-6.2.78-12.09,1.3-13.93-.25-20.24-4.64c-5.91-4.12.54-9,10.28-7.87.65.08-.13-.51-1.35-1.67-.95-.9-1.36-2,.21-3,3.57-2.39,12.16,1,15,1.86C799.76,301.7,807.23,300.77,807.23,300.77Z" fill="#422d62"/><path d="M779.5,327.18c-17.1,0-27.8,4.92-27.8,4.92s.39,5.52,1,9.49,5,5,5,5l3.65,15.73s-6.26.24-5.35,3.84,1.7,7.56,1.7,7.56.65,4,21.79,4,21.79-4,21.79-4,.78-4,1.7-7.56-5.35-3.84-5.35-3.84l3.65-15.73s4.31-1.08,5-5,1-9.49,1-9.49S796.59,327.18,779.5,327.18Z" fill="#6a6a6a"/><path d="M762.16,336.35a64.33,64.33,0,0,0,29,0c14.91-3.71,11-10.28,3.26-7.86,0,0,1.66-3.08-2.21-5.52-4.31-2.71-9.91-2.39-13.54,2.43,0,0,4.51-5.11,2.34-5.54S754.58,333.61,762.16,336.35Z" fill="#0062bd"/><path d="M762.8,336.51c-6.26-.08-6.33-6.71,3.69-9s8.26,2,8.26,2,2.36-2.89,4.75-1.47-2.19-6.82,6.8-6.78,4.39,12.32-8.78,10.91c-2.5-.27-2.33,1.83-3.28,2.94-1.19,1.39-3.91.28-3.17-2.49.51-1.92-.43-3.32-1.87-3.17-2.21.23-2.5,2.13-2.6,3.45A3.86,3.86,0,0,1,762.8,336.51Z" fill="#422d62"/><path d="M778.38,334.41c-1.55-.18-2.27,1.27-.45,1.59S779.93,334.59,778.38,334.41Z" fill="#422d62"/><path d="M783,329.18c-.85.53-1,1.82,1.51,1.18S784.42,328.27,783,329.18Z" fill="#0062bd"/><path d="M772.39,327.18c-1.73,1.55-3.35-.5,1.94-4.35s8.63-4.39,8.09-9.72-4-4.79-8.31-4.25-7.41-6.12-7.41-6.12,8.74-2,12.73,4,4.08-3.38-1-8.15-9.22-5.73-9.22-5.73l1.45-1.66s9.06,2.44,11.81,8.68,2,14.55,2,14.55,4.9-6.24,1.5-18.07a58.39,58.39,0,0,0-9.14-19l1.29-2.26s3.76,8.24,4.79,7.1-.42-9.81,2.47-13.25,3.25-8.95,3.25-8.95,4.7,11.66,2.3,15.91S785.9,287.36,787.5,288s3.87.52,7.21-9.41-.27-9.09,3.07-15.07c0,0,3.34,6-.72,11.2a24.66,24.66,0,0,1,5.85-6.16s5.5,0,3.48,3.65-5.35,5.33-8.25,7-8,13.92-8.59,19.36,1.4,8.33,1.4,8.33.23-6,2.94-10.07,7-11.66,7-11.66,2.35,9.17-2.08,13.77-1.81,8-5.63,12.19c-3.44,3.8-4,7.26-.92,11.86s-5.4,7.54-5.4,7.54,6.75-6.46,1.05-8.59-9.21,5-10.1,4.34,4.38-4.92,2.39-5.82S773.84,325.89,772.39,327.18Z" fill="#00aff9"/><path d="M785.52,322.6s.55-7,4.69-5.5,2.61,7.19-.13,8.3Z" fill="#422d62"/><path d="M787.71,323.59c-1.55,0-2.76,2.72-.36,2.92S789.26,323.59,787.71,323.59Z" fill="#0062bd"/><path d="M783.24,319.15c-1.15,1-.54,2.55.9,1.39S784.4,318.1,783.24,319.15Z" fill="#422d62"/><path d="M756.26,289.17c-3.77,2.1-5.49,4.63-4.14,7.41s5.21,1.33,4.88,2.9c-.91,4.34,4.32,6.11,7.9,4.48s2.35-7.07,2.35-7.07a5.69,5.69,0,0,0,6.48-2c2.29-3-.68-7.14-3.7-7,0,0,1.17-3.77-1.54-5.25s-5.18-.56-5.12,1.79S756.26,289.17,756.26,289.17Z" fill="#ffcad4"/><path d="M766,268.55l-4.38,6.91s.71,4,3.94,3c3.71-1.12,3,2.45,7,3.19,4.67.86,8.52-3,7.1-6.54a5.7,5.7,0,0,0,3.46-3.16c.8-2.34-1.16-4.08.68-6.41s2.84-6.48.37-9-3.83.74-5.49.37-1.67-4.69-8-4.51-7.5,5.83-8,9.07C761.88,267.07,766,268.55,766,268.55Z" fill="#ffcad4"/><path d="M773.57,269.29a6.67,6.67,0,0,1,.38-5.25,4.49,4.49,0,0,1,4.11-2.33s0-1.91-3.53-3-1.38-4.07-5.78-3.4-4.83,2.09-6.38,5.07-7.69,2-6.92,8,7.35,5.18,9.7,1.46S773.57,269.29,773.57,269.29Z" fill="#00aff9"/><path d="M755.4,266.73c-1.13,3.34-1.29,8.27,3.08,11,3.08,1.9,7,.74,7,.74s-2.27-2.75-1.46-5.72,2.27-4.64,4.77-4.72c0,0-3.89-1.43-6.2,3.2C761,274.42,754.56,271.92,755.4,266.73Z" fill="#ffcad4"/><path d="M769.42,265.54c.82,1.45-5.84.54-5.6-2.74s3.34-1,3.34-1-.83-4.17,2.27-3.28A6.44,6.44,0,0,0,769.42,265.54Z" fill="#ffcad4"/><path d="M766.73,290.93s-4.65,1.19-4.65,3.88c0,0-2.33-2.62-4.17-2s.9-1.37-1-2.12-3.7-4.77-.83-7.39,8.17-1.68,8.53,1.85C762.32,287.48,763.75,289.09,766.73,290.93Z" fill="#ffcad4"/><path d="M759.88,285.15s-2.45-.93-2.27,1.26,5.49,3,5.49,3a4.83,4.83,0,0,1-.72-4.49C763.24,282.26,759.28,282.46,759.88,285.15Z" fill="#422d62"/><path d="M805.24,266.84c-1.09,1.05-3.72,2.35-4.35,3.52a9.81,9.81,0,0,0-1,5.31,12.47,12.47,0,0,0,5.17-1.77c1.46-1.05,2.18-4,2.43-4.57C808.1,268,805.24,266.84,805.24,266.84Z" fill="#422d62"/><path d="M808.78,265.4c-1.36-.71-6.46,3.09-5.82,5.19.06.2,2.42-2.14,2.59-2,.39.37-1.48,3.12-1.13,3.22C807.32,272.68,808.78,265.4,808.78,265.4Z" fill="#ffcad4"/><path d="M843,390.33c8.44-2.29,40.26-5.83,40.26-5.83s9.76-4.2,14.5-8.27,9.76-.27,19.93-5.83,11.75-26.13,11.75-26.13-12.85-34.36-95.93-30.83c-13.28.57-21.55-1.2-21.42,12.9s17.76,18.75,17.76,18.75l3.8,3.62S808.71,363.21,808,375C807.37,387.08,818.35,397,843,390.33Z" fill="#00aff9"/><path d="M929.46,344.27c-12.06-4.34-15-11.38-36.9-10.83,0,0-7.64,4.57-16.77,9.26-8.32,4.27-31.06,10.72-44.4,12.19-3.59.4-5.07-1-5.85-2.05-3.66-4.89-3.8-15.75-3.8-15.75s20.82-5.48,28.1-10.09-.44-2.14-3.69-3.23-11.25-3-12.61-10.33l-28.87,1.21s1.88-10.17,2.29-14,8-1.66,14.25-5.22S830,286.7,832,279.31s9.52-16.58,20.1-15.5,18.27-7.82,25-7.14,14.1,3.66,22.23,22.64,13.37,24,21.67,37.58C930.39,332.08,929.46,344.27,929.46,344.27Z" fill="#c0efff"/><path d="M849.66,264.67s-1.07,10.61,2,15.11c2.53,3.65,10.68,5,13.1-7.55s8.8-15.14,8.8-15.14S851.52,257.94,849.66,264.67Z" fill="#c0efff"/><path d="M830.8,241.52s.11,7.35,0,10.22,1.84,3,3.9,3.67,2.25,6,6.55,7.67,9.91-2.63,11.59,4.75c1.5,6.56,4.84,6,8.7,1.87s8.48-12.2,12.06-12.61l-7.67-11.51s6.43-15.5-6.66-19.28S829,236.12,830.8,241.52Z" fill="#422d62"/><path d="M856.5,214s-7.81-7.41-20.83-3c-10.59,3.59-9.32,9.54-16.35,14.09-9.36,6.05,1.83,21,13.52,18,9-2.36,10.49-7.66,13.61-10.12s5.2,7.47,8,7.56,4.82-1.61,5.29-4.63,7.35-3.39,5.39,3.5c-3.63,12.76,8.31,11.16,7.76-2.61a27.25,27.25,0,0,0-3-11.16s9.25-6.56,2.24-14.89C866.16,203.61,857.22,207.3,856.5,214Z" fill="#fff"/><path d="M859.45,217.11c-1.33.52-.94,1.73,1.49,3.93s6,5.16,7.12,2.93c.73-1.43-2.09-2.1-4-3.47C861.56,218.75,860.76,216.6,859.45,217.11Z" fill="#6a6a6a"/><path d="M804.24,342.89s-21.2-1.16-20.5,4.49c.43,3.47,2.15,7.25,8,9.14,4.55,1.47,12.83,2,22.49-1.2,6.58-2.2,11.93-2.58,12.63-3.53s-2.67-5-5.06-13.16c-1.77.3-3.19.45-4.76.59-2.09.19-7.69-1.1-11.17-1.29-2.73-.15-5.2-.32-6.32-.38S795.87,340,804.24,342.89Z" fill="#422d62"/><path d="M947.33,252.83s13.33,1.59,21.68,0,12.8-1.19,12.8-1.19,3.23-3.27-1.79-11.19c-6.23-9.83-6.52-20.16-5-25.33,1.31-4.38,3.53-4.89,4.44-3,.62,1.28.21,4.07.19,5.91-.1,7.92,2,14.52,7.69,22.94s5.77,22.47,4.64,25.13,3,5.3,4,7.69.73,10.21-2.75,11.14-2.75-1-2-4.18-1.92-6-8.22-7.36-28.51-1.19-31.49,7.42-5,10.47-7.62,10.08c-3.22-.48.38-2.65.73-4.84.61-3.82,1.83-13.26-.13-16.71-1.33-2.32-5.9-3.85-9.68-5.44s-8.09-5.17-6.63-7.42,2.72-4,2.72-4-1-6.89.8-7.76,3.25,3.6,6,3.51c4.11-.13,6-4.57,7.56-4.57S947.33,252.83,947.33,252.83Z" fill="#6a6a6a"/><path d="M936.69,264.62c2.09-1.65,2.82-6.16,6.6-6s.93,6.52,7.09,8.66,6.83-8.13,15.31-9.66,9.92,4.71,12.86,7.76a10,10,0,0,0,8.55,2.65c1.52-.46,2.78-.93,1.26,3.85-.72,2.25-2.85,6.22-4.18,10.08-1.49,4.34-2.33,8.49-6.5,8.93-3.44.37-3.65-1.44-1.19-3.83s2.32-6.7,2.32-6.7-2.32-2.12-4.51-4.47-6.23,1.08-10.67,1.48-5.77,1.13-3.52,4.71,4.77,10.08,1.06,10.87-.27-1.66-3.71-5.24-12.58-12.5-16.8-21.43Z" fill="#fff"/><path d="M1055,332c-2-1.26-31.13-9.22-48.56-3.34-15.32,5.17-21.91,13.32-24.34,24.05-3.49-3.65-11.56-7.43-19.23-5.9C944.79,350.46,944,368.07,944,368.07s-2.11-6.52-6.12-7.38c-8.1-1.74-13.05,3-16.7,6.93-2,2.1-4.28,3.14-5.18,2.2-.7-.73.4-1.93,2.83-7.2.87-1.89,1.83-5.76-.67-6.92-3.08-1.43-9.2,3.63-11.45,13.58.77-13.18-4.88-13.75-8.67-10.93S897,369.39,897,369.39s-8.05-4.82-16-.91a19,19,0,0,0-9.27,10.5l-3.8-2.32s-1.2,9.93-3.5,9.38.28-5.51.49-8c.6-7.07-3.44-8.2-6.19-6.67-6.31,3.52-2.38,16.31-2.38,16.31s-2.83-7.37-5.94-9.36c-4.61-2.95-10.24.73-10.1,6.55.07,2.88,2.72,5.51,2.72,5.51s-9.42-3.17-13.71,4.15c-4.18,7.14,2.57,14,5.62,16.71-20.6,2-10.81,24.47-10.81,24.47s-21.76-6.56-22.82,13.76c-.16,3.15,17.75,7.9,21,8.9,9.17,2.82,210.2-8.47,226.67-17.91,2.51-1.44-3.91-50-3.94-52.45C1045,385.76,1058.83,334.41,1055,332Z" fill="#0062bd"/><path d="M916.36,384.92c1.61,2,6.37,1.09,3.3-2.77C917.56,379.52,914.85,383.08,916.36,384.92Z" fill="#ffcad4"/><path d="M964.23,366.37c-.05,2.9,4.53,3.58,3.87-1.11C967.72,362.57,964.27,363.83,964.23,366.37Z" fill="#ffcad4"/><path d="M941.82,403.83c.56,2.48,6,2.17,4-2C944.66,399.26,941.26,401.36,941.82,403.83Z" fill="#ffcad4"/><path d="M885.43,382.88c-.47,2.05,3.46,4.73,4.22,2S885.9,380.83,885.43,382.88Z" fill="#ffcad4"/><path d="M865.74,403.31a2.12,2.12,0,1,0,4.22-.23C870,400.66,865.74,401.37,865.74,403.31Z" fill="#ffcad4"/><path d="M901,406c.56,2.32,4.22-.35,3.27-2.22S900.42,403.71,901,406Z" fill="#ffcad4"/><path d="M870.7,429.74c.56,2.32,4.72,0,3.77-1.91S870.13,427.42,870.7,429.74Z" fill="#ffcad4"/><path d="M845.92,424c.66,2.29,5,.81,4.44-2.63C850,418.64,844.95,420.62,845.92,424Z" fill="#ffcad4"/><path d="M924.44,418.68c1.32-2.1-1.19-3-2.27-1S923.12,420.78,924.44,418.68Z" fill="#ffcad4"/><path d="M970.94,386c-2.39-.64-2.5,2-.24,2.45S973.33,386.67,970.94,386Z" fill="#ffcad4"/><path d="M940.78,380.35c-1.2,1.26.25,4.64,1.88,2.76S942,379.09,940.78,380.35Z" fill="#ffcad4"/><path d="M707.88,363.26c2.39-.38,5.53.43,5.53,2.54.78-1.86,4-3.81,7.8-2.63,2.51.77,1.55,2.31,3.43,2.45s2.87-1.74,5.37-2.19,5.53.42,6.41,2.47c3.28-5,10.8-5.49,17.49-5,2.85.21,4.46,1.44.42,3.22-8.24,3.61-1.8,5.68,2.53,5.68,5.78-.17,6.22,2.54,5.74,6.5-3.31,2.13-9.49,3.29-13.54,2.57a3.4,3.4,0,0,0-2.59.16,2.09,2.09,0,0,0-.66,1.31c-.69,3.16-21,4.31-22.43,3.15-2.56-2.14-7.55-1.36-8.7-3.46a4.44,4.44,0,0,1,2.31-6c-2.51-.48-5.12-.1-7.68-.08s-5.52-.32-7-2.13C698.47,367.26,703.87,363.89,707.88,363.26Z" fill="#422d62"/><path d="M736.57,359.9c1.48,0,2.25,1.23,1.54,2.27a2,2,0,0,1-3.22,0C734.2,361.07,735.1,359.9,736.57,359.9Z" fill="#0062bd"/><path d="M710.17,378.55a2.71,2.71,0,0,1-2.73.16c-.71-.46.13-1.53,1.49-1.53S710.72,378,710.17,378.55Z" fill="#0062bd"/><path d="M719.71,386.67a1.12,1.12,0,0,0-.77-1.84,1.35,1.35,0,0,0-1.4,1.53A1.25,1.25,0,0,0,719.71,386.67Z" fill="#422d62"/><path d="M738,386.95c11.89,1,12.26-7.26,18.32-8.31-9.91-.08-8.56-6.1-11.17-8-1.39-1-3.5-2.1-5.62-1.45-2.37.73-3,3-5.2,2.82-1-.08-3.26-1.84-4.18-2.34a4.15,4.15,0,0,0-5,1c-1.26,1.5-1.4,3.88-3,5a8,8,0,0,1-3.53.79,4.64,4.64,0,0,0-2.81,1.16,2.21,2.21,0,0,0-.32,2.81,3.53,3.53,0,0,0,1.24,1c1.76.67,3.69.48,5.24,1.54,1.19.82-1.66,3.41,2.08,5.09S735.27,386.71,738,386.95Z" fill="#0062bd"/><path d="M744.12,382.65a2.37,2.37,0,0,0-2.46.89c-.56.76-.27,1.77.6,1.79C744.54,385.42,745.13,383.07,744.12,382.65Z" fill="#422d62"/><path d="M-26.86,171.06c25.47-18.38,63.22-29.58,93.46-10.23,12.08,7.73,25.06,28.49,32,28s13.62-8.52,27.27-12.6c41.35-12.37,62,19.08,62,19.08s10.18-11.82,24.37-8.66c5.34,1.19,9.55,9.32,9.55,9.32s11.07-10.39,24.22-11c22.5-1,22.56,19.13,27.92,19.88s17-18.95,40.94-19.79c31-1.09,49,18.87,49,18.87s9.6-12,25.66-15.83c26.75-6.47,33.83,14.12,41.12,14.4s20.77-15.93,41.85-1a30.64,30.64,0,0,1,12.67,21.42s19.34-5.45,28.76,8.45c5.62,8.3,2.13,18.24-2.82,25.69,6.69,2.4,15.92,9.66,16.44,23.57.44,11.69-8.38,21.58-8.38,21.58s7.67,13.36,1.64,26.08c-4.6,9.71-5.58,20.89-6,31.6-.5,13-1.22,23.36-1.22,23.36S440.93,426.5,373,432.51c-18.85,1.67-39.05,3.58-57.86,1.56-55-5.91-109.13-18.8-164.4-21.18-17.2-.74-34.45-.46-51.62-1.64-15.19-1-30.27-3.25-45.33-5.44L1.28,398.17a13.07,13.07,0,0,1-4.91-1.39c-2-1.2-3.15-3.36-4.14-5.44-17.95-37.56-16.63-81-28.45-120.82-3.46-11.66-8-24.55-2.39-35.43C-33.68,225.51-28.61,181.62-26.86,171.06Z" fill="#0062bd"/><path d="M926.43,357.58c-1.76-1.24-4.07,2.59-4.87,6.69C921.57,364.27,929.1,359.46,926.43,357.58Z" fill="#0062bd"/><path d="M868.54,373.26c.8.35,7.57-5.39,3.6-7.64S866.93,372.56,868.54,373.26Z" fill="#0062bd"/></g></svg>