<svg id="Layer_2" data-name="Layer 2" xmlns="http://www.w3.org/2000/svg" xmlns:xlink="http://www.w3.org/1999/xlink" viewBox="0 0 1024 467.2"><defs><clipPath id="clip-path"><rect width="1024" height="467.2" fill="none"/></clipPath></defs><title>Artboard 1</title><g clip-path="url(#clip-path)"><rect x="-6.58" y="286.59" width="1032.92" height="236.48" fill="#00aff9"/><polygon points="-6.07 286.59 54.58 286.59 62.05 282.82 92.06 278.8 117.08 286.59 1025.81 286.59 1025.81 -5.7 -3.57 -5.7 -6.07 286.59" fill="#c0efff"/><path d="M854.58,432.86a138,138,0,0,1,26.9,1c13.05,2,21.05,1.34,18.8-7.63s-25.89-7.71-38.73.27S854.58,432.86,854.58,432.86Z" fill="#0062bd"/><path d="M909.71,445.38s11.9.31,18.41-10.63,5.89-10.91,11.31-14c7.42-4.18,37.8,12.3,37.8,12.3l56.24-5.73-.86,17.45s-11.53,0-30.42,4.55c-6.37,1.54-15.47,4.24-26,5.29C957,456.56,932.83,455,909.71,445.38Z" fill="#0062bd"/><path d="M54.58,286.59c11.13-6.4,27.05-11.87,41.6-7.57a219,219,0,0,0,37.91,7.57s3.59,8-6.69,10.79-21.08,3.12-21.91,7.06,5.09,1.18,4.67,7.34-12.36,9-29.07,6.06-35.93-1.25-42.47-1.14-8.41-4.26-7.89-8.41a80.1,80.1,0,0,1,7.48-4.78C45.57,299.25,52.5,289.7,54.58,286.59Z" fill="#0062bd"/><path d="M774.17,484.33s-16.41-9.12-.2-20.29c23.47-16.17,60-35.08,98.43-30.76,30.71,3.46,30.93,15.11,67,19.89,56.56,7.49,56.93-9.52,99.93-8.34l-12.05,40.24Z" fill="#c0efff"/><path d="M939.23,420.9c9.38-5.73,20.68-14.63,32.82-40.64s36.49-36.51,58.12-29.82l1.86,74.09L953,429.45Z" fill="#c0efff"/><path d="M933.45,381.23c-6.55-6.63-19-9.64-19-9.64l-42.83,2.15-189.78.43V350.7a150.79,150.79,0,0,0,25.64-18.93c18.91-17.76,47.55-31.08,78.06-27.5s89.95,1.13,89.95,1.13l25.64-7.86,77.26,30.65,69.12-24.78-3.58,71.33Z" fill="#c0efff"/><path d="M693,417.13s-11.17,23.05-67,18.19c-23.79-2.07-47.28,4-64.88,2.94-26.06-1.5-34.94-7.77-40.41-12.88h0c-11.58-13.7,13.9-18.95,26.23-16.6,12,2.3,18.51,2,30.15-4.56,14.52-8.17,20.8-2.32,30-10.28,10.55-9.15,24.79-4.74,24.79-4.74s3.82-3.19,6.5-1.25a24,24,0,0,0-5.69-3.74c-11.92-6.27-24.44.87-29.72,4.47-2.65,1.81-8,2.79-15.61,4-15.18,2.45-18,11.44-34.09,7.53-17.42-4.25-27.47-1.52-51,5.29S413.85,431,388.48,431c-30.05,0-46.83-9.81-49-23.91-3.5-22.89,55.59-30.27,92.68-26,13.89,1.6,40.53,6.62,63.16,5.71,26-1,61.28-11.41,69.61-17,19.48-13.18,94,3.44,94,3.44l53.85-38.67s-5.58.85-14.47-1.19c-3.17-.72-5.73-6.7-10.1-6.26-21.83,2.17-56.32-4-70.38-4-22.2,0-71,15-121,24.87C425.5,361.94,373.7,350.25,372.33,333c-.95-11.9,25.84-21.59-21.49-26.33-34.91-3.49-74.12-.72-105.67,1.79-37.92,3-86.46,13.61-135,3.32-2.63,9.72-23.36,6.06-40.4,4.64-12.2-1-47.72-1.36-57.3-2.07C2.14,319.26,0,317.75-2.65,318.08c-8,1-129.85,4.39-12.35,23.86s252.79-21.14,305.5-14.85c39.62,4.73,62,19.43,55.57,34.32C320.58,420.67,49.3,381.05,0,366.52-45.93,353-22.81,420.68-22.81,420.68S-31.92,460.6-6,445.37C34.5,421.5,104.75,409.5,180,425c44.09,9.07,111.34,35.28,141,53.91,46.88,29.46,108.84,2,118-4.69,13.06-9.46,29.79-21.88,68.65-26.56,49.34-5.95,91.38,16.48,148.67,21,28.79,2.3,30.3-17.09,43.11-19.19,53.83-8.79,61.6-9.26,84.41-17.19V415.24Z" fill="#c0efff"/><path d="M975.62,113.27c-45,4-59.56-15.67-94.62-6-36.62,10.1-39.49,41.55-99,34.67-24.33-2.81-75.88-19.15-108.5-10.67-33.07,8.6-47.09,42.06-51.5,45-10,6.67-11.23-9.93-35-12.12-16.25-1.5-30,3.75-38.5,6.25s-15.62-8.24-23.37-15.12c-19-16.87-55.75-22.75-83.75-1.25s-20.67,15.21-47.62,6c-30-10.25-68.87-7.37-91.5,24.13,0,0-6.21-24.3-32.6-43.7C244.29,121.81,214.25,128,187,136s-49-1.75-69-11.75-46-20.25-76-12-51-2-51-2l6,92.67c28.67,0,279.49-15.66,330.49,26.68s40.17,57,75.17,57H536.49s11.84-19.33,38.17-18,53.68-.33,61.68-12.67,24.84-59.82,104.38-63.33c45.28-2,52.94-6.33,74.28,21s33.17,48.2,77,25.24c45-23.57,61.75-26.57,133.88-26.57V72.94S1020.58,109.27,975.62,113.27Zm-92.31,99.17c-10.84-.58-16.31,8.36-18.62,7.86s2.73-5.3-7.61-8.86c-5.17-1.78-9.59-1.5-9.85-2.65s3-2.72,7.76-2.58a16.31,16.31,0,0,1,12,5.32,16.91,16.91,0,0,1,9.77-3.06C882.48,208.55,890.92,212.85,883.31,212.44Zm26-44.32a32.57,32.57,0,0,0-12.84-3c-7.53-.25-17.52,8.6-8.92-.51s19.67-3.6,19.67-3.6c7.84-11.76,16.44-1.64,16.44-1.64C914.14,159,909.27,168.13,909.27,168.13Z" fill="#fff"/><path d="M782.62,219.52c-1.55.62-5.48.09-8.27-1.46-4.07-2.25-12.11.88-12.78,0s4-4.11,6.85-4.55,7.74,1.24,7.74,1.24,1.19-5.75,13.4-2.3c0,0-6.9,1.64-8.31,3.76S782.62,219.52,782.62,219.52Z" fill="#fff"/><path d="M61.05,228.84S53.42,233.27,53.5,240c0,0-6.33-3.05-16-.53,0,0,7.63-7.63,13.66-3.51C51.21,235.94,51.51,227.16,61.05,228.84Z" fill="#fff"/><path d="M69.51,269.25l-3,17s1,3.46,10.38,3.46,11.56-3.6,11.56-3.6L86,269.24Z" fill="#ff3853"/><path d="M78.9,248v-1.46h-.69l-.42.4-.42-.4h-.69V248l-6.77,6.47a2.83,2.83,0,0,0-.82,2.6l.88,4.43H85.62l.88-4.43a2.83,2.83,0,0,0-.82-2.6Z" fill="#ff3853"/><path d="M951.62,424.57c-5.53,4.94-12,4.2-12.18,8.17s10.21,7.09,20.63,2.47,13.54-1.72,16.22,3.44,14.18,1.18,22.34-3.33,28.68-2.92,28.68-2.92V418.67a37.07,37.07,0,0,1-5.69-4.4c-3.33-3.17-8.38-4.83-12.57,0,0,0-2-3.47-3.65-5.91-3-4.46-7.3-5.91-10.53,0a6.42,6.42,0,0,0-2.31-3.44c-1.78-1.08-4.64-.64-6.07,3.44-.89,2.56-.89,4.1-2,4.08s-.47-3.56-1.79-4.84-4.2-.54-7.5,5.38c-4.19,7.52-13.8,10.07-11.28,4,2.69-6.5,10-18.91,8.33-19.93s-5,5.8-8.7,12.14S955.63,421,951.62,424.57Z" fill="#422d62"/><path d="M967.31,417.18c-1.56,0,.27-3.39,3.12-9.46a62.82,62.82,0,0,1,6.28-10.53s1.07-11.06,3-11.17-.75,8.59.27,8.75,3.27-3.92,3.81-5.64c.9-2.85,2-7.52,4.24-7.52,1.4,0-1.72,6.45-2,8.06s3-2.52,4-1.88c.68.45-6.88,6.12-10.47,10.69A60.55,60.55,0,0,0,972,410.35C969.89,414.75,968.82,417.17,967.31,417.18Z" fill="#422d62"/><path d="M980.31,402.24c-1.18-1-6.93,7.9-6.39,8.33S982.08,403.69,980.31,402.24Z" fill="#422d62"/><path d="M983,402.51c-1.44,0,.54-7.41,2.26-7.41S984.93,402.45,983,402.51Z" fill="#422d62"/><path d="M886.22,396.93c-4.73.16-12.42,2-16.76,6.89-6,6.78-17.28,9.78-27.64,6.77-6.17-1.79-11.74,5.55-14.18-1,0,0-2.72,6.16-13.61,8.59a182.57,182.57,0,0,1-19.48,3.29s8.24-.72,8.45,3.72c.14,2.8-6.71,5.4-19.14,7.16-12.61,1.79-28.05.71-30.13-1.72-5-5.87,20.77-9.45,20.77-9.45s-8-2.43-25.78,3.58-38.1,7.16-55.72-7.59-17-13.32-17-13.32-4.33,6.37-12.93.47c0,0-7.2,5-13.75-1.18,0,0-3-1.4-7.3.86s-7.73.21-10.31-2.58-10.48-1.73-16,.21c-7.63,2.69-10.93-4.81-1.72-5.37,8.81-.54,9.24-1.29,12.57-3.12s8.16-7.73,11.82-5.16c0,0,.64-18.48,20.95-24,0,0-1.4-4.19,3.65-4.4s.86-2,2.26-5,5.91-4.73,7.95-.75c0,0,1.72-4.3,5.59-4.3s4.51,4,4.51,4,3-1,2.9,1.5-3.12,4-3.12,4,3.87-1.61,4,2.36c0,0,4.4-1.07,5.26,3.33a7,7,0,0,1-1.18,5.37s3.65-4.94,6.45-.64c0,0,3.44-4.73,6.77.21,0,0,2-5.8,6.23-.43,0,0,.11-6,5.16-2.26,0,0,4.94-5.59,11.17-2.36s7.63-1.61,9.45-4.83,5-6.45,11-4.3c0,0,1.47-9.67,15.87-4.51s33.84-5.37,41.36-4.73a13.81,13.81,0,0,1,11,7.09s8.38-2.9,13.54,3.12,8.27,7.2,15,3.33l1.61,3.54,4.3-3.44,4.83,7.3s4.68,3.13,11.28-1.94c5.59-4.3,9.13-2,10.53,3,.61,2.2,4.16,2.42,6.34-1.18,2.79-4.62,8.81.54,8.81.54s-3.58-12.78-4.65-15.15S868.68,351,868.68,351a10.4,10.4,0,0,0-.14-5.16c-.36-.93-2.15-.36-2.15-.36a16,16,0,0,1,6.88-3.8c13.11-3.94,15.4-10.31,17.69-7.95,0,0,4.51-2.55,7.59.24,0,0,7.52-4,13.83,3.55s11,15.25,9.38,23.42A20.53,20.53,0,0,1,928.12,376c-.21,9.45-1.93,3.15-3.15,3.15s-11.55,2.34-13.89,2.86c-4.34,1-7.95,0-9-12.65,0,0-1.26-1.3-4.7,2.13-.64.64-2,1.27-2.8,2.5-3.55,5.41-8.1,15.23-8,17.78A28.29,28.29,0,0,1,886.22,396.93Z" fill="#422d62"/><path d="M808.9,299s-4.12-2.94-1.76-2.07,1.14-3,3.51-6.95a8.51,8.51,0,0,1,7.72-4.1c3.23,0,5.45,1.13,7.79,3.71a10.83,10.83,0,0,1,2.19,4.46s9-4,11.92-7.23,4.65-6.37,8.59-5.51,3.58,7.09,5.66,7.45,6.2-2.73,9.45-.14c2.43,1.93,1.15,4.37,3.15,4.65S874.5,290,880.73,298c0,0,25.09-24.92,72.72-24.92h86.69v49.41s-34.7-7.2-60.91,15.58a59.1,59.1,0,0,0-13.11-6c-8.42-2.63-19-4-24.71-6.45-10.74-4.51-24.22-19.34-42.86-21.05-10.53-1-17.51,2.9-17.51,2.9s-3.9,5.75-8.92,5.66c-3.72-.07-1.72,2.74-9.67,2.58-3.44-.07-1.28,2.66-2.43,4.74s-4.87,1.06-4.87,1.06,1.58,3.37-2.65,4.65-29.29-5.51-29.29-5.51l-9.1-13.68Z" fill="#422d62"/><path d="M968.87,264.83l3.17-5c1.5-2.36,1.5-2.27-7.36-2.27H945.15a2.44,2.44,0,0,0-1.76.75l-6.33,6.62Z" fill="#422d62"/><path d="M629,424c-1.36-5.08,13.89-9.17,23.35-8.74s14.62,2.87,17,6c3.87,5-12.92,7.59-22.67,7.38C637.64,428.47,629.38,425.51,629,424Z" fill="#422d62"/><path d="M755.2,486s-6.92-17.69,8.23-12.53c0,0,4.4-10.23,15-12.47,10.21-2.14,20,7.27,20,7.27A46.53,46.53,0,0,0,785.39,454c-9.13-6.66-10.53-14.07-8.54-15.58S787.11,452,789,451.76s-10.64-14.85-3.76-17.4,7.63,9.67,8.92,13.43a35.32,35.32,0,0,0,4.3,7.84S793.95,438.73,802,438c4.83-.43,4.3,7.63,4.3,7.63s1-6.66,6.34-7.41c0,0-7.18-18.68,5.91-18.8,12.25-.11-2,30.23-7.41,37.71-3.65,5,.29,8.36,3.65,1.5,2.9-5.91,7.26-2.48,7.26-2.48s-3.83-10.62,4.34-12,10.42,10.21,10.42,10.21,4.51-4.51,3.87-8.81c0,0-4.08,4.08-6.88-3s-1.72-19,1.72-19.77,5.22,17.51,5.22,17.51,3.16-18.37,8.64-18.69-3.76,19.87-3,20.2,5.29-6.57,7.12-9.57-.56,10.43-.56,10.43,3.22-10.42,8.38-9,0,12.35,0,12.35,5.48-13.11,11.06-12.68S870.79,450,870.79,450s8-15.09,13.21-11.71c4,2.61-4.4,8.06-8.16,22,0,0-.63-3.18,1.44-9.83.95-3,2.43-4.9,1.51-5.32-1.77-.82-6.49,5.37-8.86,11.71-5,13.37-20.41,16.82-20.41,29.11Z" fill="#422d62"/><path d="M797.91,467.78s-15.52-5.59-19.45-6.75-6-3.78-4.65-5.83c.9-1.34,3.48-1.61,8.1.32C789.66,458.77,797.91,467.78,797.91,467.78Z" fill="#422d62"/><path d="M808.43,431.51c-2.13-.32-2.47,4.14-1.34,8.16C807.09,439.68,811.65,432,808.43,431.51Z" fill="#422d62"/><path d="M853.87,431.81c.8.35,7.57-5.39,3.6-7.64S852.26,431.11,853.87,431.81Z" fill="#422d62"/><path d="M895.75,414.13c.07,7.23,2,10.74-5.51,10.31s-11.17.36-13.6,0c-2.27-.35-5.16-3.85,1.79-5.86s7.66-4.44,7.66-4.44Z" fill="#422d62"/><path d="M934.56,433.82l-8.67,4s1.3,4.25-4.52,11.71c0,0,1.57.51,5.26,1.37,3,.68,4.7,1,4.7,1a39.75,39.75,0,0,0,2.87-5.31C935.51,443.83,937.21,442.41,934.56,433.82Z" fill="#422d62"/><path d="M688.35,356.76c-1.29-.08-1.11,3.44-.25,3.51S689.46,356.83,688.35,356.76Z" fill="#422d62"/><path d="M693.79,356.3c-1.71-.73-5.44,3.65-3.72,4.51S695.3,356.94,693.79,356.3Z" fill="#422d62"/><path d="M690,356.22c1,0,.45-1.06.9-3.07.54-2.43-1-2.69-1.87-.25C688.3,354.88,688.89,356.2,690,356.22Z" fill="#422d62"/><path d="M990,332.9c-6.5,3.79-7.31-4-5.76-7.9.85-2.15-2.7-3.83-1.56-7,.46-1.3,1.82-2.51,5.21-1.83,0,0-2.25-4,1.21-5.36s5.18,2.78,5.18,2.78-1.45-4.91,2.15-5.87c2.7-.72,4.24,2,4.24,2s1.19-3.49,4.51-2.57c2.63.73,3.17,4.62,3.17,4.62s.06-5.07,3.76-4.36c2.64.51,2.1,4.63,2.1,4.63a9.22,9.22,0,0,1,7.84-3.75c5.38,0,13.41,8.26,13.41,8.26l-2.34,4.94A84.2,84.2,0,0,0,990,332.9Z" fill="#c0efff"/><path d="M945.47,327.09C937.21,324,933.11,321,924.81,315s-27.06-16.27-43.71-7.75a14.71,14.71,0,0,1-5.51,4.87c-3.69,1.87-4.42-.53-6.85,2.24s-7.28.12-8,2c0,0,5.11,5.51,32.81.17,19.43-3.75,32.35,3.08,39.29,5.91S945.47,327.09,945.47,327.09Z" fill="#c0efff"/><path d="M937.05,264.94l-1,9.25a157.7,157.7,0,0,1,16.76-.93c10.55,0,16.17-.22,16.17-.22l-.13-8.21Z" fill="#ff3853"/><path d="M980.68,253.35s-4.8,6.95-6.23,9.1a5.51,5.51,0,0,0-.81,2.93c0,2.42,0,5.55.05,7.66,3.36,0,35.92.22,35.92.22V262.95Z" fill="#ff3853"/><path d="M808.11,350.47c.85-3.19,2.58,8.37,1.72,10.41S806.23,357.51,808.11,350.47Z" fill="#0062bd"/><path d="M849.52,486s-3.51-12.22,4-14.18c7.16-1.86,4,10.92,10,9.92,4.48-.75-11.39-23.58-6-28.2,2.86-2.47,4.44,9.31,8.16,9.45s-2.09-11.77,1.86-12.1c2.39-.2,3.86,3.87,5.64,10.92,1.24,4.91,3,5.12,4.24,1.18,1.31-4.16,2.2-6.19,6.79-12.23,4-5.27,8-6.37,9.36-4.07,1.72,2.88.35,10.15,1.38,10.23s1-4.49,2.33-8.87,4-8.72,8.77-7.81c3.81.73,5.51,5.4,4.68,10a45.54,45.54,0,0,1-2.89,9.2s5.73-12.53,9.74-9.67-3.66,13.82-3.66,13.82,10.21-10.83,14.19-5.51c2.31,3.08-3.28,8.56-8.63,14A64.52,64.52,0,0,0,906,491.9Z" fill="#0062bd"/><path d="M928,474.34c3.12-.83,5.84-3.41,9.3-8.82,4.61-7.21.4-8.55-5.37-.89S926.65,474.71,928,474.34Z" fill="#0062bd"/><path d="M759.06,401.48c-1.63-1.15-4.1-1.77-7.91-.07-2.17,1-1.57-4.19-5.94-4.12s-9,3.58-11.53,5.87-5-1.39-11.67-3c-4.12-1-7.66.11-8.09-3.76s-1.65-4.94-7.59-6.09-4-4.46-1.58-9.12c1.72-3.34-7.84-1.62-7.39-3.44,1.38-5.62,7.16-5.61,10.83-6.54,4.3-1.09,6.22-2.55,7.3-5,1.93-4.44,3.5-3,4.31-3s.63-1.1,1.22-2c1.55-2.41,4.25-.89,3.55,3.46-.52,3.19-1.65,7.91-3.5,8.59-2.72,1,.79-7-.07-7.3s-6.92,5.84-8.59,13.25c-.86,3.8-.52,8.77,1.08,9.25,1.43.43-.08-2,1.5-9.39,1.22-5.72,3.37-7.52,3.37-7.52a15,15,0,0,0,.86,7.16c1.43,3.51-.43,6.88,1,7.66s1.43-4.8,4.94-5.11,4.87,4.18,4.87,4.18-1.86-8.88-.5-14.9.57,4.8,1.15,8.31,2.07-12.14,5.51-11.24c1.93.5-2.43,6.16-2.94,11.32-.33,3.35.78-1.47,2.57-4.44,2.14-3.55,4-1.48,1,2.94a16.92,16.92,0,0,0-2.22,5.59s3.38.85,2.72,5.08a6,6,0,0,1,3.18-1.46,9.85,9.85,0,0,1-.15-2.09c.17-4,4-3.29,3.26.19a8.17,8.17,0,0,1-.82,2.23,4.24,4.24,0,0,1,2.9,3.28,19.37,19.37,0,0,1,9.52,2.94c4.15,2.86,5.73,5.09,6.37,7.52C762.33,403.38,760.35,402.4,759.06,401.48Z" fill="#0062bd"/><path d="M722.46,375.87c.57-2.15,2.7-5.29,4.35-8.44,1.3-2.49.57,3.35-.21,6.57a12.44,12.44,0,0,1-3.87,6.75C721.18,382.12,721.77,378.49,722.46,375.87Z" fill="#0062bd"/><path d="M739.79,365.12c-1.45-.05-2.2,2.69-.81,2.79S741.24,365.18,739.79,365.12Z" fill="#0062bd"/><path d="M742.31,369.37c-2-.22-2.84,3.71-.86,3.76C742.8,373.16,743.76,369.53,742.31,369.37Z" fill="#0062bd"/><path d="M740.86,375c.37-1.69-5.53,5.3-2.62,9.2C739.63,386.07,740.65,376,740.86,375Z" fill="#0062bd"/><path d="M747.2,384.73c-.79.18-1.25,3.81,1.07,4.08C751.5,389.19,749.08,384.3,747.2,384.73Z" fill="#0062bd"/><path d="M707.22,330.48c-1.32.93,1.36,5.25,3.4,3.94C712,333.52,708.55,329.55,707.22,330.48Z" fill="#0062bd"/><path d="M763.12,313.69c-5,.47-7.48,2.29-9.1,4.4-.91,1.19-4,1.5-7.23,1.25a6.28,6.28,0,0,0-5.73,2.61c-1,1.11-2.72-.21-5,0s-3.51,3.08-4.8,3.12-.77-4.39-1.68-4.55c-1.43-.25-.68,5.76-1.72,6.88s-1.4-.82-1-3.12.29-3.54-.72-3.94-2.29,7.13-3.12,7-.75-3.62.61-7.23c1.06-2.82-.68-4.23-2-2.29S719.07,330,719.07,330s-1.75-7.63-1.22-9.06,2.26-1.11,1.11-4.65-1.47,2.18-1.47,2.18-.72-.93-1.47-.43c-.32.21-.43,2.36.61,4.58,1.4,3,.45,7.6-.14,10.49-1,5,.79-11.06-2-13s-.39,4.44-.39,4.44-2-.43-1.58,2.83a1.4,1.4,0,0,0,2.16,1.22l.11,4.83s-3.29-2.33-3.87-9.74-4-3.12-1.47.5a2.39,2.39,0,0,0-1.29,3c.68,2.26,2.27,1.91,2.27,1.91s.52,2.73,2.17,3.69c0,0-2.26,3.64,1.93,4.11a44.19,44.19,0,0,0,6.8,9s-1.54-10.38,1.58-10.63,2.58,11.49,2.58,11.49.89-10,8.15-13.38c3.15-1.47,2.59-.51-.12,3.15a11.87,11.87,0,0,0-2.41,5.43s4.33-7.09,5.44-6.41-2.15,4-4,7.59S728.56,353.9,730,353.9c1.22,0,.54-2.76,2.36-6.95a29.86,29.86,0,0,1,4.48-7.16,4.92,4.92,0,0,1,1-3.29c1.15-1.11.14-3.37,1.4-3.83s.9,2.94-.21,4.65l1.79-1.83a2.48,2.48,0,0,1,.29-2.43c.86-1.43,1.58-3,2.11-2.94s-.39,2.78-.18,2.7,2.58-2.55,3.54-1.76-3.4,5.37-5.23,4.87l-3.44,3.8s3.9-2.61,4.91-1.79-6.48,3.33-6.73,4.12.75.68,2.65-.39,1.9,1.72-1.32,2.72-4.06,2.95-4.55,5.23c-.33,1.57-.55,2.7.36,2.75s2.34-3,4.26-4.54c3.48-2.82,6.55-2,8.84-2.33s4-2,4.62-6.1,4.3-11.21,10.77-13c11.15-3.06,12-9.17,12-9.17A15,15,0,0,0,763.12,313.69ZM727,337.18c-1.29-1.26,2-8.81,3.51-8.45C732.93,329.33,728.24,338.43,727,337.18Z" fill="#0062bd"/><path d="M805.53,379.3c2.49-.3,1.4-6.12.38-11.87s-2.47-10.9-4.89-9.94S800.16,379.95,805.53,379.3Z" fill="#0062bd"/><path d="M813.48,378.61c-2.16,1.11-3.76-5.91-4.83-9.25-1-3.18-3-10.63-4.51-14.44,0,0,2.42,1.34,4.24,8.27,1.71,6.51,3.44,8.05,3.44,8.05a47.85,47.85,0,0,1,.11-13.86S815.58,377.53,813.48,378.61Z" fill="#0062bd"/><path d="M811.36,351.51s1.11,2,2.09,7.65c1,5.8,1.29,11,3,11,1.25,0,3.37-2,2.83-6.55a26.86,26.86,0,0,1,.61-8.27s-3.54,5-3.28,9.77C816.65,365.12,815.87,354.25,811.36,351.51Z" fill="#0062bd"/><path d="M823.79,349.23c-.81-.32-3.54,7.3-3.12,13.64s-2.63,10.47-.7,11c2.55.67,5.69-3.3,11.28-2.34s8.92,3.81,10.9,4.57-1.29-1.29-1-6.77,1.1-9.22,2.2-8.92.43,12.41.43,12.41,6-6.77,11.06-5,12.78-.7,13.21-3.54-3.92-.21-5.16,1.29c0,0-1.13-1.56-4.3,1.67,0,0-1.5-.59,1-2.31s1.88-4.3.16-4.35-4.67,3.54-2,5.1c0,0-.91,1.5-2.2,1.45s.48-5.59-1.18-6.23-2.09,1.56-2.09,1.56.48-4.3-1.29-4.46-4.94,4.19-4.94,4.19.54-4.57-1.24-5.1-3.22,1.89-4.67,5.64c-2.42,6.23-8.33,7.95-7.14,2.26s.91-7.9.05-8.16-3.6,4.19-4.14,6.71-3.22,1.83-1.93-2.31,1.85-5.32.48-6.23-4.35,5.2-4.35,8.08C823.15,363,824.6,349.55,823.79,349.23Z" fill="#0062bd"/><path d="M839.26,356.85c-1.8-1.1-6.3,8.86-3.81,9.18S841.46,358.2,839.26,356.85Z" fill="#0062bd"/><path d="M916.28,277c1.88-.19,3.86-2,7.57-2.23,2.14-.14,6,.7,6.88,3.65,1,3.26.7,8.15-4.84,8.15-6.3,0-9.82,0-9.82,0s.94,3.5-2.5,4.42-3.32-2.47-7.54.09c-2.34,1.42-5.42,1.56-5.64-1.18a8.07,8.07,0,0,1-2.74,3c-1.09.64-3,1.48-4.69.79a3.21,3.21,0,0,1-2.13-3.45c.22-1.83,2-3.15,3.37-3.61,0,0-1.82-.3-2.19-4.34-.43-4.67,4.67-10.74,10.67-9.21C909.4,274.76,911.34,277.5,916.28,277Z" fill="#0062bd"/><path d="M932.93,299.17c2.47,4.19,8.3,2.82,14.75,6.37,3.54,2,10.8,3.32,16.14,1.81,6.36-1.8,9.44-5.09,10.27-8.48a8.38,8.38,0,0,0,4.22,1.72c6.8,1,10.92-2.85,13.55-7.39a3.12,3.12,0,0,0,4.24-.16c.7-.72,1.81-2.71,3-2.21,2.58,1.06,4.57-.69,5.51-1.75-2.74.31-4.92-3.38-7.66-3a3.71,3.71,0,0,0-2.7,2.47,6.74,6.74,0,0,0-8.11.72c-1.75,1.58-5.3,6.24-13.72,1.43-3.69-2.11-9.17-1.17-9.38,4.4,0,0-3.88-4-7.34-3.67a4.58,4.58,0,0,0-3.58,3.15c-.58,1.5-1.47,1.67-2.4-.53a5.68,5.68,0,0,0-9-2.07,7.63,7.63,0,0,0-1.95,4.37,4.66,4.66,0,0,0-3.74-2C933.14,294.42,931.61,296.92,932.93,299.17Z" fill="#0062bd"/><path d="M861.45,315.75c0,1.9,1.43,2.29,8.3,2.48,17.76.5,36-5.66,51.28-.36,15,5.2,18.37,8.64,31.37,10.6,18,2.72,26.89,9.42,26.89,9.42s17.29-17.73,48-16.66l2.51,29.2a46.38,46.38,0,0,0-21.19-1,44.45,44.45,0,0,0-21.7,10.68c-9.82,8.71-12.57,15.21-14.54,19.38s-25.49,1.69-25.49,1.69-10.24-9.78-3.87-14.65,12.25-8.52,12.25-8.52.8-5.69-2-5.83c-1.6-.08-4.27,3.18-7.05,5.13-.4.28-.1.59-.5.7s1-10.63.56-10.62c-.84,0-4.14,10.57-4.75,10.71-2.31.51-2.38,4.11-5.26,4.35-6.72.56-11.62.64-14.7-1.61,0,0,10-6,6.84-11.12s-11.21-7.34-10.92-12.94c.37-7.23-2.86-12.62-11.09-12.83l-15.44,9.72s-.23-1.64-6.64,2.88c-21,5.92-21.85-12.57-29.15-15.13,1.92.32,4.16-.19,4.88-1.66C860.59,318.68,859.48,316.06,861.45,315.75Z" fill="#0062bd"/><path d="M899.69,369.15s-9.67,6.45-14.34,15.9.73,29.08.73,29.08h9.67s.18-13.07-.09-21.18c0,0,7.57-7.68,8.75-7.14s1,3.16,5.8,13c5,10.23,4.94,11.6,6.45,14s6.61,16.18,9.24,25.07l8.67-4s-1.06-6.68-2.17-12a47.86,47.86,0,0,0-5.75-14.18s.35-19.63-.18-27c0,0,.2-2.73-4.18-1.49s-12.21,4-15.41,2c-3.63-2.24-4.84-11.83-4.84-11.83a1.18,1.18,0,0,0-1-.43c-.21,0-.26-.21-.58-.11A5.69,5.69,0,0,0,899.69,369.15Z" fill="#c0efff"/><path d="M891.33,333.65c-.07-1.36-1.85-1.59-2.35,3.35s-1.61,9.52,1.79,15.47,2.44,15.81,11.28,16.93c0,0-.29-1.53-2.54-4.54s-7.09-18.55-6.23-26.37Z" fill="#0062bd"/><path d="M895.23,343.84a7.35,7.35,0,0,1-.56-5.35c1.53-4.91,7.06-6.07,11.54-8.11s8.86-3.65,8.86-3.65,3.57,2.77,3.6,9c0,.53,2.34,3,3.44,4.34,2.94,3.58,7.59,6.37,7,13.89-.5,6.57-7.56,7-7.56,7s-1.07-8.81-5.66-15.61-8.63-13-14.61-10.81S895.23,343.84,895.23,343.84Z" fill="#c0efff"/><path d="M886.44,335.11c-2.58,2-1.86,5.36-.9,5.93,1.69,1,2.8-7,2.8-7Z" fill="#acefff"/><path d="M879.63,320.88a10.44,10.44,0,0,0,1.22,3.94,5,5,0,0,1,.24,2.26c-.1.9-.51,1.52-.12,2,.61.7,1.67.31,2.81,1.2s3.37,2.83,6,1.54-.14,4,1,6.68c.47,1.13,1.55.81,2.61-.15.56-3.47,5.25-6.4,2.71-5.25-.31-2.57-3.93-14.49-3.93-14.49Z" fill="#fff"/><path d="M896.95,314c-3-3.44-9.09-4.17-12.44-2.7-3.87,1.7-9,7-4.87,9.54,4.74,2.9,9.25,2.35,11.73,0a15.29,15.29,0,0,0,0,3.15c.26,3.21,1.36,8.09,6.63,10.16l17.12-7.48s-2.06-1.81-8.08-3.12C901.84,322.49,900.82,318.46,896.95,314Z" fill="#ff3853"/><path d="M766.29,331.67c-1.59,3.46-4.83,3.8-4.12,13.82a114.62,114.62,0,0,1,0,11.88,150.26,150.26,0,0,0-14,19.51l11.72,2.43s11.4-10.94,13.79-13.85c2.52-3.07,2.83-8.09,2.83-8.09l10.88,13.86S775,386,770,398l13.21,1s-.75,4.08,2,5.59,7.09,2.79,7.95,4.83c0,0,1.65-.9-.54-3s-7.77-2.11-7.66-5.91,10.94-14.87,16.47-21.8,3.38-12.68,0-18.43-8-16.38-8-16.38S769.06,325.63,766.29,331.67Z" fill="#00aff9"/><path d="M809.09,299a5.76,5.76,0,0,0,3.36.62c2.54-.47,3.79-5.19,5.63-3.87,1.16.83-.22,2.69,1,2.8.65.06,2.18-1.82,2.85-2s2.43.86,3.28.84a4.37,4.37,0,0,0,2.89-1.29c-.38.9-.54,1.41-.95,2.2a20.43,20.43,0,0,0-1.6,3.44c-.41,1.51.13,3-.28,3.75-.52.91-2.29-.12-4.46,1.07-.95.52-3.84,2.19-5.22,1A24.58,24.58,0,0,1,809.09,299Z" fill="#00aff9"/><path d="M842.07,338.61c3.22,1.79,6.84,3.19,9.45,3.12s5.55,2,7.48,4.8,2.11,6.23-1.32,6.45-3.13.36-7.25-1.22c-3.54-1.36-9.51-3.44-13.8-5.16Z" fill="#00aff9"/><path d="M867.76,345.08c-6.22.92-9.71,1.46-13.12-.53s-4.21-1.43-4.21-1,.58,1,1.71,1.57a12,12,0,0,1,3.28,3.27c2.52,3.3,3.44,3.95,6.93,3.35a65.8,65.8,0,0,1,6.77-.76S869.92,344.76,867.76,345.08Z" fill="#fff"/><path d="M844.58,349.63s.43,3.17,6.5,3.33S847.75,348.39,844.58,349.63Z" fill="#fff"/><path d="M842.07,338.61c-.68-2.29-5.7-4.06-8.84-7.09a76.6,76.6,0,0,1-10.85-13.61c-2.15-3.51-8.58-15.92-14.86-20.8-1.61-1.25-9.63-.47-9.63-.47s-11.21,9.33-20.35,17.53c-2.74,2.45-3.93,5.92-5.95,7.9-1.74,1.7-4.43,2-5.14,3-4.94,6.7-6.41,10.28,0,16.51,4.65,4.54,12.26,2.31,18.51,2.08a10.25,10.25,0,0,1,5.44,1.1c1.75,1,2.55,3.72,4.93,3.19,3.3-.73,5.22-13.66,11.32-15.11,3.47-.82,6.23,2.4,15.79,8.33a54.68,54.68,0,0,0,11.6,5,2.81,2.81,0,0,0,2.11,2.21C838.06,348.92,843.18,342.33,842.07,338.61Z" fill="#fff"/><path d="M911.68,371.73s.1,8.59-.32,11.46-5.19,5.8-4.73,9.17-.37,5.52,1.4,5.94,4.08.18,7.16-7.13,2-9.21,4.76-17.85C920,373.33,915.73,370.83,911.68,371.73Z" fill="#fff"/><path d="M806.32,332.9c1.85-.5-1.7,2.66-4.28,2.7-3.58.06-9.31-.64-13.68-5.08,0,0-1.49.79-8.88-1.25-6.34-1.75-5.62-5.3-6.34-6.88a17,17,0,0,1-10.81,6.09l-.87-2s8.89-2.88,11.51-9c0,0,1.18-10.49,8-16s12.59-10.57,19.41-5.08,7.3,5.65,7.13,7.73c0,0,8.59-.81,9.49,4.7,0,0-3.4-3.23-9.49-.36,0,0-5.94,10.85-10.1,15a20.19,20.19,0,0,0-4.31,6.26s-.15,2.87,7.53,3.66A16.33,16.33,0,0,0,806.32,332.9Z" fill="#ff3853"/><path d="M788.46,330.52c-1,5-7,10.1-7,10.1l2.47,1.32c6.52-5.66,7.34-11.42,7.34-11.42Z" fill="#ff3853"/><path d="M60,288.09c-.9-3.18.83-6.18,4.47-5.3,2.36.57,2.08,3.24,2.08,3.24A4.28,4.28,0,0,1,68.24,285a2.36,2.36,0,0,1,2.93,3.22s2.65-1.92,2.86.26c0,0,6.74-1.94,6.8,1s-4.92,2.08-8.77,1.23C68,289.79,61.16,292.14,60,288.09Z" fill="#422d62"/><path d="M76.36,297.8c.47-1.4-.26-3.43-4.62-.57s-8.1,5.61-6,7.16,6.4-2.94,7-1.66c1.46,3.36,7.9,2.54,9.74-1.45,0,0,4.35,2.94,8.48,2.08s13.35,2.76,15.66,3.48c-.7-3.32-1.44-4.7-5.91-4.77,0,0,.57-3.33-3.16-3.43-1.95-.05-2-2.8-5-3.61-3.56-1-4.3,1.3-5.49,1.35s-3.83-3.29-6.91-1.54A39.7,39.7,0,0,0,76.36,297.8Z" fill="#422d62"/><path d="M105.59,295.25c2,1.43,5.14-.07,7.84-.62s7.28-.86,7.63-2.32c.5-2.1-4.42-1.76-5.35-2-1.22-.31-2-1.47-3.55-1.8-2-.43-3.4.8-4.26,2.8C105.22,290.76,103.7,293.91,105.59,295.25Z" fill="#422d62"/><path d="M86.15,287.44c1.1,1.63,3.9.8,5.79-1.56,2.29-2.85,3.79-.88,7.09-.54,4.63.47,8.4-2.35,3.42-3.81-2.31-.68-3.41-.81-3.83-1.63-.72-1.42-2.76-3.87-5.76-3.38a3.19,3.19,0,0,0-2.13,1.12,3.71,3.71,0,0,0-3.83-2.25l1.21,8.38C86.13,284.52,85.39,286.31,86.15,287.44Z" fill="#422d62"/><path d="M980.68,253.35l5.72,8.52a2.44,2.44,0,0,0,2,1.08h21.19s-1.29-3-2.22-4.8-1.86-3.08-6.73-3.72c-2.5-.33-6.87-.92-12.39-1.58C983.92,252.34,981.72,251.74,980.68,253.35Z" fill="#422d62"/><path d="M948.67,362.49c-2.86,1.5-5.94,0-7.52,1.65s-4,3.75-6.88,4.08c-3.08.36-.72,1.5,1.93,1.36s-6.52.5-6.52,3.37c0,1.86,2.58,2.51,4.58,2.51,3.16,0-4.73,3.44-.29,6.16,0,0-5.59,2.36-2.29,6.09,0,0-4.65,4.44,3.37,4.08s9-4.44,13.61-3,14.77-5.85,19.66-1l4-8.23s-7.16,3.22-14.11-.79c0,0-11.1,1.72-14-4.37S948.67,362.49,948.67,362.49Z" fill="#422d62"/><path d="M989.17,349.28c-4.81,3.16-4.91.47-11.71,1.29-3.36.41.14-3.47,6.45-3.12,1.5-2.79,4.62-4.76,7.38-3.37,7.29,3.69-3.33-2.21-.07-5.66,1.83-1.93,4.4,3.12,5.91,3s-4.19-6,.54-7.08c3.65-.86,4.83,4.18,4.83,4.18s.21-8.59,4.19-7.95.54,7.3.54,7.3,3.34-8.9,7.52-7.34c3.54,1.32-.54,9.7-.54,9.7s4-7.3,6.23-5.59-3.87,9.24-2.15,9.56,1.72-5,4.19-5.59,3.65,5,1,8.06c0,0,2.79-3.87,5.48-2.15V351s-7.13-3.37-20.3-1.52c-9.16,1.29-18.88,8.36-18.88,8.36a16.07,16.07,0,0,1,7.81-5.77S995.72,345,989.17,349.28Z" fill="#422d62"/><path d="M935.19,340c-.62.23-1.2,22,1.32,22.31s.76-4.38,3.37-17.63a31.19,31.19,0,0,0-3.14,11.55s-.36-5-.53-9.51C936.07,343,936.24,339.65,935.19,340Z" fill="#422d62"/><path d="M943.09,342.14c1.93-.27-.78,12.08.52,7.7,1.38-4.62,3.34-9.75,5.6-11.35l-2.4,12.7s3-8.14,9-8c0,0-4.73,8.19-2.89,8.54.67.13,3.15-7,5.14-6.28s-.15,5.21-.15,5.21,1.83-1,1.88,1.07a6,6,0,0,1,2.19.28,1.61,1.61,0,0,1,1.06,2.13,1.27,1.27,0,0,1-1.89.58,5.35,5.35,0,0,1-1.2-1.44s.05,2.63-1,2.74-1-1.13-1.5-1.07-.38,3.92-2.31,4,.24-4.83-.59-5c-1-.2-2.36,5.17-3.44,5.17-1.67,0-.11-3.13-1.45-3.17s-2,6-4.5,5.87c-1.6-.07,1.39-10.27.36-10.42s-1.48,2.37-3.23,8.35c-.8,2.75-2.76,2.34-3.47,1.13C937.65,359,941.15,342.4,943.09,342.14Z" fill="#422d62"/><path d="M75,260c0,2.57-.7,2.93-1.57,2.93s-1.57-.43-1.57-2.93.7-2.93,1.57-2.93S75,257.59,75,260Z" fill="#c0efff"/><path d="M79.36,260c0,2.57-.7,2.93-1.57,2.93s-1.57-.43-1.57-2.93.7-2.93,1.57-2.93S79.36,257.59,79.36,260Z" fill="#c0efff"/><path d="M83.74,260c0,2.57-.7,2.93-1.57,2.93s-1.57-.43-1.57-2.93.7-2.93,1.57-2.93S83.74,257.59,83.74,260Z" fill="#c0efff"/><path d="M88.25,260.67H67.33A7.05,7.05,0,0,0,66,265.35a9.46,9.46,0,0,0,.34,2.61A2.84,2.84,0,0,0,69,270H86.54A2.84,2.84,0,0,0,89.27,268a9.46,9.46,0,0,0,.34-2.61A7.05,7.05,0,0,0,88.25,260.67ZM69,268.27c-.87,0-1.57-.43-1.57-2.93s.7-2.93,1.57-2.93,1.57.52,1.57,2.93C70.59,267.92,69.88,268.27,69,268.27Zm4.39,0c-.87,0-1.57-.43-1.57-2.93s.7-2.93,1.57-2.93,1.57.52,1.57,2.93C75,267.92,74.27,268.27,73.4,268.27Zm4.39,0c-.87,0-1.57-.43-1.57-2.93s.7-2.93,1.57-2.93,1.57.52,1.57,2.93C79.36,267.92,78.66,268.27,77.79,268.27Zm4.39,0c-.87,0-1.57-.43-1.57-2.93s.7-2.93,1.57-2.93,1.57.52,1.57,2.93C83.75,267.92,83,268.27,82.18,268.27Zm4.39,0c-.87,0-1.57-.43-1.57-2.93s.7-2.93,1.57-2.93,1.57.52,1.57,2.93C88.14,267.92,87.44,268.27,86.57,268.27Z" fill="#fff"/><path d="M79.4,247.07H76.08v-.5c0-1.24.18-2.89,1.71-2.89s1.61,1.54,1.61,2.89Zm-2.31-1h1.29c-.07-1.39-.45-1.39-.6-1.39S77.17,244.68,77.09,246.07Z" fill="#fff"/><path d="M574,424.9c-9.34,2.72,47.27.43,52.53,11.6a14.92,14.92,0,0,0,7.39,7.73c10.56,5.73,39.38,2.89,39.57,7.24.15,3.37-29.18,0-27,9.54,1.32,5.88,18,6.16,22.93,5.86,7.3-.44,11.92-3.53,15.8-6.28,8-5.65,17.07-2.76,19.27-2.17,8,2.2,16.78,2.8,24.12-3,9.35-7.41,42.38.25,53.1-4.55a32.63,32.63,0,0,1-5.11-6.73,15.9,15.9,0,0,0-11.57-.64c-6.66,2-.75-7.18-8.7-7.88s-9.86,6.6-14.6,2.62C739,436,744.11,431,747.54,426c2.74-4,3.19-8.46.26-10.78-3.22-2.55-8.59-.95-12.48.92-4.07,2-7.37,4.17-8.47,2.08-2.15-4.08-3.65-10.63-14.07-8.06S696,425.87,680.12,431.35,632,434.93,629,424c0,0-7.84,3.15-17.83-1.79S583.22,422.22,574,424.9Z" fill="#fff"/><path d="M580.88,414.31c1,1,3.11.57,5.09-.31,3-1.35,7.25-4.06,13.48-5.1,10.31-1.72,12.25,2.26,12.78,4.73s3.12,2.36,8.92.64,13.1,2.16,9.53,6.22c0,0,4.33-3.82,16.88-5.1,0,0,.77-7-8.47-4.77s-8.59-4.83-11.17-5.59-12.71,2-17.79-3.34a23.63,23.63,0,0,1-12.5,5c-5.47.59-12.83,2.19-15.71,4.28C580.6,411.88,579.88,413.31,580.88,414.31Z" fill="#fff"/><path d="M742.57,402.27c-3.75-.26-8.27,5.91-3.76,6.45S747.3,402.59,742.57,402.27Z" fill="#fff"/><path d="M644.6,394.12c-2.89-1.33-9.67,5.16-7.95,7.52S647.18,395.31,644.6,394.12Z" fill="#fff"/><path d="M656.35,402.29c3.08.68,6-3.56,4.06-4.22S653.37,401.63,656.35,402.29Z" fill="#fff"/><path d="M673.64,396.83c-2-.14-8.68,6-4.49,6.66S676.74,397,673.64,396.83Z" fill="#fff"/><path d="M669,390.71c-1.32-.23-3.88,3-2.12,3.16S670,390.89,669,390.71Z" fill="#fff"/><path d="M656.11,352.21c-3.95-1.26-5.91,1.26-7.3.56-.7-.35.4-3.54-1-4.44s-5.25-.57-10.39,3.31c-7.41,5.59-7.3-3.54-19.12,1-5.6,2.14-13.67,10.39-23.63,10.15-21-.51-42.05,12.54-61.18,18.06,23.51-5.14,47.25-1,59.83-5s13.48-10.86,27.23-8.17,19.64,8.44,26.19,3.07A33.73,33.73,0,0,1,659.28,364s-1.45-3.92,3.65-4.4C662.93,359.59,661.64,354,656.11,352.21Zm-36.42,8.08c.16-2.82,8.61,1.48,15.2-2.42,3-1.75,5.5-5.2,6.9-6.28,1.91-1.48,5-2,4.59,1.21-.15,1.18-.59,2.45,1.19,2.92,1.4.38,3.2-.5,5-1,3.91-1.21,6.46,3.75,1.26,6.87-2.5,1.5-9.19,3.72-15.85,3.59C628.82,365,619.6,361.92,619.69,360.29Z" fill="#fff"/><path d="M612.5,328.6c-4.83,2.38-6.55-4.62,7.95-5.91s19.66,2.47,38.78,3.76,28.68-7.41,35.24-3.22c3.19,2,.86,7.2,3.76,8.49s5.47-1.89,8.67-.12a4.33,4.33,0,0,0,.56,1.39c-2.09,2.24-9.05,7-22.09,20.47a4.34,4.34,0,0,0-2.13,0,4.83,4.83,0,0,0-5.08-3.94c-11.45,0-24.17-5.54-33.53-13.78,0,0,21.13,12.51,41.72,7.56s12.42-10.73-1.87-7.56c0,0,11.71-6.94,3.87-7.58s-10.24,6.81-26.23,4.16S628.83,320.54,612.5,328.6Z" fill="#fff"/><path d="M602.79,329.37c-3.28,1.06-2.24,4,1.19,2.7S605.72,328.43,602.79,329.37Z" fill="#fff"/><path d="M594.15,333c-2.21.8-1.68,2.49.45,1.44S596.36,332.23,594.15,333Z" fill="#fff"/><path d="M835.95,418.57c-3.83.94-7.95-2.22-1.5-4.44S841.18,417.28,835.95,418.57Z" fill="#fff"/><path d="M843,413.6s5.8-2.91,8.16-5.84,8.09-7.42,8.67-3.6c0,0,9.81-5.49,7,.38s7.73-2.41,9.31-.38-3.63,7.45-9.81,6.32S849.48,419.37,843,413.6Z" fill="#c0efff"/><path d="M867.17,393.72c-3-.24-9.31,5.28-4.65,5.43S869,393.86,867.17,393.72Z" fill="#fff"/><path d="M853.24,399.15c-2.53-1-4.69,5-2.61,5S855.35,400,853.24,399.15Z" fill="#fff"/><path d="M869.9,389.8c-1.78-.43-2.08,1.7-.93,1.84S871.18,390.11,869.9,389.8Z" fill="#fff"/><path d="M930.6,390.85c2.42,3.37,6,1.48,8.35,2.5S942,395.07,944,395c3.78-.11,3.55-3,7-2.28,8.61,1.8,12.84-2.06,11.45-3.77-1-1.29-5.05,1-7.36.59-3-.53-4.41-2.18-7.39-2.3-2.33-.09-4.43,2.09-5.94,3s-3.4-3-5.19-1.27C932.56,392.82,930.6,390.85,930.6,390.85Z" fill="#c0efff"/><path d="M945.66,382c-1.61-.46-5.42,4.27-2.52,4.44S947.06,382.36,945.66,382Z" fill="#fff"/><path d="M950.74,375.28c-2.12-.05-3.13,3.06-1.23,3S952.86,375.33,950.74,375.28Z" fill="#fff"/><path d="M954.42,380.81c-2.33-.42-3.54,2.9-1.24,3S956.78,381.24,954.42,380.81Z" fill="#fff"/><path d="M9.6,315.64c5-2.1,15.09-9.33,21.12-7.35s5.4,7.37,11.63,6.23,10.38-5.19,15.89-.73,6.75,8.41,11.21,8-5.81,5.92-13.6,1.45-9.86-4.57-16.72-1.87-10.38-4.59-14.23-4.94S16.87,318.34,9.6,315.64Z" fill="#fff"/><path d="M12.25,307.27c11.38-5.69,12.5-.95,21.44-6.37,5.12-3.11-4.68,6.1,1.29,3.95,6.13-2.21,9.38-5.48,14.48-11.48-1.11-1.33-3.61-.88-5.85.9-1.9,1.52.14-2.13-2-2-2.6.21-5.61,4.86-12.56,7.35s-8.84-1.75-17.16,2.22c-15.19,7.25-29.59-3.63-29.59-3.63s4.75,15.13,6.4,15.27C.25,314.57,6.79,310,12.25,307.27Z" fill="#c0efff"/><path d="M121.06,298.85c9.78-1.2,10.41-2.3,14.17-4.33,6.14-3.32,11.94,1.19,15.37,2.1s3.93-3,6.81-3.85c2-.59,3.66,0,5,.25s2.22-.28.94-.71c-1.56-.52-2.59-.83-3.81-1.12-3-.73-4.72.23-6.62,2.67-1.63,2.08-7-4.46-14.22-3.8C131.83,290.67,127.87,297.6,121.06,298.85Z" fill="#c0efff"/><path d="M108.48,306.27c.26-2.73,7.4-4.81,12-2.37,7.92,4.18,10.5.56,10.34,2.43-.09,1.06-1.78,2.23-6.19,1.92-1.78-.13-3.89-1.06-4.9-1-1.4.16-.22,1.06,1.31,1.7s3.39,1,2,1.87C120.17,312.61,108.08,310.61,108.48,306.27Z" fill="#c0efff"/><path d="M132.42,304.17c-1.69,1.38-.38,1.91.55,1.05S133.58,303.23,132.42,304.17Z" fill="#c0efff"/><path d="M166.22,292.34c-2.19,0-1.5,1.24-.24,1.16S167.71,292.34,166.22,292.34Z" fill="#c0efff"/><path d="M76.58,321.47c-4-.73-4,2.8-.37,2.7S78.83,321.89,76.58,321.47Z" fill="#fff"/><path d="M68.31,314.35c-3.11-.07-2.91,3.38,0,3.38S70.28,314.4,68.31,314.35Z" fill="#fff"/><path d="M47,288.63c-2.34.87-2.38,3.68-.52,2.63C48.5,290.11,48.14,288.19,47,288.63Z" fill="#c0efff"/><path d="M669.94,443.64s34.53,2.38,58.73-16.15S744.56,453.67,669.94,443.64Z" fill="#c0efff"/><polygon points="68.41 275.44 86.91 275.44 87.68 280.74 67.48 280.72 68.41 275.44" fill="#fff"/><path d="M710.41,345c-.86-.21-.42-1.61.54-1.56S711.27,345.2,710.41,345Z" fill="#ff3853"/><path d="M709.5,339.72c-.75.05-1.18,1.83,0,1.77S710.25,339.66,709.5,339.72Z" fill="#ff3853"/><path d="M713.15,340.26c-.59-.25-1.83.86-1.24,1.24S713.9,340.58,713.15,340.26Z" fill="#ff3853"/><path d="M715.3,341.87c-1-.16-1.83,2.27-.75,2.34S716.26,342,715.3,341.87Z" fill="#ff3853"/><path d="M842.16,453.48c-1.78-.43-4.4,3.6-1.88,4.24S843.72,453.85,842.16,453.48Z" fill="#ff3853"/><path d="M848.71,448.11c-1.23-.43-3.91,5-2.62,5.34S849.93,448.54,848.71,448.11Z" fill="#ff3853"/><path d="M854.58,449.93c-1.24,1.84.42,3.65,1.65,1.18S856,447.84,854.58,449.93Z" fill="#ff3853"/><path d="M853.87,444.89c.89.39,2.36-2.36,1.18-2.52S853,444.51,853.87,444.89Z" fill="#ff3853"/><path d="M848.23,457.4c-2-.48-4.67,5-2.09,5.59S850.27,457.88,848.23,457.4Z" fill="#ff3853"/><path d="M843,291.2c-1.19,0-1.69,1.68-.75,1.68S843.79,291.2,843,291.2Z" fill="#ff3853"/><path d="M845.8,295.84c-.91,0-1.44,1.84-.63,1.7S846.45,295.84,845.8,295.84Z" fill="#ff3853"/><path d="M850.27,292.24c-.87-.2-1.18,1-.59,1.13S850.95,292.39,850.27,292.24Z" fill="#ff3853"/><path d="M844.36,300c-.81-.15-1.18,1.19-.32,1.3S845.17,300.17,844.36,300Z" fill="#ff3853"/><path d="M851,299.44c-.7,0-.7,1.06,0,1.23A.62.62,0,1,0,851,299.44Z" fill="#ff3853"/><path d="M856.93,295.84c-.75,0-.86,1.2-.38,1.24C857.28,297.12,857.68,295.84,856.93,295.84Z" fill="#ff3853"/><path d="M857.28,302.87c-.94-.05-1.11,1.72,0,1.72S858.21,302.93,857.28,302.87Z" fill="#ff3853"/><path d="M864.94,298.68c-.75-.54-3,.86-1.88,1.67S865.69,299.22,864.94,298.68Z" fill="#ff3853"/><path d="M867.3,308.24c-1.41-.56-2.26.64-1.18,1.07S868.37,308.67,867.3,308.24Z" fill="#ff3853"/><path d="M860.7,311.68c-1.09-.51-1.78,1.45-.6,1.72A.91.91,0,0,0,860.7,311.68Z" fill="#ff3853"/><path d="M874.12,304c-1.31-.47-1.88,1.63-.48,1.74A.9.9,0,0,0,874.12,304Z" fill="#ff3853"/><path d="M980.25,413.36c-1.72-.11-3.38,3.94-.32,3.82S982,413.46,980.25,413.36Z" fill="#ff3853"/><path d="M980.06,423.24c-2.21-.32-4.26,4-1.68,4.24S981.91,423.51,980.06,423.24Z" fill="#ff3853"/><path d="M988.63,417.18c-1.26-1.37-3.65,1.6-2.2,2.36S989.92,418.58,988.63,417.18Z" fill="#ff3853"/><path d="M994,418.78c-1.07-.05-3.28,2-1.45,2.36S995.08,418.84,994,418.78Z" fill="#ff3853"/><path d="M996.9,414.7c-1.94-.67,0-4.57,2.36-3.17S998.3,415.18,996.9,414.7Z" fill="#ff3853"/><path d="M986.22,426.78c-1.5-.47-3.6,2.85-.75,3.12S987.93,427.32,986.22,426.78Z" fill="#ff3853"/><path d="M989,422.38c-1.36.45-1.26,1.61,0,1.67S989.83,422.12,989,422.38Z" fill="#ff3853"/><path d="M999.27,422.86c-1.57-1.16-3.81,2-1.93,2.49S1000.5,423.78,999.27,422.86Z" fill="#ff3853"/><path d="M1009.9,419c-2.26,0-6.66,3.37-2.9,3.86S1012.16,419,1009.9,419Z" fill="#ff3853"/><path d="M1012.59,426.19c-1.64-.79-3.84,2.58-1.6,3.06S1014.25,427,1012.59,426.19Z" fill="#ff3853"/><path d="M1019.73,424.31c-1.65-.33-3,2.22-.43,2.43S1021.07,424.58,1019.73,424.31Z" fill="#ff3853"/><path d="M1007.24,295a.54.54,0,1,0,0,1.07C1008.08,296,1008.1,295.06,1007.24,295Z" fill="#ff3853"/><path d="M1011.41,295.14c-.89-.09-.83,1.21,0,1.18S1011.94,295.19,1011.41,295.14Z" fill="#ff3853"/><path d="M1008.08,298.1c-.72-.22-.75,1.15,0,1.13S1008.7,298.29,1008.08,298.1Z" fill="#ff3853"/><path d="M1012.61,300c-.8-.53-1.75,1.18-.7,1.15S1013.33,300.51,1012.61,300Z" fill="#ff3853"/><path d="M1014.82,297.72c-.7.16-.54,1.37.16,1.1S1015.52,297.56,1014.82,297.72Z" fill="#ff3853"/><path d="M1017.71,293.74c-.32-.82-2.11,0-1.66.81S1018,294.44,1017.71,293.74Z" fill="#ff3853"/><path d="M936.16,277c-.73-.05-1.15,1.15-.38,1.1S936.88,277.06,936.16,277Z" fill="#ff3853"/><path d="M934.79,281.07c-.77-.09-.75,1.15,0,1.24A.62.62,0,1,0,934.79,281.07Z" fill="#ff3853"/><path d="M936.56,280c-.33,0-.29.75,0,.7S936.89,280,936.56,280Z" fill="#ff3853"/><path d="M940.21,280.5c-.24-.58-1.64.21-1.32.67S940.48,281.15,940.21,280.5Z" fill="#ff3853"/><path d="M940.05,277c-.67-.27-1.41.81-.5.91S940.41,277.15,940.05,277Z" fill="#ff3853"/><path d="M945.64,280.83c-.84-.27-1.64.94-.56,1.23S946.15,281,945.64,280.83Z" fill="#ff3853"/><path d="M948.89,276.45c-.86,0-1.42,1.15-.3,1.11S949.56,276.45,948.89,276.45Z" fill="#ff3853"/><path d="M941.8,283.11c-.62,0-.43.57,0,.62S942.14,283.1,941.8,283.11Z" fill="#ff3853"/><path d="M725.38,386.2c-.36-.69-2.4.62-1.4,1.23S725.62,386.66,725.38,386.2Z" fill="#ff3853"/><path d="M728.31,385.57c-.72,0-1.06,1.38-.27,1.36S728.83,385.59,728.31,385.57Z" fill="#ff3853"/><path d="M727.1,389.35c.64.55-.49,1.67-1.28,1.11C725.3,390.09,726.29,388.65,727.1,389.35Z" fill="#ff3853"/><path d="M730.06,388.58c-.59,0-.76,1.15,0,1S730.88,388.6,730.06,388.58Z" fill="#ff3853"/><path d="M732.21,385.37c-.81-.45-2,1.69-.82,1.81S732.91,385.76,732.21,385.37Z" fill="#ff3853"/><path d="M1010.65,276.55s-6,.83-6.48-5.88c-.29-4.11,2.22-7.06,5-8.73,5.84-3.51,12.34-2.6,15.65.64,2.47,2.42,5,2.86,8,3.17v13.48S1014.69,286.24,1010.65,276.55Z" fill="#0062bd"/></g></svg>