<?xml version="1.0" encoding="UTF-8" standalone="no"?>
<svg width="840px" height="720px" viewBox="0 0 840 720" version="1.1" xmlns="http://www.w3.org/2000/svg" xmlns:xlink="http://www.w3.org/1999/xlink">
    <!-- Generator: Sketch 40.2 (33826) - http://www.bohemiancoding.com/sketch -->
    <title>Brick_pattern</title>
    <desc>Created with Sketch.</desc>
    <defs></defs>
    <g id="Page-1" stroke="none" stroke-width="1" fill="none" fill-rule="evenodd">
        <g id="Brick_pattern" fill="#BCC7CC">
            <path d="M31,10.362161 C19.92,10.362161 11,19.282161 11,30.362161 L11,150.362161 C11,161.442161 19.92,170.362161 31,170.362161 L391,170.362161 C402.08,170.362161 411,161.442161 411,150.362161 L411,30.362161 C411,19.282161 402.08,10.362161 391,10.362161 L31,10.362161 L31,10.362161 L31,10.362161 L31,10.362161 L31,10.362161 L31,10.362161 L31,10.362161 Z M451,10.362161 C439.92,10.362161 431,19.282161 431,30.362161 L431,150.362161 C431,161.442161 439.92,170.362161 451,170.362161 L811,170.362161 C822.08,170.362161 831,161.442161 831,150.362161 L831,30.362161 C831,19.282161 822.08,10.362161 811,10.362161 L451,10.362161 L451,10.362161 L451,10.362161 L451,10.362161 L451,10.362161 L451,10.362161 L451,10.362161 Z M0.778640777,350.362161 L179.947378,350.362161 C191.609778,350.362161 200.998642,341.442161 200.998642,330.362161 L200.998642,210.362161 C200.998642,199.282161 191.609778,190.362161 179.947378,190.362161 L0.778640777,190.362161 L0.778640777,350.362161 Z M840.998642,350.362161 L661.829905,350.362161 C650.167504,350.362161 640.778641,341.442161 640.778641,330.362161 L640.778641,210.362161 C640.778641,199.282161 650.167504,190.362161 661.829905,190.362161 L840.998642,190.362161 L840.998642,350.362161 Z M0,710.359985 L179.168737,710.359985 C190.831138,710.359985 200.220001,701.439985 200.220001,690.359985 L200.220001,570.359985 C200.220001,559.279985 190.831138,550.359985 179.168737,550.359985 L0,550.359985 L0,710.359985 Z M840.220001,710.362161 L661.051264,710.362161 C649.388864,710.362161 640,701.442161 640,690.362161 L640,570.362161 C640,559.282161 649.388864,550.362161 661.051264,550.362161 L840.220001,550.362161 L840.220001,710.362161 Z M241,190.362161 C229.92,190.362161 221,199.282161 221,210.362161 L221,330.362161 C221,341.442161 229.92,350.362161 241,350.362161 L601,350.362161 C612.08,350.362161 621,341.442161 621,330.362161 L621,210.362161 C621,199.282161 612.08,190.362161 601,190.362161 L241,190.362161 L241,190.362161 L241,190.362161 L241,190.362161 L241,190.362161 L241,190.362161 L241,190.362161 Z M31,370.362161 C19.92,370.362161 11,379.282161 11,390.362161 L11,510.362161 C11,521.442161 19.92,530.362161 31,530.362161 L391,530.362161 C402.08,530.362161 411,521.442161 411,510.362161 L411,390.362161 C411,379.282161 402.08,370.362161 391,370.362161 L31,370.362161 L31,370.362161 L31,370.362161 L31,370.362161 L31,370.362161 L31,370.362161 L31,370.362161 Z M451,370.362161 C439.92,370.362161 431,379.282161 431,390.362161 L431,510.362161 C431,521.442161 439.92,530.362161 451,530.362161 L811,530.362161 C822.08,530.362161 831,521.442161 831,510.362161 L831,390.362161 C831,379.282161 822.08,370.362161 811,370.362161 L451,370.362161 L451,370.362161 L451,370.362161 L451,370.362161 L451,370.362161 L451,370.362161 L451,370.362161 Z M241,550.362161 C229.92,550.362161 221,559.282161 221,570.362161 L221,690.362161 C221,701.442161 229.92,710.362161 241,710.362161 L601,710.362161 C612.08,710.362161 621,701.442161 621,690.362161 L621,570.362161 C621,559.282161 612.08,550.362161 601,550.362161 L241,550.362161 L241,550.362161 L241,550.362161 L241,550.362161 L241,550.362161 L241,550.362161 L241,550.362161 Z" id="path4363"></path>
        </g>
    </g>
</svg>