<?xml version="1.0" encoding="utf-8"?>
<!-- Generator: Adobe Illustrator 25.3.1, SVG Export Plug-In . SVG Version: 6.00 Build 0)  -->
<svg version="1.1" id="Layer_1" xmlns="http://www.w3.org/2000/svg" xmlns:xlink="http://www.w3.org/1999/xlink" x="0px" y="0px"
	 width="128px" height="128px" viewBox="0 0 32 32" style="enable-background:new 0 0 32 32;" xml:space="preserve">
<style type="text/css">
	.st0{fill:#FFFFFF;}
</style>
<path class="st0" d="M16.4,2H2.4C2.3,2,2.1,2.1,2,2.2C1.9,2.3,1.9,2.4,1.9,2.6v26.9c0,0.2,0.1,0.3,0.2,0.4C2.1,29.9,2.3,30,2.4,30
	h13.9c3.7-0.1,7.2-1.6,9.7-4.2c2.6-2.6,4-6.1,4-9.8c0-3.6-1.4-7.1-4-9.8C23.6,3.6,20.1,2.1,16.4,2L16.4,2z M17.7,25.8
	c-2.1,0.4-4.3,0-6.2-0.9c-1.9-0.9-3.5-2.5-4.5-4.3c-1-1.9-1.3-4-1-6.1c0.3-2.1,1.3-4,2.8-5.5s3.5-2.5,5.6-2.8c2.1-0.3,4.3,0,6.2,1
	c1.9,1,3.4,2.5,4.4,4.4c1,1.9,1.3,4,0.9,6.1c-0.4,2-1.3,3.9-2.8,5.4C21.7,24.5,19.8,25.4,17.7,25.8z"/>
</svg>
