<svg id="Layer_1" data-name="Layer 1" xmlns="http://www.w3.org/2000/svg" viewBox="0 0 46 28"><defs><style>.cls-1{fill:#fff;}.cls-2{fill:#0062ba;}.cls-3{fill:#e23b53;}</style></defs><title>english</title><g id="Layer_2" data-name="Layer 2"><rect class="cls-1" width="46" height="28"/></g><polygon class="cls-2" points="0 9 9 9 0 3.5 0 9"/><polygon class="cls-2" points="18 0 5.8 0 18 7.4 18 0"/><polygon class="cls-2" points="28 28 40.2 28 28 20.5 28 28"/><polygon class="cls-2" points="46 19 37 19 46 24.5 46 19"/><polygon class="cls-2" points="28 0 28 7.4 40.2 0 28 0"/><polygon class="cls-2" points="46 9 46 3.5 37 9 46 9"/><polygon class="cls-2" points="0 19 0 24.5 9 19 0 19"/><polygon class="cls-2" points="18 28 18 20.5 5.8 28 18 28"/><polygon class="cls-1" points="18 7.4 5.8 0 0 0 0 3.5 9 9 18 9 18 7.4"/><polygon class="cls-1" points="46 24.4 37 19 28 19 28 20.5 40.2 28 46 28 46 24.4"/><polygon class="cls-1" points="37 9 46 3.5 46 0 40.2 0 28 7.4 28 9 37 9"/><polygon class="cls-1" points="9 19 0 24.4 0 28 5.8 28 18 20.5 18 19 9 19"/><rect class="cls-3" y="11.5" width="46" height="5"/><rect class="cls-3" x="20.5" width="5" height="28"/><polygon class="cls-3" points="0 0 0 2.2 11.4 9 14.9 9 0 0"/><polygon class="cls-3" points="43 0 46 0 31.2 9 28 9 43 0"/><polygon class="cls-3" points="46 28 46 25.8 34.5 19 31.1 19 46 28"/><polygon class="cls-3" points="14.9 19 17.9 19 3.2 28 0 28 14.9 19"/></svg>