<svg id="Layer_2" data-name="Layer 2" xmlns="http://www.w3.org/2000/svg" xmlns:xlink="http://www.w3.org/1999/xlink" viewBox="0 0 349.14 349.14"><defs><clipPath id="clip-path"><circle cx="174.57" cy="174.57" r="174.57" fill="none"/></clipPath><clipPath id="clip-path-2"><rect x="-576.52" y="-92.65" width="1023.92" height="467.2" fill="none"/></clipPath></defs><title>Artboard 1</title><g clip-path="url(#clip-path)"><g clip-path="url(#clip-path-2)"><polygon points="342.95 194.68 478.42 194.68 478.42 87.18 342.95 87.18 290.87 83.96 23.81 74.85 0.41 125.3 35.79 183.99 300.8 167.12 342.95 194.68" fill="#fff"/><polyline points="256.49 58.23 354.97 52.11 500.75 -18.64 500.75 -115.73 43.15 -135.47 43.15 29.65" fill="#c0efff"/><path d="M470-16.38c-28.35-16.27-68-13.27-93.35,9.73-10,9-34.08,30.8-51.23,44.28-19.5,15.33-69,25.72-96.63-2.28-29.52-29.87-83.67-47.73-148-12C106.84-10.24,226-54.77,286.11-47.18,376-35.85,447.48-92.65,447.48-92.65l-193.93-.6H-186.62s86.41,14.61,128.8,41.68c31.28,20,73.93,50.22,123.08,58.85-32.15,13.92-25,29.09-25,29.09L42.7,57.72l68.09,24L192.66,84,309,80.28l187.27,0S510.36,6.78,470-16.38Z" fill="#fff"/><path d="M68.86,59.71c11.76-24.89,26.38-9.81,39.92-16C127.33,35.14,134.05,23.24,147.6,20c21.89-5.2,52.27,34.21,52.27,34.21l33.81,17.53-1,12.51-80.3-.62-73-15.21Z" fill="#6a6a6a"/><path d="M148.69,19.8c17.38-3.19,32.45-1.32,47.06,13.69s13.38,18.15,28.73,21.9,9.78,22.32,21.78,22.32-3.35,8-3.35,8-18.69-.26-18.69-8.27-9.71-14.17-20.63-15.11-13.13-4.22-15.14-9.71S184,39.19,173.11,37.51,164,20.65,148.69,19.8Z" fill="#c0efff"/><path d="M-283.8,379.84c.55-.15-258.16,28.65-345.24,13.93-24.17-4.09-18.58-59-10.62-61.23,12.26-3.41,442.31,23.24,457.27,19.07l484.05-134.8L286.41,184.2l52.73-1.06,29.55,28.16,73.83,36.56,17.36,145.9Z" fill="#eee"/><path d="M193.54,304.66s6.32-4.38,3.4-6-3.4,6-3.4,6" fill="#422d62"/><path d="M243.41,102.29c-1.65.38-2.63-.3-2.88-4.29-.39-6-2.18-11.33-10.87-11.33-6.81,0-11.62,5.69-11.62,12.88,0,0-2.72-5,.25-13.24a25.3,25.3,0,0,1,6.18-8.82s10.81,1.06,17.19.5,18.25-.31,18.25-.31Z" fill="#422d62"/><path d="M56,49.1S161,72.73,165.35,73.23s17.63,1,17.63,1v-5c0-1.16.26-1.38.79-1.75.3-.21.8-.6,1.53-1.06a3.49,3.49,0,0,1,1.88-.35s3,.44,4,.62,1.31.58,1.31,1.74V75l32,2.44S218,92.16,218,98.16v7.06S156.66,101,146.66,101L35.91,82.48Z" fill="#0062ba"/><path d="M243.41,102.29l87-13.41,5.9-26s-4.81-1.12-14.75,1.25V60.33c0-.79-.46-1.09-1.11-1.23l-3-.67a2.8,2.8,0,0,0-1.81.29l-3,1.72a1.34,1.34,0,0,0-.81,1.29v4.55l-25.44,6V69.12a1.13,1.13,0,0,0-.76-1.26l-2.3-.93a2.14,2.14,0,0,0-1.65.1c-1.09.57-2.91,1.53-3.34,1.78a1.28,1.28,0,0,0-.76,1.38V74l-7.94,1.69V68.88a2,2,0,0,0-1.06-1.75,20.12,20.12,0,0,0-3.77-1.56,18.28,18.28,0,0,0-3.83.87,1.87,1.87,0,0,0-1.15,1.68v9.55Z" fill="#0062ba"/><path d="M408.56,65.67V62c0-.94-.33-1.39-1.27-2.34a2.71,2.71,0,0,0-1.89-.57l-5.89,0c-1.12,0-1.48.8-1.48,1.77v4.81H373.78V61.32c0-1.11.27-3.58-3.83-3.58h-3.33c-.85,0-1.24.29-1.24,1.39v6.55H347.3l7.67,32H466.82v-32Z" fill="#0062ba"/><path d="M50.24,152.85l99-7.33V109.68c0-4.44,4.58-5.25,18.75-4.46s15.52.92,15.52,15.52v31.52s69.06-.67,78.06-.5,26.33-.92,38.83-5.92,10.5,13,10.5,13l16.58-3s0-52.53,0-55.27-.26-4.28.88-5.28c.86-.76,1.54-.49,3.87.16,1.62.46,7.22,2.24,13.57,4,2.81.79,3.53.84,4.13,1.69s.66,1.75.66,5.13v51.74c0,3.23,0,5.46,1.82,7.26s12.48,1.45,8,1.45H449V204l-108.17-4.83-50.17-23-142,17.33L53.94,201Z" fill="#eee"/><path d="M225.2,119.93v9.7c0,2.06.2,3.32,3.87,3.32s4.62-.2,4.62-2.46V119.93c0-2-.15-3.22-4.25-3.22S225.2,117.57,225.2,119.93Z" fill="#c0efff"/><path d="M229.44,111.74c3.54,0,4.25-.35,4.25-2.61v-8c0-2-1.56-5.63-4.25-5.63s-4.25,2.31-4.25,5.58v8C225.2,110.54,225.6,111.74,229.44,111.74Z" fill="#c0efff"/><path d="M248.34,110.5v7.39c0,1.94.66,2.09,8.18,1.33,6.66-.67,8.12-.72,8.12-2.51v-8.54c0-1.44-1.33-1.38-8.15-.47S248.34,108.5,248.34,110.5Z" fill="#c0efff"/><path d="M248.34,128.74v7.39c0,1.94.66,2.09,8.18,1.33,6.66-.67,8.12-.72,8.12-2.51v-8.54c0-1.44-1.33-1.38-8.15-.47S248.34,126.74,248.34,128.74Z" fill="#c0efff"/><path d="M274.57,107.07v7.39c0,1.94.66,2.09,8.18,1.33,6.66-.67,8.12-.72,8.12-2.51v-8.54c0-1.44-1.33-1.38-8.15-.47S274.57,105.07,274.57,107.07Z" fill="#c0efff"/><path d="M300.8,103.47v7.39c0,1.94.66,2.09,8.18,1.33,6.66-.67,8.12-.72,8.12-2.51v-8.54c0-1.44-1.33-1.38-8.15-.47S300.8,101.47,300.8,103.47Z" fill="#c0efff"/><path d="M274.57,125.91v7.39c0,1.94.66,2.09,8.18,1.33,6.66-.67,8.12-.72,8.12-2.51v-8.54c0-1.44-1.33-1.38-8.15-.47S274.57,123.91,274.57,125.91Z" fill="#c0efff"/><path d="M156,174.78V147c0-6.13,1.24-15,11.29-15,8.68,0,9.85,7.71,9.85,13.57V161.9Z" fill="#422d62"/><path d="M-204,352.89C-120.18,340.27-95.71,325.1.41,296.07c53.1-16,106.67-12.81,150.63-25,24.14-6.67,61.45-16.71,76.43-20.09,91.67-20.67,89-22.33,89-22.33l-25-49.83-22.67-1-14.33-10.67-8.14-4.61s1.1-9.32-10.54-12.14l-29.73,20.91-44.32,17.18a334.82,334.82,0,0,0-42.19,1.34c-3.1.33-15.59,3-20.36,3,0,0-9.58-1-17.15,1.93L23,237.82l-90-22.63-529.58,118.1S-364.5,377.07-204,352.89Z" fill="#00aff9"/><path d="M129.94,210.73c7.18-4,26.73-5.75,40.29-7.46,1.89-.24,3.93-.53,5.31-1.84,1.66-1.58,1.86-4.13,1.83-6.42a3.86,3.86,0,0,0-3.55-4.69c-17.88-4.33-33-2.11-53.93-.48-6.16.48-14.58,2.1-20.7,3-3.79-.19-9.38-.46-13.36.61-7.66,2.06-12.23,7.69-18.2,12.9-4,3.49.64,3.08,6.17,4.91,3.37,1.11,4.14,4,7.39,5,6.39,2,16.88-1.12,23.16-.09C122.12,219.09,122.75,214.77,129.94,210.73Z" fill="#422d62"/><path d="M-37.66,218.88c22.52-17.59,48.1,7.28,77.22,13.14,8.45,1.7,23.72,24.81,27.6,24.81,6.41,0,72.29,17.57,72.29,17.57s-27.3,14-67.65,26c-4,1.19-9.13,10.7-13.32,11.95C-2.75,330.57-82.79,340.5-114.71,349.6c-47.18,13.45-104.82,22.16-156,23.11-65.06,1.2-126.71,1.28-190.85-8.75-42.33-6.62-83.73-17.3-125-28-4.8-1.24-9.93-2.67-13-6.23-4.52-5.28-2.41-13.35,2.69-18.18s12.37-7.2,19.38-9.38a2533.12,2533.12,0,0,1,391.45-88.36c51.42-7.4,105.28-13.07,154.59,1.95" fill="#422d62"/><path d="M210,320.35s112.25-41,134.83-42.33S436,265.52,436,265.52l33.17,1.5-5.5,89-16.25,18s-233.08-7.62-287.33-9c-25.85-.67-40.06-6.33-39.92-13.62.11-5.6,9.25-7.23,18.67-10.75,13.86-5.19,31-8.63,31-8.63l19.33,2.17,5.5-9.53Z" fill="#6a6a6a"/><path d="M326,292.27c-4.32-3.33-.87-20.41,3.14-28.43,4.12-8.25,7.48-11,12.6-6.05,3.93,3.79,3.81,5.34,12.62,3.89s11.87.41,14.11,3.8c2.39,3.63,6.64,8.63,14.45,2.38s8.75-8.56,10.5-7.87-2.81,10.38-4.56,11.88c0,0,3.62-.62,6.81-6.56s7-6.38,9.53-8.34c6.64-5.08,6.28-9,8.35-9.29s-1.71,7.06-1.71,7.06,3.77-1,6.46-6.45l13.12,3.26-13.94,18.9-18.69,5.83-9.06-2.67-4.25-.7-4.44,8.57L367.79,285l-1.53-1.1s-4.12.6-6-.47-2.67-3.94-5.17-2.9a13.84,13.84,0,0,0-4.67,4l-6.71-1.42Z" fill="#00aff9"/><path d="M138.68,188.58a3.83,3.83,0,0,0,2.83-.89c2.74-2.55,5.67-8.3,14.67-8.3,11.84,0,5.56,9.13,5.56,9.13Z" fill="#0062ba"/><path d="M100.55,61.19c5.51,1.83,15.1,9.58,15.1,9.58l17.75,4.75,10.33,9.67s4.63,5.36,5,15.38a26.45,26.45,0,0,1-3.13,17.59c-3.72,6.34-12.75,10-7.66,15.27,4.21,4.35,4.47,22.66-24.42,28.33-2.35.46-6.09,2.3-8.83,2.58l-9.83-45.66L85.39,71.93Z" fill="#00aff9"/><path d="M53.29,136.85c4.46-5.28,7.23-7.86,1.63-12.17s-19.68-12-17.51-29.91,26.53-38.05,42.33-34.7l8.56,38.2,20.94,5.45-1.38,37.72,9.48-6.85s-6.38,23-15.87,34.83c-6.32,7.9-9.21,18.17-9.21,24.82l-8.36-15.57-10-20.05L53.2,144.41Z" fill="#0062ba"/><path d="M21.15,127.08c3.81-1.36,14.74,1.07,13.62,13.25-.88,9.54,8,1.11,18.43,10.54,6.15,5.54,4.68,10.46,9.82,15s9.41,13.63,1.38,23L25.75,176.61l-14.62,6.65L.41,156.66,12.59,137.3Z" fill="#0062ba"/><path d="M18.46,122.11a13,13,0,0,1,2.6,10.74c-1.33,6.33-12.17,10.33-12.5,19s10.25,18.33,4.75,27.83l9.17-6.25,32,12.5,8.17,6.92,12.42-1.42,8.83,6.17s3.8,0,5.66.24a4.07,4.07,0,0,1,2.77,1.81s4-2.89,6.86,1.37c0,0,3.52-3.8,8.51-2.65s3.61,5.35,10.89,4l4.21,2.88s-5.24,4.3-14.09,2.75C91.16,204.94,98,219.8,74.5,215.48,63.78,221.43,59.43,226.13,57.43,233c-.83,2.87-8.19,5-12.31,4.21-4.9-1-10.83,7.86-24.48,2.63-9.76-5.23-8.52-11.11-8.52-11.11L-16.4,182.94l1.13-25.46Z" fill="#00aff9"/><path d="M-304.13,340.26c46.28-6.22,89-16.58,118.84-33.31,38.32-21.46,59.32-74.1,98.86-50.57,0,0,37-45.28,107.07-16.53,0,0-5.92-7.25,0-10.17A7.56,7.56,0,0,0,25,221s6.25,3.42,11.75,0,5.76-16.92-8.41-15.33-19,1.83-20.59-5.92-5-6-11.17-9.25C-18.38,182.63-3,152-11,150.43l-311.37,42.41A1195.89,1195.89,0,0,1-304.13,340.26Z" fill="#0062ba"/><path d="M13.31,179.68s1.88-2.67,4-5.93a13,13,0,0,1,14.5-4.87c6.79,2.38,5.84,6.88,13.87,8.3,5.67,1,10.5-4.75,16.25.08,4.51,3.79,1,9.58,3.5,11.25s14.42-4.92,18.42,9.08c0,0-9.92-5.33-17.5-1.67s-10.58-5.42-16.5-6.92-13.17,3.58-17.25-2.75C28.81,180.32,21.73,174.85,13.31,179.68Z" fill="#ff3853"/><path d="M92.33,199.64s.15-22.92,1.21-30.6.83-15.56-8.25-30.06c-7.44-11.88-2.68-16.67-5.56-20.56-3.19-4.31-10.87,1.19-7.37,14.25s10.56,18.69,7.38,25.69c0,0-19.56-12.37-26.44-21.5,0,0-7.19,7.13.5,14.63S72.48,161.35,73.91,167s1.25,7.44,5.37,12.88,4.6,7.38,4.6,17.69C83.89,197.6,87.78,204.85,92.33,199.64Z" fill="#422d62"/><path d="M177,166.18l-12.33,11,8.83,14S185.48,187,177,166.18Z" fill="#422d62"/><path d="M248.56,238.94c2.14,1.52,7.78,1.4,10.88-4.46s6.25-6,9.8-5,3.94-.79,4.79-2.2,4.45-1.41,7.89,1l-.7-7.89s-6.34,2.7-12.42,1.86c0,0,2.43-1.52,1.83-3.22s-1.76.84-3.38,2a16.39,16.39,0,0,1-3.14,1.82s1.94-3.91,1.19-5-3.32,5.44-7.14,6.9-7.17,6.9-8.84,6.81-1.11-7.86-.66-10.19-1.31-1.79-2.18,2.9-1,6.39-1.76,6.42-1.58-6-3.08-9.14-2.42-3.08-1.34,2.9.87,8.6,3,9.7C246.65,235.92,246.73,237.64,248.56,238.94Z" fill="#0062ba"/><path d="M77.25,59.74a43.38,43.38,0,0,0-8.9,18.36c-2,10.5-3.62,4.88-9.5,8.38s-8.61,16.38,4.25,19.88c10.22,2.78,13.38-5,16-3.75s7.63,7,13.5,2.13c0,0,1.79,8.13,10.21,7.79S88,136.85,100.06,150.43c4.53,5.09,8.86,4.29,12.08-.8,6.52-10.3,8.33-24.32,1.67-29.95,0,0,5.21-1.13,7.08-8,1.24-4.53.12-13.5-9-16.67-3.91-1.36-1.92-6.54-4.06-9.77-2.89-4.34-7.64-5.29-13.86-2.4-3.73,1.74-8.67-7.67,3.92-16.58,6.65-4.72,3.68-9.49-2.45-10.2C86.59,55,77.25,59.74,77.25,59.74Z" fill="#0062ba"/><path d="M77.25,59.74S85,50.54,99.72,53.52c10.24,2.07,10,7.93,16.78,14.32,5.5,5.2,9.52.45,18.91,4.53,10.07,4.37,16.94,16.73,13.28,28.19,0,0,.14-11.41-7.24-13.43s-8.28-9.68-14.15-9.57-9,1.4-14.77-1.68-6.34-9-12-15.5C95.92,55.17,83.29,57.15,77.25,59.74Z" fill="#c0efff"/><path d="M437.85,227.6c-10.12,7.88-12.19,22.31-12.19,22.31a13.54,13.54,0,0,0-7.38,9.63c-.56,3.16-2.61,7.45-3.4,7.48-3,.13-2.7-3.29-2.7-3.29s-2.42,4.33-5.42,4.58a10.87,10.87,0,0,0,2-3.83c.42-1.92-.83-2.37-3.12.29s-6.37,4-10.33,3.54-8.42.21-12.33,7.42-9.08,2.54-14,7.08c0,0,.23-4.91-1.81-6.41,0,0,.81,6.37-2.69,10.33a27.39,27.39,0,0,0-5,8.13,36.66,36.66,0,0,1,.83-7.42c.88-4-2.37-2.67-4.17,2.79S351.31,299,346,301.43s-9.5,8.25-7,11.21c1.66,2,6.39,1.19,12.67-3.71,3.79-3,9.88-6.5,12.75-4s-3.42,8.17-3,10.25,6.26,1.42,7.13-6.17a51.28,51.28,0,0,0-.34-14.25c-.25-2.71,1.75-4.12,2.13,0a67,67,0,0,1-.17,9.92,26,26,0,0,0,4.83-8.5c1.5-4.79.58-10.62,2.25-10.71s.58,4.79.58,4.79,2.4-4.23,3.75-3.62c1.2.54,1,2.29-2.8,6.1,0,0,2.49-.69,2.43,1.06-.05,1.38-3.9,2.78-3.9,2.78s2.5.64,0,3.34,1.44,4.5,4.23-.54a39.44,39.44,0,0,0,3.87-9.66,26.67,26.67,0,0,0,.16-9.48c-1.28-7.21,3.72-8.45,3.47-3.15-.18,3.74-1.92,4.55-1.2,7,.35-1.52,3-6.31,4.22-5.34s-3.52,5.75-3.52,5.75,5.49-3.53,5.21-1.86-4.8,3.67-5.21,3.82c.33-.12,2.68,0,2.18,1.5s-3.14,1.26-3.39,2.84,1,2.33-1.54,4.17,1,2.58-1.87,7.92c-3.21,5.92,8.54,3.63,8-5.29-.44-7.88,1.26-5.87,2.7-3.28s2.73,2.4,4,6.38c0,0-.12-7.76,2.5-12.3a25.24,25.24,0,0,1-.54-4.42c0-1.8,0-4,1.2-4.5,1.58-.67,1.67,2.83,1.67,2.83a20.8,20.8,0,0,1,2.27-5.1c2.15-3.19,5.77-3.2,5.15-1-.54,1.91-2.73,2.22-3.73,5.05,0,0,3-2.81,3.65-1.55.8,1.55-3.82,2.92-3.82,2.92s2.34.59,1.33,2.5-4.33,1-5.79,3.34c-1,1.55-2.42,5.62-1.25,6,.89.29,4.5-5.28,8.36-7.27,2.44-1.26,4.26-.48,2.76.65-1,.78-3,1.91-3,1.91s2.18,1.09-.28,2.76-2.15,4-5.77,4.41c0,0,3.51,3.52,2.06,6.34-1.09,2.13,1,4.31,3.34,3.81s5.37-3,5.78-9.27c.79-12,2.08-7.58,2.92-4.71s2.38,10.88,4.75,10-.29-4.12-1-11.21,1.42-9.5.46-12.75a14,14,0,0,1,3.83,11.25c-.75,7,.17,9,1.25,9s2.81-7.65,2-13.37c-1.25-8.83,3.17-11,3.17-11s-.32,5,.88,8.13c2.38,6.17-1.83,12.25.63,13.21s4.63-10.21,15.08-10.75,12.73-54.94,12.73-54.94S448,219.73,437.85,227.6Zm-72.79,74.2a8.45,8.45,0,0,1-3.33-6.09c-.09-1.82,1.47-1.91,3.6,1.53S366.64,302.9,365.06,301.8Zm33.58-18c-1,3-5.71,5.2-5.71,5.2a36.3,36.3,0,0,0,2-3.16c2.43-4.5-.44-7.9,2.27-8.41C398.42,277.18,400,279.43,398.64,283.78Z" fill="#422d62"/><path d="M336.27,281.81s-1.93,2.46-3.33,4.71c-1.84,2.94-6,3.94-8.16,5.06s3.29,3.06,11.16-1,11.54-5,11.54-5-2,2.42-.5,3.13,7.42-2.87,9.25-6.42,3.63-4,3.63-4-4.5-.46-6.92,2-1.13-.66.17-5.22a14,14,0,0,1,3.2-5.79c.62-.81-2.83.42-5.32,4.17-4.1,6.17-3.69-.32-3.32-2.13.3-1.48.17-3-.38-3.08-1-.1-2.06,1.09-2.85,4.67-.85,3.84-2.22,5.67-3.26,5.64s-1.18-3.4,1.27-8.81-1.33-7.83-1.33-7.83.16,3.34-.75,4.91a18.35,18.35,0,0,0-1.13,4.42s-1.37-.5-1.33-5.62c0-3.19-1-4.83-2.73-3.51-1.57,1.17-.53,5.7,1.14,8.91,3.22,6.21,2.18,8,.76,6.85-.75-.61-1.54-2.3-2.69-4.22-.75-1.25-3.18-2-3.18-2a16.88,16.88,0,0,1,1.38,5C333,279.85,336.27,281.81,336.27,281.81Z" fill="#0062ba"/><path d="M243.95,318.22c.84,1.55,1.28,3.42,3.92,3.19s3.19-1.64,5.47-.68a6.16,6.16,0,0,0,5.88-.59c1-.91.68-2.05-2-2.78s-2.1-2.19-4.83-2-3.1-1.73-5.34-.78-3.24.46-4,1.41S243.43,317.26,243.95,318.22Z" fill="#0062ba"/><path d="M280.64,322.3c-.78-1.41,1.87-3.38,3.55-3.51s2.78,1.24,3.6,0,1.87-2,3.31-1.09a16.44,16.44,0,0,0,4.56,1.73c1.73.29,2.21,1.73,0,1.69s-4.8,1.72-6,3-4.58.94-5.85,0C282.18,322.88,281.12,323.17,280.64,322.3Z" fill="#422d62"/><path d="M271.32,326.75c-1.67-1.67-8.34.34-12.93,7.4,0,0,5.1.94,8.68-2S272.09,327.52,271.32,326.75Z" fill="#0062ba"/><path d="M310.23,338.89c-.29-1.61-4.42-2.24-6.62-1.87a4.16,4.16,0,0,0-3,2.09s-1.39-1.36-3.87.07a9.46,9.46,0,0,0-3.86,4.34c-.59,1.05,2.4,1.21,4.35,1.26,3.76.11,4-2.14,5.84-2.06C308.28,342.93,310.48,340.28,310.23,338.89Z" fill="#0062ba"/><path d="M240,328.11s3.28,5.43,8.86,1.3c2.66-2,2.39-5.73-.48-3.26S242.51,325.64,240,328.11Z" fill="#422d62"/><path d="M272,336.55s6.72-6.26,8.08-2.69S272,336.55,272,336.55Z" fill="#422d62"/><path d="M288.23,330.89s3.23-3.27,9.1-.45C297.33,330.44,293.84,334.81,288.23,330.89Z" fill="#422d62"/><path d="M255.71,351.78c-1.33-1.42,1.51-7.41,7.2-5.22a3.4,3.4,0,0,1,3.23-1.39c2.14.29,3.86-1,4.52,0s-2.63,4.14-3.83,5.21c-1.76,1.56-3.15-.21-5.53.25S256.77,352.92,255.71,351.78Z" fill="#0062ba"/><path d="M214.31,337.22a8.41,8.41,0,0,0,5.74,1.54c3.21-.43,3.64-2.08,5.61-2.08s3.66,2.18,7.54-2.73c1.6-2-1.87-1.66-4-2.08s-3.69-1.39-5.61,1.23-3.58-1.23-5.13-.32S214.31,337.22,214.31,337.22Z" fill="#0062ba"/><path d="M253,162.27c-3.12-5.29-8.32-11-14.21-12.7-5.21-1.53-11.49-1-15.18,3a15.27,15.27,0,0,0-3.55,9.09c-.55,6,1.14,12.41,5.6,16.42,5,4.53,12.39,5.16,18.49,8.09,5,2.39,9.07,6.27,13.31,9.82s8.93,6.9,14.37,7.89,11.78-1.06,14.25-6c1.94-3.89,1.11-8.69-1.05-12.46s-5.48-6.71-8.74-9.58c-1.4-1.24-3-1.55-4.45-2.78" fill="#00aff9"/><path d="M213.41,206.43c6.4.62,16.07-3.82,16.07-3.82s28.71-.78,36.51,1.09a32.94,32.94,0,0,0,15.21-.31,61.61,61.61,0,0,1-13.19-8,53.55,53.55,0,0,1-12.24-14.12c-2.34-3.68-7.62-8.88-14-2.73,0,0-4-5.93-10.53-4.68l-21.22,9.05Z" fill="#422d62"/><path d="M266,203.69s-1.77,2.6-8.7,4.74c-5.58,1.72-8.33-5.19-14.36-3.18-3,1-3.85,3.59-7.72,5.69-4.43,2.41-3.32-5.41-7.66-1.86s-7.72,5.91-7.89,3,2.4-6.78,2.4-6.78,5.32-3.25,7.18-6.34,3.5-6.41,5.52-5.8c1.69.51-.51,4.9-1.13,6.7s.56,2.42,2.25.23,3.89-6.59,5.91-6-1.07,5.32-2.2,6.87,2.53,2.14,6.53-2.87,5.69-6.85,5.69-6.85.84,5.14,4.39,8.09A22.26,22.26,0,0,0,266,203.69Z" fill="#0062ba"/><path d="M311.71,352.37s18.53-25.3,32.07-21.09c15.21,4.73,18.14-14.9,31.16-13.79,12.33,1.05,12.33,12.46,12.33,12.46a96.3,96.3,0,0,1,30.33-20.88c6.25-2.73,16-3.8,26.72-3.93s13.49,3.86,19.17,8.75c3.84,3.31.54.53,1.9,5.41,2.47,8.89,2.47,19.39-3.69,26.25-5.77,6.44-15.2,7.88-23.83,8.37-2.67.15-5.49.22-7.84-1.05-5.8-3.14-5-11.57-3.46-18-2.78-1.71-6.49.31-8.36,3s-2.78,6-4.9,8.47-6.34,3.78-8.55,1.37a14.57,14.57,0,0,1-1.81-3.41,8.93,8.93,0,0,0-12-3.45c-4.19,2.49-5.88,8.25-10.42,10a7.48,7.48,0,0,1-9.44-4.48c-.76-2.34-.29-5-1.3-7.23-1.7-3.77-6.93-4.68-10.79-3.18s-6.77,4.67-9.9,7.38C338.11,353,311.71,352.37,311.71,352.37Z" fill="#422d62"/><path d="M109.27,175.76c0-1.07,1.47-2.44,4.2-2.44a6.07,6.07,0,0,1,4.21,1.46l-2.75,2.46S109.27,176.83,109.27,175.76Z" fill="#0062ba"/><path d="M117.68,174.78c-2.68,1.31-8.41,1-8.41,1s-.15,3.83,3.12,4.43a12.58,12.58,0,0,0,6.8-1.17Z" fill="#fff"/><path d="M244,283.4s0,6.74,0,8.08,0,4.17,2.56,4.5c2.81.36,3.8-1.6,7.11-1.5s2.53,1.66,5.25.91,3.68-2.66,5.87-1.41,3.82,1.63,7.6-.12,6.4,2.54,6.4,2.54l7.32-6.22-.52-5.53Z" fill="#422d62"/><path d="M249,166.18l16.61,112.67c.28,1.67,16.73-.2,16.73-.2l3.26,6-36.12,2.76-5.47-4s-.13-1.78,3.65-1.87,15-.07,14.63-2.69L245.64,166.18Z" fill="#ff3853"/><path d="M315,312.35c.13,3.5-4.62,15.34-4.06,19.11s8.22,6.81,13.19-2.36c1.27-2.35.75-7.75,1.19-10.19s-.94-8.5-.94-8.5Z" fill="#422d62"/><path d="M293.89,293.82s.45,7-.63,9-.91,2.31-7.22,4.87c-3.57,1.45-8.58,3.39-13.77,3.7-4.77.29-6.64-1.77-6.44-3.68.4-3.8,5.81-5.56,8.4-6.52s4.53-2.85,4.53-5.69Z" fill="#422d62"/><path d="M325.34,226.54c.8,6.29,1.32,31,.54,46.7-.72,14.62,1,29.25.16,37.37-.06.62-.2,1.74-1.23,1.74H314.75A3.79,3.79,0,0,1,313,312c-.64-.35-.87-.64-1.27-2.34-2.4-10.33-11-47.49-12.75-56.08a329.36,329.36,0,0,0-3.26,38.67c0,2.33-.12,3.49-1.08,4.1a3.64,3.64,0,0,1-1.95.33c-1.56,0-14-.27-14-.27s.9-30.63,1.17-49.45c.29-19.84,1.36-30.37,1.36-30.37Z" fill="#0062ba"/><path d="M327.09,154.35c3,3.74,9.66,8.13,9.66,21.53s-.51,19.91-2.89,25.61-7.15,3.66-7.15,3.66.51,18-1.36,21.4-44.46-6-44.46-6l.33-32.63s1.59-3.91-2.58-3.62-7.06.51-7.74-.26l-.21-12c0-2,9.57-12.17,19.31-17l27.18-3.11Z" fill="#fff"/><path d="M214.22,206.48s-1,20.69-1.56,26.94-1.3,10.85-1.3,16.64L202.1,254s-6.65.72-6.65-2.55a287.14,287.14,0,0,0-.72-30.08s-3,.44-4.31,11.75-2.21,14.17-2.52,18.84-8,3.53-8,3.53S171.59,258,171.6,251s1.57-42.76,1.57-42.76l.06-8.69,15.19-1.25Z" fill="#422d62"/><path d="M187.89,251.94s-1.39,21.41-1.83,25.53-3.19,7.7-9.17,12.3-13.14,5.54-14.9,3.92S159.5,288,166.74,283c5.49-3.82,4.85-7.5,4.85-14.75V251s.65.18,1.34-1,3.19-1.39,5.33.17S187.89,251.94,187.89,251.94Z" fill="#ff3853"/><path d="M195.45,251.43v28.72c0,1.7.64,2.45,4.53,3.34,5.77,1.31,8.86,4.47,12.58,5.26,4,.83,9.93,1.31,12-1s.36-5.26-5.51-7.58-7.65-6.64-7.65-9.9V250.06s-1.16-2-5.29.43S195.45,251.43,195.45,251.43Z" fill="#ff3853"/><path d="M231.71,161.35l-4.17.63-4.95.84-56.86-5s-10.44,11.44-10,16.92c1.68,21,5.13,24.45,8.92,25.33s6.15,5.31,6.15,5.31,9.23-6.12,18.62-2.87c10.8,3.74,18.81,6.38,24.81,3.94s6.13-15.29,6.13-15.29c11.63.08,13.75-21.08,14.56-25.52S231.71,161.35,231.71,161.35ZM173.54,186s-2.63-5.87-1.94-10.12a9.35,9.35,0,0,1,4.25-6.25Z" fill="#eee"/><path d="M173.68,194.68s-5.75,1.92-9,5.42c0,0,1,3.48,1.58,6.38s2.93,9.16,6.63,9,1.54-8.37,1.83-12.06a13.22,13.22,0,0,1,2.54-.94,22,22,0,0,0-2-5A15.44,15.44,0,0,1,173.68,194.68Z" fill="#fff"/><path d="M161.31,163.23c5-6.34,12.79-17.8,22-17.67s27.5-1.53,27.5-1.53,10.52,1.91,12.76,7.23c2.39,5.65,5,11.62,5,11.62s-4.06-.41-5.11.65-5.25,3.19-5.25,3.19Z" fill="#00aff9"/><path d="M222.73,150.42c.17,3.2.15,7.31.15,7.31l5.39,3.35,5.57-3.74a77.61,77.61,0,0,0,1.34-8.16c.35-3.78-.88-4-5.37-4.44C222.54,144.06,222.44,145.05,222.73,150.42Z" fill="#ff3853"/><path d="M222.67,149.76s-1.27.17-1.57,3.33c-.27,2.85,2.86,6.08,3.17,10.82.08,1.21,2.39.62,4.56.49s4.23.19,4.43-1.1a15.81,15.81,0,0,1,1.68-5.69c1.1-1.86,2.93-6.63.23-8.43-6.73.87-6.39,2.66-6.6,4.53s2.66,3.75,2.66,3.75S222.94,163.35,222.67,149.76Z" fill="#fff"/><path d="M223.48,163.54l-1.67,7.08s-24.7,4.39-45.43-.86c-15.13-3.83-16.31-4.8-16.31-4.8s1-1.35,2.55-3.41C165.72,162.06,213.14,164.23,223.48,163.54Z" fill="#ff3853"/><path d="M195.37,145.49c2.17,1.59,7.58,1.56,9.46-.9l4.89-9.41.16-10.81-6.36-7.75-5.5.16-7.64,8.47,1,9.24,3.26,8.61Z" fill="#fff"/><path d="M199.53,113.78c-5.79.16-14.77,2.85-17.29,19s5,14.79,9.69,14.45,7.38-5.75,3.53-13c-1.55-2.93-2.67-4.11-1.78-6.82s2.33-.43,5.19-3.64S202,118,202,118a13.42,13.42,0,0,1,6.12,8.76c1,5.89,0,7.62-1.94,9.15-1.65,1.32-1.6,5.38-1.4,8.71.7,1.21,4.52,2.79,7.08-.31s3.44-14.37,1-20.34S206.73,113.59,199.53,113.78Z" fill="#422d62"/><path d="M316,148.19s-1-4.85.45-7.49-2.81-15.12-2.81-15.12-14.38-3.05-15.49,0a16.55,16.55,0,0,1-4.67,7.21c-2.31,2.27,2,3,2,4.76s-.74,4.85,2.73,6.47a7.68,7.68,0,0,1,4.16,5S307.44,151.33,316,148.19Z" fill="#422d62"/><path d="M313.3,140.35c3.53.26,5.09,1.12,6.93-5.3,2-6.79,0-10.78-4.08-13.59s-13.63-5.28-18.29-1.57c-3.53,2.81-.94,5.41,1.87,5.79,1.71.23,5.16,1.28,6,2.25,1.6,1.86-.34,6.3,1.28,6.55.82.13,2.42-2.38,3.57-1.28S309.77,140.1,313.3,140.35Z" fill="#0062ba"/><path d="M296.37,152.14s1.26-4.62,4.45-6.19a7.25,7.25,0,0,1,1,1.36,1.07,1.07,0,0,0,.87.63c1.26.06,4.29.18,6.69.06,3.11-.16,7.75-2.58,10.68-1s7.06,7.32,7.06,7.32-14.12-1-14.17,2c0,2.54.63,12.63-1.22,18.44-.38,1.21-.83,2.41-1.5,2.7a6.45,6.45,0,0,1-2.07.26h-3.32l-10.4-12.55Z" fill="#ff3853"/><path d="M306.68,159.11a13.91,13.91,0,0,0-.51,4.66c.18,1.88-2.79,6.41-7.41,6.34a13.74,13.74,0,0,1-7.62-2.38,13.26,13.26,0,0,0,4.44-4.75,7.63,7.63,0,0,0,.9-3.33l2.89-2.82A8,8,0,0,1,306.68,159.11Z" fill="#422d62"/><path d="M306.68,159.11c.51-2.29-2-7.7-9.64-7.32s-14.53,9.41-7.56,16.44S292.16,187,292.16,187s5.56,11.19,19.91,8.59a15.74,15.74,0,0,1-8.62-4c-3.47-3.47-.85-5.73,2.59-1.16s6.53,2.72,3.87-1.69.28-10.19-6.06-16-11.59-5.34-11.59-5.34,4.65-3.36,4.23-7.82c0,0,1.74-1.72,2.32-2.27S302.69,155.58,306.68,159.11Z" fill="#0062ba"/><path d="M292.84,148.29c-2.13.4-3.53,1.85-3.15,4.12s2,3,4.58,1.87C297,153,298.62,147.2,292.84,148.29Z" fill="#00aff9"/><path d="M327.09,154.35c2.57-.65,5,3.34,2.37,4S312.9,163.73,303,173.14a95.81,95.81,0,0,0-6.81,7.28s-1,6.67,1.2,9.64c2.83,3.82,7.38,5.69,14.66,5.54l-.68,3.52-21.76.52s-8.25-1.31-9.51-6.18-.12-15.41.58-19c.74-3.81,1.53-8.62,11.38-6.41,4.74,1.07,5.48,3.21,5.48,3.21S309.74,158.76,327.09,154.35Z" fill="#6a6a6a"/><path d="M305,205.8a40.63,40.63,0,0,0-.52,10.72c.16,2.56-3.56,4-7.33-.74s-2.1-9.42.31-11.76S305,205.8,305,205.8Z" fill="#00aff9"/><path d="M290.76,203a38.73,38.73,0,0,0-2,6.77c-.52,3.13-1.1,5.38-4.56,4.86s-3.61-7-2-10.42,3.19-4.4,3.19-4.4Z" fill="#00aff9"/><path d="M318.9,194.09s5.61,2.3,8.19,4.66,2.85,6.64-2.24,6.76c-9.27.21-24.16,1.86-29.24,0s-11.68-4.15-11.68-4.15-2.92-4.54-3.86-5.91.84-4.92,4.35-3.4,4.34,2.59,4.87,1.83-2.46-2-2.71-2.93c-.13-.48,1.49-1.73,4.56.68a81.93,81.93,0,0,0,7.28,4.76c1.52.91,1.93,1.26,2.76,1.34a22,22,0,0,0,3.82-.65Z" fill="#422d62"/><path d="M120.92,189.73s.48,4.5.82,7.87-6.2,5-5.57,7.76c.18.79,3.57,1.94,6.94-.28s4.79-.94,5.28-8,.59-8,.59-8S124.38,189.36,120.92,189.73Z" fill="#0062ba"/><path d="M131.66,188.91s5.21,5.3,7,7.36c3.29,3.76-2.78,7.1-1.69,8.55,1.72,2.3,6.3-1,9-3.14a3.83,3.83,0,0,0,1.06-4.09,21.28,21.28,0,0,0-6.18-9.38Z" fill="#0062ba"/><path d="M145.49,166.18c1.74,5.79-1.37,10.59-7.33,17.48l2.69,4.54-9.18.7a4,4,0,0,1-2-3.19,5.77,5.77,0,0,0-.73,3.36l-6.17.48a36.89,36.89,0,0,1-.23-6.91c.34-2.1,2.49-5.86,7-8.45Z" fill="#422d62"/><path d="M121.64,153.17s9.23-2.45,15.65,2.21c4.63,3.36,6.44,5.72,8.2,10.81,1.67,4.83-4.4,9.43-13.63,7.63,0,0-3.32,4.17-13.09,6.17-.35.07-1.09.06-1.09-.64v-4.57s4.63-2.34,5.48-3.67c1-1.5.33-7-2.16-7.43-2.25-.4-6.72.39-12.06,2.37-.43.16-.86.86-1.31,1-.15.06-.31-.42-.46-.36-6.11,2.47-4-2.09,1-4.5,5.88-2.81,5.62-4.11,8.44-6C118.5,155,121.45,155.41,121.64,153.17Z" fill="#ff3853"/><path d="M110.89,154.53a19.71,19.71,0,0,1,1.68,4c.36,1.65,1.74.35,3.31.93s7.19-.12,5.76-6.34S110.89,154.53,110.89,154.53Z" fill="#fff"/><path d="M116.16,152.6a4.48,4.48,0,0,0,2.4,1.84c1.67.31,2.31-1.92,3.31.45,0-.93.54-1.87,0-3.21a6.94,6.94,0,0,0-2.13-3,6,6,0,0,0-6.7,0c-5,3.18-2.19,5.82-2.19,5.82S112.78,156,116.16,152.6Z" fill="#0062ba"/><path d="M99.19,192.82l7.28-22.16c1.31-1.44,3.69-2.47,3.75-5.08a6,6,0,0,0-1.48.25c-.28.08-.91.88-1.25.87s-.3-1.19-.73-1.26c-1.5-.24-3.4.5-3.54,1.6a3.86,3.86,0,0,0,1.62,3.62L97.6,192.72a33,33,0,0,0-3.55-.06c-.82,2-.83,5.05-.07,9.37,0,0,3.69-1.25,5.51.75,0,0,1.92-1.67,3.24-5.83C104.16,192.42,99.19,192.82,99.19,192.82Z" fill="#6a6a6a"/><path d="M247,175.69a7.38,7.38,0,0,1,3.42.55L248.81,165l-3.17,1.19Z" fill="#fff"/><path d="M270.89,184.09s-12.24-10.37-14.6-12.52-2.62-.94-6.39.63-5.13.9-3.35-1,2.3-4.64-.31-1-3.93,5.66-5.66,5.29c-1.22-.26-.57-4.71-.07-7.33a6.31,6.31,0,0,1,1.81-3.41,12.52,12.52,0,0,1,6.76-2.83,12,12,0,0,1,6.35,1.16c7.06,3.05,15.25,9,15.25,9" fill="#422d62"/><path d="M73.8,302.46h-.05a2,2,0,0,1-1.95-2L73,252.21a2,2,0,0,1,2-2H75a2,2,0,0,1,1.95,2l-1.2,48.19A2,2,0,0,1,73.8,302.46Z" fill="#0062ba"/><path d="M129.12,296.07a5.52,5.52,0,0,1-2.73-.72c-6.78-3.81-13.17-13.49-13.44-13.9a2,2,0,0,1,3.35-2.19c.06.09,6.13,9.28,12.06,12.61a1.65,1.65,0,0,0,1.45.09c3.53-1.18,8.2-9.23,10.31-14a2,2,0,0,1,3.66,1.61c-.63,1.44-6.36,14.09-12.7,16.21A6.12,6.12,0,0,1,129.12,296.07Z" fill="#0062ba"/><path d="M169.4,248l-48.87-7.62s-70.68-2.84-75.4-3.11-5,2.4,1.78,4.11,15.38,13.78,24,22.33S93.15,280.2,93.15,280.2l26.5,6.67,2.23-3,26.28-3.9,11.74-9,7.25-14.54Z" fill="#eee"/><path d="M91.92,249.22l28.6,36.48s21.25-4.08,29-6.1,10.25-6.78,11.63-12.71,4.38-12.77,6.5-15c0,0-29.12-.89-47.87-1.27S91.92,249.22,91.92,249.22Z" fill="#6a6a6a"/><circle cx="83.04" cy="304.42" r="23.36" fill="#6a6a6a"/><circle cx="85.39" cy="304.42" r="15.22" fill="#422d62"/><path d="M154.38,313.43c-6.87,0-15.91-7.48-25.39-15.32-2.73-2.25-5.3-4.38-7.71-6.23-3.95-3-7-4.19-9.62-3.7-3.56.67-7.26,4.56-12.38,13-5.23,8.64-11.5,12.79-16.77,11.09-3.7-1.19-5.75-5.08-5.36-10.15.63-8.12,12.31-53.33,12.31-53.33l4.93.64s-11.78,46.93-12.26,53.08c-.21,2.64.52,4.56,1.9,5,2.23.72,6.63-1.76,11-8.92,5.08-8.38,9.69-14.19,15.72-15.33,4.11-.78,8.42.7,13.58,4.64,2.49,1.9,5.1,4.06,7.86,6.35,7.85,6.5,19.72,16.31,23.76,13.76s3.72-15.36,3.37-24.64c-.21-5.67-.39-10.57.26-13.82l.11-.56c1.43-7.19,4.1-20.56,20.31-30.21,14.16-8.43,23.36-10.6,28.85-11.9.75-.18,3.91-.85,4.53-1a2.5,2.5,0,1,1,1.24,4.84c-.66.17-3.85.84-4.63,1-5.55,1.31-13.94,3.29-27.44,11.33-14.3,8.51-16.59,20-18,26.89l-.11.57c-.54,2.66-.36,7.51-.17,12.64.43,11.66.92,24.87-5.7,29.05A7.75,7.75,0,0,1,154.38,313.43Z" fill="#0062ba"/><path d="M133.17,242.71l-2.3-3.27L146,228.81A29.79,29.79,0,0,1,162.25,223a2,2,0,1,1,.31,4,25.81,25.81,0,0,0-14.25,5.14Z" fill="#0062ba"/><path d="M53.94,239.4c-3.93-1-9.68-1.59,3.49-6.38A15.1,15.1,0,0,1,67.79,225c7.57-1.57,12.33,7.61,12.33,7.61s2.14-7.4,9.39-7.79c0,0,4.77-7.51,10.32-4.87s7.19,8.93,7.19,8.93,11.89-5.16,14.16-4.66-.48,2.72,0,3.49c.94,1.49,6.41.57,4.7-3.13s-.57-5.69,1.85-1.42a27.41,27.41,0,0,1,3,9.11s.93-10,5.62-8.47-1.07,10.11-1.07,10.11,7.36-5.58,11.87-3.39,2.58,8.52,7.35,9.59,4.2-4,6.55-3.84.07,5.84-3.56,6.12a23.38,23.38,0,0,0,5.84-1.24c2.78-1,2.55,1.31-1.6,3.35,0,0,6.95,3.72-1.24,3.72s-29.54,1.14-72.53-2.21C88,245.94,58,240.48,53.94,239.4Z" fill="#0062ba"/><path d="M64.33,234.2s4.15-8.91,9.18-5c2.62,2,2.51,4.42,4,7.76s13.65-2.28,17.21,1.5,6.62-3,10.18,1.23,12.67-3.22,14.3-6.21,4.55-5.41,6.83-2.91-7.54,9.89-14.09,11.17.18,2.45,6.48-.67c3.83-1.89,6.79-5.17,8-3.46s-5.39,8.82-19.62,7.83-23.92-2-32.5-4.06C70.26,240.42,70.45,235.84,64.33,234.2Z" fill="#422d62"/><path d="M89.52,224.77s-4.27,1.89-5.2,5.94-1.07,6.33,3.56,5.05,7.24.5,8.54-1.49-1.64-3.42-1.64-3.42,6.07-.57,6.74-3.34S96.78,226,96.78,226a5.58,5.58,0,0,1,5.08-4.89,6.08,6.08,0,0,0-6.56-1.52C90.37,221.13,89.52,224.77,89.52,224.77Z" fill="#422d62"/><path d="M100.2,236.12c-.88-1.35,5.7-10.17,11.47-7.46,2.24,1.05.34,3.67.34,3.67s3.53-2.12,3.83.37S102,239,100.2,236.12Z" fill="#422d62"/><path d="M121.78,245.54c-.58-.29,1.53-1.37,3.47-3a17.82,17.82,0,0,1,7.33-3.49c7.7-2.53,11.67-13,17.86-8.68s2.92,13.45-8,14.16-8.22-3-11.74-3.06S124.38,246.82,121.78,245.54Z" fill="#422d62"/><path d="M74.15,230c.71-1.68,4.06.35,3.5,4.1s2.38,1.8,3.56,2.31c2.6,1.13,2.35,4,5.12,4.63,1.94.44,4.5-1,4.5-1a4.35,4.35,0,0,1-5,3.42c-4.22-.63-3-4.59-5.47-5.26s-1.84,4.15-6.08,3.15S71.34,236.67,74.15,230Z" fill="#ff3853"/><path d="M92.83,239.21c-.7.39-1.2,4.21,1.82,4.36,3.81.18,4.93-5.33,7.75-5.32,0,0-2.34-.22-5.75,2.39S94.32,238.39,92.83,239.21Z" fill="#ff3853"/><path d="M111.67,235.58s-5.69,1.94-4.29,3.62S111.67,235.58,111.67,235.58Z" fill="#ff3853"/><path d="M95.3,219.6s6.75-2.28,9.86,1.81a5.29,5.29,0,0,1,1,5.11,16.81,16.81,0,0,1,5.53-2.63c3.29-.87,4.61.44,4.61.44s3.71-2.08,4.31.63-7.22,5.33-8.09,4.39c-.48-.51-3.36-2.62-7.9.59,0,0-2.93,1.77-5.51,1.21,0,0,6-.87,5.31-6.11C103.73,220,95.3,219.6,95.3,219.6Z" fill="#ff3853"/><path d="M135.77,223.61c-2.94-.12.64,3.84-1.15,7.15-1.35,2.5-1.61,3.9-.41,4.13,3.27.64,5.61-3.49,8.34-4.65A8.08,8.08,0,0,0,135.8,233S142.64,223.89,135.77,223.61Z" fill="#ff3853"/><path d="M121.68,230.44s-.09-3.74,3.1-4.05,2.11-2.8,3.56-2.53c2.14.41,2.11,10.2-3.6,10.55,0,0,2.51-2.48.87-4.16S121.68,230.44,121.68,230.44Z" fill="#ff3853"/><path d="M89.71,229.76c-.67-.55-1.45.94-5.62,2.05a5.64,5.64,0,0,0-4,4.59c1.74-.32,3.76,1.24,6.44-1.07S90.61,230.49,89.71,229.76Z" fill="#6a6a6a"/><path d="M95.41,223.88c-1.26-.48-3,3.37-1.14,3.78S97.55,224.69,95.41,223.88Z" fill="#6a6a6a"/><path d="M102.84,225.51c-2.09-1.08-2.63,2.95-1.31,3.31S104.77,226.51,102.84,225.51Z" fill="#6a6a6a"/><path d="M114.46,235.58c-1.47-.15,2.82-6.39,4.75-5.53S116.66,235.8,114.46,235.58Z" fill="#6a6a6a"/><path d="M137.12,236.51s-4.45-1.69-7.88-.17.66,3.77,4.26,2.32A9.42,9.42,0,0,0,137.12,236.51Z" fill="#6a6a6a"/><path d="M145.84,232.33s1.84,6.2-1.06,7.63c-1.94,1-3.09-2.72-1.44-5A15.64,15.64,0,0,1,145.84,232.33Z" fill="#ff3853"/><path d="M149,245.54c-1.07-.94,6-3.88,6.81-2.52S150,246.49,149,245.54Z" fill="#6a6a6a"/><path d="M103.09,232c1.39.05,1.15,3.87-.85,3.56S101.4,232,103.09,232Z" fill="#6a6a6a"/><path d="M96.49,237.42c-1.59-.54-2.47,2.16-1.19,2.68S98.34,238.05,96.49,237.42Z" fill="#422d62"/><path d="M71,234c-2.16-2.43-8.36,3.86-8.36,3.86S74.83,238.39,71,234Z" fill="#6a6a6a"/><path d="M71.78,227.1c-1.94-.14-2.8,3.11-.28,3.29S73.72,227.24,71.78,227.1Z" fill="#6a6a6a"/><path d="M120.15,351.4c.84-6.22,8.69-6.53,2.52-11.11-2.94-2.18-4.77-4.35-3.35-6.4,1.17-1.68,4-1.62,6.76,2.84,2.5,4.06,3.44,1.42,2.63-1.93a20.16,20.16,0,0,0-5.23-10.15c-3.3-3.4.66-4.87,4-.41,3.79,5.14,3.91,8.43,3.91,8.43a31.85,31.85,0,0,0-.3-10.56,2.2,2.2,0,0,1-2-1c-.61-1.11,1.35-1.75.13-2.83s-3.32-3.6-1.65-5S131,314.6,131,314.6s0-2.14,1.32-2.9,2.8,1.11,2.26,3.61.82.72,2.08,1.24.89,2.4-1.2,3.58-1.73,5.21-.81,6.07c2.66,2.5,4.52-4.08,4.45-7.52-.1-5.33,2.46-6.64,4-5.4.81.67,1.08,2.39,1.82,2.19s-.3-4.69,3.37-8.57a29.66,29.66,0,0,0,5.23-7.32s2.53,5.83,0,10.69-9.31,9.78-11.2,14.84,3,5.43,5.8-1,5.46-5.63,7.45-8.43,4.79-5.7,6.75-6.61,1.79,1.21-.64,3.91-2,7-2,7,2.72-2.18,2.93-3.64c.34-2.29,2.63-5.06,5.56-3.57,3.34,1.69,2.39,5.46-.71,6.71s-4.52.47-7.32,3.47-2,7.69.54,7.79,2.45-3.91,5.67-6.27a8.36,8.36,0,0,1,6.21-1.82s1.18-8.13-1-10.19-3.47-4.42-2-7.55,4.77-3.46,5.63-2.93c1.38.84-.24,2.8-.24,2.8s2.73-1.11,3.1,1.25-2.9,2.77-2.9,2.77,2.53-.07,2.16,1.92-2.33.78-2,2.53-1.65,7.32.17,7.32,1.4-3.39,1.62-5.13c.3-2.36,2.93-2.9,3.64-4.38s-.47-4.65,1.72-7,4.32-2.63,5.83-4.59,1.88.26,2.07,1.83c.36,2.9.45,4.41-1.9,6.23-3.22,2.49-1.48,4.08-2.39,8.13s-2.18,3.59-4,5.68-.21,3.15-2.44,5.75-2.52,3.88-1.85,4.72c2.43,3.07,6.61-3.27,6.1-6.71s5.72-3.64,5.5-8.3a18.2,18.2,0,0,1,4.22-12.11,53.4,53.4,0,0,0,.27,7.55c.78,3.91-1.69,7.69-1.69,7.69s3.41-.74,3.88-5.6,1.27-6.92,2.63-6.51c2.62.8,2,11.06,6.35,8.45a4.19,4.19,0,0,0,1.54-1.91c.14-.3.44-.8.33-1.12s-.71-.66-.92-1a4.24,4.24,0,0,1-.55-1.23,8.94,8.94,0,0,1-.34-3.23.21.21,0,0,1,.07-.17c.06,0,.14,0,.21,0a2,2,0,0,1,1,.82c.09.19.11.4.19.59s.44.55.57.87.08.73.22,1.07c.06.15.24.3.36.2a.3.3,0,0,0,.09-.16,22.18,22.18,0,0,1,.91-2.5c.26-.59,2-3.94,2.81-3.45.55.36-.52,1.73-.7,2.11a15.19,15.19,0,0,0-1,2.66c-.48,1.83-.71,5.48-.4,5.62s3.14-.62,5.67-4.91a8.18,8.18,0,0,1,1.45-2.07c.69-.67.78,0,.36,1a11,11,0,0,0-.93,4,2,2,0,0,0,.83,1.78,2.15,2.15,0,0,0,1.19.27c1.19,0,2.34-.61,3.52-.48.59.06,1.15.3,1.75.33s1.54-.19,2,.34a1.58,1.58,0,0,1,0,1.62,10.08,10.08,0,0,1-1.17,2,3.15,3.15,0,0,0-.72,1.3c-.23,1.38,2.13,1.88,3.09,1.79,2.61-.25,5.23.17,6.78,2.56,1.2,1.85-.29,4.15-2.8,3.2s-4.65-1.79-7.28-.24-6.85-1.72-8.16-3.91-4.55,1.11-6.51,4.18-1.15-.07-1.72-3-2-4-2.87.37-1.65,7.18-3,7.12,0-4.22-2.16-5-3.54,4.2-4.28,6.24c-1.4,3.87-6.65,6.11-11.4,5.71s-21.59-6.91-34.06,10.16C132,353.32,119.56,355.75,120.15,351.4Z" fill="#422d62"/><path d="M78-5.67C72.1-39.26,85.37-63.38,100.81-90q1-1.74,2-3.51c13-22.77,24.86-47.21,20-79.59h-4.7c-8.9-20.53-35.81-11-56,0H25.77c-.38-.92-.78-1.84-1.21-2.78a63.68,63.68,0,0,0-8.28,2.78H-578V174s-42,77.73,4,108.55c40,26.8,164.68,5.33,213.2,27.62,39.8,18.29,78.41,19.87,119.53-3,38-4.32,67.18-20.84,87-46,18.09-23,36.79-29.68,57.5-26.38,15.93,2.54,26.89-6.16,32.25-11.93,10.25-11,28.53-25.17,41.5-29.55C17.4,179.58,25.46,154,22.45,130.53,81.93,102.29,85.4,36.91,78-5.67Z" fill="#422d62"/></g></g></svg>