<svg id="Layer_3" data-name="Layer 3" xmlns="http://www.w3.org/2000/svg" xmlns:xlink="http://www.w3.org/1999/xlink" viewBox="0 0 304.74 304.74"><defs><clipPath id="clip-path"><circle cx="152.37" cy="152.37" r="152.37" fill="none"/></clipPath></defs><title>Artboard 1</title><g clip-path="url(#clip-path)"><rect x="-710.83" y="107.12" width="1032.92" height="236.48" fill="#00aff9"/><polygon points="-710.31 107.13 -649.66 107.13 -642.2 103.36 -612.19 99.33 -587.16 107.13 321.56 107.13 321.56 -185.16 -707.81 -185.16 -710.31 107.13" fill="#c0efff"/><path d="M150.34,253.4a138,138,0,0,1,26.9,1c13.05,2,21.05,1.34,18.8-7.63s-25.89-7.71-38.73.27S150.34,253.4,150.34,253.4Z" fill="#0062bd"/><path d="M205.47,265.91s11.9.31,18.41-10.63,5.89-10.91,11.31-14c7.42-4.18,37.8,12.3,37.8,12.3l56.24-5.73-.86,17.45s-11.53,0-30.42,4.55c-6.37,1.54-15.47,4.24-26,5.29C252.77,277.09,228.59,275.57,205.47,265.91Z" fill="#0062bd"/><path d="M69.92,304.87s-16.41-9.12-.2-20.29c23.47-16.17,60-35.08,98.43-30.76,30.71,3.46,30.93,15.11,67,19.89,56.56,7.49,56.93-9.52,99.93-8.34l-12.05,40.24Z" fill="#c0efff"/><path d="M235,241.43c9.38-5.73,20.68-14.63,32.82-40.64S304.3,164.29,325.92,171l1.86,74.09L248.72,250Z" fill="#c0efff"/><path d="M229.21,201.76c-6.55-6.63-19-9.64-19-9.64l-42.83,2.15-189.78.43V171.23A150.79,150.79,0,0,0,3.23,152.31c18.91-17.76,47.55-31.08,78.06-27.5s89.95,1.13,89.95,1.13l25.64-7.86,77.26,30.65,69.12-24.78-3.58,71.33Z" fill="#c0efff"/><path d="M-11.24,237.67s-11.17,23.05-67,18.19c-23.79-2.07-47.28,4-64.88,2.94-26.06-1.5-34.94-7.77-40.41-12.88h0c-11.58-13.7,13.9-18.95,26.23-16.6,12,2.3,18.51,2,30.15-4.56,14.52-8.17,20.8-2.32,30-10.28,10.55-9.15,24.79-4.74,24.79-4.74s3.82-3.19,6.5-1.25a24,24,0,0,0-5.69-3.74c-11.92-6.27-24.44.87-29.72,4.47-2.65,1.81-8,2.79-15.61,4-15.18,2.45-18,11.44-34.09,7.53-17.42-4.25-27.47-1.52-51,5.29s-88.37,25.45-113.74,25.43c-30.05,0-46.83-9.81-49-23.91-3.5-22.89,55.59-30.27,92.68-26,13.89,1.6,40.53,6.62,63.16,5.71,26-1,61.28-11.41,69.61-17,19.48-13.18,94,3.44,94,3.44L8.53,155s-5.58.85-14.47-1.19c-3.17-.72-5.73-6.7-10.1-6.26-21.83,2.17-56.32-4-70.38-4-22.2,0-71,15-121,24.87-71.35,14.06-123.14,2.37-124.51-14.88-.95-11.9,25.84-21.59-21.49-26.33-34.91-3.49-74.12-.72-105.67,1.79-37.92,3-86.46,13.61-135,3.32-2.63,9.72-23.36,6.06-40.4,4.64-12.2-1-47.72-1.36-57.3-2.07-10.31,4.91-12.44,3.4-15.11,3.73-8,1-129.85,4.39-12.35,23.86s252.79-21.14,305.5-14.85c39.62,4.73,62,19.43,55.57,34.32-25.5,59.26-296.78,19.64-346.07,5.11-45.93-13.54-22.81,54.16-22.81,54.16s-9.12,39.92,16.76,24.69C-669.74,242-599.5,230-524.24,245.52c44.09,9.07,111.34,35.28,141,53.91,46.88,29.46,108.84,2,118-4.69,13.06-9.46,29.79-21.88,68.65-26.56,49.34-5.95,91.38,16.48,148.67,21,28.79,2.3,30.3-17.09,43.11-19.19,53.83-8.79,61.6-9.26,84.41-17.19V235.78Z" fill="#c0efff"/><path d="M271.38-66.19C264.82-36.92,302,25.79,282,43c-10,8.58-17.65-11.18-36.43-11.18-20.07,0-31.24,8.69-38.34,18.89-12.85,18.45-23.91,20.89-37.46,16.4C153.22,61.61,152.37,36.31,121,35c-14.83-.62-27,9.19-27,9.19S90.26,14.37,55.38,12.12c-11.32-.73,31.45-48.59,22.37-49.64C53.42-40.34,1.88-56.67-30.74-48.19c-33.07,8.6-47.09,42.06-51.5,45-10,6.67-11.23-9.93-35-12.12-16.25-1.5-30,3.75-38.5,6.25s-15.62-8.24-23.37-15.12c-19-16.87-55.75-22.75-83.75-1.25s-20.67,15.21-47.62,6c-30-10.25-68.87-7.37-91.5,24.12,0,0-6.21-24.3-32.6-43.7C-460-57.66-490-51.44-517.24-43.44s-49-1.75-69-11.75-46-20.25-76-12-51-2-51-2l6,92.67c28.67,0,279.49-15.66,330.49,26.68s40.17,57,75.17,57h133.83s11.84-19.33,38.17-18,53.68-.33,61.68-12.67S-77.36,44,2.19,40.53c45.28-2,91.46-2,112.79,25.29s31.84,35.61,75.68,12.65c45-23.57,70.73-14.31,142.85-14.31L321.63-106.53S281.25-110.23,271.38-66.19Zm-85.92,99a25.28,25.28,0,0,0-10-2.36c-5.84-.2-13.6,6.68-6.92-.39s15.27-2.8,15.27-2.8C189.92,18.11,196.6,26,196.6,26,189.24,25.72,185.46,32.79,185.46,32.79Z" fill="#fff"/><path d="M72.82,72.87c-1.55.62-5.48.09-8.27-1.46-4.07-2.25-12.11.88-12.78,0s4-4.11,6.85-4.55,7.74,1.24,7.74,1.24,1.19-5.75,13.4-2.3c0,0-6.9,1.64-8.31,3.76S72.82,72.87,72.82,72.87Z" fill="#fff"/><path d="M247.37,245.11c-5.53,4.94-12,4.2-12.18,8.17s10.21,7.09,20.63,2.47S269.35,254,272,259.19s14.18,1.18,22.34-3.33,28.68-2.92,28.68-2.92V239.21a37.07,37.07,0,0,1-5.69-4.4c-3.33-3.17-8.38-4.83-12.57,0,0,0-2-3.47-3.65-5.91-3-4.46-7.3-5.91-10.53,0a6.42,6.42,0,0,0-2.31-3.44c-1.78-1.08-4.64-.64-6.07,3.44-.89,2.56-.89,4.1-2,4.08s-.47-3.56-1.79-4.84-4.2-.54-7.5,5.38c-4.19,7.52-13.8,10.07-11.28,4,2.69-6.5,10-18.91,8.33-19.93s-5,5.8-8.7,12.14S251.38,241.53,247.37,245.11Z" fill="#422d62"/><path d="M263.06,237.71c-1.56,0,.27-3.39,3.12-9.46a62.82,62.82,0,0,1,6.28-10.53s1.07-11.06,3-11.17-.75,8.59.27,8.75,3.27-3.92,3.81-5.64c.9-2.85,2-7.52,4.24-7.52,1.4,0-1.72,6.45-2,8.06s3-2.52,4-1.88c.68.45-6.88,6.12-10.47,10.69a60.55,60.55,0,0,0-7.52,11.87C265.64,235.29,264.57,237.71,263.06,237.71Z" fill="#422d62"/><path d="M276.06,222.77c-1.18-1-6.93,7.9-6.39,8.33S277.83,224.22,276.06,222.77Z" fill="#422d62"/><path d="M278.8,223c-1.44,0,.54-7.41,2.26-7.41S280.68,223,278.8,223Z" fill="#422d62"/><path d="M182,217.46c-4.73.16-12.42,2-16.76,6.89-6,6.78-17.28,9.78-27.64,6.77-6.17-1.79-11.74,5.55-14.18-1,0,0-2.72,6.16-13.61,8.59A182.57,182.57,0,0,1,90.31,242s8.24-.72,8.45,3.72c.14,2.8-6.71,5.4-19.14,7.16-12.61,1.79-28.05.71-30.13-1.72-5-5.87,20.77-9.45,20.77-9.45s-8-2.43-25.78,3.58-38.1,7.16-55.72-7.59-17-13.32-17-13.32-4.33,6.37-12.93.47c0,0-7.2,5-13.75-1.18,0,0-3-1.4-7.3.86s-7.73.21-10.31-2.58-10.48-1.73-16,.21c-7.63,2.69-10.93-4.81-1.72-5.37,8.81-.54,9.24-1.29,12.57-3.12s8.16-7.73,11.82-5.16c0,0,.64-18.48,20.95-24,0,0-1.4-4.19,3.65-4.4s.86-2,2.26-5,5.91-4.73,7.95-.75c0,0,1.72-4.3,5.59-4.3s4.51,4,4.51,4,3-1,2.9,1.5-3.12,4-3.12,4,3.87-1.61,4,2.36c0,0,4.4-1.07,5.26,3.33a7,7,0,0,1-1.18,5.37s3.65-4.94,6.45-.64c0,0,3.44-4.73,6.77.21,0,0,2-5.8,6.23-.43,0,0,.11-6,5.16-2.26,0,0,4.94-5.59,11.17-2.36s7.63-1.61,9.45-4.83,5-6.45,11-4.3c0,0,1.47-9.67,15.87-4.51s33.84-5.37,41.36-4.73a13.81,13.81,0,0,1,11,7.09s8.38-2.9,13.54,3.12,8.27,7.2,15,3.33l1.61,3.54,4.3-3.44,4.83,7.3s4.68,3.13,11.28-1.94c5.59-4.3,9.13-2,10.53,3,.61,2.2,4.16,2.42,6.34-1.18,2.79-4.62,8.81.54,8.81.54s-3.58-12.78-4.65-15.15-18.41-1.43-18.41-1.43a10.4,10.4,0,0,0-.14-5.16c-.36-.93-2.15-.36-2.15-.36a16,16,0,0,1,6.88-3.8c13.11-3.94,15.4-10.31,17.69-7.95,0,0,4.51-2.55,7.59.24,0,0,7.52-4,13.83,3.55s11,15.25,9.38,23.42a20.53,20.53,0,0,1,6.37,15.11c-.21,9.45-1.93,3.15-3.15,3.15s-11.55,2.34-13.89,2.86c-4.34,1-7.95,0-9-12.65,0,0-1.26-1.3-4.7,2.13-.64.64-2,1.27-2.8,2.5-3.55,5.41-8.1,15.23-8,17.78A28.29,28.29,0,0,1,182,217.46Z" fill="#422d62"/><path d="M104.65,119.5s-4.12-2.94-1.76-2.07,1.14-3,3.51-6.95a8.51,8.51,0,0,1,7.72-4.1c3.23,0,5.45,1.13,7.79,3.71a10.83,10.83,0,0,1,2.19,4.46s9-4,11.92-7.23,4.65-6.37,8.59-5.51,3.58,7.09,5.66,7.45,6.2-2.73,9.45-.14c2.43,1.93,1.15,4.37,3.15,4.65s7.38-3.22,13.61,4.73c0,0,25.09-24.92,72.72-24.92H335.9V143s-34.7-7.2-60.91,15.58a59.1,59.1,0,0,0-13.11-6c-8.42-2.63-19-4-24.71-6.45-10.74-4.51-24.22-19.34-42.86-21.05-10.53-1-17.51,2.9-17.51,2.9s-3.9,5.75-8.92,5.66c-3.72-.07-1.72,2.74-9.67,2.58-3.44-.07-1.28,2.66-2.43,4.74s-4.87,1.06-4.87,1.06,1.58,3.37-2.65,4.65S119,141.13,119,141.13l-9.1-13.68Z" fill="#422d62"/><path d="M264.62,85.36l3.17-5c1.5-2.36,1.5-2.27-7.36-2.27H240.9a2.44,2.44,0,0,0-1.76.75l-6.33,6.62Z" fill="#422d62"/><path d="M51,306.56S44,288.87,59.18,294c0,0,4.4-10.23,15-12.47,10.21-2.14,20,7.27,20,7.27a46.53,46.53,0,0,0-13.11-14.29C72,267.89,70.62,260.48,72.6,259S82.86,272.51,84.8,272.3,74.16,257.45,81,254.89s7.63,9.67,8.92,13.43a35.32,35.32,0,0,0,4.3,7.84s-4.55-16.9,3.54-17.62c4.83-.43,4.3,7.63,4.3,7.63s1-6.66,6.34-7.41c0,0-7.18-18.68,5.91-18.8,12.25-.11-2,30.23-7.41,37.71-3.65,5,.29,8.36,3.65,1.5,2.9-5.91,7.26-2.48,7.26-2.48s-3.83-10.62,4.34-12,10.42,10.21,10.42,10.21,4.51-4.51,3.87-8.81c0,0-4.08,4.08-6.88-3s-1.72-19,1.72-19.77,5.22,17.51,5.22,17.51,3.16-18.37,8.64-18.69-3.76,19.87-3,20.2,5.29-6.57,7.12-9.57-.56,10.43-.56,10.43,3.22-10.42,8.38-9,0,12.35,0,12.35,5.48-13.11,11.06-12.68-1.61,16.76-1.61,16.76,8-15.09,13.21-11.71c4,2.61-4.4,8.06-8.16,22,0,0-.63-3.18,1.44-9.83.95-3,2.43-4.9,1.51-5.32-1.77-.82-6.49,5.37-8.86,11.71-5,13.37-20.41,16.82-20.41,29.11Z" fill="#422d62"/><path d="M93.66,288.31s-17.58-3.82-21.51-5-5.46-5-2.6-7.6c1.18-1.1,3.48-1.61,8.1.32C85.42,279.31,93.66,288.31,93.66,288.31Z" fill="#422d62"/><path d="M104.19,252c-2.13-.32-2.47,4.14-1.34,8.16C102.84,260.21,107.41,252.53,104.19,252Z" fill="#422d62"/><path d="M149.63,252.34c.8.35,7.57-5.39,3.6-7.64S148,251.65,149.63,252.34Z" fill="#422d62"/><path d="M191.5,234.66c.07,7.23,2,10.74-5.51,10.31s-11.17.36-13.6,0c-2.27-.35-5.16-3.85,1.79-5.86s7.66-4.44,7.66-4.44Z" fill="#422d62"/><path d="M230.32,254.36l-8.67,4s1.3,4.25-4.52,11.71c0,0,1.57.51,5.26,1.37,3,.68,4.7,1,4.7,1a39.75,39.75,0,0,0,2.87-5.31C231.26,264.36,233,263,230.32,254.36Z" fill="#422d62"/><path d="M285.8,153.43c-6.5,3.79-7.31-4-5.76-7.9.85-2.15-2.7-3.83-1.56-7,.46-1.3,1.82-2.51,5.21-1.83,0,0-2.25-4,1.21-5.36s5.18,2.78,5.18,2.78-1.45-4.91,2.15-5.87c2.7-.72,4.24,2,4.24,2s1.19-3.49,4.51-2.57c2.63.73,3.17,4.62,3.17,4.62s.06-5.07,3.76-4.36c2.64.51,2.1,4.63,2.1,4.63a9.22,9.22,0,0,1,7.84-3.75c5.38,0,13.41,8.26,13.41,8.26L328.92,142A84.2,84.2,0,0,0,285.8,153.43Z" fill="#c0efff"/><path d="M241.23,147.63c-8.26-3.13-12.36-6.1-20.66-12.06s-27.06-16.27-43.71-7.75a14.71,14.71,0,0,1-5.51,4.87c-3.69,1.87-4.42-.53-6.85,2.24s-7.28.12-8,2c0,0,5.11,5.51,32.81.17,19.43-3.75,32.35,3.08,39.29,5.91S241.23,147.63,241.23,147.63Z" fill="#c0efff"/><path d="M232.81,85.48l-1,9.25a157.7,157.7,0,0,1,16.76-.93c10.55,0,16.17-.22,16.17-.22l-.13-8.21Z" fill="#ff3853"/><path d="M276.44,73.89s-4.8,6.95-6.23,9.1a5.51,5.51,0,0,0-.81,2.93c0,2.42,0,5.55.05,7.66,3.36,0,35.92.22,35.92.22V83.48Z" fill="#ff3853"/><path d="M103.86,171c.85-3.19,2.58,8.37,1.72,10.41S102,178,103.86,171Z" fill="#0062bd"/><path d="M145.28,306.56s-3.51-12.22,4-14.18c7.16-1.86,4,10.92,10,9.92,4.48-.75-11.39-23.58-6-28.2,2.86-2.47,4.44,9.31,8.16,9.45s-2.09-11.77,1.86-12.1c2.39-.2,3.86,3.87,5.64,10.92,1.24,4.91,3,5.12,4.24,1.18,1.31-4.16,2.2-6.19,6.79-12.23,4-5.27,8-6.37,9.36-4.07,1.72,2.88.35,10.15,1.38,10.23s1-4.49,2.33-8.87,4-8.72,8.77-7.81c3.81.73,5.51,5.4,4.68,10a45.54,45.54,0,0,1-2.89,9.2s5.73-12.53,9.74-9.67-3.66,13.82-3.66,13.82,10.21-10.83,14.19-5.51c2.31,3.08-3.28,8.56-8.63,14a64.52,64.52,0,0,0-13.51,19.78Z" fill="#0062bd"/><path d="M54.81,222c-1.63-1.15-4.1-1.77-7.91-.07-2.17,1-1.57-4.19-5.94-4.12s-9,3.58-11.53,5.87-5-1.39-11.67-3c-4.12-1-7.66.11-8.09-3.76S8,212,2.08,210.89s-4-4.46-1.58-9.12c1.72-3.34-7.84-1.62-7.39-3.44,1.38-5.62,7.16-5.61,10.83-6.54,4.3-1.09,6.22-2.55,7.3-5,1.93-4.44,3.5-3,4.31-3s.63-1.1,1.22-2c1.55-2.41,4.25-.89,3.55,3.46-.52,3.19-1.65,7.91-3.5,8.59-2.72,1,.79-7-.07-7.3s-6.92,5.84-8.59,13.25c-.86,3.8-.52,8.77,1.08,9.25,1.43.43-.08-2,1.5-9.39,1.22-5.72,3.37-7.52,3.37-7.52a15,15,0,0,0,.86,7.16c1.43,3.51-.43,6.88,1,7.66s1.43-4.8,4.94-5.11,4.87,4.18,4.87,4.18-1.86-8.88-.5-14.9.57,4.8,1.15,8.31,2.07-12.14,5.51-11.24c1.93.5-2.43,6.16-2.94,11.32-.33,3.35.78-1.47,2.57-4.44,2.14-3.55,4-1.48,1,2.94a16.92,16.92,0,0,0-2.22,5.59s3.38.85,2.72,5.08a6,6,0,0,1,3.18-1.46,9.85,9.85,0,0,1-.15-2.09c.17-4,4-3.29,3.26.19a8.17,8.17,0,0,1-.82,2.23,4.24,4.24,0,0,1,2.9,3.28A19.37,19.37,0,0,1,51,213.68c4.15,2.86,5.73,5.09,6.37,7.52C58.08,223.92,56.1,222.93,54.81,222Z" fill="#0062bd"/><path d="M18.21,196.41c.57-2.15,2.7-5.29,4.35-8.44,1.3-2.49.57,3.35-.21,6.57a12.44,12.44,0,0,1-3.87,6.75C16.94,202.66,17.52,199,18.21,196.41Z" fill="#0062bd"/><path d="M35.54,185.66c-1.45-.05-2.2,2.69-.81,2.79S37,185.71,35.54,185.66Z" fill="#0062bd"/><path d="M38.07,189.9c-2-.22-2.84,3.71-.86,3.76C38.55,193.69,39.52,190.06,38.07,189.9Z" fill="#0062bd"/><path d="M36.62,195.54c.37-1.69-5.53,5.3-2.62,9.2C35.38,206.61,36.4,196.52,36.62,195.54Z" fill="#0062bd"/><path d="M43,205.26c-.79.18-1.25,3.81,1.07,4.08C47.25,209.72,44.84,204.83,43,205.26Z" fill="#0062bd"/><path d="M3,151c-1.32.93,1.36,5.25,3.4,3.94C7.78,154.06,4.3,150.09,3,151Z" fill="#0062bd"/><path d="M58.87,134.22c-5,.47-7.48,2.29-9.1,4.4-.91,1.19-4,1.5-7.23,1.25a6.28,6.28,0,0,0-5.73,2.61c-1,1.11-2.72-.21-5,0s-3.51,3.08-4.8,3.12-.77-4.39-1.68-4.55c-1.43-.25-.68,5.76-1.72,6.88s-1.4-.82-1-3.12.29-3.54-.72-3.94-2.29,7.13-3.12,7-.75-3.62.61-7.23c1.06-2.82-.68-4.23-2-2.29s-2.54,12.21-2.54,12.21-1.75-7.63-1.22-9.06,2.26-1.11,1.11-4.65S13.25,139,13.25,139s-.72-.93-1.47-.43c-.32.21-.43,2.36.61,4.58,1.4,3,.45,7.6-.14,10.49-1,5,.79-11.06-2-13s-.39,4.44-.39,4.44-2-.43-1.58,2.83a1.4,1.4,0,0,0,2.16,1.22L10.5,154s-3.29-2.33-3.87-9.74-4-3.12-1.47.5a2.39,2.39,0,0,0-1.29,3c.68,2.26,2.27,1.91,2.27,1.91s.52,2.73,2.17,3.69c0,0-2.26,3.64,1.93,4.11a44.19,44.19,0,0,0,6.8,9s-1.54-10.38,1.58-10.63,2.58,11.49,2.58,11.49.89-10,8.15-13.38c3.15-1.47,2.59-.51-.12,3.15a11.87,11.87,0,0,0-2.41,5.43s4.33-7.09,5.44-6.41-2.15,4-4,7.59-3.94,10.71-2.51,10.71c1.22,0,.54-2.76,2.36-6.95a29.86,29.86,0,0,1,4.48-7.16,4.92,4.92,0,0,1,1-3.29c1.15-1.11.14-3.37,1.4-3.83s.9,2.94-.21,4.65L36.6,156a2.48,2.48,0,0,1,.29-2.43c.86-1.43,1.58-3,2.11-2.94s-.39,2.78-.18,2.7,2.58-2.55,3.54-1.76S39,157,37.14,156.46l-3.44,3.8s3.9-2.61,4.91-1.79-6.48,3.33-6.73,4.12.75.68,2.65-.39,1.9,1.72-1.32,2.72-4.06,2.95-4.55,5.23c-.33,1.57-.55,2.7.36,2.75s2.34-3,4.26-4.54c3.48-2.82,6.55-2,8.84-2.33s4-2,4.62-6.1,4.3-11.21,10.77-13c11.15-3.06,12-9.17,12-9.17A15,15,0,0,0,58.87,134.22ZM22.71,157.71c-1.29-1.26,2-8.81,3.51-8.45C28.69,149.87,24,159,22.71,157.71Z" fill="#0062bd"/><path d="M101.29,199.84c2.49-.3,1.4-6.12.38-11.87s-2.47-10.9-4.89-9.94S95.92,200.48,101.29,199.84Z" fill="#0062bd"/><path d="M109.24,199.14c-2.16,1.11-3.76-5.91-4.83-9.25-1-3.18-3-10.63-4.51-14.44,0,0,2.42,1.34,4.24,8.27,1.71,6.51,3.44,8.05,3.44,8.05a47.85,47.85,0,0,1,.11-13.86S111.33,198.07,109.24,199.14Z" fill="#0062bd"/><path d="M107.11,172s1.11,2,2.09,7.65c1,5.8,1.29,11,3,11,1.25,0,3.37-2,2.83-6.55a26.86,26.86,0,0,1,.61-8.27s-3.54,5-3.28,9.77C112.4,185.66,111.63,174.78,107.11,172Z" fill="#0062bd"/><path d="M119.55,169.76c-.81-.32-3.54,7.3-3.12,13.64s-2.63,10.47-.7,11c2.55.67,5.69-3.3,11.28-2.34s8.92,3.81,10.9,4.57-1.29-1.29-1-6.77,1.1-9.22,2.2-8.92.43,12.41.43,12.41,6-6.77,11.06-5,12.78-.7,13.21-3.54-3.92-.21-5.16,1.29c0,0-1.13-1.56-4.3,1.67,0,0-1.5-.59,1-2.31s1.88-4.3.16-4.35-4.67,3.54-2,5.1c0,0-.91,1.5-2.2,1.45s.48-5.59-1.18-6.23-2.09,1.56-2.09,1.56.48-4.3-1.29-4.46-4.94,4.19-4.94,4.19.54-4.57-1.24-5.1-3.22,1.89-4.67,5.64c-2.42,6.23-8.33,7.95-7.14,2.26s.91-7.9.05-8.16-3.6,4.19-4.14,6.71-3.22,1.83-1.93-2.31,1.85-5.32.48-6.23-4.35,5.2-4.35,8.08C118.9,183.53,120.35,170.08,119.55,169.76Z" fill="#0062bd"/><path d="M135,177.39c-1.8-1.1-6.3,8.86-3.81,9.18S137.22,178.73,135,177.39Z" fill="#0062bd"/><path d="M212,97.54c1.88-.19,3.86-2,7.57-2.23,2.14-.14,6,.7,6.88,3.65,1,3.26.7,8.15-4.84,8.15-6.3,0-9.82,0-9.82,0s.94,3.5-2.5,4.42-3.32-2.47-7.54.09c-2.34,1.42-5.42,1.56-5.64-1.18a8.07,8.07,0,0,1-2.74,3c-1.09.64-3,1.48-4.69.79a3.21,3.21,0,0,1-2.13-3.45c.22-1.83,2-3.15,3.37-3.61,0,0-1.82-.3-2.19-4.34-.43-4.67,4.67-10.74,10.67-9.21C205.15,95.29,207.09,98,212,97.54Z" fill="#0062bd"/><path d="M228.69,119.7c2.47,4.19,8.3,2.82,14.75,6.37,3.54,2,10.8,3.32,16.14,1.81,6.36-1.8,9.44-5.09,10.27-8.48a8.38,8.38,0,0,0,4.22,1.72c6.8,1,10.92-2.85,13.55-7.39a3.12,3.12,0,0,0,4.24-.16c.7-.72,1.81-2.71,3-2.21,2.58,1.06,4.57-.69,5.51-1.75-2.74.31-4.92-3.38-7.66-3a3.71,3.71,0,0,0-2.7,2.47,6.74,6.74,0,0,0-8.11.72c-1.75,1.58-5.3,6.24-13.72,1.43-3.69-2.11-9.17-1.17-9.38,4.4,0,0-3.88-4-7.34-3.67a4.58,4.58,0,0,0-3.58,3.15c-.58,1.5-1.47,1.67-2.4-.53a5.68,5.68,0,0,0-9-2.07,7.63,7.63,0,0,0-1.95,4.37,4.66,4.66,0,0,0-3.74-2C228.9,115,227.36,117.45,228.69,119.7Z" fill="#0062bd"/><path d="M157.2,136.29c0,1.9,1.43,2.29,8.3,2.48,17.76.5,36-5.66,51.28-.36,15,5.2,18.37,8.64,31.37,10.6,18,2.72,26.89,9.42,26.89,9.42s17.29-17.73,48-16.66l2.51,29.2a46.38,46.38,0,0,0-21.19-1,44.45,44.45,0,0,0-21.7,10.68c-9.82,8.71-12.57,15.21-14.54,19.38s-25.49,1.69-25.49,1.69-10.24-9.78-3.87-14.65S251,178.59,251,178.59s.8-5.69-2-5.83c-1.6-.08-4.27,3.18-7.05,5.13-.4.28-.1.59-.5.7s1-10.63.56-10.62c-.84,0-4.14,10.57-4.75,10.71-2.31.51-2.38,4.11-5.26,4.35-6.72.56-11.62.64-14.7-1.61,0,0,10-6,6.84-11.12S213,163,213.24,157.35c.37-7.23-2.86-12.62-11.09-12.83l-15.44,9.72s-.23-1.64-6.64,2.88c-21,5.92-21.85-12.57-29.15-15.13,1.92.32,4.16-.19,4.88-1.66C156.34,139.22,155.24,136.59,157.2,136.29Z" fill="#0062bd"/><path d="M195.44,189.69s-9.67,6.45-14.34,15.9.73,29.08.73,29.08h9.67s.18-13.07-.09-21.18c0,0,7.57-7.68,8.75-7.14s1,3.16,5.8,13c5,10.23,4.94,11.6,6.45,14s6.61,16.18,9.24,25.07l8.67-4s-1.06-6.68-2.17-12a47.86,47.86,0,0,0-5.75-14.18s.35-19.63-.18-27c0,0,.2-2.73-4.18-1.49s-12.21,4-15.41,2c-3.63-2.24-4.84-11.83-4.84-11.83a1.18,1.18,0,0,0-1-.43c-.21,0-.26-.21-.58-.11A5.69,5.69,0,0,0,195.44,189.69Z" fill="#c0efff"/><path d="M187.09,154.19c-.07-1.36-1.85-1.59-2.35,3.35s-1.61,9.52,1.79,15.47,2.44,15.81,11.28,16.93c0,0-.29-1.53-2.54-4.54S188.17,166.84,189,159Z" fill="#0062bd"/><path d="M191,164.37a7.35,7.35,0,0,1-.56-5.35c1.53-4.91,7.06-6.07,11.54-8.11s8.86-3.65,8.86-3.65,3.57,2.77,3.6,9c0,.53,2.34,3,3.44,4.34,2.94,3.58,7.59,6.37,7,13.89-.5,6.57-7.56,7-7.56,7s-1.07-8.81-5.66-15.61-8.63-13-14.61-10.81S191,164.37,191,164.37Z" fill="#c0efff"/><path d="M182.2,155.65c-2.58,2-1.86,5.36-.9,5.93,1.69,1,2.8-7,2.8-7Z" fill="#acefff"/><path d="M175.39,141.42a10.44,10.44,0,0,0,1.22,3.94,5,5,0,0,1,.24,2.26c-.1.9-.51,1.52-.12,2,.61.7,1.67.31,2.81,1.2s3.37,2.83,6,1.54-.14,4,1,6.68c.47,1.13,1.55.81,2.61-.15.56-3.47,5.25-6.4,2.71-5.25-.31-2.57-3.93-14.49-3.93-14.49Z" fill="#fff"/><path d="M192.7,134.58c-3-3.44-9.09-4.17-12.44-2.7-3.87,1.7-9,7-4.87,9.54,4.74,2.9,9.25,2.35,11.73,0a15.29,15.29,0,0,0,0,3.15c.26,3.21,1.36,8.09,6.63,10.16l17.12-7.48s-2.06-1.81-8.08-3.12C197.59,143,196.58,139,192.7,134.58Z" fill="#ff3853"/><path d="M62,152.21c-1.59,3.46-4.83,3.8-4.12,13.82a114.62,114.62,0,0,1,0,11.88,150.26,150.26,0,0,0-14,19.51l11.72,2.43S67.09,188.92,69.47,186c2.52-3.07,2.83-8.09,2.83-8.09l10.88,13.86s-12.46,14.78-17.4,26.81l13.21,1s-.75,4.08,2,5.59S88.13,227.93,89,230c0,0,1.65-.9-.54-3s-7.77-2.11-7.66-5.91,10.94-14.87,16.47-21.8,3.38-12.68,0-18.43-8-16.38-8-16.38S64.82,146.17,62,152.21Z" fill="#00aff9"/><path d="M104.84,119.57a5.76,5.76,0,0,0,3.36.62c2.54-.47,3.79-5.19,5.63-3.87,1.16.83-.22,2.69,1,2.8.65.06,2.18-1.82,2.85-2s2.43.86,3.28.84a4.37,4.37,0,0,0,2.89-1.29c-.38.9-.54,1.41-.95,2.2a20.43,20.43,0,0,0-1.6,3.44c-.41,1.51.13,3-.28,3.75-.52.91-2.29-.12-4.46,1.07-.95.52-3.84,2.19-5.22,1A24.58,24.58,0,0,1,104.84,119.57Z" fill="#00aff9"/><path d="M137.83,159.14c3.22,1.79,6.84,3.19,9.45,3.12s5.55,2,7.48,4.8,2.11,6.23-1.32,6.45-3.13.36-7.25-1.22c-3.54-1.36-9.51-3.44-13.8-5.16Z" fill="#00aff9"/><path d="M163.52,165.61c-6.22.92-9.71,1.46-13.12-.53s-4.21-1.43-4.21-1,.58,1,1.71,1.57a12,12,0,0,1,3.28,3.27c2.52,3.3,3.44,3.95,6.93,3.35a65.8,65.8,0,0,1,6.77-.76S165.67,165.3,163.52,165.61Z" fill="#fff"/><path d="M140.33,170.16s.43,3.17,6.5,3.33S143.5,168.93,140.33,170.16Z" fill="#fff"/><path d="M137.83,159.14c-.68-2.29-5.7-4.06-8.84-7.09a76.6,76.6,0,0,1-10.85-13.61c-2.15-3.51-8.58-15.92-14.86-20.8-1.61-1.25-9.63-.47-9.63-.47s-11.21,9.33-20.35,17.53c-2.74,2.45-3.93,5.92-5.95,7.9-1.74,1.7-4.43,2-5.14,3-4.94,6.7-6.41,10.28,0,16.51,4.65,4.54,12.26,2.31,18.51,2.08a10.25,10.25,0,0,1,5.44,1.1c1.75,1,2.55,3.72,4.93,3.19,3.3-.73,5.22-13.66,11.32-15.11,3.47-.82,6.23,2.4,15.79,8.33a54.68,54.68,0,0,0,11.6,5,2.81,2.81,0,0,0,2.11,2.21C133.82,169.46,138.94,162.87,137.83,159.14Z" fill="#fff"/><path d="M207.44,192.26s.1,8.59-.32,11.46-5.19,5.8-4.73,9.17-.37,5.52,1.4,5.94,4.08.18,7.16-7.13,2-9.21,4.76-17.85C215.71,193.86,211.49,191.36,207.44,192.26Z" fill="#fff"/><path d="M102.08,153.44c1.85-.5-1.7,2.66-4.28,2.7-3.58.06-9.31-.64-13.68-5.08,0,0-1.49.79-8.88-1.25-6.34-1.75-5.62-5.3-6.34-6.88A17,17,0,0,1,58.08,149l-.87-2s8.89-2.88,11.51-9c0,0,1.18-10.49,8-16s12.59-10.57,19.41-5.08,7.3,5.65,7.13,7.73c0,0,8.59-.81,9.49,4.7,0,0-3.4-3.23-9.49-.36,0,0-5.94,10.85-10.1,15a20.19,20.19,0,0,0-4.31,6.26s-.15,2.87,7.53,3.66A16.33,16.33,0,0,0,102.08,153.44Z" fill="#ff3853"/><path d="M84.21,151.05c-1,5-7,10.1-7,10.1l2.47,1.32c6.52-5.66,7.34-11.42,7.34-11.42Z" fill="#ff3853"/><path d="M276.44,73.89l5.72,8.52a2.44,2.44,0,0,0,2,1.08h21.19s-1.29-3-2.22-4.8-1.86-3.08-6.73-3.72c-2.5-.33-6.87-.92-12.39-1.58C279.68,72.87,277.48,72.28,276.44,73.89Z" fill="#422d62"/><path d="M244.43,183c-2.86,1.5-5.94,0-7.52,1.65s-4,3.75-6.88,4.08c-3.08.36-.72,1.5,1.93,1.36s-6.52.5-6.52,3.37c0,1.86,2.58,2.51,4.58,2.51,3.16,0-4.73,3.44-.29,6.16,0,0-5.59,2.36-2.29,6.09,0,0-4.65,4.44,3.37,4.08s9-4.44,13.61-3,14.77-5.85,19.66-1l4-8.23s-7.16,3.22-14.11-.79c0,0-11.1,1.72-14-4.37S244.43,183,244.43,183Z" fill="#422d62"/><path d="M284.92,169.82c-4.81,3.16-4.91.47-11.71,1.29-3.36.41.14-3.47,6.45-3.12,1.5-2.79,4.62-4.76,7.38-3.37,7.29,3.69-3.33-2.21-.07-5.66,1.83-1.93,4.4,3.12,5.91,3s-4.19-6,.54-7.08c3.65-.86,4.83,4.18,4.83,4.18s.21-8.59,4.19-7.95.54,7.3.54,7.3,3.34-8.9,7.52-7.34c3.54,1.32-.54,9.7-.54,9.7s4-7.3,6.23-5.59-3.87,9.24-2.15,9.56,1.72-5,4.19-5.59,3.65,5,1,8.06c0,0,2.79-3.87,5.48-2.15v6.45s-7.13-3.37-20.3-1.52c-9.16,1.29-18.88,8.36-18.88,8.36a16.07,16.07,0,0,1,7.81-5.77S291.48,165.52,284.92,169.82Z" fill="#422d62"/><path d="M230.94,160.58c-.62.23-1.2,22,1.32,22.31s.76-4.38,3.37-17.63a31.19,31.19,0,0,0-3.14,11.55s-.36-5-.53-9.51C231.82,163.55,232,160.19,230.94,160.58Z" fill="#422d62"/><path d="M238.84,162.67c1.93-.27-.78,12.08.52,7.7,1.38-4.62,3.34-9.75,5.6-11.35l-2.4,12.7s3-8.14,9-8c0,0-4.73,8.19-2.89,8.54.67.13,3.15-7,5.14-6.28s-.15,5.21-.15,5.21,1.83-1,1.88,1.07a6,6,0,0,1,2.19.28,1.61,1.61,0,0,1,1.06,2.13,1.27,1.27,0,0,1-1.89.58,5.35,5.35,0,0,1-1.2-1.44s.05,2.63-1,2.74-1-1.13-1.5-1.07-.38,3.92-2.31,4,.24-4.83-.59-5c-1-.2-2.36,5.17-3.44,5.17-1.67,0-.11-3.13-1.45-3.17s-2,6-4.5,5.87c-1.6-.07,1.39-10.27.36-10.42s-1.48,2.37-3.23,8.35c-.8,2.75-2.76,2.34-3.47,1.13C233.41,179.57,236.91,162.94,238.84,162.67Z" fill="#422d62"/><path d="M-130.26,245.44c-9.34,2.72,47.27.43,52.53,11.6a14.92,14.92,0,0,0,7.39,7.73C-59.78,270.5-31,267.66-30.77,272c.15,3.37-29.18,0-27,9.54,1.32,5.88,18,6.16,22.93,5.86,7.3-.44,11.92-3.53,15.8-6.28C-11.1,275.48-2,278.37.2,279c8,2.2,16.78,2.8,24.12-3,9.35-7.41,42.38.25,53.1-4.55a32.63,32.63,0,0,1-5.11-6.73A15.9,15.9,0,0,0,60.73,264c-6.66,2-.75-7.18-8.7-7.88s-9.86,6.6-14.6,2.62c-2.63-2.21,2.43-7.18,5.86-12.21,2.74-4,3.19-8.46.26-10.78-3.22-2.55-8.59-.95-12.48.92-4.07,2-7.37,4.17-8.47,2.08-2.15-4.08-3.65-10.63-14.07-8.06s-16.76,15.68-32.66,21.16-48.13,3.58-51.13-7.34c0,0-7.84,3.15-17.83-1.79S-121,242.75-130.26,245.44Z" fill="#fff"/><path d="M38.32,222.81c-3.75-.26-8.27,5.91-3.76,6.45S43.05,223.13,38.32,222.81Z" fill="#fff"/><path d="M131.7,239.1c-3.83.94-7.95-2.22-1.5-4.44S136.93,237.81,131.7,239.1Z" fill="#fff"/><path d="M138.79,234.13s5.8-2.91,8.16-5.84,8.09-7.42,8.67-3.6c0,0,9.81-5.49,7,.38s7.73-2.41,9.31-.38-3.63,7.45-9.81,6.32S145.24,239.9,138.79,234.13Z" fill="#c0efff"/><path d="M162.93,214.25c-3-.24-9.31,5.28-4.65,5.43S164.72,214.4,162.93,214.25Z" fill="#fff"/><path d="M149,219.69c-2.53-1-4.69,5-2.61,5S151.11,220.54,149,219.69Z" fill="#fff"/><path d="M165.65,210.34c-1.78-.43-2.08,1.7-.93,1.84S166.94,210.64,165.65,210.34Z" fill="#fff"/><path d="M226.35,211.38c2.42,3.37,6,1.48,8.35,2.5s3.1,1.72,5.09,1.66c3.78-.11,3.55-3,7-2.28,8.61,1.8,12.84-2.06,11.45-3.77-1-1.29-5.05,1-7.36.59-3-.53-4.41-2.18-7.39-2.3-2.33-.09-4.43,2.09-5.94,3s-3.4-3-5.19-1.27C228.31,213.36,226.35,211.38,226.35,211.38Z" fill="#c0efff"/><path d="M241.42,202.49c-1.61-.46-5.42,4.27-2.52,4.44S242.82,202.89,241.42,202.49Z" fill="#fff"/><path d="M246.49,195.81c-2.12-.05-3.13,3.06-1.23,3S248.62,195.86,246.49,195.81Z" fill="#fff"/><path d="M250.17,201.34c-2.33-.42-3.54,2.9-1.24,3S252.54,201.77,250.17,201.34Z" fill="#fff"/><path d="M6.16,165.52c-.86-.21-.42-1.61.54-1.56S7,165.73,6.16,165.52Z" fill="#ff3853"/><path d="M5.25,160.25c-.75.05-1.18,1.83,0,1.77S6,160.2,5.25,160.25Z" fill="#ff3853"/><path d="M8.9,160.79c-.59-.25-1.83.86-1.24,1.24S9.65,161.11,8.9,160.79Z" fill="#ff3853"/><path d="M11.05,162.4c-1-.16-1.83,2.27-.75,2.34S12,162.56,11.05,162.4Z" fill="#ff3853"/><path d="M137.92,274c-1.78-.43-4.4,3.6-1.88,4.24S139.47,274.39,137.92,274Z" fill="#ff3853"/><path d="M144.46,268.64c-1.23-.43-3.91,5-2.62,5.34S145.69,269.07,144.46,268.64Z" fill="#ff3853"/><path d="M150.34,270.47c-1.24,1.84.42,3.65,1.65,1.18S151.74,268.37,150.34,270.47Z" fill="#ff3853"/><path d="M149.63,265.42c.89.39,2.36-2.36,1.18-2.52S148.77,265,149.63,265.42Z" fill="#ff3853"/><path d="M144,277.94c-2-.48-4.67,5-2.09,5.59S146,278.42,144,277.94Z" fill="#ff3853"/><path d="M138.74,111.74c-1.19,0-1.69,1.68-.75,1.68S139.55,111.74,138.74,111.74Z" fill="#ff3853"/><path d="M141.56,116.37c-.91,0-1.44,1.84-.63,1.7S142.21,116.37,141.56,116.37Z" fill="#ff3853"/><path d="M146,112.77c-.87-.2-1.18,1-.59,1.13S146.7,112.93,146,112.77Z" fill="#ff3853"/><path d="M140.12,120.55c-.81-.15-1.18,1.19-.32,1.3S140.93,120.71,140.12,120.55Z" fill="#ff3853"/><path d="M146.78,120c-.7,0-.7,1.06,0,1.23A.62.62,0,1,0,146.78,120Z" fill="#ff3853"/><path d="M152.69,116.37c-.75,0-.86,1.2-.38,1.24C153,117.66,153.44,116.37,152.69,116.37Z" fill="#ff3853"/><path d="M153,123.41c-.94-.05-1.11,1.72,0,1.72S154,123.46,153,123.41Z" fill="#ff3853"/><path d="M160.69,119.22c-.75-.54-3,.86-1.88,1.67S161.44,119.76,160.69,119.22Z" fill="#ff3853"/><path d="M163.05,128.78c-1.41-.56-2.26.64-1.18,1.07S164.13,129.21,163.05,128.78Z" fill="#ff3853"/><path d="M156.46,132.22c-1.09-.51-1.78,1.45-.6,1.72A.91.91,0,0,0,156.46,132.22Z" fill="#ff3853"/><path d="M169.87,124.57c-1.31-.47-1.88,1.63-.48,1.74A.9.9,0,0,0,169.87,124.57Z" fill="#ff3853"/><path d="M275.82,243.78c-2.21-.32-4.26,4-1.68,4.24S277.66,244,275.82,243.78Z" fill="#ff3853"/><path d="M284.39,237.71c-1.26-1.37-3.65,1.6-2.2,2.36S285.68,239.12,284.39,237.71Z" fill="#ff3853"/><path d="M289.76,239.32c-1.07-.05-3.28,2-1.45,2.36S290.83,239.37,289.76,239.32Z" fill="#ff3853"/><path d="M292.66,235.24c-1.94-.67,0-4.57,2.36-3.17S294.06,235.72,292.66,235.24Z" fill="#ff3853"/><path d="M282,247.32c-1.5-.47-3.6,2.85-.75,3.12S283.69,247.86,282,247.32Z" fill="#ff3853"/><path d="M284.8,242.92c-1.36.45-1.26,1.61,0,1.67S285.58,242.66,284.8,242.92Z" fill="#ff3853"/><path d="M295,243.4c-1.57-1.16-3.81,2-1.93,2.49S296.26,244.31,295,243.4Z" fill="#ff3853"/><path d="M305.66,239.54c-2.26,0-6.66,3.37-2.9,3.86S307.91,239.55,305.66,239.54Z" fill="#ff3853"/><path d="M303,115.54a.54.54,0,1,0,0,1.07C303.83,116.56,303.86,115.59,303,115.54Z" fill="#ff3853"/><path d="M303.83,118.64c-.72-.22-.75,1.15,0,1.13S304.45,118.82,303.83,118.64Z" fill="#ff3853"/><path d="M231.91,97.55c-.73-.05-1.15,1.15-.38,1.1S232.64,97.6,231.91,97.55Z" fill="#ff3853"/><path d="M230.54,101.6c-.77-.09-.75,1.15,0,1.24A.62.62,0,1,0,230.54,101.6Z" fill="#ff3853"/><path d="M232.32,100.55c-.33,0-.29.75,0,.7S232.65,100.56,232.32,100.55Z" fill="#ff3853"/><path d="M236,101c-.24-.58-1.64.21-1.32.67S236.24,101.68,236,101Z" fill="#ff3853"/><path d="M235.81,97.54c-.67-.27-1.41.81-.5.91S236.16,97.69,235.81,97.54Z" fill="#ff3853"/><path d="M241.39,101.36c-.84-.27-1.64.94-.56,1.23S241.9,101.52,241.39,101.36Z" fill="#ff3853"/><path d="M244.64,97c-.86,0-1.42,1.15-.3,1.11S245.31,97,244.64,97Z" fill="#ff3853"/><path d="M237.55,103.64c-.62,0-.43.57,0,.62S237.89,103.64,237.55,103.64Z" fill="#ff3853"/><path d="M21.14,206.74c-.36-.69-2.4.62-1.4,1.23S21.38,207.2,21.14,206.74Z" fill="#ff3853"/><path d="M24.07,206.11c-.72,0-1.06,1.38-.27,1.36S24.59,206.12,24.07,206.11Z" fill="#ff3853"/><path d="M22.85,209.88c.64.55-.49,1.67-1.28,1.11C21.05,210.63,22,209.19,22.85,209.88Z" fill="#ff3853"/><path d="M25.81,209.12c-.59,0-.76,1.15,0,1S26.64,209.14,25.81,209.12Z" fill="#ff3853"/><path d="M28,205.91c-.81-.45-2,1.69-.82,1.81S28.67,206.3,28,205.91Z" fill="#ff3853"/><path d="M306.41,97.09s-6,.83-6.48-5.88c-.29-4.11,2.22-7.06,5-8.73,5.84-3.51,12.34-2.6,15.65.64,2.47,2.42,5,2.86,8,3.17V99.78S310.44,106.78,306.41,97.09Z" fill="#0062bd"/><rect x="-704.24" y="-179.46" width="1024" height="467.2" fill="none"/></g></svg>