<svg id="Layer_3" data-name="Layer 3" xmlns="http://www.w3.org/2000/svg" xmlns:xlink="http://www.w3.org/1999/xlink" viewBox="0 0 364.27 364.27"><defs><clipPath id="clip-path"><circle cx="182.14" cy="182.14" r="182.14" fill="none"/></clipPath><clipPath id="clip-path-2"><rect x="-634.18" y="-70.5" width="1024" height="467.2" fill="none"/></clipPath></defs><title>Artboard 1</title><g clip-path="url(#clip-path)"><g clip-path="url(#clip-path-2)"><rect x="-550.37" y="235.05" width="660.98" height="83.91" fill="#6a6a6a"/><polygon points="69.3 241.82 -534.23 235.05 -534.23 -87.7 69.3 -87.7 69.3 241.82" fill="#0062bd"/><polygon points="47.03 405.63 -534.88 271.84 -143.71 -61.23 200.98 176.95 408.83 176.95 408.83 -74.62 -638.79 -74.62 -638.79 406.75 47.03 405.63" fill="#422d62"/><rect x="110.61" y="241.83" width="302.74" height="77.14" fill="#c0efff"/><rect x="42.19" y="318.96" width="371.16" height="87.79" fill="#422d62"/><rect x="193.24" y="180.83" width="215.59" height="64.87" fill="#6a6a6a"/><polygon points="-183.73 268.61 235.93 304.33 86.73 343.81 72.12 396.94 47.03 405.63 -323.11 321.53 -183.73 268.61" fill="#ffcad4"/><rect x="202.26" y="5.31" width="195.92" height="177.13" fill="#0062bd"/><path d="M205.65,24.91S219,23.3,219.22,33.56c0,0,8.94-2.1,15.63,2.71,6.33,4.54,4.48,13.26,4.48,13.26s16.08-13.26,44.06,2.69c7.85,4.48,15.74,8,15.74,8S296,33.78,316.87,48.11c18.23,12.54,23.74-9.71,38.55-15.68,34.67-14,43.78,25.13,61.86,21s37.45-26.28,49.17-21-.05,7.36,17.52-14.86L477.68,97s-3.64,16.57-18,16c-29.91,1.53-22.78-19.24-22.78-19.24s-11.87,7.72-19.58-1.31-3-16.89-3-16.89-17.82-1-21-13.25c-2.8-10.92-22.52-14.14-32.39-1.48-4.9,6.29-9,17.49-26.93,7-9.3-5.44-17.21,3.36-21,7.42-2,2.13-25.55-14.2-34.8-17.36-12.74-4.36-21.83-.66-31.71,8.32-13.91,12.64-28.32,9.57-41.13,3.28Z" fill="#c0efff"/><path d="M198,87.19s15.4,15.87,22.43,6.69c5.77-7.53,9-6.57,16.46-6.4s6.2-4.25,10.93-10.09c6.05-7.46,16.62-6.27,29.25-.28,11.25,5.33,28.67,18.08,43.72,2.8,3.74,2.08-1.28,15.23,3.57,11.17,13-10.9,35.89,7.36,35.89,7.36s25.57-.25,25.69,21.1,33.25,7.07,33.25,7.07v33.28L259.68,128.2s4.9-23.81-16.62-27.8S222.65,122.73,199.41,112Z" fill="#c0efff"/><path d="M204.13,123.1c9,0,23-1.43,23,11.46v11.06c0,5.86.54,7.15,1.67,7.15,1,0,2.29-1.59,2.29-6.49V114.1c0-4,2.57-9.06,11.29-9.06,9.43,0,10.35-.2,11,0s4.14,4.68,4.14,4.68V86.57c0-2-.3-3.29,3-3.11S285,82.73,285,102.38V115l4.49,2.46v10.9l3.08,3.08v-24c0-9.34,1.65-13.3,9.19-20.84S313,75.25,313,75.25h11.44c2.87,0,3.53,1.44,3.53,3.35v49.23h6.59V87.53h31.32v19.94s3.71,1,3.71,7.56v19l3.23,5.81V127.61c0-5.92-.11-9.76,3.83-10.66l15.16-3.49v69H204.13Z" fill="#422d62"/><path d="M238.64,122.68c1,0,1.16.52,1.16,1.34s0,1.6-1.17,1.6-1.15-.82-1.15-1.47S237.67,122.68,238.64,122.68Z" fill="#ffcad4"/><path d="M247.17,122.68c1,0,1.16.52,1.16,1.34s0,1.6-1.17,1.6-1.15-.82-1.15-1.47S246.19,122.68,247.17,122.68Z" fill="#ffcad4"/><path d="M354.66,104.25c1,0,1.16.52,1.16,1.34s0,1.6-1.17,1.6-1.15-.82-1.15-1.47S353.69,104.25,354.66,104.25Z" fill="#ffcad4"/><path d="M320.79,94.52c1,0,1.16.52,1.16,1.34s0,1.6-1.17,1.6-1.15-.82-1.15-1.47S319.82,94.52,320.79,94.52Z" fill="#ffcad4"/><path d="M238.64,113.07c1,0,1.16.71,1.16,1.84s0,2.19-1.17,2.19-1.15-1.13-1.15-2S237.67,113.07,238.64,113.07Z" fill="#ffcad4"/><path d="M247.17,112.82c1,0,1.16.71,1.16,1.84s0,2.19-1.17,2.19-1.15-1.13-1.15-2S246.19,112.82,247.17,112.82Z" fill="#ffcad4"/><path d="M274.24,95.13c1,0,1.15.72,1.15,3.44s0,4.29-1.16,4.29-1.14-1.72-1.14-3.86S273.27,95.13,274.24,95.13Z" fill="#ffcad4"/><path d="M274.24,109.73c1,0,1.15.72,1.15,3.44s0,4.29-1.16,4.29-1.14-1.72-1.14-3.86S273.27,109.73,274.24,109.73Z" fill="#ffcad4"/><path d="M356.62,114.22c0,1-.72,1.15-3.44,1.15s-4.29,0-4.29-1.16,1.72-1.14,3.86-1.14S356.62,113.25,356.62,114.22Z" fill="#ffcad4"/><path d="M267.19,109.73c1,0,1.15.72,1.15,3.44s0,4.29-1.16,4.29S266,115.74,266,113.6,266.22,109.73,267.19,109.73Z" fill="#ffcad4"/><path d="M274.24,124.34c1,0,1.15.72,1.15,3.44s0,4.29-1.16,4.29-1.14-1.72-1.14-3.86S273.27,124.34,274.24,124.34Z" fill="#ffcad4"/><path d="M247.17,131.94c1,0,1.16.71,1.16,1.84s0,2.19-1.17,2.19-1.15-1.13-1.15-2S246.19,131.94,247.17,131.94Z" fill="#ffcad4"/><path d="M261.83,88.34c1,0,1.16.52,1.16,1.34s0,1.6-1.17,1.6-1.15-.82-1.15-1.47S260.86,88.34,261.83,88.34Z" fill="#ffcad4"/><path d="M261.83,96.6c1,0,1.16.71,1.16,1.84s0,2.19-1.17,2.19-1.15-1.13-1.15-2S260.86,96.6,261.83,96.6Z" fill="#ffcad4"/><path d="M261.83,140.8c1,0,1.16.52,1.16,1.34s0,1.6-1.17,1.6-1.15-.82-1.15-1.47S260.86,140.8,261.83,140.8Z" fill="#ffcad4"/><path d="M261.83,149.06c1,0,1.16.71,1.16,1.84s0,2.19-1.17,2.19-1.15-1.13-1.15-2S260.86,149.06,261.83,149.06Z" fill="#ffcad4"/><path d="M312.26,89.56c1,0,1.14.7,1.14,1.82s0,2.17-1.15,2.17-1.14-1.11-1.14-2S311.29,89.56,312.26,89.56Z" fill="#ffcad4"/><path d="M320.77,82.27c-.28,0-.67,1.09-.92,1.74a7.2,7.2,0,0,0-.59,1.88c.08.18.73.19,1.51.19s1.3,0,1.51-.19-.25-1.28-.55-1.9S321,82.27,320.77,82.27Z" fill="#ffcad4"/><rect x="339.42" y="93.32" width="21.95" height="3.82" fill="#0062bd"/><path d="M236.57,19.42a.9.9,0,1,1,0,1.8C235.32,21.19,235.72,19.43,236.57,19.42Z" fill="#fff"/><path d="M264.46,28c-1.29-.77-2.09,1.32-.85,1.66C264.46,29.87,265.73,28.73,264.46,28Z" fill="#fff"/><path d="M286.13,16.91c-.88,0-1.85,1.58-.31,1.74S287,16.91,286.13,16.91Z" fill="#fff"/><path d="M362.1,78.37c.91.08,1,1.59,0,1.53S361.19,78.3,362.1,78.37Z" fill="#fff"/><path d="M342.27,18.66c.91.08,1,1.59,0,1.53S341.36,18.59,342.27,18.66Z" fill="#fff"/><path d="M269.88,63.93c-1.2-.82-1.91,1.41-.8,1.51S270.83,64.58,269.88,63.93Z" fill="#fff"/><path d="M294.78,73.17a1.07,1.07,0,0,0-.48,2.08C295.45,75.53,296.17,73.29,294.78,73.17Z" fill="#fff"/><path d="M326.08,33.21c-1-.19-1,1.75,0,1.82A.91.91,0,0,0,326.08,33.21Z" fill="#fff"/><path d="M236.61,80.61c-1-.19-1,1.75,0,1.82A.91.91,0,0,0,236.61,80.61Z" fill="#fff"/><path d="M332.57,74c-.89-.53-1.7,1.07-.94,1.61S333.69,74.7,332.57,74Z" fill="#fff"/><path d="M399.28,10.86V-.8h-204V187.45h8.5V11Z" fill="#6a6a6a"/><polygon points="202.26 6.95 206.01 10.96 206.01 181.14 202.26 181.14 202.26 6.95" fill="#eee"/><path d="M302.53,10.91S297.26,4.08,297.26,8V183.73h5.26Z" fill="#eee"/><rect x="203.74" y="174.21" width="194.44" height="10.65" fill="#eee"/><polygon points="272.77 352.6 272.77 408.77 408.83 408.77 408.83 299.72 379.35 305.22 299.15 355.85 272.77 352.6" fill="#6a6a6a"/><polygon points="-15.45 0.14 -15.45 247.37 185.57 245.68 185.57 1.22 166.92 -0.92 -15.45 0.14" fill="#6a6a6a"/><path d="M-1.14,17.28s9-4,16.14,0l3.79,2.5V51.65H-1.14Z" fill="#c0efff"/><path d="M16.45,52.78V10.2s1.37-2,5.33-2,10.09,5.33,10.09,5.33V52.78Z" fill="#0062bd"/><path d="M30.15,12.22a22.61,22.61,0,0,1,10.27-2c5.65.3,9.36,6.51,9.36,6.51v35.5H29.61Z" fill="#00aff9"/><path d="M48,14.37c0-2.34,5.18-3.06,8.57-2.82s7.91,4.52,7.91,4.52V52.78L48,53.91Z" fill="#0062bd"/><path d="M64.46,16.06s4.16-4,8.63-3.77c3.57.16,5.51,1,5.81,2.88.08.5,1.43.88,1.58,1.39,0-3.67,6.45-6.39,10.14-6.39,6.1,0,7,1,11.16,4.7v-1.5c0-2.18,3.39-4.47,7.48-4.47S124,8.43,124,8.43V52.78H64.46Z" fill="#422d62"/><path d="M122.33,12.16V52.78l18.33-.37V15.48s-1.77-7.87-9.84-8.77S122.33,8.84,122.33,12.16Z" fill="#0062bd"/><polygon points="137.67 52.21 137.67 9.69 145.95 9.69 157.81 15.48 157.81 54 137.67 52.21" fill="#422d62"/><path d="M150.49,52.21V22.06s4.78-3.9,9.81,0,6.71-2.26,12.66-1,5.91,31.16,5.91,31.16Z" fill="#0062bd"/><polygon points="-11.81 56.77 -0.92 65.18 172.95 65.18 172.03 53.35 -9.56 54 -11.81 56.77" fill="#422d62"/><polygon points="-11.81 107.59 -0.77 112.67 174.79 112.67 174.79 104.17 -7.27 103.56 -11.81 107.59" fill="#422d62"/><path d="M-18.63,262.35V45.76l6.85,3.54V238.53c0,3.07.83,4.08,5.55,4.08h68V207.69h4.73V242.6h81.36l3.21,28.11H-14.14C-17.68,270.71-18.63,269.66-18.63,262.35Z" fill="#422d62"/><polygon points="-11.81 202.72 -0.77 196.84 141.85 196.84 141.85 206.58 -2.3 205.87 -11.81 202.72" fill="#422d62"/><rect x="-11.81" y="51.65" width="181.42" height="5.12" fill="#00aff9"/><rect x="-11.81" y="202.39" width="181.42" height="6.84" fill="#0062c1"/><path d="M52.75,218.1c-4.75.88-4.32,4.13,0,4.26S55,217.68,52.75,218.1Z" fill="#422d62"/><path d="M76.94,218.1c4.75.88,4.32,4.13,0,4.26S74.64,217.68,76.94,218.1Z" fill="#422d62"/><polygon points="-11.81 260.32 154.47 242.6 148.61 270.71 -11.81 270.71 -11.81 260.32" fill="#0062c1"/><path d="M-1,102.45a7.8,7.8,0,0,1-2.07-5.67,8.57,8.57,0,0,1,1.79-5.7S-3.08,90-3.08,85.49s1.69-5.56,1.69-5.56a8.74,8.74,0,0,1-1.69-4.75c-.09-3.39-.77-9.34,2.15-10h42.3v38.38Z" fill="#0062bd"/><path d="M36.34,69.47V103h22V74c0-4.62-8-12.43-15-12.43S36.34,66.78,36.34,69.47Z" fill="#0062bd"/><path d="M50.1,69.47V103h22V74c0-4.62-8-12.43-15-12.43S50.1,66.78,50.1,69.47Z" fill="#0062bd"/><path d="M64.71,69.47V103h22V74c0-4.62-8-12.43-15-12.43S64.71,66.78,64.71,69.47Z" fill="#0062bd"/><path d="M124.44,101.9H82V90.31l3-1.78S80.57,87,81.49,79.42c.79-6.49,7.94-6.52,7.94-6.52l35-.31Z" fill="#422d62"/><path d="M124.44,199.36H83.82s-3.9-4.78,0-9.81-1-6.58-1-12.66c0-6.53,6.62-6.53,6.62-6.53L114,171l9.34,2.74Z" fill="#422d62"/><path d="M122.59,63.48s4.06-5.74,14.16-.66,3.47,1.73,3.47,1.73v38H122.59Z" fill="#00aff9"/><path d="M139.43,105V64.21s2.48-2,9.61-1.88,18.2,5.1,18.2,5.1V105Z" fill="#c0efff"/><path d="M156.37,104.71V62.13s1.37-2,5.33-2,10.09,5.33,10.09,5.33v39.21Z" fill="#0062bd"/><polygon points="169.65 -3.86 188.07 -0.8 188.07 142.08 169.65 151.76 169.65 -3.86" fill="#00aff9"/><path d="M169.65-3.86c5.51,21.08,18.42,89.14,18.42,116.65v36.3l-18.42,9.68Z" fill="#0062bd"/><rect x="-11.81" y="101.81" width="181.42" height="5.78" fill="#00aff9"/><polygon points="169.65 -3.86 164.07 -0.9 164.07 148 169.65 149.04 169.65 -3.86" fill="#422d62"/><path d="M-4,198.57l11.39-.18s1.73,2.17,9.27,2.17a31.21,31.21,0,0,0,9.39-2s3.87,2.34,7,1.47a116.18,116.18,0,0,1,12.24-1.95L44,159.31s-3.28-1.73-8.7-.89a27.78,27.78,0,0,0-6.79,2c-3.52,1.72-3.63-1.07-11.61-1.07-4.55,0-20.93.13-20.93.13Z" fill="#c0efff"/><path d="M77.64,198.53s-2.11,2-6.44,2S65,198.44,65,198.44s-1.51,2.05-6.64,2.05-5.57-2.25-5.57-2.25L48.42,200s-8,1-13.1-.43V158.41H78.9Z" fill="#00aff9"/><path d="M3,119.26s12.4-3.86,22.15,0l5.2,2.4v30.52H3Z" fill="#0062bd"/><path d="M23.07,153.27V112.67s2.56-2.14,9.93-2.06,18.8,5.1,18.8,5.1v37.56Z" fill="#0062bd"/><path d="M50.1,115a20.75,20.75,0,0,1,10.25-2.34c5.65.29,9.35,6.05,9.35,6.05v34H49.53Z" fill="#00aff9"/><path d="M67.92,116.48c0-2.24,5.18-2.94,8.57-2.7s7.91,4.33,7.91,4.33v34.08l-16.48-.62Z" fill="#c0efff"/><path d="M77.59,114v40.46h8.47l5.56-3.89V120.27s-3.92-3.12-6.3-5.48S77.59,114,77.59,114Z" fill="#422d62"/><path d="M86.14,119.26s7.86-3.86,14,0l3.3,2.4v30.52H86.14Z" fill="#00aff9"/><path d="M101.44,153.27V112.48s1.19-2,4.63-1.88,8.77,5.1,8.77,5.1v37.56Z" fill="#0062bd"/><path d="M113.35,114.42a18.19,18.19,0,0,1,8.93-1.94c4.91.29,8.14,6.24,8.14,6.24v34H112.88Z" fill="#00aff9"/><path d="M128.86,116.48c0-2.24,4.5-2.94,7.45-2.7s6.88,4.33,6.88,4.33v34.08l-14.33-.62Z" fill="#422d62"/><rect x="-11.81" y="151.57" width="181.42" height="6.84" fill="#6a6a6a"/><path d="M302.84,383.68c3.91-10.48,12.07-19,21.65-24.81s20.54-8.93,31.58-10.74c12.42,10.83,17.57,27.65,16.69,41.53-.13,2.08-12.48,4-13.61,5.76s-3.31,3-5.33,4A193.21,193.21,0,0,1,292.89,418c-6.22.81-12.42.83-13.55-6.49-.61-3.92.07-6.78,3.65-8.8,4.42-2.51,9.71-1.89,13.57-5.68C300.11,393.55,301.25,388.22,302.84,383.68Z" fill="#422d62"/><path d="M123.19,87.4a99.4,99.4,0,0,0-11.1,1.16l11.1.73Z" fill="#00aff9"/><polygon points="-2.81 78.62 9.82 79.5 -1.94 79.95 -2.81 78.62" fill="#6a6a6a"/><polygon points="78.91 15.17 80.09 26.6 80.57 14.3 78.91 15.17" fill="#6a6a6a"/><ellipse cx="30.33" cy="71.27" rx="3.9" ry="2.07" fill="#6a6a6a"/><polygon points="52.81 198.24 51.84 188.79 50.87 199.36 52.81 198.24" fill="#422d62"/><path d="M333.25,183.2c-.11,5.6,7.09,8.73,7.09,8.73s-1.65,5.25,1.42,8c5.74,5.19,12,2.24,15.45,6.48-2.88,4.86-.5,10.88,2.87,16.56,2.44,4.1,8.06,7.84,9.93,11,1.27,2.16-.12,4.54.55,6.95.48-2.6-.72-5.17-1.22-7.76-.6-3.11,5.54-6.3,5.78-9.46.67-8.94.8-19.94-1.37-28.64-.9-3.6-.79-8.31-1.63-11.93a60.21,60.21,0,0,0-6.51-17.11c-.27-.47-7.15.63-7.59.32a4.1,4.1,0,0,0-1.8-.57,39.83,39.83,0,0,0-8.39-.69c-3.47.21-7.66,1.26-9.06,4.76C336.94,174.45,333.35,178.38,333.25,183.2Z" fill="#422d62"/><polygon points="106.66 352.85 106.66 422.56 2.5 420.63 13.14 363.45 106.66 352.85" fill="#422d62"/><path d="M279.12,193.14c-30.72-8.62-57.54,21.53-57.54,75.47s79,10.79,79,10.79S318.77,204.27,279.12,193.14Z" fill="#0062bd"/><path d="M275.19,194.17A117.45,117.45,0,0,0,247,229.3c-11.43,22,4.74,46.33,16.68,69.46,0,0,28.55,10.24,32.78-36.86S293.18,198.59,275.19,194.17Z" fill="#422d62"/><path d="M275.19,194.17c-12.58-3.29-37.71,4-50.5,30.69-15.55,32.47-8.14,50.7-6.38,63.71s55.79-4.34,55.79-4.34-31-11-20.25-38.54S288.88,197.75,275.19,194.17Z" fill="#00aff9"/><path d="M142.35,242.14l4.33,176.3,33.42-2.25,2-86.88,7.38,21.27v65l39.34.28s-.59-129.32-2.25-141.6c-3-22.44-4.25-34.75-4.25-34.75S148.51,203.51,142.35,242.14Z" fill="#422d62"/><path d="M336.94,363.45v40.92h56.57V363.45Z" fill="#422d62"/><path d="M139,341.79l-146-19.36V429.91H2.56c16.5-48.09,74-78,137.39-70.4C143,359.87,139,341.79,139,341.79Z" fill="#422d62"/><polygon points="117.74 266.82 -44.3 313.09 307.86 355.3 404.52 286.56 117.74 266.82" fill="#6a6a6a"/><path d="M117.74,266.82l-162,46.27,166.8,24s1.49-6.71,31.82-3.39C211.93,340,283.4,305,283.4,305l-56.77-30.69Z" fill="#eee"/><path d="M279.65,354.14-25.1,322.43V429.91h9.51C1.7,379.5,64,349.11,131,360.86c47,8.25,84.83,35.25,102.87,69h45.77Z" fill="#422d62"/><path d="M317.89,129.79s-7.36,8.42-10.9,15-7.15,8.22-7.15,8.22l1.53-5.51s-10,11.23-18,7.56c12.6-10.79,14.72-16.31,18-19.31C307.85,129.79,317.89,129.79,317.89,129.79Z" fill="#0062bd"/><path d="M342,116.84c-4.09-.45-16-.82-24.08,3.49-11.68,6.2-19.56,18-18.69,19,2.65,3.1,19.89-10.08,28.33-15.57,8.2-5.33,17.8-3.25,19.79-1.44,1.19,1.09-13.89,7.24-15.72,8.31-10.34,6.07-19.4,20-14.6,18.07,9.27-3.67,19.64-5.11,29.29-14.17,7.06-6.62,33.56-1.51,33.56,8.1C379.86,151.52,356.52,118.46,342,116.84Z" fill="#0062bd"/><path d="M303.19,100.07c-1,3.48,13.22,10.63,24.52,11.19s23.08,11.56,23.08,11.56l7.38,3.3L343.89,108s-.23-4.43-9.28-6.34c-2.81-.59-13.31,1.42-16.17.86C312.39,101.36,306.69,100.37,303.19,100.07Z" fill="#0062bd"/><path d="M357.9,138.11a18.11,18.11,0,0,1,13.81,3c3.54,2.42,10.9,8.7,12.64,12.72,2.52,5.83,4.42,10.69,5.22,16.9,3.14,24.11.42,48.09,1,72.45a555.69,555.69,0,0,1-2.1,67.72c-1,10.48-2.19,21.16-5,31.33-11,39.05-11.52,18.07-11.52,18.07l1-29.21L364.92,297l4.36-16.43s10.49-6.78,13.39-23.56,3.87-41.8-3.49-64.88c0,0,.44-27.2-1.81-29.74s-9.75,9.62-9.75,9.62l-6.54-2.94a55.52,55.52,0,0,0,6-13.31,24.24,24.24,0,0,0,.18-10.49s-.6,16.95-43.08,26.1a90.06,90.06,0,0,0-22.92,8.32c-2.19-17.36,57.92-29.1,33-18.36-3.69,1.59-15.52-5-10.73-5.64,19.13-2.6,24.36-13.14,28.36-15.36A20.32,20.32,0,0,1,357.9,138.11Z" fill="#0062bd"/><path d="M372.39,266.82s-1.08-25,3.68-44.68,6.21-44.7-2.74-47.36c0,0-4.36-19.9-18.56-24.37-4.2-1.32-26.94-21-40.06-23.36-14.81-2.64-35.4,1-34.43,3s25.52,5.22,35.39,8.28c11.52,3.57,32.09,8.7,31,15.88-.46,2.95-8.89.28-16,.83-10.25.78-28.07,3.49-28.07,3.49s19.28,5.42,35.48,4.09c9.3-.77,17.68-4.58,20.15-2.72,3.31,2.49-36.25,8.39-45.1,15.15-5.27,4-13.91,20.68-13.91,20.68s23.12-17.18,32.14-18.77c6.69-1.18,29.31-8.77,29.62-7.5.73,3-42.24,28.77-46.13,30.76,12.42,0,27.16-6.93,37.1-12.77,14.93-8.77,16-12.67,16-12.67a34.93,34.93,0,0,1-7.37,12c-8.34,8.75-21.38,18.16-21.62,18.51,7,3.84,16.77-3.23,23.42-10.22,3.37-3.54,11.68-11.81,11.68-11.81s4.27,5.76,2.93,16c-.81,6.16-2.7,16.35-2.7,16.35a40.59,40.59,0,0,0-8.24-7.81c-7.16-4.64-19.9.69-19.56,2.08s11.49-.69,17.39,3.12,10.76,9.29,7.72,14.4c-.9,1.52-9.74-13.69-24.64-14.67-8-.52-21,8.08-15.53,7.25,24.65-3.74,39.48,15.08,38.68,17.88-.93,3.27-5.3,7.77-1.43,15.84C372.29,261.46,372.39,266.82,372.39,266.82Z" fill="#00aff9"/><path d="M377.81,213.88s24.08-40.61,5.29-68.7c-11.35-17-22.53-15.49-22.68-20.61-.12-4-7-6.74-7-6.74s-1.27-11.73-8.82-12.44c-1.74-.16-3.65-3.84-6.26-4.22-8.67-1.27-21.46-.15-28.71,2.69,0,0,27.11-.85,26.49-.14s-28.35.56-35.94,13.67c-1.58,2.74,23-10.41,41.43-3.78A25.94,25.94,0,0,1,357,128.13s-18.52-8.52-35.23,11.23c0,0,41.43-24.52,59.86,13.76C390.55,171.65,377.81,213.88,377.81,213.88Z" fill="#00aff9"/><path d="M341.35,335.22l-7.75-21a3.39,3.39,0,0,1,.13-2.66l33-67.4L304.87,234a3.17,3.17,0,0,1-2.34-1L287.78,218.2c-1.06-1.54-1.44-2.67.1-3.73s1.54-5,2.6-3.45l15.31,16,66.49,11.2a3.39,3.39,0,0,1,2.5,4.83l-34.32,70.19,4.28,11.58S343.12,331.87,341.35,335.22Z" fill="#eee"/><path d="M242.93,232.95c.29,8.28,3.78,23.59,25.54,24.65,2,.1,7.2-1.47,8.37-3.71,4-7.7,13.17-25.48,15-31.35,1.95-6.19,1.41-11.1-3.31-15.12-3.49-3-7.95-5.89-18.47,1.13-7.51,5-18,12.64-23.42,16.59A9.71,9.71,0,0,0,242.93,232.95Z" fill="#eee"/><ellipse cx="284.93" cy="211.72" rx="5.63" ry="9.43" transform="translate(-63.33 280.48) rotate(-47.78)" fill="#ffcad4"/><path d="M290.19,209.12a16,16,0,0,0-2.94-2.74L284,209.45c-.59.52-.37,1.57.39,2.37s1.65,1.13,2.27.6Z" fill="#eee"/><path d="M394.09,361.52s-2.55,8-30,8.53c-15.74.33-27.3-2-27.19-6.61.06-2.55,22.6-3.48,21.91-7.88s-6.84-9-3-10.2,9.16,4.17,9.16,4.17a37.24,37.24,0,0,0-4.52-11.13c-3.21-5.15,0-11.46,5.91-3.71S375.12,354,375.12,354s12.21-28.23,9.76-17.36-3.89,19.37,6.2,19.6S394.09,361.52,394.09,361.52Z" fill="#0062bd"/><path d="M306.64,349.18-44.3,313.09v3.54a5.49,5.49,0,0,0,4.8,5.45l341.78,35.75a11,11,0,0,0,7.92-2.07l94.33-62.13v-7.07Z" fill="#0062bd"/><polygon points="336.94 322.73 326.04 328.46 326.04 329.41 335.88 330.48 335.88 339.06 344.74 333.23 344.74 324.85 336.94 322.73" fill="#eee"/><polygon points="151.12 293.87 85.03 286.75 84.36 309.81 95.84 311.69 149.4 297.65 151.12 293.87" fill="#c0efff"/><path d="M17,303.15c2.43.43,77.44,14,77.44,14V255.38l-76.72-8c-2.86-.3-3.26.44-3.26,3.67v48.53C14.49,301.57,14.6,302.72,17,303.15Z" fill="#6a6a6a"/><polygon points="94.48 317.16 151.12 298.83 151.12 291.5 90.02 310.5 94.48 317.16" fill="#6a6a6a"/><path d="M94.48,255.38c4.15,0,2.33,15.44,2.33,30.7s-.25,23.73-.25,23.73l-8.59-1Z" fill="#6a6a6a"/><path d="M106.66,313.09s.72-2.83,8.51-5.05,22.78-12.44,22.78-12.44l11.5-3.11-1.38,7.34Z" fill="#422d62"/><path d="M50.27,270.83c7.78,1.61,7.1,18.55-.49,17.64S41.93,269.1,50.27,270.83Z" fill="#eee"/><ellipse cx="103.64" cy="310.74" rx="3.28" ry="1.61" transform="translate(-71.49 33.92) rotate(-13.88)" fill="#eee"/><ellipse cx="114.17" cy="308.14" rx="3.28" ry="1.61" transform="translate(-70.56 36.37) rotate(-13.88)" fill="#eee"/><path d="M139.57,316.81l-.82-2.79c.08,0,.2-.07,32.49-7.52,3.73-.19,5.51-.48,5.67.13s-2.26,1.49-5,2.7C158.68,312.39,140.1,316.68,139.57,316.81Z" fill="#00aff9"/><path d="M140.06,317.14l-2.53.64a2,2,0,0,1-2.4-1.44h0a2,2,0,0,1,1.44-2.4l2.53-.64c1.06-.26,1.72.48,2,1.53h0C141.35,315.89,141.12,316.88,140.06,317.14Z" fill="#6a6a6a"/><path d="M137.15,317.87l-.46.12a2,2,0,0,1-2.4-1.44h0a2,2,0,0,1,1.44-2.4l.46-.12c1.06-.26,1.28.42,1.55,1.47h0C138,316.56,138.21,317.61,137.15,317.87Z" fill="#ffcad4"/><path d="M332,306.06s-34.42,21.35-39.41,25.07c-1.65,1.23-3.8,1.56-23.59-4.07-11.74-3.33-23.57-6.65-23.57-6.65s-5,2.05-8.76,1.06c-4.76-1.26-5.32-3.64-5.32-3.64l-52.11-3.15s-1.44-.07-1.3-1.82c.05-.64,3.39-3.63,7.59-7.15,7.26-6.08,23.18-11.82,23.18-11.82l98.08-2.38s22.86,9,25.8,9.58S337.78,303.31,332,306.06Z" fill="#422d62"/><path d="M239.19,314.77l-60-3.51v-6.94l54.52-26.46s23.91-1.43,41.81,7c0,0,38.8-4.44,59.07,12.28l-1.81,1.15v4l-42.34,26.23Z" fill="#fff"/><path d="M237.86,318.83a1,1,0,0,1-.77-.36,8.28,8.28,0,0,1-1.51-6.29c.58-3.64,3.41-7.08,8.41-10.22,12.37-7.77,28.54-18.2,28.68-18.32.42-.36,1,.13,1.43.61-.14.12-16.55,11.55-29,19.41-4.43,2.78-7,5.84-7.5,8.84a6.26,6.26,0,0,0,1.08,4.7,1,1,0,0,1-.77,1.64Z" fill="#0062bd"/><path d="M207.71,288.69s-15.37,13.72-12.23,14.09,16.55,2,20.72,1.54,12.24-11,12.24-11A35.37,35.37,0,0,0,207.71,288.69Z" fill="#ffcad4"/><path d="M266.73,298.13s10.5,1.79,14.86,2.43,12.83-7.49,11.4-16.24l-19.76-2.48a16,16,0,0,1-3.73,9.36C265.86,295.25,264,297.66,266.73,298.13Z" fill="#ffcad4"/><path d="M185.91,284l-20.64,4.22s7.16,8,9.08,9.95,4.55.58,12.59-1.3,9.85-2.44,9.85-2.44v-3.51Z" fill="#ffcad4"/><path d="M304.41,288.11s-1.58-1-2.25,0,.18,3.3,3,2.21.91.74,3,.29,1.72,1.21,2.86,1.21,4.05-1.33,1.64-1.5-.75-1.33-3.08-1.66S305.88,289.46,304.41,288.11Z" fill="#eee"/><path d="M300.66,291.67s-1.58-1-2.25,0,.18,3.3,3,2.21.91.74,3,.29,1.72,1.21,2.86,1.21,4.05-1.33,1.64-1.5-.75-1.33-3.08-1.66S302.13,293,300.66,291.67Z" fill="#eee"/><path d="M285.56,309.67c1-1.18-.86-1.43-2.25-1.15s-1.08-.92-3-.33-.51-3.18-2.88-2.34-3.47,2.64-1.61,2.54.38,2.62,2.62,2.35,3.62-1,4.52-.44A2,2,0,0,0,285.56,309.67Z" fill="#eee"/><path d="M287.56,305.55c-1.72.25-2.25,2,.05,1.64S289.3,305.3,287.56,305.55Z" fill="#eee"/><path d="M288.43,319.42c11.34-5.67,38.58-20,38.58-20l.2.76s-9.72,5.43-17,9.4c-8.78,4.77-18.06,10.19-23.51,12.14C284.55,322.46,286.14,320.56,288.43,319.42Z" fill="#eee"/><path d="M289.89,324.51s39.81-24.18,41.23-23.36-41.46,25.21-41.46,25.21Z" fill="#eee"/><path d="M266.07,283s-4.25-1.25-5.92-1.58S224.61,305,224.61,305a18.61,18.61,0,0,1,7.07,2.05C238,302.78,266.07,283,266.07,283Z" fill="#eee"/><path d="M256.9,280.39a81,81,0,0,0-9.43-1.07c-7.06,5.34-33.57,25.09-33.57,25.09h6.27Z" fill="#eee"/><path d="M165.64,275.85s6.64-.64,5.9,4.67l-1.86,13.35c-.78,5.58-7.23,4.85-7.23,4.85a8.5,8.5,0,0,1,3.6-5.78c.63-4.54,1.34-9,1.69-11.81C165.39,277.84,165.64,275.85,165.64,275.85Z" fill="#00aff9"/><path d="M153.16,277.22l-15.21-1.67s2.69,19.36,3.95,25.88c1.21,6.25,7.48,6,11.38,6s10.17.23,11.38-6c1.26-6.51,3.95-25.88,3.95-25.88Z" fill="#0062bd"/><ellipse cx="153.28" cy="275.47" rx="15.33" ry="3.13" fill="#422d62"/><path d="M109.68,312.62l-.48-.22c-.64,0-1.24-.21-1.41.46,5.9,2.58,16.23,8.51,19.56,17.89.35,0,.74.11,1.09.11C125.35,321.66,115.9,315.54,109.68,312.62Z" fill="#6a6a6a"/><path d="M282.71,387.67a79.54,79.54,0,0,0-43,1.39c-21,6.44-53.36,4.08-77-5.61-23-9.43-33.28-23.8-33.28-46.59a19.78,19.78,0,0,0-.93-6l-1.09-.1a20.56,20.56,0,0,1,1,6.11c0,23.26,10.46,37.91,33.9,47.52,23.86,9.77,56.54,12.15,77.7,5.64,31.3-9.62,54.47,2.59,58.38,4.87l.52-.85A64.14,64.14,0,0,0,282.71,387.67Z" fill="#eee"/><path d="M109.2,312.39a47.65,47.65,0,0,0-5.41-2.14l-.29,1a44.34,44.34,0,0,1,4.29,1.64Z" fill="#eee"/><path d="M160.82,133.88c-7.24,2.42-24.62,8.11-28.71,14.66-2.55,4.09-7.25,15.78-10,29l-36.44,5.09s13.54,16.06,28.37,26.07c26.52,17.9,26.78-7.44,26.78-7.44s1.49,32.65,1.49,41.31c7.25,5,9.73,9.23,21.36,10.09,24.25,1.78,43.68-9,58.89-10.86-.07-18.6-4.24-33.43-6.35-47.15-3-19.69-2-19.63,10.63-13.5a156.32,156.32,0,0,0,33.43,11.57l9.23-10.55s-8.93-3.82-21.62-14.11c-9.1-7.38-26.92-33.78-47.42-34.46C170.35,132.62,160.82,133.88,160.82,133.88Z" fill="#ffcad4"/><path d="M72.78,166A67,67,0,0,1,78,157.28c2.49-3.25,5.82-2.1,15.58-3,16.34-1.5,17.4-1.94,20.47,1.4s19.37,25.06,21.39,27.61-2.48,4.77-4.73,6.68C128.77,191.61,72.78,166,72.78,166Z" fill="#0062c1"/><path d="M76.45,165.52s1-5,5-7.36l29.13-1.85L133.8,185.2l-4.3,6.59L104,183.54Z" fill="#fff"/><path d="M141.58,103A57.3,57.3,0,0,0,145,113.06c2,3.84,2.48,5.49,2.65,9.13.14,3,2.91,10.52,2.91,10.52l27.68-5.6,2-14.6-4.48-14.09-16.93-3.92Z" fill="#fff"/><path d="M167.33,159.38c6.61-1.35,23.43-10.34,20.42-30.19-.52-3.46-3.75-10.44-4.25-13.12-1.7-9.14-2-12.84-7-19.28-2.36-3-8.87-6.07-13.87-7.74-5.91-2-14.65-5-21.7,2.31-5.85,6-5.11,18.4,4.16,21.69a11.79,11.79,0,0,1-.49-7.14c.65-3,1.77-.77,4.67-2.57,12.2-7.56,16.4.05,18.73,4.66,1,2,4.78,1.8,4.46-.19-.51-3.21,3.42-4,5,2.57s-2.15,11.52-5.65,11.61a28.4,28.4,0,0,1-7-.82c-4.25-1-10,4.2-13.68,4.11-1.14,0-3.3-2-3.58-.58-.34,1.67.39,3.83.84,5.43,1.35,4.86,1.78,5.34,3.2,15.64C152.92,155.61,158.68,161.15,167.33,159.38Z" fill="#422d62"/><path d="M76.45,165.52c8.59.09,23-.3,28.3-.31s6.82,4.25,14.52,13.45,12.84,15.13,12.84,15.13L100,196.32,81.83,174.6Z" fill="#00aff9"/><path d="M76.34,165.22c-1.3-.45-3.56.74-3.56.74a60.64,60.64,0,0,0,10.65,15.76c10.59,11,14,8.45,14,8.45S81.49,172.52,76.34,165.22Z" fill="#0062c1"/><path d="M85.72,182.66S84,186.28,91,192.83s16.73,8.48,20.63,3.49,4.24-15.38-6.11-15S87.21,180.19,85.72,182.66Z" fill="#fff"/><path d="M271.53,204.69s-9.87-7.35-11.21-11.94c-1.66-5.68,6.15-10.12,6.88-10.46s1.37-.8,3.18.38q.76.5,1.54.95c9.43,5.46,19.53,5.57,19.06,16-4.87-4.26-9-6.08-13.07-5.93-2.3.08-4.69,0-7.06,2S275.8,204,271.53,204.69Z" fill="#fff"/></g></g></svg>