<?xml version="1.0" encoding="utf-8"?>
<!-- Generator: Adobe Illustrator 22.1.0, SVG Export Plug-In . SVG Version: 6.00 Build 0)  -->
<svg version="1.1" id="Layer_1" xmlns="http://www.w3.org/2000/svg" xmlns:xlink="http://www.w3.org/1999/xlink" x="0px" y="0px"
	 viewBox="0 0 740 740" style="enable-background:new 0 0 740 740;" xml:space="preserve">
<style type="text/css">
	.st0{fill:none;stroke:#1EAEF7;stroke-width:3;stroke-miterlimit:10;}
	.st1{fill:none;stroke:#41A9DF;stroke-width:2.8015;stroke-miterlimit:10;}
	.st2{opacity:0.2;fill:#1EAEF7;enable-background:new    ;}
	.st3{fill:#FFFFFF;stroke:#1EAEF7;stroke-width:3;stroke-miterlimit:10;}
	.st4{fill:none;}
	.st5{enable-background:new    ;}
	.st6{fill:#0E3050;}
	.st7{fill:#1EAEF7;}
</style>
<path class="st0" d="M508.6,601.9H271.5c-13.4,0-24.2-10.8-24.2-24.2V137.8h261.3L508.6,601.9L508.6,601.9z"/>
<path class="st0" d="M508.5,137.5H247.2l0,0c0-28.5,23.1-51.6,51.6-51.6H457C485.5,85.9,508.5,109,508.5,137.5L508.5,137.5z"/>
<path class="st0" d="M508.5,601.6L508.5,601.6c0,28.5-23.1,51.6-51.6,51.6H298.7"/>
<path class="st1" d="M357.2,601.6"/>
<path class="st2" d="M508.5,601.6H272.3c-14.2,0-25.8-11.5-25.8-25.8V139.6h262V601.6z"/>
<rect x="278.6" y="298.5" class="st3" width="199.3" height="48.8"/>
<rect x="278.6" y="266.4" class="st4" width="200.7" height="110.1"/>
<g class="st5">
	<path class="st6" d="M281.8,267.6v4.7h5.6v1.2h-5.6v5.7h-1.4v-12.8h8v1.2H281.8z"/>
	<path class="st6" d="M296.9,274.8c0,0.7-0.1,1.3-0.2,1.9c-0.1,0.6-0.4,1.1-0.9,1.6c-0.3,0.3-0.7,0.6-1.1,0.7s-0.9,0.3-1.4,0.3
		c-0.4,0-0.7,0-1-0.1c-0.3-0.1-0.6-0.2-0.9-0.4l-0.7,1.2h-1l1-1.7c-0.4-0.5-0.7-1-0.8-1.6c-0.1-0.6-0.2-1.2-0.2-1.9c0-0.3,0-0.7,0-1
		c0-0.3,0.1-0.6,0.2-0.9c0.1-0.3,0.2-0.6,0.3-0.8c0.1-0.3,0.3-0.5,0.5-0.7c0.3-0.3,0.7-0.6,1.1-0.7c0.4-0.2,0.9-0.3,1.4-0.3
		c0.4,0,0.7,0,1,0.1s0.6,0.2,0.9,0.4l0.7-1.2h1l-1,1.7c0.4,0.5,0.7,1,0.8,1.6C296.8,273.5,296.9,274.1,296.9,274.8z M294.5,271.8
		c-0.4-0.3-0.8-0.4-1.3-0.4c-0.6,0-1.2,0.2-1.6,0.6c-0.2,0.2-0.3,0.4-0.4,0.6c-0.1,0.2-0.2,0.4-0.2,0.7c-0.1,0.2-0.1,0.5-0.1,0.7
		c0,0.3,0,0.5,0,0.8c0,0.4,0,0.8,0.1,1.3c0,0.4,0.2,0.8,0.4,1.1L294.5,271.8z M295.6,274.8c0-0.4,0-0.8-0.1-1.3
		c0-0.4-0.2-0.8-0.4-1.1l-3.2,5.4c0.4,0.3,0.8,0.4,1.3,0.4c0.6,0,1.2-0.2,1.6-0.6c0.2-0.2,0.3-0.3,0.4-0.6c0.1-0.2,0.2-0.4,0.2-0.7
		s0.1-0.5,0.1-0.7C295.6,275.3,295.6,275,295.6,274.8z"/>
	<path class="st6" d="M304.9,279.2v-1.1c-0.4,0.5-0.8,0.8-1.2,0.9c-0.4,0.2-0.9,0.2-1.4,0.2c-0.5,0-0.9-0.1-1.2-0.2
		s-0.7-0.3-0.9-0.6c-0.4-0.5-0.7-1-0.9-1.7c-0.1-0.7-0.2-1.4-0.2-2.1c0-0.4,0-0.7,0-1.1c0-0.4,0.1-0.7,0.2-1
		c0.1-0.3,0.2-0.6,0.3-0.9c0.1-0.3,0.3-0.5,0.5-0.8c0.2-0.2,0.5-0.4,0.9-0.6s0.8-0.2,1.2-0.2c0.5,0,1,0.1,1.4,0.2
		c0.4,0.2,0.8,0.5,1.2,0.9v-5h1.3v12.8H304.9z M304.9,274.8c0-0.4,0-0.9-0.1-1.3c0-0.4-0.1-0.8-0.3-1.1c-0.2-0.3-0.4-0.6-0.7-0.8
		c-0.3-0.2-0.7-0.3-1.2-0.3c-0.5,0-0.9,0.1-1.2,0.3c-0.3,0.2-0.5,0.4-0.7,0.8c-0.2,0.3-0.3,0.7-0.3,1.1c0,0.4-0.1,0.8-0.1,1.3
		c0,0.4,0,0.9,0.1,1.3c0,0.4,0.2,0.8,0.3,1.1s0.4,0.6,0.7,0.8c0.3,0.2,0.7,0.3,1.2,0.3c0.5,0,0.9-0.1,1.2-0.3
		c0.3-0.2,0.5-0.4,0.7-0.8c0.2-0.3,0.3-0.7,0.3-1.1S304.9,275.2,304.9,274.8z"/>
	<path class="st6" d="M315.8,276.6c0,0.9-0.3,1.5-1,2c-0.7,0.5-1.5,0.7-2.6,0.7c-0.8,0-1.4-0.1-2-0.3c-0.6-0.2-1.1-0.5-1.6-1
		l0.9-0.9c0.3,0.4,0.8,0.6,1.2,0.8c0.5,0.2,1,0.2,1.5,0.2c0.7,0,1.3-0.1,1.7-0.4c0.4-0.3,0.6-0.7,0.6-1.2c0-0.4-0.1-0.7-0.3-0.9
		c-0.2-0.2-0.6-0.3-1.1-0.4l-1.5-0.1c-0.9-0.1-1.5-0.3-2-0.7c-0.5-0.4-0.7-0.9-0.7-1.7c0-0.4,0.1-0.8,0.2-1.1s0.4-0.6,0.7-0.8
		c0.3-0.2,0.6-0.4,1-0.5s0.8-0.2,1.3-0.2c0.6,0,1.2,0.1,1.8,0.2c0.5,0.2,1,0.4,1.4,0.7l-0.8,0.8c-0.3-0.2-0.7-0.4-1.1-0.5
		c-0.4-0.1-0.8-0.2-1.3-0.2c-0.6,0-1.1,0.1-1.5,0.4c-0.3,0.3-0.5,0.6-0.5,1.1c0,0.4,0.1,0.7,0.4,0.9s0.7,0.3,1.2,0.4l1.4,0.1
		c0.4,0,0.7,0.1,1.1,0.2c0.3,0.1,0.6,0.2,0.8,0.4c0.2,0.2,0.4,0.4,0.5,0.7S315.8,276.2,315.8,276.6z"/>
	<path class="st6" d="M319.2,275.1c0,1,0.2,1.7,0.7,2.3c0.4,0.5,1.1,0.8,2,0.8c0.5,0,0.9-0.1,1.3-0.2c0.3-0.2,0.7-0.4,1-0.8l0.9,0.8
		c-0.2,0.2-0.5,0.4-0.7,0.6s-0.5,0.3-0.7,0.4c-0.3,0.1-0.5,0.2-0.8,0.3c-0.3,0.1-0.6,0.1-1,0.1c-0.6,0-1.1-0.1-1.6-0.3
		s-0.9-0.5-1.2-0.8c-0.3-0.4-0.6-0.8-0.8-1.4c-0.2-0.6-0.3-1.2-0.3-2c0-1.5,0.3-2.6,1-3.4s1.5-1.2,2.7-1.2c1.2,0,2.1,0.4,2.7,1.1
		c0.6,0.8,0.9,1.8,0.9,3.2v0.6H319.2z M323.9,274.2c0-0.2,0-0.3,0-0.5c0-0.1,0-0.3,0-0.4c0-0.1,0-0.2-0.1-0.3c0-0.1-0.1-0.2-0.1-0.3
		c-0.2-0.4-0.5-0.7-0.8-1s-0.8-0.4-1.3-0.4s-0.9,0.1-1.3,0.4s-0.6,0.6-0.8,1c-0.1,0.1-0.1,0.2-0.1,0.3c0,0.1-0.1,0.2-0.1,0.3
		c0,0.1,0,0.2,0,0.4c0,0.1,0,0.3,0,0.5H323.9z"/>
	<path class="st6" d="M330.1,279.2c-0.8,0-1.4-0.2-1.7-0.7s-0.5-1-0.5-1.7v-10.5h1.3v10.4c0,0.4,0.1,0.8,0.3,1
		c0.2,0.2,0.5,0.3,0.9,0.3h0.7v1.1H330.1z"/>
	<path class="st6" d="M339.6,276.6c0,0.9-0.3,1.5-1,2c-0.7,0.5-1.5,0.7-2.6,0.7c-0.8,0-1.4-0.1-2-0.3c-0.6-0.2-1.1-0.5-1.6-1
		l0.9-0.9c0.3,0.4,0.8,0.6,1.2,0.8c0.5,0.2,1,0.2,1.5,0.2c0.7,0,1.3-0.1,1.7-0.4c0.4-0.3,0.6-0.7,0.6-1.2c0-0.4-0.1-0.7-0.3-0.9
		c-0.2-0.2-0.6-0.3-1.1-0.4l-1.5-0.1c-0.9-0.1-1.5-0.3-2-0.7c-0.5-0.4-0.7-0.9-0.7-1.7c0-0.4,0.1-0.8,0.2-1.1s0.4-0.6,0.7-0.8
		c0.3-0.2,0.6-0.4,1-0.5s0.8-0.2,1.3-0.2c0.6,0,1.2,0.1,1.8,0.2c0.5,0.2,1,0.4,1.4,0.7l-0.8,0.8c-0.3-0.2-0.7-0.4-1.1-0.5
		c-0.4-0.1-0.8-0.2-1.3-0.2c-0.6,0-1.1,0.1-1.5,0.4c-0.3,0.3-0.5,0.6-0.5,1.1c0,0.4,0.1,0.7,0.4,0.9s0.7,0.3,1.2,0.4l1.4,0.1
		c0.4,0,0.7,0.1,1.1,0.2c0.3,0.1,0.6,0.2,0.8,0.4c0.2,0.2,0.4,0.4,0.5,0.7S339.6,276.2,339.6,276.6z"/>
	<path class="st6" d="M347.8,279.2v-5.5c0-0.8-0.2-1.4-0.6-1.8c-0.4-0.4-0.9-0.6-1.6-0.6s-1.2,0.2-1.6,0.6c-0.4,0.4-0.6,1-0.6,1.8
		v5.5h-1.3v-8.9h1.3v1c0.3-0.4,0.7-0.6,1.1-0.8c0.4-0.2,0.9-0.3,1.4-0.3c1,0,1.7,0.3,2.3,0.8c0.6,0.6,0.9,1.4,0.9,2.5v5.7H347.8z"/>
	<path class="st6" d="M357.8,279.2v-1c-0.3,0.4-0.7,0.6-1.1,0.8s-0.9,0.3-1.4,0.3c-1,0-1.7-0.3-2.3-0.8c-0.3-0.3-0.5-0.7-0.7-1.1
		s-0.2-0.9-0.2-1.4v-5.7h1.3v5.5c0,0.8,0.2,1.4,0.6,1.8s0.9,0.6,1.6,0.6s1.2-0.2,1.6-0.6c0.4-0.4,0.6-1,0.6-1.8v-5.5h1.3v8.9H357.8z
		"/>
	<path class="st6" d="M373.7,279.2v-5.5c0-0.8-0.2-1.4-0.6-1.8c-0.4-0.4-0.9-0.6-1.6-0.6c-0.6,0-1.2,0.2-1.6,0.6
		c-0.4,0.4-0.6,0.9-0.6,1.6v5.6H368v-5.5c0-0.8-0.2-1.4-0.6-1.8c-0.4-0.4-0.9-0.6-1.6-0.6s-1.2,0.2-1.6,0.6c-0.4,0.4-0.6,1-0.6,1.8
		v5.5h-1.3v-8.9h1.3v1c0.3-0.4,0.7-0.6,1.1-0.8c0.4-0.2,0.9-0.3,1.4-0.3c0.6,0,1.1,0.1,1.6,0.4s0.8,0.6,1.1,1.1
		c0.7-1,1.7-1.5,2.9-1.5c0.5,0,0.9,0.1,1.3,0.2c0.4,0.1,0.7,0.3,1,0.6c0.6,0.6,1,1.4,1,2.5v5.7H373.7z"/>
	<path class="st6" d="M389.6,279.2v-5.5c0-0.8-0.2-1.4-0.6-1.8c-0.4-0.4-0.9-0.6-1.6-0.6c-0.6,0-1.2,0.2-1.6,0.6
		c-0.4,0.4-0.6,0.9-0.6,1.6v5.6h-1.3v-5.5c0-0.8-0.2-1.4-0.6-1.8c-0.4-0.4-0.9-0.6-1.6-0.6s-1.2,0.2-1.6,0.6c-0.4,0.4-0.6,1-0.6,1.8
		v5.5h-1.3v-8.9h1.3v1c0.3-0.4,0.7-0.6,1.1-0.8c0.4-0.2,0.9-0.3,1.4-0.3c0.6,0,1.2,0.1,1.6,0.4c0.5,0.2,0.8,0.6,1.1,1.1
		c0.7-1,1.7-1.5,2.9-1.5c0.5,0,0.9,0.1,1.3,0.2c0.4,0.1,0.7,0.3,1,0.6c0.6,0.6,1,1.4,1,2.5v5.7H389.6z"/>
	<path class="st6" d="M394.8,275.1c0,1,0.2,1.7,0.7,2.3c0.4,0.5,1.1,0.8,2,0.8c0.5,0,0.9-0.1,1.3-0.2c0.3-0.2,0.7-0.4,1-0.8l0.9,0.8
		c-0.2,0.2-0.5,0.4-0.7,0.6c-0.2,0.2-0.5,0.3-0.7,0.4c-0.3,0.1-0.5,0.2-0.8,0.3c-0.3,0.1-0.6,0.1-1,0.1c-0.6,0-1.1-0.1-1.6-0.3
		c-0.5-0.2-0.9-0.5-1.2-0.8c-0.3-0.4-0.6-0.8-0.8-1.4c-0.2-0.6-0.3-1.2-0.3-2c0-1.5,0.3-2.6,1-3.4c0.6-0.8,1.5-1.2,2.7-1.2
		c1.2,0,2.1,0.4,2.7,1.1c0.6,0.8,0.9,1.8,0.9,3.2v0.6H394.8z M399.5,274.2c0-0.2,0-0.3,0-0.5c0-0.1,0-0.3,0-0.4c0-0.1,0-0.2-0.1-0.3
		c0-0.1-0.1-0.2-0.1-0.3c-0.2-0.4-0.5-0.7-0.8-1c-0.4-0.2-0.8-0.4-1.3-0.4c-0.5,0-0.9,0.1-1.3,0.4c-0.4,0.2-0.6,0.6-0.8,1
		c-0.1,0.1-0.1,0.2-0.1,0.3c0,0.1-0.1,0.2-0.1,0.3c0,0.1,0,0.2,0,0.4c0,0.1,0,0.3,0,0.5H399.5z"/>
	<path class="st6" d="M408.5,272.1c-0.2-0.2-0.5-0.4-0.7-0.5s-0.5-0.1-0.8-0.1c-0.3,0-0.6,0.1-0.9,0.2c-0.3,0.1-0.5,0.3-0.7,0.5
		c-0.2,0.2-0.3,0.5-0.4,0.8c-0.1,0.3-0.2,0.6-0.2,0.9v5.4h-1.3v-8.9h1.3v1.1c0.2-0.4,0.6-0.7,1-0.9c0.5-0.2,0.9-0.3,1.4-0.3
		c0.4,0,0.8,0.1,1.1,0.2s0.7,0.3,1,0.6L408.5,272.1z"/>
</g>
<rect x="278.6" y="384.9" class="st7" width="109.4" height="48.8"/>
<rect x="300.9" y="403" class="st4" width="86.4" height="32.8"/>
<g class="st5">
	<path class="st6" d="M302.7,415.8V403h1.4v11.6h6.6v1.2H302.7z"/>
	<path class="st6" d="M319.6,411.4c0,0.7-0.1,1.3-0.2,1.9c-0.1,0.6-0.4,1.1-0.9,1.6c-0.3,0.3-0.7,0.6-1.1,0.7s-0.9,0.3-1.4,0.3
		s-1-0.1-1.4-0.3c-0.4-0.2-0.8-0.4-1.1-0.7c-0.2-0.2-0.4-0.5-0.5-0.7c-0.1-0.3-0.2-0.6-0.3-0.8s-0.1-0.6-0.2-0.9c0-0.3,0-0.7,0-1
		c0-0.7,0.1-1.3,0.2-1.9c0.1-0.6,0.4-1.1,0.9-1.6c0.3-0.3,0.7-0.6,1.1-0.7c0.4-0.2,0.9-0.3,1.4-0.3s1,0.1,1.4,0.3
		c0.4,0.2,0.8,0.4,1.1,0.7c0.5,0.5,0.7,1,0.9,1.6C319.5,410.1,319.6,410.7,319.6,411.4z M318.3,411.4c0-0.5,0-1-0.1-1.5
		c-0.1-0.5-0.3-0.9-0.6-1.2c-0.4-0.4-1-0.6-1.6-0.6c-0.6,0-1.2,0.2-1.6,0.6c-0.3,0.3-0.5,0.7-0.6,1.2s-0.1,1-0.1,1.5
		c0,0.3,0,0.5,0,0.8c0,0.3,0,0.5,0.1,0.7c0,0.2,0.1,0.5,0.2,0.7c0.1,0.2,0.2,0.4,0.4,0.6c0.4,0.4,1,0.6,1.6,0.6
		c0.6,0,1.2-0.2,1.6-0.6c0.3-0.3,0.5-0.7,0.6-1.2C318.2,412.4,318.3,411.9,318.3,411.4z"/>
	<path class="st6" d="M328.9,416.1c0,0.6-0.1,1.1-0.3,1.5s-0.4,0.9-0.7,1.2c-0.3,0.3-0.7,0.6-1.2,0.8c-0.5,0.2-1,0.3-1.6,0.3
		c-0.3,0-0.6,0-0.9-0.1c-0.3,0-0.5-0.1-0.7-0.2s-0.5-0.2-0.7-0.4c-0.2-0.1-0.4-0.3-0.7-0.5l0.8-0.8c0.2,0.1,0.3,0.3,0.5,0.4
		c0.1,0.1,0.3,0.2,0.5,0.3s0.3,0.1,0.5,0.2c0.2,0,0.4,0.1,0.7,0.1c0.4,0,0.8-0.1,1.1-0.2c0.3-0.1,0.6-0.3,0.8-0.6
		c0.2-0.2,0.3-0.5,0.4-0.9c0.1-0.3,0.1-0.7,0.1-1.1v-1.4c-0.4,0.5-0.7,0.8-1.2,0.9c-0.4,0.2-0.9,0.2-1.3,0.2c-0.5,0-0.9-0.1-1.2-0.2
		c-0.4-0.1-0.7-0.3-0.9-0.6c-0.4-0.4-0.7-1-0.9-1.6c-0.1-0.6-0.2-1.3-0.2-2.1s0.1-1.4,0.2-2.1c0.1-0.6,0.4-1.2,0.9-1.6
		c0.2-0.2,0.5-0.4,0.9-0.6s0.8-0.2,1.2-0.2c0.5,0,0.9,0.1,1.3,0.2c0.4,0.2,0.8,0.5,1.1,0.9v-1h1.3V416.1z M327.6,411.3
		c0-0.4,0-0.8-0.1-1.2c0-0.4-0.2-0.8-0.3-1.1c-0.2-0.3-0.4-0.6-0.7-0.7c-0.3-0.2-0.7-0.3-1.2-0.3c-0.5,0-0.9,0.1-1.2,0.3
		c-0.3,0.2-0.5,0.4-0.7,0.7c-0.2,0.3-0.3,0.7-0.3,1.1c0,0.4-0.1,0.8-0.1,1.2c0,0.4,0,0.8,0.1,1.2c0,0.4,0.1,0.7,0.3,1.1
		c0.2,0.3,0.4,0.6,0.7,0.7c0.3,0.2,0.7,0.3,1.2,0.3c0.5,0,0.9-0.1,1.2-0.3c0.3-0.2,0.5-0.4,0.7-0.7c0.2-0.3,0.3-0.7,0.3-1.1
		C327.6,412.1,327.6,411.7,327.6,411.3z"/>
	<path class="st6" d="M338.6,416.1c0,0.6-0.1,1.1-0.3,1.5s-0.4,0.9-0.7,1.2c-0.3,0.3-0.7,0.6-1.2,0.8c-0.5,0.2-1,0.3-1.6,0.3
		c-0.3,0-0.6,0-0.9-0.1c-0.3,0-0.5-0.1-0.7-0.2s-0.5-0.2-0.7-0.4c-0.2-0.1-0.4-0.3-0.7-0.5l0.8-0.8c0.2,0.1,0.3,0.3,0.5,0.4
		c0.1,0.1,0.3,0.2,0.5,0.3s0.3,0.1,0.5,0.2c0.2,0,0.4,0.1,0.7,0.1c0.4,0,0.8-0.1,1.1-0.2c0.3-0.1,0.6-0.3,0.8-0.6
		c0.2-0.2,0.3-0.5,0.4-0.9c0.1-0.3,0.1-0.7,0.1-1.1v-1.4c-0.4,0.5-0.7,0.8-1.2,0.9c-0.4,0.2-0.9,0.2-1.3,0.2c-0.5,0-0.9-0.1-1.2-0.2
		c-0.4-0.1-0.7-0.3-0.9-0.6c-0.4-0.4-0.7-1-0.9-1.6c-0.1-0.6-0.2-1.3-0.2-2.1s0.1-1.4,0.2-2.1c0.1-0.6,0.4-1.2,0.9-1.6
		c0.2-0.2,0.5-0.4,0.9-0.6s0.8-0.2,1.2-0.2c0.5,0,0.9,0.1,1.3,0.2c0.4,0.2,0.8,0.5,1.1,0.9v-1h1.3V416.1z M337.4,411.3
		c0-0.4,0-0.8-0.1-1.2c0-0.4-0.2-0.8-0.3-1.1c-0.2-0.3-0.4-0.6-0.7-0.7c-0.3-0.2-0.7-0.3-1.2-0.3c-0.5,0-0.9,0.1-1.2,0.3
		c-0.3,0.2-0.5,0.4-0.7,0.7c-0.2,0.3-0.3,0.7-0.3,1.1c0,0.4-0.1,0.8-0.1,1.2c0,0.4,0,0.8,0.1,1.2c0,0.4,0.1,0.7,0.3,1.1
		c0.2,0.3,0.4,0.6,0.7,0.7c0.3,0.2,0.7,0.3,1.2,0.3c0.5,0,0.9-0.1,1.2-0.3c0.3-0.2,0.5-0.4,0.7-0.7c0.2-0.3,0.3-0.7,0.3-1.1
		C337.3,412.1,337.4,411.7,337.4,411.3z"/>
	<path class="st6" d="M346.3,404.4V403h1.5v1.5H346.3z M346.4,415.8V407h1.3v8.9H346.4z"/>
	<path class="st6" d="M356.6,415.8v-5.5c0-0.8-0.2-1.4-0.6-1.8c-0.4-0.4-0.9-0.6-1.6-0.6s-1.2,0.2-1.6,0.6c-0.4,0.4-0.6,1-0.6,1.8
		v5.5h-1.3V407h1.3v1c0.3-0.4,0.7-0.6,1.1-0.8c0.4-0.2,0.9-0.3,1.4-0.3c1,0,1.7,0.3,2.3,0.8c0.6,0.6,0.9,1.4,0.9,2.5v5.7H356.6z"/>
	<path class="st6" d="M366.7,415.8v-5.5c0-0.8-0.2-1.4-0.6-1.8c-0.4-0.4-0.9-0.6-1.6-0.6s-1.2,0.2-1.6,0.6c-0.4,0.4-0.6,1-0.6,1.8
		v5.5H361V407h1.3v1c0.3-0.4,0.7-0.6,1.1-0.8c0.4-0.2,0.9-0.3,1.4-0.3c1,0,1.7,0.3,2.3,0.8c0.6,0.6,0.9,1.4,0.9,2.5v5.7H366.7z"/>
</g>
<rect x="277.9" y="211.4" class="st4" width="200.7" height="34.8"/>
<g class="st5">
	<path class="st6" d="M279.7,224.2v-12.8h8v1.2h-6.6v4.5h5.6v1.2h-5.6v4.6h6.6v1.2H279.7z"/>
	<path class="st6" d="M292.5,224.2c-0.8,0-1.4-0.2-1.7-0.7s-0.5-1-0.5-1.7v-10.5h1.3v10.4c0,0.4,0.1,0.8,0.3,1
		c0.2,0.2,0.5,0.3,0.9,0.3h0.7v1.1H292.5z"/>
	<path class="st6" d="M296.2,220.1c0,1,0.2,1.7,0.7,2.3c0.4,0.5,1.1,0.8,2,0.8c0.5,0,0.9-0.1,1.3-0.2c0.3-0.2,0.7-0.4,1-0.8l0.9,0.8
		c-0.2,0.2-0.5,0.4-0.7,0.6s-0.5,0.3-0.7,0.4c-0.3,0.1-0.5,0.2-0.8,0.3c-0.3,0.1-0.6,0.1-1,0.1c-0.6,0-1.1-0.1-1.6-0.3
		s-0.9-0.5-1.2-0.8c-0.3-0.4-0.6-0.8-0.8-1.4c-0.2-0.6-0.3-1.2-0.3-2c0-1.5,0.3-2.6,1-3.4s1.5-1.2,2.7-1.2c1.2,0,2.1,0.4,2.7,1.1
		c0.6,0.8,0.9,1.8,0.9,3.2v0.6H296.2z M300.9,219.1c0-0.2,0-0.3,0-0.5c0-0.1,0-0.3,0-0.4c0-0.1,0-0.2-0.1-0.3c0-0.1-0.1-0.2-0.1-0.3
		c-0.2-0.4-0.5-0.7-0.8-1s-0.8-0.4-1.3-0.4s-0.9,0.1-1.3,0.4s-0.6,0.6-0.8,1c-0.1,0.1-0.1,0.2-0.1,0.3c0,0.1-0.1,0.2-0.1,0.3
		c0,0.1,0,0.2,0,0.4c0,0.1,0,0.3,0,0.5H300.9z"/>
	<path class="st6" d="M310.8,224.2l-2.8-4.5l-1.7,2v2.6h-1.3v-12.8h1.3v8.6l4-4.6h1.6l-3,3.4l3.5,5.5H310.8z"/>
	<path class="st6" d="M317.1,224.2c-0.4,0-0.7-0.1-1-0.2c-0.3-0.1-0.5-0.3-0.7-0.5s-0.3-0.5-0.4-0.8c-0.1-0.3-0.1-0.6-0.1-0.9v-5.5
		h-1.1v-1h1.1v-2.7h1.3v2.7h1.9v1h-1.9v5.5c0,0.4,0.1,0.7,0.3,1c0.2,0.2,0.5,0.3,0.9,0.3h0.7v1.1H317.1z"/>
	<path class="st6" d="M325.5,217c-0.2-0.2-0.5-0.4-0.7-0.5c-0.2-0.1-0.5-0.1-0.8-0.1c-0.3,0-0.6,0.1-0.9,0.2
		c-0.3,0.1-0.5,0.3-0.7,0.5c-0.2,0.2-0.3,0.5-0.4,0.8s-0.2,0.6-0.2,0.9v5.4h-1.3v-8.9h1.3v1.1c0.2-0.4,0.6-0.7,1-0.9
		c0.4-0.2,0.9-0.3,1.4-0.3c0.4,0,0.8,0.1,1.1,0.2s0.7,0.3,1,0.6L325.5,217z"/>
	<path class="st6" d="M334.4,219.7c0,0.7-0.1,1.3-0.2,1.9c-0.1,0.6-0.4,1.1-0.9,1.6c-0.3,0.3-0.7,0.6-1.1,0.7s-0.9,0.3-1.4,0.3
		s-1-0.1-1.4-0.3c-0.4-0.2-0.8-0.4-1.1-0.7c-0.2-0.2-0.4-0.5-0.5-0.7c-0.1-0.3-0.2-0.6-0.3-0.8s-0.1-0.6-0.2-0.9c0-0.3,0-0.7,0-1
		c0-0.7,0.1-1.3,0.2-1.9c0.1-0.6,0.4-1.1,0.9-1.6c0.3-0.3,0.7-0.6,1.1-0.7c0.4-0.2,0.9-0.3,1.4-0.3s1,0.1,1.4,0.3
		c0.4,0.2,0.8,0.4,1.1,0.7c0.5,0.5,0.7,1,0.9,1.6C334.3,218.4,334.4,219.1,334.4,219.7z M333.1,219.7c0-0.5,0-1-0.1-1.5
		c-0.1-0.5-0.3-0.9-0.6-1.2c-0.4-0.4-1-0.6-1.6-0.6c-0.6,0-1.2,0.2-1.6,0.6c-0.3,0.3-0.5,0.7-0.6,1.2s-0.1,1-0.1,1.5
		c0,0.3,0,0.5,0,0.8c0,0.3,0,0.5,0.1,0.7c0,0.2,0.1,0.5,0.2,0.7c0.1,0.2,0.2,0.4,0.4,0.6c0.4,0.4,1,0.6,1.6,0.6
		c0.6,0,1.2-0.2,1.6-0.6c0.3-0.3,0.5-0.7,0.6-1.2C333,220.7,333.1,220.2,333.1,219.7z"/>
	<path class="st6" d="M342.8,224.2v-5.5c0-0.8-0.2-1.4-0.6-1.8c-0.4-0.4-0.9-0.6-1.6-0.6s-1.2,0.2-1.6,0.6c-0.4,0.4-0.6,1-0.6,1.8
		v5.5h-1.3v-8.9h1.3v1c0.3-0.4,0.7-0.6,1.1-0.8c0.4-0.2,0.9-0.3,1.4-0.3c1,0,1.7,0.3,2.3,0.8c0.6,0.6,0.9,1.4,0.9,2.5v5.7H342.8z"/>
	<path class="st6" d="M347.2,212.8v-1.5h1.5v1.5H347.2z M347.3,224.2v-8.9h1.3v8.9H347.3z"/>
	<path class="st6" d="M358.2,221.6c0,0.9-0.3,1.5-1,2c-0.7,0.5-1.5,0.7-2.6,0.7c-0.8,0-1.4-0.1-2-0.3c-0.6-0.2-1.1-0.5-1.6-1
		l0.9-0.9c0.3,0.4,0.8,0.6,1.2,0.8c0.5,0.2,1,0.2,1.5,0.2c0.7,0,1.3-0.1,1.7-0.4c0.4-0.3,0.6-0.7,0.6-1.2c0-0.4-0.1-0.7-0.3-0.9
		c-0.2-0.2-0.6-0.3-1.1-0.4l-1.5-0.1c-0.9-0.1-1.5-0.3-2-0.7c-0.5-0.4-0.7-0.9-0.7-1.7c0-0.4,0.1-0.8,0.2-1.1s0.4-0.6,0.7-0.8
		c0.3-0.2,0.6-0.4,1-0.5s0.8-0.2,1.3-0.2c0.6,0,1.2,0.1,1.8,0.2c0.5,0.2,1,0.4,1.4,0.7l-0.8,0.8c-0.3-0.2-0.7-0.4-1.1-0.5
		c-0.4-0.1-0.8-0.2-1.3-0.2c-0.6,0-1.1,0.1-1.5,0.4c-0.3,0.3-0.5,0.6-0.5,1.1c0,0.4,0.1,0.7,0.4,0.9s0.7,0.3,1.2,0.4l1.4,0.1
		c0.4,0,0.7,0.1,1.1,0.2c0.3,0.1,0.6,0.2,0.8,0.4c0.2,0.2,0.4,0.4,0.5,0.7S358.2,221.2,358.2,221.6z"/>
	<path class="st6" d="M366.6,224.2l-2.8-4.5l-1.7,2v2.6h-1.3v-12.8h1.3v8.6l4-4.6h1.6l-3,3.4l3.5,5.5H366.6z"/>
	<path class="st6" d="M375.1,224.2v-12.8h1.4v12.8H375.1z"/>
	<path class="st6" d="M389.1,217.8c0,0.5,0,1,0,1.4c0,0.5-0.1,0.9-0.1,1.4c-0.1,0.4-0.2,0.8-0.3,1.2c-0.1,0.4-0.4,0.7-0.7,1
		c-0.4,0.5-0.9,0.8-1.5,1s-1.2,0.3-1.9,0.3h-4.4v-12.8h4.4c0.7,0,1.4,0.1,1.9,0.3s1,0.6,1.5,1c0.3,0.3,0.5,0.7,0.7,1
		c0.2,0.4,0.3,0.8,0.3,1.2c0.1,0.4,0.1,0.9,0.1,1.4C389,216.8,389.1,217.3,389.1,217.8z M387.7,217.8c0-0.4,0-0.9,0-1.3
		c0-0.4,0-0.8-0.1-1.2c-0.1-0.4-0.1-0.7-0.3-1s-0.3-0.6-0.5-0.8c-0.3-0.4-0.7-0.6-1.1-0.7c-0.4-0.1-0.9-0.2-1.4-0.2h-2.8v10.4h2.8
		c0.5,0,1-0.1,1.4-0.2c0.4-0.1,0.8-0.4,1.1-0.7c0.2-0.2,0.4-0.5,0.5-0.8c0.1-0.3,0.2-0.6,0.3-1c0.1-0.4,0.1-0.8,0.1-1.2
		C387.7,218.6,387.7,218.2,387.7,217.8z"/>
</g>
<path class="st0" d="M299,653.2h-87.2H-52"/>
<polyline class="st0" points="812,602.1 543.9,602.1 508.6,602.1 "/>
</svg>
