<?xml version="1.0" encoding="utf-8"?>
<!-- Generator: Adobe Illustrator 22.1.0, SVG Export Plug-In . SVG Version: 6.00 Build 0)  -->
<svg version="1.1" id="Layer_1" xmlns="http://www.w3.org/2000/svg" xmlns:xlink="http://www.w3.org/1999/xlink" x="0px" y="0px"
	 viewBox="0 0 740 740" style="enable-background:new 0 0 740 740;" xml:space="preserve">
<style type="text/css">
	.st0{fill:none;stroke:#41A9DF;stroke-width:4.133;stroke-miterlimit:10;}
	.st1{opacity:0.2;fill:#1EAEF7;enable-background:new    ;}
	.st2{fill:none;stroke:#41A9DF;stroke-width:3;stroke-miterlimit:10;}
	.st3{fill:none;stroke:#1EAEF7;stroke-width:3;stroke-miterlimit:10;}
	.st4{fill:#1FB1E6;}
	.st5{fill:none;}
	.st6{enable-background:new    ;}
	.st7{fill:#404041;}
</style>
<path class="st0" d="M242.2,689.7"/>
<rect x="58.1" y="154.3" class="st1" width="626" height="332"/>
<line class="st2" x1="684.1" y1="486.3" x2="58.1" y2="486.3"/>
<g>
	<path class="st3" d="M421.7,572.1v64.8h0.1h119.7c4.9,0,8.9,4,8.9,8.9l0,0c0,4.9-4,8.9-8.9,8.9H348.6h-45.4H200.7
		c-4.9,0-8.9-4-8.9-8.9l0,0c0-4.9,4-8.9,8.9-8.9h119.7v-64.8"/>
</g>
<path class="st4" d="M435.8,363H307.5c-15.9,0-28.8-12.9-28.8-28.8l0,0c0-15.9,12.9-28.8,28.8-28.8h128.3
	c15.9,0,28.8,12.9,28.8,28.8l0,0C464.6,350.1,451.7,363,435.8,363z"/>
<rect x="305" y="326.8" class="st5" width="193.8" height="38.6"/>
<g class="st6">
	<path class="st7" d="M316.3,337.7c0,0.7-0.1,1.3-0.4,1.8c-0.2,0.5-0.6,1-1.1,1.3s-1,0.7-1.6,0.8c-0.6,0.2-1.4,0.3-2.2,0.3
		c-0.6,0-1.1,0-1.6-0.1c-0.5-0.1-0.9-0.2-1.3-0.4c-0.4-0.2-0.8-0.4-1.2-0.6s-0.7-0.6-1.1-0.9l1.1-1.1c0.6,0.6,1.3,1.1,1.9,1.3
		c0.6,0.2,1.4,0.4,2.2,0.4c1.1,0,2-0.2,2.6-0.7s1-1.2,1-2.1c0-0.8-0.2-1.5-0.7-1.9c-0.1-0.1-0.2-0.2-0.4-0.3
		c-0.1-0.1-0.3-0.1-0.4-0.2c-0.1-0.1-0.3-0.1-0.5-0.1c-0.2,0-0.4-0.1-0.7-0.1l-1.8-0.3c-1.2-0.2-2.1-0.6-2.8-1.1
		c-0.8-0.7-1.2-1.6-1.2-2.8c0-0.6,0.1-1.2,0.3-1.7c0.2-0.5,0.5-1,1-1.3c0.4-0.4,0.9-0.7,1.5-0.9s1.3-0.3,2-0.3c1,0,1.8,0.1,2.5,0.4
		c0.7,0.3,1.4,0.7,2,1.3l-1,1c-0.5-0.4-1-0.8-1.5-1s-1.2-0.3-2-0.3c-1,0-1.8,0.3-2.4,0.8c-0.6,0.5-0.8,1.2-0.8,2
		c0,0.8,0.2,1.4,0.7,1.8c0.2,0.2,0.5,0.4,0.9,0.5c0.3,0.1,0.7,0.2,1.1,0.3l1.8,0.3c0.7,0.1,1.2,0.2,1.6,0.4c0.4,0.1,0.8,0.4,1.1,0.7
		c0.4,0.4,0.7,0.8,0.9,1.3C316.2,336.5,316.3,337.1,316.3,337.7z"/>
	<path class="st7" d="M320.4,337.1c0,1.1,0.3,2,0.8,2.7c0.5,0.6,1.3,0.9,2.3,0.9c0.6,0,1.1-0.1,1.5-0.3c0.4-0.2,0.8-0.5,1.2-0.9
		l1,0.9c-0.3,0.3-0.5,0.5-0.8,0.7c-0.3,0.2-0.5,0.4-0.8,0.5c-0.3,0.1-0.6,0.2-1,0.3c-0.4,0.1-0.8,0.1-1.2,0.1
		c-0.7,0-1.3-0.1-1.9-0.3c-0.6-0.2-1-0.5-1.4-1c-0.4-0.4-0.7-1-0.9-1.7c-0.2-0.7-0.3-1.5-0.3-2.4c0-1.7,0.4-3,1.1-4
		c0.8-0.9,1.8-1.4,3.1-1.4c1.4,0,2.4,0.4,3.2,1.3c0.7,0.9,1.1,2.1,1.1,3.7v0.7H320.4z M325.9,335.9c0-0.2,0-0.4,0-0.6
		c0-0.2,0-0.3-0.1-0.4c0-0.1-0.1-0.3-0.1-0.4c0-0.1-0.1-0.3-0.1-0.4c-0.2-0.5-0.5-0.9-1-1.1c-0.4-0.3-0.9-0.4-1.5-0.4
		s-1.1,0.1-1.5,0.4c-0.4,0.3-0.7,0.7-1,1.1c-0.1,0.1-0.1,0.3-0.2,0.4c0,0.1-0.1,0.2-0.1,0.4c0,0.1,0,0.3,0,0.4c0,0.2,0,0.3,0,0.6
		H325.9z"/>
	<path class="st7" d="M337.4,341.9v-6.4c0-0.9-0.2-1.6-0.7-2.1c-0.5-0.5-1.1-0.7-1.9-0.7c-0.8,0-1.4,0.2-1.9,0.7
		c-0.5,0.5-0.7,1.2-0.7,2.1v6.4h-1.5v-10.5h1.5v1.1c0.4-0.4,0.8-0.7,1.3-1c0.5-0.2,1-0.3,1.6-0.3c1.1,0,2,0.3,2.7,1
		c0.7,0.7,1.1,1.7,1.1,2.9v6.7H337.4z"/>
	<path class="st7" d="M348.9,341.9v-1.3c-0.4,0.6-0.9,0.9-1.4,1.1c-0.5,0.2-1,0.3-1.6,0.3c-0.5,0-1-0.1-1.5-0.2
		c-0.4-0.2-0.8-0.4-1.1-0.7c-0.5-0.5-0.9-1.2-1-2c-0.2-0.8-0.2-1.6-0.2-2.5c0-0.4,0-0.8,0.1-1.3c0-0.4,0.1-0.8,0.2-1.2
		c0.1-0.4,0.2-0.7,0.4-1.1s0.4-0.6,0.6-0.9c0.3-0.3,0.6-0.5,1.1-0.7s0.9-0.2,1.5-0.2c0.6,0,1.1,0.1,1.6,0.3c0.5,0.2,0.9,0.5,1.4,1.1
		v-5.9h1.5v15.1H348.9z M348.9,336.7c0-0.5,0-1-0.1-1.5s-0.2-0.9-0.4-1.3c-0.2-0.4-0.4-0.7-0.8-0.9c-0.3-0.2-0.8-0.3-1.4-0.3
		c-0.6,0-1,0.1-1.4,0.3s-0.6,0.5-0.8,0.9c-0.2,0.4-0.3,0.8-0.4,1.3c-0.1,0.5-0.1,1-0.1,1.5s0,1,0.1,1.5c0.1,0.5,0.2,0.9,0.4,1.3
		c0.2,0.4,0.5,0.7,0.8,0.9s0.8,0.3,1.4,0.3c0.6,0,1-0.1,1.4-0.3c0.3-0.2,0.6-0.5,0.8-0.9c0.2-0.4,0.3-0.8,0.4-1.3
		S348.9,337.2,348.9,336.7z"/>
	<path class="st7" d="M372.9,341.9v-6.4c0-0.9-0.2-1.6-0.7-2.1c-0.5-0.5-1.1-0.7-1.9-0.7c-0.8,0-1.4,0.2-1.9,0.7
		c-0.5,0.5-0.7,1.1-0.7,1.9v6.6h-1.5v-6.4c0-0.9-0.2-1.6-0.7-2.1c-0.5-0.5-1.1-0.7-1.9-0.7s-1.4,0.2-1.9,0.7
		c-0.5,0.5-0.7,1.2-0.7,2.1v6.4h-1.5v-10.5h1.5v1.1c0.4-0.4,0.8-0.7,1.3-1c0.5-0.2,1.1-0.3,1.6-0.3c0.7,0,1.4,0.1,1.9,0.4
		c0.5,0.3,1,0.7,1.3,1.3c0.8-1.2,2-1.7,3.4-1.7c0.6,0,1.1,0.1,1.5,0.3c0.5,0.2,0.8,0.4,1.2,0.7c0.8,0.7,1.1,1.7,1.1,2.9v6.7H372.9z"
		/>
	<path class="st7" d="M379.1,337.1c0,1.1,0.3,2,0.8,2.7c0.5,0.6,1.3,0.9,2.3,0.9c0.6,0,1.1-0.1,1.5-0.3c0.4-0.2,0.8-0.5,1.2-0.9
		l1,0.9c-0.3,0.3-0.5,0.5-0.8,0.7s-0.5,0.4-0.8,0.5c-0.3,0.1-0.6,0.2-1,0.3c-0.4,0.1-0.8,0.1-1.2,0.1c-0.7,0-1.3-0.1-1.9-0.3
		c-0.6-0.2-1-0.5-1.4-1c-0.4-0.4-0.7-1-0.9-1.7c-0.2-0.7-0.3-1.5-0.3-2.4c0-1.7,0.4-3,1.1-4c0.8-0.9,1.8-1.4,3.1-1.4
		c1.4,0,2.4,0.4,3.2,1.3c0.7,0.9,1.1,2.1,1.1,3.7v0.7H379.1z M384.7,335.9c0-0.2,0-0.4,0-0.6c0-0.2,0-0.3-0.1-0.4
		c0-0.1-0.1-0.3-0.1-0.4c0-0.1-0.1-0.3-0.1-0.4c-0.2-0.5-0.5-0.9-1-1.1c-0.4-0.3-0.9-0.4-1.5-0.4s-1.1,0.1-1.5,0.4
		c-0.4,0.3-0.7,0.7-1,1.1c-0.1,0.1-0.1,0.3-0.2,0.4c0,0.1-0.1,0.2-0.1,0.4c0,0.1,0,0.3,0,0.4s0,0.3,0,0.6H384.7z"/>
	<path class="st7" d="M392,341.9c-0.9,0-1.6-0.3-2-0.8c-0.4-0.5-0.6-1.2-0.6-2v-12.3h1.5v12.3c0,0.5,0.1,0.9,0.3,1.1
		s0.6,0.4,1.1,0.4h0.8v1.3H392z"/>
	<path class="st7" d="M401.7,341.9v-1.3c-0.4,0.6-0.9,0.9-1.4,1.1c-0.5,0.2-1,0.3-1.6,0.3c-0.5,0-1-0.1-1.5-0.2
		c-0.4-0.2-0.8-0.4-1.1-0.7c-0.5-0.5-0.9-1.2-1-2c-0.2-0.8-0.2-1.6-0.2-2.5c0-0.4,0-0.8,0.1-1.3c0-0.4,0.1-0.8,0.2-1.2
		c0.1-0.4,0.2-0.7,0.4-1.1s0.4-0.6,0.6-0.9c0.3-0.3,0.6-0.5,1.1-0.7c0.4-0.2,0.9-0.2,1.5-0.2c0.6,0,1.1,0.1,1.6,0.3
		c0.5,0.2,0.9,0.5,1.4,1.1v-5.9h1.5v15.1H401.7z M401.7,336.7c0-0.5,0-1-0.1-1.5s-0.2-0.9-0.4-1.3c-0.2-0.4-0.5-0.7-0.8-0.9
		s-0.8-0.3-1.4-0.3c-0.6,0-1,0.1-1.4,0.3s-0.6,0.5-0.8,0.9s-0.3,0.8-0.4,1.3s-0.1,1-0.1,1.5s0,1,0.1,1.5s0.2,0.9,0.4,1.3
		s0.5,0.7,0.8,0.9s0.8,0.3,1.4,0.3c0.6,0,1-0.1,1.4-0.3s0.6-0.5,0.8-0.9c0.2-0.4,0.3-0.8,0.4-1.3S401.7,337.2,401.7,336.7z"/>
	<path class="st7" d="M407,328.5v-1.7h1.7v1.7H407z M407,341.9v-10.5h1.5v10.5H407z"/>
	<path class="st7" d="M419.1,341.9v-6.4c0-0.9-0.2-1.6-0.7-2.1c-0.5-0.5-1.1-0.7-1.9-0.7s-1.4,0.2-1.9,0.7c-0.5,0.5-0.7,1.2-0.7,2.1
		v6.4h-1.5v-10.5h1.5v1.1c0.4-0.4,0.8-0.7,1.3-1c0.5-0.2,1-0.3,1.6-0.3c1.1,0,2,0.3,2.7,1c0.7,0.7,1.1,1.7,1.1,2.9v6.7H419.1z"/>
	<path class="st7" d="M432,342.2c0,0.7-0.1,1.3-0.3,1.8s-0.5,1-0.8,1.4s-0.8,0.7-1.4,0.9s-1.2,0.3-1.8,0.3c-0.4,0-0.8,0-1.1-0.1
		s-0.6-0.1-0.9-0.2s-0.5-0.3-0.8-0.4s-0.5-0.4-0.8-0.6l1-1c0.2,0.2,0.4,0.3,0.5,0.4c0.2,0.1,0.4,0.2,0.6,0.3s0.4,0.2,0.6,0.2
		c0.2,0,0.5,0.1,0.8,0.1c0.5,0,0.9-0.1,1.3-0.3s0.7-0.4,0.9-0.7c0.2-0.3,0.4-0.6,0.5-1c0.1-0.4,0.2-0.8,0.2-1.3v-1.6
		c-0.4,0.5-0.9,0.9-1.4,1.1c-0.5,0.2-1,0.3-1.6,0.3c-0.5,0-1-0.1-1.5-0.3s-0.8-0.4-1.1-0.7c-0.5-0.5-0.9-1.2-1-1.9s-0.2-1.6-0.2-2.4
		s0.1-1.7,0.2-2.4s0.5-1.4,1-1.9c0.3-0.3,0.6-0.5,1.1-0.7s0.9-0.2,1.5-0.2c0.6,0,1.1,0.1,1.6,0.3c0.5,0.2,0.9,0.5,1.3,1.1v-1.2h1.5
		V342.2z M430.5,336.6c0-0.5,0-1-0.1-1.4c-0.1-0.5-0.2-0.9-0.4-1.3c-0.2-0.4-0.4-0.7-0.8-0.9s-0.8-0.3-1.4-0.3s-1,0.1-1.4,0.3
		s-0.6,0.5-0.8,0.9c-0.2,0.4-0.3,0.8-0.4,1.3c-0.1,0.5-0.1,1-0.1,1.4c0,0.5,0,1,0.1,1.4c0.1,0.5,0.2,0.9,0.4,1.2
		c0.2,0.4,0.4,0.7,0.8,0.9s0.8,0.3,1.4,0.3s1-0.1,1.4-0.3s0.6-0.5,0.8-0.9c0.2-0.4,0.3-0.8,0.4-1.2
		C430.5,337.6,430.5,337.1,430.5,336.6z"/>
</g>
<path class="st3" d="M784,85.9H656.6H92c-19.5,0-35.4,15.8-35.4,35.4V537c0,19.5,15.8,35.4,35.4,35.4h250.5l144.3-0.2h161.1
	c19.5,0,35.4-15.8,35.4-35.4l0.9-382.8h-626"/>
</svg>
