<?xml version="1.0" encoding="utf-8"?>
<!-- Generator: Adobe Illustrator 20.1.0, SVG Export Plug-In . SVG Version: 6.00 Build 0)  -->
<svg version="1.1" id="hjelp" xmlns="http://www.w3.org/2000/svg" xmlns:xlink="http://www.w3.org/1999/xlink" x="0px" y="0px"
	 viewBox="0 0 1024 467.2" style="enable-background:new 0 0 1024 467.2;" xml:space="preserve">
<style type="text/css">
	.st0{fill:#1EAEF7;}
	.st1{fill:#CFF0FF;}
	.st2{fill:#0062BA;}
	.st3{fill:#FFFFFF;}
	.st4{fill:#E23B53;}
	.st5{fill:#3F3161;}
	.st6{fill:#C2F0FF;}
</style>
<g>
	<rect x="-6.6" y="286.6" class="st0" width="1032.9" height="236.5"/>
	<polygon class="st1" points="-6.1,286.6 54.6,286.6 62,282.8 92.1,278.8 117.1,286.6 1025.8,286.6 1025.8,-5.7 -3.6,-5.7 	"/>
	<path class="st2" d="M854.6,432.9c0,0,13.8-1,26.9,1c13.1,2,21.1,1.3,18.8-7.6c-2.3-9-25.9-7.7-38.7,0.3
		C848.7,434.4,854.6,432.9,854.6,432.9z"/>
	<path class="st2" d="M909.7,445.4c0,0,11.9,0.3,18.4-10.6c6.5-10.9,5.9-10.9,11.3-14c7.4-4.2,37.8,12.3,37.8,12.3l56.2-5.7
		l-0.9,17.4c0,0-11.5,0-30.4,4.5c-6.4,1.5-15.5,4.2-26,5.3C957,456.6,932.8,455,909.7,445.4z"/>
	<path class="st2" d="M54.6,286.6c11.1-6.4,27.1-11.9,41.6-7.6c13.9,4.1,25.1,6,37.9,7.6c0,0,3.6,8-6.7,10.8
		c-10.3,2.8-21.1,3.1-21.9,7.1c-0.8,3.9,5.1,1.2,4.7,7.3c-0.4,6.2-12.4,9-29.1,6.1c-16.7-2.9-35.9-1.2-42.5-1.1
		c-6.5,0.1-8.4-4.3-7.9-8.4c0,0,2.6-2,7.5-4.8C45.6,299.2,52.5,289.7,54.6,286.6z"/>
	<path class="st1" d="M774.2,484.3c0,0-16.4-9.1-0.2-20.3c23.5-16.2,60-35.1,98.4-30.8c30.7,3.5,30.9,15.1,67,19.9
		c56.6,7.5,56.9-9.5,99.9-8.3l-12.1,40.2L774.2,484.3z"/>
	<path class="st1" d="M939.2,420.9c9.4-5.7,20.7-14.6,32.8-40.6c12.1-26,36.5-36.5,58.1-29.8l1.9,74.1l-79.1,4.9L939.2,420.9z"/>
	<path class="st1" d="M933.5,381.2c-6.6-6.6-19-9.6-19-9.6l-42.8,2.1l-189.8,0.4v-23.5c0,0,13.7-7.8,25.6-18.9
		c18.9-17.8,47.6-31.1,78.1-27.5c30.5,3.6,89.9,1.1,89.9,1.1l25.6-7.9l77.3,30.7l69.1-24.8l-3.6,71.3L933.5,381.2z"/>
	<path class="st1" d="M693,417.1c0,0-11.2,23.1-67,18.2c-23.8-2.1-47.3,4-64.9,2.9c-26.1-1.5-34.9-7.8-40.4-12.9c0,0,0,0,0,0
		c-11.6-13.7,13.9-18.9,26.2-16.6c12,2.3,18.5,2,30.1-4.6c14.5-8.2,20.8-2.3,30-10.3c10.5-9.1,24.8-4.7,24.8-4.7s3.8-3.2,6.5-1.3
		c0,0-1.4-1.5-5.7-3.7c-11.9-6.3-24.4,0.9-29.7,4.5c-2.6,1.8-8,2.8-15.6,4c-15.2,2.5-18,11.4-34.1,7.5c-17.4-4.2-27.5-1.5-51,5.3
		c-23.5,6.8-88.4,25.5-113.7,25.4c-30.1,0-46.8-9.8-49-23.9c-3.5-22.9,55.6-30.3,92.7-26c13.9,1.6,40.5,6.6,63.2,5.7
		c26-1,61.3-11.4,69.6-17c19.5-13.2,94,3.4,94,3.4l53.9-38.7c0,0-5.6,0.8-14.5-1.2c-3.2-0.7-5.7-6.7-10.1-6.3
		c-21.8,2.2-56.3-4-70.4-4c-22.2,0-71,15-121,24.9c-71.3,14.1-123.1,2.4-124.5-14.9c-0.9-11.9,25.8-21.6-21.5-26.3
		c-34.9-3.5-74.1-0.7-105.7,1.8c-37.9,3-86.5,13.6-135,3.3c-2.6,9.7-23.4,6.1-40.4,4.6c-12.2-1-47.7-1.4-57.3-2.1
		c-10.3,4.9-12.4,3.4-15.1,3.7c-8,1-129.8,4.4-12.3,23.9c117.5,19.5,252.8-21.1,305.5-14.9c39.6,4.7,62,19.4,55.6,34.3
		C320.6,420.7,49.3,381.1,0,366.5c-45.9-13.5-22.8,54.2-22.8,54.2s-9.1,39.9,16.8,24.7C34.5,421.5,104.7,409.5,180,425
		c44.1,9.1,111.3,35.3,141,53.9c46.9,29.5,108.8,2,118-4.7c13.1-9.5,29.8-21.9,68.6-26.6c49.3-5.9,91.4,16.5,148.7,21
		c28.8,2.3,30.3-17.1,43.1-19.2c53.8-8.8,61.6-9.3,84.4-17.2v-17.1L693,417.1z"/>
	<path class="st3" d="M975.6,113.3c-45,4-59.6-15.7-94.6-6c-36.6,10.1-39.5,41.5-99,34.7c-24.3-2.8-75.9-19.1-108.5-10.7
		c-33.1,8.6-47.1,42.1-51.5,45c-10,6.7-11.2-9.9-35-12.1c-16.2-1.5-30,3.8-38.5,6.2s-15.6-8.2-23.4-15.1
		c-19-16.9-55.8-22.8-83.8-1.2s-20.7,15.2-47.6,6c-30-10.2-68.9-7.4-91.5,24.1c0,0-6.2-24.3-32.6-43.7
		c-25.4-18.6-55.4-12.4-82.6-4.4s-49-1.8-69-11.8s-46-20.2-76-12s-51-2-51-2l6,92.7c28.7,0,279.5-15.7,330.5,26.7
		c51,42.3,40.2,57,75.2,57h133.8c0,0,11.8-19.3,38.2-18c26.3,1.3,53.7-0.3,61.7-12.7c8-12.3,24.8-59.8,104.4-63.3
		c45.3-2,52.9-6.3,74.3,21s33.2,48.2,77,25.2c45-23.6,61.8-26.6,133.9-26.6V72.9C1025.9,72.9,1020.6,109.3,975.6,113.3z
		 M883.3,212.4c-10.8-0.6-16.3,8.4-18.6,7.9c-2.3-0.5,2.7-5.3-7.6-8.9c-5.2-1.8-9.6-1.5-9.8-2.6c-0.3-1.1,3-2.7,7.8-2.6
		c8.1,0.2,12,5.3,12,5.3s4.1-3.1,9.8-3.1C882.5,208.6,890.9,212.8,883.3,212.4z M909.3,168.1c0,0-5.3-2.8-12.8-3
		c-7.5-0.3-17.5,8.6-8.9-0.5s19.7-3.6,19.7-3.6c7.8-11.8,16.4-1.6,16.4-1.6C914.1,159,909.3,168.1,909.3,168.1z"/>
	<path class="st3" d="M782.6,219.5c-1.5,0.6-5.5,0.1-8.3-1.5c-4.1-2.3-12.1,0.9-12.8,0c-0.7-0.9,4-4.1,6.9-4.6s7.7,1.2,7.7,1.2
		s1.2-5.7,13.4-2.3c0,0-6.9,1.6-8.3,3.8C779.8,218.3,782.6,219.5,782.6,219.5z"/>
	<path class="st3" d="M61.1,228.8c0,0-7.6,4.4-7.6,11.1c0,0-6.3-3.1-16-0.5c0,0,7.6-7.6,13.7-3.5C51.2,235.9,51.5,227.2,61.1,228.8z
		"/>
	<path class="st4" d="M69.5,269.2l-3,17c0,0,1,3.5,10.4,3.5s11.6-3.6,11.6-3.6L86,269.2L69.5,269.2z"/>
	<path class="st4" d="M78.9,248v-1.5h-0.7l-0.4,0.4l-0.4-0.4h-0.7v1.5l-6.8,6.5c-0.7,0.7-1,1.6-0.8,2.6l0.9,4.4h6.7h2.2h6.7l0.9-4.4
		c0.2-0.9-0.1-1.9-0.8-2.6L78.9,248z"/>
	<path class="st5" d="M951.6,424.6c-5.5,4.9-12,4.2-12.2,8.2c-0.2,4,10.2,7.1,20.6,2.5c10.4-4.6,13.5-1.7,16.2,3.4
		s14.2,1.2,22.3-3.3c8.2-4.5,28.7-2.9,28.7-2.9v-13.7c0,0-2.9-1.7-5.7-4.4c-3.3-3.2-8.4-4.8-12.6,0c0,0-2-3.5-3.7-5.9
		c-3-4.5-7.3-5.9-10.5,0c0,0-0.6-2.4-2.3-3.4c-1.8-1.1-4.6-0.6-6.1,3.4c-0.9,2.6-0.9,4.1-2,4.1c-1,0-0.5-3.6-1.8-4.8
		c-1.3-1.3-4.2-0.5-7.5,5.4c-4.2,7.5-13.8,10.1-11.3,4c2.7-6.5,10-18.9,8.3-19.9c-1.7-1-5,5.8-8.7,12.1S955.6,421,951.6,424.6z"/>
	<path class="st5" d="M967.3,417.2c-1.6,0,0.3-3.4,3.1-9.5c2.8-6.1,6.3-10.5,6.3-10.5s1.1-11.1,3-11.2s-0.8,8.6,0.3,8.8
		s3.3-3.9,3.8-5.6c0.9-2.9,2-7.5,4.2-7.5c1.4,0-1.7,6.4-2,8.1c-0.3,1.6,3-2.5,4-1.9c0.7,0.5-6.9,6.1-10.5,10.7
		c-3,3.8-5.4,7.5-7.5,11.9C969.9,414.8,968.8,417.2,967.3,417.2z"/>
	<path class="st5" d="M980.3,402.2c-1.2-1-6.9,7.9-6.4,8.3S982.1,403.7,980.3,402.2z"/>
	<path class="st5" d="M983,402.5c-1.4,0,0.5-7.4,2.3-7.4S984.9,402.5,983,402.5z"/>
	<path class="st5" d="M886.2,396.9c-4.7,0.2-12.4,2-16.8,6.9c-6,6.8-17.3,9.8-27.6,6.8c-6.2-1.8-11.7,5.5-14.2-1
		c0,0-2.7,6.2-13.6,8.6c-10.9,2.4-19.5,3.3-19.5,3.3s8.2-0.7,8.5,3.7c0.1,2.8-6.7,5.4-19.1,7.2c-12.6,1.8-28.1,0.7-30.1-1.7
		c-5-5.9,20.8-9.5,20.8-9.5s-8-2.4-25.8,3.6c-17.8,6-38.1,7.2-55.7-7.6c-17.6-14.8-17-13.3-17-13.3s-4.3,6.4-12.9,0.5
		c0,0-7.2,5-13.8-1.2c0,0-3-1.4-7.3,0.9c-4.3,2.3-7.7,0.2-10.3-2.6c-2.6-2.8-10.5-1.7-16,0.2c-7.6,2.7-10.9-4.8-1.7-5.4
		c8.8-0.5,9.2-1.3,12.6-3.1s8.2-7.7,11.8-5.2c0,0,0.6-18.5,20.9-24c0,0-1.4-4.2,3.7-4.4c5-0.2,0.9-2,2.3-5c1.4-3,5.9-4.7,7.9-0.8
		c0,0,1.7-4.3,5.6-4.3c4,0,4.5,4,4.5,4s3-1,2.9,1.5c-0.1,2.5-3.1,4-3.1,4s3.9-1.6,4,2.4c0,0,4.4-1.1,5.3,3.3
		c0.6,3.1-1.2,5.4-1.2,5.4s3.7-4.9,6.4-0.6c0,0,3.4-4.7,6.8,0.2c0,0,2-5.8,6.2-0.4c0,0,0.1-6,5.2-2.3c0,0,4.9-5.6,11.2-2.4
		c6.2,3.2,7.6-1.6,9.5-4.8c1.8-3.2,5-6.4,11-4.3c0,0,1.5-9.7,15.9-4.5s33.8-5.4,41.4-4.7c7.9,0.7,11,7.1,11,7.1s8.4-2.9,13.5,3.1
		s8.3,7.2,15,3.3l1.6,3.5l4.3-3.4l4.8,7.3c0,0,4.7,3.1,11.3-1.9c5.6-4.3,9.1-2,10.5,3c0.6,2.2,4.2,2.4,6.3-1.2
		c2.8-4.6,8.8,0.5,8.8,0.5s-3.6-12.8-4.7-15.1c-1.1-2.4-18.4-1.4-18.4-1.4s0.7-3-0.1-5.2c-0.4-0.9-2.1-0.4-2.1-0.4s2.2-2.4,6.9-3.8
		c13.1-3.9,15.4-10.3,17.7-7.9c0,0,4.5-2.6,7.6,0.2c0,0,7.5-4,13.8,3.6c6.3,7.6,11,15.3,9.4,23.4c0,0,6.6,5.7,6.4,15.1
		c-0.2,9.5-1.9,3.2-3.2,3.2s-11.5,2.3-13.9,2.9c-4.3,1-7.9,0-9-12.6c0,0-1.3-1.3-4.7,2.1c-0.6,0.6-2,1.3-2.8,2.5
		c-3.5,5.4-8.1,15.2-8,17.8C886.6,394.9,886.2,396.9,886.2,396.9z"/>
	<path class="st5" d="M808.9,299c0,0-4.1-2.9-1.8-2.1c2.3,0.8,1.1-3,3.5-6.9c2-3.3,5.2-4.1,7.7-4.1c3.2,0,5.5,1.1,7.8,3.7
		c1.6,1.8,2.2,4.5,2.2,4.5s9-4,11.9-7.2c2.9-3.3,4.7-6.4,8.6-5.5c3.9,0.9,3.6,7.1,5.7,7.4c2.1,0.4,6.2-2.7,9.5-0.1
		c2.4,1.9,1.1,4.4,3.2,4.7c2,0.3,7.4-3.2,13.6,4.7c0,0,25.1-24.9,72.7-24.9c50.1,0,86.7,0,86.7,0v49.4c0,0-34.7-7.2-60.9,15.6
		c0,0-5.7-3.7-13.1-6c-8.4-2.6-19-4-24.7-6.4c-10.7-4.5-24.2-19.3-42.9-21.1c-10.5-1-17.5,2.9-17.5,2.9s-3.9,5.8-8.9,5.7
		c-3.7-0.1-1.7,2.7-9.7,2.6c-3.4-0.1-1.3,2.7-2.4,4.7c-1.1,2.1-4.9,1.1-4.9,1.1s1.6,3.4-2.6,4.7c-4.2,1.3-29.3-5.5-29.3-5.5
		l-9.1-13.7L808.9,299z"/>
	<path class="st5" d="M968.9,264.8c0,0,1.7-2.6,3.2-5c1.5-2.4,1.5-2.3-7.4-2.3h-19.5c-0.7,0-1.3,0.3-1.8,0.8l-6.3,6.6L968.9,264.8z"
		/>
	<path class="st5" d="M629,424c-1.4-5.1,13.9-9.2,23.3-8.7c9.5,0.4,14.6,2.9,17,6c3.9,5-12.9,7.6-22.7,7.4
		C637.6,428.5,629.4,425.5,629,424z"/>
	<path class="st5" d="M755.2,486c0,0-6.9-17.7,8.2-12.5c0,0,4.4-10.2,15-12.5c10.2-2.1,20,7.3,20,7.3s-4-7.6-13.1-14.3
		s-10.5-14.1-8.5-15.6c2-1.5,10.3,13.5,12.2,13.3s-10.6-14.9-3.8-17.4c6.9-2.6,7.6,9.7,8.9,13.4c1.3,3.8,4.3,7.8,4.3,7.8
		s-4.5-16.9,3.5-17.6c4.8-0.4,4.3,7.6,4.3,7.6s1-6.7,6.3-7.4c0,0-7.2-18.7,5.9-18.8c12.2-0.1-2,30.2-7.4,37.7
		c-3.7,5,0.3,8.4,3.7,1.5c2.9-5.9,7.3-2.5,7.3-2.5s-3.8-10.6,4.3-12c8.2-1.4,10.4,10.2,10.4,10.2s4.5-4.5,3.9-8.8c0,0-4.1,4.1-6.9-3
		s-1.7-19,1.7-19.8c3.4-0.8,5.2,17.5,5.2,17.5s3.2-18.4,8.6-18.7c5.5-0.3-3.8,19.9-3,20.2c0.8,0.3,5.3-6.6,7.1-9.6
		c1.8-3-0.6,10.4-0.6,10.4s3.2-10.4,8.4-9c5.2,1.4,0,12.4,0,12.4s5.5-13.1,11.1-12.7s-1.6,16.8-1.6,16.8s8-15.1,13.2-11.7
		c4,2.6-4.4,8.1-8.2,22c0,0-0.6-3.2,1.4-9.8c0.9-3,2.4-4.9,1.5-5.3c-1.8-0.8-6.5,5.4-8.9,11.7c-5,13.4-20.4,16.8-20.4,29.1H755.2z"
		/>
	<path class="st5" d="M797.9,467.8c0,0-15.5-5.6-19.5-6.7c-4.1-1.2-6-3.8-4.7-5.8c0.9-1.3,3.5-1.6,8.1,0.3
		C789.7,458.8,797.9,467.8,797.9,467.8z"/>
	<path class="st5" d="M808.4,431.5c-2.1-0.3-2.5,4.1-1.3,8.2C807.1,439.7,811.7,432,808.4,431.5z"/>
	<path class="st5" d="M853.9,431.8c0.8,0.3,7.6-5.4,3.6-7.6C853.5,421.9,852.3,431.1,853.9,431.8z"/>
	<path class="st5" d="M895.7,414.1c0.1,7.2,2,10.7-5.5,10.3c-7.5-0.4-11.2,0.4-13.6,0c-2.3-0.3-5.2-3.9,1.8-5.9
		c6.9-2,7.7-4.4,7.7-4.4H895.7z"/>
	<path class="st5" d="M934.6,433.8l-8.7,4c0,0,1.3,4.2-4.5,11.7c0,0,1.6,0.5,5.3,1.4c3,0.7,4.7,1,4.7,1s1.1-1.5,2.9-5.3
		C935.5,443.8,937.2,442.4,934.6,433.8z"/>
	<path class="st5" d="M688.4,356.8c-1.3-0.1-1.1,3.4-0.3,3.5C689,360.3,689.5,356.8,688.4,356.8z"/>
	<path class="st5" d="M693.8,356.3c-1.7-0.7-5.4,3.7-3.7,4.5S695.3,356.9,693.8,356.3z"/>
	<path class="st5" d="M690,356.2c1,0,0.5-1.1,0.9-3.1c0.5-2.4-1-2.7-1.9-0.3C688.3,354.9,688.9,356.2,690,356.2z"/>
	<path class="st1" d="M990,332.9c-6.5,3.8-7.3-4-5.8-7.9c0.9-2.2-2.7-3.8-1.6-7c0.5-1.3,1.8-2.5,5.2-1.8c0,0-2.2-4,1.2-5.4
		c3.5-1.4,5.2,2.8,5.2,2.8s-1.5-4.9,2.1-5.9c2.7-0.7,4.2,2,4.2,2s1.2-3.5,4.5-2.6c2.6,0.7,3.2,4.6,3.2,4.6s0.1-5.1,3.8-4.4
		c2.6,0.5,2.1,4.6,2.1,4.6s2.3-3.8,7.8-3.8c5.4,0,13.4,8.3,13.4,8.3l-2.3,4.9C1033.2,321.5,1011.9,320.2,990,332.9z"/>
	<path class="st1" d="M945.5,327.1c-8.3-3.1-12.4-6.1-20.7-12.1c-8.3-6-27.1-16.3-43.7-7.7c0,0-1.8,3-5.5,4.9
		c-3.7,1.9-4.4-0.5-6.8,2.2c-2.4,2.8-7.3,0.1-8,2c0,0,5.1,5.5,32.8,0.2c19.4-3.7,32.4,3.1,39.3,5.9
		C939.7,325.3,945.5,327.1,945.5,327.1z"/>
	<path class="st4" d="M937.1,264.9l-1,9.2c0,0,7.7-0.9,16.8-0.9c10.6,0,16.2-0.2,16.2-0.2l-0.1-8.2L937.1,264.9z"/>
	<path class="st4" d="M980.7,253.4c0,0-4.8,6.9-6.2,9.1c-0.4,0.5-0.8,1.6-0.8,2.9c0,2.4,0,5.5,0.1,7.7c3.4,0,35.9,0.2,35.9,0.2
		v-10.3L980.7,253.4z"/>
	<path class="st2" d="M808.1,350.5c0.9-3.2,2.6,8.4,1.7,10.4C809,362.9,806.2,357.5,808.1,350.5z"/>
	<path class="st2" d="M849.5,486c0,0-3.5-12.2,4-14.2c7.2-1.9,4,10.9,10,9.9c4.5-0.8-11.4-23.6-6-28.2c2.9-2.5,4.4,9.3,8.2,9.5
		c3.7,0.1-2.1-11.8,1.9-12.1c2.4-0.2,3.9,3.9,5.6,10.9c1.2,4.9,3,5.1,4.2,1.2c1.3-4.2,2.2-6.2,6.8-12.2c4-5.3,8-6.4,9.4-4.1
		c1.7,2.9,0.3,10.2,1.4,10.2c0.9,0.1,1-4.5,2.3-8.9c1.3-4.4,4-8.7,8.8-7.8c3.8,0.7,5.5,5.4,4.7,10c-0.8,4.7-2.9,9.2-2.9,9.2
		s5.7-12.5,9.7-9.7s-3.7,13.8-3.7,13.8s10.2-10.8,14.2-5.5c2.3,3.1-3.3,8.6-8.6,14c-9.8,10-13.5,19.8-13.5,19.8L849.5,486z"/>
	<path class="st2" d="M928,474.3c3.1-0.8,5.8-3.4,9.3-8.8c4.6-7.2,0.4-8.6-5.4-0.9C926.2,472.3,926.6,474.7,928,474.3z"/>
	<path class="st2" d="M759.1,401.5c-1.6-1.2-4.1-1.8-7.9-0.1c-2.2,1-1.6-4.2-5.9-4.1c-4.4,0.1-9,3.6-11.5,5.9s-5-1.4-11.7-3
		c-4.1-1-7.7,0.1-8.1-3.8c-0.4-3.9-1.6-4.9-7.6-6.1c-5.9-1.1-4-4.5-1.6-9.1c1.7-3.3-7.8-1.6-7.4-3.4c1.4-5.6,7.2-5.6,10.8-6.5
		c4.3-1.1,6.2-2.5,7.3-5c1.9-4.4,3.5-3,4.3-3c0.8,0,0.6-1.1,1.2-2c1.6-2.4,4.3-0.9,3.6,3.5c-0.5,3.2-1.6,7.9-3.5,8.6
		c-2.7,1,0.8-7-0.1-7.3s-6.9,5.8-8.6,13.2c-0.9,3.8-0.5,8.8,1.1,9.2c1.4,0.4-0.1-2,1.5-9.4c1.2-5.7,3.4-7.5,3.4-7.5
		s-0.6,3.7,0.9,7.2c1.4,3.5-0.4,6.9,1,7.7c1.4,0.8,1.4-4.8,4.9-5.1c3.5-0.3,4.9,4.2,4.9,4.2s-1.9-8.9-0.5-14.9
		c1.4-6,0.6,4.8,1.1,8.3c0.6,3.5,2.1-12.1,5.5-11.2c1.9,0.5-2.4,6.2-2.9,11.3c-0.3,3.4,0.8-1.5,2.6-4.4c2.1-3.6,4-1.5,1,2.9
		c-1.6,2.4-2.2,5.6-2.2,5.6s3.4,0.8,2.7,5.1c0,0,1.6-1.5,3.2-1.5c0,0-0.2-1-0.1-2.1c0.2-4,4-3.3,3.3,0.2c-0.3,1.3-0.8,2.2-0.8,2.2
		s2.4,0.6,2.9,3.3c0,0,5.4,0.1,9.5,2.9c4.2,2.9,5.7,5.1,6.4,7.5C762.3,403.4,760.3,402.4,759.1,401.5z"/>
	<path class="st2" d="M722.5,375.9c0.6-2.1,2.7-5.3,4.4-8.4c1.3-2.5,0.6,3.3-0.2,6.6c-0.8,3.2-2.2,5.2-3.9,6.8
		C721.2,382.1,721.8,378.5,722.5,375.9z"/>
	<path class="st2" d="M739.8,365.1c-1.5-0.1-2.2,2.7-0.8,2.8S741.2,365.2,739.8,365.1z"/>
	<path class="st2" d="M742.3,369.4c-2-0.2-2.8,3.7-0.9,3.8C742.8,373.2,743.8,369.5,742.3,369.4z"/>
	<path class="st2" d="M740.9,375c0.4-1.7-5.5,5.3-2.6,9.2C739.6,386.1,740.6,376,740.9,375z"/>
	<path class="st2" d="M747.2,384.7c-0.8,0.2-1.2,3.8,1.1,4.1C751.5,389.2,749.1,384.3,747.2,384.7z"/>
	<path class="st2" d="M707.2,330.5c-1.3,0.9,1.4,5.2,3.4,3.9C712,333.5,708.5,329.5,707.2,330.5z"/>
	<path class="st2" d="M763.1,313.7c-5,0.5-7.5,2.3-9.1,4.4c-0.9,1.2-4,1.5-7.2,1.3c-3.3-0.3-4.8,1.5-5.7,2.6s-2.7-0.2-5,0
		c-2.3,0.2-3.5,3.1-4.8,3.1c-1.3,0-0.8-4.4-1.7-4.5c-1.4-0.3-0.7,5.8-1.7,6.9c-1,1.1-1.4-0.8-1-3.1c0.4-2.3,0.3-3.5-0.7-3.9
		c-1-0.4-2.3,7.1-3.1,7c-0.8-0.1-0.8-3.6,0.6-7.2c1.1-2.8-0.7-4.2-2-2.3c-1.3,1.9-2.5,12.2-2.5,12.2s-1.8-7.6-1.2-9.1
		c0.5-1.4,2.3-1.1,1.1-4.7c-1.1-3.5-1.5,2.2-1.5,2.2s-0.7-0.9-1.5-0.4c-0.3,0.2-0.4,2.4,0.6,4.6c1.4,3,0.5,7.6-0.1,10.5
		c-1,5,0.8-11.1-2-13c-2.8-1.9-0.4,4.4-0.4,4.4s-2-0.4-1.6,2.8c0.3,2.2,2.2,1.2,2.2,1.2l0.1,4.8c0,0-3.3-2.3-3.9-9.7
		c-0.6-7.4-4-3.1-1.5,0.5c0,0-2,0.8-1.3,3c0.7,2.3,2.3,1.9,2.3,1.9s0.5,2.7,2.2,3.7c0,0-2.3,3.6,1.9,4.1c0,0,2.5,4.6,6.8,9
		c0,0-1.5-10.4,1.6-10.6c3.1-0.3,2.6,11.5,2.6,11.5s0.9-10,8.2-13.4c3.2-1.5,2.6-0.5-0.1,3.2c-1.1,1.5-2.2,3.4-2.4,5.4
		c0,0,4.3-7.1,5.4-6.4c1.2,0.7-2.1,4-4,7.6c-1.9,3.6-3.9,10.7-2.5,10.7c1.2,0,0.5-2.8,2.4-6.9c1.8-4.2,4.5-7.2,4.5-7.2
		s-0.1-2.2,1-3.3c1.1-1.1,0.1-3.4,1.4-3.8c1.3-0.5,0.9,2.9-0.2,4.7l1.8-1.8c0,0-0.6-1,0.3-2.4c0.9-1.4,1.6-3,2.1-2.9
		s-0.4,2.8-0.2,2.7c0.2-0.1,2.6-2.6,3.5-1.8c1,0.8-3.4,5.4-5.2,4.9l-3.4,3.8c0,0,3.9-2.6,4.9-1.8c1,0.8-6.5,3.3-6.7,4.1
		c-0.3,0.8,0.8,0.7,2.6-0.4s1.9,1.7-1.3,2.7c-3.2,1-4.1,2.9-4.5,5.2c-0.3,1.6-0.5,2.7,0.4,2.7c1,0,2.3-3,4.3-4.5
		c3.5-2.8,6.6-2,8.8-2.3c2.3-0.4,4-2,4.6-6.1s4.3-11.2,10.8-13c11.2-3.1,12-9.2,12-9.2S769.2,313.1,763.1,313.7z M727,337.2
		c-1.3-1.3,2-8.8,3.5-8.5C732.9,329.3,728.2,338.4,727,337.2z"/>
	<path class="st2" d="M805.5,379.3c2.5-0.3,1.4-6.1,0.4-11.9c-1-5.7-2.5-10.9-4.9-9.9S800.2,379.9,805.5,379.3z"/>
	<path class="st2" d="M813.5,378.6c-2.2,1.1-3.8-5.9-4.8-9.2c-1-3.2-3-10.6-4.5-14.4c0,0,2.4,1.3,4.2,8.3c1.7,6.5,3.4,8.1,3.4,8.1
		s-1.1-7.5,0.1-13.9C811.9,357.4,815.6,377.5,813.5,378.6z"/>
	<path class="st2" d="M811.4,351.5c0,0,1.1,2,2.1,7.7c1,5.8,1.3,11,3,11c1.2,0,3.4-2,2.8-6.6c-0.5-3.9,0.6-8.3,0.6-8.3
		s-3.5,5-3.3,9.8C816.6,365.1,815.9,354.2,811.4,351.5z"/>
	<path class="st2" d="M823.8,349.2c-0.8-0.3-3.5,7.3-3.1,13.6s-2.6,10.5-0.7,11c2.6,0.7,5.7-3.3,11.3-2.3s8.9,3.8,10.9,4.6
		c2,0.8-1.3-1.3-1-6.8c0.3-5.5,1.1-9.2,2.2-8.9s0.4,12.4,0.4,12.4s6-6.8,11.1-5c5.1,1.7,12.8-0.7,13.2-3.5c0.4-2.8-3.9-0.2-5.2,1.3
		c0,0-1.1-1.6-4.3,1.7c0,0-1.5-0.6,1-2.3s1.9-4.3,0.2-4.4s-4.7,3.5-2,5.1c0,0-0.9,1.5-2.2,1.5c-1.3-0.1,0.5-5.6-1.2-6.2
		c-1.7-0.6-2.1,1.6-2.1,1.6s0.5-4.3-1.3-4.5s-4.9,4.2-4.9,4.2s0.5-4.6-1.2-5.1s-3.2,1.9-4.7,5.6c-2.4,6.2-8.3,7.9-7.1,2.3
		s0.9-7.9,0.1-8.2s-3.6,4.2-4.1,6.7c-0.5,2.5-3.2,1.8-1.9-2.3c1.3-4.1,1.8-5.3,0.5-6.2c-1.4-0.9-4.3,5.2-4.3,8.1
		C823.1,363,824.6,349.5,823.8,349.2z"/>
	<path class="st2" d="M839.3,356.9c-1.8-1.1-6.3,8.9-3.8,9.2C837.9,366.4,841.5,358.2,839.3,356.9z"/>
	<path class="st2" d="M916.3,277c1.9-0.2,3.9-2,7.6-2.2c2.1-0.1,6,0.7,6.9,3.7c1,3.3,0.7,8.2-4.8,8.2c-6.3,0-9.8,0-9.8,0
		s0.9,3.5-2.5,4.4c-3.4,0.9-3.3-2.5-7.5,0.1c-2.3,1.4-5.4,1.6-5.6-1.2c0,0-1,1.9-2.7,3c-1.1,0.6-3,1.5-4.7,0.8
		c-1.8-0.8-2.3-2.3-2.1-3.4c0.2-1.8,2-3.1,3.4-3.6c0,0-1.8-0.3-2.2-4.3c-0.4-4.7,4.7-10.7,10.7-9.2
		C909.4,274.8,911.3,277.5,916.3,277z"/>
	<path class="st2" d="M932.9,299.2c2.5,4.2,8.3,2.8,14.7,6.4c3.5,2,10.8,3.3,16.1,1.8c6.4-1.8,9.4-5.1,10.3-8.5c0,0,1.4,1.3,4.2,1.7
		c6.8,1,10.9-2.8,13.5-7.4c0,0,2.3,1.9,4.2-0.2c0.7-0.7,1.8-2.7,3-2.2c2.6,1.1,4.6-0.7,5.5-1.7c-2.7,0.3-4.9-3.4-7.7-3
		c-2,0.3-2.7,2.5-2.7,2.5s-4.2-2.8-8.1,0.7c-1.7,1.6-5.3,6.2-13.7,1.4c-3.7-2.1-9.2-1.2-9.4,4.4c0,0-3.9-4-7.3-3.7
		c-1.5,0.1-2.9,1.3-3.6,3.1c-0.6,1.5-1.5,1.7-2.4-0.5c-1.6-3.8-6.4-4.5-9-2.1c-1.7,1.6-1.9,4.4-1.9,4.4s-1.3-2-3.7-2
		C933.1,294.4,931.6,296.9,932.9,299.2z"/>
	<path class="st2" d="M861.4,315.8c0,1.9,1.4,2.3,8.3,2.5c17.8,0.5,36-5.7,51.3-0.4c15,5.2,18.4,8.6,31.4,10.6
		c18,2.7,26.9,9.4,26.9,9.4s17.3-17.7,48-16.7l2.5,29.2c0,0-9.3-3.1-21.2-1c-6.8,1.3-14.5,4.3-21.7,10.7
		c-9.8,8.7-12.6,15.2-14.5,19.4c-2,4.2-25.5,1.7-25.5,1.7s-10.2-9.8-3.9-14.7c6.4-4.9,12.2-8.5,12.2-8.5s0.8-5.7-2-5.8
		c-1.6-0.1-4.3,3.2-7.1,5.1c-0.4,0.3-0.1,0.6-0.5,0.7c-0.4,0.1,1-10.6,0.6-10.6c-0.8,0-4.1,10.6-4.8,10.7c-2.3,0.5-2.4,4.1-5.3,4.4
		c-6.7,0.6-11.6,0.6-14.7-1.6c0,0,10-6,6.8-11.1c-3.2-5.1-11.2-7.3-10.9-12.9c0.4-7.2-2.9-12.6-11.1-12.8l-15.4,9.7
		c0,0-0.2-1.6-6.6,2.9c-21,5.9-21.9-12.6-29.2-15.1c1.9,0.3,4.2-0.2,4.9-1.7C860.6,318.7,859.5,316.1,861.4,315.8z"/>
	<path class="st1" d="M899.7,369.2c0,0-9.7,6.4-14.3,15.9c-4.7,9.5,0.7,29.1,0.7,29.1h9.7c0,0,0.2-13.1-0.1-21.2
		c0,0,7.6-7.7,8.8-7.1c1.2,0.5,1,3.2,5.8,13c5,10.2,4.9,11.6,6.4,14c1.5,2.3,6.6,16.2,9.2,25.1l8.7-4c0,0-1.1-6.7-2.2-12
		c-1.6-7.7-5.7-14.2-5.7-14.2s0.3-19.6-0.2-27c0,0,0.2-2.7-4.2-1.5s-12.2,4-15.4,2c-3.6-2.2-4.8-11.8-4.8-11.8s-0.2-0.4-1-0.4
		c-0.2,0-0.3-0.2-0.6-0.1C900.2,368.9,900,369,899.7,369.2z"/>
	<path class="st2" d="M891.3,333.6c-0.1-1.4-1.9-1.6-2.4,3.3c-0.5,4.9-1.6,9.5,1.8,15.5c3.4,5.9,2.4,15.8,11.3,16.9
		c0,0-0.3-1.5-2.5-4.5c-2.3-3-7.1-18.5-6.2-26.4L891.3,333.6z"/>
	<path class="st1" d="M895.2,343.8c0,0-1.4-2.5-0.6-5.4c1.5-4.9,7.1-6.1,11.5-8.1c4.5-2,8.9-3.7,8.9-3.7s3.6,2.8,3.6,9
		c0,0.5,2.3,3,3.4,4.3c2.9,3.6,7.6,6.4,7,13.9c-0.5,6.6-7.6,7-7.6,7s-1.1-8.8-5.7-15.6s-8.6-13-14.6-10.8S895.2,343.8,895.2,343.8z"
		/>
	<path class="st6" d="M886.4,335.1c-2.6,2-1.9,5.4-0.9,5.9c1.7,1,2.8-7,2.8-7L886.4,335.1z"/>
	<path class="st3" d="M879.6,320.9c0,1.4,0.8,3,1.2,3.9c0.2,0.5,0.3,1.4,0.2,2.3c-0.1,0.9-0.5,1.5-0.1,2c0.6,0.7,1.7,0.3,2.8,1.2
		c1.1,0.9,3.4,2.8,6,1.5c2.6-1.3-0.1,4,1,6.7c0.5,1.1,1.5,0.8,2.6-0.1c0.6-3.5,5.2-6.4,2.7-5.3c-0.3-2.6-3.9-14.5-3.9-14.5
		L879.6,320.9z"/>
	<path class="st4" d="M896.9,314c-3-3.4-9.1-4.2-12.4-2.7c-3.9,1.7-9,7-4.9,9.5c4.7,2.9,9.2,2.4,11.7,0c0,0-0.2,1.3,0,3.2
		c0.3,3.2,1.4,8.1,6.6,10.2l17.1-7.5c0,0-2.1-1.8-8.1-3.1C901.8,322.5,900.8,318.5,896.9,314z"/>
	<path class="st0" d="M766.3,331.7c-1.6,3.5-4.8,3.8-4.1,13.8c0.4,5.2,0,11.9,0,11.9s-7.9,9.1-14,19.5l11.7,2.4
		c0,0,11.4-10.9,13.8-13.9c2.5-3.1,2.8-8.1,2.8-8.1l10.9,13.9c0,0-12.5,14.8-17.4,26.8l13.2,1c0,0-0.8,4.1,2,5.6
		c2.8,1.5,7.1,2.8,7.9,4.8c0,0,1.6-0.9-0.5-3c-2.2-2.1-7.8-2.1-7.7-5.9s10.9-14.9,16.5-21.8c5.5-6.9,3.4-12.7,0-18.4
		c-3.4-5.7-8-16.4-8-16.4S769.1,325.6,766.3,331.7z"/>
	<path class="st0" d="M809.1,299c0,0,1.7,0.9,3.4,0.6c2.5-0.5,3.8-5.2,5.6-3.9c1.2,0.8-0.2,2.7,1,2.8c0.6,0.1,2.2-1.8,2.9-2
		s2.4,0.9,3.3,0.8c1.7,0,2.6-1.1,2.9-1.3c-0.4,0.9-0.5,1.4-0.9,2.2c-0.8,1.6-1.3,2.5-1.6,3.4c-0.4,1.5,0.1,3-0.3,3.8
		c-0.5,0.9-2.3-0.1-4.5,1.1c-0.9,0.5-3.8,2.2-5.2,1C810.6,303.2,809.1,299,809.1,299z"/>
	<path class="st0" d="M842.1,338.6c3.2,1.8,6.8,3.2,9.5,3.1c2.6-0.1,5.6,2,7.5,4.8c1.9,2.8,2.1,6.2-1.3,6.4s-3.1,0.4-7.3-1.2
		c-3.5-1.4-9.5-3.4-13.8-5.2L842.1,338.6z"/>
	<path class="st3" d="M867.8,345.1c-6.2,0.9-9.7,1.5-13.1-0.5s-4.2-1.4-4.2-1s0.6,1,1.7,1.6c1,0.5,2.1,1.7,3.3,3.3
		c2.5,3.3,3.4,3.9,6.9,3.4s6.8-0.8,6.8-0.8S869.9,344.8,867.8,345.1z"/>
	<path class="st3" d="M844.6,349.6c0,0,0.4,3.2,6.5,3.3C857.1,353.1,847.7,348.4,844.6,349.6z"/>
	<path class="st3" d="M842.1,338.6c-0.7-2.3-5.7-4.1-8.8-7.1c-5.2-5-9.5-11.4-10.8-13.6c-2.1-3.5-8.6-15.9-14.9-20.8
		c-1.6-1.3-9.6-0.5-9.6-0.5s-11.2,9.3-20.4,17.5c-2.7,2.5-3.9,5.9-5.9,7.9c-1.7,1.7-4.4,2-5.1,3c-4.9,6.7-6.4,10.3,0,16.5
		c4.6,4.5,12.3,2.3,18.5,2.1c1.3,0,3.4,0,5.4,1.1c1.8,1,2.6,3.7,4.9,3.2c3.3-0.7,5.2-13.7,11.3-15.1c3.5-0.8,6.2,2.4,15.8,8.3
		c4.9,3,11.6,5,11.6,5s0.2,1.6,2.1,2.2S843.2,342.3,842.1,338.6z"/>
	<path class="st3" d="M911.7,371.7c0,0,0.1,8.6-0.3,11.5c-0.4,3-5.2,5.8-4.7,9.2c0.5,3.4-0.4,5.5,1.4,5.9c1.8,0.4,4.1,0.2,7.2-7.1
		c3.1-7.3,2-9.2,4.8-17.8C920,373.3,915.7,370.8,911.7,371.7z"/>
	<path class="st4" d="M806.3,332.9c1.9-0.5-1.7,2.7-4.3,2.7c-3.6,0.1-9.3-0.6-13.7-5.1c0,0-1.5,0.8-8.9-1.3
		c-6.3-1.8-5.6-5.3-6.3-6.9c0,0-3.5,5-10.8,6.1l-0.9-2c0,0,8.9-2.9,11.5-9c0,0,1.2-10.5,8-16c6.8-5.6,12.6-10.6,19.4-5.1
		c6.7,5.4,7.3,5.7,7.1,7.7c0,0,8.6-0.8,9.5,4.7c0,0-3.4-3.2-9.5-0.4c0,0-5.9,10.8-10.1,15c-3,3-4.3,6.3-4.3,6.3s-0.1,2.9,7.5,3.7
		C802.2,333.5,804.3,333.5,806.3,332.9z"/>
	<path class="st4" d="M788.5,330.5c-1,5-7,10.1-7,10.1l2.5,1.3c6.5-5.7,7.3-11.4,7.3-11.4H788.5z"/>
	<path class="st5" d="M60,288.1c-0.9-3.2,0.8-6.2,4.5-5.3c2.4,0.6,2.1,3.2,2.1,3.2s0.6-0.7,1.7-1.1c1.5-0.5,3.9,0.7,2.9,3.2
		c0,0,2.6-1.9,2.9,0.3c0,0,6.7-1.9,6.8,1c0.1,2.9-4.9,2.1-8.8,1.2C68,289.8,61.2,292.1,60,288.1z"/>
	<path class="st5" d="M76.4,297.8c0.5-1.4-0.3-3.4-4.6-0.6s-8.1,5.6-6,7.2c2.1,1.6,6.4-2.9,7-1.7c1.5,3.4,7.9,2.5,9.7-1.5
		c0,0,4.4,2.9,8.5,2.1c4.1-0.9,13.3,2.8,15.7,3.5c-0.7-3.3-1.4-4.7-5.9-4.8c0,0,0.6-3.3-3.2-3.4c-1.9-0.1-2-2.8-5-3.6
		c-3.6-1-4.3,1.3-5.5,1.4s-3.8-3.3-6.9-1.5C79,295.5,76.4,297.8,76.4,297.8z"/>
	<path class="st5" d="M105.6,295.3c2,1.4,5.1-0.1,7.8-0.6c2.8-0.6,7.3-0.9,7.6-2.3c0.5-2.1-4.4-1.8-5.3-2c-1.2-0.3-2-1.5-3.6-1.8
		c-2-0.4-3.4,0.8-4.3,2.8C105.2,290.8,103.7,293.9,105.6,295.3z"/>
	<path class="st5" d="M86.2,287.4c1.1,1.6,3.9,0.8,5.8-1.6c2.3-2.8,3.8-0.9,7.1-0.5c4.6,0.5,8.4-2.4,3.4-3.8
		c-2.3-0.7-3.4-0.8-3.8-1.6c-0.7-1.4-2.8-3.9-5.8-3.4c-1.5,0.2-2.1,1.1-2.1,1.1s-0.8-2.4-3.8-2.2c0,0,0.8,5.3,1.2,8.4
		C86.1,284.5,85.4,286.3,86.2,287.4z"/>
	<path class="st5" d="M980.7,253.4l5.7,8.5c0.5,0.7,1.2,1.1,2,1.1h21.2c0,0-1.3-3-2.2-4.8c-0.9-1.8-1.9-3.1-6.7-3.7
		c-2.5-0.3-6.9-0.9-12.4-1.6C983.9,252.3,981.7,251.7,980.7,253.4z"/>
	<path class="st5" d="M948.7,362.5c-2.9,1.5-5.9,0-7.5,1.6c-1.6,1.6-4,3.7-6.9,4.1c-3.1,0.4-0.7,1.5,1.9,1.4
		c2.6-0.1-6.5,0.5-6.5,3.4c0,1.9,2.6,2.5,4.6,2.5c3.2,0-4.7,3.4-0.3,6.2c0,0-5.6,2.4-2.3,6.1c0,0-4.7,4.4,3.4,4.1
		c8-0.4,9-4.4,13.6-3c4.7,1.4,14.8-5.9,19.7-1l4-8.2c0,0-7.2,3.2-14.1-0.8c0,0-11.1,1.7-14-4.4C941.4,368.3,948.7,362.5,948.7,362.5
		z"/>
	<path class="st5" d="M989.2,349.3c-4.8,3.2-4.9,0.5-11.7,1.3c-3.4,0.4,0.1-3.5,6.4-3.1c1.5-2.8,4.6-4.8,7.4-3.4
		c7.3,3.7-3.3-2.2-0.1-5.7c1.8-1.9,4.4,3.1,5.9,3c1.5-0.1-4.2-6,0.5-7.1c3.7-0.9,4.8,4.2,4.8,4.2s0.2-8.6,4.2-7.9s0.5,7.3,0.5,7.3
		s3.3-8.9,7.5-7.3c3.5,1.3-0.5,9.7-0.5,9.7s4-7.3,6.2-5.6s-3.9,9.2-2.1,9.6s1.7-5,4.2-5.6s3.7,5,1,8.1c0,0,2.8-3.9,5.5-2.1v6.4
		c0,0-7.1-3.4-20.3-1.5c-9.2,1.3-18.9,8.4-18.9,8.4s2.9-4.3,7.8-5.8C997.5,352.1,995.7,345,989.2,349.3z"/>
	<path class="st5" d="M935.2,340c-0.6,0.2-1.2,22,1.3,22.3s0.8-4.4,3.4-17.6c0,0-3,5.8-3.1,11.5c0,0-0.4-5-0.5-9.5
		C936.1,343,936.2,339.7,935.2,340z"/>
	<path class="st5" d="M943.1,342.1c1.9-0.3-0.8,12.1,0.5,7.7c1.4-4.6,3.3-9.8,5.6-11.4l-2.4,12.7c0,0,3-8.1,9-8c0,0-4.7,8.2-2.9,8.5
		c0.7,0.1,3.1-7,5.1-6.3c2,0.7-0.2,5.2-0.2,5.2s1.8-1,1.9,1.1c0,0,1.3-0.1,2.2,0.3c1.1,0.5,1.4,1.5,1.1,2.1
		c-0.3,0.7-1.2,1.1-1.9,0.6c-0.6-0.4-1.2-1.4-1.2-1.4s0.1,2.6-1,2.7s-1-1.1-1.5-1.1c-0.5,0.1-0.4,3.9-2.3,4s0.2-4.8-0.6-5
		c-1-0.2-2.4,5.2-3.4,5.2c-1.7,0-0.1-3.1-1.5-3.2c-1.3,0-2,6-4.5,5.9c-1.6-0.1,1.4-10.3,0.4-10.4c-0.9-0.1-1.5,2.4-3.2,8.3
		c-0.8,2.7-2.8,2.3-3.5,1.1C937.7,359,941.2,342.4,943.1,342.1z"/>
	<path class="st1" d="M75,260c0,2.6-0.7,2.9-1.6,2.9s-1.6-0.4-1.6-2.9c0-2.4,0.7-2.9,1.6-2.9S75,257.6,75,260z"/>
	<path class="st1" d="M79.4,260c0,2.6-0.7,2.9-1.6,2.9c-0.9,0-1.6-0.4-1.6-2.9c0-2.4,0.7-2.9,1.6-2.9
		C78.7,257.1,79.4,257.6,79.4,260z"/>
	<path class="st1" d="M83.7,260c0,2.6-0.7,2.9-1.6,2.9c-0.9,0-1.6-0.4-1.6-2.9c0-2.4,0.7-2.9,1.6-2.9C83,257.1,83.7,257.6,83.7,260z
		"/>
	<path class="st3" d="M88.3,260.7h-9.6H77h-9.6c0,0-1.4,1.5-1.4,4.7c0,1.1,0.1,1.9,0.3,2.6c0.3,1.2,1.5,2.1,2.7,2.1H77h1.7h7.9
		c1.3,0,2.4-0.8,2.7-2.1c0.2-0.7,0.3-1.6,0.3-2.6C89.6,262.1,88.3,260.7,88.3,260.7z M69,268.3c-0.9,0-1.6-0.4-1.6-2.9
		c0-2.4,0.7-2.9,1.6-2.9c0.9,0,1.6,0.5,1.6,2.9C70.6,267.9,69.9,268.3,69,268.3z M73.4,268.3c-0.9,0-1.6-0.4-1.6-2.9
		c0-2.4,0.7-2.9,1.6-2.9c0.9,0,1.6,0.5,1.6,2.9C75,267.9,74.3,268.3,73.4,268.3z M77.8,268.3c-0.9,0-1.6-0.4-1.6-2.9
		c0-2.4,0.7-2.9,1.6-2.9c0.9,0,1.6,0.5,1.6,2.9C79.4,267.9,78.7,268.3,77.8,268.3z M82.2,268.3c-0.9,0-1.6-0.4-1.6-2.9
		c0-2.4,0.7-2.9,1.6-2.9c0.9,0,1.6,0.5,1.6,2.9C83.8,267.9,83,268.3,82.2,268.3z M86.6,268.3c-0.9,0-1.6-0.4-1.6-2.9
		c0-2.4,0.7-2.9,1.6-2.9c0.9,0,1.6,0.5,1.6,2.9C88.1,267.9,87.4,268.3,86.6,268.3z"/>
	<g>
		<path class="st3" d="M79.4,247.1h-3.3v-0.5c0-1.2,0.2-2.9,1.7-2.9c1.4,0,1.6,1.5,1.6,2.9V247.1z M77.1,246.1h1.3
			c-0.1-1.4-0.4-1.4-0.6-1.4C77.6,244.7,77.2,244.7,77.1,246.1z"/>
	</g>
	<path class="st3" d="M574,424.9c-9.3,2.7,47.3,0.4,52.5,11.6c2.4,5,5.2,6.5,7.4,7.7c10.6,5.7,39.4,2.9,39.6,7.2
		c0.1,3.4-29.2,0-27,9.5c1.3,5.9,18,6.2,22.9,5.9c7.3-0.4,11.9-3.5,15.8-6.3c8-5.7,17.1-2.8,19.3-2.2c8,2.2,16.8,2.8,24.1-3
		c9.3-7.4,42.4,0.3,53.1-4.5c0,0-3.3-3.3-5.1-6.7c0,0-4.9-2.7-11.6-0.6c-6.7,2-0.8-7.2-8.7-7.9c-7.9-0.7-9.9,6.6-14.6,2.6
		c-2.6-2.2,2.4-7.2,5.9-12.2c2.7-4,3.2-8.5,0.3-10.8c-3.2-2.5-8.6-0.9-12.5,0.9c-4.1,2-7.4,4.2-8.5,2.1c-2.1-4.1-3.7-10.6-14.1-8.1
		c-10.4,2.6-16.8,15.7-32.7,21.2S632,434.9,629,424c0,0-7.8,3.2-17.8-1.8S583.2,422.2,574,424.9z"/>
	<path class="st3" d="M580.9,414.3c1,1,3.1,0.6,5.1-0.3c3-1.4,7.3-4.1,13.5-5.1c10.3-1.7,12.2,2.3,12.8,4.7c0.5,2.5,3.1,2.4,8.9,0.6
		c5.8-1.7,13.1,2.2,9.5,6.2c0,0,4.3-3.8,16.9-5.1c0,0,0.8-7-8.5-4.8c-9.2,2.3-8.6-4.8-11.2-5.6c-2.6-0.8-12.7,2-17.8-3.3
		c0,0-4.5,4.1-12.5,5c-5.5,0.6-12.8,2.2-15.7,4.3C580.6,411.9,579.9,413.3,580.9,414.3z"/>
	<path class="st3" d="M742.6,402.3c-3.8-0.3-8.3,5.9-3.8,6.4C743.3,409.3,747.3,402.6,742.6,402.3z"/>
	<path class="st3" d="M644.6,394.1c-2.9-1.3-9.7,5.2-7.9,7.5C638.4,404,647.2,395.3,644.6,394.1z"/>
	<path class="st3" d="M656.4,402.3c3.1,0.7,6-3.6,4.1-4.2C658.4,397.4,653.4,401.6,656.4,402.3z"/>
	<path class="st3" d="M673.6,396.8c-2-0.1-8.7,6-4.5,6.7C673.3,404.1,676.7,397,673.6,396.8z"/>
	<path class="st3" d="M669,390.7c-1.3-0.2-3.9,3-2.1,3.2S670,390.9,669,390.7z"/>
	<path class="st3" d="M656.1,352.2c-3.9-1.3-5.9,1.3-7.3,0.6c-0.7-0.3,0.4-3.5-1-4.4c-1.6-1-5.2-0.6-10.4,3.3
		c-7.4,5.6-7.3-3.5-19.1,1c-5.6,2.1-13.7,10.4-23.6,10.2c-21-0.5-42.1,12.5-61.2,18.1c23.5-5.1,47.3-1,59.8-5
		c12.7-4.1,13.5-10.9,27.2-8.2c13.8,2.7,19.6,8.4,26.2,3.1s12.6-6.7,12.6-6.7s-1.5-3.9,3.7-4.4C662.9,359.6,661.6,354,656.1,352.2z
		 M619.7,360.3c0.2-2.8,8.6,1.5,15.2-2.4c3-1.7,5.5-5.2,6.9-6.3c1.9-1.5,5-2,4.6,1.2c-0.2,1.2-0.6,2.4,1.2,2.9c1.4,0.4,3.2-0.5,5-1
		c3.9-1.2,6.5,3.8,1.3,6.9c-2.5,1.5-9.2,3.7-15.9,3.6C628.8,365,619.6,361.9,619.7,360.3z"/>
	<path class="st3" d="M612.5,328.6c-4.8,2.4-6.6-4.6,7.9-5.9s19.7,2.5,38.8,3.8c19.1,1.3,28.7-7.4,35.2-3.2c3.2,2,0.9,7.2,3.8,8.5
		c2.9,1.3,5.5-1.9,8.7-0.1c0.2,0.7,0.3,0.9,0.6,1.4c-2.1,2.2-9.1,7-22.1,20.5c-0.8-0.2-1.5-0.1-2.1,0c-0.5-2.6-2.6-3.9-5.1-3.9
		c-11.5,0-24.2-5.5-33.5-13.8c0,0,21.1,12.5,41.7,7.6c20.6-4.9,12.4-10.7-1.9-7.6c0,0,11.7-6.9,3.9-7.6c-7.8-0.6-10.2,6.8-26.2,4.2
		C646.1,329.7,628.8,320.5,612.5,328.6z"/>
	<path class="st3" d="M602.8,329.4c-3.3,1.1-2.2,4,1.2,2.7S605.7,328.4,602.8,329.4z"/>
	<path class="st3" d="M594.2,333c-2.2,0.8-1.7,2.5,0.5,1.4C596.7,333.4,596.4,332.2,594.2,333z"/>
	<path class="st3" d="M835.9,418.6c-3.8,0.9-7.9-2.2-1.5-4.4C840.9,411.9,841.2,417.3,835.9,418.6z"/>
	<path class="st1" d="M843,413.6c0,0,5.8-2.9,8.2-5.8s8.1-7.4,8.7-3.6c0,0,9.8-5.5,7,0.4c-2.8,5.9,7.7-2.4,9.3-0.4
		c1.6,2-3.6,7.5-9.8,6.3C860.2,409.3,849.5,419.4,843,413.6z"/>
	<path class="st3" d="M867.2,393.7c-3-0.2-9.3,5.3-4.7,5.4C867.2,399.3,869,393.9,867.2,393.7z"/>
	<path class="st3" d="M853.2,399.2c-2.5-1-4.7,5-2.6,5S855.4,400,853.2,399.2z"/>
	<path class="st3" d="M869.9,389.8c-1.8-0.4-2.1,1.7-0.9,1.8C870.1,391.8,871.2,390.1,869.9,389.8z"/>
	<path class="st1" d="M930.6,390.8c2.4,3.4,6,1.5,8.3,2.5s3.1,1.7,5.1,1.7c3.8-0.1,3.5-3,7-2.3c8.6,1.8,12.8-2.1,11.5-3.8
		c-1-1.3-5.1,1-7.4,0.6c-3-0.5-4.4-2.2-7.4-2.3c-2.3-0.1-4.4,2.1-5.9,3c-1.5,0.9-3.4-3-5.2-1.3C932.6,392.8,930.6,390.8,930.6,390.8
		z"/>
	<path class="st3" d="M945.7,382c-1.6-0.5-5.4,4.3-2.5,4.4C946,386.6,947.1,382.4,945.7,382z"/>
	<path class="st3" d="M950.7,375.3c-2.1-0.1-3.1,3.1-1.2,3S952.9,375.3,950.7,375.3z"/>
	<path class="st3" d="M954.4,380.8c-2.3-0.4-3.5,2.9-1.2,3C955.5,383.9,956.8,381.2,954.4,380.8z"/>
	<path class="st3" d="M9.6,315.6c5-2.1,15.1-9.3,21.1-7.4s5.4,7.4,11.6,6.2s10.4-5.2,15.9-0.7s6.7,8.4,11.2,8
		c4.5-0.4-5.8,5.9-13.6,1.5c-7.8-4.5-9.9-4.6-16.7-1.9s-10.4-4.6-14.2-4.9C21.1,316.1,16.9,318.3,9.6,315.6z"/>
	<path class="st1" d="M12.2,307.3c11.4-5.7,12.5-0.9,21.4-6.4c5.1-3.1-4.7,6.1,1.3,3.9c6.1-2.2,9.4-5.5,14.5-11.5
		c-1.1-1.3-3.6-0.9-5.8,0.9c-1.9,1.5,0.1-2.1-2-2c-2.6,0.2-5.6,4.9-12.6,7.4s-8.8-1.8-17.2,2.2c-15.2,7.2-29.6-3.6-29.6-3.6
		s4.8,15.1,6.4,15.3C0.3,314.6,6.8,310,12.2,307.3z"/>
	<path class="st1" d="M121.1,298.8c9.8-1.2,10.4-2.3,14.2-4.3c6.1-3.3,11.9,1.2,15.4,2.1c3.4,0.9,3.9-3,6.8-3.8c2-0.6,3.7,0,5,0.2
		s2.2-0.3,0.9-0.7c-1.6-0.5-2.6-0.8-3.8-1.1c-3-0.7-4.7,0.2-6.6,2.7c-1.6,2.1-7-4.5-14.2-3.8C131.8,290.7,127.9,297.6,121.1,298.8z"
		/>
	<path class="st1" d="M108.5,306.3c0.3-2.7,7.4-4.8,12-2.4c7.9,4.2,10.5,0.6,10.3,2.4c-0.1,1.1-1.8,2.2-6.2,1.9
		c-1.8-0.1-3.9-1.1-4.9-1c-1.4,0.2-0.2,1.1,1.3,1.7c1.5,0.6,3.4,1,2,1.9C120.2,312.6,108.1,310.6,108.5,306.3z"/>
	<path class="st1" d="M132.4,304.2c-1.7,1.4-0.4,1.9,0.6,1.1C133.9,304.4,133.6,303.2,132.4,304.2z"/>
	<path class="st1" d="M166.2,292.3c-2.2,0-1.5,1.2-0.2,1.2C167.3,293.4,167.7,292.3,166.2,292.3z"/>
	<path class="st3" d="M76.6,321.5c-4-0.7-4,2.8-0.4,2.7C79.8,324.1,78.8,321.9,76.6,321.5z"/>
	<path class="st3" d="M68.3,314.4c-3.1-0.1-2.9,3.4,0,3.4C71.2,317.7,70.3,314.4,68.3,314.4z"/>
	<path class="st1" d="M47,288.6c-2.3,0.9-2.4,3.7-0.5,2.6C48.5,290.1,48.1,288.2,47,288.6z"/>
	<path class="st1" d="M669.9,443.6c0,0,34.5,2.4,58.7-16.1C752.9,409,744.6,453.7,669.9,443.6z"/>
	<polygon class="st3" points="68.4,275.4 86.9,275.4 87.7,280.7 67.5,280.7 	"/>
	<path class="st4" d="M710.4,345c-0.9-0.2-0.4-1.6,0.5-1.6C711.9,343.5,711.3,345.2,710.4,345z"/>
	<path class="st4" d="M709.5,339.7c-0.8,0.1-1.2,1.8,0,1.8C710.7,341.4,710.2,339.7,709.5,339.7z"/>
	<path class="st4" d="M713.1,340.3c-0.6-0.3-1.8,0.9-1.2,1.2S713.9,340.6,713.1,340.3z"/>
	<path class="st4" d="M715.3,341.9c-1-0.2-1.8,2.3-0.8,2.3C715.6,344.3,716.3,342,715.3,341.9z"/>
	<path class="st4" d="M842.2,453.5c-1.8-0.4-4.4,3.6-1.9,4.2C842.8,458.4,843.7,453.9,842.2,453.5z"/>
	<path class="st4" d="M848.7,448.1c-1.2-0.4-3.9,5-2.6,5.3C847.4,453.7,849.9,448.5,848.7,448.1z"/>
	<path class="st4" d="M854.6,449.9c-1.2,1.8,0.4,3.7,1.7,1.2C857.5,448.6,856,447.8,854.6,449.9z"/>
	<path class="st4" d="M853.9,444.9c0.9,0.4,2.4-2.4,1.2-2.5C853.9,442.2,853,444.5,853.9,444.9z"/>
	<path class="st4" d="M848.2,457.4c-2-0.5-4.7,5-2.1,5.6C848.7,463.5,850.3,457.9,848.2,457.4z"/>
	<path class="st4" d="M843,291.2c-1.2,0-1.7,1.7-0.8,1.7C843.3,292.9,843.8,291.2,843,291.2z"/>
	<path class="st4" d="M845.8,295.8c-0.9,0-1.4,1.8-0.6,1.7S846.5,295.8,845.8,295.8z"/>
	<path class="st4" d="M850.3,292.2c-0.9-0.2-1.2,1-0.6,1.1S850.9,292.4,850.3,292.2z"/>
	<path class="st4" d="M844.4,300c-0.8-0.2-1.2,1.2-0.3,1.3S845.2,300.2,844.4,300z"/>
	<path class="st4" d="M851,299.4c-0.7,0-0.7,1.1,0,1.2C851.7,300.8,852.1,299.4,851,299.4z"/>
	<path class="st4" d="M856.9,295.8c-0.8,0-0.9,1.2-0.4,1.2C857.3,297.1,857.7,295.8,856.9,295.8z"/>
	<path class="st4" d="M857.3,302.9c-0.9-0.1-1.1,1.7,0,1.7S858.2,302.9,857.3,302.9z"/>
	<path class="st4" d="M864.9,298.7c-0.8-0.5-3,0.9-1.9,1.7S865.7,299.2,864.9,298.7z"/>
	<path class="st4" d="M867.3,308.2c-1.4-0.6-2.3,0.6-1.2,1.1S868.4,308.7,867.3,308.2z"/>
	<path class="st4" d="M860.7,311.7c-1.1-0.5-1.8,1.5-0.6,1.7S861.6,312.1,860.7,311.7z"/>
	<path class="st4" d="M874.1,304c-1.3-0.5-1.9,1.6-0.5,1.7S875,304.3,874.1,304z"/>
	<path class="st4" d="M980.3,413.4c-1.7-0.1-3.4,3.9-0.3,3.8C983,417.1,982,413.5,980.3,413.4z"/>
	<path class="st4" d="M980.1,423.2c-2.2-0.3-4.3,4-1.7,4.2C981,427.7,981.9,423.5,980.1,423.2z"/>
	<path class="st4" d="M988.6,417.2c-1.3-1.4-3.7,1.6-2.2,2.4C987.9,420.3,989.9,418.6,988.6,417.2z"/>
	<path class="st4" d="M994,418.8c-1.1-0.1-3.3,2-1.5,2.4S995.1,418.8,994,418.8z"/>
	<path class="st4" d="M996.9,414.7c-1.9-0.7,0-4.6,2.4-3.2C1001.6,412.9,998.3,415.2,996.9,414.7z"/>
	<path class="st4" d="M986.2,426.8c-1.5-0.5-3.6,2.8-0.8,3.1C988.3,430.2,987.9,427.3,986.2,426.8z"/>
	<path class="st4" d="M989,422.4c-1.4,0.4-1.3,1.6,0,1.7S989.8,422.1,989,422.4z"/>
	<path class="st4" d="M999.3,422.9c-1.6-1.2-3.8,2-1.9,2.5C999.2,425.9,1000.5,423.8,999.3,422.9z"/>
	<path class="st4" d="M1009.9,419c-2.3,0-6.7,3.4-2.9,3.9S1012.2,419,1009.9,419z"/>
	<path class="st4" d="M1012.6,426.2c-1.6-0.8-3.8,2.6-1.6,3.1S1014.3,427,1012.6,426.2z"/>
	<path class="st4" d="M1019.7,424.3c-1.7-0.3-3,2.2-0.4,2.4C1021.8,426.9,1021.1,424.6,1019.7,424.3z"/>
	<path class="st4" d="M1007.2,295c-0.9-0.1-0.8,1.1,0,1.1S1008.1,295.1,1007.2,295z"/>
	<path class="st4" d="M1011.4,295.1c-0.9-0.1-0.8,1.2,0,1.2C1012.2,296.3,1011.9,295.2,1011.4,295.1z"/>
	<path class="st4" d="M1008.1,298.1c-0.7-0.2-0.8,1.2,0,1.1S1008.7,298.3,1008.1,298.1z"/>
	<path class="st4" d="M1012.6,300c-0.8-0.5-1.7,1.2-0.7,1.2S1013.3,300.5,1012.6,300z"/>
	<path class="st4" d="M1014.8,297.7c-0.7,0.2-0.5,1.4,0.2,1.1C1015.7,298.5,1015.5,297.6,1014.8,297.7z"/>
	<path class="st4" d="M1017.7,293.7c-0.3-0.8-2.1,0-1.7,0.8S1018,294.4,1017.7,293.7z"/>
	<path class="st4" d="M936.2,277c-0.7-0.1-1.2,1.2-0.4,1.1S936.9,277.1,936.2,277z"/>
	<path class="st4" d="M934.8,281.1c-0.8-0.1-0.8,1.2,0,1.2S935.7,281.2,934.8,281.1z"/>
	<path class="st4" d="M936.6,280c-0.3,0-0.3,0.8,0,0.7S936.9,280,936.6,280z"/>
	<path class="st4" d="M940.2,280.5c-0.2-0.6-1.6,0.2-1.3,0.7S940.5,281.1,940.2,280.5z"/>
	<path class="st4" d="M940.1,277c-0.7-0.3-1.4,0.8-0.5,0.9S940.4,277.2,940.1,277z"/>
	<path class="st4" d="M945.6,280.8c-0.8-0.3-1.6,0.9-0.6,1.2S946.1,281,945.6,280.8z"/>
	<path class="st4" d="M948.9,276.4c-0.9,0-1.4,1.2-0.3,1.1S949.6,276.4,948.9,276.4z"/>
	<path class="st4" d="M941.8,283.1c-0.6,0-0.4,0.6,0,0.6S942.1,283.1,941.8,283.1z"/>
	<path class="st4" d="M725.4,386.2c-0.4-0.7-2.4,0.6-1.4,1.2C725,388,725.6,386.7,725.4,386.2z"/>
	<path class="st4" d="M728.3,385.6c-0.7,0-1.1,1.4-0.3,1.4C728.8,386.9,728.8,385.6,728.3,385.6z"/>
	<path class="st4" d="M727.1,389.3c0.6,0.5-0.5,1.7-1.3,1.1C725.3,390.1,726.3,388.7,727.1,389.3z"/>
	<path class="st4" d="M730.1,388.6c-0.6,0-0.8,1.1,0,1C730.9,389.5,730.9,388.6,730.1,388.6z"/>
	<path class="st4" d="M732.2,385.4c-0.8-0.5-2,1.7-0.8,1.8C732.5,387.3,732.9,385.8,732.2,385.4z"/>
	<path class="st2" d="M1010.7,276.6c0,0-6,0.8-6.5-5.9c-0.3-4.1,2.2-7.1,5-8.7c5.8-3.5,12.3-2.6,15.7,0.6c2.5,2.4,5,2.9,8,3.2v13.5
		C1032.8,279.2,1014.7,286.2,1010.7,276.6z"/>
</g>
</svg>
