<?xml version="1.0" encoding="utf-8"?>
<!DOCTYPE svg PUBLIC "-//W3C//DTD SVG 1.1//EN" "http://www.w3.org/Graphics/SVG/1.1/DTD/svg11.dtd">
<svg version="1.1" xmlns="http://www.w3.org/2000/svg" xmlns:xlink="http://www.w3.org/1999/xlink" x="0px" y="0px"
	 viewBox="0 0 90 90" enable-background="new 0 0 90 90" xml:space="preserve">
<g id="Avansert">
	<path fill="#3F3161" d="M54.1,45.9l1.9-7.1l-4.1-1c0-1.6-0.2-3.2-0.7-4.7l3.8-2.1l-3.7-6.3l-3.7,2.3c-1.1-1.1-2.3-2-3.7-2.7
		l1.3-4.4L38,18.1L37,22.6c-1.5,0-3,0.2-4.4,0.6l-2.2-4.1L24,22.9l2.5,4c-1.1,1-2,2.2-2.7,3.6l-4.5-1.3l-1.9,7.1l4.5,1.1
		c0,1.5,0.2,3,0.6,4.4l-4.1,2.2l3.7,6.3l3.9-2.4c1,1.1,2.2,2,3.6,2.8l-1.3,4.6l7.1,1.9l1.1-4.6c1.6,0.1,3.1-0.1,4.5-0.6l2.1,3.9
		l6.3-3.7l-2.3-3.7c1.1-1.1,2.1-2.3,2.9-3.7L54.1,45.9z M34.9,45c-4.1-1.1-6.5-5.3-5.4-9.3c1.1-4.1,5.3-6.5,9.3-5.4s6.5,5.3,5.4,9.3
		C43.2,43.6,39,46.1,34.9,45z"/>
	<path fill="#1EAEF7" d="M75.6,57.5l-0.7-5.3l-3.2,0.5c-0.4-1.1-1.1-2.1-1.8-3l2-2.4L67.7,44l-1.9,2.6c-1-0.4-2.1-0.6-3.2-0.8
		l-0.3-3.3L57,43.2l0.5,3.3c-1,0.4-2,0.9-2.8,1.6L52,46l-3.3,4.2l2.7,2c-0.4,1-0.7,2-0.9,3.1l-3.4,0.3l0.7,5.3l3.4-0.5
		c0.4,1,0.9,2,1.6,2.8l-2.1,2.6l4.2,3.3l2-2.7c1,0.5,2.1,0.8,3.2,0.9l0.3,3.5l5.3-0.7l-0.5-3.4c1.1-0.4,2-1,2.9-1.6l2.5,2l3.3-4.2
		l-2.6-1.9c0.5-1,0.9-2.2,1-3.3L75.6,57.5z M62.2,62.1c-3.1,0.4-5.8-1.8-6.2-4.8c-0.4-3.1,1.8-5.8,4.8-6.2c3.1-0.4,5.8,1.8,6.2,4.8
		C67.4,58.9,65.2,61.7,62.2,62.1z"/>
	<path fill="#17C96B" d="M50.4,64.8l-1.3-2.8l-1.7,0.8c-0.4-0.5-1-1-1.5-1.3l0.7-1.7l-3-1.1l-0.6,1.8c-0.7-0.1-1.3,0-2,0.2l-0.8-1.8
		l-2.8,1.3l0.9,1.8c-0.5,0.4-0.9,0.9-1.3,1.4l-1.9-0.7l-1.1,3l1.9,0.6c-0.1,0.6-0.1,1.3,0.1,1.9l-1.8,0.8l1.3,2.8l1.8-0.9
		c0.4,0.5,0.9,0.9,1.4,1.3L37.9,74l3,1.1l0.6-1.9c0.6,0.1,1.3,0.1,1.9,0l0.8,1.9l2.8-1.3l-0.9-1.8c0.5-0.4,1-0.9,1.3-1.4l1.8,0.7
		l1.1-3l-1.8-0.6c0.1-0.7,0.1-1.4,0-2.1L50.4,64.8z M43.7,69.8c-1.6,0.8-3.6,0.1-4.4-1.6c-0.8-1.6-0.1-3.6,1.6-4.4
		c1.6-0.8,3.6-0.1,4.4,1.6C46,67.1,45.3,69,43.7,69.8z"/>
</g>
</svg>
