<?xml version="1.0" encoding="UTF-8" standalone="no"?>
<svg width="1010px" height="486px" viewBox="0 0 1010 486" version="1.1" xmlns="http://www.w3.org/2000/svg" xmlns:xlink="http://www.w3.org/1999/xlink">
    <!-- Generator: Sketch 3.8.3 (29802) - http://www.bohemiancoding.com/sketch -->
    <title>header-bg1</title>
    <desc>Created with Sketch.</desc>
    <defs>
        <rect id="path-1" x="0" y="0" width="1010" height="486"></rect>
    </defs>
    <g id="Page-1" stroke="none" stroke-width="1" fill="none" fill-rule="evenodd">
        <g id="header-bg1">
            <mask id="mask-2" fill="white">
                <use xlink:href="#path-1"></use>
            </mask>
            <use id="Rectangle-2" fill="#1066B2" xlink:href="#path-1"></use>
            <path d="M407.00001,-125 C407.00001,-125 139.04533,-158.726026 139,-80.0958872 C138.99379,-69.3239504 52.1566976,35.6712646 185.156692,210.835632 C318.156686,386 479.355294,431.484763 454.156692,508.506836 C419.369963,614.835986 172.631626,557.931504 172.631626,557.931504 L257.877008,677 L534.404713,533.219196 L948.156692,581.520567 C948.156692,581.520567 604.953408,522.279132 569.156692,499 C567.528606,497.941232 513.156692,508.506836 513.156692,508.506836 C513.156692,508.506836 446.00001,307.999985 492.821599,210.835626 C534.078781,125.218549 752.799081,66.6800788 836.00001,3.24717661e-07 C889.099044,-42.5553876 663.312364,-65.4931487 663.312364,-65.4931487 L563.512892,-80.0958888 L858.752998,-98.068492 C858.752998,-98.068492 948.713519,-129.969796 844.198908,-132.890411 C739.684297,-135.811025 407.00001,-125 407.00001,-125 Z" id="Path-8-Copy" fill="#262E64" mask="url(#mask-2)"></path>
        </g>
    </g>
</svg>