<?xml version="1.0" encoding="utf-8"?>
<!-- Generator: Adobe Illustrator 21.0.2, SVG Export Plug-In . SVG Version: 6.00 Build 0)  -->
<svg version="1.1" id="Layer_1" xmlns="http://www.w3.org/2000/svg" xmlns:xlink="http://www.w3.org/1999/xlink" x="0px" y="0px"
     viewBox="0 0 75 75" style="enable-background:new 0 0 75 75;" xml:space="preserve">
<style type="text/css">
    .st0{fill:#17C96B ;}
    .st1{fill:#3F3161 ;}
    .st2{fill:#1EAEF7 ;}
</style>
<path class="st0" d="M52.4,23.5l-6.1,2.3l11.4,30.5l6.1-2.3L52.4,23.5z M49.7,30.8l-0.8-2.1l3.4-1.3l0.8,2.1L49.7,30.8z M57,50.3
    l3.4-1.3l0.8,2.1l-3.4,1.3L57,50.3z"/>
<path class="st1" d="M38.5,24.5v31h7v-31H38.5z M43.5,52.5h-3v-2h3V52.5z M43.5,35.5h-3v-3h3V35.5z"/>
<path class="st0" d="M28.5,26.5v29h8v-29H28.5z M35.5,34.5h-6v-3h6V34.5z"/>
<path class="st2" d="M19.5,22.5v33h7v-33H19.5z M24.5,52.5h-3v-2h3V52.5z M24.5,29.5h-3v-2h3V29.5z"/>
</svg>