<svg id="Layer_3" data-name="Layer 3" xmlns="http://www.w3.org/2000/svg" xmlns:xlink="http://www.w3.org/1999/xlink" viewBox="0 0 336.06 336.06"><defs><clipPath id="clip-path"><circle cx="168.03" cy="168.03" r="168.03" fill="none"/></clipPath><clipPath id="clip-path-2"><rect x="-665.56" y="-99.04" width="1024" height="467.2" fill="none"/></clipPath></defs><title>Artboard 1</title><g clip-path="url(#clip-path)"><g clip-path="url(#clip-path-2)"><path d="M-15.65,108.52s-5.23,7.59,1.67,20.17,20.35,20.46,5.8,35.7l3,2.77s4.9-8.8,4.18-17.36-2.15-12.32-5.51-17-6.62-10.52-5.21-16c0,0,11.31-.76,15.76-11.5s.42-14.64,9.08-20.71,3.35-12.26,3.35-12.26,5.21,6.4,16,1.42S157.08,61.4,148.7,54.5C151-56.38-1.23,55.93-1.23,55.93Z" fill="#fff"/><path d="M387.91,305.74l1.53-.28-2-128.67-167.76,2.83L-112.56,243l.6.22,492.44,62.57Z" fill="#fff"/><polygon points="224.1 184.39 321.1 169.03 321.1 81.96 218.77 70.63 224.1 184.39" fill="#422d62"/><polygon points="-684.06 251.23 -332.56 227.96 -100.94 256.96 121.27 336.96 204.44 341.96 422.44 311.96 422.44 391.96 -684.06 391.96 -684.06 251.23" fill="#0062bd"/><polygon points="330.77 -112.7 330.77 167.29 387.44 175.29 387.44 -117.37 330.77 -112.7" fill="#fff"/><polygon points="216.77 -121.37 218.77 70.63 321.1 81.96 321.1 -110.7 216.77 -121.37" fill="#00aff9"/><polygon points="213.44 -4.04 213.44 174.63 -18.9 221.96 -34.49 169.56 -31.59 145.4 -73.56 60.96 -24.56 89.46 147.94 67.96 155.94 -8.04 213.44 -4.04" fill="#c0efff"/><path d="M101.77-29.71s0,87.33-71,102L25.77-105l121.33-2V58.46S115.09,44.06,101.77-29.71Z" fill="#00aff9"/><polygon points="30.6 77.96 153.94 59.96 145.1 56.58 29.1 72.3 30.6 77.96" fill="#6a6a6a"/><polygon points="155.94 61.37 155.94 -109.3 145.1 -110.7 145.1 56.58 155.94 61.37" fill="#ffcad4"/><path d="M35.83,88.34l127.09-19.8.57-179.24h-9.55V51c0,6.18-.84,9-6.83,9.91L25.77,78.69Z" fill="#ffcad4"/><polygon points="213.44 -110.7 213.44 179.29 224.1 177.29 224.1 -116.04 213.44 -110.7" fill="#ffcad4"/><polygon points="325.19 -105.04 325.19 156.46 317.69 156.46 317.69 -107.04 325.19 -105.04" fill="#c0efff"/><polygon points="333.19 -107.04 342.94 175.46 325.19 167.05 325.19 -108.79 333.19 -107.04" fill="#ffcad4"/><path d="M325.19,77.93c2.82,0,2.77,5.52,2.77,9.5s-.34,9.5-2.77,9.5-2.86-3.57-2.86-9.5C322.32,83.52,322,77.93,325.19,77.93Z" fill="#969696"/><path d="M325.19,167,219.68,183.57s18.68,4.09,45.22,11.63,39.35,8,80.92,0c41.79-8,64.54-27.57,64.54-27.57Z" fill="#0062bd"/><polygon points="213.44 167.63 29.1 202.45 29.1 216.7 213.44 180.54 213.44 167.63" fill="#0062bd"/><path d="M209.13,286.18c-8.33.55-16.27,1.57-24.53-.33-8-1.85-15.61-5.41-22.72-9.53a41.11,41.11,0,0,0-7.36-3.72c-3.75-1.26-7.79-1.26-11.75-1.2a76.51,76.51,0,0,0-14,1.14c-11.22,2.27-25.26,7.38-29.83-7.6-3.87-12.68,15-24.72,5.27-35.94-2.45-2.83-6-4.36-9-6.64s-5.45-6.06-4.24-9.59c.85-2.48,3.28-4.06,5.69-5.11,7.53-3.26,16-3.12,24.2-3.69,11.08-.77,25.11-1.54,34.92-6.81,4.51-2.42,9.21-4.43,13.57-7.12a48.33,48.33,0,0,0,6.33-4.56c.79-.68,4.2-5.18,4.89-5.2-10.08.29-19.45,4.88-28.88,8.48-30.21,11.5-63.41,13.2-93.78,24.27-10.44,3.81-20.56,8.73-31.47,10.84-9.57,1.86-19.47,1.49-29,3.35a63.73,63.73,0,0,0-20.67,8c-6,3.63-11.38,9-17.9,11.68-2.19.91-4.57,1.49-6.49,2.88-2.65,1.92-4.07,5.1-5.07,8.22a52,52,0,0,0-1.85,7.81,11.14,11.14,0,0,0,0,4.66c.81,2.94,3.59,4.84,6.25,6.33,4.1,2.29,8.4,4.22,12.45,6.61,4.71,2.78,9,6.18,13.89,8.72,5.21,2.74,10.89,4.43,16.54,6.06,15.5,4.45,31.24,8.49,47.34,9.53,10,.65,20.29.15,30,3,9,2.65,17.05,9.4,25.94,12.86,14.09,5.49,33.07,21.12,48.19,21.21,29.91.19,57-17.87,83.75-31.26,7.16-3.58,14-7.85,21.2-11.26,10.26-4.84,21.24-7.9,32-11.55a307.78,307.78,0,0,0,32-12.89c6.53-3.07,9.44,37.12,6.51,28-43.43,8-50.77-23.65-84-22.07C228,284.11,218.59,285.55,209.13,286.18Z" fill="#c0efff"/><path d="M-11.46,110.75c-10,1.24-17.5-3.18-18.43-13S-40,89-39.17,76.15s4.11-48-21.35-50.65c0,0,1.86-7.82-3-11.4S-73,10.25-70.33-.49-82.52-8.85-76.56-16c4-4.77,10.92-10,9.41-17.77C-68.74-42-74.83-43.54-81.6-45.44c-13.26-3.71-4.58-24.4,12.16-25.19s38-15.38,17.8-43c0,0,107.4-13.79,105.81,25.59,0,0,15.78-3.85,23.2,8.22s-.8,18.7,0,21.74,7.52-1.86,9.06,5.3-4,22.81-13.7,31.82C64.05-12.82,68.23-1,65.18,13.43s-15.78,16-15.78,16,0,29.7-30.1,25.72A112.17,112.17,0,0,0,6.58,79.35C3.09,88.55,4.59,101-1.74,106-4.32,108-8.36,110.37-11.46,110.75Z" fill="#00aff9"/><path d="M-44.93-107.93s-8.22,10.19-1.52,21c6,9.65,16.59,5.31,23,18.22s-2.06,24.62-1.3,35.57,13.34,8.68,14.42,19.74-4.55,16.27-1,18.65S1.28,2.75,6.9-11.18c2.71-6.71,1.92-13.7.22-19.43-4-13.45,3.8-19,4.06-29.17C11.36-66.69,7.4-70.38,6-75.62c-3.36-12.9,23-14.53,17.78-32.32Z" fill="#0062bd"/><path d="M-1.74,106C5.57,97.44,3.34,88.33,1.59,86.4-1.74,82.71,4.76,83.15,4,80c-.74-3-4.45-8.62,1.74-11.47s9.87-10,6.4-22.8S8.86,22.32,22.33,14.93c20-11,10.6-22.85,26.87-26.12,0,0-5.64,5.62-5.21,13.65s-11.6,14-11.6,14S37,27.87,34.71,37.38c-1.89,7.69-5.08,13.83-14.29,18-.68,4.33-3,22.63-13,25.65A24.74,24.74,0,0,1-1.74,106Z" fill="#0062bd"/><path d="M55.31,148.21l-5.82,62.36s.7,4.94-12.93,8.29-17,.72-17,.72l-5.13-63.37Z" fill="#422d62"/><path d="M19.44,231.21s15.17,3.06,26.33-3.25c5.75-3.25,6.25-7.4,6.25-7.4v-6.77s-.78-2.38-2.64-2.38c0,0-6.77,11.6-30.27,7.45Z" fill="#00aff9"/><path d="M45.6,160.71s5.44,1.1,8.58-8.08c3-8.77,7.08-5.67,10.92-18.59s-7.92-24.83-7.92-24.83-.91-25.43-8.58-29.08S42.1,73.21,38,70c-3.41-2.66-9.33-3.4-16.5,12.18S12.77,93,8.19,111.79s12,35.83,12,35.83l16.44,12.5Z" fill="#00aff9"/><path d="M43.94,124.88a10.64,10.64,0,0,1,11.38-3.75s12.71-12.5,2-19.17c0,0,4.85-15.8-8.75-21.83-8.83-3.92-12,8.21-12,8.21s9.06-1.46,11.81,9.2.5,13-3.58,8.92-14.25-6.83-19.08.83,3.69,2.14,9.58,3.83C41.75,113,44.35,119.13,43.94,124.88Z" fill="#0062bd"/><path d="M21.52,82.21C15.77,85,10.69,89.71,8.94,101S.52,114.21-.23,123.46s3.58,11.92,6.17,16.33S3.58,149,7.33,154.38s13.94,13,26.19,11.87,16.94-7.35,16.94-7.35-6.19-5-12.28-2.27-1.42-3.42-4-8.42-11.86-2.58-11.86-2.58,5.36-6.17.86-10.67-4.67-6.19-4-10.68-3.08-5.82-7-5.91S4.43,111.75,9,105.58s3.22-7.94,7.11-13.32A40,40,0,0,0,21.52,82.21Z" fill="#422d62"/><path d="M32.45,210l-84.65,2.27A149.06,149.06,0,0,0-53.09,239c.76,12.09,14.56,16.65,22.1,23.56,6.21,2.1,1.42,12.07,7.58,12.81,15.91,1.92,31.1-.76,42.78-8.44C35.59,256.25,32.45,210,32.45,210Z" fill="#0062bd"/><path d="M-52.21,212.25s-9.93,41.41,8.19,55.41c24.09,18.61,56.93,2.81,56.93,2.81s-10-15.68-34.84-18.1c-7.64-.75-15.57-13.21-18.43-17.06C-53.53,217.57-52.21,212.25-52.21,212.25Z" fill="#422d62"/><path d="M-39.64,221.85c.38.05,58.46,5,74.69-13.92s4.31-28.39-2.22-26.19-1.8-6.12-3.27-13.23C27.22,157.29,13,152.1,1.47,161.41c-11.22,9-6.27,3.32-5.13-2.27C-2.21,152-8.16,146-18.08,151s-3.12,13.52-3.12,13.52-3.57-8-9.26-7.36-9.62,24.17-9.62,24.17l-9.19,25.91S-49.95,220.35-39.64,221.85Z" fill="#00aff9"/><path d="M14,197.92s-4.15-6.19-12.7-3.9-14.4,14.4-22.84,11-3.48-24.33,16-18.43,19.16.22,19.24-1.59-3.36-5.4-7.44-4.26c0,0,12.88-13,5-18.52-5.26-3.73-11.4,7.44-15,10.47s-10.08,6.92-4.15-1.85S4.44,156.22,16,156.69c8.27.34,6.35,10.16,2.37,15.44-3.77,5,4.57-2.21,6,5.33.71,3.79,3.52-5.49,7.82-3.42s2.39,7.61,2.39,7.61-5.66-.2-7.13,7.3-3.62,4.19-5.22-2.95c-1.75-7.8-7.27-9.18-6.35,2.87C16.44,196.72,14,197.92,14,197.92Z" fill="#c0efff"/><path d="M79.2,228.17c-3.5-3.66-2.1-7.66.47-19.9s-4.32-14.46-18.31-14.46S40.48,196,43,208.27s4,16.25.47,19.9S43.86,237,61.36,237,82.7,231.83,79.2,228.17Z" fill="#6a6a6a"/><ellipse cx="61.36" cy="200.06" rx="15.6" ry="3.85" fill="#0062bd"/><path d="M143.1,102.89c16.78-2.82,49.23-9.3,50.93-7.34,2.38,2.74-1.89,3.83-3,6.21-2.57,5.61-.23,13.07,1.56,19s3,10.61,4.54,16.58a71.2,71.2,0,0,1,1.87,16.4c.22,10.26-.4,20.71-3.95,30.33s-10.33,18.42-19.73,22.53a50.68,50.68,0,0,1-11.26,3.12,158.45,158.45,0,0,1-23.83,2.52,25.69,25.69,0,0,1-9.21-.94c-2.93-1-5.62-3.23-6.43-6.23a6.5,6.5,0,0,0-.84-2.41c-1.78-2.3-6.34.15-8.06-2.19a3.62,3.62,0,0,1-.58-1.75c-.68-5.85,3.87-10.87,5.81-16.43,3.48-10-1.72-20.73-2.75-31.27-.58-5.91-11.28-17.46-10.77-23.37.59-6.86,1.81-11.68,6.31-14.79C122.57,106.71,132.34,104.7,143.1,102.89Z" fill="#6a6a6a"/><path d="M123.44,150.2c3.92,13.07,7.64,16.75,5.52,28.06C127.5,186,125,194.67,120.35,201c-.39.52-2-.39-2.63-.14A2.5,2.5,0,0,1,115,200a6.57,6.57,0,0,1-1.18-2.81,41.47,41.47,0,0,1-1.09-9.74c0-6.31,1.53-12.63.73-18.9a69.33,69.33,0,0,0-1.66-7.63,152.51,152.51,0,0,1-3-17.44c-.4-3.25-3.1-17.3.11-19.54C116,118.95,119.34,136.54,123.44,150.2Z" fill="#422d62"/><path d="M183.08,96.17c-18.79,2.73-39,5.17-57.28,12.44-2.15.86-14.55,6.69-14,8.42s14.41-5.2,19.7-7.43C151.17,101.3,179.08,98.12,183.08,96.17Z" fill="#422d62"/><path d="M51.21,232.78c5.54-4.5,14.56-13.32,17.28-5s8.59,8.86,15.13,6.49c1.06-.38,2.38-.82,3.86-1.27,7.72-2.34,19.81-4.94,21.64-1.08L99,237.22,71.31,242,51.5,246.28l-7.09-4.6A22.91,22.91,0,0,1,51.21,232.78Z" fill="#00aff9"/><path d="M40.42,246c2.61,2.33,15.11,6.25,29.64,5.73,14-.5,13.18-4.68,11-8s9.49-4.87,17-4.9,11-6.94,11-6.94-48.48,8.27-55.79,9.53-7.24-5.12-2.14-8.72C51.21,232.78,36.81,242.8,40.42,246Z" fill="#0062bd"/><path d="M25.62,286.3s8,33.83-6.46,49.18c-5.59,6-11.08,5.9-11.08,5.9s9.52-20.23,2.65-51.92Z" fill="#eee"/><path d="M-32.49,289.79s-7,35.46,10.34,47.89c12.91,9.25,30.23,3.7,30.23,3.7s7.24-5.39,8.54-29.06c.79-14.33-2.18-22.13-2.18-22.13S-.12,297.42-32.49,289.79Z" fill="#969696"/><path d="M-32.49,289.79c-6.36-2.17-8.08-13.52-.88-18.61s6-4.85,7.7-8,19-.45,19-.45l13,2.87s14-.07,19.78,1.81c6,1.94,8.3,12.54-.42,18.89S-10.58,297.27-32.49,289.79Z" fill="#00aff9"/><path d="M3.09,281.81s14.34-18,25-13.27c0,0-.14-13.1-14.09-9.91s-17.8,10.83-17.8,10.83S4.57,273.18,3.09,281.81Z" fill="#0062bd"/><path d="M-21.06,271.24s10.13-7,17.29-1.78l4.7-5-13.54-7.13S-24.11,264.43-21.06,271.24Z" fill="#0062bd"/><path d="M-21.06,271.24c-7.18,4.76-12.54-3.73-7.52-13.2,4.61-8.7,11.12-5,16.32-5.61,6.78-.74,8.37-8.38,16.75-7.61,8,.73,9.3,9.07,11.38,9.44s10.39.42,9.16,6.5-11-2.14-11-2.14-2.17,7.12-13,7.21-12.83-4.58-12.83-4.58S-23.18,260.9-21.06,271.24Z" fill="#c0efff"/><path d="M207.34,286.69c14.37-2.36,30.89-1.82,39.63,0S263,278.82,263,278.82L225.38,274l-19.49,10.79Z" fill="#422d62"/><path d="M236.7,271.52a193.5,193.5,0,0,1,20.47,2c2.69.48,6.3,1.78,6.64,2.94.89,3-5.86,6.24-13,5.36s-3.11,1.11-1,3,2.59,2.29-1,2.07-2-.54-4.7-2.48c-4.5-3.27-10.88-4.57-10.88-4.57L219,278.76Z" fill="#ffe262"/><path d="M157.51,245s-8.94,13.36-16.23,16.21-7.67,5.85-7.67,5.85l17.54,3.67,23.16-15.21,9.22-16.41S160.81,236.85,157.51,245Z" fill="#422d62"/><path d="M140.43,261.6s-.23-1.14,1.59-2,2.57-1.42,3.34-.77a11,11,0,0,1,3.14,6.58c.17,3.1,10.72,1.69,10.72,1.69l-2,8.35s-26.12-.9-27.13-5.53l3.48-2.78s9.58,1.59,8.85-.94A20.42,20.42,0,0,0,140.43,261.6Z" fill="#ffcad4"/><path d="M141.66,201.73s.66,13.65-2.57,13.89-6.2.78-12.09,1.3-13.93-.25-20.24-4.64c-5.91-4.12.54-9,10.28-7.87.65.08-.13-.51-1.35-1.67-.95-.9-1.36-2,.21-3,3.57-2.39,12.16,1,15,1.86C134.2,202.66,141.66,201.73,141.66,201.73Z" fill="#422d62"/><path d="M113.93,228.14c-17.1,0-27.8,4.92-27.8,4.92s.39,5.52,1,9.49,5,5,5,5l3.65,15.73s-6.26.24-5.35,3.84,1.7,7.56,1.7,7.56.65,4,21.79,4,21.79-4,21.79-4,.78-4,1.7-7.56-5.35-3.84-5.35-3.84l3.65-15.73s4.31-1.08,5-5,1-9.49,1-9.49S131,228.14,113.93,228.14Z" fill="#6a6a6a"/><path d="M96.6,237.31a64.33,64.33,0,0,0,29,0c14.91-3.71,11-10.28,3.26-7.86,0,0,1.66-3.08-2.21-5.52-4.31-2.71-9.91-2.39-13.54,2.43,0,0,4.51-5.11,2.34-5.54S89,234.57,96.6,237.31Z" fill="#0062bd"/><path d="M97.24,237.47c-6.26-.08-6.33-6.71,3.69-9s8.26,2,8.26,2,2.36-2.89,4.75-1.47-2.19-6.82,6.8-6.78,4.39,12.32-8.78,10.91c-2.5-.27-2.33,1.83-3.28,2.94-1.19,1.39-3.91.28-3.17-2.49.51-1.92-.43-3.32-1.87-3.17-2.21.23-2.5,2.13-2.6,3.45A3.86,3.86,0,0,1,97.24,237.47Z" fill="#422d62"/><path d="M112.82,235.37c-1.55-.18-2.27,1.27-.45,1.59S114.37,235.55,112.82,235.37Z" fill="#422d62"/><path d="M117.4,230.14c-.85.53-1,1.82,1.51,1.18S118.86,229.23,117.4,230.14Z" fill="#0062bd"/><path d="M106.83,228.14c-1.73,1.55-3.35-.5,1.94-4.35s8.63-4.39,8.09-9.72-4-4.79-8.31-4.25-7.41-6.12-7.41-6.12,8.74-2,12.73,4,4.08-3.38-1-8.15-9.22-5.73-9.22-5.73l1.45-1.66s9.06,2.44,11.81,8.68,2,14.55,2,14.55,4.9-6.24,1.5-18.07a58.39,58.39,0,0,0-9.14-19l1.29-2.26s3.76,8.24,4.79,7.1-.42-9.81,2.47-13.25,3.25-8.95,3.25-8.95,4.7,11.66,2.3,15.91-5.07,11.48-3.46,12.11,3.87.52,7.21-9.41-.27-9.09,3.07-15.07c0,0,3.34,6-.72,11.2a24.66,24.66,0,0,1,5.85-6.16s5.5,0,3.48,3.65-5.35,5.33-8.25,7-8,13.92-8.59,19.36,1.4,8.33,1.4,8.33.23-6,2.94-10.07,7-11.66,7-11.66,2.35,9.17-2.08,13.77-1.81,8-5.63,12.19c-3.44,3.8-4,7.26-.92,11.86s-5.4,7.54-5.4,7.54,6.75-6.46,1.05-8.59-9.21,5-10.1,4.34,4.38-4.92,2.39-5.82S108.27,226.85,106.83,228.14Z" fill="#00aff9"/><path d="M120,223.56s.55-7,4.69-5.5,2.61,7.19-.13,8.3Z" fill="#422d62"/><path d="M122.15,224.55c-1.55,0-2.76,2.72-.36,2.92S123.7,224.55,122.15,224.55Z" fill="#0062bd"/><path d="M117.68,220.11c-1.15,1-.54,2.55.9,1.39S118.83,219.06,117.68,220.11Z" fill="#422d62"/><path d="M90.7,190.13c-3.77,2.1-5.49,4.63-4.14,7.41s5.21,1.33,4.88,2.9c-.91,4.34,4.32,6.11,7.9,4.48s2.35-7.07,2.35-7.07a5.69,5.69,0,0,0,6.48-2c2.29-3-.68-7.14-3.7-7,0,0,1.17-3.77-1.54-5.25s-5.18-.56-5.12,1.79S90.7,190.13,90.7,190.13Z" fill="#ffcad4"/><path d="M100.39,169.51,96,176.43s.71,4,3.94,3c3.71-1.12,3,2.45,7,3.19,4.67.86,8.52-3,7.1-6.54a5.7,5.7,0,0,0,3.46-3.16c.8-2.34-1.16-4.08.68-6.41s2.84-6.48.37-9-3.83.74-5.49.37-1.67-4.69-8-4.51-7.5,5.83-8,9.07C96.31,168,100.39,169.51,100.39,169.51Z" fill="#ffcad4"/><path d="M108,170.25a6.67,6.67,0,0,1,.38-5.25,4.49,4.49,0,0,1,4.11-2.33s0-1.91-3.53-3-1.38-4.07-5.78-3.4-4.83,2.09-6.38,5.07-7.69,2-6.92,8,7.35,5.18,9.7,1.46S108,170.25,108,170.25Z" fill="#00aff9"/><path d="M89.84,167.69c-1.13,3.34-1.29,8.27,3.08,11,3.08,1.9,7,.74,7,.74s-2.27-2.75-1.46-5.72,2.27-4.64,4.77-4.72c0,0-3.89-1.43-6.2,3.2C95.45,175.38,89,172.88,89.84,167.69Z" fill="#ffcad4"/><path d="M103.85,166.5c.82,1.45-5.84.54-5.6-2.74s3.34-1,3.34-1-.83-4.17,2.27-3.28A6.44,6.44,0,0,0,103.85,166.5Z" fill="#ffcad4"/><path d="M101.17,191.9s-4.65,1.19-4.65,3.88c0,0-2.33-2.62-4.17-2s.9-1.37-1-2.12-3.7-4.77-.83-7.39,8.17-1.68,8.53,1.85C96.76,188.44,98.19,190,101.17,191.9Z" fill="#ffcad4"/><path d="M94.31,186.11s-2.45-.93-2.27,1.26,5.49,3,5.49,3a4.83,4.83,0,0,1-.72-4.49C97.67,183.22,93.72,183.42,94.31,186.11Z" fill="#422d62"/><path d="M139.68,167.8c-1.09,1.05-3.72,2.35-4.35,3.52a9.81,9.81,0,0,0-1,5.31,12.47,12.47,0,0,0,5.17-1.77c1.46-1.05,2.18-4,2.43-4.57C142.54,169,139.68,167.8,139.68,167.8Z" fill="#422d62"/><path d="M143.22,166.36c-1.36-.71-6.46,3.09-5.82,5.19.06.2,2.42-2.14,2.59-2,.39.37-1.48,3.12-1.13,3.22C141.75,173.64,143.22,166.36,143.22,166.36Z" fill="#ffcad4"/><path d="M177.45,291.29c8.44-2.29,40.26-5.83,40.26-5.83s9.76-4.2,14.5-8.27,9.76-.27,19.93-5.83,11.75-26.13,11.75-26.13S251,210.87,168,214.41c-13.28.57-21.55-1.2-21.42,12.9s17.76,18.75,17.76,18.75l3.8,3.62s-25,14.49-25.62,26.29C141.8,288,152.78,298,177.45,291.29Z" fill="#00aff9"/><path d="M263.89,245.23c-12.06-4.34-15-11.38-36.9-10.83,0,0-7.64,4.57-16.77,9.26-8.32,4.27-31.06,10.72-44.4,12.19-3.59.4-5.07-1-5.85-2.05-3.66-4.89-3.8-15.75-3.8-15.75S177,232.57,184.26,228s-.44-2.14-3.69-3.23-11.25-3-12.61-10.33l-28.87,1.21s1.88-10.17,2.29-14,8-1.66,14.25-5.22,8.8-8.77,10.84-16.17,9.52-16.58,20.1-15.5,18.27-7.82,25-7.14,14.1,3.66,22.23,22.64,13.37,24,21.67,37.58C264.82,233,263.89,245.23,263.89,245.23Z" fill="#c0efff"/><path d="M184.1,165.63s-1.07,10.61,2,15.11c2.53,3.65,10.68,5,13.1-7.55S208,158,208,158,186,158.9,184.1,165.63Z" fill="#c0efff"/><path d="M165.24,142.48s.11,7.35,0,10.22,1.84,3,3.9,3.67,2.25,6,6.55,7.67,9.91-2.63,11.59,4.75c1.5,6.56,4.84,6,8.7,1.87S204.46,158.46,208,158l-7.67-11.51s6.43-15.5-6.66-19.28S163.4,137.08,165.24,142.48Z" fill="#422d62"/><path d="M190.94,115s-7.81-7.41-20.83-3c-10.59,3.59-9.32,9.54-16.35,14.09-9.36,6.05,1.83,21,13.52,18,9-2.36,10.49-7.66,13.61-10.12s5.2,7.47,8,7.56,4.82-1.61,5.29-4.63,7.35-3.39,5.39,3.5c-3.63,12.76,8.31,11.16,7.76-2.61a27.25,27.25,0,0,0-3-11.16s9.25-6.56,2.24-14.89C200.6,104.58,191.66,108.26,190.94,115Z" fill="#fff"/><path d="M193.89,118.07c-1.33.52-.94,1.73,1.49,3.93s6,5.16,7.12,2.93c.73-1.43-2.09-2.1-4-3.47C196,119.72,195.2,117.56,193.89,118.07Z" fill="#6a6a6a"/><path d="M138.68,243.86s-21.2-1.16-20.5,4.49c.43,3.47,2.15,7.25,8,9.14,4.55,1.47,12.83,2,22.49-1.2,6.58-2.2,11.93-2.58,12.63-3.53s-2.67-5-5.06-13.16c-1.77.3-3.19.45-4.76.59-2.09.19-7.69-1.1-11.17-1.29-2.73-.15-5.2-.32-6.32-.38S130.3,241,138.68,243.86Z" fill="#422d62"/><path d="M281.77,153.79s13.33,1.59,21.68,0,12.8-1.19,12.8-1.19,3.23-3.27-1.79-11.19c-6.23-9.83-6.52-20.16-5-25.33,1.31-4.38,3.53-4.89,4.44-3,.62,1.28.21,4.07.19,5.91-.1,7.92,2,14.52,7.69,22.94s5.77,22.47,4.64,25.13,3,5.3,4,7.69.73,10.21-2.75,11.14-2.75-1-2-4.18-1.92-6-8.22-7.36-28.51-1.19-31.49,7.42-5,10.47-7.62,10.08c-3.22-.48.38-2.65.73-4.84.61-3.82,1.83-13.26-.13-16.71-1.33-2.32-5.9-3.85-9.68-5.44s-8.09-5.17-6.63-7.42,2.72-4,2.72-4-1-6.89.8-7.76,3.25,3.6,6,3.51c4.11-.13,6-4.57,7.56-4.57S281.77,153.79,281.77,153.79Z" fill="#6a6a6a"/><path d="M271.12,165.58c2.09-1.65,2.82-6.16,6.6-6s.93,6.52,7.09,8.66,6.83-8.13,15.31-9.66,9.92,4.71,12.86,7.76a10,10,0,0,0,8.55,2.65c1.52-.46,2.78-.93,1.26,3.85-.72,2.25-2.85,6.22-4.18,10.08-1.49,4.34-2.33,8.49-6.5,8.93-3.44.37-3.65-1.44-1.19-3.83s2.32-6.7,2.32-6.7-2.32-2.12-4.51-4.47-6.23,1.08-10.67,1.48-5.77,1.13-3.52,4.71,4.77,10.08,1.06,10.87-.27-1.66-3.71-5.24-12.58-12.5-16.8-21.43Z" fill="#fff"/><path d="M389.43,233c-2-1.26-31.13-9.22-48.56-3.34C325.55,234.83,319,243,316.53,253.71c-3.49-3.65-11.56-7.43-19.23-5.9C279.23,251.43,278.46,269,278.46,269s-2.11-6.52-6.12-7.38c-8.1-1.74-13.05,3-16.7,6.93-2,2.1-4.28,3.14-5.18,2.2-.7-.73.4-1.93,2.83-7.2.87-1.89,1.83-5.76-.67-6.92-3.08-1.43-9.2,3.63-11.45,13.58.77-13.18-4.88-13.75-8.67-10.93s-1.06,11.05-1.06,11.05-8.05-4.82-16-.91a19,19,0,0,0-9.27,10.5l-3.8-2.32s-1.2,9.93-3.5,9.38.28-5.51.49-8c.6-7.07-3.44-8.2-6.19-6.67-6.31,3.52-2.38,16.31-2.38,16.31s-2.83-7.37-5.94-9.36c-4.61-2.95-10.24.73-10.1,6.55.07,2.88,2.72,5.51,2.72,5.51s-9.42-3.17-13.71,4.15c-4.18,7.14,2.57,14,5.62,16.71-20.6,2-10.81,24.47-10.81,24.47s-21.76-6.56-22.82,13.76c-.16,3.15,17.75,7.9,21,8.9,9.17,2.82,210.2-8.47,226.67-17.91,2.51-1.44-3.91-50-3.94-52.45C379.47,286.72,393.27,235.37,389.43,233Z" fill="#0062bd"/><path d="M250.79,285.88c1.61,2,6.37,1.09,3.3-2.77C252,280.49,249.29,284,250.79,285.88Z" fill="#ffcad4"/><path d="M295.62,261.24c-.05,2.9,4.53,3.58,3.87-1.11C299.11,257.44,295.66,258.7,295.62,261.24Z" fill="#ffcad4"/><path d="M276.26,304.8c.56,2.48,6,2.17,4-2C279.09,300.22,275.69,302.32,276.26,304.8Z" fill="#ffcad4"/><path d="M219.87,283.84c-.47,2.05,3.46,4.73,4.22,2S220.34,281.79,219.87,283.84Z" fill="#ffcad4"/><path d="M200.18,304.27a2.12,2.12,0,1,0,4.22-.23C204.4,301.62,200.18,302.34,200.18,304.27Z" fill="#ffcad4"/><path d="M235.42,307c.56,2.32,4.22-.35,3.27-2.22S234.86,304.67,235.42,307Z" fill="#ffcad4"/><path d="M208.58,324c.56,2.32,4.72,0,3.77-1.91S208,321.68,208.58,324Z" fill="#ffcad4"/><path d="M180.35,324.92c.66,2.29,5,.81,4.44-2.63C184.39,319.6,179.38,321.58,180.35,324.92Z" fill="#ffcad4"/><path d="M258.87,319.64c1.32-2.1-1.19-3-2.27-1S257.55,321.74,258.87,319.64Z" fill="#ffcad4"/><path d="M305.37,287c-2.39-.64-2.5,2-.24,2.45S307.77,287.63,305.37,287Z" fill="#ffcad4"/><path d="M275.21,281.31c-1.2,1.26.25,4.64,1.88,2.76S276.41,280.05,275.21,281.31Z" fill="#ffcad4"/><path d="M42.32,264.22c2.39-.38,5.53.43,5.53,2.54.78-1.86,4-3.81,7.8-2.63,2.51.77,1.55,2.31,3.43,2.45s2.87-1.74,5.37-2.19,5.53.42,6.41,2.47c3.28-5,10.8-5.49,17.49-5,2.85.21,4.46,1.44.42,3.22-8.24,3.61-1.8,5.68,2.53,5.68,5.78-.17,6.22,2.54,5.74,6.5-3.31,2.13-9.49,3.29-13.54,2.57a3.4,3.4,0,0,0-2.59.16,2.09,2.09,0,0,0-.66,1.31c-.69,3.16-21,4.31-22.43,3.15-2.56-2.14-7.55-1.36-8.7-3.46a4.44,4.44,0,0,1,2.31-6c-2.51-.48-5.12-.1-7.68-.08s-5.52-.32-7-2.13C32.91,268.23,38.31,264.85,42.32,264.22Z" fill="#422d62"/><path d="M71,260.86c1.48,0,2.25,1.23,1.54,2.27a2,2,0,0,1-3.22,0C68.64,262,69.53,260.86,71,260.86Z" fill="#0062bd"/><path d="M46.38,277.9a2.71,2.71,0,0,1-2.73.16c-.71-.46.13-1.53,1.49-1.53S46.93,277.38,46.38,277.9Z" fill="#0062bd"/><path d="M54.31,286.21a1.12,1.12,0,0,0-.77-1.84,1.35,1.35,0,0,0-1.4,1.53A1.25,1.25,0,0,0,54.31,286.21Z" fill="#422d62"/><path d="M72.42,287.91c11.89,1,12.26-7.26,18.32-8.31-9.91-.08-8.56-6.1-11.17-8-1.39-1-3.5-2.1-5.62-1.45-2.37.73-3,3-5.2,2.82-1-.08-3.26-1.84-4.18-2.34a4.15,4.15,0,0,0-5,1c-1.26,1.5-1.4,3.88-3,5a8,8,0,0,1-3.53.79,4.64,4.64,0,0,0-2.81,1.16,2.21,2.21,0,0,0-.32,2.81,3.53,3.53,0,0,0,1.24,1c1.76.67,3.69.48,5.24,1.54,1.19.82-1.66,3.41,2.08,5.09S69.7,287.67,72.42,287.91Z" fill="#0062bd"/><path d="M78.56,283.61a2.37,2.37,0,0,0-2.46.89c-.56.76-.27,1.77.6,1.79C79,286.39,79.57,284,78.56,283.61Z" fill="#422d62"/><path d="M260.87,258.54c-1.76-1.24-4.07,2.59-4.87,6.69C256,265.23,263.53,260.42,260.87,258.54Z" fill="#0062bd"/><path d="M203,274.22c.8.35,7.57-5.39,3.6-7.64S201.37,273.52,203,274.22Z" fill="#0062bd"/></g></g></svg>