<?xml version="1.0" encoding="utf-8"?>
<!DOCTYPE svg PUBLIC "-//W3C//DTD SVG 1.1//EN" "http://www.w3.org/Graphics/SVG/1.1/DTD/svg11.dtd">
<svg version="1.1" xmlns="http://www.w3.org/2000/svg" xmlns:xlink="http://www.w3.org/1999/xlink" x="0px" y="0px"
	 viewBox="0 0 90 90" enable-background="new 0 0 90 90" xml:space="preserve">
<g id="Skjema">
	<g>
		<path fill="#17C96B" d="M29.4,36.1v-2.4h-6v30.9h5.2l0-28.3h0v-0.2L29.4,36.1z"/>
		<rect x="23.4" y="61.7" fill="#17C96B" width="4.6" height="2.9"/>
		<path fill="#17C96B" d="M61.6,64.7h6.6V40.5L61.6,47l0.6,15.1h-0.6L61.6,64.7z"/>
		<g>
			<polygon fill="#1EAEF7" points="47.7,26.8 62.2,37.4 60.8,46.2 60.9,49.7 72.6,38.1 50.7,16.2 39.1,27.9 42.6,28 			"/>
		</g>
		<path fill="#1EAEF7" d="M32.4,30.6h-4.9v43.2h30.9v-6l-25.7,0V33.2h-0.3L32.4,30.6z"/>
		<g>
			<path fill="#3F3161" d="M63.2,26H32.3v43.2h30.9v-33V26z"/>
			<rect x="37.2" y="59.6" fill="#FFFFFF" width="21.5" height="2.6"/>
			<rect x="37.2" y="53.7" fill="#FFFFFF" width="21.5" height="2.6"/>
			<rect x="37.2" y="47.9" fill="#FFFFFF" width="21.5" height="2.6"/>
			<rect x="37.2" y="42" fill="#FFFFFF" width="21.5" height="2.6"/>
			<rect x="37.2" y="36.1" fill="#FFFFFF" width="10.5" height="2.6"/>
		</g>
		<rect x="55.5" y="69.2" fill="#1EAEF7" width="2.9" height="4.6"/>
	</g>
</g>
</svg>
