<svg id="Layer_2" data-name="Layer 2" xmlns="http://www.w3.org/2000/svg" xmlns:xlink="http://www.w3.org/1999/xlink" viewBox="0 0 250.78 250.78"><defs><clipPath id="clip-path"><circle cx="125.39" cy="125.39" r="125.39" fill="none"/></clipPath></defs><title>Artboard 1</title><g clip-path="url(#clip-path)"><rect x="-142.74" y="-266.33" width="1082.94" height="324.08" fill="#c0efff"/><path d="M-106.26-120.78s6.26,13.54,21.41,14,19.53,52.66,97.8,72S-15,47.59,30.93,21.88C57,7.31,98.22,8,101.23,35.89c92.2-46.13,116,38.92,139,18.81,30.54-26.67,178.24-32.81,191-1.88,0,0,97-55.58,126.34,3.88l-1.89,55.1H-102.55Z" fill="#fff"/><rect x="-113.54" y="154.37" width="939.74" height="93.33" fill="#eee"/><path d="M-106.52,240.51c2.09-.69,96.68-1.63,150.48-46.91l13.71-24L4.55,165.29-110.73,195.2Z" fill="#eee"/><rect x="197.86" y="68.21" width="133.15" height="103.27" fill="#fff"/><rect x="-116.06" y="72.66" width="263.14" height="82.16" fill="#fff"/><rect x="-6.87" y="78.66" width="45.5" height="78.24" fill="#6a6a6a"/><polygon points="207.13 83.09 318.97 83.09 318.97 114.81 328.54 114.81 328.54 72.43 213.38 70.58 207.13 83.09" fill="#0062bd"/><polygon points="28.49 85.65 1.51 85.08 -191.37 71.47 -191.37 47.58 34.65 79.26 28.49 85.65" fill="#00aff9"/><path d="M46,58.44-112.89,25.53V13.13s-22-3.84-29.18-5.17-4.11-12-4.11-28.31V-42.67l-41.38-9.07V53.81L46,88.22Z" fill="#00aff9"/><polygon points="410.58 57.01 207.13 57.01 207.13 83.09 243.46 70.58 413.13 70.58 410.58 57.01" fill="#00aff9"/><path d="M390.13,67.9h-160l-23,15.19s10-7.16,82-7.16h109.6Z" fill="#422d62"/><polygon points="230.13 67.9 213.88 79.38 205.55 70.05 207.13 56.87 328.54 56.87 328.54 67.9 230.13 67.9" fill="#c0efff"/><path d="M46,177.43s33.86-38.55,75.88-43.06,52.38,43.06,52.38,43.06V35.89H46Z" fill="#eee"/><path d="M212.22,135.57s16.39-.83,32.59-16.28c7-6.67,14.73-22.83,14.73-22.83s4.64,15.46,13,23.52c18.43,17.83,27.21,11.94,27.21,11.94H316.1V82.86h-109v47.67Z" fill="#ff3853"/><polygon points="174.23 35.89 207.13 57.01 207.13 71.06 174.23 71.06 174.23 35.89" fill="#c0efff"/><path d="M66.22,41.78c-4.18.1-4.61,4.18-8.15,5.81-3.91,1.8-11,1.27-17,3.53-3,1.14-5.83,3.95-8,6.64-6.94,8.66-4.83,17-4.63,28.17s-10.24,13.7-14.37,25.25c-9.75,27.25,13.67,40.4,15.68,43,16.67,12.44-8.75-7,0,0,4.86,3.88,17.7,2.67,17.7,17.86,0,3.68,1.88,4.62,1.8,8.31-.08,3.51,33,.08,34.57-1.33,0-15.24,3.37-35,4.58-42,2.39-13.76,9.9-26.24,10.26-30.41C99.45,98,91.53,90.23,93.57,88,110.24,69.35,94.39,41.07,66.22,41.78Z" fill="#0062bd"/><path d="M330.83,140.78c.63-1.61-.58-2.39-1.27-4-.87-2-2.28-2.22-4-3.39-4.08-2.82-6.69-7-11.07-9.71-4.53-2.8-10.23-4.5-15.66-3.51-2.61.47-5.06,1.54-7.69,1.93a22.91,22.91,0,0,1-3.29.14c-6.69-1.52-14.42-4.76-21.88-3.38-6.56,1.21-8.73,8.79-14.71,11.47-4.93,2.21-12.93.3-18.06,2.13-1.11.4-1.66,2.81-2.48,3.58-2.09,1.95-2.31,3.16-1.18,5.64s2.94,4.75,3.52,7.38-.65,5.89-3.6,6.55c-3.61.81-7.08-2.68-10.72-2a5.24,5.24,0,0,0-4,5.84c.32,2.48,2,4.64,3.59,6.69l6.51,8.27a3.15,3.15,0,0,1,1,2.53c-.35,1.35-2.25,1.75-3.75,2.17a11.06,11.06,0,0,0-7.92,7.85,9.81,9.81,0,0,0,4.06,9.86c3.36,2.42,15.38,14.52,19,15.94,15,6,33.39,1.3,33.39,1.3s23.84-51.57,32.29-51.57S330.83,140.78,330.83,140.78Z" fill="#00aff9"/><path d="M207.13,57c-2.4-2-8.76-5.63-16.88,1-3.72,3-8.88-5.69-15.52-5.14-4.94.41-9.05,4-8,9-2.76,1.41-6,1.55-8.87,2.72a4.7,4.7,0,0,0-1.69,1c-1.17,1.24-1,3.24-.36,4.82s1.64,3,2,4.7-.36,3.75-2,4.17c-2,.51-4-1.71-6-1.28-1.55.33-2.41,2.14-2.23,3.72a9.74,9.74,0,0,0,2,4.26l3.64,5.26a2.17,2.17,0,0,1,.55,1.61c-.19.86-1.26,1.12-2.1,1.38a6.53,6.53,0,0,0-2.16,11.27c1.88,1.54,4.57,2,6.12,3.87a5,5,0,0,1-.12,6.37c-.74.83-1.75,1.38-2.54,2.17-1.94,1.93-2.27,4.94-2.14,7.68a7.25,7.25,0,0,0,.71,3.22c1.2,2.14,4,2.75,6.45,2.72s5-.46,7.29.46c2.77,1.13,4.42,4,5.31,6.87a24.22,24.22,0,0,1,1.1,7.82c-.06,2.51-.51,5,0,7.51s2.25,4.93,4.75,5.18a6.16,6.16,0,0,0,4.36-1.62c7.37-6,5.3-19.36,13.15-24.77,2.49-1.71,5.55-2.28,8.49-3s9.23,1.9,11.18-.4,5.28-9.17,2.91-11c-.71-.56-6.91-12.7-5.15-13.88,2.49-1.66,4.65-4.12,5.09-7.08s-1.37-6.34-4.31-6.89c-1.12-.21-2.27,0-3.4-.16a2.84,2.84,0,0,1-2.58-1.88c-.28-1.29.84-2.41,1.81-3.3,1.61-1.48,3.17-3.25,3.47-5.42s-1.22-4.7-3.41-4.68c1.52-1.37-.54-6,0-7C210.09,64.08,210.33,59.63,207.13,57Z" fill="#00aff9"/><path d="M112.33,161.84a5.47,5.47,0,0,1-1.48,1.93c-2.76,2.49-18.49,14.29-24.15,16.55-4.43,1.77-9.39,1.36-14.14.92-.26,0-.85-.07-.85-1,0-2-2.53-8-2.26-8.33s16.05-4.39,22.21-6.68a108.18,108.18,0,0,0,11.28-5c3.51-1.79,6.94-5,10.55-6.46A39.58,39.58,0,0,1,112.33,161.84Z" fill="#6a6a6a"/><path d="M74.34,149.9c1.69-2.8,4.54-5.36,7.8-5.08,1.7.15,3.42,1.06,5,.52a6.77,6.77,0,0,0,2-1.25c3-2.39,6.8-4.1,10.64-3.81s7.64,3,8.29,6.83a5.55,5.55,0,0,0,.7,2.52c.9,1.18,2.79,1,3.89,2s1,3,.06,4.3a9.41,9.41,0,0,1-3.89,2.6c-9.47,4.21-17.49,9.35-27.28,12.76-2.23.78-9.74,1.65-12.1.64-2-.86,1.31-4.05,1.31-5.87C70.74,160.51,71.41,154.77,74.34,149.9Z" fill="#0062bd"/><path d="M230.13,160.15c9.83,3.61,19.5-.06,20.33-11.06s8.67-17.42,16.17-12.12c0,0,.41-17.73,21.27-14.72,0,0-16.84-12.35-33.59,2.87-7.71,7-13.91-.18-24.71,9.72Z" fill="#00aff9"/><path d="M99.45,90.2c-.09-1.9,1.62-3.33,2.77-4.84,2.79-3.66,5.31-9.63,5.18-14.23-.35-11.66-11.06-14.86-11.06-14.86S98,40.35,80.12,37.58c-10.93-1.69-19.87,2.9-24.45,8.65-11.46.5-16.37,3.66-21.12,9.84,7-6.25,19.81-10.13,29.27-1.38,2.17-6,6.83-8.23,13.81-7.18,9.52,1.43,17.78,14.13,7.61,26.3-8.61,10.3-10.69,10.82-11.68,14.76,9.75-8.44,27.21,4.64,21.8,19.44-2.71,7.41-11.28,17.19-12.41,18.64-4.88,6.27-2.84,13.87,5.52,10.41,1.88-7.93,7-11.61,9.1-13.33a19.17,19.17,0,0,0,7.52-14.11,27,27,0,0,0-4.31-16.42A6.42,6.42,0,0,1,99.45,90.2Z" fill="#00aff9"/><rect x="197.86" y="102.31" width="3" height="108.24" fill="#422d62"/><path d="M178,130.34s-.09,20.88,20.63,20.88,20.1-20.61,20.1-20.61" fill="none" stroke="#422d62" stroke-miterlimit="10" stroke-width="6"/><path d="M170,129.52a1.94,1.94,0,0,0,.38.92,1.66,1.66,0,0,0,1,.4c4.83.64,10,1.22,14.31-1.19a2.38,2.38,0,0,0,1-.86,3,3,0,0,0,.27-.95c1.34-7.93,3.24-15.48,4.58-23.4-4.42,0-8.94-3.43-13.33-4a16.87,16.87,0,0,0-8.9,1.78c-1.14.51-1.58,0-2.42,1-1,1.22-1.24.08-2.52,1.85C166,112.14,168.34,122.49,170,129.52Z" fill="#b9eefd"/><path d="M171.69,95.39c1.72-.8,5.43-2.18,6.87-2.18,1.24,0,7.23,1.57,9.41,3,1.58,1,3.77,8,3.56,8.2-.75.15-6.5-.8-13-1-5.11.28-13.87,2.09-14.14,1.68s2.28-5,2.95-6.12A9.62,9.62,0,0,1,171.69,95.39Z" fill="#422d62"/><path d="M229.31,129.52a1.94,1.94,0,0,1-.38.92,1.66,1.66,0,0,1-1,.4c-4.83.64-10,1.22-14.31-1.19a2.38,2.38,0,0,1-1-.86,3,3,0,0,1-.27-.95c-1.34-7.93-3.24-15.48-4.58-23.4,4.42,0,8.94-3.43,13.33-4a16.87,16.87,0,0,1,8.9,1.78c1.14.51,1.58,0,2.42,1,1,1.22,1.24.08,2.52,1.85C233.28,112.14,230.92,122.49,229.31,129.52Z" fill="#b9eefd"/><path d="M227.57,95.39c-1.72-.8-5.43-2.18-6.87-2.18-1.24,0-7.23,1.57-9.41,3-1.58,1-3.77,8-3.56,8.2.75.15,6.14-.79,12.67-1,5.16.62,14.23,2.07,14.49,1.67s-2.28-5-2.95-6.12A9.62,9.62,0,0,0,227.57,95.39Z" fill="#422d62"/><path d="M213.31,78.47c-.88-1-3.25-1.67-4.45-2.17a18.93,18.93,0,0,0-9.15-1.78,18.93,18.93,0,0,0-9.15,1.78c-1.2.51-3.56,1.19-4.45,2.17-1.08,1.2-.38,2.24,0,3.94l5.09,20.91a1.87,1.87,0,0,0,.4.91,1.81,1.81,0,0,0,1.1.4,57.06,57.06,0,0,0,6.83.55l.1-.1s14.46-25,14.06-25.94A2.35,2.35,0,0,0,213.31,78.47Z" fill="#b9eefd"/><path d="M213.88,79.37c.29-.56-.21-1.09-.39-1.58s-5.23-9.13-5.51-9.5c-.09-.12-14.12-.16-14.95.06-2,.53-3,2.77-4.12,4.36a34.94,34.94,0,0,0-3.11,5.69c-.21.48-.62.91,1,.91l16.08.06S213.82,79.5,213.88,79.37Z" fill="#422d62"/><polygon points="199.36 79.38 199.58 105.17 207.96 104.47 213.88 79.38 199.36 79.38" fill="#fff"/><polygon points="220.4 103.43 220.4 131.4 229.03 131.96 234.93 105.19 220.4 103.43" fill="#fff"/><path d="M66.48,150.19c-.43-3.78-13.84-15.81-13.73-15.5-5.46-1.2-11.58,11.59-17.24,13.05a23.47,23.47,0,0,0-3.56,1.2c-.12-.6-.25-1.2-.41-1.79-1.42-5.22,10.22-14.74,10.49-14.36-7.13,1.32-9.13-19.5-16.34-11.51-6.24,6.91-7.24,25.85,11,47.21,5.7,6.69,5.15,18.06,6.87,22.39,8.87,22.31-7.4.72,15.55,1.72,2.21.1,2.12-4.23,2.78-6.08a6.62,6.62,0,0,0,1.17.26c2.14.26,4.36-.63,6.33-1.62,1.47-.73,4.85-1.26,4.07-2.62C62.84,164.28,67.84,162,66.48,150.19Z" fill="#00aff9"/><path d="M175.22,128.18s-38.09,11.09-48.15,21.71S78.15,207.41,83.88,270l153.8-4.4L233.42,175l-3.14-14.5s7.76-8.5,3-21.8S199.8,121,175.22,128.18Z" fill="#422d62"/><path d="M152.09,188.74a120.75,120.75,0,0,0,5.62-15.16c3-10.39,9.61-22.79,23.74-26.11,20.69-4.86,28,8,48.84,13,0,0,15.38-4.17,24.42,9.78,6.09,9.39,6.57,13.62,6.57,13.62s15.53,4.54,26.07,29,.88,48,.88,48l-69.28-.88s1.76-9.67,6-34.57-7.66-52.92-25.49-67.09c-5.71-4.54-28.27-10.4-31.6,11a50,50,0,0,1-3,11.41C160.74,190.82,152.09,188.74,152.09,188.74Z" fill="#ff3853"/><path d="M151.27,143.49s-42,30.76-42.63,113.67c-.49,68.68,15.31-41.35,28.44-39.38,5.77-23.32,13.94-45.56,15.34-61.59A31.66,31.66,0,0,0,151.27,143.49Z" fill="#0062bd"/><path d="M153.33,218.52c-2.32,0-16.25-.74-16.25-.74s-3-22.43-1.65-36,27.87-24.22,29.78-23.65a73.24,73.24,0,0,0-8.86,21.69c-.7,2.81-1.27,6.25-1.27,6.25s9.3-1.84,11-8.64c1.58-6.29,1.45-6.32,1.45-6.32s2.32.57,3.13,2c3.24,5.69-3.11,23.52-6.75,29.85A92.16,92.16,0,0,0,158.42,215,5.31,5.31,0,0,1,153.33,218.52Z" fill="#00aff9"/><path d="M152.43,156.19c2-10.73,15.41-10.25,22.89-12.39,9.24-2.64,2.67-7.15,1.41-22.14s-23.25-46.57-23.25-46.57l-46.89-4s2.54,22.41,3.57,29.22c1.2,7.93-2.29,15-.17,17.78,3.58,4.72,5.49,1.33,8,8.92,2,5.8,3.16,11.9,18.57,15.2,3.75.8,6.14,7.17,6.47,14.54S150.82,157.48,152.43,156.19Z" fill="#00aff9"/><path d="M176.73,121.66s-1-15.76,3-29.54c2.7-9.42-4.21-47.46-53.11-34.91S102.33,87.56,114.2,87.4c6.49-.09,15,5.28,17.74,10.94,2.3,4.69,6.67,5.46,7.6-2.79s12.8-9.49,11,2.8S147.8,123,176.73,121.66Z" fill="#422d62"/><path d="M36.4,197.8C37.66,207.9,64.13,270,64.13,270l29.53-2.62,7.58-50.61s-15.44-15-27.4-39.71c-6.59-13.58-22.09-2.65-31.5,3.61C34.38,186,35.13,187.7,36.4,197.8Z" fill="#422d62"/><path d="M34.95,154.41c3,5.88,3,10,12.34,9.82,4.51-.06,10.57-.35,12.09-3.58.44-.95,1.19-2,.46-3.72-1.9-4.34-4.61-6.37-9-16-3.59-7.78-5.71-12.85-7.67-16.92-1.8-3.74-17.25-5.54-19.47-5.75-2.72-.26-5.07,2.81-4.28,4.62C20.82,126.22,32.31,149.25,34.95,154.41Z" fill="#6a6a6a"/><path d="M22.91,120.61c4.23,7.88,14,28.42,19.16,37.76,1.91,3.46,19.69,2.48,17.76-1.44-1-2-15-32-17.87-35.67a4.54,4.54,0,0,0-3.08-2.05c-.9-.07-9.33-.83-14.3-.94C22,118.21,21.93,118.79,22.91,120.61Z" fill="#eee"/><path d="M49.23,153.22c-1,.59-1,1.89-.11,2.91a2.86,2.86,0,0,0,3.41.76c1-.59,1-1.89.11-2.91A2.86,2.86,0,0,0,49.23,153.22Z" fill="#00aff9"/><path d="M26.78,120l11,.59A3.86,3.86,0,0,1,41,122.55l14.82,29.16-15.17-.1-15-30.32C25.38,120.66,26,120,26.78,120Z" fill="#fff"/><path d="M62.51,139c-2.93-2.95-7.18-4.52-9.5-5.35a42.56,42.56,0,0,0-6-1.83,1.27,1.27,0,0,0-.74,0,1.4,1.4,0,0,0-.66.94c-.32,1,2.66,6.08,4,7,.87.6,1.8,1.14,2.69,1.73a30.06,30.06,0,0,1,8.11,7.82,1.68,1.68,0,0,0,.79.73c.62.2,3.33,11.06,3.75,10.51C68.8,155.43,65.44,142,62.51,139Z" fill="#00aff9"/><path d="M22.18,128.76c.94-6.29,7.35-2.87,7.31,4.83,0,0,4.93,5.48,3,15.85-1.89,9.94,7.25,20.27,7.25,20.27Z" fill="#00aff9"/><rect x="-98.87" y="-229.57" width="1024" height="467.2" fill="none"/></g></svg>