<svg id="Layer_2" data-name="Layer 2" xmlns="http://www.w3.org/2000/svg" xmlns:xlink="http://www.w3.org/1999/xlink" viewBox="0 0 1024 467.2"><defs><clipPath id="clip-path"><rect width="1024" height="467.2" fill="none"/></clipPath></defs><title>Artboard 1</title><g clip-path="url(#clip-path)"><rect x="83.82" y="305.55" width="660.98" height="83.91" fill="#6a6a6a"/><polygon points="703.49 312.32 99.95 305.55 99.95 -17.2 703.49 -17.2 703.49 312.32" fill="#0062bd"/><polygon points="681.21 476.13 99.31 342.34 490.47 9.27 835.17 247.45 1043.01 247.45 1043.01 -4.13 -4.61 -4.13 -4.61 477.25 681.21 476.13" fill="#422d62"/><rect x="744.8" y="312.32" width="302.74" height="77.14" fill="#c0efff"/><rect x="676.38" y="389.46" width="371.16" height="87.79" fill="#422d62"/><rect x="827.42" y="251.33" width="215.59" height="64.87" fill="#6a6a6a"/><polygon points="450.45 339.11 870.11 374.83 720.91 414.31 706.3 467.44 681.21 476.13 311.07 392.02 450.45 339.11" fill="#ffcad4"/><rect x="836.44" y="75.81" width="195.92" height="177.13" fill="#0062bd"/><path d="M839.84,95.41s13.38-1.61,13.57,8.65c0,0,8.94-2.1,15.63,2.71,6.33,4.54,4.48,13.26,4.48,13.26s16.08-13.26,44.06,2.69c7.85,4.48,15.74,8,15.74,8s-3.11-26.39,17.73-12.05c18.23,12.54,23.74-9.71,38.55-15.68,34.67-14,43.78,25.13,61.86,21s37.45-26.28,49.17-21-.05,7.36,17.52-14.86l-6.29,79.36s-3.64,16.57-18,16c-29.91,1.53-22.78-19.24-22.78-19.24s-11.87,7.72-19.58-1.31-3-16.89-3-16.89-17.82-1-21-13.25c-2.8-10.92-22.52-14.14-32.39-1.48-4.9,6.29-9,17.49-26.93,7-9.3-5.44-17.21,3.36-21,7.42-2,2.13-25.55-14.2-34.8-17.36-12.74-4.36-21.83-.66-31.71,8.32-13.91,12.64-28.32,9.57-41.13,3.28Z" fill="#c0efff"/><path d="M832.18,157.69s15.4,15.87,22.43,6.69c5.77-7.53,9-6.57,16.46-6.4s6.2-4.25,10.93-10.09c6.05-7.46,16.62-6.27,29.25-.28,11.25,5.33,28.67,18.08,43.72,2.8,3.74,2.08-1.28,15.23,3.57,11.17,13-10.9,35.89,7.36,35.89,7.36s25.57-.25,25.69,21.1,33.25,7.07,33.25,7.07v33.28L893.87,198.7s4.9-23.81-16.62-27.8-20.41,22.33-43.65,11.56Z" fill="#c0efff"/><path d="M838.32,193.6c9,0,23-1.43,23,11.46v11.06c0,5.86.54,7.15,1.67,7.15,1,0,2.29-1.59,2.29-6.49V184.6c0-4,2.57-9.06,11.29-9.06,9.43,0,10.35-.2,11,0s4.14,4.68,4.14,4.68V157.07c0-2-.3-3.29,3-3.11s24.49-.72,24.49,18.93v12.58l4.49,2.46v10.9l3.08,3.08v-24c0-9.34,1.65-13.3,9.19-20.84s11.32-11.26,11.32-11.26h11.44c2.87,0,3.53,1.44,3.53,3.35v49.23h6.59V158h31.32V178s3.71,1,3.71,7.56v19l3.23,5.81V198.1c0-5.92-.11-9.76,3.83-10.66L1026,184v69H838.32Z" fill="#422d62"/><path d="M872.82,193.18c1,0,1.16.52,1.16,1.34s0,1.6-1.17,1.6-1.15-.82-1.15-1.47S871.85,193.18,872.82,193.18Z" fill="#ffcad4"/><path d="M881.35,193.18c1,0,1.16.52,1.16,1.34s0,1.6-1.17,1.6-1.15-.82-1.15-1.47S880.38,193.18,881.35,193.18Z" fill="#ffcad4"/><path d="M980.32,174.75c1,0,1.16.52,1.16,1.34s0,1.6-1.17,1.6-1.15-.82-1.15-1.47S979.34,174.75,980.32,174.75Z" fill="#ffcad4"/><path d="M988.84,174.75c1,0,1.16.52,1.16,1.34s0,1.6-1.17,1.6-1.15-.82-1.15-1.47S987.87,174.75,988.84,174.75Z" fill="#ffcad4"/><path d="M955,165c1,0,1.16.52,1.16,1.34s0,1.6-1.17,1.6-1.15-.82-1.15-1.47S954,165,955,165Z" fill="#ffcad4"/><path d="M872.82,183.57c1,0,1.16.71,1.16,1.84s0,2.19-1.17,2.19-1.15-1.13-1.15-2S871.85,183.57,872.82,183.57Z" fill="#ffcad4"/><path d="M881.35,183.32c1,0,1.16.71,1.16,1.84s0,2.19-1.17,2.19-1.15-1.13-1.15-2S880.38,183.32,881.35,183.32Z" fill="#ffcad4"/><path d="M908.43,165.62c1,0,1.15.72,1.15,3.44s0,4.29-1.16,4.29-1.14-1.72-1.14-3.86S907.46,165.62,908.43,165.62Z" fill="#ffcad4"/><path d="M908.43,180.23c1,0,1.15.72,1.15,3.44s0,4.29-1.16,4.29-1.14-1.72-1.14-3.86S907.46,180.23,908.43,180.23Z" fill="#ffcad4"/><path d="M990.8,184.72c0,1-.72,1.15-3.44,1.15s-4.29,0-4.29-1.16,1.72-1.14,3.86-1.14S990.8,183.75,990.8,184.72Z" fill="#ffcad4"/><path d="M901.37,180.23c1,0,1.15.72,1.15,3.44s0,4.29-1.16,4.29-1.14-1.72-1.14-3.86S900.4,180.23,901.37,180.23Z" fill="#ffcad4"/><path d="M908.43,194.84c1,0,1.15.72,1.15,3.44s0,4.29-1.16,4.29-1.14-1.72-1.14-3.86S907.46,194.84,908.43,194.84Z" fill="#ffcad4"/><path d="M881.35,202.44c1,0,1.16.71,1.16,1.84s0,2.19-1.17,2.19-1.15-1.13-1.15-2S880.38,202.44,881.35,202.44Z" fill="#ffcad4"/><path d="M896,158.84c1,0,1.16.52,1.16,1.34s0,1.6-1.17,1.6-1.15-.82-1.15-1.47S895,158.84,896,158.84Z" fill="#ffcad4"/><path d="M896,167.1c1,0,1.16.71,1.16,1.84s0,2.19-1.17,2.19-1.15-1.13-1.15-2S895,167.1,896,167.1Z" fill="#ffcad4"/><path d="M896,211.3c1,0,1.16.52,1.16,1.34s0,1.6-1.17,1.6-1.15-.82-1.15-1.47S895,211.3,896,211.3Z" fill="#ffcad4"/><path d="M896,219.56c1,0,1.16.71,1.16,1.84s0,2.19-1.17,2.19-1.15-1.13-1.15-2S895,219.56,896,219.56Z" fill="#ffcad4"/><path d="M1016.16,203.34c1,0,1.16.52,1.16,1.34s0,1.6-1.17,1.6-1.15-.82-1.15-1.47S1015.19,203.34,1016.16,203.34Z" fill="#ffcad4"/><path d="M1016.16,193.45c1,0,1.16.71,1.16,1.84s0,2.19-1.17,2.19-1.15-1.13-1.15-2S1015.19,193.45,1016.16,193.45Z" fill="#ffcad4"/><path d="M1016.16,212.61c1,0,1.16.71,1.16,1.84s0,2.19-1.17,2.19-1.15-1.13-1.15-2S1015.19,212.61,1016.16,212.61Z" fill="#ffcad4"/><path d="M946.44,160.06c1,0,1.14.7,1.14,1.82s0,2.17-1.15,2.17-1.14-1.11-1.14-2S945.48,160.06,946.44,160.06Z" fill="#ffcad4"/><path d="M955,152.77c-.28,0-.67,1.09-.92,1.74a7.2,7.2,0,0,0-.59,1.88c.08.18.73.19,1.51.19s1.3,0,1.51-.19-.25-1.28-.55-1.9S955.23,152.77,955,152.77Z" fill="#ffcad4"/><rect x="973.61" y="163.82" width="21.95" height="3.82" fill="#0062bd"/><path d="M870.75,89.92a.9.9,0,1,1,0,1.8C869.5,91.68,869.9,89.93,870.75,89.92Z" fill="#fff"/><path d="M898.64,98.47c-1.29-.77-2.09,1.32-.85,1.66C898.64,100.37,899.92,99.23,898.64,98.47Z" fill="#fff"/><path d="M920.31,87.41c-.88,0-1.85,1.58-.31,1.74S921.19,87.41,920.31,87.41Z" fill="#fff"/><path d="M996.28,148.87c.91.08,1,1.59,0,1.53S995.38,148.8,996.28,148.87Z" fill="#fff"/><path d="M1013.61,140c.91.08,1,1.59,0,1.53S1012.7,139.94,1013.61,140Z" fill="#fff"/><path d="M976.45,89.16c.91.08,1,1.59,0,1.53S975.54,89.08,976.45,89.16Z" fill="#fff"/><path d="M904.06,134.43c-1.2-.82-1.91,1.41-.8,1.51S905,135.08,904.06,134.43Z" fill="#fff"/><path d="M929,143.67a1.07,1.07,0,0,0-.48,2.08C929.63,146,930.36,143.79,929,143.67Z" fill="#fff"/><path d="M960.26,103.71c-1-.19-1,1.75,0,1.82A.91.91,0,0,0,960.26,103.71Z" fill="#fff"/><path d="M1012.59,89.92c-1-.19-1,1.75,0,1.82A.91.91,0,0,0,1012.59,89.92Z" fill="#fff"/><path d="M870.8,151.11c-1-.19-1,1.75,0,1.82A.91.91,0,0,0,870.8,151.11Z" fill="#fff"/><path d="M966.76,144.52c-.89-.53-1.7,1.07-.94,1.61S967.88,145.2,966.76,144.52Z" fill="#fff"/><path d="M1012.9,168c1.2.37.82,1.79-.72,1.57C1011.23,169.42,1011.75,167.62,1012.9,168Z" fill="#fff"/><path d="M535.28,166c-1.82,4.06-.92,10.77,4.09,12.12,2.74.73,42.38.71,42.38.71s.25,71.51.25,85.66c0,13.75-2.21,27.51-2.21,41.26v21.21l9.86,0V272.23c0-15.07.44-78.47.44-93.61,13.3,0,29.49-.59,34.25-.52,2.2,0,3.34-.75,5-2,1.45-1.13,1.94-2.93,2.33-4.62.73-3.18,2.95-6.61,1.23-9.86-1.23-2.32-3.7-2.45-5.74-4-5.2-3.88-8.25-10.67-10.37-16.23-1.92-5,3.28-12.24.91-17.07a67.73,67.73,0,0,0-9.16-14.42,1.75,1.75,0,0,0-1-.36,114.56,114.56,0,0,0-15.28-.6c-3.47,0-19.36-.12-20.14.46S535.5,165.46,535.28,166Z" fill="#6a6a6a"/><path d="M568.2,199.39c-.74,2-1.34,3.63-1,4.16.49.75,2.47.7,2.75-.13s-.29-2.65-.64-3.88V175c.37,0-1.12-1-1.12,1.11v23.31Z" fill="#6a6a6a"/><path d="M86.46,197.41,70.91,337.77l264.21,64.6s243-32.16,243-52.39V317.46s11.74-10.15,11.74-30.45-15.23-29.82-25.06-32.67-75.29-9.79-75.29-9.79S478.16,207.4,471,190c-6.44-15.52-29.49-14.22-69.24-15.52C291.36,170.9,86.46,197.41,86.46,197.41Z" fill="#422d62"/><path d="M1033.46,81.36V69.7h-204V257.95h8.5V81.46Z" fill="#6a6a6a"/><polygon points="836.44 77.45 840.19 81.46 840.19 251.64 836.44 251.64 836.44 77.45" fill="#eee"/><path d="M936.71,81.41s-5.26-6.83-5.26-2.94V254.23h5.26Z" fill="#eee"/><rect x="837.93" y="244.71" width="194.44" height="10.65" fill="#eee"/><polygon points="906.96 423.1 906.96 479.27 1043.01 479.27 1043.01 370.22 1013.53 375.72 933.33 426.34 906.96 423.1" fill="#6a6a6a"/><polygon points="618.73 70.64 618.73 317.87 819.75 316.18 819.75 71.72 801.11 69.58 618.73 70.64" fill="#6a6a6a"/><path d="M633,87.77s9-4,16.14,0l3.79,2.5v31.87H633Z" fill="#c0efff"/><path d="M650.64,123.28V80.7s1.37-2,5.33-2S666,84.06,666,84.06v39.21Z" fill="#0062bd"/><path d="M664.33,82.72a22.61,22.61,0,0,1,10.27-2c5.65.3,9.36,6.51,9.36,6.51v35.5H663.79Z" fill="#00aff9"/><path d="M682.17,84.87c0-2.34,5.18-3.06,8.57-2.82s7.91,4.52,7.91,4.52v36.71l-16.48,1.13Z" fill="#0062bd"/><path d="M698.64,86.56s4.16-4,8.63-3.77c3.57.16,5.51,1,5.81,2.88.08.5,1.43.88,1.58,1.39,0-3.67,6.45-6.39,10.14-6.39,6.1,0,7,1,11.16,4.7v-1.5c0-2.18,3.39-4.47,7.48-4.47s14.75,3.84,14.75,3.84v40H698.64Z" fill="#422d62"/><path d="M756.52,82.66v40.62l18.33-.37V86s-1.77-7.87-9.84-8.77S756.52,79.34,756.52,82.66Z" fill="#0062bd"/><polygon points="771.86 122.71 771.86 80.19 780.13 80.19 791.99 85.98 791.99 124.5 771.86 122.71" fill="#422d62"/><path d="M784.67,122.71V92.56s4.78-3.9,9.81,0,6.71-2.26,12.66-1S813,122.71,813,122.71Z" fill="#0062bd"/><polygon points="622.38 127.27 633.26 135.68 807.13 135.68 806.22 123.85 624.62 124.5 622.38 127.27" fill="#422d62"/><polygon points="622.38 178.09 633.41 183.17 808.97 183.17 808.97 174.67 626.92 174.06 622.38 178.09" fill="#422d62"/><path d="M615.56,332.85V116.26l6.85,3.54V309c0,3.07.83,4.08,5.55,4.08h68V278.19h4.73V313.1H782.1l3.21,28.11H620C616.5,341.21,615.56,340.16,615.56,332.85Z" fill="#422d62"/><path d="M615.56,120.22v-46c0-4.37.16-7.6,7.37-7.6h180.9v6.84H624.74c-2.36,0-2.19,2.09-2.19,7.41s-.17,48.56-.17,48.56Z" fill="#0062bd"/><polygon points="622.38 273.22 633.41 267.34 776.04 267.34 776.04 277.08 631.88 276.37 622.38 273.22" fill="#422d62"/><rect x="622.38" y="122.15" width="181.42" height="5.12" fill="#00aff9"/><rect x="622.38" y="272.89" width="181.42" height="6.84" fill="#0062c1"/><path d="M686.93,288.6c-4.75.88-4.32,4.13,0,4.26S689.23,288.18,686.93,288.6Z" fill="#422d62"/><path d="M711.12,288.6c4.75.88,4.32,4.13,0,4.26S708.82,288.18,711.12,288.6Z" fill="#422d62"/><polygon points="622.38 330.82 788.65 313.1 782.79 341.21 622.38 341.21 622.38 330.82" fill="#0062c1"/><path d="M633.17,172.95a7.8,7.8,0,0,1-2.07-5.67,8.57,8.57,0,0,1,1.79-5.7s-1.79-1.08-1.79-5.59,1.69-5.56,1.69-5.56a8.74,8.74,0,0,1-1.69-4.75c-.09-3.39-.77-9.34,2.15-10h42.3v38.38Z" fill="#0062bd"/><path d="M670.53,140V173.5h22V144.45c0-4.62-8-12.43-15-12.43S670.53,137.28,670.53,140Z" fill="#6a6a6a"/><path d="M684.29,140V173.5h22V144.45c0-4.62-8-12.43-15-12.43S684.29,137.28,684.29,140Z" fill="#c0efff"/><path d="M698.9,140V173.5h22V144.45c0-4.62-8-12.43-15-12.43S698.9,137.28,698.9,140Z" fill="#0062bd"/><path d="M758.63,172.4H716.2v-11.6l3-1.78s-4.49-1.53-3.57-9.11c.79-6.49,7.94-6.52,7.94-6.52l35-.31Z" fill="#422d62"/><path d="M758.63,269.86H718s-3.9-4.78,0-9.81-1-6.58-1-12.66c0-6.53,6.62-6.53,6.62-6.53l24.54.63,9.34,2.74Z" fill="#422d62"/><path d="M756.78,134s4.06-5.74,14.16-.66,3.47,1.73,3.47,1.73v38H756.78Z" fill="#00aff9"/><path d="M773.61,175.48V134.71s2.48-2,9.61-1.88,18.2,5.1,18.2,5.1v37.55Z" fill="#c0efff"/><path d="M790.55,175.21V132.63s1.37-2,5.33-2S806,136,806,136v39.21Z" fill="#0062bd"/><polygon points="803.83 66.64 822.25 69.7 822.25 212.58 803.83 222.26 803.83 66.64" fill="#00aff9"/><path d="M803.83,66.64c5.51,21.08,18.42,89.14,18.42,116.65v36.3l-18.42,9.68Z" fill="#0062bd"/><rect x="622.38" y="172.31" width="181.42" height="5.78" fill="#00aff9"/><polygon points="803.83 66.64 798.26 73.48 798.26 218.5 803.83 219.54 803.83 66.64" fill="#422d62"/><path d="M630.17,269.07l11.39-.18s1.73,2.17,9.27,2.17a31.21,31.21,0,0,0,9.39-2s3.87,2.34,7,1.47a116.18,116.18,0,0,1,12.24-1.95L678.2,229.8s-3.28-1.73-8.7-.89a27.78,27.78,0,0,0-6.79,2c-3.52,1.72-3.63-1.07-11.61-1.07-4.55,0-20.93.13-20.93.13Z" fill="#c0efff"/><path d="M711.83,269s-2.11,2-6.44,2-6.19-2.05-6.19-2.05S697.7,271,692.56,271s-5.57-2.25-5.57-2.25l-4.39,1.73s-8,1-13.1-.43V228.91h43.59Z" fill="#00aff9"/><path d="M637.16,189.76s12.4-3.86,22.15,0l5.2,2.4v30.52H637.16Z" fill="#00aff9"/><path d="M657.25,223.76V183.17s2.56-2.14,9.93-2.06,18.8,5.1,18.8,5.1v37.56Z" fill="#0062bd"/><path d="M684.29,185.51a20.75,20.75,0,0,1,10.25-2.34c5.65.29,9.35,6.05,9.35,6.05v34H683.72Z" fill="#00aff9"/><path d="M702.1,187c0-2.24,5.18-2.94,8.57-2.7s7.91,4.33,7.91,4.33v34.08l-16.48-.62Z" fill="#c0efff"/><path d="M711.78,184.47v40.46h8.47L725.8,221V190.77s-3.92-3.12-6.3-5.48S711.78,184.47,711.78,184.47Z" fill="#422d62"/><path d="M720.33,189.76s7.86-3.86,14,0l3.3,2.4v30.52H720.33Z" fill="#00aff9"/><path d="M735.62,223.76V183s1.19-2,4.63-1.88,8.77,5.1,8.77,5.1v37.56Z" fill="#0062bd"/><path d="M747.54,184.92a18.19,18.19,0,0,1,8.93-1.94c4.91.29,8.14,6.24,8.14,6.24v34H747.06Z" fill="#00aff9"/><path d="M763,187c0-2.24,4.5-2.94,7.45-2.7s6.88,4.33,6.88,4.33v34.08L763,222.06Z" fill="#422d62"/><rect x="622.38" y="222.07" width="181.42" height="6.84" fill="#6a6a6a"/><path d="M971.13,435.9a1.66,1.66,0,0,1,1.29,1" fill="#422d62"/><path d="M937,454.18c3.91-10.48,12.07-19,21.65-24.81s20.54-8.93,31.58-10.74c12.42,10.83,17.57,27.65,16.69,41.53-.13,2.08-12.48,4-13.61,5.76s-3.31,3-5.33,4a193.21,193.21,0,0,1-60.93,18.57c-6.22.81-12.42.83-13.55-6.49-.61-3.92.07-6.78,3.65-8.8,4.42-2.51,9.71-1.89,13.57-5.68C934.3,464,935.43,458.72,937,454.18Z" fill="#422d62"/><polygon points="624.33 73.48 622.13 70.41 622.38 273.22 624.33 272.21 624.33 73.48" fill="#00aff9"/><path d="M757.37,157.9a99.4,99.4,0,0,0-11.1,1.16l11.1.73Z" fill="#00aff9"/><polygon points="631.38 149.12 644 149.99 632.24 150.45 631.38 149.12" fill="#6a6a6a"/><polygon points="713.09 85.67 714.27 97.09 714.76 84.8 713.09 85.67" fill="#6a6a6a"/><ellipse cx="676.2" cy="236.44" rx="2.07" ry="3.9" fill="#6a6a6a"/><ellipse cx="664.51" cy="141.77" rx="3.9" ry="2.07" fill="#6a6a6a"/><ellipse cx="742.32" cy="88.28" rx="2.07" ry="3.9" fill="#0062bd"/><ellipse cx="649.23" cy="235.8" rx="2.07" ry="3.26" fill="#00aff9"/><ellipse cx="635.75" cy="235.8" rx="2.07" ry="3.26" fill="#00aff9"/><polygon points="686.99 268.74 686.02 259.29 685.05 269.86 686.99 268.74" fill="#422d62"/><path d="M967.43,253.69c-.11,5.6,7.09,8.73,7.09,8.73s-1.65,5.25,1.42,8c5.74,5.19,12,2.24,15.45,6.48-2.88,4.86-.5,10.88,2.87,16.56,2.44,4.1,8.06,7.84,9.93,11,1.27,2.16-.12,4.54.55,6.95.48-2.6-.72-5.17-1.22-7.76-.6-3.11,5.54-6.3,5.78-9.46.67-8.94.8-19.94-1.37-28.64-.9-3.6-.79-8.31-1.63-11.93a60.21,60.21,0,0,0-6.51-17.11c-.27-.47-7.15.63-7.59.32a4.1,4.1,0,0,0-1.8-.57,39.83,39.83,0,0,0-8.39-.69c-3.47.21-7.66,1.26-9.06,4.76C971.13,244.95,967.53,248.88,967.43,253.69Z" fill="#422d62"/><path d="M1006.37,237.87s12.13,3.32,19.94,19.78c10.54,22.2,15.42,62.68-7.24,98.13l-12.73.06L1001.91,253l4.46-15.11" fill="#422d62"/><path d="M1019.31,312.32c-.33-4,2.06-9.72,1.73-13.76-.16-2-1.34-7.62-3.09-10-4.93-6.74-8.68-14.47-15-19.9a2.93,2.93,0,0,0-.88,2.48,7.87,7.87,0,0,0,.86,2.59,52.51,52.51,0,0,0,3.63,6.4,13.77,13.77,0,0,1,1.38,2.36,9.18,9.18,0,0,1,.58,2.85c.26,3.8,0,7.58.64,11.34C1009.79,300.69,1013.17,310.78,1019.31,312.32Z" fill="#0062bd"/><polygon points="740.84 423.35 740.84 493.06 636.68 491.13 647.33 433.95 740.84 423.35" fill="#422d62"/><path d="M913.3,263.64c-30.72-8.62-57.54,21.53-57.54,75.47s79,10.79,79,10.79S952.95,274.77,913.3,263.64Z" fill="#0062bd"/><path d="M909.38,264.67a117.45,117.45,0,0,0-28.16,35.13c-11.43,22,4.74,46.33,16.68,69.46,0,0,28.55,10.24,32.78-36.86S927.37,269.09,909.38,264.67Z" fill="#422d62"/><path d="M909.38,264.67c-12.58-3.29-37.71,4-50.5,30.69-15.55,32.47-8.14,50.7-6.38,63.71s55.79-4.34,55.79-4.34-31-11-20.25-38.54S923.07,268.25,909.38,264.67Z" fill="#00aff9"/><path d="M776.53,312.64l4.33,176.3,33.42-2.25,2-86.88,7.38,21.27v65l39.34.28s-.59-129.32-2.25-141.6c-3-22.44-4.25-34.75-4.25-34.75S782.69,274,776.53,312.64Z" fill="#422d62"/><path d="M971.13,433.95v40.92h56.57V433.95Z" fill="#422d62"/><path d="M773.2,412.29l-146-19.36V500.4h9.51c16.5-48.09,74-78,137.39-70.4C777.2,430.37,773.2,412.29,773.2,412.29Z" fill="#422d62"/><polygon points="751.92 337.32 589.88 383.59 942.04 425.8 1038.7 357.06 751.92 337.32" fill="#6a6a6a"/><path d="M751.92,337.32l-162,46.27,166.8,24s1.49-6.71,31.82-3.39c57.6,6.3,129.07-28.7,129.07-28.7l-56.77-30.69Z" fill="#eee"/><path d="M913.84,424.64,609.08,392.93V500.4h9.51c17.29-50.4,79.62-80.8,146.61-69,47,8.25,84.83,35.25,102.87,69h45.77Z" fill="#422d62"/><path d="M952.07,200.29s-7.36,8.42-10.9,15-7.15,8.22-7.15,8.22l1.53-5.51s-10,11.23-18,7.56c12.6-10.79,14.72-16.31,18-19.31C942,200.29,952.07,200.29,952.07,200.29Z" fill="#0062bd"/><path d="M976.16,187.34c-4.09-.45-16-.82-24.08,3.49-11.68,6.2-19.56,18-18.69,19,2.65,3.1,19.89-10.08,28.33-15.57,8.2-5.33,17.8-3.25,19.79-1.44,1.19,1.09-13.89,7.24-15.72,8.31-10.34,6.07-19.4,20-14.6,18.07,9.27-3.67,19.64-5.11,29.29-14.17,7.06-6.62,33.56-1.51,33.56,8.1C1014,222,990.71,189,976.16,187.34Z" fill="#0062bd"/><path d="M937.37,170.57c-1,3.48,13.22,10.63,24.52,11.19S985,193.31,985,193.31l7.38,3.3-14.28-18.08s-.23-4.43-9.28-6.34c-2.81-.59-13.31,1.42-16.17.86C946.58,171.86,940.87,170.87,937.37,170.57Z" fill="#0062bd"/><path d="M992.09,208.61a18.11,18.11,0,0,1,13.81,3c3.54,2.42,10.9,8.7,12.64,12.72,2.52,5.83,4.42,10.69,5.22,16.9,3.14,24.11.42,48.09,1,72.45a555.69,555.69,0,0,1-2.1,67.72c-1,10.48-2.19,21.16-5,31.33-11,39.05-11.52,18.07-11.52,18.07l1-29.21-8.07-34.08,4.36-16.43s10.49-6.78,13.39-23.56,3.87-41.8-3.49-64.88c0,0,.44-27.2-1.81-29.74s-9.75,9.62-9.75,9.62l-6.54-2.94a55.52,55.52,0,0,0,6-13.31,24.24,24.24,0,0,0,.18-10.49s-.6,16.95-43.08,26.1a90.06,90.06,0,0,0-22.92,8.32c-2.19-17.36,57.92-29.1,33-18.36-3.69,1.59-15.52-5-10.73-5.64,19.13-2.6,24.36-13.14,28.36-15.36A20.32,20.32,0,0,1,992.09,208.61Z" fill="#0062bd"/><path d="M1007.39,432s-2.54-39.7-10.29-53.74c-8.4-15.23-16.22-19.43-41.57-27,3-3.05,9.81-6.4,18-4.5,5.87,1.37,12.25,8.6,12.25,8.6s-9.29-17-15.74-27.19c-1.41-2.21-6.6-6.88-4-7,4.79-.16,13.65,6,13.65,6s6,18,6.61,23.66c0,0,1.1-9-1.06-16.31s.12-10.35.12-10.35a83.15,83.15,0,0,1,6.07,12.7c2.12,5.84-.32,5.53,2,10.55,1.72,3.68,7,6.16,7,6.16s-2.06-.87-2.76-6.8c-3-25.36-15.3-32.83-17-36.51s-21.27-16.82-3.58-13.08c39.58,8.36,29.67,71,27.85,74.49l9.44,43.33Z" fill="#0062bd"/><path d="M1006.57,337.32s-1.08-25,3.68-44.68,6.21-44.7-2.74-47.36c0,0-4.36-19.9-18.56-24.37-4.2-1.32-26.94-21-40.06-23.36-14.81-2.64-35.4,1-34.43,3s25.52,5.22,35.39,8.28c11.52,3.57,32.09,8.7,31,15.88-.46,2.95-8.89.28-16,.83-10.25.78-28.07,3.49-28.07,3.49s19.28,5.42,35.48,4.09c9.3-.77,17.68-4.58,20.15-2.72,3.31,2.49-36.25,8.39-45.1,15.15-5.27,4-13.91,20.68-13.91,20.68s23.12-17.18,32.14-18.77c6.69-1.18,29.31-8.77,29.62-7.5.73,3-42.24,28.77-46.13,30.76,12.42,0,27.16-6.93,37.1-12.77,14.93-8.77,16-12.67,16-12.67a34.93,34.93,0,0,1-7.37,12c-8.34,8.75-21.38,18.16-21.62,18.51,7,3.84,16.77-3.23,23.42-10.22,3.37-3.54,11.68-11.81,11.68-11.81s4.27,5.76,2.93,16c-.81,6.16-2.7,16.35-2.7,16.35a40.59,40.59,0,0,0-8.24-7.81c-7.16-4.64-19.9.69-19.56,2.08s11.49-.69,17.39,3.12,10.76,9.29,7.72,14.4c-.9,1.52-9.74-13.69-24.64-14.67-8-.52-21,8.08-15.53,7.25,24.65-3.74,39.48,15.08,38.68,17.88-.93,3.27-5.3,7.77-1.43,15.84C1006.47,332,1006.57,337.32,1006.57,337.32Z" fill="#00aff9"/><path d="M1012,284.38s24.08-40.61,5.29-68.7c-11.35-17-22.53-15.49-22.68-20.61-.12-4-7-6.74-7-6.74s-1.27-11.73-8.82-12.44c-1.74-.16-3.65-3.84-6.26-4.22-8.67-1.27-21.46-.15-28.71,2.69,0,0,27.11-.85,26.49-.14s-28.35.56-35.94,13.67c-1.58,2.74,23-10.41,41.43-3.78a25.94,25.94,0,0,1,15.35,14.53s-18.52-8.52-35.23,11.23c0,0,41.43-24.52,59.86,13.76C1024.73,242.15,1012,284.38,1012,284.38Z" fill="#00aff9"/><path d="M975.53,405.72l-7.75-21a3.39,3.39,0,0,1,.13-2.66l33-67.4-61.82-10.16a3.17,3.17,0,0,1-2.34-1L922,288.7c-1.06-1.54-1.44-2.67.1-3.73s1.54-5,2.6-3.45l15.31,16,66.49,11.2a3.39,3.39,0,0,1,2.5,4.83l-34.32,70.19,4.28,11.58S977.3,402.37,975.53,405.72Z" fill="#eee"/><path d="M877.11,303.44c.29,8.28,3.78,23.59,25.54,24.65,2,.1,7.2-1.47,8.37-3.71,4-7.7,13.17-25.48,15-31.35,1.95-6.19,1.41-11.1-3.31-15.12-3.49-3-7.95-5.89-18.47,1.13-7.51,5-18,12.64-23.42,16.59A9.71,9.71,0,0,0,877.11,303.44Z" fill="#eee"/><ellipse cx="919.11" cy="282.22" rx="5.63" ry="9.43" transform="translate(92.52 773.3) rotate(-47.78)" fill="#ffcad4"/><path d="M924.38,279.62a16,16,0,0,0-2.94-2.74l-3.21,3.07c-.59.52-.37,1.57.39,2.37s1.65,1.13,2.27.6Z" fill="#eee"/><path d="M1028.27,432s-2.55,8-30,8.53c-15.74.33-27.3-2-27.19-6.61.06-2.55,22.6-3.48,21.91-7.88s-6.84-9-3-10.2,9.16,4.17,9.16,4.17a37.24,37.24,0,0,0-4.52-11.13c-3.21-5.15,0-11.46,5.91-3.71s8.73,19.32,8.73,19.32,12.21-28.23,9.76-17.36-3.89,19.37,6.2,19.6S1028.27,432,1028.27,432Z" fill="#0062bd"/><path d="M940.83,419.68,589.88,383.59v3.54a5.49,5.49,0,0,0,4.8,5.45l341.78,35.75a11,11,0,0,0,7.92-2.07l94.33-62.13v-7.07Z" fill="#0062bd"/><path d="M1010.07,343.05a57.22,57.22,0,0,1,25.72-47.63c.88,8.76,2.11,17.25,1.5,26a15.22,15.22,0,0,1-1,5.19,14.62,14.62,0,0,1-4.74,5.25C1025.78,336.36,1010.07,343.37,1010.07,343.05Z" fill="#00aff9"/><polygon points="971.13 393.23 960.23 398.96 960.23 399.9 970.06 400.97 970.06 409.56 978.92 403.73 978.92 395.35 971.13 393.23" fill="#eee"/><path d="M933.39,465.64a1.23,1.23,0,0,1,.5.47,1.06,1.06,0,0,1,0,.71,4.64,4.64,0,0,1-3,2.95,13.72,13.72,0,0,1-4.27.65l-12,.53a4.74,4.74,0,0,1-2.5-.34,3.6,3.6,0,0,1-1.46-1.78c-1-2.29-.55-4.38.28-6.62.45-1.22.66-3.31,2-3.94,1.58-.75,4.6.55,6.17,1A54,54,0,0,1,926,461.7,53.35,53.35,0,0,1,933.39,465.64Z" fill="#422d62"/><path d="M1005.47,427s.44-17.13-3.23-32.29-6.17-36,2.55-38.09c0,0,2.53-5.26,1.92-18.09,5-7.65,15.31-13.57,20.84-16.18s29.6-3,36.31-3.35,10.81-3.11,10.06-1.56-8.26,6.09-14.16,6.18c-3.53.06-4.83,1.8-7.36,3.89a31.84,31.84,0,0,1-9.42,5c-4.5,1.66-9.19,3-13.25,5.51-5.22,3.28-15.68,10.22-21.33,25.42-3.48,9.36-3.18,22.41-2.35,33.63.27,3.57,1.67,17.87,1,21.66C1005.8,425.44,1005.47,427,1005.47,427Z" fill="#422d62"/><polygon points="785.3 364.37 719.21 357.25 718.55 380.31 730.02 382.19 783.58 368.15 785.3 364.37" fill="#c0efff"/><path d="M651.22,373.65c2.43.43,77.44,14,77.44,14V325.88l-76.72-8c-2.86-.3-3.26.44-3.26,3.67v48.53C648.68,372.07,648.78,373.22,651.22,373.65Z" fill="#6a6a6a"/><polygon points="728.66 387.66 785.3 369.33 785.3 362 724.2 381 728.66 387.66" fill="#6a6a6a"/><path d="M728.66,325.88c4.15,0,2.33,15.44,2.33,30.7s-.25,23.73-.25,23.73l-8.59-1Z" fill="#6a6a6a"/><path d="M740.84,383.59s.72-2.83,8.51-5.05,22.78-12.44,22.78-12.44l11.5-3.11-1.38,7.34Z" fill="#422d62"/><path d="M684.46,341.33c7.78,1.61,7.1,18.55-.49,17.64S676.11,339.6,684.46,341.33Z" fill="#eee"/><ellipse cx="737.83" cy="381.24" rx="3.28" ry="1.61" transform="translate(-69.89 188.06) rotate(-13.88)" fill="#eee"/><ellipse cx="748.35" cy="378.64" rx="3.28" ry="1.61" transform="translate(-68.96 190.51) rotate(-13.88)" fill="#eee"/><path d="M773.75,387.31l-.82-2.79c.08,0,.2-.07,32.49-7.52,3.73-.19,5.51-.48,5.67.13s-2.26,1.49-5,2.7C792.86,382.89,774.28,387.18,773.75,387.31Z" fill="#00aff9"/><path d="M774.25,387.64l-2.53.64a2,2,0,0,1-2.4-1.44h0a2,2,0,0,1,1.44-2.4l2.53-.64c1.06-.26,1.72.48,2,1.53h0C775.53,386.39,775.3,387.37,774.25,387.64Z" fill="#6a6a6a"/><path d="M771.33,388.37l-.46.12a2,2,0,0,1-2.4-1.44h0a2,2,0,0,1,1.44-2.4l.46-.12c1.06-.26,1.28.42,1.55,1.47h0C772.18,387.06,772.39,388.1,771.33,388.37Z" fill="#ffcad4"/><path d="M966.14,376.56s-34.42,21.35-39.41,25.07c-1.65,1.23-3.8,1.56-23.59-4.07-11.74-3.33-23.57-6.65-23.57-6.65s-5,2.05-8.76,1.06c-4.76-1.26-5.32-3.64-5.32-3.64l-52.11-3.15s-1.44-.07-1.3-1.82c.05-.64,3.39-3.63,7.59-7.15,7.26-6.08,23.18-11.82,23.18-11.82L940.93,362s22.86,9,25.8,9.58S972,373.81,966.14,376.56Z" fill="#422d62"/><path d="M873.37,385.27l-60-3.51v-6.94l54.52-26.46s23.91-1.43,41.81,7c0,0,38.8-4.44,59.07,12.28L967,368.77v4L924.63,399Z" fill="#fff"/><path d="M872,389.33a1,1,0,0,1-.77-.36,8.28,8.28,0,0,1-1.51-6.29c.58-3.64,3.41-7.08,8.41-10.22,12.37-7.77,28.54-18.2,28.68-18.32.42-.36,1,.13,1.43.61-.14.12-16.55,11.55-29,19.41-4.43,2.78-7,5.84-7.5,8.84a6.26,6.26,0,0,0,1.08,4.7,1,1,0,0,1-.77,1.64Z" fill="#0062bd"/><path d="M841.89,359.19s-15.37,13.72-12.23,14.09,16.55,2,20.72,1.54,12.24-11,12.24-11A35.37,35.37,0,0,0,841.89,359.19Z" fill="#ffcad4"/><path d="M900.91,368.63s10.5,1.79,14.86,2.43,12.83-7.49,11.4-16.24l-19.76-2.48a16,16,0,0,1-3.73,9.36C900,365.75,898.15,368.16,900.91,368.63Z" fill="#ffcad4"/><path d="M820.1,354.46l-20.64,4.22s7.16,8,9.08,9.95,4.55.58,12.59-1.3,9.85-2.44,9.85-2.44v-3.51Z" fill="#ffcad4"/><path d="M938.59,358.61s-1.58-1-2.25,0,.18,3.3,3,2.21.91.74,3,.29,1.72,1.21,2.86,1.21,4.05-1.33,1.64-1.5-.75-1.33-3.08-1.66S940.07,360,938.59,358.61Z" fill="#eee"/><path d="M934.84,362.17s-1.58-1-2.25,0,.18,3.3,3,2.21.91.74,3,.29,1.72,1.21,2.86,1.21,4.05-1.33,1.64-1.5-.75-1.33-3.08-1.66S936.32,363.53,934.84,362.17Z" fill="#eee"/><path d="M919.75,380.17c1-1.18-.86-1.43-2.25-1.15s-1.08-.92-3-.33-.51-3.18-2.88-2.34-3.47,2.64-1.61,2.54.38,2.62,2.62,2.35,3.62-1,4.52-.44A2,2,0,0,0,919.75,380.17Z" fill="#eee"/><path d="M921.75,376c-1.72.25-2.25,2,.05,1.64S923.49,375.8,921.75,376Z" fill="#eee"/><path d="M922.61,389.92c11.34-5.67,38.58-20,38.58-20l.2.76s-9.72,5.43-17,9.4c-8.78,4.77-18.06,10.19-23.51,12.14C918.74,393,920.32,391.06,922.61,389.92Z" fill="#6a6a6a"/><path d="M924.07,395s39.81-24.18,41.23-23.36-41.46,25.21-41.46,25.21Z" fill="#6a6a6a"/><path d="M900.26,353.53s-4.25-1.25-5.92-1.58-35.54,23.59-35.54,23.59a18.61,18.61,0,0,1,7.07,2.05C872.16,373.28,900.26,353.53,900.26,353.53Z" fill="#eee"/><path d="M891.08,350.89a81,81,0,0,0-9.43-1.07c-7.06,5.34-33.57,25.09-33.57,25.09h6.27Z" fill="#eee"/><path d="M799.83,346.35s6.64-.64,5.9,4.67l-1.86,13.35c-.78,5.58-7.23,4.85-7.23,4.85a8.5,8.5,0,0,1,3.6-5.78c.63-4.54,1.34-9,1.69-11.81C799.57,348.34,799.83,346.35,799.83,346.35Z" fill="#00aff9"/><path d="M787.34,347.72,772.13,346s2.69,19.36,3.95,25.88c1.21,6.25,7.48,6,11.38,6s10.17.23,11.38-6c1.26-6.51,3.95-25.88,3.95-25.88Z" fill="#0062bd"/><ellipse cx="787.46" cy="345.97" rx="15.33" ry="3.13" fill="#422d62"/><path d="M743.86,383.11l-.48-.22c-.64,0-1.24-.21-1.41.46,5.9,2.58,16.23,8.51,19.56,17.89.35,0,.74.11,1.09.11C759.53,392.16,750.09,386,743.86,383.11Z" fill="#6a6a6a"/><path d="M916.89,458.17a79.54,79.54,0,0,0-43,1.39c-21,6.44-53.36,4.08-77-5.61-23-9.43-33.28-23.8-33.28-46.59a19.78,19.78,0,0,0-.93-6l-1.09-.1a20.56,20.56,0,0,1,1,6.11c0,23.26,10.46,37.91,33.9,47.52,23.86,9.77,56.54,12.15,77.7,5.64,31.3-9.62,54.47,2.59,58.38,4.87l.52-.85A64.14,64.14,0,0,0,916.89,458.17Z" fill="#eee"/><path d="M743.38,382.89a47.65,47.65,0,0,0-5.41-2.14l-.29,1a44.34,44.34,0,0,1,4.29,1.64Z" fill="#eee"/><path d="M795,204.38c-7.24,2.42-24.62,8.11-28.71,14.66-2.55,4.09-7.25,15.78-10,29l-36.44,5.09s13.54,16.06,28.37,26.07c26.52,17.9,26.78-7.44,26.78-7.44s1.49,32.65,1.49,41.31c7.25,5,9.73,9.23,21.36,10.09,24.25,1.78,43.68-9,58.89-10.86-.07-18.6-4.24-33.43-6.35-47.15-3-19.69-2-19.63,10.63-13.5a156.32,156.32,0,0,0,33.43,11.57l9.23-10.55s-8.93-3.82-21.62-14.11c-9.1-7.38-26.92-33.78-47.42-34.46C804.53,203.12,795,204.38,795,204.38Z" fill="#ffcad4"/><path d="M707,236.46a67,67,0,0,1,5.19-8.68c2.49-3.25,5.82-2.1,15.58-3,16.34-1.5,17.4-1.94,20.47,1.4s19.37,25.06,21.39,27.61-2.48,4.77-4.73,6.68C762.95,262.1,707,236.46,707,236.46Z" fill="#0062c1"/><path d="M710.64,236s1-5,5-7.36l29.13-1.85L768,255.7l-4.3,6.59L738.23,254Z" fill="#fff"/><path d="M775.76,173.49a57.3,57.3,0,0,0,3.47,10.07c2,3.84,2.48,5.49,2.65,9.13.14,3,2.91,10.52,2.91,10.52l27.68-5.6,2-14.6L810,168.91,793.08,165Z" fill="#fff"/><path d="M801.52,229.88c6.61-1.35,23.43-10.34,20.42-30.19-.52-3.46-3.75-10.44-4.25-13.12-1.7-9.14-2-12.84-7-19.28-2.36-3-8.87-6.07-13.87-7.74-5.91-2-14.65-5-21.7,2.31-5.85,6-5.11,18.4,4.16,21.69a11.79,11.79,0,0,1-.49-7.14c.65-3,1.77-.77,4.67-2.57,12.2-7.56,16.4.05,18.73,4.66,1,2,4.78,1.8,4.46-.19-.51-3.21,3.42-4,5,2.57s-2.15,11.52-5.65,11.61a28.4,28.4,0,0,1-7-.82c-4.25-1-10,4.2-13.68,4.11-1.14,0-3.3-2-3.58-.58-.34,1.67.39,3.83.84,5.43,1.35,4.86,1.78,5.34,3.2,15.64C787.1,226.11,792.86,231.65,801.52,229.88Z" fill="#422d62"/><path d="M710.64,236c8.59.09,23-.3,28.3-.31s6.82,4.25,14.52,13.45,12.84,15.13,12.84,15.13l-32.09,2.53L716,245.1Z" fill="#00aff9"/><path d="M710.52,235.72c-1.3-.45-3.56.74-3.56.74a60.64,60.64,0,0,0,10.65,15.76c10.59,11,14,8.45,14,8.45S715.67,243,710.52,235.72Z" fill="#0062c1"/><path d="M719.9,253.16s-1.76,3.62,5.23,10.17,16.73,8.48,20.63,3.49,4.24-15.38-6.11-15S721.4,250.69,719.9,253.16Z" fill="#fff"/><path d="M905.71,275.19s-9.87-7.35-11.21-11.94c-1.66-5.68,6.15-10.12,6.88-10.46s1.37-.8,3.18.38q.76.5,1.54.95c9.43,5.46,19.53,5.57,19.06,16-4.87-4.26-9-6.08-13.07-5.93-2.3.08-4.69,0-7.06,2S910,274.47,905.71,275.19Z" fill="#fff"/></g></svg>