<?xml version="1.0" encoding="UTF-8"?>
<svg width="104px" height="16px" viewBox="0 0 104 16" version="1.1" xmlns="http://www.w3.org/2000/svg" xmlns:xlink="http://www.w3.org/1999/xlink">
    <!-- Generator: Sketch 44.1 (41455) - http://www.bohemiancoding.com/sketch -->
    <title>altinn</title>
    <desc>Created with Sketch.</desc>
    <defs></defs>
    <g id="Page-1" stroke="none" stroke-width="1" fill="none" fill-rule="evenodd">
        <g id="altinn" fill-rule="nonzero" fill="#000000">
            <g transform="translate(51.116596, 0.000000)" id="Shape">
                <path d="M6.63158791,15.593304 L6.63158791,14.6129639 C5.86877523,15.3749388 5.15018357,15.7020258 3.8438208,15.7020258 C2.55864727,15.7020258 1.62263558,15.3749388 0.947343677,14.7004943 C0.336540771,14.0684329 0.0104107131,13.1544316 0.0104107131,12.1519786 C0.0104107131,10.3442463 1.25136322,8.86360101 3.88619929,8.86360101 L6.5643351,8.86360101 L6.5643351,8.29787848 C6.5643351,7.05679006 5.95445346,6.51225906 4.45185989,6.51225906 C3.36291716,6.51225906 2.86266681,6.77392878 2.27397442,7.44929464 L0.466440032,5.68486678 C1.57657201,4.46496992 2.66551474,4.11669121 4.56056992,4.11669121 C7.73987732,4.11669121 9.39448072,5.46650155 9.39448072,8.12373912 L9.39448072,15.5942253 L6.63158791,15.5942253 L6.63158791,15.593304 Z M6.56617764,10.8021683 L4.32288191,10.8021683 C3.29934943,10.8021683 2.73368883,11.2812818 2.73368883,12.0865611 C2.73368883,12.870649 3.25604968,13.393067 4.36618166,13.393067 C5.15018357,13.393067 5.65135519,13.3276496 6.15252681,12.848536 C6.45746762,12.5656747 6.56617764,12.1086741 6.56617764,11.4111953 L6.56617764,10.8021683 L6.56617764,10.8021683 Z"></path>
                <path d="M15.1008354,15.593304 C12.7709402,15.593304 11.7907075,13.959711 11.7907075,12.3482309 L11.7907075,0.0875303634 L14.6217743,0.0875303634 L14.6217743,12.1740916 C14.6217743,12.8494574 14.9055259,13.1977361 15.6241176,13.1977361 L16.7130603,13.1977361 L16.7130603,15.593304 L15.1008354,15.593304 L15.1008354,15.593304 Z"></path>
                <path d="M21.9818111,15.593304 C19.6740264,15.593304 18.6937937,13.959711 18.6937937,12.3482309 L18.6937937,6.72970291 L17.4961409,6.72970291 L17.4961409,4.57369184 L18.6937937,4.57369184 L18.6937937,1.21989686 L21.5248606,1.21989686 L21.5248606,4.57369184 L23.5277045,4.57369184 L23.5277045,6.72970291 L21.5248606,6.72970291 L21.5248606,12.1740916 C21.5248606,12.8273444 21.8298014,13.1977361 22.5050933,13.1977361 L23.5286258,13.1977361 L23.5286258,15.593304 L21.9818111,15.593304 L21.9818111,15.593304 Z"></path>
                <path d="M25.5084379,2.30895886 L25.5084379,0 L28.404915,0 L28.404915,2.30895886 L25.5084379,2.30895886 L25.5084379,2.30895886 Z M25.5526589,15.593304 L25.5526589,4.2466047 L28.3837258,4.2466047 L28.3837258,15.593304 L25.5526589,15.593304 L25.5526589,15.593304 Z"></path>
                <path d="M37.5936755,15.593304 L37.5936755,8.73276621 C37.5936755,7.18670355 36.6134427,6.66336411 35.7216521,6.66336411 C34.8289401,6.66336411 33.8265969,7.18578217 33.8265969,8.73276621 L33.8265969,15.5923826 L30.99553,15.5923826 L30.99553,4.2466047 L33.7611866,4.2466047 L33.7611866,5.29144083 C34.5009676,4.50735304 35.5466105,4.11576984 36.5922535,4.11576984 C37.724496,4.11576984 38.6393184,4.48616148 39.2703893,5.11730148 C40.1842905,6.03130275 40.4247423,7.09917318 40.4247423,8.34026163 L40.4247423,15.5923826 L37.5936755,15.5923826 L37.5936755,15.593304 Z"></path>
                <path d="M49.5250607,15.593304 L49.5250607,8.73276621 C49.5250607,7.18670355 48.544828,6.66336411 47.6530373,6.66336411 C46.7603254,6.66336411 45.7579822,7.18578217 45.7579822,8.73276621 L45.7579822,15.5923826 L42.9269153,15.5923826 L42.9269153,4.2466047 L45.6925719,4.2466047 L45.6925719,5.29144083 C46.4323528,4.50735304 47.4779957,4.11576984 48.5236388,4.11576984 C49.6558812,4.11576984 50.5707037,4.48616148 51.2017746,5.11730148 C52.1156757,6.03130275 52.3561275,7.09917318 52.3561275,8.34026163 L52.3561275,15.5923826 L49.5250607,15.5923826 L49.5250607,15.593304 Z"></path>
            </g>
            <g id="logoelement">
                <rect id="Rectangle-35" x="31.5864463" y="0" width="9.47593389" height="3.15899057"></rect>
                <rect id="Rectangle-35" x="31.5864463" y="6.31798114" width="9.47593389" height="3.15899057"></rect>
                <rect id="Rectangle-35" x="31.5864463" y="12.6359623" width="9.47593389" height="3.15899057"></rect>
                <rect id="Rectangle-35" x="0" y="0" width="3.15864463" height="3.15899057"></rect>
                <rect id="Rectangle-35" x="0" y="6.31798114" width="3.15864463" height="3.15899057"></rect>
                <rect id="Rectangle-35" x="0" y="12.6359623" width="3.15864463" height="3.15899057"></rect>
                <rect id="Rectangle-35" x="6.31728926" y="0" width="3.15864463" height="3.15899057"></rect>
                <rect id="Rectangle-35" x="6.31728926" y="6.31798114" width="3.15864463" height="3.15899057"></rect>
                <rect id="Rectangle-35" x="6.31728926" y="12.6359623" width="3.15864463" height="3.15899057"></rect>
                <polygon id="Rectangle-32" points="12.6345785 0 28.4278017 0 28.4278017 9.47697171 25.269157 9.47697171 25.269157 3.15899057 12.6345785 3.15899057"></polygon>
                <rect id="Rectangle-32" x="18.9518678" y="6.31798114" width="3.15864463" height="3.15899057"></rect>
                <polygon id="Rectangle-32" points="12.6345785 6.31798114 15.7932232 6.31798114 15.7932232 12.6359623 28.4278017 12.6359623 28.4278017 15.7949528 12.6345785 15.7949528"></polygon>
            </g>
        </g>
    </g>
</svg>