<?xml version="1.0" encoding="UTF-8"?>
<svg width="84px" height="17px" viewBox="0 0 84 17" version="1.1" xmlns="http://www.w3.org/2000/svg" xmlns:xlink="http://www.w3.org/1999/xlink">
    <!-- Generator: Sketch 44.1 (41455) - http://www.bohemiancoding.com/sketch -->
    <title>altinnett</title>
    <desc>Created with Sketch.</desc>
    <defs></defs>
    <g id="Page-1" stroke="none" stroke-width="1" fill="none" fill-rule="evenodd">
        <g id="altinnett" fill-rule="nonzero" fill="#000000">
            <path d="M53.1928688,16.5689405 L53.1928688,4.77185487 L50.8911164,4.77185487 L50.8911164,11.9959129 L46.2213739,4.77185487 L44.168012,4.77185487 L44.168012,16.5689405 L46.4697645,16.5689405 L46.4697645,9.32831352 L51.1395069,16.5689405 L53.1928688,16.5689405 Z M63.4762378,16.5689405 L63.4762378,14.5143919 L58.0116456,14.5143919 L58.0116456,11.6479652 L62.6648286,11.6479652 L62.6648286,9.59341657 L58.0116456,9.59341657 L58.0116456,6.8264035 L63.4762378,6.8264035 L63.4762378,4.77185487 L55.7098931,4.77185487 L55.7098931,16.5689405 L63.4762378,16.5689405 Z M73.9086411,6.8264035 L73.9086411,4.77185487 L65.4468029,4.77185487 L65.4468029,6.8264035 L68.5268457,6.8264035 L68.5268457,16.5689405 L70.8285982,16.5689405 L70.8285982,6.8264035 L73.9086411,6.8264035 Z M83.9601787,6.8264035 L83.9601787,4.77185487 L75.4983407,4.77185487 L75.4983407,6.8264035 L78.5783836,6.8264035 L78.5783836,16.5689405 L80.8801361,16.5689405 L80.8801361,6.8264035 L83.9601787,6.8264035 Z" id="NETT"></path>
            <path d="M6.98549604,16.3574104 L6.98549604,15.3290315 C6.18567846,16.1283448 5.43222711,16.4714599 4.06249119,16.4714599 C2.71497244,16.4714599 1.73355376,16.1283448 1.02550268,15.4208511 C0.385069033,14.7578172 0.0431180362,13.7990279 0.0431180362,12.7474525 C0.0431180362,10.8511373 1.34427056,9.2979371 4.10692551,9.2979371 L6.91498073,9.2979371 L6.91498073,8.70449291 C6.91498073,7.40258841 6.27551304,6.83137418 4.70002695,6.83137418 C3.55825837,6.83137418 3.03374031,7.10586629 2.41648979,7.81432658 L0.521269854,5.96343784 C1.68525559,4.68376334 2.82702417,4.3184182 4.81401062,4.3184182 C8.14754983,4.3184182 9.88241991,5.73437224 9.88241991,8.52182034 L9.88241991,16.3583769 L6.98549604,16.3583769 L6.98549604,16.3574104 Z M6.91691265,11.3314984 L4.5647921,11.3314984 C3.4916069,11.3314984 2.89850546,11.8340897 2.89850546,12.6788294 C2.89850546,13.5013393 3.44620663,14.049357 4.61019237,14.049357 C5.43222711,14.049357 5.95771113,13.9807339 6.48319515,13.4781428 C6.80292898,13.1814206 6.91691265,12.7020259 6.91691265,11.9703692 L6.91691265,11.3314984 L6.91691265,11.3314984 Z" id="Shape"></path>
            <path d="M15.8655964,16.3574104 C13.4226753,16.3574104 12.3948904,14.6437677 12.3948904,12.9533216 L12.3948904,0.0918195452 L15.3632954,0.0918195452 L15.3632954,12.770649 C15.3632954,13.4791092 15.6608122,13.8444544 16.4142635,13.8444544 L17.5560321,13.8444544 L17.5560321,16.3574104 L15.8655964,16.3574104 L15.8655964,16.3574104 Z" id="Shape"></path>
            <path d="M23.080376,16.3574104 C20.660638,16.3574104 19.6328531,14.6437677 19.6328531,12.9533216 L19.6328531,7.05947326 L18.3771008,7.05947326 L18.3771008,4.79781288 L19.6328531,4.79781288 L19.6328531,1.27967451 L22.6012583,1.27967451 L22.6012583,4.79781288 L24.7012624,4.79781288 L24.7012624,7.05947326 L22.6012583,7.05947326 L22.6012583,12.770649 C22.6012583,13.4559127 22.9209921,13.8444544 23.6290432,13.8444544 L24.7022284,13.8444544 L24.7022284,16.3574104 L23.080376,16.3574104 L23.080376,16.3574104 Z" id="Shape"></path>
            <path d="M26.7780834,2.42210296 L26.7780834,0 L29.8150719,0 L29.8150719,2.42210296 L26.7780834,2.42210296 L26.7780834,2.42210296 Z M26.8244496,16.3574104 L26.8244496,4.45469774 L29.7928548,4.45469774 L29.7928548,16.3574104 L26.8244496,16.3574104 L26.8244496,16.3574104 Z" id="Shape"></path>
            <path d="M39.4495896,16.3574104 L39.4495896,9.1606911 C39.4495896,7.53886794 38.4218046,6.98988371 37.4867522,6.98988371 C36.5507338,6.98988371 35.4997658,7.53790142 35.4997658,9.1606911 L35.4997658,16.3564439 L32.5313606,16.3564439 L32.5313606,4.45469774 L35.4311823,4.45469774 L35.4311823,5.55073315 C36.2068509,4.72822333 37.3032191,4.31745168 38.3995875,4.31745168 C39.5867563,4.31745168 40.5459578,4.70599333 41.2076427,5.36806059 C42.1658782,6.32684994 42.4179947,7.4470484 42.4179947,8.74895293 L42.4179947,16.3564439 L39.4495896,16.3564439 L39.4495896,16.3574104 Z" id="Shape"></path>
        </g>
    </g>
</svg>