<?xml version="1.0" encoding="UTF-8"?>
<svg width="223px" height="27px" viewBox="0 0 223 27" version="1.1" xmlns="http://www.w3.org/2000/svg" xmlns:xlink="http://www.w3.org/1999/xlink">
    <!-- Generator: Sketch 44.1 (41455) - http://www.bohemiancoding.com/sketch -->
    <title>Group</title>
    <desc>Created with Sketch.</desc>
    <defs></defs>
    <g id="Page-1" stroke="none" stroke-width="1" fill="none" fill-rule="evenodd">
        <g id="brreg" transform="translate(-1.000000, -0.213473)" fill-rule="nonzero" fill="#000000">
            <g id="Group" transform="translate(0.333918, 0.949761)">
                <path d="M44.1699775,22.4985036 L39.051979,22.4985036 L39.051979,10.060969 L44.0421456,10.060969 C46.4731314,10.060969 47.8807353,11.4292285 47.8807353,13.4191351 C47.8807353,14.7873946 46.9851854,15.7821714 46.2174675,16.0310421 C47.2408493,16.4041717 48.1367624,17.3993015 48.1367624,18.8918198 C48.1363992,21.2548561 46.4731314,22.4985036 44.1699775,22.4985036 Z M43.9139505,11.802358 L41.0991058,11.802358 L41.0991058,15.4093948 L43.9139505,15.4093948 C45.1933594,15.4093948 45.9614405,14.7873946 45.9614405,13.6680059 C45.9614405,12.4240053 45.0655274,11.802358 43.9139505,11.802358 Z M44.0417824,17.025819 L40.9709107,17.025819 L40.9709107,20.7571146 L44.0417824,20.7571146 C45.4490232,20.7571146 46.0889092,20.0108555 46.0889092,18.8914668 C46.0889092,17.7720781 45.4493864,17.025819 44.0417824,17.025819 Z" id="Shape"></path>
                <path d="M55.5575516,15.6579126 C55.1736926,15.28443 54.7898336,15.0359123 54.1499476,15.0359123 C53.1265658,15.0359123 52.3584847,15.7818184 52.3584847,17.025819 L52.3584847,22.4985036 L50.5670218,22.4985036 L50.5670218,13.6676529 L52.3584847,13.6676529 L52.3584847,14.6624297 C52.8705388,14.0404294 53.7660887,13.543041 54.7894705,13.543041 C55.6850204,13.543041 56.3249064,13.7919117 56.9647924,14.413912 L55.5575516,15.6579126 Z" id="Shape"></path>
                <path d="M63.874617,21.5037268 C63.234731,22.1257271 62.3391811,22.4985036 61.1876042,22.4985036 C60.4198863,22.4985036 59.7803634,22.3738918 59.2683094,22.0011152 L59.0122823,22.4985036 L57.7328735,22.4985036 L58.3727595,21.5037268 C57.4772096,20.6328558 57.3493777,19.5134671 57.3493777,18.0213018 C57.3493777,16.5284305 57.6054047,15.4093948 58.3727595,14.5385238 C59.0126455,13.9168766 59.9081954,13.543747 61.0597723,13.543747 C61.8274902,13.543747 62.4673762,13.6683589 62.9790671,14.0411354 L63.2350942,13.6680059 L64.514503,13.6680059 L63.874617,14.6627827 C64.7701669,15.5336537 64.898362,16.6530424 64.898362,18.1452077 C64.898362,19.5134671 64.642335,20.6328558 63.874617,21.5037268 Z M61.0594091,15.1601711 C60.5477182,15.1601711 60.0360273,15.284783 59.7800003,15.6579126 C59.2679462,16.155301 59.1401143,17.1504308 59.1401143,18.1452077 C59.1401143,18.8914668 59.1401143,19.5134671 59.3961413,20.0108555 L62.210986,15.4090418 C61.8274902,15.284783 61.4432681,15.1601711 61.0594091,15.1601711 Z M62.7230401,16.155654 L59.9081954,20.7574676 C60.1642224,21.0059853 60.5480814,21.1305972 60.9319403,21.1305972 C61.4436313,21.1305972 61.9553222,20.8820795 62.3391811,20.6332088 C62.8512352,20.1358204 62.9790671,19.1406905 62.9790671,18.1455607 C63.1068991,17.3993015 62.978704,16.6530424 62.7230401,16.155654 Z" id="Shape"></path>
                <path d="M72.7033734,22.4985036 L72.7033734,17.1504308 C72.7033734,15.7821714 71.9356554,15.1601711 70.9119104,15.1601711 C69.8881655,15.1601711 68.9926156,15.7821714 68.9926156,17.1504308 L68.9926156,22.4985036 L67.2011527,22.4985036 L67.2011527,13.6676529 L68.9926156,13.6676529 L68.9926156,14.5381708 C69.6325016,13.9165236 70.5280515,13.543394 71.4236013,13.543394 C72.3191512,13.543394 73.0872323,13.7922647 73.7267552,14.2896531 C74.3666412,14.9116534 74.6223051,15.7821714 74.6223051,16.7773013 L74.6223051,22.4985036 L72.7033734,22.4985036 Z" id="Shape"></path>
                <path d="M82.8115386,22.4985036 L82.8115386,17.1504308 C82.8115386,15.7821714 82.0438206,15.1601711 81.0200756,15.1601711 C79.9966938,15.1601711 79.1007808,15.7821714 79.1007808,17.1504308 L79.1007808,22.4985036 L77.3093179,22.4985036 L77.3093179,13.6676529 L79.1007808,13.6676529 L79.1007808,14.5381708 C79.7403036,13.9165236 80.6362167,13.543394 81.5317665,13.543394 C82.4273164,13.543394 83.1953975,13.7922647 83.8349204,14.2896531 C84.4748064,14.9116534 84.7304703,15.7821714 84.7304703,16.7773013 L84.7304703,22.4985036 L82.8115386,22.4985036 Z" id="Shape"></path>
                <path d="M93.3035627,21.5037268 C92.6640399,22.1257271 91.7681268,22.4985036 90.6165499,22.4985036 C89.848832,22.4985036 89.2093091,22.3738918 88.6972551,22.0011152 L88.56906,22.4985036 L87.2896511,22.4985036 L87.9295371,21.5037268 C87.0339872,20.6328558 86.9061553,19.5134671 86.9061553,18.0213018 C86.9061553,16.5284305 87.1621823,15.4093948 87.9295371,14.5385238 C88.5694231,13.9168766 89.464973,13.543747 90.6165499,13.543747 C91.3842679,13.543747 92.0241539,13.6683589 92.5358448,14.0411354 L92.7918718,13.6680059 L94.0712807,13.6680059 L93.4313947,14.6627827 C94.3269445,15.5336537 94.4551396,16.6530424 94.4551396,18.1452077 C94.4551396,19.5134671 94.1991126,20.6328558 93.3035627,21.5037268 Z M90.6165499,15.1601711 C90.104859,15.1601711 89.5931681,15.284783 89.3371411,15.6579126 C88.825087,16.155301 88.6972551,17.1504308 88.6972551,18.1452077 C88.6972551,18.8914668 88.6972551,19.5134671 88.9532821,20.0108555 L91.7681268,15.4090418 C91.3842679,15.284783 91.0004089,15.1601711 90.6165499,15.1601711 Z M92.2801809,16.155654 L89.4653362,20.7574676 C89.7213632,21.0059853 90.1052222,21.1305972 90.4890811,21.1305972 C91.000772,21.1305972 91.512463,20.8820795 91.8963219,20.6332088 C92.4080128,20.1358204 92.5362079,19.1406905 92.5362079,18.1455607 C92.5358448,17.3993015 92.5358448,16.6530424 92.2801809,16.155654 Z" id="Shape"></path>
                <path d="M99.5735014,24.2398926 C99.4453063,24.737281 99.1896424,25.1104106 98.9336153,25.3592813 C98.4215613,25.8566697 97.7820384,25.9812816 97.0143205,25.9812816 L96.2466025,25.9812816 L96.2466025,24.3645045 L96.7582935,24.3645045 C97.5260114,24.3645045 97.7820384,24.1156337 98.0377023,23.3693746 L98.5493932,22.0014682 L95.3506895,13.6683589 L97.2699844,13.6683589 L99.4453063,19.8869497 L101.620628,13.6683589 L103.539923,13.6683589 L99.5735014,24.2398926 Z" id="Shape"></path>
                <path d="M107.890204,22.6231155 C106.354768,22.6231155 105.203191,22.3742448 104.051614,21.3794679 L105.203191,20.2600792 C105.970909,21.0059853 106.866459,21.1305972 107.890204,21.1305972 C109.041781,21.1305972 109.93733,20.7574676 109.93733,19.8869497 C109.93733,19.2649494 109.553471,18.8921728 108.657922,18.8921728 L107.250681,18.767561 C105.587413,18.6429491 104.563668,17.897043 104.563668,16.2799128 C104.563668,14.5385238 106.099104,13.543747 108.018399,13.543747 C109.42564,13.543747 110.577216,13.7926177 111.344934,14.5385238 L110.193357,15.6582656 C109.681667,15.1605241 108.786117,15.0362653 107.890204,15.0362653 C106.738627,15.0362653 106.226573,15.5336537 106.226573,16.155654 C106.226573,16.6530424 106.4826,17.026172 107.505981,17.1504308 L108.913222,17.2750427 C110.576853,17.3996545 111.600235,18.1455607 111.600235,19.7626908 C111.728793,21.6279856 110.065526,22.6231155 107.890204,22.6231155 Z" id="Shape"></path>
                <path d="M119.277778,22.4985036 L119.277778,21.6276326 C118.637892,22.2496329 117.742342,22.6227625 116.846792,22.6227625 C115.951242,22.6227625 115.183524,22.3738918 114.543638,21.8765033 C113.903752,21.2545031 113.647725,20.3836321 113.647725,19.3888552 L113.647725,13.7922647 L115.439188,13.7922647 L115.439188,19.1403375 C115.439188,20.5082439 116.206906,21.1302442 117.230651,21.1302442 C118.254396,21.1302442 119.149946,20.5082439 119.149946,19.1403375 L119.149946,13.7922647 L120.941409,13.7922647 L120.941409,22.4985036 L119.277778,22.4985036 L119.277778,22.4985036 Z" id="Shape"></path>
                <path d="M129.258474,22.4985036 L129.258474,17.1504308 C129.258474,15.7821714 128.490756,15.1601711 127.466648,15.1601711 C126.443266,15.1601711 125.547716,15.7821714 125.547716,17.1504308 L125.547716,22.4985036 L123.756253,22.4985036 L123.756253,13.6676529 L125.547716,13.6676529 L125.547716,14.5381708 C126.187602,13.9165236 127.083152,13.543394 127.978702,13.543394 C128.874252,13.543394 129.64197,13.7922647 130.281856,14.2896531 C130.921742,14.9116534 131.177406,15.7821714 131.177406,16.7773013 L131.177406,22.4985036 L129.258474,22.4985036 Z" id="Shape"></path>
                <path d="M138.982417,22.4985036 L138.982417,21.5037268 C138.342531,22.2496329 137.575176,22.4985036 136.551431,22.4985036 C135.655882,22.4985036 134.888164,22.2496329 134.376473,21.7522445 C133.480923,20.8817265 133.353091,19.3892082 133.353091,18.0213018 C133.353091,16.6530424 133.481286,15.1605241 134.376473,14.2900061 C134.888164,13.7926177 135.655882,13.543747 136.551431,13.543747 C137.575176,13.543747 138.215062,13.7926177 138.982417,14.5385238 L138.982417,10.060969 L140.77388,10.060969 L140.77388,22.4985036 L138.982417,22.4985036 Z M137.063485,15.1601711 C135.399854,15.1601711 135.144191,16.5284305 135.144191,18.1452077 C135.144191,19.7623378 135.399854,21.1302442 137.063485,21.1302442 C138.726753,21.1302442 138.982417,19.7623378 138.982417,18.1452077 C138.982417,16.5284305 138.726753,15.1601711 137.063485,15.1601711 Z" id="Shape"></path>
                <path d="M148.578891,15.6579126 C148.195032,15.28443 147.811537,15.0359123 147.171651,15.0359123 C146.147906,15.0359123 145.380188,15.7818184 145.380188,17.025819 L145.380188,22.4985036 L143.588725,22.4985036 L143.588725,13.6676529 L145.380188,13.6676529 L145.380188,14.6624297 C145.891879,14.0404294 146.787429,13.543041 147.811173,13.543041 C148.706723,13.543041 149.346609,13.7919117 149.986132,14.413912 L148.578891,15.6579126 Z" id="Shape"></path>
                <path d="M152.033985,18.6425961 C152.033985,20.1354674 152.80134,21.1302442 154.337139,21.1302442 C155.360521,21.1302442 155.872575,20.8817265 156.512098,20.2597262 L157.663675,21.3791149 C156.768125,22.2496329 155.872212,22.7470213 154.208944,22.7470213 C151.90579,22.7470213 150.11469,21.6276326 150.11469,18.1452077 C150.11469,15.28443 151.650126,13.6676529 153.95328,13.6676529 C156.384266,13.6676529 157.791507,15.4090418 157.791507,17.8963369 L157.791507,18.6422431 L152.033985,18.6422431 L152.033985,18.6425961 Z M155.872212,16.155654 C155.616548,15.5336537 154.976662,15.0362653 154.080749,15.0362653 C153.185199,15.0362653 152.545313,15.5336537 152.289286,16.155654 C152.161091,16.5287835 152.033622,16.7776543 152.033622,17.3993015 L156.127876,17.3993015 C156.128239,16.7773013 156.000044,16.5284305 155.872212,16.155654 Z" id="Shape"></path>
                <path d="M163.293364,26.2301523 C161.88576,26.2301523 160.99021,25.8566697 160.094297,25.1104106 L161.245874,23.9910219 C161.757928,24.4884103 162.269619,24.737281 163.165169,24.737281 C164.700968,24.737281 165.340491,23.6178923 165.340491,22.4985036 L165.340491,21.2548561 C164.700605,22.0011152 163.932887,22.2496329 163.036974,22.2496329 C162.141424,22.2496329 161.373706,22.0011152 160.862015,21.5037268 C159.966465,20.6328558 159.838634,19.3892082 159.838634,17.89669 C159.838634,16.4038187 159.966465,15.1601711 160.862015,14.2896531 C161.373706,13.7922647 162.141424,13.543394 163.036974,13.543394 C164.060719,13.543394 164.700605,13.7922647 165.46796,14.5381708 L165.46796,13.543394 L167.259423,13.543394 L167.259423,22.4985036 C167.132317,24.6130222 165.724713,26.2301523 163.293364,26.2301523 Z M163.421559,15.1601711 C161.758292,15.1601711 161.502265,16.5284305 161.502265,17.89669 C161.502265,19.2645964 161.758292,20.6328558 163.421559,20.6328558 C165.084827,20.6328558 165.213022,19.2645964 165.213022,17.89669 C165.340854,16.5284305 165.084827,15.1601711 163.421559,15.1601711 Z" id="Shape"></path>
                <path d="M169.818967,11.9266169 L169.818967,10.060969 L171.738262,10.060969 L171.738262,11.9266169 L169.818967,11.9266169 Z M169.818967,22.4985036 L169.818967,13.6676529 L171.61043,13.6676529 L171.61043,22.4985036 L169.818967,22.4985036 Z" id="Shape"></path>
                <path d="M177.368314,22.6231155 C175.832515,22.6231155 174.681301,22.3742448 173.529725,21.3794679 L174.681301,20.2600792 C175.449019,21.0059853 176.344569,21.1305972 177.368314,21.1305972 C178.519891,21.1305972 179.415441,20.7574676 179.415441,19.8869497 C179.415441,19.2649494 179.031582,18.8921728 178.136032,18.8921728 L176.728791,18.767561 C175.06516,18.6429491 174.041779,17.897043 174.041779,16.2799128 C174.041779,14.5385238 175.577578,13.543747 177.496509,13.543747 C178.904113,13.543747 180.05569,13.7926177 180.823408,14.5385238 L179.671831,15.6582656 C179.16014,15.1605241 178.264227,15.0362653 177.368677,15.0362653 C176.217101,15.0362653 175.705046,15.5336537 175.705046,16.155654 C175.705046,16.6530424 175.961073,17.026172 176.984455,17.1504308 L178.392059,17.2750427 C180.055327,17.3996545 181.079072,18.1455607 181.079072,19.7626908 C181.206904,21.6279856 179.543636,22.6231155 177.368314,22.6231155 Z" id="Shape"></path>
                <path d="M185.813212,22.4985036 C184.149581,22.4985036 183.254031,21.2548561 183.254031,20.0108555 L183.254031,15.1601711 L182.230649,15.1601711 L182.230649,13.7922647 L183.254031,13.7922647 L183.254031,11.0560989 L185.045494,11.0560989 L185.045494,13.7922647 L186.836957,13.7922647 L186.836957,15.1601711 L185.045494,15.1601711 L185.045494,19.8865966 C185.045494,20.5085969 185.429353,20.8817265 186.068876,20.8817265 L186.836593,20.8817265 L186.836593,22.4985036 L185.813212,22.4985036 Z" id="Shape"></path>
                <path d="M194.002082,15.6579126 C193.618223,15.28443 193.234364,15.0359123 192.594478,15.0359123 C191.571096,15.0359123 190.803015,15.7818184 190.803015,17.025819 L190.803015,22.4985036 L189.011552,22.4985036 L189.011552,13.6676529 L190.803015,13.6676529 L190.803015,14.6624297 C191.315069,14.0404294 192.210619,13.543041 193.234001,13.543041 C194.129914,13.543041 194.7698,13.7919117 195.409323,14.413912 L194.002082,15.6579126 Z" id="Shape"></path>
                <path d="M197.456813,18.6425961 C197.456813,20.1354674 198.224531,21.1302442 199.76033,21.1302442 C200.783712,21.1302442 201.295766,20.8817265 201.935288,20.2597262 L203.086865,21.3791149 C202.190952,22.2496329 201.295402,22.7470213 199.632135,22.7470213 C197.328618,22.7470213 195.537881,21.6276326 195.537881,18.1452077 C195.537881,15.28443 197.073317,13.6676529 199.376108,13.6676529 C201.807093,13.6676529 203.214697,15.4090418 203.214697,17.8963369 L203.214697,18.6422431 L197.456813,18.6422431 L197.456813,18.6425961 Z M201.423598,16.155654 C201.167571,15.5336537 200.527684,15.0362653 199.632135,15.0362653 C198.736222,15.0362653 198.096336,15.5336537 197.840672,16.155654 C197.712477,16.5287835 197.584645,16.7776543 197.584645,17.3993015 L201.678898,17.3993015 C201.551066,16.7773013 201.551066,16.5284305 201.423598,16.155654 Z" id="Shape"></path>
                <path d="M211.275736,22.4985036 L211.275736,17.1504308 C211.275736,15.7821714 210.508381,15.1601711 209.484273,15.1601711 C208.460891,15.1601711 207.565341,15.7821714 207.565341,17.1504308 L207.565341,22.4985036 L205.773878,22.4985036 L205.773878,13.6676529 L207.565341,13.6676529 L207.565341,14.5381708 C208.205227,13.9165236 209.100777,13.543394 209.995964,13.543394 C210.891877,13.543394 211.659595,13.7922647 212.299481,14.2896531 C212.939367,14.9116534 213.195031,15.7821714 213.195031,16.7773013 L213.195031,22.4985036 L211.275736,22.4985036 Z" id="Shape"></path>
                <path d="M217.03362,18.6425961 C217.03362,20.1354674 217.801338,21.1302442 219.336774,21.1302442 C220.360156,21.1302442 220.87221,20.8817265 221.511733,20.2597262 L222.66331,21.3791149 C221.76776,22.2496329 220.871847,22.7470213 219.208579,22.7470213 C216.905425,22.7470213 215.114325,21.6276326 215.114325,18.1452077 C215.114325,15.28443 216.649761,13.6676529 218.952915,13.6676529 C221.383901,13.6676529 222.791142,15.4090418 222.791142,17.8963369 L222.791142,18.6422431 L217.03362,18.6422431 L217.03362,18.6425961 Z M220.871847,16.155654 C220.616183,15.5336537 219.976297,15.0362653 219.080384,15.0362653 C218.184834,15.0362653 217.544948,15.5336537 217.288921,16.155654 C217.161089,16.5287835 217.033257,16.7776543 217.033257,17.3993015 L221.127511,17.3993015 C221.127874,16.7773013 221.127874,16.5284305 220.871847,16.155654 Z" id="Shape"></path>
                <rect id="Rectangle-path" x="0.666081844" y="0.110729582" width="7.67717943" height="2.48764812"></rect>
                <rect id="Rectangle-path" x="10.9024421" y="0.110729582" width="7.67717943" height="2.48764812"></rect>
                <rect id="Rectangle-path" x="21.1384393" y="0.110729582" width="7.67717943" height="2.48764812"></rect>
                <rect id="Rectangle-path" x="0.666081844" y="5.08602582" width="7.67717943" height="2.48764812"></rect>
                <rect id="Rectangle-path" x="10.9024421" y="5.08602582" width="7.67717943" height="2.48764812"></rect>
                <rect id="Rectangle-path" x="21.1384393" y="5.08602582" width="7.67717943" height="2.48764812"></rect>
                <rect id="Rectangle-path" x="0.666081844" y="10.060969" width="7.67717943" height="2.48764812"></rect>
                <rect id="Rectangle-path" x="10.9024421" y="10.060969" width="7.67717943" height="2.48764812"></rect>
                <rect id="Rectangle-path" x="0.666081844" y="15.0362653" width="7.67717943" height="2.48729511"></rect>
                <rect id="Rectangle-path" x="10.9024421" y="15.0362653" width="7.67717943" height="2.48729511"></rect>
                <rect id="Rectangle-path" x="0.666081844" y="20.0108555" width="7.67717943" height="2.48764812"></rect>
                <rect id="Rectangle-path" x="10.9024421" y="20.0108555" width="7.67717943" height="2.48764812"></rect>
            </g>
        </g>
    </g>
</svg>