<?xml version="1.0" encoding="UTF-8"?>
<svg width="322px" height="151px" viewBox="0 0 322 151" version="1.1" xmlns="http://www.w3.org/2000/svg" xmlns:xlink="http://www.w3.org/1999/xlink">
    <!-- Generator: Sketch 44.1 (41455) - http://www.bohemiancoding.com/sketch -->
    <title>brreg_logo_nn</title>
    <desc>Created with Sketch.</desc>
    <defs></defs>
    <g id="Page-1" stroke="none" stroke-width="1" fill="none" fill-rule="evenodd">
        <g id="brreg_logo_nn" fill-rule="nonzero">
            <rect id="Rectangle-path" fill="#010202" x="0" y="0.935578947" width="63.99984" height="21.3566316"></rect>
            <rect id="Rectangle-path" fill="#010202" x="85" y="0.935578947" width="64.0116133" height="21.3566316"></rect>
            <rect id="Rectangle-path" fill="#E6E6E6" x="171" y="0.935578947" width="64.0116133" height="21.3566316"></rect>
            <rect id="Rectangle-path-Copy-4" fill="#E6E6E6" x="256" y="0.935578947" width="64.0116133" height="21.3566316"></rect>
            <rect id="Rectangle-path" fill="#010202" x="0" y="43.4618947" width="63.99984" height="21.3684211"></rect>
            <rect id="Rectangle-path" fill="#E6E6E6" x="85" y="43" width="64.0116133" height="21.3684211"></rect>
            <rect id="Rectangle-path-Copy" fill="#010202" x="171" y="43" width="64.0116133" height="21.3684211"></rect>
            <rect id="Rectangle-path-Copy-6" fill="#E6E6E6" x="257.011773" y="43" width="64.0116133" height="21.3684211"></rect>
            <rect id="Rectangle-path" fill="#010202" x="0" y="86.1810526" width="63.99984" height="21.3625263"></rect>
            <rect id="Rectangle-path" fill="#E6E6E6" x="85" y="86" width="64.0116133" height="21.3625263"></rect>
            <rect id="Rectangle-path-Copy-2" fill="#010202" x="171" y="86" width="64.0116133" height="21.3625263"></rect>
            <rect id="Rectangle-path-Copy-7" fill="#E6E6E6" x="257.011773" y="86" width="64.0116133" height="21.3625263"></rect>
            <rect id="Rectangle-path" fill="#010202" x="0" y="128.917895" width="63.99984" height="21.3566316"></rect>
            <rect id="Rectangle-path" fill="#010202" x="85" y="129" width="64.0116133" height="21.3566316"></rect>
            <rect id="Rectangle-path-Copy-3" fill="#E6E6E6" x="171" y="129" width="64.0116133" height="21.3566316"></rect>
            <rect id="Rectangle-path-Copy-8" fill="#E6E6E6" x="257.011773" y="129" width="64.0116133" height="21.3566316"></rect>
        </g>
    </g>
</svg>