<?xml version="1.0" encoding="UTF-8"?>
<svg width="1011px" height="485px" viewBox="0 0 1011 485" version="1.1" xmlns="http://www.w3.org/2000/svg" xmlns:xlink="http://www.w3.org/1999/xlink">
    <!-- Generator: Sketch 43.2 (39069) - http://www.bohemiancoding.com/sketch -->
    <title>header-bg1</title>
    <desc>Created with Sketch.</desc>
    <defs></defs>
    <g id="Page-1" stroke="none" stroke-width="1" fill="none" fill-rule="evenodd">
        <g id="header-bg1" fill-rule="nonzero">
            <rect id="Rectangle-1" fill="#EDE8F9" x="1" y="0" width="1010" height="483.594203"></rect>
            <path d="M1,115.275362 C1,115.275362 198,134.956522 276,175.273807 C306,151.573818 394,151.573818 438,191.743269 C443.048298,189.026138 463,168.695652 503,161.666667 C543,154.637681 585.411001,159.96622 596,163.775362 C608,144.094203 631.277625,135.110742 662,134.956522 C683.119359,134.850507 696.630929,139.328448 717,151.573818 C823,97.0153119 876,137.184762 905,151.573819 C911.880418,154.987706 934,132.259317 958.232208,141.100573 C978,112.603456 1011,121.515084 1011,121.515084 L1011,345.826087 L1,345.826087 L1,115.275362 Z" id="Path-1-Copy-2" fill="#FFFFFF"></path>
            <path d="M419,270.335356 C723,308.291873 1011,278.770143 1011,278.770143 L1011,446.059994 L1,446.059994 L1,270.335356 C1,270.335356 246.72297,248.82537 419,270.335356 Z" id="Path-1-Copy" fill="#A395C7"></path>
            <path d="M386.960396,311.216277 C515.062612,353.148636 935,313.518914 935,313.518914 L935,359.187864 L746,453.403567 L0,359.187864 L0,311.216277 C0,311.216277 248,265.729654 386.960396,311.216277 Z" id="Path-1-Copy-8" fill="#CCC2E2"></path>
            <path d="M350,358.478266 C654,396.434783 1011,317.00725 1011,317.00725 L1011,484.297101 L1,484.297101 L1,308.572464 C1,308.572464 177.72297,336.96828 350,358.478266 Z" id="Path-1" fill="#64538D"></path>
            <path d="M929.792624,288.567971 C984.539167,185.863949 1011,161.666667 1011,161.666667 L1011,484.297102 L843.110603,484.297103 L813,484.297102 C813,484.297102 859.53456,337.500257 929.792624,288.567971 Z" id="Path-1-Copy-3" fill="#322651"></path>
            <polygon id="Path-1-Copy-6" fill="#44346B" points="1010.93087 207.355072 1010.93087 484.351697 860 484.351698 901.93087 484.351697"></polygon>
            <path d="M159.215757,384.373664 C197.095942,291.481005 215.4047,269.5953 215.4047,269.5953 L215.404699,561.404699 L99.238804,561.4047 L78.4046998,561.404699 C78.4046998,561.404699 110.602855,428.631425 159.215757,384.373664 Z" id="Path-1-Copy-4" fill="#2E214F" transform="translate(146.904700, 415.500000) rotate(90.000000) translate(-146.904700, -415.500000) "></path>
            <g id="Group" transform="translate(419.000000, 94.332857)" fill="#FFFFFF">
                <ellipse id="Oval-1" cx="52" cy="11.8946036" rx="11" ry="8.79166356"></ellipse>
                <ellipse id="Oval-1-Copy" cx="27.7857143" cy="23.2720506" rx="22.7857143" ry="17.0661704"></ellipse>
                <ellipse id="Oval-1-Copy-2" cx="54.8095238" cy="23.7892073" rx="13.8095238" ry="10.3431336"></ellipse>
                <ellipse id="Oval-1-Copy-3" cx="48.8095238" cy="34.1323409" rx="13.8095238" ry="10.3431336"></ellipse>
                <ellipse id="Oval-1-Copy-4" cx="34.8095238" cy="10.3431336" rx="13.8095238" ry="10.3431336"></ellipse>
                <ellipse id="Oval-1-Copy-5" cx="34.8095238" cy="34.1323409" rx="13.8095238" ry="10.3431336"></ellipse>
                <ellipse id="Oval-1-Copy-6" cx="13.8095238" cy="16.5490138" rx="13.8095238" ry="10.3431336"></ellipse>
                <ellipse id="Oval-1-Copy-7" cx="13.8095238" cy="31.0294008" rx="13.8095238" ry="10.3431336"></ellipse>
            </g>
            <g id="Group-Copy-2" transform="translate(904.000000, 64.337770)" fill="#FFFFFF">
                <ellipse id="Oval-1" cx="24.229314" cy="5.16180913" rx="5.12543181" ry="3.81525022"></ellipse>
                <ellipse id="Oval-1-Copy" cx="12.9467076" cy="10.0991918" rx="10.6169659" ry="7.40607396"></ellipse>
                <ellipse id="Oval-1-Copy-2" cx="25.538407" cy="10.3236183" rx="6.43452478" ry="4.48852967"></ellipse>
                <ellipse id="Oval-1-Copy-3" cx="22.7427169" cy="14.8121479" rx="6.43452478" ry="4.48852967"></ellipse>
                <ellipse id="Oval-1-Copy-4" cx="16.2194401" cy="4.48852967" rx="6.43452478" ry="4.48852967"></ellipse>
                <ellipse id="Oval-1-Copy-5" cx="16.2194401" cy="14.8121479" rx="6.43452478" ry="4.48852967"></ellipse>
                <ellipse id="Oval-1-Copy-6" cx="6.43452478" cy="7.18164748" rx="6.43452478" ry="4.48852967"></ellipse>
                <ellipse id="Oval-1-Copy-7" cx="6.43452478" cy="13.465589" rx="6.43452478" ry="4.48852967"></ellipse>
            </g>
            <g id="Group-Copy" transform="translate(374.000000, 83.989724)" fill="#FFFFFF">
                <ellipse id="Oval-1" cx="27.884058" cy="6.36222985" rx="5.89855072" ry="4.70251772"></ellipse>
                <ellipse id="Oval-1-Copy" cx="14.8995859" cy="12.447841" rx="12.2184265" ry="9.12841674"></ellipse>
                <ellipse id="Oval-1-Copy-2" cx="29.3906142" cy="12.7244597" rx="7.40510697" ry="5.53237378"></ellipse>
                <ellipse id="Oval-1-Copy-3" cx="26.1732229" cy="18.2568335" rx="7.40510697" ry="5.53237378"></ellipse>
                <ellipse id="Oval-1-Copy-4" cx="18.6659765" cy="5.53237378" rx="7.40510697" ry="5.53237378"></ellipse>
                <ellipse id="Oval-1-Copy-5" cx="18.6659765" cy="18.2568335" rx="7.40510697" ry="5.53237378"></ellipse>
                <ellipse id="Oval-1-Copy-6" cx="7.40510697" cy="8.85179806" rx="7.40510697" ry="5.53237378"></ellipse>
                <ellipse id="Oval-1-Copy-7" cx="7.40510697" cy="16.5971214" rx="7.40510697" ry="5.53237378"></ellipse>
            </g>
            <g id="Group-Copy-3" transform="translate(955.000000, 78.818157)" fill="#FFFFFF">
                <ellipse id="Oval-1" cx="12.9925307" cy="2.76096767" rx="2.74841996" ry="2.04071524"></ellipse>
                <ellipse id="Oval-1-Copy" cx="6.94243742" cy="5.40189327" rx="5.69315562" ry="3.9613884"></ellipse>
                <ellipse id="Oval-1-Copy-2" cx="13.6945081" cy="5.52193534" rx="3.45039735" ry="2.40084145"></ellipse>
                <ellipse id="Oval-1-Copy-3" cx="12.1953699" cy="7.9227768" rx="3.45039735" ry="2.40084145"></ellipse>
                <ellipse id="Oval-1-Copy-4" cx="8.6973809" cy="2.40084145" rx="3.45039735" ry="2.40084145"></ellipse>
                <ellipse id="Oval-1-Copy-5" cx="8.6973809" cy="7.9227768" rx="3.45039735" ry="2.40084145"></ellipse>
                <ellipse id="Oval-1-Copy-6" cx="3.45039735" cy="3.84134633" rx="3.45039735" ry="2.40084145"></ellipse>
                <ellipse id="Oval-1-Copy-7" cx="3.45039735" cy="7.20252436" rx="3.45039735" ry="2.40084145"></ellipse>
            </g>
        </g>
    </g>
</svg>