<svg id="Layer_3" data-name="Layer 3" xmlns="http://www.w3.org/2000/svg" xmlns:xlink="http://www.w3.org/1999/xlink" viewBox="0 0 153.58 153.58"><defs><clipPath id="clip-path"><circle cx="76.79" cy="76.79" r="76.79" fill="none"/></clipPath></defs><title>Artboard 1</title><g clip-path="url(#clip-path)"><rect x="-16.93" y="85.25" width="1032.92" height="236.48" fill="#00aff9"/><polygon points="-16.42 85.25 44.23 85.25 51.7 81.48 81.71 77.46 106.74 85.25 1015.46 85.25 1015.46 -207.03 -13.92 -207.03 -16.42 85.25" fill="#c0efff"/><path d="M44.23,85.25c11.13-6.4,27.05-11.87,41.6-7.57a219,219,0,0,0,37.91,7.57s3.59,8-6.69,10.79S96,99.16,95.13,103.1s5.09,1.18,4.67,7.34-12.36,9-29.07,6.06-35.93-1.25-42.47-1.14-8.41-4.26-7.89-8.41a80.1,80.1,0,0,1,7.48-4.78C35.22,97.91,42.16,88.37,44.23,85.25Z" fill="#0062bd"/><path d="M682.66,215.8s-11.17,23.05-67,18.19c-23.79-2.07-47.28,4-64.88,2.94-26.06-1.5-34.94-7.77-40.41-12.88h0c-11.58-13.7,13.9-18.95,26.23-16.6,12,2.3,18.51,2,30.15-4.56,14.52-8.17,20.8-2.32,30-10.28,10.55-9.15,24.79-4.74,24.79-4.74s3.82-3.19,6.5-1.25a24,24,0,0,0-5.69-3.74c-11.92-6.27-24.44.87-29.72,4.47-2.65,1.81-8,2.79-15.61,4-15.18,2.45-18,11.44-34.09,7.53-17.42-4.25-27.47-1.52-51,5.29s-88.37,25.45-113.74,25.43c-30.05,0-46.83-9.81-49-23.91-3.5-22.89,55.59-30.27,92.68-26,13.89,1.6,40.53,6.62,63.16,5.71,26-1,61.28-11.41,69.61-17,19.48-13.18,94,3.44,94,3.44l53.85-38.67S696.85,134,688,132c-3.17-.72-5.73-6.7-10.1-6.26-21.83,2.17-56.32-4-70.38-4-22.2,0-71,15-121,24.87C415.15,160.6,363.35,148.91,362,131.66c-.95-11.9,25.84-21.59-21.49-26.33-34.91-3.49-74.12-.72-105.67,1.79-37.92,3-86.46,13.61-135,3.32-2.63,9.72-23.36,6.06-40.4,4.64-12.2-1-47.72-1.36-57.3-2.07-10.31,4.91-12.44,3.4-15.11,3.73-8,1-35.49,28.94,82,48.41,14,2.33-5.31-6.91-11.25-8.68-34.35-10.23-8.34-27.27,31.66-25.1,80.92,4.39,154.82-9.9,190.73-5.62,39.62,4.73,62,19.43,55.57,34.32-25.5,59.26-296.78,19.64-346.07,5.11-45.93-13.54-22.81,54.16-22.81,54.16S-42.27,259.27-16.4,244c40.55-23.87,110.8-35.87,186.06-20.39,44.09,9.07,111.34,35.28,141,53.91,46.88,29.46,108.84,2,118-4.69,13.06-9.46,29.79-21.88,68.65-26.56,49.34-5.95,91.38,16.48,148.67,21,28.79,2.3,30.3-17.09,43.11-19.19,53.83-8.79,61.6-9.26,84.41-17.19V213.9Z" fill="#c0efff"/><path d="M965.27-88.06c-6.56,29.27,30.62,92,10.57,109.16-10,8.58-17.65-11.18-36.43-11.18-20.07,0-31.24,8.69-38.34,18.89-12.85,18.45-23.91,20.89-37.46,16.4-16.5-5.46-17.35-30.77-48.7-32.08-14.83-.62-27,9.19-27,9.19S784.15-7.51,749.28-9.76C738-10.49,780.73-58.35,771.65-59.4c-24.33-2.81-75.88-19.15-108.5-10.67-33.07,8.6-47.09,42.06-51.5,45-10,6.67-11.23-9.93-35-12.13-16.25-1.5-30,3.75-38.5,6.25s-15.62-8.24-23.37-15.13C495.78-62.94,459-68.81,431-47.31s-20.67,15.21-47.62,6c-30-10.25-68.87-7.37-91.5,24.13,0,0-6.21-24.3-32.6-43.7-25.35-18.64-55.4-12.42-82.65-4.42s-49-1.75-69-11.75-46-20.25-76-12-51-2-51-2l6,92.67c28.67,0,279.49-15.66,330.49,26.68s40.17,57,75.17,57H526.14s11.84-19.33,38.17-18S618,66.94,626,54.6s-9.45-32.43,70.09-35.94c45.28-2,91.46-2,112.79,25.29s31.84,35.61,75.68,12.65C929.55,33,955.28,42.3,1027.4,42.3L1015.53-128.4S975.14-132.11,965.27-88.06Zm-85.92,99a25.28,25.28,0,0,0-10-2.36c-5.84-.2-13.6,6.68-6.92-.39s15.27-2.8,15.27-2.8c6.09-9.13,12.77-1.28,12.77-1.28C883.13,3.85,879.35,10.92,879.35,10.92Z" fill="#fff"/><path d="M50.7,27.5s-7.63,4.43-7.56,11.14c0,0-6.33-3.05-16-.53,0,0,7.63-7.63,13.66-3.51C40.86,34.6,41.16,25.83,50.7,27.5Z" fill="#fff"/><path d="M59.16,67.91l-3,17s1,3.46,10.38,3.46,11.56-3.6,11.56-3.6L75.67,67.91Z" fill="#ff3853"/><path d="M68.55,46.69V45.23h-.69l-.42.4-.42-.4h-.69v1.46l-6.77,6.47a2.83,2.83,0,0,0-.82,2.6l.88,4.43H75.27l.88-4.43a2.83,2.83,0,0,0-.82-2.6Z" fill="#ff3853"/><path d="M49.65,86.75c-.9-3.18.83-6.18,4.47-5.3,2.36.57,2.08,3.24,2.08,3.24a4.28,4.28,0,0,1,1.69-1.07,2.36,2.36,0,0,1,2.93,3.22s2.65-1.92,2.86.26c0,0,6.74-1.94,6.8,1s-4.92,2.08-8.77,1.23C57.65,88.45,50.81,90.81,49.65,86.75Z" fill="#422d62"/><path d="M66,96.46c.47-1.4-.26-3.43-4.62-.57s-8.1,5.61-6,7.16,6.4-2.94,7-1.66c1.46,3.36,7.9,2.54,9.74-1.45,0,0,4.35,2.94,8.48,2.08s13.35,2.76,15.66,3.48c-.7-3.32-1.44-4.7-5.91-4.77,0,0,.57-3.33-3.16-3.43-1.95-.05-2-2.8-5-3.61-3.56-1-4.3,1.3-5.49,1.35s-3.83-3.29-6.91-1.54A39.7,39.7,0,0,0,66,96.46Z" fill="#422d62"/><path d="M95.24,93.91c2,1.43,5.14-.07,7.84-.62s7.28-.86,7.63-2.32c.5-2.1-4.42-1.76-5.35-2-1.22-.31-2-1.47-3.55-1.8-2-.43-3.4.8-4.26,2.8C94.87,89.42,93.35,92.57,95.24,93.91Z" fill="#422d62"/><path d="M75.8,86.1c1.1,1.63,3.9.8,5.79-1.56,2.29-2.85,3.79-.88,7.09-.54,4.63.47,8.4-2.35,3.42-3.81-2.31-.68-3.41-.81-3.83-1.63-.72-1.42-2.76-3.87-5.76-3.38a3.19,3.19,0,0,0-2.13,1.12A3.71,3.71,0,0,0,76.56,74l1.21,8.38C75.78,83.19,75,85,75.8,86.1Z" fill="#422d62"/><path d="M64.62,58.66c0,2.57-.7,2.93-1.57,2.93s-1.57-.43-1.57-2.93.7-2.93,1.57-2.93S64.62,56.25,64.62,58.66Z" fill="#c0efff"/><path d="M69,58.66c0,2.57-.7,2.93-1.57,2.93s-1.57-.43-1.57-2.93.7-2.93,1.57-2.93S69,56.25,69,58.66Z" fill="#c0efff"/><path d="M73.39,58.66c0,2.57-.7,2.93-1.57,2.93s-1.57-.43-1.57-2.93.7-2.93,1.57-2.93S73.39,56.25,73.39,58.66Z" fill="#c0efff"/><path d="M77.9,59.34H57A7.05,7.05,0,0,0,55.63,64,9.46,9.46,0,0,0,56,66.62a2.84,2.84,0,0,0,2.73,2.07H76.19a2.84,2.84,0,0,0,2.73-2.07A9.46,9.46,0,0,0,79.26,64,7.05,7.05,0,0,0,77.9,59.34Zm-19.24,7.6c-.87,0-1.57-.43-1.57-2.93s.7-2.93,1.57-2.93,1.57.52,1.57,2.93C60.24,66.58,59.53,66.93,58.67,66.93Zm4.39,0c-.87,0-1.57-.43-1.57-2.93s.7-2.93,1.57-2.93,1.57.52,1.57,2.93C64.63,66.58,63.92,66.93,63.05,66.93Zm4.39,0c-.87,0-1.57-.43-1.57-2.93s.7-2.93,1.57-2.93S69,61.6,69,64C69,66.58,68.31,66.93,67.44,66.93Zm4.39,0c-.87,0-1.57-.43-1.57-2.93s.7-2.93,1.57-2.93S73.4,61.6,73.4,64C73.4,66.58,72.7,66.93,71.83,66.93Zm4.39,0c-.87,0-1.57-.43-1.57-2.93s.7-2.93,1.57-2.93,1.57.52,1.57,2.93C77.79,66.58,77.09,66.93,76.22,66.93Z" fill="#fff"/><path d="M69.05,45.73H65.73v-.5c0-1.24.18-2.89,1.71-2.89s1.61,1.54,1.61,2.89Zm-2.31-1H68c-.07-1.39-.45-1.39-.6-1.39S66.82,43.34,66.75,44.73Z" fill="#fff"/><path d="M-.75,114.3c5-2.1,15.09-9.33,21.12-7.35s5.4,7.37,11.63,6.23,10.38-5.19,15.89-.73,6.75,8.41,11.21,8-5.81,5.92-13.6,1.45-9.86-4.57-16.72-1.87-10.38-4.59-14.23-4.94S6.52,117-.75,114.3Z" fill="#fff"/><path d="M1.9,105.94c11.38-5.69,12.5-.95,21.44-6.37,5.12-3.11-4.68,6.1,1.29,3.95C30.76,101.3,34,98,39.1,92c-1.11-1.33-3.61-.88-5.85.9-1.9,1.52.14-2.13-2-2-2.6.21-5.61,4.86-12.56,7.35s-8.84-1.75-17.16,2.22C-13.64,107.8-28,96.92-28,96.92s4.75,15.13,6.4,15.27C-10.09,113.23-3.56,108.67,1.9,105.94Z" fill="#c0efff"/><path d="M110.71,97.51c9.78-1.2,10.41-2.3,14.17-4.33,6.14-3.32,11.94,1.19,15.37,2.1s3.93-3,6.81-3.85c2-.59,3.66,0,5,.25s2.22-.28.94-.71c-1.56-.52-2.59-.83-3.81-1.12-3-.73-4.72.23-6.62,2.67-1.63,2.08-7-4.46-14.22-3.8C121.48,89.34,117.53,96.26,110.71,97.51Z" fill="#c0efff"/><path d="M98.13,104.93c.26-2.73,7.4-4.81,12-2.37,7.92,4.18,10.5.56,10.34,2.43-.09,1.06-1.78,2.23-6.19,1.92-1.78-.13-3.89-1.06-4.9-1-1.4.16-.22,1.06,1.31,1.7s3.39,1,2,1.87C109.82,111.27,97.73,109.27,98.13,104.93Z" fill="#c0efff"/><path d="M122.08,102.83c-1.69,1.38-.38,1.91.55,1.05S123.23,101.89,122.08,102.83Z" fill="#c0efff"/><path d="M66.23,120.13c-4-.73-4,2.8-.37,2.7S68.48,120.55,66.23,120.13Z" fill="#fff"/><path d="M58,113c-3.11-.07-2.91,3.38,0,3.38S59.93,113.06,58,113Z" fill="#fff"/><path d="M36.62,87.29c-2.34.87-2.38,3.68-.52,2.63C38.15,88.77,37.79,86.86,36.62,87.29Z" fill="#c0efff"/><polygon points="58.06 74.11 76.56 74.11 77.33 79.4 57.13 79.38 58.06 74.11" fill="#fff"/><rect x="-10.35" y="-201.34" width="1024" height="467.2" fill="none"/></g></svg>