<svg id="Layer_2" data-name="Layer 2" xmlns="http://www.w3.org/2000/svg" xmlns:xlink="http://www.w3.org/1999/xlink" viewBox="0 0 1024 467.2"><defs><clipPath id="clip-path"><rect width="1024" height="467.2" fill="none"/></clipPath></defs><title>Artboard 1</title><g clip-path="url(#clip-path)"><rect x="-43.87" y="-36.75" width="1082.94" height="324.08" fill="#c0efff"/><path d="M-7.39,108.8s6.26,13.54,21.41,14,86.85-41.41,165.11-22.09,83,101.6,135.32,107.67c55.54,6.44,58.21-16.41,95.43-15.18,41.91,1.38,53,31.29,82.81,24.39s71.19,5.06,70.18,33.13c0,0,64.31-23.9,93.63,35.56l-1.89,55.1H-3.67Z" fill="#fff"/><path d="M656.42,286.61c17.31-21.83,57.9-47.78,101.93-45.53s44.41-28.6,78.65-41.77,69.62,10.91,69.62,10.91a63.09,63.09,0,0,1,39.51-39.14c35.75-12,54.19,26.72,86.93,24.46V334.15H641.69Z" fill="#fff"/><rect x="-14.67" y="383.95" width="939.74" height="93.33" fill="#c0efff"/><path d="M-7.64,470.08c2.09-.69,96.68-1.63,150.48-46.91l13.71-24-53.12-4.28L-11.85,424.77Z" fill="#fff"/><path d="M749.52,416.17s-52.53,33.41,42.39,51,19.18-45.28,19.18-45.28Z" fill="#fff"/><path d="M512,416.92c.85,1.44,145.24,20.64,145.24,20.64l85.16-52.22L512,382.45Z" fill="#6a6a6a"/><rect x="787.37" y="325.63" width="177.67" height="94.29" fill="#fff"/><rect x="296.74" y="297.78" width="133.15" height="103.27" fill="#fff"/><rect x="-17.18" y="302.23" width="263.14" height="82.16" fill="#fff"/><rect x="100.39" y="308.04" width="45.5" height="78.24" fill="#6a6a6a"/><rect x="429.88" y="303.36" width="60.21" height="80.5" fill="#6a6a6a"/><polygon points="570.39 383.95 509.46 383.95 506.1 302.23 570.39 302.23 570.39 383.95" fill="#422d62"/><polygon points="306 312.67 417.85 312.67 417.85 344.38 427.41 344.38 427.41 302 312.25 300.15 306 312.67" fill="#0062bd"/><path d="M753.38,298.91c0,17.18-18.19,12.38-18.19,44.43v46c0,.38.64,0,.64,0l.51.5,82.26.52,7.95,10.52,6.33-10.42,6.85,0s-7.81-46.61,29.57-46.61L868,302.72Z" fill="#422d62"/><polygon points="869.3 341.63 869.3 383.95 922.24 383.95 922.24 308.64 869.3 308.64 869.3 341.63" fill="#0062bd"/><polygon points="127.37 315.22 100.39 314.66 -92.5 301.05 -92.5 277.16 133.53 308.84 127.37 315.22" fill="#422d62"/><path d="M144.84,288-14,255.1V242.7s-22-3.84-29.18-5.17-4.11-12-4.11-28.31V186.91l-41.38-9.07V283.39L144.84,317.8Z" fill="#00aff9"/><path d="M550.43,397.69c-2.52,0-3.79-.82-3.79-4.33V325h3.79S553,397.69,550.43,397.69Z" fill="#00aff9"/><polygon points="934.07 287.32 934.07 445.38 967.48 445.38 967.48 288.32 1031.22 288.32 1031.22 259.8 962.34 259.8 934.07 287.32" fill="#00aff9"/><rect x="961.83" y="287.45" width="85.51" height="134.97" fill="#00aff9"/><path d="M753.38,298.91V286.45h171.7V390.89h-4.63V341.16c0-24.3-6.1-20.53-20.53-20.53h-66.6v71.44l-6.17,4.73V308.38Z" fill="#00aff9"/><polygon points="761.09 317.12 761.09 398.08 753.38 398.08 753.38 316.09 761.09 317.12" fill="#00aff9"/><polygon points="761.09 317.12 767.77 319.43 767.77 398.08 761.09 398.08 761.09 317.12" fill="#0062bd"/><polygon points="839.22 320.63 839.22 392.89 833.31 392.07 833.31 320.63 839.22 320.63" fill="#0062bd"/><path d="M753.38,286.59V315s-6.91,19.79-11,23.86v46.51l-21.53,7.28L718.51,395H714l-34,11.51V364.23l45.86-77.64Z" fill="#0062bd"/><polygon points="509.46 286.59 306 286.59 306 312.67 342.33 300.15 512 300.15 509.46 286.59" fill="#00aff9"/><path d="M489,297.48H329l-23,15.19s10-7.16,82-7.16H497.6Z" fill="#422d62"/><polygon points="329 297.48 312.76 308.95 304.42 299.63 306 286.45 427.41 286.45 427.41 297.48 329 297.48" fill="#c0efff"/><path d="M144.84,407S178.7,368.46,220.73,364,273.1,407,273.1,407V265.46H144.84Z" fill="#eee"/><path d="M753.38,286.45c0-8.14,41-17.85,41-17.85l168-8.8-28.27,27.52Z" fill="#0062bd"/><path d="M427.41,297.48v13H497.6s1.29-13.32-8.32-13.32S427.41,297.48,427.41,297.48Z" fill="#6a6a6a"/><path d="M311.1,365.15s16.39-.83,32.59-16.28c7-6.67,14.73-22.83,14.73-22.83s4.64,15.46,13,23.52c18.43,17.83,27.21,11.94,27.21,11.94H415V312.44H306V360.1Z" fill="#ff3853"/><polygon points="273.1 265.46 306 286.59 306 300.64 273.1 300.64 273.1 265.46" fill="#c0efff"/><path d="M575.13,306.07c.64-1.44-.58-2.13-1.27-3.55-.87-1.8-2.29-2-4-3C566.2,297.25,556,287,546.34,286.59a39,39,0,0,0-6.24.63c-2.75.69-6.27,2-8.09,2.19-8.49,1.09-13.44-2.85-22-2.85-5.76,2-13.17,3.79-19.17,6.17-5,2-6.14,10.63-11.26,12.34-21.54,7.17-21.56,20.59-19,26.26,1.87,4.22,9.27,6.59,9.17,6.93s-6.77,7.58-7.19,16.06c-.64,12.8,6.66,28.72,22.36,29.62,16,.92,29.78-12.62,29.78-12.62V332S529,306.5,537.47,306.5,575.13,306.07,575.13,306.07Z" fill="#0062bd"/><rect x="552.14" y="326.02" width="71.45" height="48.35" fill="#eee"/><rect x="550.43" y="325" width="31.83" height="55.05" fill="#0062bd"/><polygon points="569.24 286.68 538.39 325 606.09 325 611.99 286.68 569.24 286.68" fill="#c0efff"/><path d="M655.11,286.68H612L603.36,325h76.55l-3.66-17.83S665.25,286.68,655.11,286.68Z" fill="#422d62"/><polygon points="550.43 368.48 624.01 371.13 627.2 404.45 550.43 397.69 550.43 368.48" fill="#c0efff"/><polygon points="624.67 369.22 625.11 371.46 550.43 368.48 559.71 366.66 624.67 369.22" fill="#0062bd"/><path d="M624.67,336.35c-15.06-.15-57.67-5.41-57.67,30.6V325h57.67Z" fill="#422d62"/><path d="M612,286.68h4.44L624.67,325H603.36s-6,.28-3.77-5.65Z" fill="#00aff9"/><polygon points="623.59 325 623.59 391.43 644.26 386.08 644.26 324.12 623.59 325" fill="#0062bd"/><polygon points="902.07 344.38 925.07 344.38 925.07 299.71 897.81 310.44 902.07 344.38" fill="#00aff9"/><path d="M-13.82,375c1.19-.36,2.58-.23,3.54-1,1.36-1.1,1-3.28,1.86-4.82,1.12-2.07,4.07-2.41,6.29-1.61s4.06,2.39,6.2,3.39,5,1.24,6.61-.46a7.85,7.85,0,0,0,1.47-2.68c2.16-5.46,2.43-10.44,5.72-15.3,1.27-1.88,4-3.94,5.8-1.77s-1.62,5.27-3.44,9c2.82-3.64,5.39-3.34,6.35-1.78s-.64,4.72-2.75,7.23a29.87,29.87,0,0,1-6.41,5.47,9.8,9.8,0,0,0,6.48-2.81c2.86-2.86,2.5-6.67,9.07-7.09.94-.06,1.09-1.51,1.62-2.28A6.37,6.37,0,0,1,41,355.84c2.74.55,3.94,2.66,6.2.55,4.58-4.28,9.26-4.46,11.73-3.31a6.39,6.39,0,0,1,3.43,6.43c-.06.7.42-5.42,5.4-7.66,2.9-1.3,6.65-1,8.47,1.6,1.47,2.12,2.11,5.5,4.67,5.73,1.18.1,2.26-.6,3.37-1a7,7,0,0,1,8,2.59,4.58,4.58,0,0,0,1.42,1.67c.93.49,2,0,3.07-.18,3.65-.79,5.94,15.4,1.28,16.73-1.67.48,4,4,5.41,5-2.5,5.74.89,20-.23,20.48-13.22,5.38-22.63,7.11-36.23,11.43-20.68,6.56-42.09,10.6-62.9,16.72-4.39,1.29-9.17,2.67-13.44,1a5.22,5.22,0,0,1-2.67-2c-1.88-3.11,1.68-7.47-.16-10.6-.87-1.47-2.63-2.09-4.11-2.95s-2.9-2.48-2.34-4.09c.19-.54.58-1,.72-1.55.39-1.53-1.21-2.76-1.89-4.18-2.56-5.35,6.53-10.74,5.67-16.7C-14.79,387.31-21.28,377.29-13.82,375Z" fill="#00aff9"/><path d="M26.61,372.44A7,7,0,0,1,34.53,364c1.21.2,2.57.69,3.59,0a5.63,5.63,0,0,0,1-1.08,5.09,5.09,0,0,1,8.34.92,5.33,5.33,0,0,0,.69,1.17c.31.33.7.84,1.74-.19a6.87,6.87,0,0,1,5.21-2c1.87.08,4.13.76,4.53,2.54.19.85-.65,2.56.21,2.7.68.11.55-1.63.93-2.21a4.91,4.91,0,0,1,4-2.19,4.37,4.37,0,0,1,3.85,2.28,19.52,19.52,0,0,1,.93,3.41.74.74,0,0,0,.24.41c.46.32,1.46-.36,3.07-.1a3.37,3.37,0,0,1,2.59,3.33c0,1.36-2.19,1.82-3.42,2.39-4.53,2.1-2.65,7.51-3.4,10.15a5.1,5.1,0,0,1-4,3.24,8.09,8.09,0,0,1-4.47-.33,15.73,15.73,0,0,0-2.72-1c-1.64-.28-3.26.48-4.9.75a17.05,17.05,0,0,1-4.44,0c-3.6-.35-7.35-.74-10.44-2.62-1-.58-1.84-1.3-2.81-1.88-1.81-1.08-3.9-1.67-5.59-2.92a5.49,5.49,0,0,1-2.34-3.83,10.94,10.94,0,0,1-.07-1.8A8.36,8.36,0,0,0,26.61,372.44Z" fill="#0062bd"/><path d="M710.69,286.64h-32.1c-6.62,1.09-12.58.8-19.14,2.18-5.14,1.08-6.61,2.67-11.28,5.06-1.14.58-1.52,8.07-6.2,12.36-6.45,5.92-17.93,9.75-22.52,17.09-3.35,5.37-2.41,9.26-1.73,13,.35,1.91,4.67,6.31,2.7,11.4-1.87,4.81-4.54,9.92-5.45,16.12-2.32,15.74,8.11,20.61,8.21,22.63.07,1.55,3-.26,3.75,1.1,1.67,3,5.59,3.85,9,3.8s7-.65,10.19.64c3.88,1.58,6.18,5.62,7.43,9.61a33.87,33.87,0,0,1,1.54,10.94c-.09,3.51-.71,7.06,0,10.5s3.15,6.89,6.64,7.24a8.61,8.61,0,0,0,6.1-2.26c10.31-8.45,7.41-27.08,18.39-34.64,3.48-2.39,7.77-3.18,11.87-4.19s8.36-2.42,11.1-5.63,3.16-8.72-.16-11.33c-1-.78-2.21-1.23-3.27-1.93a8.27,8.27,0,0,1-2.16-11.11c1.67-2.44,4.52-3.74,7-5.38,3.49-2.32,6.51-5.76,7.11-9.9s-1.92-8.86-6-9.64c-1.56-.3-3.18,0-4.75-.23s-3.27-1.08-3.61-2.63c-.39-1.8,1.17-3.37,2.52-4.62,2.25-2.08,4.43-4.55,4.86-7.58s-1.7-6.57-4.77-6.54c2.12-1.91,4.33-3.94,5.26-6.64a6.81,6.81,0,0,0,0-4.53c-.68-1.8-1.78-2-3.1-3C704.83,296,714.12,289,710.69,286.64Z" fill="#00aff9"/><path d="M165.09,271.35c-4.18.1-4.61,4.18-8.15,5.81-3.91,1.8-11,1.27-17,3.53-3,1.14-5.83,3.95-8,6.64-6.94,8.66-4.83,17-4.63,28.17s-9.34,10.39-13.65,21.88c-6,16.13,5.26,29.74,7.27,32.35,16.67,12.44-1.07,7.05,7.68,14,4.86,3.88,17.7,2.67,17.7,17.86,0,3.68,1.88,4.62,1.8,8.31-.08,3.51,33,.08,34.57-1.33,0-15.24,3.37-35,4.58-42,2.39-13.76,9.9-26.24,10.26-30.41.74-8.62-7.18-16.43-5.14-18.71C209.11,298.93,193.26,270.65,165.09,271.35Z" fill="#0062bd"/><path d="M429.7,370.36c.63-1.61-.58-2.39-1.27-4-.87-2-2.28-2.22-4-3.39-4.08-2.82-6.69-7-11.07-9.71-4.53-2.8-10.23-4.5-15.66-3.51-2.61.47-5.06,1.54-7.69,1.93a22.91,22.91,0,0,1-3.29.14c-6.69-1.52-14.42-4.76-21.88-3.38-6.56,1.21-8.73,8.79-14.71,11.47-4.93,2.21-12.93.3-18.06,2.13-1.11.4-1.66,2.81-2.48,3.58-2.09,1.95-2.31,3.16-1.18,5.64s2.94,4.75,3.52,7.38-.65,5.89-3.6,6.55c-3.61.81-7.08-2.68-10.72-2a5.24,5.24,0,0,0-4,5.84c.32,2.48,2,4.64,3.59,6.69l6.51,8.27a3.15,3.15,0,0,1,1,2.53c-.35,1.35-2.25,1.75-3.75,2.17a11.06,11.06,0,0,0-7.92,7.85,9.81,9.81,0,0,0,4.06,9.86c3.36,2.42,15.38,14.52,19,15.94,15,6,33.39,1.3,33.39,1.3s23.84-51.57,32.29-51.57S429.7,370.36,429.7,370.36Z" fill="#0062bd"/><path d="M306,286.59c-2.4-2-8.76-5.63-16.88,1-3.72,3-8.88-5.69-15.52-5.14-4.94.41-9.05,4-8,9-2.76,1.41-6,1.55-8.87,2.72a4.7,4.7,0,0,0-1.69,1c-1.17,1.24-1,3.24-.36,4.82s1.64,3,2,4.7-.36,3.75-2,4.17c-2,.51-4-1.71-6-1.28-1.55.33-2.41,2.14-2.23,3.72a9.74,9.74,0,0,0,2,4.26l3.64,5.26a2.17,2.17,0,0,1,.55,1.61c-.19.86-1.26,1.12-2.1,1.38a6.53,6.53,0,0,0-2.16,11.27c1.88,1.54,4.57,2,6.12,3.87a5,5,0,0,1-.12,6.37c-.74.83-1.75,1.38-2.54,2.17-1.94,1.93-2.27,4.94-2.14,7.68a7.25,7.25,0,0,0,.71,3.22c1.2,2.14,4,2.75,6.45,2.72s5-.46,7.29.46c2.77,1.13,4.42,4,5.31,6.87a24.22,24.22,0,0,1,1.1,7.82c-.06,2.51-.51,5,0,7.51s2.25,4.93,4.75,5.18a6.16,6.16,0,0,0,4.36-1.62c7.37-6,5.3-19.36,13.15-24.77,2.49-1.71,5.55-2.28,8.49-3s9.23,1.9,11.18-.4,5.28-9.17,2.91-11c-.71-.56-6.91-12.7-5.15-13.88,2.49-1.66,4.65-4.12,5.09-7.08s-1.37-6.34-4.31-6.89c-1.12-.21-2.27,0-3.4-.16A2.84,2.84,0,0,1,305,318.3c-.28-1.29.84-2.41,1.81-3.3,1.61-1.48,3.17-3.25,3.47-5.42s-1.22-4.7-3.41-4.68c1.52-1.37-.54-6,0-7C309,293.65,309.21,289.2,306,286.59Z" fill="#00aff9"/><path d="M623.07,427.3s-16.88,1.05-23.35-2.87,1-8-5.14-10.28-9.29-10.59-3.34-14.65c3.28-2.24,2.14-5.42,2.59-8.08.59-3.44,2.08-6,6.29-7.44,5.67-1.89,8.76,3.93,8.76,3.93s.47-10.2,6.26-13.09c9.77-4.88,14.91,5.65,15.68,1.54s4.37-11.82,14.65-10.8S660.37,395,660.37,395Z" fill="#422d62"/><path d="M617.72,336.32s-2.14-7.46,3.89-12.32c5.12-4.13,11,.52,11,.52s-1.2-10.54,13.17-11.15c9.52-.4,8.79-12.93,10.81-16.11s6-8.8,9.67-9.34c1.4-.21,5.81,3.24,6.92,2.36-4.45-1.92-12.26-4.9-17-3.74-17.51,4.31-16.74,16.35-16.74,16.35s-6.17-3-14.26,2.3c-7.92,5.19-8.72,12.33-8.72,19.57A47.61,47.61,0,0,0,617.72,336.32Z" fill="#c0efff"/><path d="M676.16,286.47l.19.17" fill="#422d62"/><path d="M711.18,286.59c-2.26,0-10,0-32.59,0,20.16,3,15.66,21.85,18.07,27.94,1.32,3.34,2.67,6,2.77,9.58.24,8.78-8.64,16.19-7.44,24.89.47,3.43,2.48,6.42,4,9.54,4,8.22,7,21.73,7,29.32,5.71-1.4,3.49-1.19,5.06-2.48s2.9-2.89,4.63-3.94c1.92-1.16,4.2-1.57,6.14-2.69a9.77,9.77,0,0,0,4.58-6.1,19.33,19.33,0,0,0,.26-5.48l-1.49-31c-.28-5.84-.54-11.83,1.25-17.4,2.14-6.66,7.07-10.32,7.07-19.58V286.59Z" fill="#422d62"/><path d="M23.5,374.72a2.81,2.81,0,0,1,2.27-1.88,1.18,1.18,0,0,1,.8.13c.66.44.32,1.64,1,2.12.47.35,1.64-.65,4,.23,3.14,1.14,3.24,6.34,3.24,6.34s.37-6.05,4.39-6.09c3.36,0,5.3,6.42,5.3,6.42a2.84,2.84,0,0,1,2.76-3.14c3.11-.39,4.56,4,4.54,4.93a.93.93,0,0,0,.15.57,1.07,1.07,0,0,0,.61.35c.65.17,1.34.15,2,.33a3.79,3.79,0,0,1,2.67,3.71,4.36,4.36,0,0,1-2.73,3.78,5.14,5.14,0,0,1-4.7-.59,17.94,17.94,0,0,0-2.27-1.66,2,2,0,0,0-2.52.48c-.48.83,0,2-.45,2.8a1.92,1.92,0,0,1-.67.63c-1.6,1-3.38.35-4.59-1.1-1-1.17-1.51-2.53-4-2.79-2-.2-5.69,2-5.69,2s2-1.88,2.14-3.39c.49-4.43-8.87-5.78-8.43,1.56-4.26,3-9.54-4.11-3.21-6.34C14.89,383.76,15.23,373.68,23.5,374.72Z" fill="#422d62"/><path d="M41.52,373.89c1.18,1.34,2.36,2.67,3.64,3.91a2.49,2.49,0,0,0,.87.62.89.89,0,0,0,1-.22,1.1,1.1,0,0,0,.1-1c-.39-1.42-7.06-7.45-7.73-6.79S41.07,373.37,41.52,373.89Z" fill="#ff3853"/><path d="M62.83,373.69a2.46,2.46,0,0,0,2.37,1.8,1.75,1.75,0,0,0,1.65-.83c.61-1.14,0-3.66-1.36-4.11C63.47,369.87,62.44,372.21,62.83,373.69Z" fill="#ff3853"/><path d="M71,364.31a2.74,2.74,0,0,0,2.35,3.84c2,0,2.65-1.37,2.38-2.6a4.14,4.14,0,0,0-1.78-2.44A2.15,2.15,0,0,0,71,364.31Z" fill="#0062bd"/><path d="M3,389.09c.52-1.5.59-3.18,1.42-4.53.74-1.19,2-2,2.89-3,1.62-1.87,2.12-4.46,2.27-6.93,5.86-5.19,6.12-13.05,3.1-15.24-4.26-3.1-7.45,3.22-7.45,3.22s-.67-5.24-6-3.4c-1.17.41-1,2.36-1.74,6.35a3.7,3.7,0,0,1-1.43,2.22,9.44,9.44,0,0,0-2.3,3.17A26.73,26.73,0,0,0-9,384.53a44.18,44.18,0,0,0,1.07,6.67c.52,2.36.71,3,3.2,3.08A8.11,8.11,0,0,0,3,389.09Z" fill="#0062bd"/><path d="M104.45,406.29S87.31,421.5-13,437V404.18S37.84,407,104,381.44Z" fill="#422d62"/><path d="M211.2,391.41a5.47,5.47,0,0,1-1.48,1.93c-2.76,2.49-18.49,14.29-24.15,16.55-4.43,1.77-9.39,1.36-14.14.92-.26,0-.85-.07-.85-1,0-2-2.53-8-2.26-8.33s16.05-4.39,22.21-6.68a108.18,108.18,0,0,0,11.28-5c3.51-1.79,6.94-5,10.55-6.46A39.58,39.58,0,0,1,211.2,391.41Z" fill="#6a6a6a"/><path d="M173.22,379.48c1.69-2.8,4.54-5.36,7.8-5.08,1.7.15,3.42,1.06,5,.52a6.77,6.77,0,0,0,2-1.25c3-2.39,6.8-4.1,10.64-3.81s7.64,3,8.29,6.83a5.55,5.55,0,0,0,.7,2.52c.9,1.18,2.79,1,3.89,2s1,3,.06,4.3a9.41,9.41,0,0,1-3.89,2.6c-9.47,4.21-17.49,9.35-27.28,12.76-2.23.78-9.74,1.65-12.1.64-2-.86,1.31-4.05,1.31-5.87C169.62,390.09,170.28,384.34,173.22,379.48Z" fill="#0062bd"/><path d="M468,323.47c4.79-17.63,21-17.63,21-17.63s-.31-11.45,12.81-16.12a23.74,23.74,0,0,1,18.8,1,71.42,71.42,0,0,1,9.28,6.17,15.61,15.61,0,0,1,3.58-5.44c2.93-3,6.66-4.73,12.75-4.84-8.8-.17-14.53,2.46-18.32,2.32a20.45,20.45,0,0,1-9.11-2.23,18.14,18.14,0,0,0-16,1.32c-5.11,3.3-25.25-2.59-26.78,15.17-6.43,1-20.94,2.22-19.31,20.08.46,5-15.11,35.53,8.49,45.81-5.8-16.53,5.38-30.27,5.38-30.27A18.44,18.44,0,0,1,468,323.47Z" fill="#c0efff"/><path d="M43.53,428.3v11c0,2.29,1.18,6.52-15.18,9.84s-31.46,6.29-31.46,6.29V430.61Z" fill="#6a6a6a"/><path d="M7.59,421.94c.14-2.3.16-6.81,2.45-6.52a8.61,8.61,0,0,0,2.23.28A3,3,0,0,0,14.36,414a12.26,12.26,0,0,0,.86-2.63,21,21,0,0,1,1.48-3.91c.47-.95,1.18-2,2.24-2s2.21,1,3.31.69a1.85,1.85,0,0,0,1.16-1.69c.12-1.85-1.3-2.3-3.94-5.39s-3.54-6.22-1.23-7.85c3.31-2.33,7.84,10.48,7.84,10.48s.88-5.23,1.31-6.42c.94-2.59,3.09-4.58,5.52-2.54,2.1,1.76-1,6.69-1.93,8.94-2.26,5.33,3.08,1.67,3.75,1.51a14.3,14.3,0,0,1,2-.56c1.62-.15,3,1.31,3.42,2.89a10.38,10.38,0,0,1-.35,4.81,5.3,5.3,0,0,1,5.54,8.91c-.84.71-1.93,1.19-2.49,2.14-1.3,2.21,1.16,4.93.75,7.46a1.8,1.8,0,0,1-.7,1.25,2.39,2.39,0,0,1-1.79.12A59.66,59.66,0,0,0,34.63,429a18.42,18.42,0,0,0-11.91,3.1,49.06,49.06,0,0,1-4.4,3.08,10.69,10.69,0,0,1-10.89-.66,7.53,7.53,0,0,0-2.15-1.28,4.1,4.1,0,0,0-1.82,0c-2.65.48-5.31,2.3-7.82,1.32a4,4,0,0,1-1.91-5.44c1.79-3.1,6.94-2.53,9-5.46.75-1.07,2.08-8.27,1.51-3.62S7.58,422.14,7.59,421.94Z" fill="#0062bd"/><path d="M329,389.73c9.83,3.61,19.5-.06,20.33-11.06s8.67-17.42,16.17-12.12c0,0,.41-17.73,21.27-14.72,0,0-16.84-12.35-33.59,2.87-7.71,7-13.91-.18-24.71,9.72Z" fill="#00aff9"/><path d="M45.1,377.32c1.36-.43-4-4.18-8.21-5.08S41.55,378.44,45.1,377.32Z" fill="#ff3853"/><path d="M55.89,365a7.56,7.56,0,0,0,.16-3.4.42.42,0,0,0-.16-.27c-.16-.1-.36,0-.49.18-1.93,2-3.71,6.58-2.94,9.35.57,2,1.44.88,2-.45A29.56,29.56,0,0,0,55.89,365Z" fill="#422d62"/><path d="M56.92,375.77A9.84,9.84,0,0,1,59,373.38a10,10,0,0,0,2.38-3.88,15,15,0,0,1-.8,5.65A5.74,5.74,0,0,1,58,378.07c-.42.22-1.29.66-1.57.18S56.69,376.24,56.92,375.77Z" fill="#422d62"/><path d="M48.17,373.88c1.49-2.31,2.23-6.86,0-9a1.56,1.56,0,0,0-2.54.2c-.57,1.17-.16,3.22.15,4.41a10.24,10.24,0,0,0,1,2.43C46.81,372.1,48.15,373.9,48.17,373.88Z" fill="#422d62"/><path d="M341.5,369c.12,1.08,1.41,1.37,1.86,1.38a1.46,1.46,0,0,0,1.21-.51,1.69,1.69,0,0,0,.3-.86A1.71,1.71,0,1,0,341.5,369Z" fill="#ff3853"/><path d="M361.33,377.33a1.13,1.13,0,0,1-1.77.17,1.4,1.4,0,0,1-.07-1.43,1,1,0,0,1,.42-.5C361.18,374.94,361.67,376.72,361.33,377.33Z" fill="#ff3853"/><path d="M362.34,396.37a1.39,1.39,0,0,0,1.27,2,1.34,1.34,0,0,0,1.24-1.31A1.38,1.38,0,0,0,362.34,396.37Z" fill="#ff3853"/><path d="M379.36,380.44a1.17,1.17,0,0,1,.05,1.25,1.44,1.44,0,0,1-.9.55,1.87,1.87,0,0,1-1.2-.07,1.1,1.1,0,0,1-.67-.94,1.26,1.26,0,0,1,.24-.7,2,2,0,0,1,.7-.65A1.41,1.41,0,0,1,379.36,380.44Z" fill="#ff3853"/><path d="M377.33,358.59c-1.1,1.15-.51,2.56.32,2.67a2,2,0,0,0,1.51-.19c.55-.44.45-1.28.3-2A1.19,1.19,0,0,0,377.33,358.59Z" fill="#ff3853"/><path d="M362.12,354.76c-.6.86-.16,1.63.23,1.74a.73.73,0,0,0,.67-.2,1.32,1.32,0,0,0,.34-.64,1.44,1.44,0,0,0-.05-.79A.69.69,0,0,0,362.12,354.76Z" fill="#ff3853"/><path d="M341.46,382.82a1,1,0,0,1-.63,1.13,1.3,1.3,0,0,1-1.06,0,1.1,1.1,0,0,1-.63-.84,1.06,1.06,0,0,1,.4-.92C340.42,381.46,341.34,382.42,341.46,382.82Z" fill="#ff3853"/><path d="M352.75,403.77l-.46-2.19c-.71-3.43-1.41-7.1-.06-10.33a6.76,6.76,0,0,1,1.95-2.7c.69-.55,1.81-.88,2.36-.2a1.92,1.92,0,0,1,.31,1.19c.15,5.56-2,10.9-4.13,16" fill="#00aff9"/><path d="M367.91,403.11c.74-.57,1.87-1.07,2.51-.4a1.66,1.66,0,0,1,.36,1c.19,2.51-1.56,4.73-3.29,6.56q-1.93,2-4,3.95c-.88.81-2.2,2.61-3.25,1.13-1.61-2.25,2.18-6.62,3.54-8.27A25.73,25.73,0,0,1,367.91,403.11Z" fill="#00aff9"/><path d="M365.89,383.8a5.58,5.58,0,0,1,1.62-3.1,1.2,1.2,0,0,1,1.09-.35c.52.17.66.84.65,1.39a10,10,0,0,1-2.33,5.85c-.78,1-1.29,1.39-1.36-.16A13.68,13.68,0,0,1,365.89,383.8Z" fill="#00aff9"/><path d="M35.79,372.4c-4.13.17-8.17,0-7.85-2.34s3.78-.45,3.78-.45-3.56-3.61-.48-4.06,4.54,6.27,4.54,6.27,3.85.72,1.28-2.5.48-4.46,2.21-3.15.43,3.89.43,3.89,1-4.18,3.1-3S40,370.8,40,370.8l3,4.51-7.19-2.62" fill="#422d62"/><path d="M-3.11,425.48c-1.65-2.61-.9-11.72,3.69-13.84s4.33,10.41,4.33,10.41.42-7.09,4-7.09c3.07,0,1.93,7.72,1.93,7.72s2.82-7.84,5.69-7.12,1.41,4,2.86,3.79,1.19-5.6,0-8.14c-1.31-2.8,1-4.71,2.19-2.93,2,3,1.24,7.38,1.24,7.38S26,406.91,28.62,408s-4.51,10.64-4.51,10.64,4.21-5.16,8.08-3.85a5.4,5.4,0,0,1,2.56,8.63s-9.2-4.6-13.7,1.26c0,0-3.39-5.29-8.74-.81C7.3,428-1.46,428.1-3.11,425.48Z" fill="#c0efff"/><path d="M54.89,370.35a3.22,3.22,0,0,1,.93,3c-.58,2.46-2.4,2.25-2.94,2.19a3.1,3.1,0,0,1-1.9-5.08C52.54,368.5,54.28,369.81,54.89,370.35Z" fill="#ff3853"/><path d="M57.86,366.29c-.83,2.08.46,3.33,1.63,3.25s1.78-.53,1.89-1.6c.08-.8,0-2.08-.76-2.57A2,2,0,0,0,57.86,366.29Z" fill="#ff3853"/><path d="M47.33,374.74c.5.7,1.09,1.86,2,1.56s-.06-1.87-.88-4.24c-.27-.79-.66-2.8-1.39-3.24C44.52,367.33,46.88,374.11,47.33,374.74Z" fill="#ff3853"/><path d="M198.33,319.78c-.09-1.9,1.62-3.33,2.77-4.84,2.79-3.66,5.31-9.63,5.18-14.23-.35-11.66-11.06-14.86-11.06-14.86s1.65-15.92-16.22-18.68c-10.93-1.69-19.87,2.9-24.45,8.65-11.46.5-16.37,3.66-21.12,9.84,7-6.25,19.81-10.13,29.27-1.38,2.17-6,6.83-8.23,13.81-7.18,9.52,1.43,17.78,14.13,7.61,26.3-8.61,10.3-10.69,10.82-11.68,14.76,9.75-8.44,27.21,4.64,21.8,19.44-2.71,7.41-11.28,17.19-12.41,18.64-4.88,6.27-2.84,13.87,5.52,10.41,1.88-7.93,7-11.61,9.1-13.33a19.17,19.17,0,0,0,7.52-14.11,27,27,0,0,0-4.31-16.42A6.42,6.42,0,0,1,198.33,319.78Z" fill="#00aff9"/><path d="M716.71,394.21a15.91,15.91,0,1,0,15.91,15.91A15.91,15.91,0,0,0,716.71,394.21Zm0,28.64a12.74,12.74,0,1,1,12.74-12.74A12.74,12.74,0,0,1,716.71,422.85Z" fill="#0062bd"/><path d="M716.67,410.91c1.3,0,1.47,0,3.11-6.51,1.52-6,1.36-12,3.24-17.9a3.53,3.53,0,0,1,1.21-2c1.1-.7,2.53,0,3.65.65,5.93,3.53,16.48,10.9,22.94,13.32a9.54,9.54,0,0,0,3.61.82,1.4,1.4,0,0,0,.9-.27c.24-.22,5.47,2.58,5.54,2.26.52-5,3.77-17.19,3.77-19.55,0-1.38-4.39-1.33-5.49-1.32l-10.62.09a2.31,2.31,0,0,0-.55,0c-1,.25-1.17,1.67-.59,2.49a4.93,4.93,0,0,0,2.56,1.49,3.27,3.27,0,0,1,2.9,3.69q.06,2.66-.09,5.32c0,.68-.25,1.55-.93,1.63a1.51,1.51,0,0,1-.79-.2c-6.54-3-17.38-10.33-23.92-13.31a5.72,5.72,0,0,1-1.58-.93c-1.18-1.1-1.22-2.92-1.18-4.53a3.68,3.68,0,0,1,.62-2.37c.91-1,9.35.3,12.91.3s4.5.52,4.5-1.26c0-.85.19-.87-2.9-1-3.63-.13-10.24-.69-14.5-1.3,0-1.88,3-1.64,5.48-1.64,2,0,2.82-.13,2.82-.87s-1.13-.87-3.16-.87a43.73,43.73,0,0,0-4.41.22,11.19,11.19,0,0,0-2.65.6c-2.67,1-2,2.57-1.71,4.75.37,2.66-.67,5.95-1.25,8.53-.73,3.31-2,12.27-2.88,19.49C716.62,406.3,715.9,410.91,716.67,410.91Z" fill="#ff3853"/><path d="M705.74,375.48a1.14,1.14,0,0,0-1.52,1.16q-.93,5.83-1.36,11.73a2.76,2.76,0,0,0,.11,1.29,2.5,2.5,0,0,0,1.57,1.18,20.91,20.91,0,0,0,3.3.8,143,143,0,0,0,17.86,2.1,2.18,2.18,0,0,0,2.61-2,47.66,47.66,0,0,0,2.23-11.1,3.11,3.11,0,0,0-.52-2.45,3.2,3.2,0,0,0-2.16-.69c-3.68-.24-7.37-.44-11.05-.63S709.45,375.48,705.74,375.48Z" fill="#c0efff"/><path d="M792.59,426s-33.39-1-40.24-1-21.86-10.14-8.48-24.93c3.54-3.91,1.8-13.62,9.51-15.16s7.71,7.1,7.71,7.1.89-13.71,6.68-16.61c9.77-4.88,14.91,5.65,15.68,1.54s4.37-11.82,14.65-10.8S813,395.59,813,395.59Z" fill="#0062bd"/><rect x="1001.03" y="314.23" width="6" height="125.88" fill="#422d62"/><path d="M1003.12,374.12c-7.9,0-14.29-2.4-19-7.12-8-8-8-19.67-8-20.17l6,0h0c0,.87.26,21.27,21,21.27,6.26,0,11.18-1.79,14.62-5.31,5.92-6.07,5.76-15.49,5.76-15.58l6-.17c0,.49.27,12-7.42,19.9C1017.47,371.71,1011.09,374.12,1003.12,374.12Z" fill="#422d62"/><path d="M969.83,345.89a3.67,3.67,0,0,0,1.66,1.53c5.61.74,11.62,1.42,16.65-1.39a2.77,2.77,0,0,0,1.15-1,3.43,3.43,0,0,0,.32-1.1c1.56-9.22,3.77-18,5.33-27.22-5.14,0-10.39-4-15.5-4.62a19.62,19.62,0,0,0-10.35,2.07c-1.32.59-1.84,0-2.82,1.17-1.2,1.41-1.44.09-2.93,2.16,1.7,7.43,4.12,18,6,26.06Z" fill="#b9eefd"/><path d="M971.85,306.19c2-.93,6.31-2.54,8-2.54,1.44,0,8.41,1.82,10.95,3.51,1.84,1.22,4.39,9.26,4.14,9.54-.88.17-7.56-.93-15.15-1.18-5.94.32-16.13,2.43-16.44,2s2.65-5.84,3.43-7.12A11.19,11.19,0,0,1,971.85,306.19Z" fill="#422d62"/><path d="M1038.86,345.89a2.26,2.26,0,0,1-.45,1.06,1.93,1.93,0,0,1-1.21.46c-5.61.74-11.62,1.42-16.65-1.39a2.77,2.77,0,0,1-1.15-1,3.43,3.43,0,0,1-.32-1.1c-1.56-9.22-3.77-18-5.33-27.22,5.14,0,10.39-4,15.5-4.62a19.62,19.62,0,0,1,10.35,2.07c1.32.59,1.84,0,2.82,1.17,1.2,1.41,1.44.09,2.93,2.16C1043.49,325.67,1040.74,337.7,1038.86,345.89Z" fill="#b9eefd"/><path d="M1036.85,306.19c-2-.93-6.31-2.54-8-2.54-1.44,0-8.41,1.82-10.95,3.51-1.84,1.22-4.39,9.26-4.14,9.54.88.17,7.56-.93,15.15-1.18,5.94.32,16.13,2.43,16.44,2s-2.65-5.84-3.43-7.12A11.19,11.19,0,0,0,1036.85,306.19Z" fill="#422d62"/><path d="M1020.25,286.51c-1-1.14-3.78-1.94-5.17-2.53a28.4,28.4,0,0,0-21.28,0c-1.39.59-4.14,1.39-5.17,2.53-1.26,1.4-.45,2.6,0,4.58l5.92,24.32a2.17,2.17,0,0,0,.47,1.05,2.11,2.11,0,0,0,1.28.46,66.37,66.37,0,0,0,7.94.64h.31a66.37,66.37,0,0,0,7.94-.64,2.11,2.11,0,0,0,1.28-.46,2.17,2.17,0,0,0,.47-1.05l5.92-24.32C1020.7,289.11,1021.51,287.91,1020.25,286.51Z" fill="#b9eefd"/><path d="M1020.8,287.45c.34-.65-.12-1.16-.33-1.73-.27-.73-6.08-10.61-6.41-11-.11-.14-16.42-.19-17.39.07-2.33.62-3.49,3.22-4.79,5.08a40.64,40.64,0,0,0-3.62,6.61c-.25.56-.72,1.05,1.13,1.05l18.7.07S1020.73,287.6,1020.8,287.45Z" fill="#422d62"/><rect x="296.74" y="331.88" width="3" height="108.24" fill="#422d62"/><path d="M276.83,359.92s-.09,20.88,20.63,20.88,20.1-20.61,20.1-20.61" fill="none" stroke="#422d62" stroke-miterlimit="10" stroke-width="6"/><path d="M268.83,359.1a1.94,1.94,0,0,0,.38.92,1.66,1.66,0,0,0,1,.4c4.83.64,10,1.22,14.31-1.19a2.38,2.38,0,0,0,1-.86,3,3,0,0,0,.27-.95c1.34-7.93,3.24-15.48,4.58-23.4-4.42,0-8.94-3.43-13.33-4a16.87,16.87,0,0,0-8.9,1.78c-1.14.51-1.58,0-2.42,1-1,1.22-1.24.08-2.52,1.85C264.86,341.71,267.22,352.06,268.83,359.1Z" fill="#b9eefd"/><path d="M270.57,325c1.72-.8,5.43-2.18,6.87-2.18,1.24,0,7.23,1.57,9.41,3,1.58,1,3.77,8,3.56,8.2-.75.15-6.5-.8-13-1-5.11.28-13.87,2.09-14.14,1.68s2.28-5,2.95-6.12A9.62,9.62,0,0,1,270.57,325Z" fill="#422d62"/><path d="M328.18,359.1a1.94,1.94,0,0,1-.38.92,1.66,1.66,0,0,1-1,.4c-4.83.64-10,1.22-14.31-1.19a2.38,2.38,0,0,1-1-.86,3,3,0,0,1-.27-.95c-1.34-7.93-3.24-15.48-4.58-23.4,4.42,0,8.94-3.43,13.33-4a16.87,16.87,0,0,1,8.9,1.78c1.14.51,1.58,0,2.42,1,1,1.22,1.24.08,2.52,1.85C332.16,341.71,329.8,352.06,328.18,359.1Z" fill="#b9eefd"/><path d="M326.45,325c-1.72-.8-5.43-2.18-6.87-2.18-1.24,0-7.23,1.57-9.41,3-1.58,1-3.77,8-3.56,8.2.75.15,6.14-.79,12.67-1,5.16.62,14.23,2.07,14.49,1.67s-2.28-5-2.95-6.12A9.62,9.62,0,0,0,326.45,325Z" fill="#422d62"/><path d="M312.18,308c-.88-1-3.25-1.67-4.45-2.17a24.42,24.42,0,0,0-18.29,0c-1.2.51-3.56,1.19-4.45,2.17-1.08,1.2-.38,2.24,0,3.94l5.09,20.91a1.87,1.87,0,0,0,.4.91,1.81,1.81,0,0,0,1.1.4,57.06,57.06,0,0,0,6.83.55l.1-.1s14.46-25,14.06-25.94A2.35,2.35,0,0,0,312.18,308Z" fill="#b9eefd"/><path d="M312.76,308.95c.29-.56-.21-1.09-.39-1.58s-5.23-9.13-5.51-9.5c-.09-.12-14.12-.16-14.95.06-2,.53-3,2.77-4.12,4.36a34.94,34.94,0,0,0-3.11,5.69c-.21.48-.62.91,1,.91l16.08.06S312.69,309.07,312.76,308.95Z" fill="#422d62"/><rect x="668.01" y="320.47" width="4" height="107.68" fill="#422d62"/><path d="M669.23,371.13c-6.6,0-11.94-2-15.85-5.93-6.64-6.67-6.67-16.44-6.67-16.85l4,0h0a24.16,24.16,0,0,0,2.38,9.61c3,6.07,8.47,9.15,16.14,9.15,5.53,0,9.89-1.59,12.94-4.74,5.25-5.41,5.06-13.63,5.06-13.71l4-.12c0,.41.22,10-6.19,16.61C681.21,369.12,675.89,371.13,669.23,371.13Z" fill="#422d62"/><path d="M691.24,349.4a15.06,15.06,0,0,1-7.09-1.74,2.37,2.37,0,0,1-1-.85,2.93,2.93,0,0,1-.27-.94c-1.34-7.89-3.22-15.4-4.56-23.28,4.4,0,8.89-3.41,13.26-3.95a16.78,16.78,0,0,1,8.85,1.77c1.13.51,1.57,0,2.41,1,1,1.21,1.23.08,2.51,1.84C703.76,330.25,693.53,348.79,691.24,349.4Z" fill="#b9eefd"/><path d="M691.25,313.43c-1.24,0-10.59,2.51-11.18,3.83a21.43,21.43,0,0,0-1.73,5.32,63,63,0,0,0,12.92,1c5.08.28,13.85.32,14.11-.08s-2.27-5.24-2.93-6.33C701.42,315.49,692.69,313.43,691.25,313.43Z" fill="#0062bd"/><path d="M683.89,296.75c-.88-1-3.23-1.66-4.42-2.16a24.3,24.3,0,0,0-18.2,0c-1.19.5-3.54,1.18-4.42,2.16-1.08,1.2-.38,2.23,0,3.92l5.07,20.8a1.86,1.86,0,0,0,.4.9,1.8,1.8,0,0,0,1.09.39,56.77,56.77,0,0,0,6.8.54h0s.14-.1.18-.1,7.61-1.68,7.69-2C679.8,314.28,685,298,683.89,296.75Z" fill="#b9eefd"/><path d="M684.36,297.56c.29-.56-.11-1-.28-1.48s-5.2-9.08-5.48-9.45c-.09-.12-14-.16-14.87.06-2,.53-3,2.75-4.1,4.34a34.76,34.76,0,0,0-3.09,5.66c-.21.48-.61.9,1,.9l16,.06S684.29,297.68,684.36,297.56Z" fill="#0062bd"/><path d="M670.25,323.32V297.64l14.11-.08-5.57,23.92s.12,1.24-2.55,1.42Z" fill="#fff"/><path d="M691.22,349.41l0-25.84,14.11-.08-5.57,23.92s-.3,1.33-2.56,1.52C694.57,349.16,691.22,349.41,691.22,349.41Z" fill="#fff"/><polygon points="298.24 308.95 298.45 334.75 306.84 334.04 312.76 308.95 298.24 308.95" fill="#fff"/><polygon points="319.28 333 319.28 360.97 327.91 361.53 333.8 334.76 319.28 333" fill="#fff"/><path d="M979.78,315.53l-.59,32.54a70.89,70.89,0,0,1-7.7-.65c-2.12-.45-1.75-1.93-3.3-8.69C973.12,328.76,979.78,315.53,979.78,315.53Z" fill="#fff"/><path d="M1004.58,287.56v30a47.6,47.6,0,0,1-8.24-.64c-2.54-.65-1.5-.51-5.93-18.7-1.45-5.95-2.69-9.13-2.44-11.09Z" fill="#fff"/><path d="M559.2,403.29l.07,7.1a5.73,5.73,0,0,0,.89,3.69,3.42,3.42,0,0,0,1.47,1.09c2,.69,3.61-.58,4.51-.35,0,1.34,1.51,2.09,2.22,2.08,6.41-.11,13.19-1,13.31-1.64a2.35,2.35,0,0,0-1.09-2.38c-1.25-.74-3-.2-4.19-1s-1.43-2.43-1.45-3.88q0-2.44.15-4.88a3.37,3.37,0,0,0-.49-2.59,3.23,3.23,0,0,0-2.28-.73q-3.73-.19-7.47-.23a11.88,11.88,0,0,0-2.63.18C560.09,400.24,559.18,401.17,559.2,403.29Z" fill="#0062bd"/><path d="M571.31,335.16c.74,1.37.54,2.05,1.75,3,.47.38,1.32.45,1.36.79a1.49,1.49,0,0,1-.35,1.07,6.35,6.35,0,0,0-.46,2.27,4,4,0,0,1-2.44,3c-2.65,1-2.46,4-3.63,3.65-1.45-.47-1.38-4.72-1.58-6.24-.23-1.71-.15-3.62,1-4.92a7.38,7.38,0,0,1,3.2-1.81C570.16,335.56,570.9,335.24,571.31,335.16Z" fill="#c0efff"/><path d="M922.24,383.95H833.31s-6.77,2.15-6.77,17S826,421,826,421l61.19,1.41,35-3.18Z" fill="#6a6a6a"/><path d="M922.24,383.95c-7.19,0-14.94,12.3-14.94,32.22s17.76,2.52,17.76,2.52V389.86C925.07,386,925.09,383.95,922.24,383.95Z" fill="#0062bd"/><path d="M820.92,407c20.36.8,44.19,2.67,44.19,2.67L874.66,425l-48.64,4Z" fill="#00aff9"/><path d="M866.52,378.37c-7-.15-13.21-.79-16.38,8.2a83.5,83.5,0,0,0-3.95,18.27l5.59,8.92,20.89,6.16s9.77-9,15.58-13-2.05-23-6.94-25.84S866.52,378.37,866.52,378.37Z" fill="#0062bd"/><path d="M858.49,367.79c0,.64,0,1.26,0,1.86,0,2.93.55,5.23,2,6.72a29,29,0,0,1,3.47,4.56,3.82,3.82,0,0,0,2.92.86c1.65-.36,3.48-.6,3.71-1.62v-6.25l.95-4.8L868,365.58l-7.2-1.77S858.61,364.57,858.49,367.79Z" fill="#422d62"/><path d="M819.29,370.68c2.29,2.62,2.19,9.3-1.25,11.35-2,1.2-2,2.95-2,4.79,0,3.14-6.4-1.48-6.4-1.48l-1.72-9.92Z" fill="#fff"/><path d="M858.49,367.79s-.2-5.65,4.45-6.83,10-.14,10.14,7.85c.11,5.09-2.53,7.21-2.53,7.21s-1.95-.48-.46-3.48c1.83-3.7-.15-3.94-1.21-2.49s-1.07-3.53-1.91-3.92-2.92.9-4.69.66a3,3,0,0,1-2-1.27A2.51,2.51,0,0,0,858.49,367.79Z" fill="#00b0fc"/><path d="M840,396.84c7.35,0,21.68.85,21.68.85l-2,14.45H866l-6.26,6.51L839.22,418s-2-10.76-3-15.22S836,396.82,840,396.84Z" fill="#fff"/><path d="M810.43,384.53c8,1.34,16.44,1.69,16.15,14.15s.22,18.62,12.64,19.33v4s-10.73-.57-13.21,3.33H807.39S795,405.55,796.28,394.43,807.24,384,810.43,384.53Z" fill="#ff3853"/><path d="M796.2,396.84c16.65.78,18.68,2.06,18.56,15.83S826,425.37,826,425.37v10.34s-21.43,10-33.18,1.34c-8.24-6-8.53-22.76-8.53-32.22C784.3,398.34,789.41,396.52,796.2,396.84Z" fill="#c0efff"/><polygon points="902.31 428.07 893.31 428.07 893.31 335.5 902.07 344.38 902.31 428.07" fill="#422d62"/><path d="M753.38,298.91l171.7.51s-13.09,9.75-15.92,13.11c-6.84,8.11-7.09,18.4-7.09,31.86-23.14,0-132.36-2.76-146.71-2.76-20.16,0-24.77.43-24.77-11.56C730.58,310.06,753.38,298.91,753.38,298.91Z" fill="#c0efff"/><path d="M597,348.87a86.58,86.58,0,0,1,10,.2,6.47,6.47,0,0,1,2.87.82c3.39,2.15,5.13,10.3,5.45,11.8a33.28,33.28,0,0,0-.71,7.37c-.15.92-.8,1.14-1.74,1.37-3.37.81-9.77,1.2-11.76,3.18a8.89,8.89,0,0,1-2.75.33,1.87,1.87,0,0,1-1.71-1.92,3,3,0,0,1,1.47-2.33c.6-.38,2.13-1.44,2.13-1.44s-3.41-.17-6.27-.25c-2.61-.64-2.53-5-2.56-6-.14-3.71.06-4.26.06-8A5.31,5.31,0,0,1,597,348.87Z" fill="#422d62"/><path d="M594.32,342c-.57.69-1.58,1.79-.64,2.61.59.51.82.44,1.14,1,.52.84.51,2,1.46,2.51,1.5.8.5,1.92,1.85,2.76,2,1.25,4.32-.79,5.37-1.81.33-.32.21-.55.38-1a4.09,4.09,0,0,0,.22-1.39,10.54,10.54,0,0,0-.14-2.75,8.51,8.51,0,0,0-1.5-3,6.46,6.46,0,0,0-2.42-2.11,5.07,5.07,0,0,0-2.34-.84C595.88,338,595.3,340.77,594.32,342Z" fill="#00aff9"/><path d="M568.16,333.29a7.31,7.31,0,0,0-5.36.64,24.19,24.19,0,0,0-2.25,1.61s-3.71-3.06-5.65.48c-2.18,4,1.52,7.07,4,6,.94-.41.62,2.2.89,3.2a5.17,5.17,0,0,0,5.3,3.55c2.3-.2,3.52-3.09,3.22-8.37-.05-.93,1.92-1.17,2.25-2a7.68,7.68,0,0,0,.88-2.41C571.5,334.33,569.41,333.61,568.16,333.29Z" fill="#ff3853"/><path d="M555.73,354.19c1.95,2.74,4.31.31,4.31.31s-.64,1.93-.87,2.52a144.89,144.89,0,0,0-5.27,17.45l-7.05,27.46a3.34,3.34,0,0,0,.08,2.69,3.24,3.24,0,0,0,1.83,1.07,68.82,68.82,0,0,0,32,2,.78.78,0,0,0,.78-1.08c-1.39-10.46-4.94-35.81-3.95-37.05,3.92.26,6,.28,8.48.34,0-1.8-2-2.48-3.51-3.24-2-1-4-1.31-4.59-2.06-3.2-4.1-3.25-14.19-9-16.57-2.06-.85-6.91-3.43-9.16-2.85A6.11,6.11,0,0,0,555.73,354.19Z" fill="#422d62"/><path d="M742.63,308.44c8-6.94,15.44-5.94,28-5.94,23.45,0,93.19.61,93.19.61s-97,17.65-116.29,17.52c-5.05,0-8.15-1.27-9.66-3C735.69,315.17,739.59,311.07,742.63,308.44Z" fill="#fff"/><path d="M67.63,389.3a71.52,71.52,0,0,0-3.21-7.38c-1.24.34-2.23,1.4-3.72,1.55a42.28,42.28,0,0,1-8.4.24s-1.43,4.65,5.8,7.53c2.21.88,7.81.46,9.9-1.06C67.87,389.89,67.75,389.6,67.63,389.3Z" fill="#fff"/><path d="M102,372.83C97.29,363,88,365.12,88,365.12c-9,.67-9.81,12.63-21.31,17a70,70,0,0,1,2.89,6.81c3.62-3.1,6.28-6.89,7.48-7.46a6.17,6.17,0,0,1,3.81-.8l.16,53s-9.92,1.87-9.73,5.43,9.27,1.72,15.81.57,3.74-26.71,5.69-27,.79,18.93.79,24.26c4.94,0,9.48-2.59,9.65-6.84C103.84,415.49,106.64,382.65,102,372.83Z" fill="#422d62"/><path d="M49.79,397.53l19.63-1.3v19.66l-20.48.36Z" fill="#0062bd"/><polygon points="49.79 397.53 69.42 415.89 79.24 411.8 79.59 389.35 49.79 397.53" fill="#0062bd"/><path d="M77.39,346.93a28.91,28.91,0,0,0-2.9,5.72c-.69,1.61-.22,2.31.91,3.58s1.05,5.29,6.77,4.79S79.29,344.44,77.39,346.93Z" fill="#c0efff"/><path d="M79.59,401.05h25.06s4.5-26.44-5.36-34.82-15.7,1.12-15.7,1.12-4.21-2.37-10.31,6-11.12,9.38-11.12,9.38l4.53,8.69s10.59-2.78,12.9-7.52Z" fill="#c0efff"/><path d="M77.13,347.29a9.26,9.26,0,0,1,9.55-4c6.52,1.16,6.95,5.26,8.54,9.59s10.48,13.71,2.1,19.57c-11.29,7.9-22.23-2.43-16.44-13.24Z" fill="#0062bd"/><path d="M63.85,382.14c-.27-.1,4.83-5,9.21,2a14.39,14.39,0,0,1,2.09,7.07L66.23,393S68,383.62,63.85,382.14Z" fill="#0062bd"/><path d="M601.32,340.28s-.83,2.86.51,3,2.61,2.34,2,4.76c0,0,3.38-4,2.92-7.1S601.32,340.28,601.32,340.28Z" fill="#422d62"/><path d="M599.6,338.86a4.81,4.81,0,0,1,1.71,1.43c.84.82,4.73,4.11,5.16,3.22.59-1.24,1.19-5-.75-7.12a6.32,6.32,0,0,0-5.8-1.59c-2.19.36-3.64,1.36-5.5,1-1-.2-2.44-.17-2.85,1.67-.34,1.5,3.28,3.7,3.5,3.25A3.71,3.71,0,0,1,599.6,338.86Z" fill="#fff"/><path d="M819.29,370.68s-6.54-7.08-12.7,1.91c-4.62,6.74-2.63,12.18.84,14.31,1.16.71,7,2.41,8.25,2.31,0,0-2-6.13-.33-8.8C817.39,377.08,820.93,378.79,819.29,370.68Z" fill="#00aff9"/><path d="M667.79,327.61a56.62,56.62,0,0,1,2.11,25.3l-14.53,1.59,2.71-26Z" fill="#422d62"/><path d="M606.16,426.55c-7,15.91-16.8,32.78-11.28,38.42s15.78,12.7,19,14.5,9.69,0,9.69,0,7-29.38,6.85-34Z" fill="#ff3853"/><path d="M474.91,417s.71-11.94,32.9-11.65c32.42.29,44.73,14.68,47.69,54.35s-58.85,21.79-58.85,21.79-48.2-9-48.13-9.89S450.62,421.54,474.91,417Z" fill="#ff3853"/><path d="M527.18,441.29c5.5.31,10.93-1.1,16.37-2a7.46,7.46,0,0,1,4.4.19c1.27.6,2.07,1.71,3.36,2.3,1.48.69,5.09.49,7.09,4.22s-.76,11.93-4.43,13.21A36.05,36.05,0,0,1,542.23,461a79.52,79.52,0,0,1-14-1.71q-7.1-1.26-14.1-3a1.89,1.89,0,0,1-1.22-.68,1.6,1.6,0,0,1-.17-.9c.11-2.87,2.95-3.88,4.89-5.51a36.14,36.14,0,0,0,5.62-5.92,6.16,6.16,0,0,1,1.35-1.46A3.47,3.47,0,0,1,527.18,441.29Z" fill="#422d62"/><path d="M165.36,379.77c-.43-3.78-13.84-15.81-13.73-15.5-5.46-1.2-11.58,11.59-17.24,13.05a23.47,23.47,0,0,0-3.56,1.2c-.12-.6-.25-1.2-.41-1.79C129,371.52,140.63,362,140.9,362.38c-7.13,1.32-9.13-19.5-16.34-11.51-6.24,6.91-7.24,25.85,11,47.21,5.7,6.69,5.15,18.06,6.87,22.39,8.87,22.31-7.4.72,15.55,1.72,2.21.1,2.12-4.23,2.78-6.08a6.62,6.62,0,0,0,1.17.26c2.14.26,4.36-.63,6.33-1.62,1.47-.73,4.85-1.26,4.07-2.62C161.71,393.85,166.71,391.54,165.36,379.77Z" fill="#00aff9"/><path d="M464.5,327.54s-3.37,6.68-3.07,13.08,2.8,7.61-4,7.61-1.5,4.9-9.81,9-10.51,1.53-13.51,7.17-10.91-1.67-10.91-1.67l-1.4-32.82,29.62-14.13Z" fill="#422d62"/><path d="M490.06,356.26s-5.37,2.89-8.43,3.59-.39,5-.68,6.9-4.25,9.79,2.86,16.71S490.06,356.26,490.06,356.26Z" fill="#422d62"/><path d="M370.6,428.9s6.11-57,29.12-60.76,41.88-7.91,57.16,1.08,19.1,31.07,21.95,39.39c7.53,22,43.64,27.84,49.49,30s-4.1,20-4.1,20-6.72.1-43.07-13.19c-14.93-5.46-10.87,38.83-10.87,38.83L368.62,472Z" fill="#fff"/><path d="M274.1,357.76S236,368.84,226,379.47,177,437,182.75,499.62l153.8-4.4-4.25-90.63-3.14-14.5s7.76-8.5,3-21.8S298.67,350.55,274.1,357.76Z" fill="#422d62"/><path d="M251,418.32a120.75,120.75,0,0,0,5.62-15.16c3-10.39,9.61-22.79,23.74-26.11,20.69-4.86,28,8,48.84,13,0,0,15.38-4.17,24.42,9.78,6.09,9.39,6.57,13.62,6.57,13.62s15.53,4.54,26.07,29,.88,48,.88,48l-69.28-.88s1.76-9.67,6-34.57-7.66-52.92-25.49-67.09c-5.71-4.54-28.27-10.4-31.6,11a50,50,0,0,1-3,11.41C259.61,420.39,251,418.32,251,418.32Z" fill="#c0efff"/><path d="M250.15,373.07s-42,30.76-42.63,113.67c-.49,68.68,15.31-41.35,28.44-39.38,5.77-23.32,13.94-45.56,15.34-61.59A31.66,31.66,0,0,0,250.15,373.07Z" fill="#0062bd"/><path d="M252.21,448.09c-2.32,0-16.25-.74-16.25-.74s-3-22.43-1.65-36,27.87-24.22,29.78-23.65a73.24,73.24,0,0,0-8.86,21.69c-.7,2.81-1.27,6.25-1.27,6.25s9.3-1.84,11-8.64c1.58-6.29,1.45-6.32,1.45-6.32s2.32.57,3.13,2c3.24,5.69-3.11,23.52-6.75,29.85a92.16,92.16,0,0,0-5.51,12.06A5.31,5.31,0,0,1,252.21,448.09Z" fill="#00aff9"/><path d="M251.3,385.76c2-10.73,15.41-10.25,22.89-12.39,9.24-2.64,2.67-7.15,1.41-22.14s-23.25-46.57-23.25-46.57l-46.89-4S208,323.05,209,329.86c1.2,7.93-2.29,15-.17,17.78,3.58,4.72,5.49,1.33,8,8.92,2,5.8,3.16,11.9,18.57,15.2,3.75.8,6.14,7.17,6.47,14.54S249.7,387.06,251.3,385.76Z" fill="#00aff9"/><path d="M275.6,351.24s-1-15.76,3-29.54c2.7-9.42-4.21-47.46-53.11-34.91S201.2,317.13,213.07,317c6.49-.09,15,5.28,17.74,10.94,2.3,4.69,6.67,5.46,7.6-2.79s12.8-9.49,11,2.8S246.68,352.56,275.6,351.24Z" fill="#422d62"/><path d="M507.6,352c-10.39-1.6-15.91.24-17.69,4.17a6.24,6.24,0,0,0,.13,4.51,22.68,22.68,0,0,0-5.2,16.49c.71,10.36-12,24.83-2.92,37.88,5,7.16,18.85,13.41,30.83,12.72,22.32-1.28,21.65-20.79,17.67-31.62-2.34-6.39-4.7-12.29-4-18.25C527.58,367.13,522.24,354.24,507.6,352Z" fill="#00aff9"/><path d="M398.19,369.79c-13.2-7.83-17.44-18.82,0-37.89,9.53-10.41,10.74-18.44,28.77-28.89s32.35,1.31,38.2,10.19,2.67,15.92-4.89,14.56c-6.25-1.13-10.9-1.77-12.62,1-.36.58-1.31,3.66-2.23,1.85-.62-1.22-1.53-2.48-2.89-2.38-3.4.26-9.15,6.74-4.31,12.39S426.39,386.52,398.19,369.79Z" fill="#00aff9"/><path d="M135.27,427.38c1.27,10.1,27.73,72.24,27.73,72.24L192.53,497l7.58-50.61s-15.44-15-27.4-39.71c-6.59-13.58-22.09-2.65-31.5,3.61C133.25,415.59,134,417.28,135.27,427.38Z" fill="#422d62"/><path d="M133.82,384c3,5.88,3,10,12.34,9.82,4.51-.06,10.57-.35,12.09-3.58.44-.95,1.19-2,.46-3.72-1.9-4.34-4.61-6.37-9-16-3.59-7.78-5.71-12.85-7.67-16.92-1.8-3.74-17.25-5.54-19.47-5.75-2.72-.26-5.07,2.81-4.28,4.62C119.7,355.79,131.18,378.83,133.82,384Z" fill="#6a6a6a"/><path d="M121.79,350.19c4.23,7.88,14,28.42,19.16,37.76,1.91,3.46,19.69,2.48,17.76-1.44-1-2-15-32-17.87-35.67a4.54,4.54,0,0,0-3.08-2.05c-.9-.07-9.33-.83-14.3-.94C120.92,347.78,120.81,348.36,121.79,350.19Z" fill="#eee"/><path d="M629.74,449.36s-11.33,70.27-29.9,87.95h45s6.21-24,8-35.3,6.53-1.29,7.32,6-1.58,33.78-1.58,33.78h42.54s-14.64-83.69-18.2-94.17Z" fill="#fff"/><path d="M641.56,360.49c-11.08,0-15.81,9.78-25.92,34.28s-21.17,36.8,17,61.73,59,5.89,56.58-32.67-2.48-63.34-29.08-63.34Z" fill="#0062bd"/><path d="M667.14,361.17s4.07-1.14,8.69,2.32,4.78,15.26-4.09,35.28-20.29,30.15-20.29,30.15L644.4,425s16.31-19.89,23.48-40.72C674.93,363.76,667.14,361.17,667.14,361.17Z" fill="#ff3853"/><path d="M652.93,366.07c7.2,0,6.85-5.24,6.85-9.53s5.38-5.51,6.07-10,1.37-4.53,2.67-6c.67-.75,1.62-1.89,0-2.93a9.65,9.65,0,0,1-3.35-5.15c-1.19-3.82-4.27-10.93-15.4-3.82s-6.62,21.68-6.62,25.84S641.89,366.07,652.93,366.07Z" fill="#c0efff"/><path d="M668.27,331.44a151.09,151.09,0,0,1-15.09,1.89c-5.38.19.32,21.18-10.06,21.18-11.6,0-16.88-7.21-16.19-13.45s6.8-24,26.59-22C669.8,320.68,668.27,331.44,668.27,331.44Z" fill="#422d62"/><path d="M804.25,449s-5.81-7.55-1.54-14.62c4.53-7.52,12.69-2,12.69-2a13.47,13.47,0,0,1,0-6.65c1.43-4.65,8-5.35,11.67-4.69s6.77,4.08,10.34,5,8.18.46,9.95-2.27c1.54-2.38.41-5.73,2.66-7.68,2.69-2.32,7.33-.57,10.51,1.27,1.72-3.49,3.52-7.1,6.82-9.69s8.51-3.89,12.45-2c2.88-3.31,8.85-3.42,13.49-2.1s8.85,3.72,13.68,4.44,8.36-.74,9.2-4.77c.65-3.09,2.5-8.31,7.16-9.55,5.06-1.35,6.65,1.33,10.73,3.92,4.38-8.7,15.91-4.67,15.91-4.67s30.83-16.86,52.29,3.54a11.2,11.2,0,0,0,5.59,3,28.88,28.88,0,0,0,5,0,16.33,16.33,0,0,1,11.84,5.78c2.77,3.21,4.24,7.05,5.55,10.85,3.64,10.55,25,36.12,18.87,45.84-6.41,10.19-11.07,16.81-24.45,19.65-35.38,7.5-100.69-9.47-137.17-10.61q-26.77-.83-53.55-1.34c-8.93-.17-17.86-.27-26.79-.41-5.22-.08-11,0-12.12-5C792,451.25,804.25,449,804.25,449Z" fill="#422d62"/><path d="M148.1,382.79c-1,.59-1,1.89-.11,2.91a2.86,2.86,0,0,0,3.41.76c1-.59,1-1.89.11-2.91A2.86,2.86,0,0,0,148.1,382.79Z" fill="#00aff9"/><path d="M125.65,349.6l11,.59a3.86,3.86,0,0,1,3.27,1.93l14.82,29.16-15.17-.1-15-30.32C124.25,350.24,124.83,349.56,125.65,349.6Z" fill="#fff"/><path d="M161.38,368.6c-2.93-2.95-7.18-4.52-9.5-5.35a42.56,42.56,0,0,0-6-1.83,1.27,1.27,0,0,0-.74,0,1.4,1.4,0,0,0-.66.94c-.32,1,2.66,6.08,4,7,.87.6,1.8,1.14,2.69,1.73a30.06,30.06,0,0,1,8.11,7.82,1.68,1.68,0,0,0,.79.73c.62.2,3.33,11.06,3.75,10.51C167.67,385,164.31,371.54,161.38,368.6Z" fill="#00aff9"/><path d="M52.3,383.71c1.33-3.66,2.34-6.15,6.87-6.15,3.12,0,4.73,4.54,4.73,4.54s-1.39,1.35-4.73,1.65A42.49,42.49,0,0,1,52.3,383.71Z" fill="#ff3853"/><path d="M121.05,358.33c.94-6.29,7.35-2.87,7.31,4.83,0,0,4.93,5.48,3,15.85-1.89,9.94,7.25,20.27,7.25,20.27Z" fill="#00aff9"/><path d="M597.37,370.35s3.84,1.38,3.78,1.39a1.81,1.81,0,0,1-.3,2.17c-1,.8-1.43,2-2.28,2.72-1.55,1.34-4.59,1.54-3-3A12.4,12.4,0,0,1,597.37,370.35Z" fill="#00aff9"/><path d="M427.53,466.82c-4.8.14-9,3.14-10.07,5.83-.15.35,13.38-1.72,13.47-1.34.19.82,1.24,1,2.08,1.07a222.5,222.5,0,0,0,46.35-2.55,3.5,3.5,0,0,0,1.75-.62,3.41,3.41,0,0,0,.92-1.8c1.43-5.35,5.23-24.95-5.64-22.51C470.94,446.12,452,466.11,427.53,466.82Z" fill="#ff3853"/><path d="M952.37,433.45c6.2,3.14,8.08,1.54,8.16-2.28,0-1.37-3-2.33-3.36-4.16s2.13-4.59,1.7-6.68c-1.46-7.09-2.87-14.82.56-18.45,4.6-4.87,11.08,7.84,14.87,7.57,2.22-.16-1.8-5.31-3.09-10.1-.91-3.37-1.67-8.22,3-10s8.59,2.06,10,4.51a43.6,43.6,0,0,1,3.56,8.33s.59-21.91,10.54-20c6.71,1.29,3.22,14,3.22,14a76.24,76.24,0,0,1,5-8.75c2.5-3.74,6.78-6.17,11.25-4.19,2.81,1.25,4.68,4.64,3.63,9.13a21.13,21.13,0,0,1-4.69,8.44s12.69-11.44,16.14-8.33c5.3,4.78-9.73,23.25-5.41,24.06s4.32-12.7,10.54-14.06,9.19,12.7,2.43,20.27c0,0,7-9.73,13.79-5.41v16.22s-10.38-7.38-42.45-2.9c-19.56,2.74-37.73,15.21-49.34,25a49.68,49.68,0,0,1-15.74,9.12s2.11-2.78,1.77-9.76C948,444.33,948.18,431.33,952.37,433.45Z" fill="#c0efff"/><path d="M815.81,482.45s-.74-26.77,19.2-20.65c0,0,3.36-9.76,17.12-13.09,13.21-3.2,26.4,8.69,26.4,8.69s-5.48-9.78-17.64-18.1-14.27-17.92-11.74-20,13.9,17.23,16.41,16.87S851.11,417.29,860,413.7s10.32,12.29,12.15,17.14a46,46,0,0,0,5.91,10s-6.59-21.84,3.92-23.09c6.28-.75,5.9,9.77,5.9,9.77s1-8.72,8-9.91c0,0-3.65-8.7-2.85-15.78.53-4.7,2.81-11.77,9.6-11.36,4.75.29,6.24,4.83,6.66,8.92,1.19,11.65-9.63,35.54-14.62,42.91-4.56,6.72.7,10.88,4.82,1.82,3.55-7.81,9.37-3.52,9.37-3.52S903.38,427,914,424.81s14,12.88,14,12.88,5.7-6.06,4.69-11.63c0,0-5.16,5.48-9.08-3.65s-2.58-22.19,1.87-23.31,7.08,20.1,7.08,20.1,3.39-24.06,10.52-24.69-4.11,26-3.12,26.43,6.63-8.76,8.9-12.75-.32,13.61-.32,13.61,3.79-13.7,10.56-12.09.49,16.09.49,16.09a14.55,14.55,0,0,1,11.42-4.73c7.29.34,8.28,10,5.44,18.31-6,17.62-31.16,23.08-30.68,39.09Z" fill="#0062bd"/><path d="M825.78,439.35a.89.89,0,0,0,.18,1.15,1,1,0,0,0,1.26-.19C828.06,439.35,826.45,438.41,825.78,439.35Z" fill="#ff3853"/><path d="M828.81,450.45a1.46,1.46,0,0,0,2-.37,1.27,1.27,0,0,0-.24-1.82C828.83,447.2,827.35,449.42,828.81,450.45Z" fill="#ff3853"/><path d="M836.46,434.82a1.5,1.5,0,0,0,0,2.22,1.63,1.63,0,0,0,2.18-.33A1.44,1.44,0,0,0,836.46,434.82Z" fill="#ff3853"/><path d="M828.7,430.59a1.81,1.81,0,0,0-2.14.49,1.41,1.41,0,0,0,.3,2,1.73,1.73,0,0,0,2.18-.33A1.58,1.58,0,0,0,828.7,430.59Z" fill="#ff3853"/><path d="M815.24,450.53a1.59,1.59,0,0,0,2.18-.33,1.55,1.55,0,0,0-.41-1.94A1.45,1.45,0,0,0,815.24,450.53Z" fill="#ff3853"/><path d="M822.62,456.71a1.47,1.47,0,0,0-1.93.43c-.21.3-.57,1.46.3,2a1.74,1.74,0,0,0,2.18-.33A1.48,1.48,0,0,0,822.62,456.71Z" fill="#ff3853"/><path d="M885.36,407.44a1.56,1.56,0,0,0,.3,2,1.74,1.74,0,0,0,2.18-.33C889.05,407.74,886.62,405.94,885.36,407.44Z" fill="#ff3853"/><path d="M842.45,442.3a2.72,2.72,0,0,0-.69,3,1.41,1.41,0,0,0,.55.64,1.63,1.63,0,0,0,1.07.13,3.72,3.72,0,0,0,2.5-1.61,1.76,1.76,0,0,0,.33-.86C846.28,441.84,843.44,441.32,842.45,442.3Z" fill="#ff3853"/><path d="M916.2,409.57a1.49,1.49,0,0,0-.66,1.89,1.39,1.39,0,0,0,1.87.38C918.65,410.89,917.78,408.76,916.2,409.57Z" fill="#ff3853"/><path d="M917.77,415.73a1,1,0,0,0-.63.94c.1.82,1.06.7,1.37.45C919.27,416.54,918.74,415.23,917.77,415.73Z" fill="#ff3853"/><path d="M912.82,417.07a1.85,1.85,0,0,0-2,.69,1.68,1.68,0,0,0,.17,1.83,1.47,1.47,0,0,0,1.76.28A1.57,1.57,0,0,0,912.82,417.07Z" fill="#ff3853"/><path d="M949.51,402.19a1.44,1.44,0,0,0,1.07,1.23c1.31.29,2.58-1.59,1.69-2.66S949.37,400.89,949.51,402.19Z" fill="#ff3853"/><path d="M958.72,393.07a1.14,1.14,0,0,0,.09,1.74,1.33,1.33,0,0,0,1.71-.75,1,1,0,0,0-.31-1.14A1.14,1.14,0,0,0,958.72,393.07Z" fill="#ff3853"/><path d="M964.66,397.63a1.7,1.7,0,0,0-.81,1.3,1,1,0,0,0,.3.8,1,1,0,0,0,.53.18,1.5,1.5,0,0,0,1.25-.72A1,1,0,0,0,964.66,397.63Z" fill="#ff3853"/><path d="M879,410.57a1.1,1.1,0,0,0-.94,1.21,1.38,1.38,0,0,0,2.46.4A1.25,1.25,0,0,0,879,410.57Z" fill="#ff3853"/><path d="M885.06,413.91c-.5.19-1,.63-.9,1.16s.81.85,1.42,1a1.28,1.28,0,0,0,1.65-1A1.46,1.46,0,0,0,885.06,413.91Z" fill="#ff3853"/></g></svg>