<svg width="150" height="149" viewBox="0 0 150 149" version="1.1" xmlns="http://www.w3.org/2000/svg" xmlns:xlink="http://www.w3.org/1999/xlink">
<g id="Canvas" fill="none">
<g id="Group">
<g id="Ellipse">
<ellipse cx="74.617" cy="74.5" rx="74.617" ry="74.5" fill="#3F3161"/>
</g>
<g id="Vector">
<path d="M 26.7745 33.6022C 18.9541 38.7402 3.07721 58.0232 0.251548 64.9689C -2.57412 71.9146 18.8218 88.9481 43.5116 93.4574C 64.2839 97.2512 91.0165 94.0052 108.343 77.8221C 146.263 42.4041 137.359 19.0976 136.536 15.2657C 136.536 15.2657 129.804 30.9097 120.693 30.5447C 111.582 30.1798 108.343 8.08666 97.6459 23.6633C 86.9489 39.2399 94.1197 -6.84144 80.2085 0.879509C 66.2973 8.60046 77.2584 30.8095 63.0833 38.7402C 63.0833 38.7402 34.5949 28.4643 26.7745 33.6022Z" transform="translate(13.9797 54.0807)" fill="#0062BA"/>
<path d="M 0.251548 64.9689C 3.07721 58.0232 18.9541 38.7402 26.7745 33.6022C 34.5949 28.4643 63.0833 38.7402 63.0833 38.7402C 77.2584 30.8095 66.2973 8.60045 80.2085 0.879509C 94.1197 -6.84144 86.9489 39.2399 97.6459 23.6633C 108.343 8.08666 111.582 30.1798 120.693 30.5447C 129.804 30.9097 136.536 15.2657 136.536 15.2657C 137.359 19.0976 146.263 42.4041 108.343 77.8221C 91.0165 94.0052 64.2839 97.2512 43.5116 93.4574C 18.8218 88.9481 -2.57412 71.9146 0.251548 64.9689Z" stroke-width="2.44454" transform="translate(13.9797 54.0807)" stroke="#0062BA"/>
</g>
</g>
</g>
</svg>
