<svg id="Layer_2" data-name="Layer 2" xmlns="http://www.w3.org/2000/svg" xmlns:xlink="http://www.w3.org/1999/xlink" viewBox="0 0 331.84 331.84"><defs><clipPath id="clip-path"><circle cx="165.92" cy="165.92" r="165.92" fill="none"/></clipPath><clipPath id="clip-path-2"><rect x="-596.62" y="-133.95" width="1024" height="467.2" fill="none"/></clipPath></defs><title>Artboard 1</title><g clip-path="url(#clip-path)"><g clip-path="url(#clip-path-2)"><polygon points="-625.95 -178.45 -625.95 73.66 -549.95 73.66 429.81 73.66 429.81 -178.45 -523.95 -178.45 -625.95 -178.45" fill="#eee"/><polygon points="-628.81 104.54 -628.81 350.53 -452.81 350.53 429.81 350.53 426.13 104.54 222 118.35 212.16 120.52 122.91 125.05 -81.33 104.54 -437.48 104.54 -628.81 104.54" fill="#eee"/><path d="M-614-116.31s-23.39-34.29,227.36,55.8c66,23.72,137.95,73.85,289.71,31.73C-26.69-48.26,7.6-21.24,58.14-7.19s109.6,45,158,24.83c48.22-20.12,153.15-89,193.71-43.45S421,100.53,421,100.53L-553.29,80.92l-64.33,13.29Z" fill="#fff"/><path d="M18.51,139.11c-32.12-27,79.67-25,119.44-14.73,49.76,12.85,105.15,26.41,116.67,45.34,7.91,13-11.14,55-109.22,47.67-17.9-1.34-35.09-25.63-51.38-42.06C65,146,35.87,153.7,18.51,139.11Z" fill="#c0efff"/><path d="M202.55,31c9-.72,17.76-2.77,26.74-3.24a.37.37,0,0,1,.21-.31c4-1.75,6.57-5.27,10.08-7.73,3-2.13,7-2.4,10.62-2.4,6.16,0,12.77.73,16.81,5.93,3.87,5,4.16,11.83,2.64,17.74-1.82,7-6.37,12.93-11.83,17.57-1.17,1-2.4,1.94-3.65,2.84l221.3,26.26-18.26-113S397.38-60,332.8-60c-40.36,0-77.36,30.3-105.21,53-16.71,13.63-28.24,24.3-58.15,24.3-6,0,9.62,1,20.9,4.65,4.29,1.39,5.22,6.09,8.13,7l4.09,1.24Z" fill="#eee"/><path d="M239.32,59.64l13.4,1.59c1.42-1,2.81-2,4.14-3.12,5.28-4.42-7.05-39.64-13.17-39.09-4,.36-3.46,1.14-6.38,3.84a29.72,29.72,0,0,1-6.54,5.05.51.51,0,0,1-.4.77C221,29,211.85,31.23,202.53,32L202,55.09,202,67.4s4.7,1.76,30.26,1.76C245.9,69.16,239.32,59.64,239.32,59.64Z" fill="#c0efff"/><path d="M-341.52,122.64c94.13,57.31,216.38,90.71,266,102.09C-.62,241.92,51.6,250.67,177.84,242.9c56.33-3.47,69.94-12.3,81.92-21.67,15.71-16.66,5.61-24.2,5.61-24.2L290,176.93S80.85,192.1,35.21,191.2s-118.92-6.63-182.52-12.85S-341.52,122.64-341.52,122.64Z" fill="#fff"/><path d="M233.81,138c-6.58-6.91-12-10.68-16.3-12.66v2.27L163,110.73l-9.15.46L141,83.77c-8.41-2.51-19-9.63-36.57-18.37-8.47-4.21-13.48.68-12.87-9,1-16.18-28.7,5.32-37.35,1.32-13.95-6.46-20.46-15.13-25.65-16.2-4.41-.91-9.64-4.35-15.65-6.74-17.53-7-45.75-13.08-69.06-19.38-2.51-.68-5.82-1.52-8.32-2.06C-207-17.62-325.13,11.92-403.84,38.6h0C-464.51,55.79-552,81-605.29,87.66c-12.77,1.59-15.33,48.51-15.33,48.51l24.27,12.59s130.92-48,275.74-5.69c66.31,19.35,245,83.68,392.53,83.68,225.26,0,203.57-36.69,203.57-36.69S253.21,158.32,233.81,138Z" fill="#c0efff"/><path d="M321.59,173.43c60.65,16.43,101.06,81.63,32.09,116.4-22.43,11.31-64.35,18.12-59.23,22.52,11,9.42,162.55,23.75,190.88,25.5,137.19-70.2,53.8-120.7-38.82-148.28-50.27-15-104.73-21.88-124.74-24.53C316.27,164.31,321.59,173.43,321.59,173.43Z" fill="#eee"/><polyline points="290.73 33.14 385.41 36.01 385.41 118.29 283.4 93.57 290.73 33.14" fill="#422d62"/><path d="M258.45,268.48c-.18,3.74-3,6-9.69,6.48a201.72,201.72,0,0,1-20.18.87c-2.92-.08-5-.93-7.3-1.38-3.25-.63-6.15-1.08-6.35-2.86-.47-4.17,4-5.67,10-6.91,7.1-1.45,7.77-2.7,11.64-3.73,6.22-1.65,15.6-5.31,20.22-3,1.27.64,1.84-.21,1.84,1.7C258.65,262,258.49,267.72,258.45,268.48Z" fill="#0062bd"/><path d="M111.71,245.2A32.26,32.26,0,1,0,144,277.46,32.26,32.26,0,0,0,111.71,245.2Zm0,55.24a23,23,0,1,1,23-23A23,23,0,0,1,111.71,300.44Z" fill="#422d62"/><path d="M213.53,240.06c-13.87-1.94-26.83,8.74-28.93,23.84s7.43,28.92,21.3,30.85,26.83-8.74,28.93-23.84S227.41,242,213.53,240.06ZM207,286.89c-9.88-1.38-16.67-11.22-15.17-22s10.73-18.36,20.61-17,16.67,11.22,15.17,22S216.88,288.26,207,286.89Z" fill="#422d62"/><path d="M164.84,71.22s-2.51-2.78-8.86-2.78c-4,0-8.08.09-10.58,1-3.27,1.22-4.8,2.24-9.66,4.64-6.14,3-4.4.51-4.4.51s11.08,3,17.32,12.31a23.42,23.42,0,0,1,3.14,6.66h33.65a8.09,8.09,0,0,0,4.13-1.07c2-1.22,5.09-3.17,6.34-4.13,4.33-3.34,1.86-9.73-3.89-9.73s-19.52-2.75-19.52-2.75" fill="#ff3853"/><line x1="172.5" y1="75.89" x2="177.53" y2="74.69" fill="#6a6a6a"/><path d="M213.83,58.32c3.46-1.46,1.48-3.65,4.38-7.27,1.85-2.3,8.29-10.69,12.9-11.12,6.27-2.9,6.25-4.82,10.17-8.1,2.26-1.89,3.83-.7,3,.75-.61,1,3.51,7.85,4.17,7.2,2-2,2.88-16.41,2.37-18,0,0,4.48-2,1.1-2.78,0,0-9.82,1.43-9-1.78,2.17-8.1-2.13-5.48-6.12-6.18-3.55-.62-5-3.86-5.15-7.47a8.25,8.25,0,0,0-4.19-6.94c-1.48-.73-6.82-2.44-9.18,2.87-1.45,5.6-2.34,7.4-2.15,18.12s-8.27,8.74-8.74,17.29c-.35,6.4.21,21.34.21,21.34a13.14,13.14,0,0,1,4,.48C213.14,57.42,212.59,58.84,213.83,58.32Z" fill="#00aef5"/><path d="M246.5,59.72c-.23-.26.12-2.42-11.69-2.66C227.48,61.55,221.18,67.4,202,67.4l-26.54,9.24h.08A183,183,0,0,0,194,79.12c13.74,2.14,27-2,33-.56,12.35,2.87,11.79,6.38,22,16.54.73-.46-5.69-12.61-5.19-13.09C247.65,78.3,251.61,65.45,246.5,59.72Z" fill="#eee"/><path d="M170.82,71.22l1.68,4.67,3,.67V52.12c0-3.44,2.3-5.83,4.3-7.31l6.63-4.9a6.5,6.5,0,0,0,2.27-5.34c0-2.52.12-13.75.12-13.75l-19,20.31-5,30.1" fill="#fff"/><path d="M323.73,170.81a80.85,80.85,0,0,1-6.1,27.61c-6.1,14.93-6.1,25.37-6.1,25.37l21.9,55.85L310.12,292s-16.65-27.88-24.79-39.62c-10.45-15.07-14.87-33.33-12.62-44.45l-11.07,13.58-3,39.29-21.81.1-2.39-49,35.34-41.09Z" fill="#422d62"/><circle cx="176.06" cy="91.93" r="6.62" fill="#422d62"/><path d="M43.45,21s2.76-1,13.29-5c9.37-3.58,14,5.09,24.3,0C93.61,9.76,109.58,1,122.74,5.3c14,4.6,24.41,11.82,37.09,11.82C178,17.12,109,46.67,109,46.67l-58.4-6.42Z" fill="#eee"/><path d="M335.51,1.13c-1.12,9.22-19.51,16.45-19.57,25.73l50-1.07,66.42-57.48,1.12-33.37c-16,.32-23.31,17.71-29.7,23.95s-14.53,13.43-42.63,3.92c-6.71-2.27-12.13,12.33-19.57,13.76C338.07-15.75,336.51-7.12,335.51,1.13Z" fill="#0062bd"/><path d="M207.27,209.09s4,8.26,1.76,12.32c-1.59,2.84-16.23,13.72-20.36,19.19s-7.81,14.17-7.92,38.73c0,0-14,1.34-15.64,1.47s-2.33-.88-2.56-3.1l-2.74-26.08-6.6-3-5-20.82,9.26-12.16,17.19-2.68Z" fill="#00aef5"/><polygon points="176 287.2 180.25 287.2 183.71 289.43 183.71 293.34 171.21 297.02 176 287.2" fill="#0062bd"/><path d="M213.18,268.45c3.19,1.37,7.46,3.22,11.25,4.51,3.4,1.15,3.66,2.58,3.66,4.23,0,3.38,0,8.52,0,8.52l-5.67.17s1.43-6.88-1.54-9.37-8.6-5.34-11.29-5.82c0,0-.27-1.9.54-2.59C210.81,267.56,212.45,268.14,213.18,268.45Z" fill="#6a6a6a"/><ellipse cx="227.77" cy="289.33" rx="10.29" ry="9.22" transform="translate(-113.58 427.42) rotate(-73.81)" fill="#0062bd"/><path d="M208.62,129.38c9.44-.12,12.95-13.1,12.95-13.1-5.84,3.32-13.74,3.07-16.6,1.43-4.33-2.47-3.26-8.43-7.73-11.26-3.67-2.32-9.26-2.67-12.13-3.66-5-1.73-1.78-9.53-9.61-13.23-6.06-2.86-8.8,1.63-11.64.89-3.68-1-.69-5.66-5.23-6.83-3.82-1-8.63,2.4-11.85-1.09-1.3-1.41-3.65,1.88-5.77,1.24l10.64,31.93s6.17-4.81,11.39-3c4.54,1.62,10.36,3.77,18,4.32C186.09,124.59,202.34,129.46,208.62,129.38Z" fill="#0062bd"/><path d="M269.38,24.4c-6.35-3.47-14.86-9.28-13.65-17.63s11.38-3.93,14.73-8.48,2.29-7.68,8.56-11.52,7.9-5.69,9.16-9.1c1.21-3.26,4.43-12.42,15.21-8s11.26-4,16.76-7.54c5.27-3.35,12.33-1.68,16.41,6.83,0,0,8.23-11.5,23.31-6.61,11.81,3.83,15.65,18.28,6.63,26.37-2.9,2.6-5.51,3-11.62,4.07,0,0,5,2.69,5.31,7.3.4,5.45-3,10.08-9.58,9.68-9.88-.6-16,.93-20.18,4.59-.75.66-5.86,2.44-6,3.37-1.08,5.51-2,9.07-2.68-1-.36-5-2.83-9.64-1.8-13.81s2.42-10.55-8-11c-10-.43-7.9,8.55-5.87,12.36,2.64,5,6.11,7.86-6.47,7.86-8.86,0-4.67,7.45-6.95,11S275.91,28,269.38,24.4Z" fill="#00aef5"/><path d="M168,150.74s2.24-1.8,2.61.88l1.87,13.49,13.09-10.37s2.75-2.16-3.65-9.9-7-8.38-7-8.38Z" fill="#422d62"/><path d="M94.62,211.73s-6.32-1.49-7.89-11.46c0,0-9,.08-6.49-9.68,2-8,11.27-6.77,13.19-1.92,0,0,8.18-5.36,15.4.74,0,0,3.93-6.26,9-1.19,4.24,4.24-.89,9.75-4.54,9.23a14.07,14.07,0,0,1-.3,8.85s10.27-.15,11.46,3.83-3.35,5.92-7.51,5.25c0,0,3.52,5.92,2.92,8.22l2.21,8.29-.52,11.61s-13.93,2-14.15,2-12.93-4.36-12.2-9.21c.32-2.11-2.15-7.8.36-9.75,4.45-3.46,14.83-2.65,14.83-2.65l-16.63,1.92s-.54-1.52-1.07-.88a38.94,38.94,0,0,1-5.14,5.21c-1.89,1.56-6.32,2.42-8.58,1.26-2.91-1.48-3-5.82,2.4-11.23A38,38,0,0,1,94.62,211.73Z" fill="#6a6a6a"/><path d="M406.6,144.81s-35.56,6.64-36.68-10.92L356,123l-81.64-15.21s-28-2.18-18.59,4.67c13.78,10.06,91,51.79,174.05,44.28V147Z" fill="#0062bd"/><path d="M109.76,245.8l.22-21.94H94.47c-2.34,0-2.9.67-2.9,8.26s.11,8.82,2.68,9.71c1.84.64,6.8,2.59,9.48,3.64C105.81,246.15,107.5,247.13,109.76,245.8Zm-10.27-5.41s-3.82-.43-3.82-4.15c0-2.17,0-4,0-9.18l3.81,0Zm6.92,2.55-4-1.67.19-14.17h3.83Z" fill="#00aef5"/><path d="M-30.85,21.91c3.51-3.52,10.6-7.06,20.22-7C.67,15,7.51,24,7.51,24S12.68,12.23,29.59,13.2C40.76,13.83,47,24.74,52.84,27.83c3,1.61,7.41-1.2,14.22,3.51S72.28,37,78.18,36.54c8-.59,15.5,3.24,18.58,9.39L95,47s-4.05-7.28-11.42-5.54S73.2,53,73.2,53s-12.78-1.1-19,9.51C54.17,62.48,41.59,41-30.85,21.91Z" fill="#c0efff"/><polygon points="124.51 52.12 124.51 62.51 133.72 62.51 133.72 56.37 124.51 52.12" fill="#fff"/><path d="M276.05,126.36s46.13,10.81,87.75,18.44c28.61,5.25,73.94,12,80.65,11L431,176.53s-78.58-3.78-122-19.59Z" fill="#6a6a6a"/><path d="M304.62,155.61s-52.35.69.16,7.26c52.93,6.63,126.06,23.27,126.06,23.27a44.92,44.92,0,0,1,.12-9.62C392.59,172.86,334.05,163.28,304.62,155.61Z" fill="#6a6a6a"/><path d="M212.43,125.54l-27.51,23.65s2.09,3.7.62,5.56l15.14,2.57,24.43-16.84Z" fill="#6a6a6a"/><path d="M252.77,149.38S249,176,247.92,181.08s-13.86,24.62-13.86,24.62-15.52,9.87-16.43,12.25c2.28,1.7,5.5.59,7.89-.29,2.07-.76,2.32-1.24,1,.61-4.56,6.49-7.58,9.92-11,12.12,2.44,2.4,5.05.41,14.43-2.58,4.23-1.35,6.74-1.61,9.43-6.69,2.81-5.31,2.73-7.94,6-11.35,6.62-6.84,18-20.43,18-20.43s9.65-23.25,10.05-34Z" fill="#6a6a6a"/><path d="M170.25,233c-6.38-.07-11.21,9.5-11,11.73s.9,8.88,1.31,12.77,5.52,7.92,12,3.84c3.91-2.46,5.25-9.71,5.25-9.71s5.64,1.73,6.14,1.17.84-3.24.84-3.24-3.52-2.4-6.25-2.34C178.56,247.23,181.18,233.11,170.25,233Z" fill="#422d62"/><path d="M146.33,156.93a1.88,1.88,0,0,0,1.15,1.53c1.12.52,2.08.71,2.46,1.71s.78,2.94,1.08,3.94.86,1.56,2.57.78,1.48.69,3.68,1.86a7.72,7.72,0,0,0,8.86-1.08s.63,1,1.34,2,6.49,1.34,9.27-6.29l-4,3s-1.24-7-1.73-10.07-.2-5.57-3.25-3.22S146.33,156.93,146.33,156.93Z" fill="#6a6a6a"/><path d="M155.31,175.44l-10.68,6.68-14.73,5.3h-5.26s-4,1.51-4.79,7.42c0,0,2.06-3.85,4.79-2.12,1.41.89,0,4.35,0,4.35s.12,2.12,2.41,0,2.79-3.74,7.48-4.58,17-3.18,17-3.18l12-7.64Z" fill="#6a6a6a"/><path d="M173.54,178.27,162.2,190.11l-2.94,2.78s-13.89,2.62-17.19,4.74-8.76,6.14-7.92,13.17l5.69.39s2.61-7.51,5.91-7.8,16-.9,16-.9l9.37-3.79,9.82-8.43s3.79-4.83.56-8.9A8.51,8.51,0,0,0,173.54,178.27Z" fill="#6a6a6a"/><path d="M226.53,282.9s-5.28,3-4.22,8.95c.9,5,6.5,5.12,6.5,5.12s-4.28-3.11-4.57-6.7S226.53,282.9,226.53,282.9Z" fill="#422d62"/><path d="M110,223.86l0,3.31,4.31,0L114,242.95l-4.19.53,0,2.31a4.61,4.61,0,0,1-2.42.66,64.92,64.92,0,0,0,9.78-.84L131,243.8s.49-17.81.49-18.8-.44-1.66-1.41-1.66C129.41,223.34,110,223.86,110,223.86Zm10.37,18.54-3.25.41.2-15.68,2.93-.05Zm6.56-1-3.35.74v-15.4h3.35Z" fill="#422d62"/><ellipse cx="96.26" cy="200.78" rx="1.51" ry="1.71" fill="#422d62"/><ellipse cx="106.06" cy="199.19" rx="1.23" ry="1.49" transform="translate(-71.96 60.51) rotate(-24.05)" fill="#422d62"/><path d="M101.31,201.2c-1.51.62-1.58,1.79-.49,1.53,0,0,.27,1.86,1.72,1.38s.22-2.19.22-2.19S104.36,199.94,101.31,201.2Z" fill="#422d62"/><path d="M257.28-25.1c-4.15-.52-4.53,3.84-10.6,7.57s-4.07,7.22-.86,8.43-.69,4-6.65,6.48-7.09,10.71-.34,11.46c6.13.69.27,1.42-2.46,5.22-2.14,3,9.95-.7,18.59-2.08,9.12-1.46-4.68,12.23,0,17.72,2.13,2.5-2,16.82,7.62,15.19l13.62,18,14.54-.8,0-27.32S324.86,24.09,324,23.19c-2.12-2.27,3.31-6,6.4-8.83.11-.76.24-1.61.35-2.6.31-2.78-3.68-4.36-6-5.4s-2.69-4,.11-4.64,5-3.5-1.2-7.78-9-10.24-11.31-10.55-2.06,3.9-7,7.11-8.1,5.2-7.18,7.34,6.11,2.37,2.37,5.73-9.32,6.11-8.1,10.78-4.71,8.56-10,7.87-8.92-4.93-4.18-4.57c2.19.17,3.13-1.09,3.36-2,.57-2.16-2.3-3.44-5-5.17-5-3.21-5.39-6.95-9.67-3.28a41.93,41.93,0,0,1-8.06,5.5s-3.44-8.41,5.2-11.39,10.62-3.82,14.67-11.46c3.19-6,6.8-2.9,9.32-12.23,0,0-1.17,3.86-7.18,5.2C274.12-15.61,273.28-9,270.14-6.9s-6.93-.17-4.74-1.83c1.35-1,3.29-2.41,3.29-4.05,0-1.25-.63-2.49-2.71-4.09C259.64-21.76,259.56-24.82,257.28-25.1Z" fill="#422d62"/><path d="M256.92,54.31c.26-.49,4.79-.17,2.73-6.63-1.14-3.59-.94-6.28,1.86-8,7-4.22,8.19-12.17,13.92-12.17,3.73,0,3.62,6.28,11.44,13,3.13,2.7,3.14,6.95-.54,11.18-.78.9-2.83,3.76-2.31,6.17.85,4,6.71,2.71,6.71,2.71l0,17.76s-1.79,1.94-8.26,1.78a25.73,25.73,0,0,0-14.65,4.31s2.68-10.86-1.79-12.14c-5.38-1.54-10.24,2-12.71,8.91,0,0-1.34-11.64,3.85-15.95S255.25,57.5,256.92,54.31Z" fill="#422d62"/><path d="M137.3,80.48h9.76a7,7,0,0,1,0-3.92A29.63,29.63,0,0,1,148.5,73S137.51,75.79,137.3,80.48Z" fill="#fff"/><path d="M106.13,41.64h63.7s16.8-17.86,18.71-19.41c3.05,1.9,13.13,12.49,13.13,11.83,0-2.36,3.48-1.24-.09-4.58-2.47-2.32-12.27-12-13.52-12-3,0-42.43-.6-52-.74a6.48,6.48,0,0,0-3.62,1L101.85,38.25C99,40.18,95.24,41.64,106.13,41.64Z" fill="#6a6a6a"/><path d="M207.45,34.37c0,1.34,1.17,4.35,3.69,4.35s3.79-1.19,4-3.91c.63-8.27,12.56-8.93,12.56-8.93s-8.43-.62-9.23-7.51C218,14.44,220,11,224,8.14c3.56-2.57,4.45-4.75,4.23-7.3a5.07,5.07,0,0,0-9.69-1.91c-1.77,3.82-2.15,2.76-6.38,3.2-7.42.76-7,8.74-2.44,11.47-10.09-.14-12.66,8.34-8.48,13C202.28,27.77,207.45,30.05,207.45,34.37Z" fill="#c0efff"/><path d="M154.13,174.48l10.34-7.72,1.65-1.08s.31.41.95,1.41c.5.77,2.32,1.6,4.64.54,2-.93,4.19-4,5-6.22,3-2.3,7.47-.26,7.47-.26l10.38,6.25s12.82,38.17,13.23,39.36a1.87,1.87,0,0,1-1.34,2.57l-34.87,7a51.09,51.09,0,0,1-4.17-16.09s6.86-2.32,14.11-11.49c3.36-4.25-5-14-9.35-9-2.73,3.09-5.55,5.94-7.47,7.81a1.44,1.44,0,0,0,.34,2.44s-.62-6.22-2.56-5.72c-.74.19-1,.39-1.45.33-.94-.11-3.13-3-4.5-4.67C154.84,177.81,153.49,175,154.13,174.48Z" fill="#fff"/><path d="M154,221c.63-1.68,3.49-5.42,3.46-5.42s0-.7-1.13-.73c-2.46-.07-6.85.76-9.7,6.76-3.4,7.17-.49,10.62-.49,10.62L150,232a33.5,33.5,0,0,1,2.43-7.58c1.77,1.44,7.39,6.87,7.39,6.87l2.68-.17C161.48,229.46,155.13,223.17,154,221Z" fill="#422d62"/><path d="M165.2,80.48H150.05c-2.94,0,.53-7.48.53-7.48h11.49S171.17,80.48,165.2,80.48Z" fill="#fff"/><path d="M163.71,72.33l6.81,6.17,5-1.94s-6.63-3.37-10.66-5.34C164.61,71.42,164,72.14,163.71,72.33Z" fill="#fff"/><path d="M250.12,21.1a9,9,0,0,1,4.48,3.63A10.29,10.29,0,0,1,255.94,28c1,4.46,5.45,5.06,5.46,7.54,0,1.26-.83,2.27-2.14,3.39-1.93,1.64-3.12,2.73-.48,4.32,3,1.83,5.61,1.87,6.63,2.81s1.79,3.5-1.38,4.68c-2.63,1-3.38,1.5-2.56,2.56s5.29,1.59,6.14,5.16c.93,3.89-.77,7.24-5.33,9.39,0,0-3.9-5.69-10.17-4.8S238,70.15,233.9,65.56c-2.76-3.06-2-7.69,2.65-9.37,1.42-.52,3.58-1.17,3.73-2,.19-1.06-2-2.32-2.6-2.72-3.09-2-2.35-4.42-1.18-5.29,1.46-1.09,4.63-2.26,7-4.55,1.71-1.63-.25-2.55-1.34-3.54-1.42-1.28-1.3-3,.59-4.42a15.17,15.17,0,0,0,3-2.69c1.62-2.1,2.79-4.75,2-5.62C246.54,24,250.12,21.1,250.12,21.1Z" fill="#00aef5"/><path d="M271.82,114.37s19.84,12.77,27.41,10.75,17.35-2.48,25.75,3c3.9,2.53,7.14,5.55,12.91,3.17,0,0,5.84,4.4,11.9,3.68,7.08-.84,9.62-.94,15.35,3.54l-14.51-34.28L333.18,93.75l-49-7.64-31.87-3.17-12,11.75-1.44,17.66Z" fill="#0062bd"/><path d="M233.16,58.73a14.64,14.64,0,0,0-1.36,12c4,12.67,14,15.84,13.12,28.38,0,0,3-8.8,10.74-10.74,4.9-1.23,7.46,2.27,11.18,4.47,4.5,2.67,10.31-1.8,12.33-3.17s3.6,1.37,7.79,3.17,10.24,2.09,13.77-1c0,0-.36,4.4,5.34,6.42s11.89-2.85,17.23.87c3.32,2.31,3.46,4.47,3.46,4.47s4-5.57,10.11-2.82c5.67,2.56,4.84,6.92,2.66,11.34-1.93,3.91-.51,10.31,8.14,12.9s12.21,5.65,15.08,10.25a19.13,19.13,0,0,0,17.8,9.51s5.83-39-9.88-47.95c-5.83-3.31-10.88-2.33-15.14-1.3-4.76,1.15-7.86,1.3-11.82-3.46-2.89-3.46-9.23-5.85-15.79-.87,0,0-3.66-6.05-9.73-7.57-5.19-1.3-7.5,1.66-9.73,1.3s-2.18-8.4-11.82-11c-5.55-1.51-10,3-10,3a9.18,9.18,0,0,0-9.16-5.34c-7,.29-8,6.2-8,6.2s2-7.13-4.08-8.59c-2.71-.64-3.12-1.88-3.77-3.71a6.68,6.68,0,0,0-7.43-4c-6.91,1.2-11.76,6.39-16.66,5.6S231.36,62.19,233.16,58.73Z" fill="#0062bd"/><path d="M421.09,17.11,376,42s-77.47-5-85.3-5.72c-3.42-.31-5.24-1.59-5.24-3.47,0-3.14,6-5.45,19.57-8.17,24.89-5,63.82-13.81,63.82-13.81Z" fill="#969696"/><path d="M169.83,41.64l1,29.58a111.92,111.92,0,0,0-11.72-2.78,3.44,3.44,0,0,0-1.33.08s-8.33-.39-12.37.94c-5,1.63-24.74,13.07-24.74,13.07s-11.33-40.28-14-40.88Z" fill="#eee"/><polygon points="198.19 38.77 198.19 51.61 192.22 53.68 192.22 40.16 198.19 38.77" fill="#c0efff"/><path d="M269.18,174h56.53s3.55-16.59-24.14-46.93a69.49,69.49,0,0,0-26.83-17.8c-17-6.19-28.37-4.83-28.37-4.83s-7.42,14-6.9,19.71l-3.84-3.21-4.9,1.22c-3,.75-5.33,1.38-6.63.61a23.48,23.48,0,0,1-5.59-4.94s-8.8,8.28-9.52,8.93c-1.52,1.37.24,4.8.81,5.74,1.61,2.65,7.95,11.47,12.43,12.31,3.65.68,9.32-7.53,12.86-3.58,4.6,5.13,15.91,20.49,15.91,20.49l1.33-10.41,21,6.16S270.92,168.93,269.18,174Z" fill="#fff"/><path d="M160.68,189.69c-2.57,3-4.16,8.33-.42,12.52,4.75,5.32,17.47-4.85,10.71-12.44C167.33,185.67,162.37,187.73,160.68,189.69Z" fill="#422d62"/><path d="M145.8,180c-1.63,1-1.32,2,1.26,5.67s3,4.58,4.91,4,1.17-3.68-1.34-6.92S146.8,179.34,145.8,180Z" fill="#422d62"/><path d="M193.76,236.83a153,153,0,0,1,14.13,29.77l-25.65-9.08c-.6,3.36-.61,4.59-.86,6.83,6.13,2.08,19.47,6.88,23.79,8.28a17.51,17.51,0,0,0,6.41,1.06c2-.18,3.21-1.06,3.07-1.12-3.23-1.34-4.7-2.17-4.22-3.66s2-.55,4.72.41c-2-11.11-16.38-34.85-16.38-34.86C196.93,235.07,193.49,236.39,193.76,236.83Z" fill="#ff3853"/><path d="M202,236.08a6.42,6.42,0,0,1-.85.34c8.08-2.08,12-4.08,14.47-6,1.75-1.07,5.36-3.66,5.16-6.89s-1.32-4.69-3.11-5.55a8.48,8.48,0,0,0-7.88-.06s-.24,2.69-3.35,5.44c-7.38,6.53-15.17,14.43-15.17,14.43s8-.71,9.86-1.31h0A6.42,6.42,0,0,0,202,236.08Z" fill="#422d62"/><path d="M165.48,230.93,159.2,239s-8.33.07-24,1.26l24.62,11.32.82,7.79L129.42,244l-12.86,33.45s-5.26-2.48-4.93-4.93l10.82-27.61,7-.92s1.63-.78,1.63-1.84.34-13.3.34-13.3L133,233Z" fill="#ff3853"/><polygon points="125.57 234.97 123.56 226.76 126.91 226.76 126.91 241.42 123.56 242.16 123.56 241.17 125.57 234.97" fill="#ff3853"/><path d="M122.47,223.54s-1.38-5.65-2-8.23c2-.51,4.5-1.51,4-4.88L130,223.35Z" fill="#ff3853"/><path d="M118.3,206.73s-1.35-8,1.21-11.94,7.66-3.57,5.14,2.29c-2.45,5.69,12.12,5,12.12,5s-2.18,2.64-2.35,8.7l-9.88-.39S123.69,207.58,118.3,206.73Z" fill="#ff3853"/><path d="M139.84,211.19c2.09,0,12.14,1.06,13.86-3s-5.35-4.89-8.4-4.75S139.84,208.59,139.84,211.19Z" fill="#ff3853"/><path d="M332.68,280a12.45,12.45,0,0,1,.57,9.49c-1.33,4.19-4.23,5.27-10.74,11.86s-8.57,9.12-14.76,10.95-16.9,1.75-13.89-3.33c1.27-2.14,5-5.16,7.93-8.65a114.56,114.56,0,0,0,7.33-10Z" fill="#0062bd"/><path d="M164.18,284.44c.88-2.91.22-8.84,6.1-9.58s3.94,2.83,10.45,2.72c.06,3.26,2.64,5.4-4.43,15.11s-12.8,10.78-17.45,9.7c-4.21-1-5.76-4.61-1.37-8.85C160.11,291,163.27,287.49,164.18,284.44Z" fill="#6a6a6a"/><path d="M161.1,264.09s-18.33,7.65-19.45,1.25,10-5.86,11.13-9.8l7.82,3.86Z" fill="#6a6a6a"/><path d="M184.95,155.18a15,15,0,0,1,19.86.75c6.51,5.88,10.19,9.23,8.71,11.23-1.06,1.42-3.09.89-3.09.89s1.56,7,2.73,8.48,3.52,3.07,2.34,4.63-3.79-2.12-3.79-2.12,1.79,16.34-5.44,23l-2-5.48s-4.68,6.15-20.39,8.94c0,0,8.26,3.23,6,5.52s-5.25-3.52-9.82-3.74-10.07,1.23-11.18,1.48-1.72-3.14-.69-3.27,26.27-3,35.19-11.65c0,0-5.81-16.14-12.17-25.4s-12.29-4.33-14-.64-8,15.12-8,15.12a28.23,28.23,0,0,1-.47-3.56,9.49,9.49,0,0,1,1.33-3.7c.67-1.36,6.66-14.26,6.66-14.26Z" fill="#0062bd"/><rect x="141.31" y="45.11" width="9.28" height="17.36" fill="#fff"/><rect x="125.33" y="45.11" width="9.28" height="17.36" fill="#fff"/><path d="M202,60c-.1-13.6-.42-30.53-.42-30.53s5.8-3.75,6.59,7.34c0,0,9.26-3.69,12.45,4.29,0,0,4.89-3.92,10.47-1.19-3.73,2.37-4.77,5.05-3.7,9.07,1.91,7.13-3.7,3.22-7.41,5.66-5,3.3-4.12,8.36-8.4,9.21.48-2.43-.66-6-3.5-6.57A5.79,5.79,0,0,0,202,60Z" fill="#422d62"/><path d="M205.65,50c.71.2,1-.62.7-.83C205.58,48.56,204.94,49.79,205.65,50Z" fill="#422d62"/><path d="M215.51,54.49c-.45.36.35,1.55,1,.9S216.2,53.93,215.51,54.49Z" fill="#422d62"/><path d="M208.24,54.93c.33.22,2.36-1.7,1.23-2.23C208.55,52.26,207.91,54.71,208.24,54.93Z" fill="#422d62"/><path d="M215,44.83s2.31-.06,2.16-1.11S215.18,44.08,215,44.83Z" fill="#422d62"/><path d="M211.81,48.21a.51.51,0,0,0-.38.94A.51.51,0,0,0,211.81,48.21Z" fill="#422d62"/><path d="M217,47.44c.65-.48,1.4,1.59,1.09,1.84S216.15,48.07,217,47.44Z" fill="#422d62"/><path d="M211.21,42A.54.54,0,1,0,211,43C211.72,43.14,212.06,42.13,211.21,42Z" fill="#422d62"/><path d="M206,43.89a.54.54,0,1,0-.18,1.05C206.5,45,206.84,44,206,43.89Z" fill="#422d62"/><path d="M157.77,68.52s4.31-4.15,8.38-3.55,4.07,4.19,5.51,3.59,5.15-4.19,8.26-2.28,3.74-.81,7.05-.25a4,4,0,0,1,3.39,3.47c.34,2.09-.42,4.7-2.9,5.18-4.19.81-4.28,3.26-7.41,2.73l-4.73-.8s-8.92-4.56-10.5-5.41S160.9,68.67,157.77,68.52Z" fill="#00aef5"/><path d="M246.37,104.44s3.4-20.9-16.72-25.47c-9.74-2.21-14.06,4.1-18.16,5.43s-9.41,3.54-7,9a4.91,4.91,0,0,0-2.77,5.76c.57,2.76,3.91,4.25,7.26,3.75,1.89-.28,19.08,6.67,22.82,7.52C234.07,110.9,239.56,107.55,246.37,104.44Z" fill="#422d62"/><path d="M246.37,104.44s-4.62,15.17-4.55,21.93l-6.2-5.43s-6.51,1.67-9.46,2.28-7.67-5.38-7.67-5.38-4.66,1.71-6,.59-1-8.56-1-8.56a22.06,22.06,0,0,1-2.58-7.14,10,10,0,0,0,5.38-2.71c2.88-2.55,5.76-3.8,8-1s4.83,5.82,5.2,2.4,1.6-5.31,4.11-4.64,2.74,8.62,8.74,8.55A17,17,0,0,0,246.37,104.44Z" fill="#6a6a6a"/><path d="M63.95,130.8c-1,3.37,8.06,3.37,8.06,3.37S65,127.42,63.95,130.8Z" fill="#0062bd"/><path d="M79.89,147.42s-.73-3.5-3.59-1.46-2.68,10.53,2.9,7.63S82.4,146.12,79.89,147.42Z" fill="#fff"/><path d="M61.92,112.14s1.3-3.33,3.78-.85.92,10.83-4.11,7.06S59.66,110.45,61.92,112.14Z" fill="#fff"/><path d="M48.25,154.08c-3.07-1-2.51-5.52.72-3.25S50.06,154.68,48.25,154.08Z" fill="#fff"/><path d="M100.32,100.77c-1.69-1.06-4.33,3-2.19,3.93S101.94,101.79,100.32,100.77Z" fill="#fff"/><path d="M48.75,137.06c-2.29.12-2.62-1.88-1.16-4.94.7-1.47-.77-.46-2-.39s-3-2-.66-4.25c2.49-2.39,4.15.58,4.4-1.11.59-3.95,4.34-4,3.61-.18-.36,1.89,3.5-2.88,4.46.76.53,2-.93,2.6-2.53,2.71s.34.43,1.35,1.53a1.94,1.94,0,0,1-.38,2.85c-2.73,2-4.3-1.21-4.3-1.21S51.41,136.92,48.75,137.06Z" fill="#fff"/><path d="M101.35,144.9c-.3-.21-6.92-4.74-5.3-6.57S101.35,144.9,101.35,144.9Z" fill="#0062bd"/><path d="M40,120.64c0-2.55-3.91-1.52-3.23-.08S40,121.89,40,120.64Z" fill="#fff"/><path d="M34,105.46c-1.34.18-.24,4.56,1.36,3.28A1.83,1.83,0,0,0,34,105.46Z" fill="#fff"/><path d="M94.31,167.81c-.55-2-7,.54-4.76,2.74A2.83,2.83,0,0,0,94.31,167.81Z" fill="#fff"/><path d="M23.53,113a1.84,1.84,0,1,0,0,3.67C25.76,116.51,25.61,112.92,23.53,113Z" fill="#fff"/><path d="M123.58,145s1-1.6-1.1-2.13a1.74,1.74,0,0,0-2,1.18,3.57,3.57,0,0,0,.15,1.82,3,3,0,0,0-2.1.17,2,2,0,0,0,.11,3.56,3.12,3.12,0,0,0,3.35-.56,2.37,2.37,0,0,0,.84,1.42c.67.48,2.2.19,2.42-.55a2.19,2.19,0,0,0-1.14-2.37,4.32,4.32,0,0,0,1.92,0c.84-.24,1-1.67.33-2.39C125.37,144.11,123.58,145,123.58,145Z" fill="#fff"/><path d="M51.06,129.31c-1.83,1.18-.93,2.26.62,1.68S51.94,128.74,51.06,129.31Z" fill="#ff3853"/><path d="M88.69,106.06s0-2.56-2.93-.05-2.07,8.19,1.56,6.94S94.43,101.14,88.69,106.06Z" fill="#fff"/><path d="M94.8,107.57s-11.25.6-9.89,4.46C86.38,116.23,94.8,107.57,94.8,107.57Z" fill="#00aff9"/><path d="M74,154.91s-4.17-10.46-7.4-7.94C63.08,149.71,74,154.91,74,154.91Z" fill="#00aff9"/><path d="M72.75,136.07s-11.9.24-11.14,2.89S72.75,136.07,72.75,136.07Z" fill="#0062bd"/><path d="M127.11,164.33c-1.41-3.24-8.31,2.71-8.31,2.71S128.52,167.57,127.11,164.33Z" fill="#0062bd"/><path d="M117,166.09s8.85-7.95,6.56-9.46S117,166.09,117,166.09Z" fill="#00aef5"/><path d="M82.92,113.12c-2.25,2.55-7.28-5.25-6.68-5.85S85.41,110.31,82.92,113.12Z" fill="#0062bd"/><path d="M102.53,145.49c-4.61-3.82,5.11-9.23,5.11-9.23s.41,1.77-1.48,4.19C104.46,142.6,102.53,145.49,102.53,145.49Z" fill="#00aef5"/><path d="M108.93,147.18s2.09-3,.22-4a3.92,3.92,0,0,0-5.54,2.24,6.37,6.37,0,0,1-1.42,2.45c-.42-1.38-1.06-2.49-2.38-2.8-2.48-.58-5.07,1.55-4.32,3.52a5.35,5.35,0,0,0,4.68,2.8c2.35,0,.33.89-1.44,1.83s2.15,4.95,5,.83c0,0,.28,2.33,2.49.83s-.39-3.38.61-3.77,2.05,2.94,4.43,1.55S113.13,146.31,108.93,147.18Zm.95,3.94c-1.8-1.28-3-2.17-4.71-.67,0,0,2.57-3.06,5.37-1.66C111.88,149.46,110.66,151.67,109.88,151.12Z" fill="#fff"/><path d="M103.93,148.06c-2.13.47-1.66,1.8,0,1.8S105,147.83,103.93,148.06Z" fill="#ff3853"/><path d="M195.26,118.15c-4.1-.82-5.53,3.89-7.3,3.52s-1-5.09-1.57-9.45-4.68-7-7.85-1.4-5.56,5-6.11,3.89,3.45-5.6,4.16-11.43c.42-3.4-.58-5.44-2.12-6.11a2.66,2.66,0,0,0-3.55,1.16c-2.29,3.82.85,8.47-2.32,8.16s-2.8-7.41-9.56-7.09c-2.44.11-4.34,2.3-5,4.19-1,2.9-2,3.82-1.84,2.73,3-19.43-8-28.81-17.15-30.82-6.4-1.41-8.14-4-10.29-8.4s-8-4.66-8-4.66c.82-6.6-3.58-5.27-4.35-7.53s4.4-9.52.31-13.77A11,11,0,0,0,98.36,39.8c-4.35,2.92-5.89.46-9.27-1.23a13.48,13.48,0,0,0-13.88,1.54c-4.76,3.64-6.45,9.32-11.06,8.45-2.75-.52-4.78-3.18-9-5.33-8.71-4.44-19.69,1.89-20.4,10.57a13.28,13.28,0,0,0,1.35,7.05C25.83,50.56,8,62.51,8,62.51c13.59-2.88,8.41,5.6,10.34,11.1,1.71,4.89,8,3.89,8.7.14s2.7-5.29,4.81-4.88,3,3,1.88,5.77-1.19,4.3.92,3.35,2,1.16,1.13,4c-2.09,6.43-2.54,13.28,1.62,15.94C42,100.83,41.35,93.1,45,86.82s6.55-6.86,5.43-1-7.65,12.53-7.65,12.53S56.27,96.82,54,85.9s7.62-12.4,9.91-7.4a7.05,7.05,0,0,1-.56,6.82s8.18-5.09,11.06,3c1.94,5.47-5.17,13-5.17,13s9-7.32,14.18-2.59C80.81,92.42,86.29,85,94.47,84.55,104.39,84,107,91,107,91s2.44-4.3,7.59-1.89c4,1.89,2,7.5,2,7.5,3.82-.79,4.71,4.15,4.71,4.15s5.51-10,11.29-9.38c7.27.73,5.51,8.09,5.51,8.09s2.17-1.59,5.43,0c3.66,1.78,4.82,9.44-1.83,11.19-6,1.57-7.23,9.63-7.56,7.56-.14-.91,1.06-2.73,1.3-5.6a8.61,8.61,0,0,0-1.28-5.09,22,22,0,0,1-1,4.81,6.55,6.55,0,0,1-3,3.34s4.39-5.19,1-7.48a4.23,4.23,0,0,0-4.62.27c-1.57,1.2-1.92,4.22-1.92,4.22s-.6-4.13-3.12-5.52a5.47,5.47,0,0,0-6.85.93c-2.11,2.22-1.34,5.56-1.34,5.56s-1.25-6.12-7.5-6.49c-4-.23-8.89,1.74-9.16,7.53-6.42-1.77-15.63.68-19.46,8a13.52,13.52,0,0,0-.07,13.14c-.14-4.23,3.58-4,6.35-7.51s4.47-3.21,3-.24-4.71,5.29-3.31,5.77,5.15-1.91,7.13-4.1,3.89-5.91,4.13-3.58-3.69,7.34-3.69,7.34,2.06.24,5.22-2.12c3.75-2.8,7.65-2.83,11.67-.61s6.08,3.93,12.42,3.75,9.48,3.35,11.61,6.49c16.92,25,49.72-4.63,49.72-4.63s13.28,2,18.58-6.57C204,123.37,199.36,119,195.26,118.15ZM46.41,78.93C42.38,84.29,38,91.32,38,91.32s2.42-13.38,7.07-17.07C48.13,71.86,50.43,73.57,46.41,78.93Z" fill="#00aef5"/><path d="M132.86,106.08c2,0,.27-4.27-1-4.06S130.88,106.08,132.86,106.08Z" fill="#00aef5"/><path d="M112.59,103c-.85-.1-1.71,3.62-.34,4S113.44,103.13,112.59,103Z" fill="#00aef5"/><path d="M138.4,105.06c-1.77-.07-2.12,3.55,0,3.65S140.17,105.13,138.4,105.06Z" fill="#00aef5"/><circle cx="111.63" cy="277.46" r="4.93" fill="#ff3853"/><path d="M39.67,67.71c-2.52-1-.72,7.1-.72,7.1S42.39,68.74,39.67,67.71Z" fill="#c0efff"/><path d="M63.53,119.36c1.12-.78-2-4.91-7.25-4.45C56.29,114.91,59.58,122.13,63.53,119.36Z" fill="#0062bd"/><path d="M114.46,168.81s-2.16,3.21-4.23-.87,2.71-3.29,2.71-3.29,2.16-4.63,4.79,0S114.46,168.81,114.46,168.81Z" fill="#fff"/><path d="M113.45,167c2.08.63,2.32-.76.88-1.57S112.45,166.68,113.45,167Z" fill="#ff3853"/><circle cx="149" cy="138.74" r="2.68" fill="#422d62"/><circle cx="157.02" cy="139.38" r="3.31" fill="#422d62"/><ellipse cx="161.62" cy="133.34" rx="3.85" ry="3.13" fill="#422d62"/><path d="M177.73,138.94s-.56-2.63-6.12-7c-5.38-4.26-13.06-3.52-19.54-.29-3.8,1.89-7.72,4.15-9.43,8.48-4.63,11.72,2.18,17.52,2.18,17.52a17.48,17.48,0,0,0,11.22,0,50.9,50.9,0,0,0,7.95-3.44c.77,1.16,2.67,4.54,2.15,11.49l2.73-1.64s.95-6.29-2.49-11.27C176.45,146.35,177.73,138.94,177.73,138.94Zm-29.85.77c-1.73-.33-.95-3.29.73-3.18S149.6,140,147.87,139.71Zm9.26,1c-2.73.5-3-2.68-1.06-3.24C158.64,136.75,159.87,140.21,157.13,140.71Zm4.85-6.19c-1.56,1.56-3.88-.61-2.62-1.9C161,131,163.62,132.89,162,134.52Z" fill="#ff3853"/></g></g></svg>