<svg width="122" height="122" viewBox="0 0 122 122" version="1.1" xmlns="http://www.w3.org/2000/svg" xmlns:xlink="http://www.w3.org/1999/xlink">
<g id="Canvas" fill="none">
<g id="Group">
<g id="Ellipse">
<circle cx="61" cy="61" r="61" fill="#1EADF7"/>
</g>
<g id="Vector">
<path d="M 20.2472 56.7561C 0.247227 62.7552 0.247224 80.7561 0.247224 80.7561C -2.06278 86.4432 12.0631 97.8659 32.2472 101.558C 49.2287 104.664 71.0828 102.007 85.2472 88.7561C 116.247 59.7561 105.92 28.8936 105.247 25.7561C 104.575 22.6185 90.2474 28.7561 85.2472 19.7561C 80.2471 10.7561 76.2474 5.75704 67.2472 10.7561C 58.2471 15.7551 40.2473 -13.7455 32.2472 8.25631C 24.2471 30.2581 20.2472 19.7561 5.24707 23.7563C -9.75309 27.7565 40.2472 50.7571 20.2472 56.7561Z" transform="translate(14.7529 19.2446)" fill="#0062BA"/>
<path d="M 0.247224 80.7561C 0.247224 80.7561 0.247227 62.7552 20.2472 56.7561C 40.2472 50.7571 -9.75309 27.7565 5.24707 23.7563C 20.2472 19.7561 24.2471 30.2581 32.2472 8.25631C 40.2473 -13.7455 58.2471 15.7551 67.2472 10.7561C 76.2474 5.75704 80.2471 10.7561 85.2472 19.7561C 90.2474 28.7561 104.575 22.6185 105.247 25.7561C 105.92 28.8936 116.247 59.7561 85.2472 88.7561C 71.0828 102.007 49.2287 104.664 32.2472 101.558C 12.0631 97.8659 -2.06278 86.4432 0.247224 80.7561Z" stroke-width="2" transform="translate(14.7529 19.2446)" stroke="#0062BA"/>
</g>
</g>
</g>
</svg>
