<svg width="122" height="122" viewBox="0 0 122 122" version="1.1" xmlns="http://www.w3.org/2000/svg" xmlns:xlink="http://www.w3.org/1999/xlink">
<g id="Canvas" fill="none">
<g id="Group">
<g id="Ellipse">
<circle cx="61" cy="61" r="61" fill="#1EADF7"/>
</g>
<g id="Vector">
<path d="M 20.2472 46.7568C 0.247227 52.7559 0.247225 70.7568 0.247225 70.7568C -2.06278 76.4439 12.0631 87.8666 32.2472 91.5588C 49.2287 94.6652 71.0828 92.0073 85.2472 78.7568C 116.247 49.7568 103.92 18.8943 103.247 15.7568L 85.2472 9.7568C 85.2472 9.7568 74.0273 -3.21772 67.2472 0.7568L 62.2472 15.7568C 62.2472 15.7568 59.8354 40.2632 48.2472 46.7568C 48.2472 46.7568 40.2472 40.7577 20.2472 46.7568Z" transform="translate(14.7529 29.2441)" fill="#0062BA"/>
<path d="M 0.247225 70.7568C 0.247225 70.7568 0.247227 52.7559 20.2472 46.7568C 40.2472 40.7577 48.2472 46.7568 48.2472 46.7568C 59.8354 40.2632 62.2472 15.7568 62.2472 15.7568L 67.2472 0.7568C 74.0273 -3.21772 85.2472 9.7568 85.2472 9.7568L 103.247 15.7568C 103.92 18.8943 116.247 49.7568 85.2472 78.7568C 71.0828 92.0073 49.2287 94.6652 32.2472 91.5588C 12.0631 87.8666 -2.06278 76.4439 0.247225 70.7568Z" stroke-width="2" transform="translate(14.7529 29.2441)" stroke="#0062BA"/>
</g>
</g>
</g>
</svg>
