<svg width="30" height="30" viewBox="0 0 30 30" fill="none" xmlns="http://www.w3.org/2000/svg">
<path d="M3 28L8.61224 14.7368L13.7143 20.4211L20.3469 4L28 20.4211" stroke="#022F51" stroke-width="3"/>
<path d="M22.0956 2.4C22.0956 3.45976 21.258 4.3 20.2477 4.3C19.2375 4.3 18.3999 3.45976 18.3999 2.4C18.3999 1.34024 19.2375 0.5 20.2477 0.5C21.258 0.5 22.0956 1.34024 22.0956 2.4Z" fill="#022F51" stroke="white"/>
<path d="M15.8043 21.1998C15.8043 22.2596 14.9667 23.0998 13.9565 23.0998C12.9462 23.0998 12.1086 22.2596 12.1086 21.1998C12.1086 20.14 12.9462 19.2998 13.9565 19.2998C14.9667 19.2998 15.8043 20.14 15.8043 21.1998Z" fill="#022F51" stroke="white"/>
<path d="M4.80429 27.1998C4.80429 28.2596 3.96669 29.0998 2.95647 29.0998C1.94625 29.0998 1.10864 28.2596 1.10864 27.1998C1.10864 26.14 1.94625 25.2998 2.95647 25.2998C3.96669 25.2998 4.80429 26.14 4.80429 27.1998Z" fill="#022F51" stroke="white"/>
<path d="M10.1087 13.7999C10.1087 14.8597 9.27114 15.6999 8.26091 15.6999C7.25069 15.6999 6.41309 14.8597 6.41309 13.7999C6.41309 12.7401 7.25069 11.8999 8.26091 11.8999C9.27114 11.8999 10.1087 12.7401 10.1087 13.7999Z" fill="#022F51" stroke="white"/>
<path d="M29.1957 18.6002C29.1957 19.66 28.358 20.5002 27.3478 20.5002C26.3376 20.5002 25.5 19.66 25.5 18.6002C25.5 17.5404 26.3376 16.7002 27.3478 16.7002C28.358 16.7002 29.1957 17.5404 29.1957 18.6002Z" fill="#022F51" stroke="white"/>
</svg>
