<?xml version="1.0" encoding="UTF-8" standalone="no"?>
<!-- Created with Inkscape (http://www.inkscape.org/) -->

<svg
   xmlns:dc="http://purl.org/dc/elements/1.1/"
   xmlns:cc="http://creativecommons.org/ns#"
   xmlns:rdf="http://www.w3.org/1999/02/22-rdf-syntax-ns#"
   xmlns:svg="http://www.w3.org/2000/svg"
   xmlns="http://www.w3.org/2000/svg"
   xmlns:sodipodi="http://sodipodi.sourceforge.net/DTD/sodipodi-0.dtd"
   xmlns:inkscape="http://www.inkscape.org/namespaces/inkscape"
   width="1024"
   height="1024"
   viewBox="0 0 1024 1024"
   id="svg2"
   version="1.1"
   inkscape:version="0.91 r13725"
   sodipodi:docname="brick.svg">
  <defs
     id="defs4" />
  <sodipodi:namedview
     id="base"
     pagecolor="#ffffff"
     bordercolor="#666666"
     borderopacity="1.0"
     inkscape:pageopacity="0.0"
     inkscape:pageshadow="2"
     inkscape:zoom="0.06250000039571699"
     inkscape:cx="326.5840212565768"
     inkscape:cy="305.6672139038915"
     inkscape:document-units="px"
     inkscape:current-layer="layer1"
     showgrid="false"
     units="px"
     inkscape:window-width="1436"
     inkscape:window-height="855"
     inkscape:window-x="5"
     inkscape:window-y="16"
     inkscape:window-maximized="0"
     showguides="false">
    <inkscape:grid
       type="xygrid"
       id="grid4157" />
  </sodipodi:namedview>
  <metadata
     id="metadata7">
    <rdf:RDF>
      <cc:Work
         rdf:about="">
        <dc:format>image/svg+xml</dc:format>
        <dc:type
           rdf:resource="http://purl.org/dc/dcmitype/StillImage" />
        <dc:title></dc:title>
      </cc:Work>
    </rdf:RDF>
  </metadata>
  <g
     inkscape:label="Layer 1"
     inkscape:groupmode="layer"
     id="layer1"
     transform="translate(0,-28.362161)">
    <circle
       cy="540.3621826171875"
       cx="512"
       id="circle4360"
       style="color:#000000;clip-rule:nonzero;display:inline;overflow:visible;visibility:visible;opacity:1;isolation:auto;mix-blend-mode:normal;color-interpolation:sRGB;color-interpolation-filters:linearRGB;solid-color:#000000;solid-opacity:1;fill:#efefef;fill-opacity:1;fill-rule:evenodd;stroke:none;stroke-width:60;stroke-linecap:butt;stroke-linejoin:round;stroke-miterlimit:4;stroke-dasharray:60, 60;stroke-dashoffset:168;stroke-opacity:1;color-rendering:auto;image-rendering:auto;shape-rendering:auto;text-rendering:auto;enable-background:accumulate"
       r="512" />
    <path
       style="color:#000000;clip-rule:nonzero;display:inline;overflow:visible;visibility:visible;opacity:1;isolation:auto;mix-blend-mode:normal;color-interpolation:sRGB;color-interpolation-filters:linearRGB;solid-color:#000000;solid-opacity:1;fill:#bcc7cc;fill-opacity:1;fill-rule:evenodd;stroke:none;stroke-width:60;stroke-linecap:butt;stroke-linejoin:round;stroke-miterlimit:4;stroke-dasharray:60, 60;stroke-dashoffset:168;stroke-opacity:1;color-rendering:auto;image-rendering:auto;shape-rendering:auto;text-rendering:auto;enable-background:accumulate"
       d="M 502 0.09765625 C 501.0951418537165 0.1153113388068051 500.1914001671516 0.1357664846632769 499.287109375 0.158203125 C 498.2291776334841 0.1844517987575003 497.1704111325277 0.2133112004082989 496.11328125 0.24609375 C 495.0561513674724 0.2788762995917402 493.9996600767834 0.3142105166162992 492.943359375 0.353515625 C 491.8870586732167 0.3928207333836689 490.8327879492829 0.4366055248664011 489.77734375 0.482421875 C 488.7218995507172 0.5282382251335811 487.6658885000262 0.5765899751586012 486.611328125 0.62890625 C 485.5567677499739 0.6812225248413597 484.5028679790132 0.7380701174927999 483.44921875 0.796875 C 482.3955695209868 0.8556798825070508 481.341773261244 0.9171397018693987 480.2890625 0.982421875 C 479.236351738756 1.04770404813064 478.1845574717186 1.115751853288 477.1328125 1.1875 C 476.0810675282814 1.259248146712142 475.029267485437 1.333906571748599 473.978515625 1.412109375 C 472.9277637645629 1.490312178251429 471.8778564273993 1.571603857251301 470.828125 1.65625 C 469.7783935726012 1.740896142748742 468.7303242976051 1.8288437097962 467.681640625 1.919921875 C 466.6329569523951 2.011000040203839 465.5847179710548 2.1056261293832 464.537109375 2.203125 C 463.4895007789453 2.300623870616853 462.4410374477484 2.401951116012238 461.39453125 2.505859375 C 460.3480250522516 2.609767633987758 459.3031889776856 2.715865544683311 458.2578125 2.826171875 C 457.2124360223146 2.936478205316568 456.1672663108666 3.051275665396702 455.123046875 3.16796875 C 454.0788274391332 3.284661834603298 453.0352225722915 3.404275228152191 451.9921875 3.52734375 C 450.9491524277085 3.65041227184793 449.9070577619601 3.776817357949653 448.865234375 3.90625 C 447.8234109880399 4.035682642050347 446.7808187548725 4.166948929789221 445.740234375 4.302734375 C 444.6996499951276 4.438519820210793 443.6604118010287 4.578576193671097 442.62109375 4.720703125 C 441.5817756989714 4.86283005632891 440.5438837754288 5.007792899594953 439.505859375 5.15625 C 438.4678349745713 5.304707100405146 437.4292815530725 5.456552172560919 436.392578125 5.611328125 C 435.3558746969277 5.766104077439074 434.3205113839599 5.922900887568971 433.28515625 6.083984375 C 432.2498011160399 6.245067862431036 431.2156201430912 6.410745294619119 430.181640625 6.578125 C 429.1476611069088 6.745504705380881 428.1146078304664 6.916179143711361 427.08203125 7.08984375 C 426.0494546695336 7.263508356288625 425.0174744460851 7.439202434845811 423.986328125 7.619140625 C 422.9551818039147 7.799078815154196 421.9242199899478 7.981768293022348 420.89453125 8.16796875 C 419.8648425100519 8.354169206977637 418.8348444620542 8.543876718240881 417.806640625 8.736328125 C 416.7784367879459 8.928779531759119 415.7513009874045 9.125527710501608 414.724609375 9.32421875 C 413.6979177625956 9.522909789498364 412.6716364409984 9.724768144804443 411.646484375 9.9296875 C 410.6213323090013 10.13460685519556 409.5978039478362 10.34159802114948 408.57421875 10.552734375 C 407.5506335521639 10.76387072885063 406.5278503829177 10.97797046453649 405.505859375 11.1953125 C 404.4838683670823 11.4126545354635 403.4617757462431 11.63388547496561 402.44140625 11.857421875 C 401.4210367537571 12.08095827503428 400.4015331628122 12.30738992743692 399.3828125 12.537109375 C 398.3640918371876 12.76682882256307 397.3471226326251 12.99848382195023 396.330078125 13.234375 C 395.3130336173749 13.47026617804965 394.2965910306818 13.71107340850574 393.28125 13.953125 C 392.2659089693184 14.19517659149426 391.2518914819823 14.43929931210346 390.23828125 14.6875 C 389.2246710180178 14.93570068789654 388.2110708615264 15.18706778274315 387.19921875 15.44140625 C 386.1873666384735 15.69574471725684 385.1760822943144 15.95242569542495 384.166015625 16.212890625 C 383.1559489556855 16.47335555457506 382.1469257803462 16.73732617514895 381.138671875 17.00390625 C 380.1304179696537 17.27048632485106 379.1236013196217 17.53981609691482 378.1171875 17.8125 C 377.1107736803783 18.08518390308518 376.1061089121412 18.36184858572312 375.1015625 18.640625 C 374.0970160878585 18.91940141427688 373.0924954329043 19.20147051657329 372.08984375 19.486328125 C 371.0871920670959 19.7711857334266 370.0866671319112 20.05868188946578 369.0859375 20.349609375 C 368.085207868089 20.64053686053421 367.0847177591619 20.93348270440015 366.0859375 21.23046875 C 365.0871572408381 21.52745479559985 364.0886004396563 21.82782608637671 363.091796875 22.130859375 C 362.0949933103439 22.43389266362328 361.1002682983946 22.73975891039549 360.10546875 23.048828125 C 359.1106692016056 23.35789733960462 358.1158150853766 23.67123430145637 357.123046875 23.986328125 C 356.1302786646233 24.30142194854363 355.1391470506024 24.6183460095591 354.1484375 24.939453125 C 353.1577279493975 25.26056024044077 352.168311069072 25.58500028470428 351.1796875 25.912109375 C 350.191063930928 26.23921846529572 349.2033071407854 26.56924400189132 348.216796875 26.90234375 C 347.2302866092148 27.23544349810857 346.2441352657425 27.57107716112057 345.259765625 27.91015625 C 344.2753959842574 28.24923533887943 343.2927485689434 28.59245288739191 342.310546875 28.9375 C 341.3283451810566 29.28254711260809 340.3471939253881 29.62946493070547 339.3671875 29.98046875 C 338.3871810746118 30.33147256929453 337.4074713350766 30.686019541061 336.4296875 31.04296875 C 335.4519036649235 31.399917958939 334.4755339230089 31.76016359345863 333.5 32.123046875 C 332.524466076991 32.48593015654138 331.551381689185 32.85189708789846 330.578125 33.220703125 C 329.604868310815 33.58950916210151 328.6311083836048 33.9612200243804 327.66015625 34.3359375 C 326.6892041163954 34.71065497561961 325.7205733812683 35.0881324029043 324.751953125 35.46875 C 323.7833328687316 35.84936759709558 322.8158704321758 36.23263422347054 321.849609375 36.619140625 C 320.8833483178241 37.00564702652946 319.916999536327 37.39472548607864 318.953125 37.787109375 C 317.9892504636731 38.17949326392124 317.0278669437219 38.57635931572905 316.06640625 38.974609375 C 315.1049455562781 39.37285943427092 314.1445664043606 39.77362946242157 313.185546875 40.177734375 C 312.2265273456395 40.58183928757852 311.2690510432431 40.98848905115607 310.3125 41.3984375 C 309.3559489567569 41.80838594884392 308.3993677353695 42.22093808193266 307.4453125 42.63671875 C 306.4912572646306 43.05249941806733 305.5394227307396 43.4709765547516 304.587890625 43.892578125 C 303.6363585192606 44.31417969524841 302.6853097793533 44.73860446961248 301.736328125 45.166015625 C 300.7873464706464 45.59342678038764 299.840935131211 46.02382182651549 298.89453125 46.45703125 C 297.9481273687891 46.89024067348452 297.0023925363125 47.32662862546056 296.05859375 47.765625 C 295.1147949636876 48.20462137453942 294.1716351196575 48.64702486644774 293.23046875 49.091796875 C 292.2893023803424 49.53656888355224 291.3506160062466 49.98305742447712 290.412109375 50.43359375 C 289.4736027437534 50.88413007552299 288.5354289460793 51.33863254954848 287.599609375 51.794921875 C 287.460086685188 51.86295070874844 287.3211032372144 51.93184343161514 287.181640625 52 L 482 52 C 493.0799999999999 52 502 43.07999999999992 502 32 L 502 0.09765625 z M 522 0.09765625 L 522 32 C 522 43.07999999999993 530.9199999999998 52.00000000000001 542 52 L 736.818359375 52 C 736.6788967627856 51.93184343161515 736.539913314812 51.86295070874844 736.400390625 51.794921875 C 735.4645710539208 51.33863254954849 734.5263972562466 50.88413007552299 733.587890625 50.43359375 C 732.6493839937535 49.98305742447712 731.7106976196576 49.53656888355225 730.76953125 49.091796875 C 729.8283648803425 48.64702486644774 728.8852050363124 48.20462137453954 727.94140625 47.765625 C 726.9976074636876 47.32662862546055 726.0518726312109 46.89024067348443 725.10546875 46.45703125 C 724.1590648687891 46.02382182651549 723.2126535293535 45.59342678038763 722.263671875 45.166015625 C 721.3146902206466 44.73860446961248 720.3636414807395 44.31417969524843 719.412109375 43.892578125 C 718.4605772692604 43.47097655475159 717.5087427353693 43.0524994180672 716.5546875 42.63671875 C 715.6006322646303 42.22093808193279 714.6440510432433 41.80838594884405 713.6875 41.3984375 C 712.7309489567571 40.98848905115598 711.7734726543606 40.58183928757842 710.814453125 40.177734375 C 709.8554335956399 39.77362946242147 708.8950544437217 39.37285943427092 707.93359375 38.974609375 C 706.9721330562776 38.57635931572905 706.0107495363269 38.17949326392134 705.046875 37.787109375 C 704.0830004636731 37.39472548607876 703.1166516821756 37.00564702652957 702.150390625 36.619140625 C 701.1841295678238 36.23263422347042 700.2166671312683 35.84936759709556 699.248046875 35.46875 C 698.2794266187315 35.08813240290443 697.3107958836049 34.71065497561971 696.33984375 34.3359375 C 695.3688916163953 33.96122002438027 694.3951316891848 33.58950916210154 693.421875 33.220703125 C 692.4486183108152 32.85189708789836 691.4755339230088 32.48593015654126 690.5 32.123046875 C 689.5244660769912 31.76016359345873 688.5480963350766 31.39991795893912 687.5703125 31.04296875 C 686.5925286649234 30.686019541061 685.6128189253883 30.33147256929441 684.6328125 29.98046875 C 683.6528060746115 29.62946493070558 682.6716548189434 29.28254711260809 681.689453125 28.9375 C 680.7072514310563 28.59245288739192 679.7246040157426 28.24923533887931 678.740234375 27.91015625 C 677.7558647342573 27.57107716112068 676.7697133907855 27.23544349810868 675.783203125 26.90234375 C 674.7966928592148 26.56924400189132 673.8089360690719 26.23921846529583 672.8203125 25.912109375 C 671.8316889309278 25.58500028470417 670.8422720506024 25.26056024044078 669.8515625 24.939453125 C 668.8608529493973 24.6183460095591 667.8697213353765 24.30142194854364 666.876953125 23.986328125 C 665.8841849146237 23.67123430145637 664.8893307983947 23.35789733960462 663.89453125 23.048828125 C 662.8997317016054 22.7397589103955 661.9050066896561 22.43389266362318 660.908203125 22.130859375 C 659.9113995603436 21.82782608637683 658.9128427591619 21.52745479559985 657.9140625 21.23046875 C 656.9152822408379 20.93348270440016 655.9147921319111 20.64053686053421 654.9140625 20.349609375 C 653.9133328680888 20.05868188946568 652.9128079329042 19.77118573342671 651.91015625 19.486328125 C 650.9075045670958 19.20147051657341 649.9029839121409 18.91940141427688 648.8984375 18.640625 C 647.8938910878587 18.36184858572301 646.8892263196218 18.08518390308518 645.8828125 17.8125 C 644.8763986803783 17.53981609691493 643.8695820303461 17.27048632485105 642.861328125 17.00390625 C 641.8530742196533 16.73732617514895 640.8440510443144 16.47335555457516 639.833984375 16.212890625 C 638.8239177056856 15.95242569542495 637.8126333615262 15.69574471725685 636.80078125 15.44140625 C 635.7889291384738 15.18706778274316 634.7753289819822 14.93570068789666 633.76171875 14.6875 C 632.7481085180178 14.43929931210335 631.7340910306816 14.19517659149414 630.71875 13.953125 C 629.7034089693183 13.71107340850585 628.6869663826251 13.47026617804966 627.669921875 13.234375 C 626.6528773673748 12.99848382195024 625.635908162812 12.76682882256307 624.6171875 12.537109375 C 623.5984668371879 12.30738992743694 622.5789632462431 12.08095827503439 621.55859375 11.857421875 C 620.5382242537569 11.63388547496561 619.5161316329176 11.4126545354635 618.494140625 11.1953125 C 617.4721496170822 10.97797046453649 616.449366447836 10.76387072885063 615.42578125 10.552734375 C 614.4021960521635 10.34159802114948 613.3786676909983 10.13460685519556 612.353515625 9.9296875 C 611.3283635590016 9.72476814480445 610.3020822374044 9.522909789498378 609.275390625 9.32421875 C 608.2486990125955 9.125527710501608 607.2215632120541 8.928779531759119 606.193359375 8.736328125 C 605.1651555379457 8.543876718240881 604.1351574899478 8.354169206977652 603.10546875 8.16796875 C 602.075780010052 7.981768293022363 601.0448181960852 7.799078815154189 600.013671875 7.619140625 C 598.9825255539146 7.439202434845811 597.9505453304663 7.263508356288639 596.91796875 7.08984375 C 595.8853921695339 6.916179143711361 594.8523388930913 6.745504705380888 593.818359375 6.578125 C 592.7843798569087 6.410745294619119 591.7501988839599 6.245067862431142 590.71484375 6.083984375 C 589.6794886160401 5.922900887568971 588.6441253030723 5.766104077439081 587.607421875 5.611328125 C 586.5707184469277 5.456552172560919 585.5321650254286 5.304707100405039 584.494140625 5.15625 C 583.4561162245712 5.007792899594847 582.4182243010289 4.86283005632901 581.37890625 4.720703125 C 580.3395881989717 4.578576193670976 579.3003500048725 4.438519820210672 578.259765625 4.302734375 C 577.2191812451275 4.166948929789321 576.17658901196 4.03568264205034 575.134765625 3.90625 C 574.0929422380397 3.776817357949646 573.0508475722914 3.650412271847927 572.0078125 3.52734375 C 570.9647774277086 3.404275228152081 569.9211725608667 3.284661834603192 568.876953125 3.16796875 C 567.8327336891333 3.051275665396822 566.7875639776857 2.936478205316568 565.7421875 2.826171875 C 564.6968110223141 2.715865544683421 563.651974947748 2.609767633987762 562.60546875 2.505859375 C 561.5589625522517 2.401951116012238 560.5104992210547 2.3006238706168 559.462890625 2.203125 C 558.4152820289453 2.105626129383158 557.3670430476052 2.0110000402038 556.318359375 1.919921875 C 555.2696757023951 1.828843709796168 554.2216064273993 1.740896142748699 553.171875 1.65625 C 552.1221435726012 1.571603857251262 551.072236235437 1.490312178251401 550.021484375 1.412109375 C 548.9707325145629 1.333906571748567 547.9189324717187 1.2592481467121 546.8671875 1.1875 C 545.8154425282817 1.115751853287978 544.7636482612439 1.047704048130601 543.7109375 0.982421875 C 542.658226738756 0.9171397018693597 541.6044304790131 0.8556798825071006 540.55078125 0.796875 C 539.497132020987 0.738070117492839 538.4432322500259 0.6812225248413988 537.388671875 0.62890625 C 536.3341114999737 0.57658997515869 535.2781004492829 0.5282382251335989 534.22265625 0.482421875 C 533.1672120507169 0.4366055248664296 532.1129413267835 0.3928207333837008 531.056640625 0.353515625 C 530.0003399232168 0.3142105166162601 528.9438486325278 0.2788762995917011 527.88671875 0.24609375 C 526.8295888674721 0.2133112004082989 525.7708223665156 0.1844517987575998 524.712890625 0.158203125 C 523.8085998328485 0.1357664846633619 522.9048581462836 0.1153113388068455 522 0.09765625 z M 250.193359375 72 C 249.8381543800372 72.21133897988871 249.4816750054634 72.42059589604077 249.126953125 72.6328125 C 248.2316211806653 73.16845553502991 247.3375475578242 73.70682059567319 246.4453125 74.248046875 C 245.5530774421758 74.78927315432678 244.6625483495575 75.3340611684183 243.7734375 75.880859375 C 242.8843266504426 76.4276575815817 241.9972874445345 76.9769380582058 241.111328125 77.529296875 C 240.2253688054655 78.0816556917944 239.3417648427553 78.637404390035 238.458984375 79.1953125 C 237.5762039072448 79.75322060996491 236.6940274192198 80.31350703890659 235.814453125 80.876953125 C 234.9348788307801 81.44039921109329 234.0560282989282 82.00524600482019 233.1796875 82.57421875 C 232.3033467010717 83.14319149517992 231.4297206068803 83.716527537776 230.556640625 84.291015625 C 229.6835606431198 84.86550371222422 228.8111980930762 85.44149226277381 227.94140625 86.021484375 C 227.0716144069238 86.60147648722631 226.2043670075159 87.1840464298138 225.337890625 87.76953125 C 224.4714142424841 88.35501607018631 223.6072742251994 88.9441900388959 222.744140625 89.53515625 C 221.8810070248007 90.12612246110416 221.0179666211266 90.71996996502 220.158203125 91.31640625 C 219.2984396288734 91.9128425349801 218.4403504452977 92.5113862081862 217.583984375 93.11328125 C 216.7276183047024 93.71517629181376 215.8744256977126 94.3203918933947 215.021484375 94.927734375 C 214.1685430522876 95.53507685660536 213.3162861283711 96.1450338956452 212.466796875 96.7578125 C 211.6173076216289 97.37059110435486 210.7698379872734 97.98531221493771 209.923828125 98.603515625 C 209.0778182627265 99.22171903506241 208.2331281494196 99.84317997627249 207.390625 100.466796875 C 206.5481218505803 101.0904137737275 205.7081097398095 101.7166840546493 204.869140625 102.345703125 C 204.0301715101904 102.9747221953508 203.1928296334433 103.6058244500683 202.357421875 104.240234375 C 201.5220141165568 104.8746442999316 200.6892409553208 105.5125542875293 199.857421875 106.15234375 C 199.0256027946792 106.7921332124706 198.195390580442 107.4349204420325 197.3671875 108.080078125 C 196.5389844195579 108.7252358079676 195.7112785088071 109.3729229135778 194.88671875 110.0234375 C 194.0621589911929 110.6739520864222 193.2408109904158 111.326561702165 192.419921875 111.982421875 C 191.5990327595842 112.638282047835 190.7800817752686 113.2977899327945 189.962890625 113.958984375 C 189.1456994747316 114.6201788172054 188.329090863365 115.2827013554662 187.515625 115.94921875 C 186.7021591366349 116.6157361445338 185.8917445047051 117.2852022201798 185.08203125 117.95703125 C 184.2723179952948 118.62886027982 183.4641364492891 119.3033394019357 182.658203125 119.98046875 C 181.852269800711 120.6575980980644 181.0482198221168 121.3371129007336 180.24609375 122.01953125 C 179.4439676778831 122.7019495992664 178.6439946231883 123.3884758415737 177.845703125 124.076171875 C 177.0474116268117 124.7638679084263 176.2495077275037 125.4535219744558 175.455078125 126.146484375 C 174.6606485224964 126.8394467755442 173.8686653850627 127.53420442438 173.078125 128.232421875 C 172.2875846149372 128.9306393256199 171.4995144708655 129.6324763163464 170.712890625 130.3359375 C 169.9262667791344 131.0393986836537 169.1420549849122 131.7444314003548 168.359375 132.453125 C 167.5766950150878 133.1618185996452 166.7962869272026 133.8739759264056 166.017578125 134.587890625 C 165.2388693227973 135.3018053235945 164.4602571727367 136.019156769498 163.685546875 136.73828125 C 162.9108365772633 137.4574057305019 162.1398250965148 138.1780208046329 161.369140625 138.90234375 C 160.5984561534852 139.626666695367 159.8291313235365 140.3544742818099 159.0625 141.083984375 C 158.2958686764634 141.8134944681901 157.5320821038021 142.5446109510289 156.76953125 143.279296875 C 156.006980396198 144.0139827989712 155.2447711873114 144.75233706229 154.486328125 145.4921875 C 153.7278850626886 146.2320379377099 152.9730579490645 146.9737463655932 152.21875 147.71875 C 151.4644420509354 148.4637536344067 150.7110830140614 149.2107919859386 149.9609375 149.9609375 C 149.2107919859386 150.7110830140614 148.4637536344068 151.4644420509354 147.71875 152.21875 C 146.9737463655933 152.9730579490646 146.23203793771 153.7278850626886 145.4921875 154.486328125 C 144.75233706229 155.2447711873115 144.0139827989711 156.006980396198 143.279296875 156.76953125 C 142.5446109510289 157.5320821038022 141.8134944681902 158.2958686764636 141.083984375 159.0625 C 140.3544742818098 159.8291313235364 139.6266666953671 160.5984561534852 138.90234375 161.369140625 C 138.178020804633 162.1398250965148 137.4554526055019 162.9127897022631 136.736328125 163.6875 C 136.0172036444981 164.4622102977368 135.3018053235945 165.2388693227973 134.587890625 166.017578125 C 133.8739759264054 166.7962869272027 133.1618185996452 167.5766950150877 132.453125 168.359375 C 131.744431400355 169.1420549849121 131.0393986836536 169.9262667791343 130.3359375 170.712890625 C 129.6324763163464 171.4995144708656 128.93063932562 172.2875846149373 128.232421875 173.078125 C 127.5342044243801 173.8686653850627 126.8394467755442 174.6606485224963 126.146484375 175.455078125 C 125.4535219744558 176.2495077275034 124.7638679084263 177.0474116268116 124.076171875 177.845703125 C 123.3884758415737 178.6439946231884 122.7019495992664 179.4439676778831 122.01953125 180.24609375 C 121.3371129007336 181.0482198221168 120.6575980980643 181.8522698007109 119.98046875 182.658203125 C 119.3033394019357 183.464136449289 118.6288602798201 184.2723179952949 117.95703125 185.08203125 C 117.2852022201799 185.8917445047051 116.6157361445339 186.702159136635 115.94921875 187.515625 C 115.2827013554662 188.3290908633648 114.6201788172054 189.1456994747315 113.958984375 189.962890625 C 113.2977899327945 190.7800817752687 112.638282047835 191.5990327595841 111.982421875 192.419921875 C 111.3265617021651 193.2408109904157 110.6739520864223 194.062158991193 110.0234375 194.88671875 C 109.3729229135776 195.7112785088073 108.7252358079675 196.5389844195579 108.080078125 197.3671875 C 107.4349204420325 198.1953905804421 106.7921332124707 199.0256027946792 106.15234375 199.857421875 C 105.5125542875293 200.6892409553207 104.8746442999318 201.5220141165567 104.240234375 202.357421875 C 103.6058244500682 203.1928296334434 102.9747221953507 204.0301715101903 102.345703125 204.869140625 C 101.7166840546493 205.7081097398096 101.0904137737275 206.5481218505804 100.466796875 207.390625 C 99.84317997627242 208.2331281494196 99.22171903506222 209.0778182627265 98.603515625 209.923828125 C 97.98531221493779 210.7698379872735 97.3705911043549 211.6173076216289 96.7578125 212.466796875 C 96.14503389564511 213.316286128371 95.53507685660539 214.1685430522876 94.927734375 215.021484375 C 94.32039189339461 215.8744256977125 93.71517629181375 216.7276183047024 93.11328125 217.583984375 C 92.51138620818631 218.4403504452978 91.91284253498002 219.2984396288734 91.31640625 220.158203125 C 90.71996996501998 221.0179666211266 90.12612246110423 221.8810070248005 89.53515625 222.744140625 C 88.9441900388958 223.6072742251992 88.35501607018628 224.4714142424842 87.76953125 225.337890625 C 87.18404642981369 226.2043670075159 86.60147648722622 227.0716144069238 86.021484375 227.94140625 C 85.44149226277374 228.8111980930762 84.86550371222408 229.6835606431198 84.291015625 230.556640625 C 83.97483455562499 231.037157747043 83.66021432793356 231.5184932922622 83.345703125 232 L 272 232 C 283.0799999999999 232 292 223.08 292 212 L 292 92 C 292 80.9199999999999 283.0799999999999 72 272 72 L 250.193359375 72 z M 332 72 C 320.9200000000001 72 312 80.9199999999999 312 92 L 312 212 C 312 223.08 320.9200000000001 232 332 232 L 692 232 C 703.0799999999999 232 712 223.08 712 212 L 712 92 C 712 80.9199999999999 703.0799999999999 72 692 72 L 332 72 z M 752 72 C 740.9199999999998 72 732 80.9199999999999 732 92 L 732 212 C 732 223.08 740.92 232 752 232 L 940.654296875 232 C 940.3397856720665 231.5184932922622 940.025165444375 231.0371577470429 939.708984375 230.556640625 C 939.134496287776 229.6835606431197 938.5585077372264 228.8111980930762 937.978515625 227.94140625 C 937.3985235127737 227.0716144069238 936.8159535701864 226.2043670075159 936.23046875 225.337890625 C 935.6449839298136 224.4714142424843 935.0558099611042 223.6072742251993 934.46484375 222.744140625 C 933.8738775388956 221.8810070248006 933.2800300349802 221.0179666211265 932.68359375 220.158203125 C 932.0871574650196 219.2984396288734 931.4886137918137 218.4403504452976 930.88671875 217.583984375 C 930.2848237081863 216.7276183047023 929.6796081066054 215.8744256977126 929.072265625 215.021484375 C 928.4649231433943 214.1685430522874 927.8549661043547 213.3162861283711 927.2421875 212.466796875 C 926.6294088956453 211.6173076216289 926.0146877850622 210.7698379872735 925.396484375 209.923828125 C 924.7782809649378 209.0778182627265 924.1568200237276 208.2331281494196 923.533203125 207.390625 C 922.9095862262724 206.5481218505804 922.2833159453505 205.7081097398096 921.654296875 204.869140625 C 921.0252778046494 204.0301715101905 920.3941755499316 203.1928296334433 919.759765625 202.357421875 C 919.1253557000684 201.5220141165568 918.4874457124706 200.6892409553208 917.84765625 199.857421875 C 917.2078667875297 199.0256027946792 916.5650795579676 198.195390580442 915.919921875 197.3671875 C 915.2747641920323 196.538984419558 914.6270770864223 195.7112785088071 913.9765625 194.88671875 C 913.326047913578 194.0621589911929 912.6734382978349 193.240810990416 912.017578125 192.419921875 C 911.3617179521649 191.599032759584 910.7022100672056 190.7800817752685 910.041015625 189.962890625 C 909.3798211827949 189.1456994747312 908.7172986445338 188.329090863365 908.05078125 187.515625 C 907.3842638554664 186.7021591366351 906.7147977798202 185.8917445047052 906.04296875 185.08203125 C 905.3711397201796 184.2723179952949 904.6966605980642 183.4641364492891 904.01953125 182.658203125 C 903.342401901936 181.8522698007109 902.6628870992664 181.0482198221168 901.98046875 180.24609375 C 901.2980504007334 179.4439676778832 900.6115241584263 178.6439946231884 899.923828125 177.845703125 C 899.2361320915739 177.0474116268117 898.546478025544 176.2495077275037 897.853515625 175.455078125 C 897.1605532244555 174.6606485224962 896.4657955756199 173.8686653850626 895.767578125 173.078125 C 895.0693606743802 172.2875846149375 894.3675236836534 171.4995144708656 893.6640625 170.712890625 C 892.960601316346 169.9262667791345 892.255568599645 169.1420549849122 891.546875 168.359375 C 890.8381814003553 167.5766950150878 890.1260240735944 166.7962869272027 889.412109375 166.017578125 C 888.6981946764053 165.2388693227973 887.9827963555019 164.4622102977367 887.263671875 163.6875 C 886.544547394498 162.9127897022632 885.821979195367 162.1398250965147 885.09765625 161.369140625 C 884.3733333046328 160.5984561534851 883.64552571819 159.8291313235367 882.916015625 159.0625 C 882.1865055318102 158.2958686764636 881.4553890489711 157.5320821038022 880.720703125 156.76953125 C 879.9860172010291 156.006980396198 879.2476629377099 155.2447711873115 878.5078125 154.486328125 C 877.7679620622897 153.7278850626886 877.0262536344067 152.9730579490646 876.28125 152.21875 C 875.5362463655933 151.4644420509355 874.7892080140615 150.7110830140614 874.0390625 149.9609375 C 873.2889169859386 149.2107919859386 872.5355579490647 148.4637536344067 871.78125 147.71875 C 871.0269420509355 146.9737463655932 870.2721149373114 146.2320379377099 869.513671875 145.4921875 C 868.7552288126888 144.75233706229 867.9930196038023 144.0139827989711 867.23046875 143.279296875 C 866.4679178961977 142.5446109510289 865.7041313235367 141.8134944681902 864.9375 141.083984375 C 864.1708686764633 140.35447428181 863.4015438465148 139.6266666953671 862.630859375 138.90234375 C 861.8601749034852 138.178020804633 861.089163422737 137.4574057305019 860.314453125 136.73828125 C 859.5397428272631 136.019156769498 858.7611306772026 135.3018053235946 857.982421875 134.587890625 C 857.2037130727975 133.8739759264055 856.4233049849123 133.161818599645 855.640625 132.453125 C 854.8579450150876 131.744431400355 854.0737332208655 131.0393986836537 853.287109375 130.3359375 C 852.5004855291344 129.6324763163464 851.7124153850627 128.9306393256199 850.921875 128.232421875 C 850.1313346149377 127.53420442438 849.3393514775038 126.8394467755442 848.544921875 126.146484375 C 847.7504922724961 125.4535219744558 846.9525883731884 124.7638679084263 846.154296875 124.076171875 C 845.3560053768116 123.3884758415737 844.5560323221167 122.7019495992664 843.75390625 122.01953125 C 842.9517801778832 121.3371129007336 842.147730199289 120.6575980980643 841.341796875 119.98046875 C 840.5358635507106 119.3033394019358 839.7276820047051 118.6288602798201 838.91796875 117.95703125 C 838.1082554952951 117.2852022201799 837.2978408633649 116.6157361445337 836.484375 115.94921875 C 835.6709091366346 115.2827013554662 834.8543005252685 114.6201788172054 834.037109375 113.958984375 C 833.2199182247311 113.2977899327945 832.400967240416 112.638282047835 831.580078125 111.982421875 C 830.7591890095845 111.3265617021651 829.937841008807 110.6739520864223 829.11328125 110.0234375 C 828.2887214911929 109.3729229135777 827.4610155804421 108.7252358079675 826.6328125 108.080078125 C 825.8046094195578 107.4349204420326 824.9743972053209 106.7921332124706 824.142578125 106.15234375 C 823.3107590446795 105.5125542875292 822.4779858834431 104.8746442999319 821.642578125 104.240234375 C 820.8071703665566 103.6058244500681 819.9698284898095 102.9747221953508 819.130859375 102.345703125 C 818.2918902601907 101.7166840546493 817.4518781494197 101.0904137737275 816.609375 100.466796875 C 815.7668718505802 99.84317997627249 814.9221817372734 99.22171903506219 814.076171875 98.603515625 C 813.230162012727 97.98531221493771 812.3826923783712 97.370591104355 811.533203125 96.7578125 C 810.6837138716293 96.1450338956452 809.8314569477126 95.5350768566053 808.978515625 94.927734375 C 808.1255743022874 94.32039189339469 807.2723816952976 93.7151762918138 806.416015625 93.11328125 C 805.5596495547026 92.51138620818624 804.7015603711266 91.9128425349801 803.841796875 91.31640625 C 802.9820333788733 90.71996996502 802.1189929751994 90.1261224611042 801.255859375 89.53515625 C 800.3927257748002 88.94419003889588 799.528585757516 88.35501607018629 798.662109375 87.76953125 C 797.7956329924841 87.18404642981378 796.9283855930762 86.60147648722641 796.05859375 86.021484375 C 795.1888019069237 85.44149226277356 794.3164393568803 84.8655037122242 793.443359375 84.291015625 C 792.5702793931194 83.71652753777599 791.696653298928 83.14319149517991 790.8203125 82.57421875 C 789.943971701072 82.00524600482022 789.0651211692199 81.44039921109329 788.185546875 80.876953125 C 787.3059725807803 80.31350703890659 786.4237960927553 79.7532206099649 785.541015625 79.1953125 C 784.6582351572447 78.63740439003503 783.7746311945345 78.0816556917943 782.888671875 77.529296875 C 782.0027125554653 76.97693805820572 781.1156733495575 76.4276575815817 780.2265625 75.880859375 C 779.3374516504429 75.33406116841832 778.4469225578241 74.78927315432691 777.5546875 74.248046875 C 776.6624524421758 73.70682059567319 775.7683788193345 73.16845553503001 774.873046875 72.6328125 C 774.5183249945364 72.42059589604071 774.1618456199628 72.21133897988872 773.806640625 72 L 752 72 z M 122 252 C 110.9200000000001 252 102 260.92 102 272 L 102 392 C 102 403.08 110.9200000000001 412.0000000000001 122 412 L 482 412 C 493.0799999999999 412 502 403.08 502 392 L 502 272 C 502 260.92 493.0799999999999 252 482 252 L 122 252 z M 542 252 C 530.9199999999998 252 522 260.92 522 272 L 522 392 C 522 403.08 530.9199999999998 412.0000000000001 542 412 L 902 412 C 913.0799999999999 412 922 403.08 922 392 L 922 272 C 922 260.92 913.0799999999999 252 902 252 L 542 252 z M 69.96484375 253.646484375 C 69.7949116404874 253.9372523391867 69.62247218417787 254.2264939101098 69.453125 254.517578125 C 68.92868240469031 255.4190218770873 68.4074972748865 256.3221038266709 67.888671875 257.2265625 C 67.3698464751135 258.1310211733291 66.85304063742113 259.0359131021852 66.33984375 259.943359375 C 65.82664686257891 260.8508056478147 65.31615080791364 261.7614684494558 64.80859375 262.671875 C 64.30103669208633 263.5822815505443 63.79682778636403 264.4929104934827 63.294921875 265.40625 C 62.7930159636359 266.3195895065175 62.29311844777238 267.2341454842655 61.796875 268.150390625 C 61.30063155222761 269.0666357657344 60.80697591713859 269.9851734218048 60.31640625 270.904296875 C 59.82583658286143 271.8234203281951 59.33840019446268 272.7440411811004 58.853515625 273.666015625 C 58.36863105553732 274.5879900689 57.88739127974464 275.5107487621518 57.408203125 276.435546875 C 56.92901497025539 277.3603449878482 56.45199604798452 278.2872492899597 55.978515625 279.21484375 C 55.50503520201546 280.1424382100402 55.03416762418236 281.0715896395238 54.56640625 282.001953125 C 54.0986448758177 282.9323166104761 53.63390600833797 283.8637698108441 53.171875 284.796875 C 52.70984399166205 285.7299801891559 52.25121120045148 286.6637898039206 51.794921875 287.599609375 C 51.33863254954853 288.5354289460794 50.88413007552294 289.4736027437535 50.43359375 290.412109375 C 49.98305742447705 291.3506160062466 49.53656888355227 292.2893023803424 49.091796875 293.23046875 C 48.64702486644774 294.1716351196576 48.20462137453947 295.1147949636876 47.765625 296.05859375 C 47.32662862546054 297.0023925363124 46.89024067348466 297.9481273687889 46.45703125 298.89453125 C 46.02382182651544 299.8409351312108 45.59342678038757 300.7873464706466 45.166015625 301.736328125 C 44.73860446961242 302.6853097793533 44.31417969524845 303.6363585192605 43.892578125 304.587890625 C 43.47097655475155 305.5394227307395 43.05249941806726 306.4912572646306 42.63671875 307.4453125 C 42.22093808193273 308.3993677353695 41.80838594884389 309.3559489567568 41.3984375 310.3125 C 40.98848905115613 311.2690510432432 40.58183928757845 312.2265273456394 40.177734375 313.185546875 C 39.77362946242155 314.1445664043607 39.37285943427096 315.1049455562781 38.974609375 316.06640625 C 38.57635931572908 317.0278669437218 38.17949326392124 317.9912035886731 37.787109375 318.955078125 C 37.39472548607875 319.9189526613271 37.00564702652951 320.8833483178243 36.619140625 321.849609375 C 36.23263422347051 322.8158704321758 35.84936759709563 323.7833328687316 35.46875 324.751953125 C 35.08813240290436 325.7205733812685 34.71065497561959 326.6892041163952 34.3359375 327.66015625 C 33.96122002438037 328.631108383605 33.58950916210154 329.6048683108151 33.220703125 330.578125 C 32.85189708789846 331.551381689185 32.48593015654131 332.5244660769911 32.123046875 333.5 C 31.7601635934587 334.475533923009 31.39991795893902 335.4519036649234 31.04296875 336.4296875 C 30.68601954106098 337.4074713350767 30.33147256929461 338.3871810746118 29.98046875 339.3671875 C 29.62946493070544 340.3471939253882 29.28254711260806 341.3283451810565 28.9375 342.310546875 C 28.59245288739193 343.2927485689436 28.24923533887939 344.2753959842574 27.91015625 345.259765625 C 27.57107716112062 346.2441352657426 27.23544349810864 347.2302866092147 26.90234375 348.216796875 C 26.56924400189136 349.2033071407855 26.23921846529582 350.191063930928 25.912109375 351.1796875 C 25.58500028470423 352.168311069072 25.26056024044081 353.1577279493976 24.939453125 354.1484375 C 24.61834600955917 355.1391470506025 24.30142194854375 356.1302786646233 23.986328125 357.123046875 C 23.67123430145628 358.1158150853767 23.35789733960454 359.1106692016054 23.048828125 360.10546875 C 22.73975891039547 361.1002682983947 22.43389266362324 362.0949933103436 22.130859375 363.091796875 C 21.82782608637678 364.0886004396563 21.52745479559984 365.0871572408382 21.23046875 366.0859375 C 20.93348270440017 367.0847177591617 20.64053686053428 368.0852078680889 20.349609375 369.0859375 C 20.05868188946569 370.0866671319112 19.77118573342668 371.0871920670958 19.486328125 372.08984375 C 19.20147051657332 373.0924954329043 18.9194014142769 374.097016087859 18.640625 375.1015625 C 18.36184858572306 376.1061089121412 18.08518390308509 377.1107736803782 17.8125 378.1171875 C 17.53981609691491 379.1236013196219 17.27048632485112 380.1304179696538 17.00390625 381.138671875 C 16.73732617514888 382.1469257803462 16.47335555457506 383.1559489556855 16.212890625 384.166015625 C 15.95242569542495 385.1760822943145 15.6957447172569 386.1873666384736 15.44140625 387.19921875 C 15.18706778274311 388.2110708615265 14.93570068789659 389.2246710180179 14.6875 390.23828125 C 14.4392993121034 391.2518914819823 14.19517659149421 392.2659089693183 13.953125 393.28125 C 13.71107340850579 394.2965910306816 13.47026617804969 395.3130336173749 13.234375 396.330078125 C 12.9984838219503 397.3471226326251 12.7668288225631 398.3640918371878 12.537109375 399.3828125 C 12.30738992743692 400.4015331628123 12.08095827503436 401.4210367537569 11.857421875 402.44140625 C 11.63388547496564 403.4617757462432 11.41265453546354 404.4838683670822 11.1953125 405.505859375 C 10.97797046453648 406.5278503829176 10.76387072885057 407.5506335521637 10.552734375 408.57421875 C 10.34159802114943 409.5978039478362 10.13460685519549 410.6213323090016 9.9296875 411.646484375 C 9.906143199580276 411.7642696773925 9.882837146768965 411.8821942144953 9.859375 412 L 62 412 C 73.07999999999991 412 82 403.08 82 392 L 82 272 C 82 263.7557573381417 77.05694911949624 256.7143239103971 69.96484375 253.646484375 z M 954.03515625 253.646484375 C 946.9430508805037 256.7143239103971 942 263.7557573381417 942 272 L 942 392 C 942 403.08 950.92 412.0000000000001 962 412 L 1014.140625 412 C 1014.117162853231 411.8821942144953 1014.09385680042 411.7642696773925 1014.0703125 411.646484375 C 1013.865393144805 410.6213323090016 1013.658401978851 409.5978039478361 1013.447265625 408.57421875 C 1013.236129271149 407.5506335521638 1013.022029535464 406.5278503829177 1012.8046875 405.505859375 C 1012.587345464536 404.4838683670823 1012.366114525034 403.4617757462432 1012.142578125 402.44140625 C 1011.919041724965 401.4210367537571 1011.692610072563 400.4015331628124 1011.462890625 399.3828125 C 1011.233171177437 398.3640918371877 1011.00151617805 397.3471226326251 1010.765625 396.330078125 C 1010.529733821951 395.3130336173749 1010.288926591494 394.2965910306819 1010.046875 393.28125 C 1009.804823408506 392.2659089693186 1009.560700687896 391.2518914819821 1009.3125 390.23828125 C 1009.064299312103 389.2246710180177 1008.812932217257 388.2110708615263 1008.55859375 387.19921875 C 1008.304255282743 386.1873666384736 1008.047574304575 385.1760822943145 1007.787109375 384.166015625 C 1007.526644445425 383.1559489556856 1007.262673824851 382.1469257803464 1006.99609375 381.138671875 C 1006.729513675149 380.1304179696539 1006.460183903084 379.1236013196218 1006.1875 378.1171875 C 1005.914816096915 377.1107736803783 1005.638151414277 376.1061089121411 1005.359375 375.1015625 C 1005.080598585723 374.0970160878589 1004.798529483427 373.0924954329043 1004.513671875 372.08984375 C 1004.228814266573 371.0871920670957 1003.941318110534 370.0866671319114 1003.650390625 369.0859375 C 1003.359463139466 368.085207868089 1003.0665172956 367.0847177591619 1002.76953125 366.0859375 C 1002.472545204401 365.0871572408382 1002.172173913624 364.0886004396562 1001.869140625 363.091796875 C 1001.566107336377 362.0949933103437 1001.260241089604 361.1002682983945 1000.951171875 360.10546875 C 1000.642102660395 359.1106692016053 1000.328765698544 358.1158150853764 1000.013671875 357.123046875 C 999.6985780514561 356.1302786646235 999.3816539904409 355.1391470506024 999.060546875 354.1484375 C 998.739439759559 353.1577279493977 998.4149997152956 352.1683110690721 998.087890625 351.1796875 C 997.7607815347045 350.1910639309283 997.4307559981087 349.2033071407854 997.09765625 348.216796875 C 996.764556501891 347.2302866092146 996.4289228388795 346.2441352657425 996.08984375 345.259765625 C 995.7507646611203 344.2753959842576 995.4075471126081 343.2927485689435 995.0625 342.310546875 C 994.7174528873919 341.3283451810567 994.3705350692945 340.3471939253881 994.01953125 339.3671875 C 993.6685274307057 338.3871810746119 993.3139804589391 337.4074713350766 992.95703125 336.4296875 C 992.6000820410608 335.4519036649233 992.2398364065414 334.4755339230089 991.876953125 333.5 C 991.514069843459 332.5244660769911 991.1481029121016 331.551381689185 990.779296875 330.578125 C 990.4104908378987 329.6048683108151 990.0387799756196 328.6311083836048 989.6640625 327.66015625 C 989.2893450243806 326.6892041163952 988.9118675970957 325.7205733812684 988.53125 324.751953125 C 988.1506324029043 323.7833328687315 987.7673657765297 322.8158704321756 987.380859375 321.849609375 C 986.99435297347 320.883348317824 986.6052745139211 319.9189526613271 986.212890625 318.955078125 C 985.8205067360788 317.991203588673 985.4236406842708 317.0278669437218 985.025390625 316.06640625 C 984.6271405657287 315.1049455562781 984.2263705375784 314.1445664043606 983.822265625 313.185546875 C 983.418160712422 312.2265273456395 983.011510948844 311.2690510432431 982.6015625 310.3125 C 982.1916140511559 309.3559489567567 981.7790619180672 308.3993677353694 981.36328125 307.4453125 C 980.9475005819328 306.4912572646306 980.5290234452484 305.5394227307396 980.107421875 304.587890625 C 979.6858203047512 303.6363585192603 979.2613955303876 302.6853097793534 978.833984375 301.736328125 C 978.4065732196121 300.7873464706465 977.9761781734845 299.840935131211 977.54296875 298.89453125 C 977.1097593265157 297.9481273687891 976.6733713745397 297.0023925363124 976.234375 296.05859375 C 975.7953786254608 295.1147949636877 975.352975133552 294.1716351196576 974.908203125 293.23046875 C 974.4634311164476 292.2893023803424 974.0169425755229 291.3506160062466 973.56640625 290.412109375 C 973.1158699244771 289.4736027437534 972.6613674504515 288.5354289460792 972.205078125 287.599609375 C 971.7487887995486 286.6637898039207 971.290156008338 285.7299801891558 970.828125 284.796875 C 970.3660939916618 283.8637698108441 969.9013551241824 282.9323166104761 969.43359375 282.001953125 C 968.9658323758176 281.0715896395237 968.4949647979845 280.1424382100403 968.021484375 279.21484375 C 967.5480039520154 278.2872492899597 967.0709850297446 277.3603449878481 966.591796875 276.435546875 C 966.1126087202554 275.5107487621518 965.6313689444627 274.5879900688998 965.146484375 273.666015625 C 964.6615998055372 272.7440411811005 964.1741634171385 271.8234203281952 963.68359375 270.904296875 C 963.1930240828615 269.9851734218047 962.6993684477723 269.0666357657345 962.203125 268.150390625 C 961.7068815522275 267.2341454842655 961.206984036364 266.3195895065174 960.705078125 265.40625 C 960.2031722136359 264.4929104934826 959.6989633079138 263.5822815505442 959.19140625 262.671875 C 958.683849192086 261.7614684494557 958.1733531374211 260.8508056478149 957.66015625 259.943359375 C 957.146959362579 259.0359131021854 956.6301535248865 258.131021173329 956.111328125 257.2265625 C 955.5925027251135 256.3221038266708 955.0713175953098 255.4190218770872 954.546875 254.517578125 C 954.377527815822 254.2264939101098 954.2050883595127 253.9372523391866 954.03515625 253.646484375 z M 6.2890625 432 C 6.221274309811473 432.4285264526246 6.150692225783536 432.8563952585066 6.083984375 433.28515625 C 5.922900887568921 434.3205113839598 5.76610407743915 435.3558746969276 5.611328125 436.392578125 C 5.456552172560849 437.4292815530725 5.304707100405112 438.4678349745714 5.15625 439.505859375 C 5.007792899594889 440.5438837754286 4.862830056328965 441.5817756989713 4.720703125 442.62109375 C 4.578576193671034 443.6604118010287 4.438519820210705 444.6996499951275 4.302734375 445.740234375 C 4.166948929789298 446.7808187548725 4.035682642050334 447.8234109880399 3.90625 448.865234375 C 3.776817357949665 449.9070577619602 3.650412271847864 450.9491524277086 3.52734375 451.9921875 C 3.404275228152136 453.0352225722915 3.28466183460326 454.0788274391334 3.16796875 455.123046875 C 3.051275665396727 456.1672663108665 2.93647820531658 457.2124360223144 2.826171875 458.2578125 C 2.715865544683421 459.3031889776857 2.609767633987779 460.3480250522516 2.505859375 461.39453125 C 2.401951116012231 462.4410374477483 2.30062387061686 463.4895007789452 2.203125 464.537109375 C 2.105626129383142 465.5847179710548 2.01100004020383 466.6329569523949 1.919921875 467.681640625 C 1.828843709796167 468.7303242976051 1.7408961427487 469.7783935726008 1.65625 470.828125 C 1.5716038572513 471.877856427399 1.49031217825146 472.927763764563 1.412109375 473.978515625 C 1.333906571748543 475.0292674854368 1.25924814671211 476.0810675282814 1.1875 477.1328125 C 1.115751853287893 478.1845574717185 1.047704048130636 479.236351738756 0.982421875 480.2890625 C 0.9171397018693573 481.341773261244 0.8556798825070701 482.3955695209869 0.796875 483.44921875 C 0.7380701174929301 484.502867979013 0.681222524841387 485.5567677499737 0.62890625 486.611328125 C 0.5765899751586124 487.6658885000261 0.5282382251336 488.7218995507172 0.482421875 489.77734375 C 0.4366055248664 490.8327879492827 0.392820733383699 491.8870586732168 0.353515625 492.943359375 C 0.3142105166163 493.9996600767835 0.27887629959169 495.0561513674724 0.24609375 496.11328125 C 0.21331120040831 497.1704111325274 0.184451798757567 498.2291776334845 0.158203125 499.287109375 C 0.1319544512424275 500.3450411165159 0.1075941058813416 501.4022312212522 0.087890625 502.4609375 C 0.06818714411865828 503.5196437787477 0.0522094709630049 504.5792183807769 0.0390625 505.638671875 C 0.0259155290369951 506.6981253692234 0.0163447690025568 507.7581859870572 0.009765625 508.818359375 C 0.0031864809974433 509.8785327629426 0 510.939134040094 0 512 C 1.156482317317871e-18 513.0608659599055 0.003186480997442999 514.1214672370575 0.009765625 515.181640625 C 0.0163447690025569 516.2418140129429 0.0259155290369953 517.3018746307766 0.0390625 518.361328125 C 0.05220947096300472 519.420781619223 0.06818714413972446 520.4803562212438 0.087890625 521.5390625 C 0.1075941058813435 522.5977687787475 0.131954451242428 523.6549588834841 0.158203125 524.712890625 C 0.184451798757571 525.7708223665157 0.21331120040831 526.8295888674722 0.24609375 527.88671875 C 0.2788762995916899 528.9438486325274 0.314210516616298 530.0003399232165 0.353515625 531.056640625 C 0.3928207333837002 532.112941326783 0.436605524866399 533.1672120507171 0.482421875 534.22265625 C 0.5282382251336009 535.2781004492833 0.576589975158603 536.3341114999738 0.62890625 537.388671875 C 0.6812225248413911 538.443232250026 0.7380701174929269 539.4971320209869 0.796875 540.55078125 C 0.8556798825070731 541.6044304790132 0.917139701869351 542.6582267387558 0.982421875 543.7109375 C 1.047704048130645 544.7636482612439 1.11575185328789 545.8154425282814 1.1875 546.8671875 C 1.259248146712106 547.9189324717184 1.33390657174854 548.970732514563 1.412109375 550.021484375 C 1.49031217825146 551.0722362354369 1.5716038572513 552.1221435726007 1.65625 553.171875 C 1.740896142748702 554.2216064273993 1.82884370979616 555.2696757023949 1.919921875 556.318359375 C 2.011000040203836 557.3670430476049 2.10562612938314 558.4152820289452 2.203125 559.462890625 C 2.300623870616863 560.5104992210551 2.401951116012236 561.5589625522516 2.505859375 562.60546875 C 2.609767633987774 563.6519749477485 2.71586554468342 564.6968110223144 2.826171875 565.7421875 C 2.93647820531658 566.7875639776856 3.051275665396717 567.8327336891333 3.16796875 568.876953125 C 3.284661834603277 569.9211725608665 3.404275228152139 570.9647774277087 3.52734375 572.0078125 C 3.65041227184786 573.050847572292 3.77681735794966 574.0929422380399 3.90625 575.134765625 C 4.035682642050339 576.1765890119599 4.166948929789287 577.2191812451276 4.302734375 578.259765625 C 4.438519820210713 579.3003500048725 4.578576193671048 580.3395881989715 4.720703125 581.37890625 C 4.86283005632897 582.418224301029 5.007792899594887 583.4561162245715 5.15625 584.494140625 C 5.304707100405114 585.5321650254285 5.456552172560839 586.5707184469275 5.611328125 587.607421875 C 5.766104077439152 588.6441253030724 5.922900887567927 589.6794886160399 6.083984375 590.71484375 C 6.150692225783946 591.1436047414934 6.221274309811115 591.5714735473754 6.2890625 592 L 272 592 C 283.0799999999999 592 292 583.0799999999998 292 572 L 292 452 C 292 440.92 283.0799999999999 431.9999999999999 272 432 L 6.2890625 432 z M 332 432 C 320.9200000000001 432 312 440.92 312 452 L 312 572 C 312 583.08 320.9200000000001 592 332 592 L 692 592 C 703.0799999999999 592 712 583.0799999999998 712 572 L 712 452 C 712 440.92 703.0799999999999 431.9999999999999 692 432 L 332 432 z M 752 432 C 740.9199999999998 432 732 440.92 732 452 L 732 572 C 732 583.08 740.92 592 752 592 L 1017.7109375 592 C 1017.778725690189 591.5714735473754 1017.849307774217 591.1436047414934 1017.916015625 590.71484375 C 1018.077099112431 589.67948861604 1018.233895922561 588.6441253030722 1018.388671875 587.607421875 C 1018.543447827439 586.5707184469275 1018.695292899594 585.5321650254289 1018.84375 584.494140625 C 1018.992207100404 583.4561162245715 1019.137169943671 582.4182243010289 1019.279296875 581.37890625 C 1019.421423806329 580.3395881989712 1019.561480179789 579.3003500048725 1019.697265625 578.259765625 C 1019.833051070211 577.2191812451275 1019.964317357949 576.17658901196 1020.09375 575.134765625 C 1020.223182642051 574.0929422380399 1020.349587728151 573.0508475722917 1020.47265625 572.0078125 C 1020.595724771848 570.9647774277088 1020.715338165397 569.9211725608667 1020.83203125 568.876953125 C 1020.948724334603 567.8327336891331 1021.063521794684 566.7875639776854 1021.173828125 565.7421875 C 1021.284134455317 564.6968110223145 1021.390232366013 563.6519749477484 1021.494140625 562.60546875 C 1021.598048883987 561.5589625522518 1021.69937612938 560.5104992210548 1021.796875 559.462890625 C 1021.894373870617 558.4152820289455 1021.9889999598 557.3670430476052 1022.080078125 556.318359375 C 1022.171156290203 555.2696757023948 1022.25910385725 554.2216064273993 1022.34375 553.171875 C 1022.428396142749 552.1221435726011 1022.50968782175 551.072236235437 1022.587890625 550.021484375 C 1022.666093428252 548.9707325145631 1022.74075185329 547.9189324717187 1022.8125 546.8671875 C 1022.884248146712 545.8154425282816 1022.95229595187 544.7636482612442 1023.017578125 543.7109375 C 1023.08286029813 542.6582267387562 1023.14432011749 541.6044304790131 1023.203125 540.55078125 C 1023.261929882507 539.4971320209867 1023.31877747516 538.4432322500261 1023.37109375 537.388671875 C 1023.423410024843 536.3341114999739 1023.47176177487 535.278100449283 1023.517578125 534.22265625 C 1023.563394475137 533.167212050717 1023.60717926662 532.1129413267836 1023.646484375 531.056640625 C 1023.685789483384 530.0003399232168 1023.72112370041 528.9438486325278 1023.75390625 527.88671875 C 1023.78668879959 526.8295888674726 1023.81554820124 525.7708223665156 1023.841796875 524.712890625 C 1023.868045548761 523.654958883484 1023.89240589412 522.5977687787475 1023.912109375 521.5390625 C 1023.93181285588 520.4803562212522 1023.94779052904 519.4207816192231 1023.9609375 518.361328125 C 1023.97408447096 517.3018746307765 1023.983655231 516.2418140129428 1023.990234375 515.181640625 C 1023.996813519 514.1214672370576 1024 513.0608659599058 1024 512 C 1024 510.9391340400942 1023.996813519002 509.8785327629429 1023.990234375 508.818359375 C 1023.983655231 507.7581859870572 1023.97408447096 506.6981253692232 1023.9609375 505.638671875 C 1023.94779052903 504.5792183807769 1023.93181285588 503.5196437787476 1023.912109375 502.4609375 C 1023.89240589412 501.4022312212521 1023.86804554876 500.3450411165157 1023.841796875 499.287109375 C 1023.81554820125 498.2291776334844 1023.78668879959 497.1704111325278 1023.75390625 496.11328125 C 1023.721123700406 495.0561513674725 1023.68578948338 493.9996600767835 1023.646484375 492.943359375 C 1023.607179266614 491.8870586732168 1023.56339447513 490.8327879492829 1023.517578125 489.77734375 C 1023.471761774867 488.7218995507171 1023.42341002484 487.6658885000262 1023.37109375 486.611328125 C 1023.318777475159 485.556767749974 1023.26192988251 484.5028679790132 1023.203125 483.44921875 C 1023.144320117492 482.395569520987 1023.08286029813 481.3417732612439 1023.017578125 480.2890625 C 1022.95229595187 479.236351738756 1022.88424814671 478.1845574717187 1022.8125 477.1328125 C 1022.740751853288 476.0810675282813 1022.66609342825 475.0292674854369 1022.587890625 473.978515625 C 1022.509687821749 472.9277637645632 1022.42839614275 471.8778564273991 1022.34375 470.828125 C 1022.259103857252 469.7783935726009 1022.1711562902 468.730324297605 1022.080078125 467.681640625 C 1021.988999959796 466.6329569523951 1021.89437387062 465.5847179710548 1021.796875 464.537109375 C 1021.699376129383 463.4895007789452 1021.598048883988 462.4410374477482 1021.494140625 461.39453125 C 1021.390232366012 460.3480250522517 1021.284134455316 459.3031889776856 1021.173828125 458.2578125 C 1021.063521794683 457.2124360223143 1020.948724334604 456.1672663108667 1020.83203125 455.123046875 C 1020.715338165397 454.0788274391336 1020.595724771848 453.0352225722916 1020.47265625 451.9921875 C 1020.349587728152 450.9491524277086 1020.223182642051 449.90705776196 1020.09375 448.865234375 C 1019.96431735795 447.8234109880399 1019.83305107021 446.7808187548725 1019.697265625 445.740234375 C 1019.561480179789 444.6996499951273 1019.421423806329 443.6604118010288 1019.279296875 442.62109375 C 1019.137169943671 441.5817756989712 1018.992207100405 440.5438837754286 1018.84375 439.505859375 C 1018.695292899594 438.4678349745714 1018.54344782744 437.4292815530723 1018.388671875 436.392578125 C 1018.23389592256 435.3558746969274 1018.077099112431 434.3205113839599 1017.916015625 433.28515625 C 1017.849307774216 432.8563952585066 1017.778725690188 432.4285264526246 1017.7109375 432 L 752 432 z M 9.859375 612 C 9.882837146768967 612.1178057855047 9.906143199580276 612.2357303226075 9.9296875 612.353515625 C 10.13460685519552 613.3786676909986 10.34159802114944 614.4021960521637 10.552734375 615.42578125 C 10.76387072885056 616.4493664478362 10.97797046453646 617.4721496170822 11.1953125 618.494140625 C 11.41265453546352 619.5161316329176 11.63388547496565 620.5382242537571 11.857421875 621.55859375 C 12.08095827503436 622.5789632462431 12.30738992743692 623.5984668371876 12.537109375 624.6171875 C 12.76682882256308 625.6359081628124 12.9984838219503 626.6528773673749 13.234375 627.669921875 C 13.47026617804969 628.686966382625 13.71107340850581 629.7034089693184 13.953125 630.71875 C 14.1951765914942 631.7340910306817 14.4392993121034 632.7481085180177 14.6875 633.76171875 C 14.9357006878966 634.7753289819822 15.18706778274313 635.7889291384735 15.44140625 636.80078125 C 15.69574471725689 637.8126333615264 15.95242569542494 638.8239177056856 16.212890625 639.833984375 C 16.47335555457506 640.8440510443146 16.73732617514887 641.8530742196538 17.00390625 642.861328125 C 17.27048632485114 643.8695820303459 17.53981609691491 644.8763986803782 17.8125 645.8828125 C 18.0851839030851 646.889226319622 18.36184858572306 647.8938910878588 18.640625 648.8984375 C 18.91940141427694 649.9029839121412 19.20147051657332 650.9075045670959 19.486328125 651.91015625 C 19.77118573342668 652.9128079329043 20.05868188946569 653.9133328680889 20.349609375 654.9140625 C 20.64053686053431 655.9147921319111 20.93348270440019 656.9152822408381 21.23046875 657.9140625 C 21.5274547955998 658.9128427591617 21.82782608637675 659.9113995603435 22.130859375 660.908203125 C 22.43389266362324 661.9050066896564 22.73975891039546 662.8997317016053 23.048828125 663.89453125 C 23.35789733960453 664.8893307983943 23.67123430145628 665.8841849146235 23.986328125 666.876953125 C 24.30142194854372 667.8697213353767 24.61834600955919 668.8608529493974 24.939453125 669.8515625 C 25.26056024044082 670.8422720506024 25.58500028470419 671.8316889309281 25.912109375 672.8203125 C 26.23921846529579 673.808936069072 26.56924400189135 674.7966928592147 26.90234375 675.783203125 C 27.23544349810867 676.7697133907852 27.57107716112059 677.7558647342574 27.91015625 678.740234375 C 28.2492353388794 679.7246040157423 28.59245288739193 680.7072514310565 28.9375 681.689453125 C 29.28254711260807 682.6716548189435 29.62946493070545 683.6528060746119 29.98046875 684.6328125 C 30.33147256929459 685.6128189253885 30.68601954106098 686.5925286649234 31.04296875 687.5703125 C 31.39991795893902 688.5480963350763 31.76016359345872 689.5244660769912 32.123046875 690.5 C 32.48593015654135 691.475533923009 32.85189708789845 692.4486183108152 33.220703125 693.421875 C 33.58950916210156 694.3951316891855 33.96122002438041 695.3688916163952 34.3359375 696.33984375 C 34.71065497561962 697.3107958836047 35.08813240290438 698.2794266187316 35.46875 699.248046875 C 35.84936759709561 700.2166671312684 36.23263422347051 701.184129567824 36.619140625 702.150390625 C 37.00564702652951 703.1166516821758 37.39472548607875 704.0830004636731 37.787109375 705.046875 C 38.17949326392127 706.0107495363269 38.57635931572908 706.9721330562782 38.974609375 707.93359375 C 39.37285943427094 708.8950544437221 39.77362946242152 709.8554335956394 40.177734375 710.814453125 C 40.58183928757845 711.7734726543604 40.98848905115608 712.7309489567571 41.3984375 713.6875 C 41.80838594884391 714.6440510432432 42.22093808193276 715.6006322646306 42.63671875 716.5546875 C 43.05249941806725 717.5087427353692 43.47097655475152 718.4605772692605 43.892578125 719.412109375 C 44.31417969524847 720.3636414807396 44.73860446961241 721.3146902206465 45.166015625 722.263671875 C 45.59342678038758 723.2126535293534 46.02382182651543 724.159064868789 46.45703125 725.10546875 C 46.89024067348461 726.0518726312109 47.32662862546052 726.9976074636876 47.765625 727.94140625 C 48.20462137453949 728.8852050363125 48.64702486644769 729.8283648803424 49.091796875 730.76953125 C 49.53656888355227 731.7106976196576 49.98305742447705 732.6493839937534 50.43359375 733.587890625 C 50.88413007552294 734.5263972562462 51.33863254954852 735.4645710539208 51.794921875 736.400390625 C 52.25121120045149 737.3362101960795 52.70984399166204 738.2700198108441 53.171875 739.203125 C 53.63390600833797 740.1362301891555 54.09864487581778 741.0676833895239 54.56640625 741.998046875 C 55.03416762418229 742.9284103604766 55.50503520201546 743.8575617899597 55.978515625 744.78515625 C 56.45199604798455 745.7127507100398 56.92901497025538 746.639655012152 57.408203125 747.564453125 C 57.88739127974466 748.4892512378483 58.36863105553731 749.4120099311002 58.853515625 750.333984375 C 59.3384001944627 751.2559588188997 59.82583658286138 752.1765796718048 60.31640625 753.095703125 C 60.8069759171386 754.014826578195 61.30063155222761 754.9333642342656 61.796875 755.849609375 C 62.29311844777241 756.7658545157345 62.7930159636359 757.6804104934827 63.294921875 758.59375 C 63.79682778636408 759.507089506517 64.30103669208634 760.4177184494559 64.80859375 761.328125 C 65.31615080791367 762.2385315505444 65.8266468625789 763.1491943521851 66.33984375 764.056640625 C 66.8530406374211 764.964086897815 67.3698464751135 765.8689788266711 67.888671875 766.7734375 C 68.40749727488645 767.6778961733295 68.92868240469026 768.5809781229128 69.453125 769.482421875 C 69.62247218417789 769.7735060898901 69.7949116404874 770.0627476608133 69.96484375 770.353515625 C 77.05694911949624 767.2856760896029 82 760.2442426618582 82 752 L 82 632 C 82 620.9199999999998 73.07999999999991 612 62 612 L 9.859375 612 z M 122 612 C 110.9200000000001 612 102 620.9199999999998 102 632 L 102 752 C 102 763.08 110.9200000000001 771.9999999999999 122 772 L 482 772 C 493.0799999999999 772 502 763.0799999999998 502 752 L 502 632 C 502 620.9199999999998 493.0799999999999 612 482 612 L 122 612 z M 542 612 C 530.9199999999998 612 522 620.9199999999998 522 632 L 522 752 C 522 763.08 530.9199999999998 771.9999999999999 542 772 L 902 772 C 913.0799999999999 772 922 763.0799999999998 922 752 L 922 632 C 922 620.9199999999998 913.0799999999999 612 902 612 L 542 612 z M 962 612 C 950.9199999999998 612 942 620.9199999999998 942 632 L 942 752 C 942 760.2442426618583 946.9430508805038 767.2856760896028 954.03515625 770.353515625 C 954.2050883595126 770.0627476608133 954.3775278158221 769.7735060898901 954.546875 769.482421875 C 955.07131759531 768.5809781229125 955.5925027251136 767.677896173329 956.111328125 766.7734375 C 956.6301535248866 765.8689788266711 957.1469593625791 764.9640868978148 957.66015625 764.056640625 C 958.173353137421 763.149194352185 958.6838491920863 762.2385315505442 959.19140625 761.328125 C 959.6989633079137 760.4177184494557 960.203172213636 759.5070895065173 960.705078125 758.59375 C 961.2069840363639 757.6804104934828 961.7068815522276 756.7658545157343 962.203125 755.849609375 C 962.6993684477725 754.9333642342657 963.1930240828616 754.0148265781951 963.68359375 753.095703125 C 964.1741634171384 752.1765796718043 964.6615998055373 751.2559588188998 965.146484375 750.333984375 C 965.6313689444626 749.4120099311003 966.1126087202554 748.4892512378483 966.591796875 747.564453125 C 967.0709850297446 746.639655012152 967.5480039520154 745.7127507100403 968.021484375 744.78515625 C 968.4949647979848 743.8575617899596 968.9658323758179 742.9284103604763 969.43359375 741.998046875 C 969.9013551241825 741.0676833895237 970.366093991662 740.1362301891558 970.828125 739.203125 C 971.2901560083377 738.2700198108438 971.7487887995484 737.3362101960795 972.205078125 736.400390625 C 972.6613674504515 735.464571053921 973.1158699244771 734.5263972562466 973.56640625 733.587890625 C 974.0169425755226 732.6493839937534 974.4634311164479 731.7106976196574 974.908203125 730.76953125 C 975.352975133552 729.8283648803425 975.7953786254607 728.8852050363124 976.234375 727.94140625 C 976.6733713745391 726.9976074636876 977.1097593265155 726.0518726312109 977.54296875 725.10546875 C 977.976178173485 724.1590648687887 978.4065732196125 723.2126535293534 978.833984375 722.263671875 C 979.2613955303876 721.314690220647 979.6858203047514 720.3636414807395 980.107421875 719.412109375 C 980.5290234452486 718.4605772692602 980.9475005819328 717.5087427353693 981.36328125 716.5546875 C 981.7790619180672 715.6006322646302 982.191614051156 714.6440510432432 982.6015625 713.6875 C 983.0115109488437 712.7309489567568 983.4181607124215 711.7734726543606 983.822265625 710.814453125 C 984.2263705375784 709.8554335956393 984.627140565729 708.895054443722 985.025390625 707.93359375 C 985.4236406842709 706.9721330562776 985.8205067360786 706.0107495363269 986.212890625 705.046875 C 986.6052745139209 704.0830004636729 986.9943529734705 703.1166516821756 987.380859375 702.150390625 C 987.7673657765293 701.1841295678242 988.1506324029044 700.2166671312684 988.53125 699.248046875 C 988.9118675970956 698.2794266187317 989.2893450243804 697.3107958836047 989.6640625 696.33984375 C 990.0387799756194 695.3688916163951 990.4104908378986 694.3951316891851 990.779296875 693.421875 C 991.1481029121015 692.4486183108153 991.5140698434587 691.475533923009 991.876953125 690.5 C 992.2398364065413 689.5244660769907 992.600082041061 688.5480963350766 992.95703125 687.5703125 C 993.3139804589392 686.5925286649236 993.6685274307052 685.612818925388 994.01953125 684.6328125 C 994.3705350692944 683.6528060746117 994.7174528873919 682.6716548189435 995.0625 681.689453125 C 995.407547112608 680.7072514310565 995.7507646611206 679.7246040157424 996.08984375 678.740234375 C 996.4289228388793 677.7558647342576 996.7645565018913 676.7697133907853 997.09765625 675.783203125 C 997.4307559981086 674.7966928592148 997.7607815347042 673.808936069072 998.087890625 672.8203125 C 998.4149997152957 671.8316889309277 998.739439759559 670.8422720506026 999.060546875 669.8515625 C 999.3816539904411 668.8608529493978 999.6985780514564 667.8697213353769 1000.013671875 666.876953125 C 1000.328765698543 665.8841849146237 1000.642102660395 664.8893307983947 1000.951171875 663.89453125 C 1001.260241089605 662.8997317016056 1001.566107336377 661.9050066896564 1001.869140625 660.908203125 C 1002.172173913623 659.9113995603437 1002.472545204401 658.9128427591619 1002.76953125 657.9140625 C 1003.0665172956 656.9152822408379 1003.359463139466 655.9147921319111 1003.650390625 654.9140625 C 1003.941318110534 653.9133328680887 1004.228814266574 652.9128079329042 1004.513671875 651.91015625 C 1004.798529483427 650.9075045670959 1005.080598585723 649.9029839121409 1005.359375 648.8984375 C 1005.638151414277 647.8938910878586 1005.914816096915 646.8892263196217 1006.1875 645.8828125 C 1006.460183903085 644.8763986803785 1006.729513675149 643.8695820303462 1006.99609375 642.861328125 C 1007.262673824851 641.853074219654 1007.526644445425 640.8440510443145 1007.787109375 639.833984375 C 1008.047574304575 638.8239177056856 1008.304255282743 637.8126333615265 1008.55859375 636.80078125 C 1008.812932217256 635.7889291384737 1009.064299312104 634.7753289819823 1009.3125 633.76171875 C 1009.560700687897 632.7481085180178 1009.804823408506 631.734091030682 1010.046875 630.71875 C 1010.288926591494 629.7034089693183 1010.52973382195 628.6869663826251 1010.765625 627.669921875 C 1011.00151617805 626.6528773673748 1011.233171177437 625.6359081628121 1011.462890625 624.6171875 C 1011.692610072563 623.5984668371879 1011.919041724966 622.578963246243 1012.142578125 621.55859375 C 1012.366114525034 620.5382242537568 1012.587345464536 619.5161316329176 1012.8046875 618.494140625 C 1013.022029535464 617.4721496170823 1013.23612927115 616.4493664478362 1013.447265625 615.42578125 C 1013.658401978851 614.4021960521638 1013.865393144805 613.3786676909983 1014.0703125 612.353515625 C 1014.09385680042 612.2357303226075 1014.117162853231 612.1178057855047 1014.140625 612 L 962 612 z M 83.345703125 792 C 83.66021432793356 792.4815067077378 83.97483455562501 792.9628422529571 84.291015625 793.443359375 C 84.86550371222407 794.3164393568803 85.44149226277382 795.1888019069238 86.021484375 796.05859375 C 86.60147648722617 796.9283855930761 87.18404642981375 797.795632992484 87.76953125 798.662109375 C 88.35501607018628 799.5285857575158 88.9441900388959 800.3927257748007 89.53515625 801.255859375 C 90.1261224611042 802.1189929751994 90.71996996501998 802.9820333788733 91.31640625 803.841796875 C 91.91284253497999 804.7015603711267 92.51138620818617 805.5596495547022 93.11328125 806.416015625 C 93.71517629181379 807.2723816952972 94.32039189339464 808.1255743022874 94.927734375 808.978515625 C 95.53507685660531 809.8314569477121 96.14503389564523 810.683713871629 96.7578125 811.533203125 C 97.3705911043549 812.3826923783711 97.98531221493776 813.2301620127265 98.603515625 814.076171875 C 99.22171903506218 814.9221817372736 99.84317997627245 815.7668718505803 100.466796875 816.609375 C 101.0904137737276 817.4518781494193 101.7166840546493 818.2918902601904 102.345703125 819.130859375 C 102.9747221953507 819.9698284898096 103.6058244500682 820.8071703665568 104.240234375 821.642578125 C 104.8746442999318 822.477985883443 105.5125542875293 823.3107590446793 106.15234375 824.142578125 C 106.7921332124707 824.974397205321 107.4349204420325 825.804609419558 108.080078125 826.6328125 C 108.7252358079676 827.4610155804422 109.3729229135777 828.288721491193 110.0234375 829.11328125 C 110.6739520864223 829.9378410088074 111.3265617021652 830.7591890095841 111.982421875 831.580078125 C 112.6382820478349 832.4009672404162 113.2977899327945 833.2199182247316 113.958984375 834.037109375 C 114.6201788172054 834.8543005252685 115.2827013554662 835.670909136635 115.94921875 836.484375 C 116.6157361445339 837.297840863365 117.2852022201799 838.1082554952949 117.95703125 838.91796875 C 118.6288602798201 839.7276820047048 119.3033394019357 840.5358635507109 119.98046875 841.341796875 C 120.6575980980643 842.1477301992895 121.3371129007336 842.9517801778831 122.01953125 843.75390625 C 122.7019495992664 844.5560323221167 123.3884758415736 845.3560053768117 124.076171875 846.154296875 C 124.7638679084264 846.952588373188 125.4535219744558 847.7504922724966 126.146484375 848.544921875 C 126.8394467755442 849.3393514775036 127.5342044243801 850.1313346149374 128.232421875 850.921875 C 128.93063932562 851.7124153850629 129.6324763163464 852.5004855291345 130.3359375 853.287109375 C 131.0393986836535 854.0737332208654 131.7444314003549 854.8579450150878 132.453125 855.640625 C 133.1618185996452 856.4233049849121 133.8739759264054 857.2037130727973 134.587890625 857.982421875 C 135.3018053235945 858.7611306772029 136.0172036444982 859.5397428272632 136.736328125 860.314453125 C 137.4554526055018 861.089163422737 138.1780208046329 861.8601749034851 138.90234375 862.630859375 C 139.626666695367 863.4015438465146 140.3544742818099 864.1708686764636 141.083984375 864.9375 C 141.8134944681902 865.7041313235367 142.5446109510288 866.4679178961978 143.279296875 867.23046875 C 144.0139827989711 867.9930196038023 144.7523370622901 868.7552288126886 145.4921875 869.513671875 C 146.23203793771 870.2721149373112 146.9737463655933 871.0269420509353 147.71875 871.78125 C 148.4637536344067 872.5355579490645 149.2107919859386 873.2889169859386 149.9609375 874.0390625 C 150.7110830140614 874.7892080140616 151.4644420509355 875.5362463655935 152.21875 876.28125 C 152.9730579490647 877.0262536344068 153.7278850626887 877.7679620622902 154.486328125 878.5078125 C 155.2447711873114 879.2476629377102 156.0069803961979 879.9860172010287 156.76953125 880.720703125 C 157.5320821038021 881.4553890489708 158.2958686764635 882.1865055318099 159.0625 882.916015625 C 159.8291313235366 883.6455257181899 160.5984561534852 884.3733333046329 161.369140625 885.09765625 C 162.1398250965147 885.8219791953669 162.9108365772633 886.5445473944982 163.685546875 887.263671875 C 164.4602571727368 887.9827963555025 165.2388693227974 888.6981946764055 166.017578125 889.412109375 C 166.7962869272027 890.1260240735947 167.5766950150877 890.838181400355 168.359375 891.546875 C 169.1420549849122 892.2555685996448 169.9262667791344 892.9606013163464 170.712890625 893.6640625 C 171.4995144708655 894.3675236836536 172.2875846149373 895.0693606743802 173.078125 895.767578125 C 173.8686653850628 896.4657955756202 174.6606485224963 897.1605532244556 175.455078125 897.853515625 C 176.2495077275036 898.5464780255439 177.0474116268117 899.2361320915736 177.845703125 899.923828125 C 178.6439946231884 900.6115241584265 179.4439676778832 901.2980504007336 180.24609375 901.98046875 C 181.0482198221169 902.6628870992663 181.8522698007109 903.3424019019358 182.658203125 904.01953125 C 183.464136449289 904.6966605980645 184.2723179952949 905.3711397201799 185.08203125 906.04296875 C 185.8917445047052 906.7147977798199 186.7021591366351 907.3842638554661 187.515625 908.05078125 C 188.3290908633651 908.717298644534 189.1456994747314 909.3798211827944 189.962890625 910.041015625 C 190.7800817752686 910.7022100672053 191.5990327595841 911.361717952165 192.419921875 912.017578125 C 193.240810990416 912.6734382978348 194.0621589911929 913.3260479135776 194.88671875 913.9765625 C 195.711278508807 914.6270770864229 196.538984419558 915.2747641920324 197.3671875 915.919921875 C 198.1953905804421 916.5650795579675 199.0256027946792 917.2078667875293 199.857421875 917.84765625 C 200.6892409553208 918.4874457124707 201.5220141165567 919.1253557000682 202.357421875 919.759765625 C 203.1928296334434 920.3941755499318 204.0301715101904 921.0252778046492 204.869140625 921.654296875 C 205.7081097398095 922.2833159453504 206.5481218505803 922.9095862262725 207.390625 923.533203125 C 208.2331281494196 924.1568200237274 209.0778182627265 924.7782809649377 209.923828125 925.396484375 C 210.7698379872734 926.0146877850627 211.6173076216289 926.6294088956453 212.466796875 927.2421875 C 213.316286128371 927.854966104355 214.1685430522875 928.4649231433947 215.021484375 929.072265625 C 215.8744256977125 929.6796081066053 216.7276183047023 930.2848237081862 217.583984375 930.88671875 C 218.4403504452976 931.4886137918137 219.2984396288734 932.08715746502 220.158203125 932.68359375 C 221.0179666211266 933.2800300349801 221.8810070248005 933.8738775388957 222.744140625 934.46484375 C 223.6072742251994 935.0558099611043 224.4714142424841 935.6449839298137 225.337890625 936.23046875 C 226.2043670075157 936.8159535701861 227.0716144069238 937.3985235127739 227.94140625 937.978515625 C 228.8111980930762 938.5585077372261 229.6835606431197 939.134496287776 230.556640625 939.708984375 C 231.4297206068803 940.2834724622243 232.3033467010718 940.8568085048203 233.1796875 941.42578125 C 234.0560282989281 941.9947539951801 234.9348788307802 942.5596007889064 235.814453125 943.123046875 C 236.6940274192199 943.6864929610933 237.5762039072447 944.2467793900349 238.458984375 944.8046875 C 239.3417648427552 945.3625956099646 240.2253688054655 945.9183443082057 241.111328125 946.470703125 C 241.9972874445344 947.0230619417945 242.8843266504425 947.5723424184182 243.7734375 948.119140625 C 244.6625483495574 948.6659388315816 245.5530774421758 949.2107268456731 246.4453125 949.751953125 C 247.3375475578243 950.2931794043267 248.2316211806652 950.8315444649702 249.126953125 951.3671875 C 249.4816750054634 951.5794041039592 249.8381543800372 951.7886610201114 250.193359375 952 L 272 952 C 283.0799999999999 952 292 943.0800000000005 292 932 L 292 812 C 292 800.9199999999998 283.0799999999999 792 272 792 L 83.345703125 792 z M 332 792 C 320.9200000000001 792 312 800.9199999999997 312 812 L 312 932 C 312 943.0800000000003 320.9200000000001 951.9999999999999 332 952 L 692 952 C 703.0799999999999 952 712 943.0800000000005 712 932 L 712 812 C 712 800.9199999999998 703.0799999999999 792 692 792 L 332 792 z M 752 792 C 740.9199999999998 792 732 800.9199999999997 732 812 L 732 932 C 732 943.0800000000003 740.92 951.9999999999999 752 952 L 773.806640625 952 C 774.1618456199628 951.7886610201112 774.5183249945366 951.5794041039592 774.873046875 951.3671875 C 775.7683788193348 950.8315444649701 776.6624524421757 950.2931794043269 777.5546875 949.751953125 C 778.4469225578242 949.2107268456733 779.3374516504425 948.6659388315817 780.2265625 948.119140625 C 781.1156733495573 947.5723424184182 782.0027125554656 947.0230619417944 782.888671875 946.470703125 C 783.7746311945343 945.9183443082055 784.6582351572448 945.3625956099651 785.541015625 944.8046875 C 786.4237960927552 944.2467793900353 787.3059725807802 943.6864929610934 788.185546875 943.123046875 C 789.0651211692194 942.5596007889066 789.9439717010717 941.9947539951798 790.8203125 941.42578125 C 791.6966532989283 940.8568085048204 792.5702793931198 940.2834724622239 793.443359375 939.708984375 C 794.3164393568806 939.134496287776 795.1888019069238 938.5585077372263 796.05859375 937.978515625 C 796.9283855930761 937.3985235127739 797.7956329924841 936.8159535701861 798.662109375 936.23046875 C 799.528585757516 935.6449839298135 800.3927257748005 935.055809961104 801.255859375 934.46484375 C 802.1189929751998 933.8738775388955 802.9820333788733 933.2800300349801 803.841796875 932.68359375 C 804.7015603711269 932.0871574650201 805.5596495547022 931.4886137918138 806.416015625 930.88671875 C 807.2723816952974 930.2848237081861 808.1255743022874 929.6796081066054 808.978515625 929.072265625 C 809.8314569477127 928.4649231433948 810.6837138716288 927.8549661043547 811.533203125 927.2421875 C 812.3826923783713 926.6294088956452 813.2301620127265 926.0146877850623 814.076171875 925.396484375 C 814.9221817372735 924.7782809649379 815.7668718505804 924.1568200237275 816.609375 923.533203125 C 817.4518781494196 922.9095862262724 818.2918902601904 922.2833159453506 819.130859375 921.654296875 C 819.9698284898096 921.0252778046492 820.8071703665566 920.3941755499318 821.642578125 919.759765625 C 822.4779858834431 919.1253557000686 823.3107590446792 918.4874457124706 824.142578125 917.84765625 C 824.9743972053212 917.2078667875295 825.804609419558 916.5650795579676 826.6328125 915.919921875 C 827.461015580442 915.2747641920321 828.2887214911929 914.6270770864223 829.11328125 913.9765625 C 829.9378410088071 913.3260479135782 830.759189009584 912.6734382978349 831.580078125 912.017578125 C 832.400967240416 911.3617179521649 833.2199182247315 910.7022100672056 834.037109375 910.041015625 C 834.8543005252686 909.3798211827949 835.6709091366349 908.7172986445338 836.484375 908.05078125 C 837.2978408633656 907.3842638554661 838.1082554952947 906.7147977798202 838.91796875 906.04296875 C 839.7276820047048 905.3711397201802 840.535863550711 904.6966605980642 841.341796875 904.01953125 C 842.1477301992887 903.3424019019353 842.9517801778833 902.6628870992663 843.75390625 901.98046875 C 844.5560323221168 901.2980504007335 845.3560053768119 900.6115241584264 846.154296875 899.923828125 C 846.952588373188 899.2361320915734 847.7504922724963 898.546478025544 848.544921875 897.853515625 C 849.3393514775033 897.1605532244557 850.1313346149373 896.4657955756199 850.921875 895.767578125 C 851.712415385063 895.0693606743802 852.5004855291345 894.3675236836535 853.287109375 893.6640625 C 854.0737332208655 892.9606013163462 854.8579450150878 892.2555685996451 855.640625 891.546875 C 856.4233049849123 890.8381814003548 857.2037130727973 890.1260240735945 857.982421875 889.412109375 C 858.7611306772025 888.698194676405 859.539742827263 887.9827963555018 860.314453125 887.263671875 C 861.089163422737 886.5445473944984 861.8601749034851 885.821979195367 862.630859375 885.09765625 C 863.4015438465148 884.3733333046329 864.1708686764633 883.64552571819 864.9375 882.916015625 C 865.7041313235364 882.1865055318095 866.4679178961979 881.4553890489711 867.23046875 880.720703125 C 867.9930196038018 879.9860172010285 868.7552288126888 879.2476629377101 869.513671875 878.5078125 C 870.2721149373114 877.7679620622896 871.0269420509355 877.0262536344069 871.78125 876.28125 C 872.5355579490646 875.5362463655932 873.2889169859386 874.7892080140613 874.0390625 874.0390625 C 874.789208014061 873.2889169859385 875.5362463655933 872.5355579490645 876.28125 871.78125 C 877.026253634407 871.0269420509355 877.7679620622902 870.2721149373114 878.5078125 869.513671875 C 879.2476629377102 868.7552288126886 879.9860172010287 867.9930196038019 880.720703125 867.23046875 C 881.4553890489708 866.4679178961977 882.1865055318098 865.7041313235366 882.916015625 864.9375 C 883.6455257181905 864.1708686764628 884.3733333046329 863.4015438465145 885.09765625 862.630859375 C 885.8219791953669 861.8601749034852 886.5445473944982 861.0891634227368 887.263671875 860.314453125 C 887.9827963555017 859.5397428272628 888.6981946764056 858.7611306772025 889.412109375 857.982421875 C 890.126024073595 857.2037130727973 890.838181400355 856.4233049849122 891.546875 855.640625 C 892.2555685996449 854.8579450150881 892.9606013163464 854.0737332208655 893.6640625 853.287109375 C 894.3675236836535 852.5004855291343 895.0693606743799 851.7124153850626 895.767578125 850.921875 C 896.4657955756201 850.1313346149373 897.1605532244557 849.3393514775037 897.853515625 848.544921875 C 898.546478025544 847.7504922724967 899.2361320915736 846.9525883731883 899.923828125 846.154296875 C 900.6115241584263 845.3560053768113 901.2980504007337 844.5560323221168 901.98046875 843.75390625 C 902.6628870992662 842.9517801778834 903.3424019019358 842.147730199289 904.01953125 841.341796875 C 904.6966605980647 840.5358635507109 905.3711397201798 839.7276820047051 906.04296875 838.91796875 C 906.7147977798202 838.1082554952944 907.384263855466 837.2978408633647 908.05078125 836.484375 C 908.7172986445341 835.6709091366353 909.3798211827947 834.8543005252685 910.041015625 834.037109375 C 910.7022100672053 833.2199182247315 911.361717952165 832.400967240416 912.017578125 831.580078125 C 912.6734382978349 830.7591890095842 913.3260479135777 829.9378410088074 913.9765625 829.11328125 C 914.6270770864221 828.288721491193 915.2747641920324 827.4610155804421 915.919921875 826.6328125 C 916.5650795579674 825.804609419558 917.2078667875294 824.9743972053209 917.84765625 824.142578125 C 918.487445712471 823.3107590446791 919.1253557000682 822.4779858834431 919.759765625 821.642578125 C 920.394175549932 820.8071703665563 921.0252778046491 819.9698284898096 921.654296875 819.130859375 C 922.2833159453506 818.2918902601903 922.9095862262725 817.4518781494196 923.533203125 816.609375 C 924.1568200237276 815.7668718505805 924.7782809649377 814.9221817372734 925.396484375 814.076171875 C 926.0146877850619 813.2301620127261 926.6294088956452 812.3826923783712 927.2421875 811.533203125 C 927.8549661043554 810.6837138716293 928.4649231433947 809.8314569477125 929.072265625 808.978515625 C 929.6796081066055 808.1255743022875 930.2848237081863 807.2723816952977 930.88671875 806.416015625 C 931.4886137918137 805.5596495547024 932.0871574650199 804.7015603711266 932.68359375 803.841796875 C 933.28003003498 802.9820333788736 933.8738775388958 802.1189929751995 934.46484375 801.255859375 C 935.0558099611043 800.3927257748011 935.6449839298136 799.528585757516 936.23046875 798.662109375 C 936.815953570186 797.7956329924841 937.3985235127736 796.9283855930762 937.978515625 796.05859375 C 938.558507737226 795.1888019069239 939.1344962877757 794.3164393568802 939.708984375 793.443359375 C 940.0251654443749 792.9628422529571 940.3397856720665 792.4815067077378 940.654296875 792 L 752 792 z M 287.181640625 972 C 287.3211032372144 972.0681565683848 287.460086685188 972.1370492912516 287.599609375 972.205078125 C 288.5354289460793 972.6613674504512 289.4736027437534 973.115869924477 290.412109375 973.56640625 C 291.3506160062464 974.016942575524 292.2893023803422 974.463431116448 293.23046875 974.908203125 C 294.1716351196575 975.3529751335519 295.1147949636876 975.79537862546 296.05859375 976.234375 C 297.0023925363125 976.6733713745399 297.948127368789 977.109759326515 298.89453125 977.54296875 C 299.8409351312109 977.9761781734841 300.7873464706467 978.406573219612 301.736328125 978.833984375 C 302.6853097793535 979.2613955303871 303.6363585192601 979.685820304752 304.587890625 980.107421875 C 305.5394227307395 980.5290234452481 306.4912572646306 980.947500581933 307.4453125 981.36328125 C 308.3993677353694 981.779061918068 309.3559489567568 982.191614051156 310.3125 982.6015625 C 311.2690510432431 983.011510948844 312.2265273456394 983.418160712422 313.185546875 983.822265625 C 314.1445664043607 984.2263705375789 315.1049455562781 984.627140565729 316.06640625 985.025390625 C 317.0278669437222 985.4236406842714 317.989250463673 985.820506736079 318.953125 986.212890625 C 319.9169995363268 986.6052745139222 320.8833483178239 986.994352973471 321.849609375 987.380859375 C 322.8158704321759 987.7673657765291 323.7833328687317 988.150632402904 324.751953125 988.53125 C 325.7205733812686 988.9118675970949 326.6892041163952 989.289345024381 327.66015625 989.6640625 C 328.6311083836047 990.0387799756199 329.6048683108151 990.410490837899 330.578125 990.779296875 C 331.551381689185 991.1481029121011 332.5244660769911 991.514069843459 333.5 991.876953125 C 334.4755339230088 992.2398364065419 335.4519036649234 992.600082041061 336.4296875 992.95703125 C 337.4074713350767 993.313980458939 338.3871810746118 993.668527430706 339.3671875 994.01953125 C 340.3471939253882 994.3705350692949 341.3283451810566 994.717452887392 342.310546875 995.0625 C 343.2927485689436 995.4075471126083 344.2753959842574 995.75076466112 345.259765625 996.08984375 C 346.2441352657423 996.42892283888 347.2302866092147 996.7645565018911 348.216796875 997.09765625 C 349.2033071407853 997.430755998109 350.1910639309278 997.7607815347039 351.1796875 998.087890625 C 352.1683110690719 998.414999715295 353.1577279493976 998.739439759559 354.1484375 999.060546875 C 355.1391470506024 999.3816539904402 356.1302786646235 999.698578051456 357.123046875 1000.013671875 C 358.1158150853767 1000.328765698544 359.1106692016054 1000.642102660395 360.10546875 1000.951171875 C 361.1002682983945 1001.260241089605 362.0949933103436 1001.566107336377 363.091796875 1001.869140625 C 364.0886004396564 1002.172173913623 365.0871572408382 1002.4725452044 366.0859375 1002.76953125 C 367.0847177591617 1003.0665172956 368.0852078680886 1003.359463139466 369.0859375 1003.650390625 C 370.086667131911 1003.941318110534 371.0871920670958 1004.228814266573 372.08984375 1004.513671875 C 373.0924954329043 1004.798529483426 374.0970160878588 1005.080598585723 375.1015625 1005.359375 C 376.1061089121411 1005.638151414277 377.1107736803783 1005.914816096915 378.1171875 1006.1875 C 379.1236013196216 1006.460183903085 380.1304179696537 1006.729513675149 381.138671875 1006.99609375 C 382.1469257803463 1007.262673824851 383.1559489556856 1007.526644445425 384.166015625 1007.787109375 C 385.1760822943146 1008.047574304575 386.1873666384734 1008.304255282744 387.19921875 1008.55859375 C 388.2110708615264 1008.812932217257 389.2246710180178 1009.064299312103 390.23828125 1009.3125 C 391.2518914819821 1009.560700687896 392.2659089693182 1009.804823408506 393.28125 1010.046875 C 394.2965910306818 1010.288926591494 395.313033617375 1010.52973382195 396.330078125 1010.765625 C 397.3471226326252 1011.001516178049 398.3640918371877 1011.233171177437 399.3828125 1011.462890625 C 400.4015331628122 1011.692610072563 401.4210367537569 1011.919041724966 402.44140625 1012.142578125 C 403.4617757462431 1012.366114525034 404.4838683670823 1012.587345464537 405.505859375 1012.8046875 C 406.5278503829178 1013.022029535464 407.5506335521638 1013.23612927115 408.57421875 1013.447265625 C 409.5978039478362 1013.658401978851 410.6213323090015 1013.865393144805 411.646484375 1014.0703125 C 412.6716364409983 1014.275231855196 413.6979177625955 1014.477090210501 414.724609375 1014.67578125 C 415.7513009874045 1014.874472289498 416.7784367879457 1015.071220468241 417.806640625 1015.263671875 C 418.8348444620541 1015.456123281759 419.8648425100522 1015.645830793022 420.89453125 1015.83203125 C 421.924219989948 1016.018231706978 422.9551818039147 1016.200921184846 423.986328125 1016.380859375 C 425.0174744460851 1016.560797565155 426.0494546695337 1016.736491643711 427.08203125 1016.91015625 C 428.1146078304662 1017.083820856289 429.1476611069087 1017.254495294619 430.181640625 1017.421875 C 431.2156201430915 1017.58925470538 432.24980111604 1017.754932137569 433.28515625 1017.916015625 C 434.32051138396 1018.077099112431 435.3558746969275 1018.233895922561 436.392578125 1018.388671875 C 437.4292815530724 1018.543447827438 438.4678349745713 1018.695292899595 439.505859375 1018.84375 C 440.5438837754285 1018.992207100405 441.5817756989714 1019.137169943671 442.62109375 1019.279296875 C 443.6604118010288 1019.421423806329 444.6996499951275 1019.561480179789 445.740234375 1019.697265625 C 446.7808187548724 1019.833051070211 447.8234109880398 1019.96431735795 448.865234375 1020.09375 C 449.9070577619602 1020.223182642049 450.9491524277085 1020.349587728152 451.9921875 1020.47265625 C 453.0352225722916 1020.595724771848 454.0788274391334 1020.715338165397 455.123046875 1020.83203125 C 456.1672663108664 1020.948724334604 457.2124360223145 1021.063521794684 458.2578125 1021.173828125 C 459.3031889776856 1021.284134455317 460.3480250522516 1021.390232366013 461.39453125 1021.494140625 C 462.4410374477483 1021.598048883988 463.4895007789452 1021.69937612938 464.537109375 1021.796875 C 465.5847179710546 1021.894373870617 466.6329569523949 1021.9889999598 467.681640625 1022.080078125 C 468.730324297605 1022.171156290203 469.7783935726008 1022.25910385725 470.828125 1022.34375 C 471.8778564273992 1022.428396142749 472.9277637645631 1022.50968782175 473.978515625 1022.587890625 C 475.0292674854369 1022.666093428251 476.0810675282814 1022.74075185329 477.1328125 1022.8125 C 478.1845574717184 1022.884248146712 479.2363517387561 1022.95229595187 480.2890625 1023.017578125 C 481.3417732612441 1023.082860298131 482.3955695209868 1023.14432011749 483.44921875 1023.203125 C 484.5028679790132 1023.261929882507 485.5567677499739 1023.31877747516 486.611328125 1023.37109375 C 487.6658885000262 1023.423410024844 488.7218995507171 1023.47176177487 489.77734375 1023.517578125 C 490.832787949283 1023.563394475136 491.8870586732166 1023.60717926662 492.943359375 1023.646484375 C 493.9996600767831 1023.685789483384 495.0561513674723 1023.72112370041 496.11328125 1023.75390625 C 497.1704111325276 1023.78668879959 498.2291776334842 1023.81554820124 499.287109375 1023.841796875 C 500.1914001671518 1023.864233515339 501.0951418537165 1023.884688661194 502 1023.90234375 L 502 992 C 502 980.92 493.0799999999999 971.9999999999999 482 972 L 287.181640625 972 z M 542 972 C 530.9199999999998 972 522 980.92 522 992 L 522 1023.90234375 C 522.9048581462833 1023.884688661194 523.8085998328481 1023.864233515339 524.712890625 1023.841796875 C 525.7708223665157 1023.81554820125 526.8295888674722 1023.78668879959 527.88671875 1023.75390625 C 528.9438486325274 1023.721123700406 530.0003399232164 1023.68578948338 531.056640625 1023.646484375 C 532.1129413267834 1023.607179266614 533.167212050717 1023.56339447513 534.22265625 1023.517578125 C 535.278100449283 1023.471761774866 536.3341114999738 1023.42341002484 537.388671875 1023.37109375 C 538.4432322500259 1023.318777475158 539.4971320209869 1023.26192988251 540.55078125 1023.203125 C 541.6044304790131 1023.144320117493 542.6582267387562 1023.08286029813 543.7109375 1023.017578125 C 544.7636482612437 1022.952295951869 545.8154425282816 1022.88424814671 546.8671875 1022.8125 C 547.9189324717187 1022.740751853288 548.9707325145631 1022.66609342825 550.021484375 1022.587890625 C 551.0722362354371 1022.509687821749 552.1221435726009 1022.42839614275 553.171875 1022.34375 C 554.2216064273994 1022.259103857251 555.269675702395 1022.1711562902 556.318359375 1022.080078125 C 557.3670430476051 1021.988999959796 558.4152820289452 1021.89437387062 559.462890625 1021.796875 C 560.5104992210544 1021.699376129383 561.5589625522516 1021.598048883988 562.60546875 1021.494140625 C 563.6519749477485 1021.390232366013 564.6968110223144 1021.284134455317 565.7421875 1021.173828125 C 566.7875639776859 1021.063521794684 567.8327336891334 1020.948724334603 568.876953125 1020.83203125 C 569.9211725608665 1020.715338165397 570.9647774277083 1020.595724771847 572.0078125 1020.47265625 C 573.0508475722914 1020.349587728152 574.0929422380398 1020.223182642051 575.134765625 1020.09375 C 576.1765890119601 1019.96431735795 577.2191812451275 1019.833051070212 578.259765625 1019.697265625 C 579.3003500048727 1019.561480179789 580.3395881989711 1019.421423806329 581.37890625 1019.279296875 C 582.418224301029 1019.137169943672 583.4561162245712 1018.992207100405 584.494140625 1018.84375 C 585.5321650254285 1018.695292899595 586.5707184469276 1018.543447827439 587.607421875 1018.388671875 C 588.6441253030722 1018.233895922561 589.67948861604 1018.077099112431 590.71484375 1017.916015625 C 591.75019888396 1017.754932137569 592.7843798569088 1017.589254705381 593.818359375 1017.421875 C 594.8523388930912 1017.25449529462 595.8853921695337 1017.083820856289 596.91796875 1016.91015625 C 597.9505453304661 1016.736491643711 598.9825255539148 1016.560797565154 600.013671875 1016.380859375 C 601.0448181960854 1016.200921184846 602.0757800100522 1016.018231706978 603.10546875 1015.83203125 C 604.1351574899479 1015.645830793022 605.1651555379458 1015.456123281759 606.193359375 1015.263671875 C 607.2215632120542 1015.071220468241 608.2486990125954 1014.874472289498 609.275390625 1014.67578125 C 610.3020822374045 1014.477090210501 611.3283635590014 1014.275231855196 612.353515625 1014.0703125 C 613.3786676909983 1013.865393144805 614.402196052164 1013.65840197885 615.42578125 1013.447265625 C 616.4493664478362 1013.23612927115 617.4721496170823 1013.022029535464 618.494140625 1012.8046875 C 619.5161316329178 1012.587345464537 620.538224253757 1012.366114525034 621.55859375 1012.142578125 C 622.578963246243 1011.919041724966 623.5984668371881 1011.692610072564 624.6171875 1011.462890625 C 625.6359081628124 1011.233171177437 626.6528773673751 1011.00151617805 627.669921875 1010.765625 C 628.6869663826251 1010.52973382195 629.703408969318 1010.288926591494 630.71875 1010.046875 C 631.734091030682 1009.804823408506 632.7481085180177 1009.560700687896 633.76171875 1009.3125 C 634.7753289819822 1009.064299312104 635.7889291384737 1008.812932217257 636.80078125 1008.55859375 C 637.8126333615264 1008.304255282743 638.8239177056855 1008.047574304574 639.833984375 1007.787109375 C 640.8440510443144 1007.526644445425 641.8530742196536 1007.262673824851 642.861328125 1006.99609375 C 643.8695820303458 1006.729513675149 644.8763986803782 1006.460183903085 645.8828125 1006.1875 C 646.8892263196218 1005.914816096915 647.8938910878589 1005.638151414277 648.8984375 1005.359375 C 649.9029839121407 1005.080598585723 650.9075045670955 1004.798529483427 651.91015625 1004.513671875 C 652.9128079329042 1004.228814266574 653.9133328680889 1003.941318110535 654.9140625 1003.650390625 C 655.9147921319112 1003.359463139466 656.9152822408381 1003.0665172956 657.9140625 1002.76953125 C 658.9128427591617 1002.4725452044 659.9113995603435 1002.172173913623 660.908203125 1001.869140625 C 661.9050066896561 1001.566107336377 662.8997317016056 1001.260241089605 663.89453125 1000.951171875 C 664.8893307983947 1000.642102660396 665.8841849146233 1000.328765698544 666.876953125 1000.013671875 C 667.8697213353765 999.6985780514559 668.8608529493974 999.381653990441 669.8515625 999.060546875 C 670.8422720506023 998.7394397595591 671.8316889309278 998.4149997152961 672.8203125 998.087890625 C 673.8089360690717 997.7607815347047 674.7966928592148 997.4307559981089 675.783203125 997.09765625 C 676.7697133907853 996.764556501891 677.7558647342573 996.4289228388791 678.740234375 996.08984375 C 679.7246040157427 995.7507646611215 680.7072514310564 995.407547112608 681.689453125 995.0625 C 682.6716548189435 994.7174528873915 683.652806074612 994.370535069295 684.6328125 994.01953125 C 685.6128189253881 993.6685274307054 686.5925286649233 993.313980458939 687.5703125 992.95703125 C 688.5480963350772 992.6000820410607 689.5244660769913 992.239836406541 690.5 991.876953125 C 691.4755339230087 991.5140698434594 692.4486183108149 991.148102912102 693.421875 990.779296875 C 694.3951316891847 990.4104908378993 695.3688916163951 990.0387799756199 696.33984375 989.6640625 C 697.3107958836046 989.2893450243809 698.2794266187317 988.911867597096 699.248046875 988.53125 C 700.2166671312683 988.1506324029048 701.1841295678242 987.76736577653 702.150390625 987.380859375 C 703.1166516821756 986.9943529734702 704.0830004636731 986.605274513922 705.046875 986.212890625 C 706.0107495363274 985.8205067360791 706.972133056278 985.423640684271 707.93359375 985.025390625 C 708.8950544437214 984.6271405657288 709.8554335956394 984.226370537579 710.814453125 983.822265625 C 711.7734726543606 983.4181607124219 712.7309489567568 983.011510948844 713.6875 982.6015625 C 714.6440510432435 982.191614051156 715.6006322646305 981.779061918068 716.5546875 981.36328125 C 717.5087427353695 980.9475005819326 718.4605772692604 980.529023445249 719.412109375 980.107421875 C 720.3636414807397 979.6858203047519 721.3146902206468 979.261395530388 722.263671875 978.833984375 C 723.2126535293528 978.4065732196132 724.1590648687892 977.976178173485 725.10546875 977.54296875 C 726.0518726312112 977.1097593265159 726.9976074636875 976.673371374539 727.94140625 976.234375 C 728.8852050363125 975.7953786254599 729.8283648803424 975.3529751335529 730.76953125 974.908203125 C 731.7106976196576 974.4634311164481 732.6493839937534 974.016942575522 733.587890625 973.56640625 C 734.5263972562465 973.1158699244774 735.4645710539207 972.661367450452 736.400390625 972.205078125 C 736.539913314812 972.1370492912515 736.6788967627856 972.0681565683849 736.818359375 972 L 542 972 z "
       id="path4363"
       transform="translate(0,28.362161)" />
  </g>
</svg>
