<?xml version="1.0" encoding="UTF-8" standalone="no"?>
<svg width="108px" height="108px" viewBox="0 0 108 108" version="1.1" xmlns="http://www.w3.org/2000/svg" xmlns:xlink="http://www.w3.org/1999/xlink">
    <!-- Generator: Sketch 3.8.3 (29802) - http://www.bohemiancoding.com/sketch -->
    <title>globe</title>
    <desc>Created with Sketch.</desc>
    <defs>
        <path d="M107.345,59.096 C104.424,88.491 78.231,109.95 48.836,107.029 C19.449,104.11 -2.012,77.917 0.91,48.521 C3.83,19.125 30.025,-2.331 59.411,0.589 C88.807,3.51 110.266,29.7 107.345,59.096 L107.345,59.096 Z" id="path-1"></path>
    </defs>
    <g id="Page-1" stroke="none" stroke-width="1" fill="none" fill-rule="evenodd">
        <g id="globe">
            <path d="M107.606,53.808 C107.606,83.348 83.663,107.291 54.123,107.291 C24.592,107.291 0.647,83.348 0.647,53.808 C0.647,24.268 24.591,0.328 54.123,0.328 C83.663,0.327 107.606,24.268 107.606,53.808 L107.606,53.808 Z" id="globe_8_" fill="#4CB4D9"></path>
            <g id="Clipped">
                <mask id="mask-2" fill="white">
                    <use xlink:href="#path-1"></use>
                </mask>
                <g id="globe_1_"></g>
                <path d="M40.18,64.301 C40.268,64.407 40.309,64.545 40.295,64.683 L39.818,69.483 C39.804,69.621 39.736,69.747 39.63,69.835 L32.728,75.489 L32.626,76.51 C32.612,76.649 32.545,76.775 32.438,76.862 L23.766,83.967 L23.555,86.086 C23.541,86.225 23.475,86.351 23.367,86.439 L22.457,87.184 L22.151,90.26 C22.123,90.546 21.867,90.755 21.581,90.727 L20.469,90.616 C20.331,90.603 20.204,90.536 20.117,90.429 L18.063,87.922 C17.975,87.814 17.933,87.676 17.948,87.537 L19.292,74.412 C19.321,74.126 19.575,73.918 19.861,73.945 L20.947,74.051 L21.298,70.529 L16.99,65.27 C16.902,65.164 16.86,65.026 16.874,64.888 L17.35,60.109 C17.363,59.971 17.431,59.845 17.538,59.757 L19.809,57.896 L17.801,57.697 C17.662,57.684 17.535,57.616 17.447,57.509 L14.867,54.358 L11.756,54.049 C11.624,54.035 11.504,53.974 11.416,53.875 L3.062,44.433 L1.293,44.271 C1.151,44.253 1.027,44.19 0.939,44.083 C0.851,43.977 0.809,43.838 0.822,43.699 L1.042,41.493 L-0.891,39.209 C-0.983,39.101 -1.026,38.961 -1.012,38.821 L-0.361,32.265 L-7.499,23.138 L-10.025,22.887 L-13.048,25.365 C-13.271,25.547 -13.599,25.514 -13.781,25.292 L-16.911,21.472 C-16.999,21.365 -17.041,21.228 -17.027,21.09 L-16.683,17.638 L-17.931,16.116 C-18.018,16.009 -18.06,15.871 -18.046,15.733 L-17.588,11.123 C-17.574,10.986 -17.506,10.86 -17.4,10.772 L-15.121,8.905 C-15.014,8.817 -14.876,8.776 -14.738,8.79 L-9.956,9.265 C-9.818,9.28 -9.691,9.347 -9.603,9.453 L-9.074,10.099 L-5.866,10.418 C-5.713,10.433 -5.574,10.515 -5.487,10.643 L-4.633,11.888 L4.51,12.796 C4.643,12.809 4.767,12.874 4.855,12.977 L7.708,16.317 L9.677,16.512 L10.781,15.241 C10.888,15.117 11.049,15.052 11.213,15.063 C11.376,15.076 11.525,15.164 11.613,15.301 L12.575,16.799 L14.224,16.963 L16.781,14.869 C16.988,14.698 17.291,14.713 17.48,14.903 L18.828,16.25 L20.416,15.049 C20.626,14.89 20.922,14.912 21.104,15.102 L23.101,17.169 C23.208,17.279 23.261,17.431 23.246,17.583 L23.036,19.697 C23.022,19.834 22.955,19.959 22.849,20.047 L17.268,24.679 L16.986,27.516 L17.789,27.595 C17.928,27.609 18.054,27.677 18.141,27.783 L21.338,31.685 L22.652,31.816 L23.448,23.81 C23.476,23.524 23.731,23.315 24.018,23.343 L25.604,23.5 C25.742,23.514 25.869,23.581 25.957,23.688 L33.039,32.334 C33.127,32.441 33.168,32.579 33.154,32.716 C33.14,32.854 33.072,32.98 32.966,33.069 L26.101,38.693 C25.994,38.78 25.857,38.822 25.719,38.808 L25.544,38.79 L25.454,39.692 C25.44,39.83 25.373,39.956 25.266,40.044 L23.762,41.276 L23.645,42.448 C23.631,42.586 23.564,42.713 23.457,42.802 L20.882,44.91 L22.112,46.412 C22.2,46.518 22.241,46.655 22.227,46.794 L22.117,47.902 C22.089,48.188 21.834,48.398 21.547,48.37 L19.153,48.133 C19.016,48.119 18.889,48.051 18.801,47.945 L17.182,45.968 L13.795,45.631 C13.148,45.568 12.843,46.332 12.78,46.514 L12.498,49.35 C12.498,49.357 12.496,49.363 12.496,49.368 C12.496,49.368 12.456,49.749 12.66,50.002 C12.779,50.148 12.97,50.233 13.243,50.261 C13.518,50.288 13.625,50.199 13.66,50.171 C13.826,50.031 13.861,49.764 13.862,49.761 C13.874,49.622 13.941,49.492 14.049,49.405 C14.156,49.315 14.295,49.272 14.434,49.286 L17.276,49.569 C17.562,49.597 17.771,49.853 17.743,50.139 L17.482,52.767 L19.261,54.939 L30.842,56.089 C30.98,56.103 31.106,56.17 31.194,56.277 L35.775,61.867 L38.186,62.107 C38.324,62.121 38.451,62.188 38.538,62.295 L40.18,64.301 L40.18,64.301 Z M54.573,13.157 C54.573,13.157 54.896,12.814 54.75,12.539 C54.604,12.263 53.355,11.446 53.355,11.446 C53.355,11.446 53.162,11.254 52.855,11.531 L51.035,13.163 L49.863,9.422 C49.863,9.422 49.767,9.036 49.223,9.068 L47.244,9.199 L43.776,8.007 C43.776,8.007 43.418,7.826 42.853,7.974 C42.289,8.12 37,9.938 37,9.938 L32.011,9.442 C31.873,9.428 31.736,9.47 31.629,9.557 L29.053,11.667 C28.946,11.754 28.878,11.882 28.865,12.02 L28.57,14.984 C28.542,15.271 28.752,15.526 29.038,15.555 L32.453,15.894 L34.059,17.856 C34.147,17.962 34.274,18.031 34.412,18.045 L35.177,18.172 C35.177,18.172 34.975,18.32 34.805,18.459 L34.156,18.99 C34.049,19.079 33.981,19.205 33.968,19.343 C33.954,19.48 33.995,19.617 34.083,19.726 L38.693,25.352 C38.78,25.458 38.906,25.527 39.044,25.54 L40.069,25.642 C40.356,25.67 40.611,25.461 40.639,25.174 L40.769,23.868 L42.922,24.082 C43.06,24.096 43.196,24.055 43.303,23.967 L45.35,22.29 L47.383,22.492 L47.743,22.524 L50.929,19.285 C50.929,19.285 51.21,19.071 51.25,18.671 C51.29,18.271 51.294,15.899 51.294,15.899 L54.573,13.157 L54.573,13.157 Z M148.08,96.215 C148.033,95.95 147.635,95.943 147.635,95.943 C147.159,95.849 146.992,95.609 146.992,95.609 L146.135,94.733 C145.781,94.382 145.537,94.54 145.537,94.54 C145.32,94.687 145.339,95.176 145.339,95.176 L145.371,96.981 C145.373,97.281 145.126,97.488 145.126,97.488 L141.42,100.878 C141.42,100.878 140.888,101.281 141.445,101.492 L143.25,101.844 C143.25,101.844 143.488,101.871 143.734,101.612 L146.281,98.484 L147.917,96.68 C147.917,96.678 148.129,96.496 148.08,96.215 L148.08,96.215 Z M131.469,86.353 L128.965,83.405 C128.607,82.963 128.4,82.501 128.4,82.501 L127.128,79.593 C126.971,79.273 126.694,79.289 126.694,79.289 C126.447,79.302 126.364,79.704 126.364,79.704 L125.991,81.566 C125.907,81.878 125.53,81.685 125.53,81.685 L123.339,80.647 C123.065,80.504 123.154,80.262 123.154,80.262 L123.61,79.123 C123.767,78.665 123.335,78.555 123.335,78.555 L120.938,78.128 C120.541,78.054 120.297,78.272 120.297,78.272 L116.191,81.418 C115.851,81.64 115.522,81.693 115.522,81.693 L112.121,82.56 C111.33,82.751 111.422,83.551 111.422,83.551 L111.805,88.489 C111.805,88.489 111.87,88.86 111.711,89.2 L111.432,89.817 C111.432,89.817 111.299,90.073 111.535,90.249 L112.594,91.02 C112.594,91.02 112.839,91.214 113.199,91.163 L119.252,90.267 C119.252,90.267 119.603,90.213 119.858,90.379 L121.673,91.705 C121.673,91.705 121.957,91.972 122.31,91.841 L122.898,91.603 C122.898,91.603 123.336,91.487 123.436,91.932 L123.821,93.673 C123.821,93.673 123.863,93.928 124.186,94.067 L126.693,95.039 C126.693,95.039 127.087,95.252 127.523,95.025 L129.424,94.038 C129.424,94.038 129.834,93.79 129.995,93.234 L131.693,87.323 C131.841,86.701 131.469,86.353 131.469,86.353 L131.469,86.353 Z M84.537,74.806 C84.41,74.137 83.82,74.467 83.82,74.467 L81.215,76.114 C81.004,76.252 80.952,76.584 80.952,76.584 L80.443,80.717 C80.443,80.717 80.381,80.98 80.596,81.109 L81.926,81.849 C81.926,81.849 82.236,81.996 82.394,81.693 L84.564,77.055 C84.564,77.055 84.73,76.734 84.714,76.413 L84.537,74.806 L84.537,74.806 Z M153.053,35.11 L152.028,31.156 C151.868,30.577 151.478,30.582 151.478,30.582 L130.236,28.355 C129.667,28.277 129.047,28.01 129.047,28.01 L117.255,23.203 C116.506,22.883 115.832,22.974 115.832,22.974 L85.782,25.793 C85.101,25.851 84.512,25.569 84.512,25.569 L74.374,21.962 C74.281,21.934 73.868,22.095 73.868,22.095 L70.222,23.543 C69.781,23.711 69.598,23.992 69.598,23.992 L68.108,25.888 C67.89,26.145 67.644,26.284 67.644,26.284 L66.001,27.201 C65.774,27.343 65.648,27.639 65.648,27.639 L65.131,29 C64.961,29.401 65.149,29.565 65.149,29.565 L65.87,30.263 C65.87,30.263 66.136,30.501 66.571,30.294 L68.342,29.517 C68.342,29.517 68.687,29.396 68.765,29.779 L68.926,30.702 C69.006,31.164 68.697,31.267 68.697,31.267 L59.356,34.855 C59.091,34.972 59.109,35.169 59.109,35.169 C59.093,35.413 59.401,35.563 59.401,35.563 L60.294,36.107 C60.294,36.107 60.681,36.337 60.59,36.662 L60.247,37.785 C60.111,38.139 59.722,38.051 59.722,38.051 L57.158,37.658 C57.158,37.658 56.576,37.477 56.388,38.124 L55.833,40.46 C55.833,40.46 55.726,40.859 56.026,40.99 L58.504,42.016 C58.504,42.016 58.957,42.254 59.389,42.034 L64.796,38.655 C65.309,38.302 65.716,38.714 65.716,38.714 L68.653,41.175 C68.653,41.175 68.883,41.381 69.255,41.331 L70.103,41.15 C70.56,41.065 70.638,41.39 70.638,41.39 L71.361,43.632 C71.503,44.05 71.929,44.267 72.615,43.598 C73.033,43.19 73.443,43.346 73.443,43.346 L77.857,44.334 C78.905,44.555 78.472,45.216 78.472,45.216 C78.472,45.216 77.195,47.596 76.768,48.016 C76.34,48.437 75.753,48.127 75.753,48.127 L71.994,46.753 C71.715,46.649 71.491,46.971 71.491,46.971 L70.315,48.329 C70.086,48.586 69.783,48.343 69.783,48.343 L66.787,45.912 C66.522,45.682 66.482,45.461 66.482,45.461 L66.165,43.289 C66.111,42.893 65.659,42.935 65.659,42.935 L57.067,43.791 C56.454,43.872 56.243,44.202 56.243,44.202 L51.508,48.918 C51.216,49.189 51.145,49.52 51.145,49.52 L49.592,56.756 C49.592,56.756 49.513,57.031 49.655,57.23 L53.831,62.167 C53.831,62.167 54.019,62.408 54.41,62.423 L62.639,62.694 C62.639,62.694 63.028,62.674 63.129,63.054 L64.828,70.935 C64.828,70.935 64.91,71.129 64.776,71.529 L63.468,75.495 C63.468,75.495 63.368,75.717 63.482,76.141 L66.539,86.25 C66.539,86.25 66.627,86.524 66.954,86.51 L71.358,86.125 C71.358,86.125 71.565,86.095 71.722,85.879 L76.779,77.723 C76.967,77.434 77.232,77.287 77.232,77.287 L79.515,75.845 C79.515,75.845 79.783,75.695 79.795,75.361 L79.703,69.531 C79.709,69.231 79.935,69.091 79.935,69.091 L84.594,65.668 C84.594,65.668 84.824,65.498 84.921,65.243 L86.424,61.424 C86.516,61.173 86.458,60.985 86.248,60.857 C86.033,60.728 85.607,60.9 85.607,60.9 L82.295,62.075 C81.841,62.203 81.719,61.758 81.719,61.758 L77.729,49.607 C77.746,49.344 77.891,49.273 77.891,49.273 L78.593,48.973 C78.976,48.83 79.201,49.258 79.201,49.258 L82.224,56.899 C82.462,57.551 83.087,57.23 83.087,57.23 L90.397,53.82 C91.131,53.481 90.616,53.004 90.616,53.004 L88.888,51.386 C88.562,51.042 88.214,51.196 88.214,51.196 L86.755,51.753 C86.249,51.971 86.162,51.535 86.162,51.535 L85.368,48.975 C85.242,48.565 85.485,48.517 85.485,48.517 L86.027,48.303 C86.298,48.2 86.533,48.447 86.533,48.447 L87.54,49.53 C87.856,49.91 88.145,49.982 88.145,49.982 L93.662,51.593 C94.162,51.73 94.288,51.987 94.288,51.987 L96.152,54.696 C96.362,54.993 96.506,55.346 96.506,55.346 L98,60.695 C98,60.695 98.1,61.145 98.298,61.187 C98.496,61.228 98.672,61.065 98.672,61.065 L99.964,59.985 C100.303,59.709 100.271,59.381 100.271,59.381 L100.401,57.86 C100.437,57.349 100.855,57.217 100.855,57.217 L105.527,54.666 C105.999,54.423 106.15,54.872 106.15,54.872 L107.227,58.002 C107.403,58.488 107.77,58.433 107.77,58.433 L108.497,58.324 C108.915,58.264 108.929,58.779 108.929,58.779 C108.929,58.779 108.874,61.232 108.844,62.04 C108.815,62.847 109.358,62.844 109.358,62.844 L111.42,62.983 C111.85,63.018 111.988,63.228 111.988,63.228 L113.32,64.952 C113.604,65.305 113.927,65.098 113.927,65.098 L115.766,63.849 C116.207,63.553 115.97,63.174 115.97,63.174 C115.97,63.174 114.614,60.739 114.437,60.404 C114.261,60.068 114.446,59.805 114.446,59.805 C114.446,59.805 115.08,58.97 115.281,58.687 C115.482,58.404 115.774,58.455 115.774,58.455 L119.897,58.662 C120.391,58.711 120.575,58.418 120.575,58.418 L122.755,55.207 C123.041,54.845 122.918,54.437 122.918,54.437 L121.979,50.595 C121.856,50.156 122.088,50.006 122.088,50.006 L123.673,48.61 C124.044,48.292 124.244,48.608 124.244,48.608 C124.244,48.608 124.994,49.818 125.165,50.066 C125.336,50.315 125.336,50.522 125.336,50.522 C125.336,50.522 125.488,52.029 125.543,52.498 C125.598,52.966 125.876,52.856 125.876,52.856 C125.876,52.856 126.698,52.511 127.082,52.368 C127.465,52.225 127.375,51.963 127.375,51.963 L127.069,49.872 C126.962,49.348 127.221,49.136 127.221,49.136 C127.221,49.136 128.087,48.137 128.399,47.763 C128.711,47.39 128.888,47.429 128.888,47.429 L130.621,47.305 C131.292,47.313 131.422,46.957 131.422,46.957 L134.167,41.651 C134.505,41.014 134.224,40.782 134.224,40.782 L132.228,38.957 C131.974,38.705 132.272,38.536 132.272,38.536 L135.466,36.019 C135.466,36.019 135.647,35.819 135.995,35.873 L139.888,36.495 C139.888,36.495 140.289,36.6 140.728,36.44 L144.513,35.139 C144.513,35.139 144.831,35.136 144.9,35.323 C144.968,35.511 144.793,35.691 144.793,35.691 L141.344,39.107 C141.016,39.444 141.054,39.785 141.054,39.785 L140.997,42.494 C140.997,42.494 140.937,42.893 141.149,43.089 C141.149,43.089 141.377,43.227 141.648,43.023 L144.46,40.63 C144.46,40.63 144.687,40.384 144.725,40.001 L144.948,37.758 C144.948,37.758 144.986,37.371 145.533,37.252 L152.694,35.635 C152.696,35.635 153.155,35.521 153.053,35.11 L153.053,35.11 Z M118.196,72.384 L119.791,68.754 C120.053,68.162 119.832,67.925 119.832,67.925 L119.471,67.564 C119.174,67.203 118.647,67.555 118.647,67.555 L114.682,69.475 C114.202,69.703 114.317,70.089 114.317,70.089 L114.526,71.339 C114.588,71.881 114.956,71.961 114.956,71.961 C114.956,71.961 116.978,72.567 117.514,72.707 C118.049,72.847 118.196,72.384 118.196,72.384 L118.196,72.384 Z M112.779,71.007 L108.603,66.456 C108.603,66.456 108.179,66.066 107.755,66.4 C107.339,66.727 107.786,67.321 107.786,67.321 L109.33,69.319 C109.575,69.618 109.602,69.924 109.602,69.924 L109.868,71.986 C109.898,72.408 110.097,72.518 110.097,72.518 L111.28,73.43 C111.936,73.958 112.238,73.54 112.238,73.54 L112.856,72.126 C113.15,71.348 112.779,71.007 112.779,71.007 L112.779,71.007 Z M127.051,77.154 L127.733,76.397 C127.733,76.397 128.037,76.109 128.35,76.299 C128.664,76.488 130.11,78.528 130.11,78.528 C130.11,78.528 130.462,79.021 130.842,78.683 C131.227,78.341 130.832,77.804 130.832,77.804 L128.147,73.466 C127.91,73.073 127.441,72.987 127.441,72.987 L123.527,71.929 C123.189,71.837 123.054,72.074 123.054,72.074 L122.263,73.054 C122.263,73.054 122.052,73.298 122.283,73.552 L125.86,77.194 C125.86,77.194 126.424,77.786 127.051,77.154 L127.051,77.154 Z" id="Shape" fill="#B8E1F0" mask="url(#mask-2)"></path>
            </g>
            <path d="M52.4,0.355 C81.924,-0.596 106.627,22.561 107.578,52.085 C108.529,81.609 85.37,106.313 55.846,107.264" id="globe_4_" fill="#5C5C5C" opacity="0.2"></path>
        </g>
    </g>
</svg>