<?xml version="1.0" encoding="UTF-8"?>
<svg width="1440px" height="858px" viewBox="0 0 1440 858" version="1.1" xmlns="http://www.w3.org/2000/svg" xmlns:xlink="http://www.w3.org/1999/xlink">
    <!-- Generator: Sketch 40.1 (33804) - http://www.bohemiancoding.com/sketch -->
    <title>header-bg5</title>
    <desc>Created with Sketch.</desc>
    <defs>
        <rect id="path-1" x="0" y="0" width="1440" height="856"></rect>
    </defs>
    <g id="Page-1" stroke="none" stroke-width="1" fill="none" fill-rule="evenodd">
        <g id="header-bg5">
            <g id="Page-1">
                <g id="Group">
                    <g id="Rectangle-Clipped">
                        <mask id="mask-2" fill="white">
                            <use xlink:href="#path-1"></use>
                        </mask>
                        <g id="path-1"></g>
                        <g id="Rectangle" mask="url(#mask-2)" fill="#022F51">
                            <rect id="path-1" x="0" y="0" width="1440" height="856"></rect>
                        </g>
                    </g>
                    <rect id="Rectangle" fill="#B9D7EA" x="1030" y="334" width="208.12004" height="521.881474"></rect>
                    <rect id="Rectangle-Copy-5" fill="#4990E2" x="109" y="749" width="317" height="107"></rect>
                    <rect id="Rectangle-Copy-4" fill="#B9D7EA" x="91" y="769" width="317" height="87"></rect>
                    <polygon id="Rectangle-Copy-3" fill="#B9D7EA" points="1238.72668 335.196651 1293.58002 315 1293.58002 729.435288 1175 656.727343"></polygon>
                    <polygon id="Rectangle-Copy-2" fill="#008BCE" points="1030 334 1238.12004 334 1238.12004 697.539726 1179.23336 523.848524"></polygon>
                    <polygon id="Rectangle-Copy-6" fill="#450203" points="1029 333 1237.12004 533.350782 1237.12004 704.618387 1170.97336 533.350782"></polygon>
                    <polygon id="Rectangle-Copy" fill="#B9D7EA" points="1030.75875 695 1239.86546 695 1439.55348 857.381078 695 857.381078"></polygon>
                    <ellipse id="Oval" fill="#4990E2" cx="947.090007" cy="720.142174" rx="35.0900068" ry="35.1421735"></ellipse>
                    <ellipse id="Oval-Copy" fill="#FFFFFF" cx="995.200005" cy="731.235982" rx="24.2000047" ry="24.2359817"></ellipse>
                    <rect id="Rectangle-Copy-7" fill="#FFFFFF" x="1030" y="685" width="208.12004" height="11.3101248"></rect>
                </g>
            </g>
        </g>
    </g>
</svg>