<svg xmlns="http://www.w3.org/2000/svg" viewBox="0 0 19 36"><style>.st0{fill:#2a5db8}.st1{fill:none;stroke:#fff;stroke-width:2;stroke-miterlimit:10}.st2{fill:#022f51}.st3{fill:#fff}.st4{fill:none;stroke:#022f51;stroke-width:8;stroke-miterlimit:10}.st5{opacity:.5;stroke:#ffa683;stroke-width:2}.st5,.st6,.st7{fill:none;stroke-miterlimit:10}.st6{opacity:.5;stroke:#ffa683;stroke-width:1.4142}.st7{stroke:#022f51;stroke-width:4}.st8{opacity:.99;fill:#022f51}</style><g id="Layer_1"><path class="st2" d="M12.2 6l5.8 6.1V28H1V6h11.2m.4-1H0v24h19V11.7L12.6 5z"/><path class="st2" d="M18.5 12.9H12V5.6h1v6.3h5.5z"/></g><g id="Layer_2"><path class="st2" d="M4.9 21c-.5 0-.9-.2-1.2-.5-.5-.5-.5-1-.5-1.9 0-.9 0-1.4.5-1.9.3-.3.7-.5 1.2-.5.9 0 1.5.5 1.7 1.5h-.9c-.1-.4-.3-.7-.8-.7-.2 0-.4.1-.6.2-.2.2-.2.4-.2 1.3s.1 1.1.2 1.3c.1.1.3.2.6.2.4 0 .7-.3.8-.7h.9c-.2 1.2-.9 1.7-1.7 1.7zM8.9 21c-.7 0-1.2-.1-1.7-.6l.6-.6c.3.3.7.4 1.1.4.5 0 .8-.2.8-.6 0-.2 0-.3-.1-.4-.1-.1-.2-.1-.4-.2h-.6c-.4-.1-.7-.2-.9-.4-.2-.2-.3-.5-.3-.9 0-.8.6-1.4 1.6-1.4.6 0 1.1.2 1.5.5l-.6.6c-.3-.3-.7-.4-1-.4-.5 0-.7.3-.7.6 0 .1 0 .2.1.3.1.1.2.1.4.2l.6.1c.4.1.7.2.9.4.2.2.4.6.4 1 0 .9-.8 1.4-1.7 1.4zM13.3 20.9h-.7l-1.5-4.6h.9l.9 3 .9-3h.9l-1.4 4.6z"/></g></svg>
