<svg xmlns="http://www.w3.org/2000/svg" viewBox="0 0 19 36"><style>.st0{fill:#2a5db8}.st1{fill:none;stroke:#fff;stroke-width:2;stroke-miterlimit:10}.st2{fill:#022f51}.st3{fill:#fff}.st4{fill:none;stroke:#022f51;stroke-width:8;stroke-miterlimit:10}.st5{opacity:.5;stroke:#ffa683;stroke-width:2}.st5,.st6,.st7{fill:none;stroke-miterlimit:10}.st6{opacity:.5;stroke:#ffa683;stroke-width:1.4142}.st7{stroke:#022f51;stroke-width:4}.st8{opacity:.99;fill:#022f51}</style><g id="Layer_1"><path class="st2" d="M12.2 6l5.8 6.1V28H1V6h11.2m.4-1H0v24h19V11.7L12.6 5z"/><path class="st2" d="M18.5 12.9H12V5.6h1v6.3h5.5z"/></g><g id="Layer_2"><path class="st2" d="M5.1 19.2h-.9v1.7h-.9v-4.6h1.8c1 0 1.5.7 1.5 1.4s-.5 1.5-1.5 1.5zm0-2.1h-.9v1.3H5c.4 0 .7-.3.7-.6s-.2-.7-.6-.7zM10.7 20.2c-.3.5-.8.7-1.4.7H7.6v-4.6h1.7c.6 0 1.1.2 1.4.7.3.4.3.9.3 1.6s0 1.2-.3 1.6zm-.8-2.8c-.1-.2-.4-.3-.7-.3h-.7v3h.7c.3 0 .5-.1.7-.3.2-.2.2-.5.2-1.2s0-1-.2-1.2zM13 17.1v1.1h1.8v.8H13v1.9h-.9v-4.6h3v.8H13z"/></g></svg>
