<svg xmlns="http://www.w3.org/2000/svg" viewBox="0 0 19 36"><style>.st0{fill:#2a5db8}.st1{fill:none;stroke:#fff;stroke-width:2;stroke-miterlimit:10}.st2{fill:#022f51}.st3{fill:#fff}.st4{fill:none;stroke:#022f51;stroke-width:8;stroke-miterlimit:10}.st5{opacity:.5;stroke:#ffa683;stroke-width:2}.st5,.st6,.st7{fill:none;stroke-miterlimit:10}.st6{opacity:.5;stroke:#ffa683;stroke-width:1.4142}.st7{stroke:#022f51;stroke-width:4}.st8{opacity:.99;fill:#022f51}</style><g id="Layer_1"><path class="st2" d="M12.2 6.1l5.8 6.1v15.9H1v-22h11.2m.4-1H0v24h19V11.8l-6.4-6.7z"/><path class="st2" d="M18.5 12.9H12V5.7h1V12h5.5z"/></g><g id="Layer_2"><path class="st2" d="M5.6 21l-.9-1.6-.8 1.6h-1l1.4-2.4L3 16.3h1l.8 1.5.8-1.5h1l-1.3 2.3L6.7 21H5.6zM10.8 21v-2.7L9.9 20h-.6l-.9-1.8V21h-.9v-4.6h.9l1.2 2.5 1.2-2.5h.9V21h-.9zM13 21v-4.6h.9v3.8H16v.8h-3z"/></g></svg>
