<svg xmlns="http://www.w3.org/2000/svg" viewBox="0 0 24 36"><style>.st0{fill:#2a5db8}.st1{fill:none;stroke:#fff;stroke-width:2;stroke-miterlimit:10}.st2{fill:#022f51}.st3{fill:#fff}.st4{fill:none;stroke:#022f51;stroke-width:8;stroke-miterlimit:10}.st5{opacity:.5;stroke:#ffa683;stroke-width:2}.st5,.st6,.st7{fill:none;stroke-miterlimit:10}.st6{opacity:.5;stroke:#ffa683;stroke-width:1.4142}.st7{stroke:#022f51;stroke-width:4}.st8{opacity:.99;fill:#022f51}</style><path class="st2" d="M12 5C5.4 5 0 10.4 0 17s5.4 12 12 12 12-5.4 12-12S18.6 5 12 5zm1 18h-1.4v-1.3H13V23zm1.5-6.6l-1.3 1.9c-.2.3-.3.7-.3.9v.6h-1.2v-.6c0-.6.2-1 .5-1.5l1.3-1.9c.3-.4.5-.8.5-1.4 0-1.1-.8-1.9-1.8-1.9-1.1 0-1.9.9-1.9 1.9H9.2c0-1.6 1.3-2.9 3-2.9s3 1.2 3 2.9c0 .8-.3 1.3-.7 2z" id="Layer_1"/></svg>
