<svg xmlns="http://www.w3.org/2000/svg" viewBox="0 0 36 36"><style>.st0{fill:#2a5db8}.st1{fill:none;stroke:#fff;stroke-width:2;stroke-miterlimit:10}.st2{fill:#022f51}.st3{fill:#fff}.st4{fill:none;stroke:#022f51;stroke-width:8;stroke-miterlimit:10}.st5{opacity:.5;stroke:#ffa683;stroke-width:2}.st5,.st6,.st7{fill:none;stroke-miterlimit:10}.st6{opacity:.5;stroke:#ffa683;stroke-width:1.4142}.st7{stroke:#022f51;stroke-width:4}.st8{opacity:.99;fill:#022f51}</style><g id="Layer_1"><path class="st2" d="M22 12.9c0-2.2-1.8-4-4-4s-4 1.8-4 4c0 1.3.7 2.5 1.9 3.2l.3.2-1.6 8.7h6.8l-1.5-8.7.3-.2c.8-.5 1.8-1.5 1.8-3.2z"/><path class="st2" d="M18 0C8.1 0 0 8.1 0 18s8.1 18 18 18 18-8.1 18-18S27.9 0 18 0zm4.6 26h-9.2l1.7-9.2c-1.3-.9-2.1-2.3-2.1-3.9 0-2.8 2.2-5 5-5s5 2.2 5 5c0 1.5-.7 2.9-2 3.8l1.6 9.3z"/></g></svg>
