<svg xmlns="http://www.w3.org/2000/svg" viewBox="0 0 27 36"><style>.st0{fill:#2a5db8}.st1{fill:none;stroke:#fff;stroke-width:2;stroke-miterlimit:10}.st2{fill:#022f51}.st3{fill:#fff}.st4{fill:none;stroke:#022f51;stroke-width:8;stroke-miterlimit:10}.st5{opacity:.5;stroke:#ffa683;stroke-width:2}.st5,.st6,.st7{fill:none;stroke-miterlimit:10}.st6{opacity:.5;stroke:#ffa683;stroke-width:1.4142}.st7{stroke:#022f51;stroke-width:4}.st8{opacity:.99;fill:#022f51}</style><g id="Layer_2"><path class="st2" d="M7 29H0V6h7v23zm-6-1h5V7H1v21zM17 29h-7V6h7v23zm-6-1h5V7h-5v21zM27 29h-7V6h7v23zm-6-1h5V7h-5v21z"/><path class="st2" d="M3.5 25c-.6 0-1-.4-1-1s.4-1 1-1 1 .4 1 1-.4 1-1 1zm0-1H4h-.5zM13.5 25c-.6 0-1-.4-1-1s.4-1 1-1 1 .4 1 1-.4 1-1 1zm0-1h.5-.5zM23.5 25c-.6 0-1-.4-1-1s.4-1 1-1 1 .4 1 1-.4 1-1 1zm0-1h.5-.5z"/></g></svg>
