<svg xmlns="http://www.w3.org/2000/svg" viewBox="0 0 22 36"><style>.st0{fill:#2a5db8}.st1{fill:none;stroke:#fff;stroke-width:2;stroke-miterlimit:10}.st2{fill:#022f51}.st3{fill:#fff}.st4{fill:none;stroke:#022f51;stroke-width:8;stroke-miterlimit:10}.st5{opacity:.5;stroke:#ffa683;stroke-width:2}.st5,.st6,.st7{fill:none;stroke-miterlimit:10}.st6{opacity:.5;stroke:#ffa683;stroke-width:1.4142}.st7{stroke:#022f51;stroke-width:4}.st8{opacity:.99;fill:#022f51}</style><g id="Layer_1"><path class="st2" d="M0 10v17h22V10H0zm21 16.1H1V11h20v15.1z"/><path class="st2" d="M1 14h20v1H1zM4 17h2v1H4zM8 17h2v1H8zM12 17h2v1h-2zM16 17h2v1h-2zM4 20h2v1H4zM8 20h2v1H8zM12 20h2v1h-2zM16 20h2v1h-2zM4 23h2v1H4zM8 23h2v1H8zM12 23h2v1h-2z"/></g></svg>
