<svg xmlns="http://www.w3.org/2000/svg" viewBox="0 0 21 36"><style>.st0{fill:#2a5db8}.st1{fill:none;stroke:#fff;stroke-width:2;stroke-miterlimit:10}.st2{fill:#022f51}.st3{fill:#fff}.st4{fill:none;stroke:#022f51;stroke-width:8;stroke-miterlimit:10}.st5{opacity:.5;stroke:#ffa683;stroke-width:2}.st5,.st6,.st7{fill:none;stroke-miterlimit:10}.st6{opacity:.5;stroke:#ffa683;stroke-width:1.4142}.st7{stroke:#022f51;stroke-width:4}.st8{opacity:.99;fill:#022f51}</style><g id="Layer_1"><path class="st2" d="M14 21H9v-7h1v6h4z"/><path class="st2" d="M20.1 18.9c0-5.3-4.3-9.6-9.6-9.6S.9 13.6.9 18.9c0 3.6 2 6.7 4.9 8.3l-1.3 3.6.9.3 1.2-3.5c1.2.5 2.5.8 3.8.8 1.3 0 2.5-.3 3.7-.7l1.4 3.4.9-.4-1.4-3.5c3.1-1.5 5.1-4.7 5.1-8.3zm-9.6 8.6c-4.7 0-8.6-3.9-8.6-8.6 0-4.7 3.9-8.6 8.6-8.6s8.6 3.9 8.6 8.6c0 4.7-3.9 8.6-8.6 8.6zM2.7 9.6l-.8-.7s.8-.8 2.3-1.6c1.5-.8 2.7-1 2.8-1l.2 1s-1.2.2-2.5.9-2 1.4-2 1.4zM18.7 9.6s-.7-.7-2-1.4c-1.4-.7-2.5-.9-2.5-.9l.2-1c.1 0 1.3.3 2.8 1 1.5.8 2.3 1.6 2.3 1.6l-.8.7z"/></g></svg>
