<svg xmlns="http://www.w3.org/2000/svg" viewBox="0 0 26 36"><style>.st0{fill:#2a5db8}.st1{fill:none;stroke:#fff;stroke-width:2;stroke-miterlimit:10}.st2{fill:#022f51}.st3{fill:#fff}.st4{fill:none;stroke:#022f51;stroke-width:8;stroke-miterlimit:10}.st5{opacity:.5;stroke:#ffa683;stroke-width:2}.st5,.st6,.st7{fill:none;stroke-miterlimit:10}.st6{opacity:.5;stroke:#ffa683;stroke-width:1.4142}.st7{stroke:#022f51;stroke-width:4}.st8{opacity:.99;fill:#022f51}</style><g id="Layer_2"><path class="st2" d="M13 30.5C6.1 30.5.5 24.9.5 18S6.1 5.5 13 5.5 25.5 11.1 25.5 18 19.9 30.5 13 30.5zm0-24C6.7 6.5 1.5 11.7 1.5 18S6.7 29.5 13 29.5 24.5 24.3 24.5 18 19.3 6.5 13 6.5z"/><path class="st2" d="M7.9 23.1l1.8-5.3 6.8-6.8 3.5 3.5-6.8 6.8-5.3 1.8zm2.6-4.8l-1.1 3.2 3.2-1.1 5.9-5.9-2.1-2.1-5.9 5.9z"/></g></svg>
