<svg xmlns="http://www.w3.org/2000/svg" viewBox="0 0 21 36"><style>.st0{fill:#2a5db8}.st1{fill:none;stroke:#fff;stroke-width:2;stroke-miterlimit:10}.st2{fill:#022f51}.st3{fill:#fff}.st4{fill:none;stroke:#022f51;stroke-width:8;stroke-miterlimit:10}.st5{opacity:.5;stroke:#ffa683;stroke-width:2}.st5,.st6,.st7{fill:none;stroke-miterlimit:10}.st6{opacity:.5;stroke:#ffa683;stroke-width:1.4142}.st7{stroke:#022f51;stroke-width:4}.st8{opacity:.99;fill:#022f51}</style><g id="Layer_2"><path class="st2" d="M1 25.7H0V20c0-1.1.7-2 1.9-2.7 2.5-1.3 6.8-1.1 8.9.4l-.6.8c-1.7-1.3-5.6-1.4-7.8-.3-.9.5-1.4 1.1-1.4 1.8v5.7zM6 13.4c-2.1 0-3.8-1.7-3.8-3.8 0-2.1 1.7-3.8 3.8-3.8s3.8 1.7 3.8 3.8c0 2.1-1.7 3.8-3.8 3.8zm0-6.6C4.4 6.8 3.2 8 3.2 9.6s1.3 2.8 2.8 2.8c1.6 0 2.8-1.3 2.8-2.8S7.6 6.8 6 6.8zM21 25.8h-1V24c0-.7-.5-1.3-1.4-1.8-.9-.4-2.2-.7-3.6-.7-2.5 0-5 .9-5 2.5v1.7H9V24c0-2.4 3.1-3.5 6-3.5s6 1.1 6 3.5v1.8zM15 17.4c-2.1 0-3.8-1.7-3.8-3.8 0-2.1 1.7-3.8 3.8-3.8s3.8 1.7 3.8 3.8c0 2.1-1.7 3.8-3.8 3.8zm0-6.6c-1.6 0-2.8 1.3-2.8 2.8s1.3 2.8 2.8 2.8c1.6 0 2.8-1.3 2.8-2.8s-1.2-2.8-2.8-2.8z"/></g></svg>
