<svg xmlns="http://www.w3.org/2000/svg" viewBox="0 0 24 36"><style>.st0{fill:#2a5db8}.st1{fill:none;stroke:#fff;stroke-width:2;stroke-miterlimit:10}.st2{fill:#022f51}.st3{fill:#fff}.st4{fill:none;stroke:#022f51;stroke-width:8;stroke-miterlimit:10}.st5{opacity:.5;stroke:#ffa683;stroke-width:2}.st5,.st6,.st7{fill:none;stroke-miterlimit:10}.st6{opacity:.5;stroke:#ffa683;stroke-width:1.4142}.st7{stroke:#022f51;stroke-width:4}.st8{opacity:.99;fill:#022f51}</style><g id="Layer_1"><path class="st2" d="M7.6 25.8l-.7-.6 5.7-5.7-5.7-5.7.7-.6 6.3 6.3z"/><path class="st2" d="M0 19h13v1H0zM24 27h-1v-9c0-.5-.3-1-.8-1.4-1.4-1-4.3-1.4-6.6-.8l-.3-1c2.3-.6 5.7-.4 7.5 1 .8.6 1.2 1.3 1.2 2.2v9zM17.9 12.4c-2.1 0-3.8-1.7-3.8-3.8 0-2.1 1.7-3.8 3.8-3.8s3.8 1.7 3.8 3.8c0 2.1-1.7 3.8-3.8 3.8zm0-6.6c-1.6 0-2.8 1.3-2.8 2.8s1.3 2.8 2.8 2.8 2.8-1.3 2.8-2.8-1.2-2.8-2.8-2.8z"/></g></svg>
