<svg xmlns="http://www.w3.org/2000/svg" viewBox="0 0 10 36"><style>.st0{fill:#2a5db8}.st1{fill:none;stroke:#fff;stroke-width:2;stroke-miterlimit:10}.st2{fill:#022f51}.st3{fill:#fff}.st4{fill:none;stroke:#022f51;stroke-width:8;stroke-miterlimit:10}.st5{opacity:.5;stroke:#ffa683;stroke-width:2}.st5,.st6,.st7{fill:none;stroke-miterlimit:10}.st6{opacity:.5;stroke:#ffa683;stroke-width:1.4142}.st7{stroke:#022f51;stroke-width:4}.st8{opacity:.99;fill:#022f51}</style><path class="st2" d="M10 12.9c0-2.8-2.2-5-5-5s-5 2.2-5 5c0 1.6.7 2.9 2.1 3.9L.4 26h9.2L8 16.8c1.3-1 2-2.3 2-3.9zM8.4 25H1.6l1.6-8.6-.3-.2C1.7 15.4 1 14.3 1 12.9c0-2.2 1.8-4 4-4s4 1.8 4 4c0 1.7-1 2.6-1.8 3.2l-.3.2L8.4 25z" id="Layer_1"/></svg>
