<svg xmlns="http://www.w3.org/2000/svg" viewBox="0 0 23 36"><style>.st0{fill:#2a5db8}.st1{fill:none;stroke:#fff;stroke-width:2;stroke-miterlimit:10}.st2{fill:#022f51}.st3{fill:#fff}.st4{fill:none;stroke:#022f51;stroke-width:8;stroke-miterlimit:10}.st5{opacity:.5;stroke:#ffa683;stroke-width:2}.st5,.st6,.st7{fill:none;stroke-miterlimit:10}.st6{opacity:.5;stroke:#ffa683;stroke-width:1.4142}.st7{stroke:#022f51;stroke-width:4}.st8{opacity:.99;fill:#022f51}</style><path class="st2" d="M23 28h-6v-7.5c0-.8-.7-1.5-1.5-1.5s-1.5.7-1.5 1.5V28H8v-.5c0-.1.1-12 0-13V14h6v1c.7-.4 1.9-1 3.4-1 3.4 0 5.6 2.6 5.6 6.8V28zm-5-1h4v-6.2c0-3.6-1.7-5.8-4.6-5.8-2.2 0-3.6 1.3-3.6 1.3l-.8.8V15H9v12h4v-6.5c0-1.4 1.1-2.5 2.5-2.5s2.5 1.1 2.5 2.5V27zM6 28H0V14h6v14zm-5-1h4V15H1v12zm2-15c-1.7 0-3-1.3-3-3s1.3-2.9 3-2.9S6 7.3 6 9s-1.3 3-3 3zm0-4.9c-1.2 0-2 .8-2 1.9 0 1 .7 2 2 2s2-1 2-1.9c0-1-.6-2-2-2z" id="Layer_1"/></svg>
