<svg xmlns="http://www.w3.org/2000/svg" id="Layer_1" viewBox="0 0 17.1 36"><style>.st0{fill:#022f51}</style><path class="st0" d="M10.7 26.2H6.1l.8-4.6c-.7-.5-1-1.2-1-1.9 0-1.4 1.1-2.5 2.5-2.5s2.5 1.1 2.5 2.5c0 .8-.4 1.4-1 1.9l.8 4.6zm-3.4-1h2.2l-.7-4.1.4-.3c.5-.3.7-.7.7-1.2 0-.8-.7-1.5-1.5-1.5s-1.5.7-1.5 1.5c0 .5.2.9.7 1.2l.4.3-.7 4.1z"/><path class="st0" d="M14.8 15H13v-4.4c0-2.5-2-4.5-4.5-4.5S4 8.1 4 10.6V15H2.1C1 15 0 16 0 17.2v9.7C0 28 1 29 2.2 29h12.7c1.2 0 2.2-1 2.2-2.2v-9.7C17 16 16 15 14.8 15zM5 10.6c0-1.9 1.6-3.5 3.5-3.5S12 8.7 12 10.6V15H5v-4.4zm11 16.2c0 .6-.5 1.2-1.2 1.2H2.2c-.6 0-1.2-.5-1.2-1.2v-9.7c0-.6.5-1.2 1.2-1.2h12.7c.6 0 1.2.5 1.2 1.2v9.7H16z"/></svg>
