<svg xmlns="http://www.w3.org/2000/svg" viewBox="0 0 29 36"><style>.st0{fill:#2a5db8}.st1{fill:none;stroke:#fff;stroke-width:2;stroke-miterlimit:10}.st2{fill:#022f51}.st3{fill:#fff}.st4{fill:none;stroke:#022f51;stroke-width:8;stroke-miterlimit:10}.st5{opacity:.5;stroke:#ffa683;stroke-width:2}.st5,.st6,.st7{fill:none;stroke-miterlimit:10}.st6{opacity:.5;stroke:#ffa683;stroke-width:1.4142}.st7{stroke:#022f51;stroke-width:4}.st8{opacity:.99;fill:#022f51}</style><path class="st2" d="M28.3 16.5l-12-12L0 20.7l1.4 1.4C.7 23.9 1 26 2.5 27.5c1 1 2.3 1.5 3.5 1.5.6 0 1.3-.1 1.9-.4l4.1 4.1 4.9-4.9c.5.2 1.1.3 1.7.3 1.3 0 2.6-.5 3.5-1.5 1.4-1.4 1.8-3.4 1.2-5.2l5-4.9zM3.2 26.8c-1.6-1.6-1.6-4.1 0-5.7C4 20.4 5 20 6 20c1 0 2 .4 2.8 1.2 1.6 1.6 1.6 4.1 0 5.7-1.5 1.5-4 1.5-5.6-.1zm18.3-.9c-1.5 1.5-4.1 1.5-5.7 0-.8-.8-1.2-1.8-1.2-2.8s.4-2.1 1.2-2.8l.3-.3c.8.4 1.6.7 2.5.7s1.8-.3 2.5-.7l.3.3c1.6 1.5 1.6 4.1.1 5.6zm-6.9-10.2c0-2.2 1.8-4 4-4s4 1.8 4 4c0 .2 0 .4-.1.7v.1c0 .1-.1.2-.1.2 0 .2-.1.4-.2.5-.2.5-.5.9-.8 1.3-.1.1-.2.2-.3.2-.7.6-1.6.9-2.5.9-2.2.1-4-1.7-4-3.9zm7.6 3.9l-.2-.2.2-.2c1.9-1.9 1.9-5.1 0-7.1-.9-.9-2.2-1.5-3.5-1.5s-2.6.5-3.5 1.5-1.5 2.2-1.5 3.5c0 1.3.5 2.6 1.5 3.5l.2.2-.2.2c-.9.9-1.5 2.2-1.5 3.5 0 1.3.5 2.6 1.5 3.5.3.3.6.5.9.7l-4 4L8.9 28c.3-.2.5-.4.8-.6 1.9-1.9 1.9-5.1 0-7.1s-5.1-1.9-7.1 0c-.2.2-.4.5-.6.8l-.5-.5L16.2 5.9l10.6 10.6-4 4c-.1-.4-.4-.7-.6-.9z" id="Layer_2"/></svg>
