<svg xmlns="http://www.w3.org/2000/svg" viewBox="0 0 6 36"><style>.st0{fill:#2a5db8}.st1{fill:none;stroke:#fff;stroke-width:2;stroke-miterlimit:10}.st2{fill:#022f51}.st3{fill:#fff}.st4{fill:none;stroke:#022f51;stroke-width:8;stroke-miterlimit:10}.st5{opacity:.5;stroke:#ffa683;stroke-width:2}.st5,.st6,.st7{fill:none;stroke-miterlimit:10}.st6{opacity:.5;stroke:#ffa683;stroke-width:1.4142}.st7{stroke:#022f51;stroke-width:4}.st8{opacity:.99;fill:#022f51}</style><g id="Layer_2"><path class="st8" d="M3 20.5c-1 0-1.9-.6-2.3-1.5-.5-1.3.1-2.7 1.4-3.3 1.3-.5 2.7.1 3.3 1.4.5 1.3-.1 2.7-1.4 3.3-.4 0-.7.1-1 .1zm-1.4-1.9c.3.8 1.2 1.1 2 .8.8-.3 1.1-1.2.8-2-.3-.8-1.2-1.1-2-.8-.7.3-1.1 1.2-.8 2zM3 13.5c-1 0-1.9-.6-2.3-1.5C.2 10.7.8 9.2 2 8.7c1.3-.5 2.8.1 3.3 1.3.5 1.3-.1 2.7-1.4 3.3-.3.1-.6.2-.9.2zm-1.4-1.9c.3.8 1.2 1.1 2 .8.8-.3 1.1-1.2.8-2-.3-.8-1.2-1.1-2-.8-.7.3-1.1 1.2-.8 2zM3 27.5c-1 0-1.9-.6-2.3-1.5-.5-1.3.1-2.7 1.4-3.3 1.3-.5 2.7.1 3.3 1.4.5 1.3-.1 2.7-1.4 3.3-.4 0-.7.1-1 .1zm-1.4-1.9c.3.8 1.2 1.1 2 .8.8-.3 1.1-1.2.8-2-.3-.8-1.2-1.1-2-.8-.7.3-1.1 1.2-.8 2z"/></g></svg>
