<svg xmlns="http://www.w3.org/2000/svg" viewBox="0 0 23 36"><style>.st0{fill:#2a5db8}.st1{fill:none;stroke:#fff;stroke-width:2;stroke-miterlimit:10}.st2{fill:#022f51}.st3{fill:#fff}.st4{fill:none;stroke:#022f51;stroke-width:8;stroke-miterlimit:10}.st5{opacity:.5;stroke:#ffa683;stroke-width:2}.st5,.st6,.st7{fill:none;stroke-miterlimit:10}.st6{opacity:.5;stroke:#ffa683;stroke-width:1.4142}.st7{stroke:#022f51;stroke-width:4}.st8{opacity:.99;fill:#022f51}</style><path class="st2" d="M13.9 5.9c-1.3-1.2-3.4-1.2-4.7 0l-9 8.2-.2.2V29h23V14.2l-9.1-8.3zM7.5 21.5L1 27.4V15.6l6.5 5.9zm2.3-.8c1-.9 2.4-.9 3.4 0l8 7.3H1.8l8-7.3zm5.7.8l6.5-5.9v11.8l-6.5-5.9zM9.8 6.6c1-.9 2.4-.9 3.4 0l8.6 7.8-7 6.4-.9-.8c-1.3-1.2-3.4-1.2-4.7 0l-.9.8-7-6.4 8.5-7.8z" id="Layer_2"/></svg>
