<svg xmlns="http://www.w3.org/2000/svg" viewBox="0 0 23 36"><style>.st0{fill:#2a5db8}.st1{fill:none;stroke:#fff;stroke-width:2;stroke-miterlimit:10}.st2{fill:#022f51}.st3{fill:#fff}.st4{fill:none;stroke:#022f51;stroke-width:8;stroke-miterlimit:10}.st5{opacity:.5;stroke:#ffa683;stroke-width:2}.st5,.st6,.st7{fill:none;stroke-miterlimit:10}.st6{opacity:.5;stroke:#ffa683;stroke-width:1.4142}.st7{stroke:#022f51;stroke-width:4}.st8{opacity:.99;fill:#022f51}</style><g id="Layer_1"><path class="st2" d="M23 27.8h-1V19c0-.7-.5-1.3-1.4-1.8-.9-.4-2.2-.7-3.6-.7-2.5 0-5 .9-5 2.5v8.7h-1V19c0-2.4 3.1-3.5 6-3.5s6 1.1 6 3.5v8.8zM16.9 12.4c-2.1 0-3.8-1.7-3.8-3.8 0-2.1 1.7-3.8 3.8-3.8 2.1 0 3.8 1.7 3.8 3.8.1 2.1-1.7 3.8-3.8 3.8zm0-6.7c-1.6 0-2.8 1.3-2.8 2.8s1.3 2.8 2.8 2.8 2.8-1.3 2.8-2.8-1.2-2.8-2.8-2.8zM1 27.7H0V19c0-.8.4-1.6 1.2-2.2 1.8-1.4 5.2-1.6 7.5-1l-.3 1c-2.3-.6-5.3-.2-6.6.8-.6.4-.8.9-.8 1.4v8.7zM6.1 12.4c-2.1 0-3.8-1.7-3.8-3.8 0-2.1 1.7-3.8 3.8-3.8 2.1 0 3.8 1.7 3.8 3.8 0 2.1-1.7 3.8-3.8 3.8zm0-6.7C4.5 5.7 3.2 7 3.2 8.6s1.3 2.8 2.8 2.8 2.8-1.3 2.8-2.8-1.2-2.9-2.7-2.9z"/></g></svg>
