<svg xmlns="http://www.w3.org/2000/svg" viewBox="0 0 16 36"><style>.st0{fill:#2a5db8}.st1{fill:none;stroke:#fff;stroke-width:2;stroke-miterlimit:10}.st2{fill:#022f51}.st3{fill:#fff}.st4{fill:none;stroke:#022f51;stroke-width:8;stroke-miterlimit:10}.st5{opacity:.5;stroke:#ffa683;stroke-width:2}.st5,.st6,.st7{fill:none;stroke-miterlimit:10}.st6{opacity:.5;stroke:#ffa683;stroke-width:1.4142}.st7{stroke:#022f51;stroke-width:4}.st8{opacity:.99;fill:#022f51}</style><g id="Layer_1"><path class="st2" d="M12.5 31h-9C1.6 31 0 29.4 0 27.5v-20C0 5.6 1.6 4 3.5 4h9C14.4 4 16 5.6 16 7.5v20c0 1.9-1.6 3.5-3.5 3.5zm-9-26C2.1 5 1 6.1 1 7.5v20C1 28.9 2.1 30 3.5 30h9c1.4 0 2.5-1.1 2.5-2.5v-20C15 6.1 13.9 5 12.5 5h-9z"/><path class="st2" d="M1 24h14v1H1zM6 9h4v1H6zM8 28.5c-.6 0-1-.4-1-1s.4-1 1-1 1 .4 1 1-.4 1-1 1z"/></g></svg>
