<svg xmlns="http://www.w3.org/2000/svg" viewBox="0 0 22 36"><style>.st0{fill:#2a5db8}.st1{fill:none;stroke:#fff;stroke-width:2;stroke-miterlimit:10}.st2{fill:#022f51}.st3{fill:#fff}.st4{fill:none;stroke:#022f51;stroke-width:8;stroke-miterlimit:10}.st5{opacity:.5;stroke:#ffa683;stroke-width:2}.st5,.st6,.st7{fill:none;stroke-miterlimit:10}.st6{opacity:.5;stroke:#ffa683;stroke-width:1.4142}.st7{stroke:#022f51;stroke-width:4}.st8{opacity:.99;fill:#022f51}</style><g id="Layer_2"><path class="st2" d="M18 10h-1V6.8H5V10H4V6h14zM18 29H4V18h1v10h12V18h1z"/><path class="st2" d="M7 21h8v1H7zM7 24h8v1H7zM22 21h-4v-1h3v-9H1v9h3v1H0V10h22z"/><g><path class="st2" d="M2 17h18v1H2z"/></g><path class="st2" d="M17.5 15c-.6 0-1-.4-1-1s.4-1 1-1 1 .4 1 1-.4 1-1 1zm0-1h.5-.5z"/></g></svg>
