<svg xmlns="http://www.w3.org/2000/svg" viewBox="0 0 26 36"><style>.st0{fill:#2a5db8}.st1{fill:none;stroke:#fff;stroke-width:2;stroke-miterlimit:10}.st2{fill:#022f51}.st3{fill:#fff}.st4{fill:none;stroke:#022f51;stroke-width:8;stroke-miterlimit:10}.st5{opacity:.5;stroke:#ffa683;stroke-width:2}.st5,.st6,.st7{fill:none;stroke-miterlimit:10}.st6{opacity:.5;stroke:#ffa683;stroke-width:1.4142}.st7{stroke:#022f51;stroke-width:4}.st8{opacity:.99;fill:#022f51}</style><path class="st2" d="M12.9 26.2C6.8 26.2.8 19.8.6 19.6l-.3-.3.3-.3c.3-.3 6.2-6.7 12.3-6.7 6.2 0 12.1 6.4 12.4 6.7l.3.3-.3.3c-.2.3-6.2 6.6-12.4 6.6zM1.7 19.3c1.3 1.3 6.4 6 11.3 6 5 0 10-4.7 11.3-6-1.3-1.3-6.4-6-11.3-6-5-.1-10 4.6-11.3 6zm11.2 3.4c-1.9 0-3.5-1.6-3.5-3.5s1.6-3.5 3.5-3.5 3.5 1.6 3.5 3.5-1.5 3.5-3.5 3.5zm0-6c-1.4 0-2.5 1.1-2.5 2.5s1.1 2.5 2.5 2.5 2.5-1.1 2.5-2.5-1.1-2.5-2.5-2.5z" id="Layer_2"/></svg>
