<svg xmlns="http://www.w3.org/2000/svg" id="Layer_1" viewBox="0 0 36 36"><style>.st0{fill:#022f51}</style><path class="st0" d="M17.9 29.6C11 29.6 5.4 24 5.4 17.1S11 4.6 17.9 4.6s12.5 5.6 12.5 12.5-5.6 12.5-12.5 12.5zm0-24c-6.3 0-11.5 5.2-11.5 11.5s5.2 11.5 11.5 11.5 11.5-5.2 11.5-11.5S24.3 5.6 17.9 5.6z"/><path class="st0" d="M18 10.7l1.6 3.7.2.5.6.1 4 .4-3 2.6-.4.3.1.6.9 4-3.5-2.1-.5-.3-.5.3-3.5 2.1.9-4 .1-.6-.4-.3-3-2.6 4-.4.6-.1.2-.5 1.6-3.7m0-2.6l-2.5 5.8-6.4.6 4.8 4.1-1.4 6.4 5.5-3.3 5.5 3.3-1.4-6.3 4.8-4.1-6.4-.6L18 8.1z"/></svg>
