<svg xmlns="http://www.w3.org/2000/svg" viewBox="0 0 26 36"><style>.st0{fill:#2a5db8}.st1{fill:none;stroke:#fff;stroke-width:2;stroke-miterlimit:10}.st2{fill:#022f51}.st3{fill:#fff}.st4{fill:none;stroke:#022f51;stroke-width:8;stroke-miterlimit:10}.st5{opacity:.5;stroke:#ffa683;stroke-width:2}.st5,.st6,.st7{fill:none;stroke-miterlimit:10}.st6{opacity:.5;stroke:#ffa683;stroke-width:1.4142}.st7{stroke:#022f51;stroke-width:4}.st8{opacity:.99;fill:#022f51}</style><g id="Layer_2"><path class="st2" d="M16.2 13.3l2.7-.7-.2-1-2.7.8c-.5-1.4-1.4-2.6-2.6-3.4l1.5-2.4-.9-.5-1.5 2.4c-1.2-.6-2.7-.8-4.1-.5l-.7-2.8-1 .2.7 2.8c-1.4.5-2.5 1.4-3.3 2.5L1.6 9.2l-.5.9 2.5 1.5c-.6 1.2-.9 2.7-.6 4.1l-2.7.7.2 1 2.7-.7c.4 1.4 1.3 2.6 2.5 3.4l-1.4 2.4.8.5 1.4-2.4c1 .5 2 .7 3 .7.4 0 .8 0 1.1-.1l.7 2.6 1-.3-.6-2.5c1.4-.5 2.6-1.4 3.5-2.6l2.3 1.4.5-.8-2.3-1.4c.6-1.4.8-2.8.5-4.3zm-1.7 4.3c-.8 1.3-2.1 2.2-3.5 2.6-1.5.4-3 .1-4.4-.7-1.3-.8-2.2-2-2.6-3.5-.8-3.1 1.1-6.2 4.2-7 .5-.1.9-.2 1.4-.2 2.6 0 4.9 1.8 5.6 4.4.3 1.5.1 3.1-.7 4.4z"/><path class="st2" d="M23.3 26.2c.1-.5.1-1-.1-1.5l2.6-1-.4-.9-2.6 1c-.5-.9-1.3-1.5-2.3-1.8l.4-2.8-.9-.2-.4 2.8c-.8 0-1.7.2-2.4.7-.1.1-.2.2-.4.3L14.7 21l-.6.8 2.2 1.8c-.3.4-.5.9-.6 1.4-.1.5-.1 1 .1 1.5l-2.6 1 .4.9 2.6-1c.5.9 1.3 1.5 2.3 1.8L18 32l1 .2.4-2.8h.1c1 0 1.9-.4 2.6-1.1l2.2 1.8.6-.8-2.2-1.8c.3-.3.5-.8.6-1.3zm-2.1 1.7c-.6.4-1.4.6-2.1.5-1.5-.2-2.6-1.7-2.4-3.2.1-.7.5-1.4 1.1-1.9s1.4-.6 2.1-.5c1.5.2 2.6 1.7 2.4 3.2-.1.8-.5 1.4-1.1 1.9z"/></g></svg>
