<svg xmlns="http://www.w3.org/2000/svg" viewBox="0 0 24 36"><style>.st0{fill:#2a5db8}.st1{fill:none;stroke:#fff;stroke-width:2;stroke-miterlimit:10}.st2{fill:#022f51}.st3{fill:#fff}.st4{fill:none;stroke:#022f51;stroke-width:8;stroke-miterlimit:10}.st5{opacity:.5;stroke:#ffa683;stroke-width:2}.st5,.st6,.st7{fill:none;stroke-miterlimit:10}.st6{opacity:.5;stroke:#ffa683;stroke-width:1.4142}.st7{stroke:#022f51;stroke-width:4}.st8{opacity:.99;fill:#022f51}</style><g id="Layer_2"><path class="st2" d="M.1 29H24v1H.1zM3.6 27.3l1.7-1.7 3.6-.1 13.4-13.4c.6 1 .5 2.3-.3 3.1l-4.5 4.5.7.7 4.5-4.5c1.2-1.2 1.3-3.2.3-4.6l-.2-.2c-.1-.1-.1-.2-.2-.2L18.7 7l-14 14.3-.4 3.9-1.4 1.4.7.7zm18-15.9l-4.8 4.8-2.8-2.8 4.8-4.8 2.8 2.8zm-16 10.3l7.6-7.6 2.8 2.8-7.6 7.6-2.4.1-.6-.6.2-2.3z"/></g></svg>
