<svg xmlns="http://www.w3.org/2000/svg" viewBox="0 0 24 36"><style>.st0{fill:#2a5db8}.st1{fill:none;stroke:#fff;stroke-width:2;stroke-miterlimit:10}.st2{fill:#022f51}.st3{fill:#fff}.st4{fill:none;stroke:#022f51;stroke-width:8;stroke-miterlimit:10}.st5{opacity:.5;stroke:#ffa683;stroke-width:2}.st5,.st6,.st7{fill:none;stroke-miterlimit:10}.st6{opacity:.5;stroke:#ffa683;stroke-width:1.4142}.st7{stroke:#022f51;stroke-width:4}.st8{opacity:.99;fill:#022f51}</style><path class="st2" d="M7.9 27c-2.6 0-5.1-.7-7.2-2.1L1 24c1.9.2 3.7-.2 5.3-1.1-1.6-.5-2.9-1.7-3.4-3.3l.6-.6c-1.3-.9-2.1-2.4-2.1-4.1l.7-.5c.1 0 .1.1.2.1-.6-.8-.9-1.8-.9-2.9 0-.9.2-1.8.7-2.5l.8-.1c2.1 2.6 5.1 4.2 8.4 4.5V13c0-2.8 2.3-5 5-5 1.3 0 2.5.5 3.5 1.4.9-.2 1.7-.5 2.5-1l.7.6-.1.3c-.2.6-.3 1-.6 1.3.3 0 .6-.1.9-.2l.6.7c-.5.8-1.3 1.4-2.1 1.9-.1.1-.2.2-.3.2v.3c0 6.7-5.1 13.5-13.5 13.5zM3 25c1.6.7 3.2 1 4.9 1 7.8 0 12.4-6.3 12.4-12.4V13l.2-.4c.2-.1.4-.3.6-.4.3-.2.6-.4.8-.6-.3 0-.7-.1-1-.3v-.9c.3-.2.5-.4.7-.6-.6.3-1.2.4-1.9.6l-.5-.1c-.8-.8-1.8-1.3-3-1.3-2.2 0-4 1.8-4 4 0 .3 0 .6.1.9l-.5.6c-3.5-.2-6.8-1.7-9.2-4.3-.2.4-.2.9-.2 1.4 0 1.4.7 2.6 1.8 3.4l-.3.9c-.5 0-1-.1-1.5-.3.3 1.6 1.5 2.9 3.2 3.2v1c-.4.1-.9.2-1.4.2.7 1.2 2 2 3.5 2.1l.3.9c-1.5 1.1-3.2 1.8-5 2z" id="Layer_1"/></svg>
