<?xml version="1.0" encoding="utf-8"?>
<!-- Generator: Adobe Illustrator 22.1.0, SVG Export Plug-In . SVG Version: 6.00 Build 0)  -->
<svg version="1.1" id="Layer_1" xmlns="http://www.w3.org/2000/svg" xmlns:xlink="http://www.w3.org/1999/xlink" x="0px" y="0px"
	 viewBox="0 0 740 740" style="enable-background:new 0 0 740 740;" xml:space="preserve">
<style type="text/css">
	.st0{fill:none;stroke:#1EAEF7;stroke-width:3;stroke-miterlimit:10;}
	.st1{fill:none;stroke:#41A9DF;stroke-width:2.8015;stroke-miterlimit:10;}
	.st2{opacity:0.2;fill:#1EAEF7;enable-background:new    ;}
	.st3{fill:#FFFFFF;stroke:#1EAEF7;stroke-width:3;stroke-miterlimit:10;}
	.st4{fill:none;}
	.st5{fill:#0E3050;}
	.st6{font-family:'ArialMT';}
	.st7{font-size:18px;}
	.st8{fill:#1EAEF7;}
</style>
<path class="st0" d="M508.6,601.9H271.5c-13.4,0-24.2-10.8-24.2-24.2V137.8h261.3L508.6,601.9L508.6,601.9z"/>
<path class="st0" d="M508.5,137.5H247.2l0,0c0-28.5,23.1-51.6,51.6-51.6H457C485.5,85.9,508.5,109,508.5,137.5L508.5,137.5z"/>
<path class="st0" d="M508.5,601.6L508.5,601.6c0,28.5-23.1,51.6-51.6,51.6H298.7"/>
<path class="st1" d="M357.2,601.6"/>
<path class="st2" d="M508.5,601.6H272.3c-14.2,0-25.8-11.5-25.8-25.8V139.6h262V601.6z"/>
<rect x="278.6" y="298.5" class="st3" width="199.3" height="48.8"/>
<rect x="278.6" y="266.4" class="st4" width="200.7" height="110.1"/>
<text transform="matrix(1 0 0 1 278.5654 279.2241)" class="st5 st6 st7">Fødselsnummer</text>
<rect x="278.6" y="384.9" class="st8" width="109.4" height="48.8"/>
<rect x="300.9" y="403" class="st4" width="86.4" height="32.8"/>
<text transform="matrix(1 0 0 1 300.8662 415.8159)" class="st5 st6 st7">Logg inn</text>
<g>
	<rect x="277.9" y="211.4" class="st4" width="200.7" height="34.8"/>
	<text transform="matrix(1 0 0 1 277.8682 224.1694)" class="st5 st6 st7">Elektronisk ID</text>
</g>
<path class="st0" d="M299,653.2h-87.2H-52"/>
<polyline class="st0" points="812,602.1 543.9,602.1 508.6,602.1 "/>
</svg>
