<?xml version="1.0" encoding="utf-8"?>
<!-- Generator: Adobe Illustrator 22.1.0, SVG Export Plug-In . SVG Version: 6.00 Build 0)  -->
<svg version="1.1" id="Layer_1" xmlns="http://www.w3.org/2000/svg" xmlns:xlink="http://www.w3.org/1999/xlink" x="0px" y="0px"
	 viewBox="0 0 740 740" style="enable-background:new 0 0 740 740;" xml:space="preserve">
<style type="text/css">
	.st0{fill:none;stroke:#1EAEF7;stroke-width:3;stroke-miterlimit:10;}
	.st1{opacity:0.2;fill:#1EAEF7;enable-background:new    ;}
	.st2{fill:none;}
	.st3{fill:#404041;}
	.st4{font-family:'ArialMT';}
	.st5{font-size:18px;}
	.st6{fill:#0E3050;}
</style>
<path class="st0" d="M240.4,137.5h261.3l0,0c0-28.5-23.1-51.6-51.6-51.6H259.2H-39"/>
<path class="st0" d="M809,653.2H533.5H291.9c-28.5,0-51.6-23.1-51.6-51.6l0,0h144.1H240.7"/>
<rect x="259.2" y="192.5" class="st1" width="224.4" height="241.1"/>
<rect x="271.7" y="262.2" class="st2" width="200.7" height="157.1"/>
<text transform="matrix(1 0 0 1 271.7152 275.0425)" class="st3 st4 st5">Ny melding</text>
<text transform="matrix(1 0 0 1 271.7152 311.8425)" class="st3 st4 st5">Du har mottatt en viktig </text>
<text transform="matrix(1 0 0 1 271.7152 338.8425)" class="st3 st4 st5">melding om foretaket </text>
<text transform="matrix(1 0 0 1 271.7152 365.8425)" class="st3 st4 st5">ditt. Logg inn og les den </text>
<text transform="matrix(1 0 0 1 271.7152 392.8425)" class="st3 st4 st5">nå.</text>
<path class="st0" d="M477.5,601.6H240.3V137.5h261.4v440C501.7,590.8,490.9,601.6,477.5,601.6z"/>
<path class="st6" d="M273.1,216v18.6H301V216H273.1z M288.6,225.8c-0.9,0.8-2.2,0.8-3.1,0l-8.2-7.5h19.5L288.6,225.8z M281.5,225.3
	l-6.1,5.5v-11.1L281.5,225.3z M283.3,226.9l0.7,0.6c0.9,0.8,2,1.2,3.1,1.2s2.2-0.4,3.1-1.2l0.7-0.6l5.9,5.4h-19.4L283.3,226.9z
	 M292.6,225.3l6.1-5.5v11.1L292.6,225.3z"/>
</svg>
