<?xml version="1.0" encoding="utf-8"?>
<!-- Generator: Adobe Illustrator 22.1.0, SVG Export Plug-In . SVG Version: 6.00 Build 0)  -->
<svg version="1.1" id="Layer_1" xmlns="http://www.w3.org/2000/svg" xmlns:xlink="http://www.w3.org/1999/xlink" x="0px" y="0px"
	 viewBox="0 0 1624 609" style="enable-background:new 0 0 1624 609;" xml:space="preserve">
<style type="text/css">
  @font-face {
    font-family: 'DIN-reg';
    src: url("https://tt02.altinn.no/ui/fonts/DINWeb.woff"); 
  }
	.st0{fill:none;stroke:#1EAEF7;stroke-width:3;stroke-miterlimit:10;}
	.st1{fill:none;stroke:#41A9DF;stroke-width:2.8015;stroke-miterlimit:10;}
	.st2{opacity:0.2;fill:#1EAEF7;enable-background:new    ;}
	.st3{fill:#FFFFFF;stroke:#1EAEF7;stroke-width:3;stroke-miterlimit:10;}
	.st4{fill:none;}
	.st5{fill:#0E3050;}
	.st6{font-family:'DIN-reg';}
	.st7{font-size:18px;}
	.st8{fill:#1EAEF7;}
	.st9{fill:#404041;}
	.st10{fill:#FFFFFF;}
	.st11{opacity:0.2;fill:#41A9DF;enable-background:new    ;}
</style>
<path class="st0" d="M936.6,536.4H699.5c-13.4,0-24.2-10.8-24.2-24.2V72.3h261.3V536.4L936.6,536.4z"/>
<path class="st0" d="M936.5,72H675.2l0,0c0-28.5,23.1-51.6,51.6-51.6H885C913.5,20.4,936.5,43.5,936.5,72L936.5,72z"/>
<path class="st0" d="M936.5,536.1L936.5,536.1c0,28.5-23.1,51.6-51.6,51.6H726.7"/>
<path class="st1" d="M675.2,536.1"/>
<path class="st2" d="M936.5,536.1H700.3c-14.2,0-25.8-11.5-25.8-25.8V74.1h262V536.1z"/>
<rect x="706.6" y="233" class="st3" width="199.3" height="48.8"/>
<rect x="706.6" y="200.9" class="st4" width="200.7" height="110.1"/>
<text transform="matrix(1 0 0 1 706.5654 213.7241)" class="st5 st6 st7">Fødselsnummer</text>
<rect x="706.6" y="319.4" class="st8" width="109.4" height="48.8"/>
<rect x="728.9" y="337.5" class="st4" width="86.4" height="32.8"/>
<text transform="matrix(1 0 0 1 728.8662 350.3159)" class="st5 st6 st7">Logg inn</text>
<g>
	<rect x="705.9" y="145.9" class="st4" width="200.7" height="34.8"/>
	<text transform="matrix(1 0 0 1 705.8682 158.6694)" class="st5 st6 st7">Elektronisk ID</text>
</g>
<path class="st0" d="M346.7,72H608l0,0c0-28.5-23.1-51.6-51.6-51.6H-25"/>
<path class="st0" d="M727,587.7H398.2c-28.5,0-51.6-23.1-51.6-51.6l0,0h144.1H347"/>
<rect x="365.5" y="127" class="st2" width="224.4" height="241.1"/>
<rect x="378" y="196.7" class="st4" width="200.7" height="157.1"/>
<text transform="matrix(1 0 0 1 378.0225 209.5425)" class="st9 st6 st7">Ny melding</text>
<text transform="matrix(1 0 0 1 378.0225 246.3425)" class="st9 st6 st7">Du har mottatt en viktig </text>
<text transform="matrix(1 0 0 1 378.0225 273.3425)" class="st9 st6 st7">melding om foretaket </text>
<text transform="matrix(1 0 0 1 378.0225 300.3425)" class="st9 st6 st7">ditt. Logg inn og les den </text>
<text transform="matrix(1 0 0 1 378.0225 327.3425)" class="st9 st6 st7">nå.</text>
<path class="st0" d="M583.8,536.1H346.6V72H608v440C608,525.3,597.2,536.1,583.8,536.1z"/>
<path class="st5" d="M379.4,150.5v18.6h27.9v-18.6H379.4z M394.9,160.3c-0.9,0.8-2.2,0.8-3.1,0l-8.2-7.5h19.5L394.9,160.3z
	 M387.8,159.8l-6.1,5.5v-11.1L387.8,159.8z M389.6,161.4l0.7,0.6c0.9,0.8,2,1.2,3.1,1.2s2.2-0.4,3.1-1.2l0.7-0.6l5.9,5.4h-19.4
	L389.6,161.4z M398.9,159.8l6.1-5.5v11.1L398.9,159.8z"/>
<path class="st2" d="M1250,536.1h-243.5V71.9h261.3v446.3C1267.9,528.1,1259.9,536.1,1250,536.1z"/>
<path class="st0" d="M1267.9,72h-261.3l0,0c0-28.5,23.1-51.6,51.6-51.6h158.2C1244.8,20.4,1267.9,43.5,1267.9,72L1267.9,72z"/>
<path class="st5" d="M1039.6,160.3v18.6h27.9v-18.6H1039.6z M1055.1,170c-0.9,0.8-2.2,0.8-3.1,0l-8.2-7.5h19.5L1055.1,170z
	 M1048,169.6l-6.1,5.5V164L1048,169.6z M1049.8,171.1l0.7,0.6c0.9,0.8,2,1.2,3.1,1.2s2.2-0.4,3.1-1.2l0.7-0.6l5.9,5.4h-19.4
	L1049.8,171.1z M1059.1,169.6l6.1-5.5v11.1L1059.1,169.6z"/>
<rect x="1025" y="136.8" class="st10" width="224.4" height="266.2"/>
<rect x="1025" y="181.7" class="st11" width="224.4" height="4.3"/>
<path class="st0" d="M1250,536.1h-243.5V72h261.3v446.3C1267.9,528.1,1259.9,536.1,1250,536.1z"/>
<line class="st0" x1="1007.2" y1="536.6" x2="936.6" y2="536.6"/>
<g>
	<rect x="1038.2" y="319.4" class="st8" width="114.1" height="48.8"/>
	<rect x="1061" y="337.5" class="st4" width="86.4" height="32.8"/>
	<text transform="matrix(1 0 0 1 1061.0283 350.3159)" class="st5 st6 st7">Last ned</text>
</g>
<g>
	<rect x="1083.2" y="151.9" class="st4" width="200.7" height="34.8"/>
	<text transform="matrix(1 0 0 1 1083.2432 164.6694)" class="st5 st6 st7">Viktig melding</text>
</g>
<path class="st0" d="M1006.9,536.1L1006.9,536.1c0,28.5,23.1,51.6,51.6,51.6h483.1H1649"/>
<path class="st5" d="M1038.2,150.5v18.6h27.9v-18.6H1038.2z M1053.7,160.3c-0.9,0.8-2.2,0.8-3.1,0l-8.2-7.5h19.5L1053.7,160.3z
	 M1046.7,159.8l-6.1,5.5v-11.1L1046.7,159.8z M1048.4,161.4l0.7,0.6c0.9,0.8,2,1.2,3.1,1.2s2.2-0.4,3.1-1.2l0.7-0.6l5.9,5.4h-19.4
	L1048.4,161.4z M1057.7,159.8l6.1-5.5v11.1L1057.7,159.8z"/>
<rect x="1038.2" y="200.9" class="st4" width="200.7" height="191.4"/>
<text transform="matrix(1 0 0 1 1038.2432 213.7261)" class="st5 st6 st7">Etaten innfører nye retn</text>
<text transform="matrix(1 0 0 1 1229.1431 213.7261)" class="st5 st6 st7">-</text>
<text transform="matrix(1 0 0 1 1038.2432 236.0261)" class="st5 st6 st7">ingslinjer for alle foretak </text>
<text transform="matrix(1 0 0 1 1038.2432 258.3261)" class="st5 st6 st7">i bransjen som du må </text>
<text transform="matrix(1 0 0 1 1038.2432 280.6261)" class="st5 st6 st7">sette deg inn i.</text>
</svg>
