<?xml version="1.0" encoding="utf-8"?>
<!-- Generator: Adobe Illustrator 22.1.0, SVG Export Plug-In . SVG Version: 6.00 Build 0)  -->
<svg version="1.1" id="Layer_1" xmlns="http://www.w3.org/2000/svg" xmlns:xlink="http://www.w3.org/1999/xlink" x="0px" y="0px"
	 viewBox="0 0 1624 609" style="enable-background:new 0 0 1624 609;" xml:space="preserve">
<style type="text/css">
  @font-face {
    font-family: 'DIN-reg';
    src: url("https://tt02.altinn.no/ui/fonts/DINWeb.woff"); 
  }
	.st0{fill:none;stroke:#41A9DF;stroke-width:4.133;stroke-miterlimit:10;}
	.st1{opacity:0.2;fill:#1EAEF7;enable-background:new    ;}
	.st2{fill:none;stroke:#41A9DF;stroke-width:3;stroke-miterlimit:10;}
	.st3{fill:none;stroke:#1EAEF7;stroke-width:3;stroke-miterlimit:10;}
	.st4{fill:#1FB1E6;}
	.st5{fill:none;}
	.st6{fill:#404041;}
	.st7{font-family:'DIN-Reg';}
	.st8{font-size:21.24px;}
</style>
<path class="st0" d="M706.3,624.2"/>
<rect x="522.2" y="88.8" class="st1" width="626" height="332"/>
<line class="st2" x1="1148.2" y1="420.8" x2="522.2" y2="420.8"/>
<g>
	<path class="st3" d="M885.8,506.6v64.8h0.1h119.7c4.9,0,8.9,4,8.9,8.9l0,0c0,4.9-4,8.9-8.9,8.9H812.7h-45.4H664.8
		c-4.9,0-8.9-4-8.9-8.9l0,0c0-4.9,4-8.9,8.9-8.9h119.7v-64.8"/>
</g>
<path class="st4" d="M899.9,297.5H771.6c-15.9,0-28.8-12.9-28.8-28.8l0,0c0-15.9,12.9-28.8,28.8-28.8h128.3
	c15.9,0,28.8,12.9,28.8,28.8l0,0C928.7,284.6,915.8,297.5,899.9,297.5z"/>
<rect x="769.1" y="261.3" class="st5" width="193.8" height="38.6"/>
<text transform="matrix(1 0 0 1 769.1473 276.4077)" class="st6 st7 st8">Send melding</text>
<path class="st3" d="M1636,20.4H556.1c-19.5,0-35.4,15.8-35.4,35.4v415.7c0,19.5,15.8,35.4,35.4,35.4h250.5l144.3-0.2H1112
	c19.5,0,35.4-15.8,35.4-35.4l0.9-382.8h-626"/>
</svg>
