<?xml version="1.0" encoding="utf-8"?>
<!-- Generator: Adobe Illustrator 22.1.0, SVG Export Plug-In . SVG Version: 6.00 Build 0)  -->
<svg version="1.1" id="Layer_1" xmlns="http://www.w3.org/2000/svg" xmlns:xlink="http://www.w3.org/1999/xlink" x="0px" y="0px"
	 viewBox="0 0 740 740" style="enable-background:new 0 0 740 740;" xml:space="preserve">
<style type="text/css">
	.st0{opacity:0.2;fill:#1EAEF7;enable-background:new    ;}
	.st1{fill:none;stroke:#1EAEF7;stroke-width:3;stroke-miterlimit:10;}
	.st2{fill:#0E3050;}
	.st3{fill:#FFFFFF;}
	.st4{opacity:0.2;fill:#41A9DF;enable-background:new    ;}
	.st5{fill:#1EAEF7;}
	.st6{fill:none;}
	.st7{font-family:'ArialMT';}
	.st8{font-size:18px;}
</style>
<path class="st0" d="M483.8,601.6H240.3V137.4h261.3v446.3C501.7,593.6,493.7,601.6,483.8,601.6z"/>
<path class="st1" d="M501.7,137.5H240.4l0,0c0-28.5,23.1-51.6,51.6-51.6h158.2C478.6,85.9,501.7,109,501.7,137.5L501.7,137.5z"/>
<path class="st2" d="M273.4,225.8v18.6h27.9v-18.6H273.4z M288.9,235.5c-0.9,0.8-2.2,0.8-3.1,0l-8.2-7.5h19.5L288.9,235.5z
	 M281.8,235.1l-6.1,5.5v-11.1L281.8,235.1z M283.6,236.6l0.7,0.6c0.9,0.8,2,1.2,3.1,1.2s2.2-0.4,3.1-1.2l0.7-0.6l5.9,5.4h-19.4
	L283.6,236.6z M292.9,235.1l6.1-5.5v11.1L292.9,235.1z"/>
<rect x="258.8" y="202.3" class="st3" width="224.4" height="266.2"/>
<rect x="258.8" y="247.2" class="st4" width="224.4" height="4.3"/>
<path class="st1" d="M483.8,601.6H240.3V137.5h261.3v446.3C501.7,593.6,493.7,601.6,483.8,601.6z"/>
<polyline class="st1" points="-60,602.1 -201.3,602.1 -236.6,602.1 "/>
<polyline class="st1" points="240,602.1 204.7,602.1 -60,602.1 "/>
<g>
	<rect x="272" y="384.9" class="st5" width="114.1" height="48.8"/>
	<rect x="294.8" y="403" class="st6" width="86.4" height="32.8"/>
	<text transform="matrix(1 0 0 1 294.8283 415.8159)" class="st2 st7 st8">Last ned</text>
</g>
<g>
	<rect x="317" y="217.4" class="st6" width="200.7" height="34.8"/>
	<text transform="matrix(1 0 0 1 317.0432 230.1694)" class="st2 st7 st8">Viktig melding</text>
</g>
<path class="st1" d="M240.7,601.6L240.7,601.6c0,28.5,23.1,51.6,51.6,51.6h274.4h115.1h114.3"/>
<path class="st2" d="M272,216v18.6h27.9V216H272z M287.5,225.8c-0.9,0.8-2.2,0.8-3.1,0l-8.2-7.5h19.5L287.5,225.8z M280.5,225.3
	l-6.1,5.5v-11.1L280.5,225.3z M282.2,226.9l0.7,0.6c0.9,0.8,2,1.2,3.1,1.2s2.2-0.4,3.1-1.2l0.7-0.6l5.9,5.4h-19.4L282.2,226.9z
	 M291.5,225.3l6.1-5.5v11.1L291.5,225.3z"/>
<rect x="272" y="266.4" class="st6" width="200.7" height="191.4"/>
<text transform="matrix(1 0 0 1 272.0432 279.2261)" class="st2 st7 st8">Etaten innfører nye retn</text>
<text transform="matrix(1 0 0 1 462.9431 279.2261)" class="st2 st7 st8">-</text>
<text transform="matrix(1 0 0 1 272.0432 301.5261)" class="st2 st7 st8">ingslinjer for alle foretak </text>
<text transform="matrix(1 0 0 1 272.0432 323.8261)" class="st2 st7 st8">i bransjen som du må </text>
<text transform="matrix(1 0 0 1 272.0432 346.1261)" class="st2 st7 st8">sette deg inn i.</text>
</svg>
