<?xml version="1.0" encoding="utf-8"?>
<!-- Generator: Adobe Illustrator 22.1.0, SVG Export Plug-In . SVG Version: 6.00 Build 0)  -->
<svg version="1.1" id="Layer_1" xmlns="http://www.w3.org/2000/svg" xmlns:xlink="http://www.w3.org/1999/xlink" x="0px" y="0px"
	 viewBox="0 0 740 740" style="enable-background:new 0 0 740 740;" xml:space="preserve">
<style type="text/css">
	.st0{fill:none;stroke:#41A9DF;stroke-width:4.133;stroke-miterlimit:10;}
	.st1{opacity:0.2;fill:#1EAEF7;enable-background:new    ;}
	.st2{fill:none;stroke:#41A9DF;stroke-width:3;stroke-miterlimit:10;}
	.st3{fill:none;stroke:#1EAEF7;stroke-width:3;stroke-miterlimit:10;}
	.st4{fill:#1FB1E6;}
	.st5{fill:none;}
	.st6{fill:#404041;}
	.st7{font-family:'ArialMT';}
	.st8{font-size:21.24px;}
</style>
<path class="st0" d="M242.2,689.7"/>
<rect x="58.1" y="154.3" class="st1" width="626" height="332"/>
<line class="st2" x1="684.1" y1="486.3" x2="58.1" y2="486.3"/>
<g>
	<path class="st3" d="M421.7,572.1v64.8h0.1h119.7c4.9,0,8.9,4,8.9,8.9l0,0c0,4.9-4,8.9-8.9,8.9H348.6h-45.4H200.7
		c-4.9,0-8.9-4-8.9-8.9l0,0c0-4.9,4-8.9,8.9-8.9h119.7v-64.8"/>
</g>
<path class="st4" d="M435.8,363H307.5c-15.9,0-28.8-12.9-28.8-28.8l0,0c0-15.9,12.9-28.8,28.8-28.8h128.3
	c15.9,0,28.8,12.9,28.8,28.8l0,0C464.6,350.1,451.7,363,435.8,363z"/>
<rect x="305" y="326.8" class="st5" width="193.8" height="38.6"/>
<text transform="matrix(1 0 0 1 305.0475 341.9077)" class="st6 st7 st8">Send melding</text>
<path class="st3" d="M784,85.9H656.6H92c-19.5,0-35.4,15.8-35.4,35.4V537c0,19.5,15.8,35.4,35.4,35.4h250.5l144.3-0.2h161.1
	c19.5,0,35.4-15.8,35.4-35.4l0.9-382.8h-626"/>
</svg>
