<?xml version="1.0" encoding="utf-8"?>
<!DOCTYPE svg PUBLIC "-//W3C//DTD SVG 1.1//EN" "http://www.w3.org/Graphics/SVG/1.1/DTD/svg11.dtd">
<svg version="1.1" xmlns="http://www.w3.org/2000/svg" xmlns:xlink="http://www.w3.org/1999/xlink" x="0px" y="0px"
	 viewBox="0 0 90 90" enable-background="new 0 0 90 90" xml:space="preserve">
<g id="Andre">
	<g>
		<path fill="#17C96B" d="M21.1,67.2h10.8V36.9H21.1V67.2z M24.1,39.3h4.8v4.8h-4.8V39.3z M24.1,47.9h4.8v4.8h-4.8V47.9z M24.1,56.1
			h4.8v4.8h-4.8V56.1z"/>
		<path fill="#3F3161" d="M67.5,41.2v-5.8h-2.6v-5.6H63v-5.2h-1.6v5.2h-1.9v5.6h-2.6v5.8h-2.1v26.1h14.9V41.2H67.5z M62.1,63.9h-4.8
			v-4.8h4.8V63.9z M62.1,49.1h-4.8v-4.8h4.8V49.1z M67.8,56.5h-4.8v-4.8h4.8V56.5z"/>
		<path fill="#1EAEF7" d="M34.4,67.2h18.1V22.8H34.4V67.2z M49.9,61H45v-4.8h4.8V61z M40.9,53.8v-4.8h4.8v4.8H40.9z M49.9,46.5H45
			v-4.8h4.8V46.5z M40.9,39.3v-4.8h4.8v4.8H40.9z M45,27.3h4.8v4.8H45V27.3z M36.7,27.3h4.8v4.8h-4.8V27.3z M36.7,41.7h4.8v4.8h-4.8
			V41.7z M36.7,56.2h4.8V61h-4.8V56.2z"/>
	</g>
</g>
</svg>
