<?xml version="1.0" encoding="utf-8"?>
<!DOCTYPE svg PUBLIC "-//W3C//DTD SVG 1.1//EN" "http://www.w3.org/Graphics/SVG/1.1/DTD/svg11.dtd">
<svg version="1.1" id="Layer_1" xmlns="http://www.w3.org/2000/svg" xmlns:xlink="http://www.w3.org/1999/xlink" x="0px" y="0px"
	 viewBox="0 0 90 90" enable-background="new 0 0 90 90" xml:space="preserve">
<circle fill="none" cx="44.7" cy="45" r="45"/>
<path fill="#3F3161" d="M70.8,60.7c-0.8-2.4-3.6-2.8-5.9-3.7c-2.5-1.1-5.3-2.3-7.8-3.3c-0.7-0.2-1.4-0.4-2.2-0.6
	c-0.9-0.6-1.7-2.6-2.2-3.5c-0.5-0.1-0.9-0.1-1.4-0.2c0.1-1.5,1-1.6,1.4-2.7c0.3-1,0-2.3,0.5-3.3c0.4-0.7,1.2-0.7,1.6-1.2
	c0.4-0.5,0.6-1.4,0.7-2c0.2-1.1,0.4-2.7-0.2-3.8c-0.3-0.6-0.5-0.7-0.6-1.5c-0.1-1,0.3-4.1,0.3-4.7c0-1.7,0-1.9-0.4-3.6
	c0,0-0.5-1.5-1.3-2l-1.6-0.3l-1-0.9c-4-2.5-8.3-0.7-10.6,0.2c-3.3,1.1-5.4,4.3-3.9,11.2c0.2,1.2-0.6,1.7-0.6,2.3
	c0.1,1.4,0.2,4.8,1.5,5.6c0.1,0.1,1.1,0.3,1.1,0.2c0.1,1.4,0.3,2.7,0.4,4.1c0.3,0.9,1.1,1,1.4,2.3l-1,0.2c-0.5,1-1.3,2.9-2.2,3.5
	c-0.7,0.2-1.4,0.4-2.2,0.6c-2.5,1-5.3,2.3-7.8,3.3c-2.3,1-5,1.3-5.9,3.7c0,1.6-0.2,5.5-0.1,7.6h21.9h7.1h21
	C70.9,66.2,70.8,62.3,70.8,60.7z"/>
</svg>
