<svg id="Layer_2" data-name="Layer 2" xmlns="http://www.w3.org/2000/svg" xmlns:xlink="http://www.w3.org/1999/xlink" viewBox="0 0 1023.92 467.2"><defs><clipPath id="clip-path"><rect width="1023.92" height="467.2" fill="none"/></clipPath></defs><title>Artboard 1</title><g clip-path="url(#clip-path)"><polygon points="919.47 287.33 1054.95 287.33 1054.95 179.83 919.47 179.83 867.39 176.61 600.33 167.5 576.93 217.95 612.31 276.64 877.33 259.77 919.47 287.33" fill="#fff"/><polygon points="619.67 -42.82 619.67 122.3 740.38 99.57 833.01 150.88 931.5 144.76 1077.28 74.01 1077.28 -23.08 619.67 -42.82" fill="#c0efff"/><path d="M1046.53,76.27C1018.18,60,978.56,63,953.19,86c-10,9-34.08,30.8-51.23,44.28-19.5,15.33-43.63,8.5-58.67-1.26-28.19-18.29-56-49-108.85-47.87,26.06-33.61,68.07-43.27,128.2-35.68C952.48,56.8,1024,0,1024,0L830.07-.6H389.91S476.31,14,518.71,41.08c31.28,20,73.93,50.22,123.08,58.85-32.15,13.92-25,29.09-25,29.09l2.48,21.35,68.09,24,81.87,2.28,116.3-3.67,187.27,0S1086.88,99.43,1046.53,76.27Z" fill="#fff"/><path d="M645.38,152.36c11.76-24.89,26.38-9.81,39.92-16,18.55-8.53,25.27-20.43,38.82-23.65,21.89-5.2,52.27,34.21,52.27,34.21l33.81,17.53-1,12.51-80.3-.62-73-15.21Z" fill="#6a6a6a"/><path d="M1031.82,130.28l-26.33,7.41L979,158s-1,5.17,0,5.4,70.11,4.09,70.11,4.09Z" fill="#6a6a6a"/><path d="M725.22,112.45c17.38-3.19,32.45-1.32,47.06,13.69S785.65,144.29,801,148s9.78,22.32,21.78,22.32-3.35,8-3.35,8-18.69-.26-18.69-8.27S791,156,780.11,155,767,150.79,765,145.3s-4.42-13.46-15.34-15.14S740.52,113.3,725.22,112.45Z" fill="#c0efff"/><path d="M950.31,158.32c3.64-12.15,14.88-20.19,28.25-20.19,25.36,0,21.14-12.59,45.72-12.59,14.6,0,3.28,8.64,3.28,8.64s-9.91-.54-17.42,10.58-18.3,4.46-25.06,13.55-20,6.88-20,6.88Z" fill="#c0efff"/><path d="M292.73,472.49c.55-.15-258.16,28.65-345.24,13.93-24.17-4.09-18.58-59-10.62-61.23,12.26-3.41,442.31,23.24,457.27,19.07l484.05-134.8-15.26-32.62,52.73-1.06L945.22,304,1019,340.51l17.36,145.9Z" fill="#eee"/><path d="M770.06,397.3s6.32-4.38,3.4-6-3.4,6-3.4,6" fill="#422d62"/><path d="M902.08,182.28l29.41,8.08s4.47-.19,3.2-5.86c-1.71-7.59-9.4-21.66-10.49-26.19a14.38,14.38,0,0,1-6.12-1,21.06,21.06,0,0,0-5.41-1.88l-9.39,11.15Z" fill="#422d62"/><path d="M819.94,194.94c-1.65.38-2.63-.3-2.88-4.29-.39-6-2.18-11.33-10.87-11.33-6.81,0-11.62,5.69-11.62,12.88,0,0-2.72-5,.25-13.24a25.3,25.3,0,0,1,6.18-8.82s10.81,1.06,17.19.5,18.25-.31,18.25-.31Z" fill="#422d62"/><path d="M632.5,141.75s105,23.63,109.38,24.13,17.63,1,17.63,1v-5c0-1.16.26-1.38.79-1.75.3-.21.8-.6,1.53-1.06a3.49,3.49,0,0,1,1.88-.35s3,.44,4,.62,1.31.58,1.31,1.74v6.59l32,2.44s-6.44,14.69-6.44,20.69v7.06s-61.37-4.25-71.37-4.25l-110.75-18.5Z" fill="#0062bd"/><path d="M819.94,194.94l82.15-12.65,10.79-26.78s-4.81-1.12-14.75,1.25V153c0-.79-.46-1.09-1.11-1.23l-3-.67a2.8,2.8,0,0,0-1.81.29l-3,1.72a1.34,1.34,0,0,0-.81,1.29v4.55l-25.44,6v-3.17a1.13,1.13,0,0,0-.76-1.26l-2.3-.93a2.14,2.14,0,0,0-1.65.1c-1.09.57-2.91,1.53-3.34,1.78a1.28,1.28,0,0,0-.76,1.38v3.84l-7.94,1.69v-6.85a2,2,0,0,0-1.06-1.75,20.12,20.12,0,0,0-3.77-1.56,18.28,18.28,0,0,0-3.83.87,1.87,1.87,0,0,0-1.15,1.68v9.55Z" fill="#0062bd"/><path d="M985.08,158.32v-3.71c0-.94-.33-1.39-1.27-2.34a2.71,2.71,0,0,0-1.89-.57l-5.89,0c-1.12,0-1.48.8-1.48,1.77v4.81H950.31V154c0-1.11.27-3.58-3.83-3.58h-3.33c-.85,0-1.24.29-1.24,1.39v6.55H923.83l7.67,32h111.85v-32Z" fill="#0062bd"/><path d="M626.76,245.5l99-7.33V202.33c0-4.44,4.58-5.25,18.75-4.46S760,198.79,760,213.4v31.52s69.06-.67,78.06-.5,26.33-.92,38.83-5.92,10.5,13,10.5,13l16.58-3s0-52.53,0-55.27-.26-4.28.88-5.28c.86-.76,1.54-.49,3.87.16,1.62.46,7.22,2.24,13.57,4,2.81.79,3.53.84,4.13,1.69s.66,1.75.66,5.13V250.7c0,3.23,0,5.46,1.82,7.26s12.48,1.45,8,1.45h88.58v37.25l-108.17-4.83-50.17-23-142,17.33-94.75,7.5Z" fill="#eee"/><path d="M801.72,212.58v9.7c0,2.06.2,3.32,3.87,3.32s4.62-.2,4.62-2.46V212.58c0-2-.15-3.22-4.25-3.22S801.72,210.22,801.72,212.58Z" fill="#c0efff"/><path d="M806,204.39c3.54,0,4.25-.35,4.25-2.61v-8c0-2-1.56-5.63-4.25-5.63s-4.25,2.31-4.25,5.58v8C801.72,203.19,802.12,204.39,806,204.39Z" fill="#c0efff"/><path d="M824.86,203.15v7.39c0,1.94.66,2.09,8.18,1.33,6.66-.67,8.12-.72,8.12-2.51v-8.54c0-1.44-1.33-1.38-8.15-.47S824.86,201.15,824.86,203.15Z" fill="#c0efff"/><path d="M824.86,221.39v7.39c0,1.94.66,2.09,8.18,1.33,6.66-.67,8.12-.72,8.12-2.51v-8.54c0-1.44-1.33-1.38-8.15-.47S824.86,219.39,824.86,221.39Z" fill="#c0efff"/><path d="M851.1,199.72v7.39c0,1.94.66,2.09,8.18,1.33,6.66-.67,8.12-.72,8.12-2.51V197.4c0-1.44-1.33-1.38-8.15-.47S851.1,197.72,851.1,199.72Z" fill="#c0efff"/><path d="M877.33,196.11v7.39c0,1.94.66,2.09,8.18,1.33,6.66-.67,8.12-.72,8.12-2.51v-8.54c0-1.44-1.33-1.38-8.15-.47S877.33,194.11,877.33,196.11Z" fill="#c0efff"/><path d="M851.1,218.56V226c0,1.94.66,2.09,8.18,1.33,6.66-.67,8.12-.72,8.12-2.51v-8.54c0-1.44-1.33-1.38-8.15-.47S851.1,216.56,851.1,218.56Z" fill="#c0efff"/><path d="M944.24,197.81c9.29,0,10.53-.47,10.53,3v8.47c0,2.16-1.19,2.38-10.53,2.38s-10.31.4-10.31-2.69v-7.22C933.94,197.81,934.07,197.81,944.24,197.81Z" fill="#c0efff"/><path d="M976,197.81c9.29,0,10.53-.47,10.53,3v8.47c0,2.16-1.19,2.38-10.53,2.38s-10.31.4-10.31-2.69v-7.22C965.64,197.81,965.78,197.81,976,197.81Z" fill="#c0efff"/><path d="M1007.66,197.81c9.29,0,10.53-.47,10.53,3v8.47c0,2.16-1.19,2.38-10.53,2.38s-10.31.4-10.31-2.69v-7.22C997.35,197.81,997.49,197.81,1007.66,197.81Z" fill="#c0efff"/><path d="M944.24,220.45c9.29,0,10.53-.47,10.53,3v8.47c0,2.16-1.19,2.38-10.53,2.38s-10.31.4-10.31-2.69v-7.22C933.94,220.45,934.07,220.45,944.24,220.45Z" fill="#c0efff"/><path d="M976,220.45c9.29,0,10.53-.47,10.53,3v8.47c0,2.16-1.19,2.38-10.53,2.38s-10.31.4-10.31-2.69v-7.22C965.64,220.45,965.78,220.45,976,220.45Z" fill="#c0efff"/><path d="M1007.66,220.45c9.29,0,10.53-.47,10.53,3v8.47c0,2.16-1.19,2.38-10.53,2.38s-10.31.4-10.31-2.69v-7.22C997.35,220.45,997.49,220.45,1007.66,220.45Z" fill="#c0efff"/><path d="M732.55,267.42V239.67c0-6.13,1.24-15,11.29-15,8.68,0,9.85,7.71,9.85,13.57v16.32Z" fill="#422d62"/><path d="M372.55,445.54c83.79-12.62,108.26-27.79,204.38-56.82,53.1-16,106.67-12.81,150.63-25C751.71,357.08,789,347,804,343.67c91.67-20.67,89-22.33,89-22.33L868,271.5l-22.67-1L831,259.83l-8.14-4.61s1.1-9.32-10.54-12.14L782.58,264l-44.32,17.18a334.82,334.82,0,0,0-42.19,1.34c-3.1.33-15.59,3-20.36,3,0,0-9.58-1-17.15,1.93l-59,43.07-90-22.63L-20,425.94S212,469.72,372.55,445.54Z" fill="#00aff9"/><path d="M706.46,303.38c7.18-4,26.73-5.75,40.29-7.46,1.89-.24,3.93-.53,5.31-1.84,1.66-1.58,1.86-4.13,1.83-6.42a3.86,3.86,0,0,0-3.55-4.69c-17.88-4.33-33-2.11-53.93-.48-6.16.48-14.58,2.1-20.7,3-3.79-.19-9.38-.46-13.36.61-7.66,2.06-12.23,7.69-18.2,12.9-4,3.49.64,3.08,6.17,4.91,3.37,1.11,4.14,4,7.39,5,6.39,2,16.88-1.12,23.16-.09C698.64,311.74,699.28,307.42,706.46,303.38Z" fill="#422d62"/><path d="M538.86,311.53c22.52-17.59,48.1,7.28,77.22,13.14,8.45,1.7,23.72,24.81,27.6,24.81C650.08,349.47,716,367,716,367s-198.09,59.23-254.15,75.2c-47.18,13.45-104.82,22.16-156,23.11-65.06,1.2-126.71,1.28-190.85-8.75-42.33-6.62-83.73-17.3-125-28-4.8-1.24-9.93-2.67-13-6.23-4.52-5.28-2.41-13.35,2.69-18.18S-8,397-1,394.87A2533.12,2533.12,0,0,1,390.45,306.5c51.42-7.4,105.28-13.07,154.59,1.95" fill="#422d62"/><path d="M-16.53,349l274.22,44,6.29,50.3s-55.61,12.83-112,8.89S-24.46,434-24.46,434l7.93-85" fill="#0062bd"/><path d="M786.5,413s112.25-41,134.83-42.33,91.17-12.5,91.17-12.5l33.17,1.5-5.5,89-16.25,18s-233.08-7.62-287.33-9c-25.85-.67-40.06-6.33-39.92-13.62.11-5.6,9.25-7.23,18.67-10.75,13.86-5.19,31-8.63,31-8.63l19.33,2.17,5.5-9.53Z" fill="#6a6a6a"/><path d="M902.57,384.92c-4.32-3.33-5.89-21.89-1.88-29.92,4.12-8.25,12.5-9.5,17.62-4.56,3.93,3.79,3.81,5.34,12.62,3.89s11.87.41,14.11,3.8c2.39,3.63,6.64,8.63,14.45,2.38s8.75-8.56,10.5-7.87-2.81,10.38-4.56,11.88c0,0,3.62-.62,6.81-6.56s7-6.38,9.53-8.34c6.64-5.08,6.28-9,8.35-9.29s-1.71,7.06-1.71,7.06,3.77-1,6.46-6.45l13.12,3.26-13.94,18.9-18.69,5.83-9.06-2.67-4.25-.7-4.44,8.57-13.31,3.56-1.53-1.1s-4.12.6-6-.47-2.67-3.94-5.17-2.9a13.84,13.84,0,0,0-4.67,4l-6.71-1.42Z" fill="#00aff9"/><path d="M715.2,281.23a3.83,3.83,0,0,0,2.83-.89c2.74-2.55,5.67-8.3,14.67-8.3,11.84,0,5.56,9.13,5.56,9.13Z" fill="#0062bd"/><path d="M677.07,153.84c5.51,1.83,15.1,9.58,15.1,9.58l17.75,4.75,10.33,9.67s4.63,5.36,5,15.38a26.45,26.45,0,0,1-3.13,17.59c-3.72,6.34-12.75,10-7.66,15.27,4.21,4.35,4.47,22.66-24.42,28.33-2.35.46-6.09,2.3-8.83,2.58l-9.83-45.66-9.42-46.75Z" fill="#00aff9"/><path d="M629.81,229.5c4.46-5.28,7.23-7.86,1.63-12.17s-19.68-12-17.51-29.91,26.53-38.05,42.33-34.7l8.56,38.2,20.94,5.45-1.38,37.72,9.48-6.85s-6.38,23-15.87,34.83c-6.32,7.9-9.21,18.17-9.21,24.82l-8.36-15.57-10-20.05-20.68-14.22Z" fill="#0062bd"/><path d="M597.67,219.73c3.81-1.36,14.74,1.07,13.62,13.25-.88,9.54,8,1.11,18.43,10.54,6.15,5.54,4.68,10.46,9.82,15s9.41,13.63,1.38,23l-38.65-12.25-14.62,6.65-10.73-26.6L589.11,230Z" fill="#0062bd"/><path d="M595,214.76a13,13,0,0,1,2.6,10.74c-1.33,6.33-12.17,10.33-12.5,19s10.25,18.33,4.75,27.83l9.17-6.25,32,12.5,8.17,6.92,12.42-1.42,8.83,6.17s3.8,0,5.66.24a4.07,4.07,0,0,1,2.77,1.81s4-2.89,6.86,1.37c0,0,3.52-3.8,8.51-2.65s3.61,5.35,10.89,4l4.21,2.88s-5.24,4.3-14.09,2.75c-17.54-3.08-10.69,11.78-34.21,7.46C640.31,314.08,636,318.78,634,325.66c-.83,2.87-8.19,5-12.31,4.21-4.9-1-10.83,7.86-24.48,2.63-9.76-5.23-8.52-11.11-8.52-11.11l-28.52-45.81,1.13-25.46Z" fill="#00aff9"/><path d="M272.39,432.91c46.28-6.22,89-16.58,118.84-33.31,38.32-21.46,59.32-74.1,98.86-50.57,0,0,37-45.28,107.07-16.53,0,0-5.92-7.25,0-10.17a7.56,7.56,0,0,0,4.33-8.67s6.25,3.42,11.75,0,5.76-16.92-8.41-15.33-19,1.83-20.59-5.92-5-6-11.17-9.25c-14.94-7.88.45-38.5-7.55-40.09L254.16,285.49A1195.89,1195.89,0,0,1,272.39,432.91Z" fill="#0062bd"/><path d="M589.83,272.33s1.88-2.67,4-5.93a13,13,0,0,1,14.5-4.87c6.79,2.38,5.84,6.88,13.87,8.3,5.67,1,10.5-4.75,16.25.08,4.51,3.79,1,9.58,3.5,11.25s14.42-4.92,18.42,9.08c0,0-9.92-5.33-17.5-1.67s-10.58-5.42-16.5-6.92-13.17,3.58-17.25-2.75C605.33,273,598.25,267.5,589.83,272.33Z" fill="#ff3853"/><path d="M668.85,292.29s.15-22.92,1.21-30.6.83-15.56-8.25-30.06c-7.44-11.87-2.68-16.67-5.56-20.56-3.19-4.31-10.87,1.19-7.37,14.25S659.44,244,656.25,251c0,0-19.56-12.37-26.44-21.5,0,0-7.19,7.13.5,14.63S649,254,650.44,259.69s1.25,7.44,5.37,12.88,4.6,7.38,4.6,17.69C660.42,290.25,664.31,297.5,668.85,292.29Z" fill="#422d62"/><path d="M908.17,295.08l14.25,8.33s-3.83,11.08.42,18.67c4,7.07,12.92,9.5,12.92,9.5l63.17-1.42s1.58-19.08,25.42-17.58l.67-19.5-36.67-8.83s-25.92-2.83-36.17-2.83H927.08c-3.67,0-4.58.5-4.58-7.33V255.83c0-6.67-2.33-12.75-9.83-12.75s-10.58,9.5-10.58,9.5Z" fill="#422d62"/><path d="M753.5,258.83l-12.33,11,8.83,14S762,279.67,753.5,258.83Z" fill="#422d62"/><path d="M934.65,331.22c14.35,6.28,27.69,5.11,64.69,5.11s40.83-1.83,40.83-1.83-1.37-18.39-20.42-24.33c-11.75-3.67-21.58,3.67-25.67,7.08s-11.67,4.08-16.75,1.17-9.42-.67-13.79,3.75-11.84-6.89-21.66-3.69C931.38,321.89,934.65,331.22,934.65,331.22Z" fill="#0062bd"/><path d="M958,300.51c0-8.12-1-18.13-13-25.23s-15.72-21.28-8.36-26c5.52-3.55,4.41-4.34,4.18-8.51l12.06-12.69,11.9-13.4s9.7-3.39,12.69,3.47a8.16,8.16,0,0,0,5,4.79c2.6,1.2,4.1,3.94,2.84,7.91-1.74,5.44-3.78,8.23-.08,12.26,5.6,6.11,6.23,10.68,4.41,16.28s.16,9.22.16,9.22,3.69-6.83,10.09-6.07c4.65.55,5,5,7,3.55s3.71-9.46,11.75-9.22,14.9,26.33,14.9,26.33l-.55,19.39a31.68,31.68,0,0,1-19.16-9.07c-8.36-8.51-24.74-8.59-30.66,1.1,0,0-8.52-7.26-15.54,2.13C963.22,302.75,958,300.51,958,300.51Z" fill="#0062bd"/><path d="M940.84,240.75c-1-7.31-2.66-13,5-16.06s4.94-9.62,11.56-15c7.69-6.25,17.28.33,19.81,7.9a8.08,8.08,0,0,0,3.76,4.58s-4.45.7-9.13-3.11-11.9-2.62-12.12,6.75c-.19,7.81-4.28,4-9,6.75S948.38,240.75,940.84,240.75Z" fill="#00aff9"/><path d="M825.08,331.59c2.14,1.52,7.78,1.4,10.88-4.46s6.25-6,9.8-5,3.94-.79,4.79-2.2,4.45-1.41,7.89,1l-.7-7.89s-6.34,2.7-12.42,1.86c0,0,2.43-1.52,1.83-3.22s-1.76.84-3.38,2a16.39,16.39,0,0,1-3.14,1.82s1.94-3.91,1.19-5-3.32,5.44-7.14,6.9-7.17,6.9-8.84,6.81-1.11-7.86-.66-10.19-1.31-1.79-2.18,2.9-1,6.39-1.76,6.42-1.58-6-3.08-9.14-2.42-3.08-1.34,2.9.87,8.6,3,9.7C823.17,328.57,823.25,330.29,825.08,331.59Z" fill="#0062bd"/><path d="M653.78,152.39a43.38,43.38,0,0,0-8.9,18.36c-2,10.5-3.62,4.88-9.5,8.38s-8.61,16.38,4.25,19.88c10.22,2.78,13.38-5,16-3.75s7.63,7,13.5,2.13c0,0,1.79,8.13,10.21,7.79s-14.83,24.33-2.75,37.91c4.53,5.09,8.86,4.29,12.08-.8,6.52-10.3,8.33-24.32,1.67-29.95,0,0,5.21-1.13,7.08-8,1.24-4.53.12-13.5-9-16.67-3.91-1.36-1.92-6.54-4.06-9.77-2.89-4.34-7.64-5.29-13.86-2.4-3.73,1.74-8.67-7.67,3.92-16.58,6.65-4.72,3.68-9.49-2.45-10.2C663.12,147.7,653.78,152.39,653.78,152.39Z" fill="#0062bd"/><path d="M653.78,152.39s7.71-9.21,22.46-6.22c10.24,2.07,10,7.93,16.78,14.32,5.5,5.2,9.52.45,18.91,4.53,10.07,4.37,16.94,16.73,13.28,28.19,0,0,.14-11.41-7.24-13.43s-8.28-9.68-14.15-9.57-9,1.4-14.77-1.68-6.34-9-12-15.5C672.44,147.82,659.81,149.8,653.78,152.39Z" fill="#c0efff"/><path d="M1014.38,320.25c-10.12,7.88-12.19,22.31-12.19,22.31a13.54,13.54,0,0,0-7.38,9.63c-.56,3.16-2.61,7.45-3.4,7.48-3,.13-2.7-3.29-2.7-3.29s-2.42,4.33-5.42,4.58a10.87,10.87,0,0,0,2-3.83c.42-1.92-.83-2.37-3.12.29s-6.37,4-10.33,3.54-8.42.21-12.33,7.42-9.08,2.54-14,7.08c0,0,.23-4.91-1.81-6.41,0,0,.81,6.37-2.69,10.33a27.39,27.39,0,0,0-5,8.13,36.66,36.66,0,0,1,.83-7.42c.88-4-2.37-2.67-4.17,2.79s-4.92,8.75-10.21,11.21-9.5,8.25-7,11.21c1.66,2,6.39,1.19,12.67-3.71,3.79-3,9.88-6.5,12.75-4s-3.42,8.17-3,10.25,6.26,1.42,7.13-6.17a51.28,51.28,0,0,0-.34-14.25c-.25-2.71,1.75-4.12,2.13,0a67,67,0,0,1-.17,9.92,26,26,0,0,0,4.83-8.5c1.5-4.79.58-10.62,2.25-10.71s.58,4.79.58,4.79,2.4-4.23,3.75-3.62c1.2.54,1,2.29-2.8,6.1,0,0,2.49-.69,2.43,1.06-.05,1.38-3.9,2.78-3.9,2.78s2.5.64,0,3.34,1.44,4.5,4.23-.54a39.44,39.44,0,0,0,3.87-9.66,26.67,26.67,0,0,0,.16-9.48c-1.28-7.21,3.72-8.45,3.47-3.15-.18,3.74-1.92,4.55-1.2,7,.35-1.52,3-6.31,4.22-5.34S965,377,965,377s5.49-3.53,5.21-1.86-4.8,3.67-5.21,3.82c.33-.12,2.68,0,2.18,1.5s-3.14,1.26-3.39,2.84,1,2.33-1.54,4.17,1,2.58-1.87,7.92c-3.21,5.92,8.54,3.63,8-5.29-.44-7.88,1.26-5.87,2.7-3.28s2.73,2.4,4,6.38c0,0-.12-7.76,2.5-12.3a25.24,25.24,0,0,1-.54-4.42c0-1.8,0-4,1.2-4.5,1.58-.67,1.67,2.83,1.67,2.83a20.8,20.8,0,0,1,2.27-5.1c2.15-3.19,5.77-3.2,5.15-1-.54,1.91-2.73,2.22-3.73,5.05,0,0,3-2.81,3.65-1.55.8,1.55-3.82,2.92-3.82,2.92s2.34.59,1.33,2.5-4.33,1-5.79,3.34c-1,1.55-2.42,5.62-1.25,6,.89.29,4.5-5.28,8.36-7.27,2.44-1.26,4.26-.48,2.76.65-1,.78-3,1.91-3,1.91s2.18,1.09-.28,2.76-2.15,4-5.77,4.41c0,0,3.51,3.52,2.06,6.34-1.09,2.13,1,4.31,3.34,3.81s5.37-3,5.78-9.27c.79-12,2.08-7.58,2.92-4.71s2.38,10.88,4.75,10-.29-4.12-1-11.21,1.42-9.5.46-12.75a14,14,0,0,1,3.83,11.25c-.75,7,.17,9,1.25,9s2.81-7.65,2-13.37c-1.25-8.83,3.17-11,3.17-11s-.32,5,.88,8.13c2.38,6.17-1.83,12.25.63,13.21S1014.5,378.54,1025,378s12.73-54.94,12.73-54.94S1024.5,312.38,1014.38,320.25Zm-72.79,74.2a8.45,8.45,0,0,1-3.33-6.09c-.09-1.82,1.47-1.91,3.6,1.53S943.16,395.55,941.58,394.45Zm33.58-18c-1,3-5.71,5.2-5.71,5.2a36.3,36.3,0,0,0,2-3.16c2.43-4.5-.44-7.9,2.27-8.41C974.95,369.83,976.56,372.08,975.16,376.43Z" fill="#422d62"/><path d="M965,379h0Z" fill="#422d62"/><path d="M912.79,374.46s-1.93,2.46-3.33,4.71c-1.84,2.94-6,3.94-8.16,5.06s3.29,3.06,11.16-1,11.54-5,11.54-5-2,2.42-.5,3.13,7.42-2.87,9.25-6.42,3.63-4,3.63-4-4.5-.46-6.92,2-1.13-.66.17-5.22a14,14,0,0,1,3.2-5.79c.62-.81-2.83.42-5.32,4.17-4.1,6.17-3.69-.32-3.32-2.13.3-1.48.17-3-.38-3.08-1-.1-2.06,1.09-2.85,4.67-.85,3.84-2.22,5.67-3.26,5.64s-1.18-3.4,1.27-8.81-1.33-7.83-1.33-7.83.16,3.34-.75,4.91a18.35,18.35,0,0,0-1.13,4.42s-1.37-.5-1.33-5.62c0-3.19-1-4.83-2.73-3.51-1.57,1.17-.53,5.7,1.14,8.91,3.22,6.21,2.18,8,.76,6.85-.75-.61-1.54-2.3-2.69-4.22-.75-1.25-3.18-2-3.18-2a16.88,16.88,0,0,1,1.38,5C909.5,372.5,912.79,374.46,912.79,374.46Z" fill="#0062bd"/><path d="M935.88,367.09c-1.33-.27.21-7.17,3-6.58S937.54,367.43,935.88,367.09Z" fill="#ff3853"/><path d="M947.67,378.13c-1.24-.5-3.87,4.08-1.92,4.71S949.13,378.71,947.67,378.13Z" fill="#00aff9"/><path d="M970.46,365.58c-1-.42-3.62,3.61-2.12,4.31S972,366.25,970.46,365.58Z" fill="#00aff9"/><path d="M981.28,366.06c-1-.4-2.5,1.2-1.21,2S982.66,366.6,981.28,366.06Z" fill="#eee"/><path d="M986.75,389.54c-1.37-.75-3.21,1.83-1.25,2.67S987.84,390.13,986.75,389.54Z" fill="#eee"/><path d="M993.88,369c-1.75-.83-3.58,2.58-5.46,6.38a9,9,0,0,0,4.42-2.42C994.88,370.88,994.59,369.38,993.88,369Z" fill="#ff3853"/><path d="M1030,316.93a16.59,16.59,0,0,0-15.5-1.26c-10.2,4.05-8.73,13.11-10.33,15.91s-9.83,5.42-11.53,15.64-1.2,12.44-1.2,12.44,2.38.06,3-3,2.86-3.73,5.9-5.7c4.64-3,7.28-6.58,5.64-12.39s2.17-9.34,5.28-10.86,1.24-6.5,4.76-6.22C1019.69,321.74,1028,321.27,1030,316.93Z" fill="#0062bd"/><path d="M943.92,369.33c-.06-.65-1.9-.73-1.73,1.4.22,2.74-.84,7.88-2.31,10A14.3,14.3,0,0,0,943.92,369.33Z" fill="#eee"/><path d="M825.66,411.07c.84,1.55,1.28,3.42,3.92,3.19s3.19-1.64,5.47-.68a6.16,6.16,0,0,0,5.88-.59c1-.91.68-2.05-2-2.78s-2.1-2.19-4.83-2-3.1-1.73-5.34-.78-3.24.46-4,1.41S825.14,410.1,825.66,411.07Z" fill="#0062bd"/><path d="M857.17,415c-.78-1.41,1.87-3.38,3.55-3.51s2.78,1.24,3.6,0,1.87-2,3.31-1.09a16.44,16.44,0,0,0,4.56,1.73c1.73.29,2.21,1.73,0,1.69s-4.8,1.72-6,3-4.58.94-5.85,0C858.7,415.53,857.65,415.81,857.17,415Z" fill="#422d62"/><path d="M847.85,419.4c-1.67-1.67-8.34.34-12.93,7.4,0,0,5.1.94,8.68-2S848.61,420.17,847.85,419.4Z" fill="#0062bd"/><path d="M886.75,431.54c-.29-1.61-4.42-2.24-6.62-1.87a4.16,4.16,0,0,0-3,2.09s-1.39-1.36-3.87.07a9.46,9.46,0,0,0-3.86,4.34c-.59,1.05,2.4,1.21,4.35,1.26,3.76.11,4-2.14,5.84-2.06C884.81,435.58,887,432.93,886.75,431.54Z" fill="#0062bd"/><path d="M816.48,420.76s3.28,5.43,8.86,1.3c2.66-2,2.39-5.73-.48-3.26S819,418.29,816.48,420.76Z" fill="#422d62"/><path d="M848.54,429.2s6.72-6.26,8.08-2.69S848.54,429.2,848.54,429.2Z" fill="#422d62"/><path d="M864.75,423.54s3.23-3.27,9.1-.45C873.86,423.09,870.37,427.46,864.75,423.54Z" fill="#422d62"/><path d="M832.24,444.43c-1.33-1.42,1.51-7.41,7.2-5.22a3.4,3.4,0,0,1,3.23-1.39c2.14.29,3.86-1,4.52,0s-2.63,4.14-3.83,5.21c-1.76,1.56-3.15-.21-5.53.25S833.3,445.57,832.24,444.43Z" fill="#0062bd"/><path d="M801.79,435.06a8.41,8.41,0,0,0,5.74,1.54c3.21-.43,3.64-2.08,5.61-2.08s3.66,2.18,7.54-2.73c1.6-2-1.87-1.66-4-2.08s-3.69-1.39-5.61,1.23-3.58-1.23-5.13-.32S801.79,435.06,801.79,435.06Z" fill="#0062bd"/><path d="M829.49,254.92c-3.12-5.29-8.32-11-14.21-12.7-5.21-1.53-11.49-1-15.18,3a15.27,15.27,0,0,0-3.55,9.09c-.55,6,1.14,12.41,5.6,16.42,5,4.53,12.39,5.16,18.49,8.09,5,2.39,9.07,6.27,13.31,9.82s8.93,6.9,14.37,7.89,11.78-1.06,14.25-6c1.94-3.89,1.11-8.69-1.05-12.46s-5.48-6.71-8.74-9.58c-1.4-1.24-3-1.55-4.45-2.78" fill="#00aff9"/><path d="M789.94,299.07c6.4.62,16.07-3.82,16.07-3.82s28.71-.78,36.51,1.09a32.94,32.94,0,0,0,15.21-.31,61.61,61.61,0,0,1-13.19-8,53.55,53.55,0,0,1-12.24-14.12c-2.34-3.68-7.62-8.88-14-2.73,0,0-4-5.93-10.53-4.68l-21.22,9.05Z" fill="#422d62"/><path d="M842.52,296.34s-1.77,2.6-8.7,4.74c-5.58,1.72-8.33-5.19-14.36-3.18-3,1-3.85,3.59-7.72,5.69-4.43,2.41-3.32-5.41-7.66-1.86s-7.72,5.91-7.89,3,2.4-6.78,2.4-6.78,5.32-3.25,7.18-6.34,3.5-6.41,5.52-5.8c1.69.51-.51,4.9-1.13,6.7s.56,2.42,2.25.23,3.89-6.59,5.91-6-1.07,5.32-2.2,6.87,2.53,2.14,6.53-2.87,5.69-6.85,5.69-6.85.84,5.14,4.39,8.09A22.26,22.26,0,0,0,842.52,296.34Z" fill="#0062bd"/><path d="M888.23,445s18.53-25.3,32.07-21.09c15.21,4.73,18.14-14.9,31.16-13.79,12.33,1.05,12.33,12.46,12.33,12.46a96.3,96.3,0,0,1,30.33-20.88c6.25-2.73,16-3.8,26.72-3.93s13.49,3.86,19.17,8.75c3.84,3.31.54.53,1.9,5.41,2.47,8.89,2.47,19.39-3.69,26.25-5.77,6.44-15.2,7.88-23.83,8.37-2.67.15-5.49.22-7.84-1.05-5.8-3.14-5-11.57-3.46-18-2.78-1.71-6.49.31-8.36,3s-2.78,6-4.9,8.47-6.34,3.78-8.55,1.37a14.57,14.57,0,0,1-1.81-3.41,8.93,8.93,0,0,0-12-3.45c-4.19,2.49-5.88,8.25-10.42,10a7.48,7.48,0,0,1-9.44-4.48c-.76-2.34-.29-5-1.3-7.23-1.7-3.77-6.93-4.68-10.79-3.18s-6.77,4.67-9.9,7.38C914.63,445.6,888.23,445,888.23,445Z" fill="#422d62"/><path d="M685.79,268.41c0-1.07,1.47-2.44,4.2-2.44a6.07,6.07,0,0,1,4.21,1.46l-2.75,2.46S685.79,269.48,685.79,268.41Z" fill="#0062bd"/><path d="M694.2,267.42c-2.68,1.31-8.41,1-8.41,1s-.15,3.83,3.12,4.43a12.58,12.58,0,0,0,6.8-1.17Z" fill="#fff"/><path d="M820.51,376.05s0,6.74,0,8.08,0,4.17,2.56,4.5c2.81.36,3.8-1.6,7.11-1.5s2.53,1.66,5.25.91,3.68-2.66,5.87-1.41,3.82,1.63,7.6-.12,6.4,2.54,6.4,2.54l7.32-6.22-.52-5.53Z" fill="#422d62"/><path d="M825.5,258.83,842.11,371.5c.28,1.67,16.73-.2,16.73-.2l3.26,6L826,380l-5.47-4s-.13-1.78,3.65-1.87,15-.07,14.63-2.69L822.16,258.83Z" fill="#ff3853"/><path d="M891.56,405c.13,3.5-4.62,15.34-4.06,19.11s8.22,6.81,13.19-2.36c1.27-2.35.75-7.75,1.19-10.19s-.94-8.5-.94-8.5Z" fill="#422d62"/><path d="M870.42,386.47s.45,7-.63,9-.91,2.31-7.22,4.87c-3.57,1.45-8.58,3.39-13.77,3.7-4.77.29-6.64-1.77-6.44-3.68.4-3.8,5.81-5.56,8.4-6.52s4.53-2.85,4.53-5.69Z" fill="#422d62"/><path d="M901.87,319.19c.8,6.29,1.32,31,.54,46.7-.72,14.62,1,29.25.16,37.37-.06.62-.2,1.74-1.23,1.74H891.27a3.79,3.79,0,0,1-1.75-.33c-.64-.35-.87-.64-1.27-2.34-2.4-10.33-11-47.49-12.75-56.08a329.36,329.36,0,0,0-3.26,38.67c0,2.33-.12,3.49-1.08,4.1a3.64,3.64,0,0,1-1.95.33c-1.56,0-14-.27-14-.27s.9-30.63,1.17-49.45c.29-19.84,1.36-30.37,1.36-30.37Z" fill="#0062bd"/><path d="M903.61,247c3,3.74,9.66,8.13,9.66,21.53s-.51,19.91-2.89,25.61-7.15,3.66-7.15,3.66.51,18-1.36,21.4-44.46-6-44.46-6l.33-32.63s1.59-3.91-2.58-3.62-7.06.51-7.74-.26l-.21-12c0-2,9.57-12.17,19.31-17l27.18-3.11Z" fill="#fff"/><path d="M790.74,299.12s-1,20.69-1.56,26.94-1.3,10.85-1.3,16.64l-9.27,3.92s-6.65.72-6.65-2.55a287.14,287.14,0,0,0-.72-30.08s-3,.44-4.31,11.75-2.21,14.17-2.52,18.84-8,3.53-8,3.53-8.26,2.52-8.25-4.43,1.57-42.76,1.57-42.76l.06-8.69L764.94,291Z" fill="#422d62"/><path d="M764.42,344.59S763,366,762.58,370.12s-3.19,7.7-9.17,12.3-13.14,5.54-14.9,3.92-2.49-5.69,4.75-10.74c5.49-3.82,4.85-7.5,4.85-14.75V343.7s.65.18,1.34-1,3.19-1.39,5.33.17S764.42,344.59,764.42,344.59Z" fill="#ff3853"/><path d="M772,344.08v28.72c0,1.7.64,2.45,4.53,3.34,5.77,1.31,8.86,4.47,12.58,5.26,4,.83,9.93,1.31,12-1s.36-5.26-5.51-7.58-7.65-6.64-7.65-9.9V342.71s-1.16-2-5.29.43S772,344.08,772,344.08Z" fill="#ff3853"/><path d="M808.23,254l-4.17.63-4.95.84-56.86-5s-10.44,11.44-10,16.92c1.68,21,5.13,24.45,8.92,25.33s6.15,5.31,6.15,5.31,9.23-6.12,18.62-2.87c10.8,3.74,18.81,6.38,24.81,3.94s6.13-15.29,6.13-15.29c11.63.08,13.75-21.08,14.56-25.52S808.23,254,808.23,254Zm-58.17,24.63s-2.63-5.87-1.94-10.12a9.35,9.35,0,0,1,4.25-6.25Z" fill="#eee"/><path d="M750.21,287.33s-5.75,1.92-9,5.42c0,0,1,3.48,1.58,6.38s2.93,9.16,6.63,9,1.54-8.37,1.83-12.06a13.22,13.22,0,0,1,2.54-.94,22,22,0,0,0-2-5A15.44,15.44,0,0,1,750.21,287.33Z" fill="#fff"/><path d="M737.84,255.88c5-6.34,12.79-17.8,22-17.67s27.5-1.53,27.5-1.53,10.52,1.91,12.76,7.23c2.39,5.65,5,11.62,5,11.62s-4.06-.41-5.11.65-5.25,3.19-5.25,3.19Z" fill="#00aff9"/><path d="M799.26,243.07c.17,3.2.15,7.31.15,7.31l5.39,3.35,5.57-3.74a77.61,77.61,0,0,0,1.34-8.16c.35-3.78-.88-4-5.37-4.44C799.06,236.71,799,237.7,799.26,243.07Z" fill="#ff3853"/><path d="M799.2,242.41s-1.27.17-1.57,3.33c-.27,2.85,2.86,6.08,3.17,10.82.08,1.21,2.39.62,4.56.49s4.23.19,4.43-1.1a15.81,15.81,0,0,1,1.68-5.69c1.1-1.86,2.93-6.63.23-8.43-6.73.87-6.39,2.66-6.6,4.53s2.66,3.75,2.66,3.75S799.47,256,799.2,242.41Z" fill="#fff"/><path d="M800,256.19l-1.67,7.08s-24.7,4.39-45.43-.86c-15.13-3.83-16.31-4.8-16.31-4.8s1-1.35,2.55-3.41C742.24,254.71,789.67,256.88,800,256.19Z" fill="#ff3853"/><path d="M771.89,238.14c2.17,1.59,7.58,1.56,9.46-.9l4.89-9.41L786.4,217,780,209.26l-5.5.16-7.64,8.47,1,9.24,3.26,8.61Z" fill="#fff"/><path d="M776.05,206.43c-5.79.16-14.77,2.85-17.29,19s5,14.79,9.69,14.45,7.38-5.75,3.53-13c-1.55-2.93-2.67-4.11-1.78-6.82s2.33-.43,5.19-3.64,3.18-5.78,3.18-5.78a13.42,13.42,0,0,1,6.12,8.76c1,5.89,0,7.62-1.94,9.15-1.65,1.32-1.6,5.38-1.4,8.71.7,1.21,4.52,2.79,7.08-.31s3.44-14.37,1-20.34S783.26,206.23,776.05,206.43Z" fill="#422d62"/><path d="M892.56,240.84s-1-4.85.45-7.49-2.81-15.12-2.81-15.12-14.38-3.05-15.49,0a16.55,16.55,0,0,1-4.67,7.21c-2.31,2.27,2,3,2,4.76s-.74,4.85,2.73,6.47a7.68,7.68,0,0,1,4.16,5S884,244,892.56,240.84Z" fill="#422d62"/><path d="M889.83,233c3.53.26,5.09,1.12,6.93-5.3,2-6.79,0-10.78-4.08-13.59s-13.63-5.28-18.29-1.57c-3.53,2.81-.94,5.41,1.87,5.79,1.71.23,5.16,1.28,6,2.25,1.6,1.86-.34,6.3,1.28,6.55.82.13,2.42-2.38,3.57-1.28S886.3,232.75,889.83,233Z" fill="#0062bd"/><path d="M872.9,244.79s1.26-4.62,4.45-6.19a7.25,7.25,0,0,1,1,1.36,1.07,1.07,0,0,0,.87.63c1.26.06,4.29.18,6.69.06,3.11-.16,7.75-2.58,10.68-1s7.06,7.32,7.06,7.32-14.12-1-14.17,2c0,2.54.63,12.63-1.22,18.44-.38,1.21-.83,2.41-1.5,2.7a6.45,6.45,0,0,1-2.07.26h-3.32l-10.4-12.55Z" fill="#ff3853"/><path d="M883.21,251.76a13.91,13.91,0,0,0-.51,4.66c.18,1.88-2.79,6.41-7.41,6.34a13.74,13.74,0,0,1-7.62-2.38,13.26,13.26,0,0,0,4.44-4.75,7.63,7.63,0,0,0,.9-3.33l2.89-2.82A8,8,0,0,1,883.21,251.76Z" fill="#422d62"/><path d="M883.21,251.76c.51-2.29-2-7.7-9.64-7.32S859,253.84,866,260.88s2.69,18.78,2.69,18.78,5.56,11.19,19.91,8.59a15.74,15.74,0,0,1-8.62-4c-3.47-3.47-.85-5.73,2.59-1.16s6.53,2.72,3.87-1.69.28-10.19-6.06-16-11.59-5.34-11.59-5.34,4.65-3.36,4.23-7.82c0,0,1.74-1.72,2.32-2.27S879.21,248.23,883.21,251.76Z" fill="#0062bd"/><path d="M869.37,240.94c-2.13.4-3.53,1.85-3.15,4.12s2,3,4.58,1.87C873.51,245.68,875.14,239.85,869.37,240.94Z" fill="#00aff9"/><path d="M903.61,247c2.57-.65,5,3.34,2.37,4s-16.56,5.36-26.45,14.77a95.81,95.81,0,0,0-6.81,7.28s-1,6.67,1.2,9.64c2.83,3.82,7.38,5.69,14.66,5.54l-.68,3.52-21.76.52s-8.25-1.31-9.51-6.18-.12-15.41.58-19c.74-3.81,1.53-8.62,11.38-6.41,4.74,1.07,5.48,3.21,5.48,3.21S886.26,251.41,903.61,247Z" fill="#6a6a6a"/><path d="M881.52,298.45a40.63,40.63,0,0,0-.52,10.72c.16,2.56-3.56,4-7.33-.74s-2.1-9.42.31-11.76S881.52,298.45,881.52,298.45Z" fill="#00aff9"/><path d="M867.28,295.69a38.73,38.73,0,0,0-2,6.77c-.52,3.13-1.1,5.38-4.56,4.86s-3.61-7-2-10.42,3.19-4.4,3.19-4.4Z" fill="#00aff9"/><path d="M895.42,286.74s5.61,2.3,8.19,4.66,2.85,6.64-2.24,6.76c-9.27.21-24.16,1.86-29.24,0S860.45,294,860.45,294s-2.92-4.54-3.86-5.91.84-4.92,4.35-3.4,4.34,2.59,4.87,1.83-2.46-2-2.71-2.93c-.13-.48,1.49-1.73,4.56.68a81.93,81.93,0,0,0,7.28,4.76c1.52.91,1.93,1.26,2.76,1.34a22,22,0,0,0,3.82-.65Z" fill="#422d62"/><path d="M697.44,282.38s.48,4.5.82,7.87-6.2,5-5.57,7.76c.18.79,3.57,1.94,6.94-.28s4.79-.94,5.28-8,.59-8,.59-8S700.91,282,697.44,282.38Z" fill="#0062bd"/><path d="M708.18,281.55s5.21,5.3,7,7.36c3.29,3.76-2.78,7.1-1.69,8.55,1.72,2.3,6.3-1,9-3.14a3.83,3.83,0,0,0,1.06-4.09,21.28,21.28,0,0,0-6.18-9.38Z" fill="#0062bd"/><path d="M722,258.83c1.74,5.79-1.37,10.59-7.33,17.48l2.69,4.54-9.18.7a4,4,0,0,1-2-3.19,5.77,5.77,0,0,0-.73,3.36l-6.17.48a36.89,36.89,0,0,1-.23-6.91c.34-2.1,2.49-5.86,7-8.45Z" fill="#422d62"/><path d="M698.16,245.82s9.23-2.45,15.65,2.21c4.63,3.36,6.44,5.72,8.2,10.81,1.67,4.83-4.4,9.43-13.63,7.63,0,0-3.32,4.17-13.09,6.17-.35.07-1.09.06-1.09-.64v-4.57s4.63-2.34,5.48-3.67c1-1.5.33-7-2.16-7.43-2.25-.4-6.72.39-12.06,2.37-.43.16-.86.86-1.31,1-.15.06-.31-.42-.46-.36-6.11,2.47-4-2.09,1-4.5,5.88-2.81,5.62-4.11,8.44-6C695,247.68,698,248.06,698.16,245.82Z" fill="#ff3853"/><path d="M687.41,247.18a19.71,19.71,0,0,1,1.68,4c.36,1.65,1.74.35,3.31.93s7.19-.12,5.76-6.34S687.41,247.18,687.41,247.18Z" fill="#fff"/><path d="M692.69,245.25a4.48,4.48,0,0,0,2.4,1.84c1.67.31,2.31-1.92,3.31.45,0-.93.54-1.87,0-3.21a6.94,6.94,0,0,0-2.13-3,6,6,0,0,0-6.7,0c-5,3.18-2.19,5.82-2.19,5.82S689.3,248.69,692.69,245.25Z" fill="#0062bd"/><path d="M675.72,285.47,683,263.31c1.31-1.44,3.69-2.47,3.75-5.08a6,6,0,0,0-1.48.25c-.28.08-.91.88-1.25.87s-.3-1.19-.73-1.26c-1.5-.24-3.4.5-3.54,1.6a3.86,3.86,0,0,0,1.62,3.62l-7.25,22.06a33,33,0,0,0-3.55-.06c-.82,2-.83,5.05-.07,9.37,0,0,3.69-1.25,5.51.75,0,0,1.92-1.67,3.24-5.83C680.69,285.07,675.72,285.47,675.72,285.47Z" fill="#6a6a6a"/><path d="M823.56,268.34a7.38,7.38,0,0,1,3.42.55l-1.65-11.24-3.17,1.19Z" fill="#fff"/><path d="M847.41,276.74s-12.24-10.37-14.6-12.52-2.62-.94-6.39.63-5.13.9-3.35-1,2.3-4.64-.31-1-3.93,5.66-5.66,5.29c-1.22-.26-.57-4.71-.07-7.33a6.31,6.31,0,0,1,1.81-3.41,12.52,12.52,0,0,1,6.76-2.83,12,12,0,0,1,6.35,1.16c7.06,3.05,15.25,9,15.25,9" fill="#422d62"/><path d="M650.32,395.1h-.05a2,2,0,0,1-1.95-2l1.2-48.19a2,2,0,0,1,2-2h.05a2,2,0,0,1,1.95,2l-1.2,48.19A2,2,0,0,1,650.32,395.1Z" fill="#0062bd"/><path d="M705.64,388.72a5.52,5.52,0,0,1-2.73-.72c-6.78-3.81-13.17-13.49-13.44-13.9a2,2,0,0,1,3.35-2.19c.06.09,6.13,9.28,12.06,12.61a1.65,1.65,0,0,0,1.45.09c3.53-1.18,8.2-9.23,10.31-14a2,2,0,1,1,3.66,1.61c-.63,1.44-6.36,14.09-12.7,16.21A6.12,6.12,0,0,1,705.64,388.72Z" fill="#0062bd"/><path d="M745.92,340.6,697,333s-70.68-2.84-75.4-3.11-5,2.4,1.78,4.11,15.38,13.78,24,22.33,22.25,16.54,22.25,16.54l26.5,6.67,2.23-3,26.28-3.9,11.74-9,7.25-14.54Z" fill="#eee"/><path d="M668.44,341.86,697,378.34s21.25-4.08,29-6.1,10.25-6.78,11.63-12.71,4.38-12.77,6.5-15c0,0-29.12-.89-47.87-1.27S668.44,341.86,668.44,341.86Z" fill="#6a6a6a"/><circle cx="659.56" cy="397.07" r="23.36" fill="#6a6a6a"/><circle cx="661.91" cy="397.07" r="15.22" fill="#422d62"/><path d="M730.9,406.08c-6.87,0-15.91-7.48-25.39-15.32-2.73-2.25-5.3-4.38-7.71-6.23-3.95-3-7-4.19-9.62-3.7-3.56.67-7.26,4.56-12.38,13-5.23,8.64-11.5,12.79-16.77,11.09-3.7-1.19-5.75-5.08-5.36-10.15.63-8.12,12.31-53.33,12.31-53.33l4.93.64S659.15,389,658.67,395.17c-.21,2.64.52,4.56,1.9,5,2.23.72,6.63-1.76,11-8.92,5.08-8.38,9.69-14.19,15.72-15.33,4.11-.78,8.42.7,13.58,4.64,2.49,1.9,5.1,4.06,7.86,6.35,7.85,6.5,19.72,16.31,23.76,13.76s3.72-15.36,3.37-24.64c-.21-5.67-.39-10.57.26-13.82l.11-.56c1.43-7.19,4.1-20.56,20.31-30.21,14.16-8.43,23.36-10.6,28.85-11.9.75-.18,3.91-.85,4.53-1a2.5,2.5,0,0,1,1.24,4.84c-.66.17-3.85.84-4.63,1-5.55,1.31-13.94,3.29-27.44,11.33-14.3,8.51-16.59,20-18,26.89l-.11.57c-.54,2.66-.36,7.51-.17,12.64.43,11.66.92,24.87-5.7,29.05A7.75,7.75,0,0,1,730.9,406.08Z" fill="#0062bd"/><path d="M709.7,335.36l-2.3-3.27,15.13-10.62a29.79,29.79,0,0,1,16.25-5.86,2,2,0,1,1,.31,4,25.81,25.81,0,0,0-14.25,5.14Z" fill="#0062bd"/><path d="M630.46,332c-3.93-1-9.68-1.59,3.49-6.38a15.1,15.1,0,0,1,10.37-8.06c7.57-1.57,12.33,7.61,12.33,7.61s2.14-7.4,9.39-7.79c0,0,4.77-7.51,10.32-4.87s7.19,8.93,7.19,8.93,11.89-5.16,14.16-4.66-.48,2.72,0,3.49c.94,1.49,6.41.57,4.7-3.13s-.57-5.69,1.85-1.42a27.41,27.41,0,0,1,3,9.11s.93-10,5.62-8.47-1.07,10.11-1.07,10.11,7.36-5.58,11.87-3.39,2.58,8.52,7.35,9.59,4.2-4,6.55-3.84.07,5.84-3.56,6.12a23.38,23.38,0,0,0,5.84-1.24c2.78-1,2.55,1.31-1.6,3.35,0,0,6.95,3.72-1.24,3.72s-29.54,1.14-72.53-2.21C664.48,338.59,634.54,333.13,630.46,332Z" fill="#0062bd"/><path d="M640.85,326.85s4.15-8.91,9.18-5c2.62,2,2.51,4.42,4,7.76s13.65-2.28,17.21,1.5,6.62-3,10.18,1.23,12.67-3.22,14.3-6.21,4.55-5.41,6.83-2.91-7.54,9.89-14.09,11.17.18,2.45,6.48-.67c3.83-1.89,6.79-5.17,8-3.46s-5.39,8.82-19.62,7.83-23.92-2-32.5-4.06C646.79,333.07,647,328.49,640.85,326.85Z" fill="#422d62"/><path d="M666,317.42s-4.27,1.89-5.2,5.94-1.07,6.33,3.56,5.05,7.24.5,8.54-1.49-1.64-3.42-1.64-3.42,6.07-.57,6.74-3.34-4.74-1.49-4.74-1.49a5.58,5.58,0,0,1,5.08-4.89,6.08,6.08,0,0,0-6.56-1.52C666.9,313.78,666,317.42,666,317.42Z" fill="#422d62"/><path d="M676.72,328.77c-.88-1.35,5.7-10.17,11.47-7.46,2.24,1.05.34,3.67.34,3.67s3.53-2.12,3.83.37S678.57,331.62,676.72,328.77Z" fill="#422d62"/><path d="M698.3,338.19c-.58-.29,1.53-1.37,3.47-3a17.82,17.82,0,0,1,7.33-3.49c7.7-2.53,11.67-13,17.86-8.68s2.92,13.45-8,14.16-8.22-3-11.74-3.06S700.9,339.47,698.3,338.19Z" fill="#422d62"/><path d="M650.68,322.69c.71-1.68,4.06.35,3.5,4.1s2.38,1.8,3.56,2.31c2.6,1.13,2.35,4,5.12,4.63,1.94.44,4.5-1,4.5-1a4.35,4.35,0,0,1-5,3.42c-4.22-.63-3-4.59-5.47-5.26S655,335,650.77,334,647.87,329.32,650.68,322.69Z" fill="#ff3853"/><path d="M669.36,331.86c-.7.39-1.2,4.21,1.82,4.36,3.81.18,4.93-5.33,7.75-5.32,0,0-2.34-.22-5.75,2.39S670.84,331,669.36,331.86Z" fill="#ff3853"/><path d="M688.19,328.23s-5.69,1.94-4.29,3.62S688.19,328.23,688.19,328.23Z" fill="#ff3853"/><path d="M671.82,312.25s6.75-2.28,9.86,1.81a5.29,5.29,0,0,1,1,5.11,16.81,16.81,0,0,1,5.53-2.63c3.29-.87,4.61.44,4.61.44s3.71-2.08,4.31.63-7.22,5.33-8.09,4.39c-.48-.51-3.36-2.62-7.9.59,0,0-2.93,1.77-5.51,1.21,0,0,6-.87,5.31-6.11C680.26,312.69,671.82,312.25,671.82,312.25Z" fill="#ff3853"/><path d="M712.3,316.26c-2.94-.12.64,3.84-1.15,7.15-1.35,2.5-1.61,3.9-.41,4.13,3.27.64,5.61-3.49,8.34-4.65a8.08,8.08,0,0,0-6.75,2.78S719.17,316.54,712.3,316.26Z" fill="#ff3853"/><path d="M698.2,323.09s-.09-3.74,3.1-4.05,2.11-2.8,3.56-2.53c2.14.41,2.11,10.2-3.6,10.55,0,0,2.51-2.48.87-4.16S698.2,323.09,698.2,323.09Z" fill="#ff3853"/><path d="M666.24,322.41c-.67-.55-1.45.94-5.62,2.05a5.64,5.64,0,0,0-4,4.59c1.74-.32,3.76,1.24,6.44-1.07S667.14,323.14,666.24,322.41Z" fill="#6a6a6a"/><path d="M671.94,316.53c-1.26-.48-3,3.37-1.14,3.78S674.08,317.34,671.94,316.53Z" fill="#6a6a6a"/><path d="M679.36,318.16c-2.09-1.08-2.63,2.95-1.31,3.31S681.3,319.16,679.36,318.16Z" fill="#6a6a6a"/><path d="M691,328.23c-1.47-.15,2.82-6.39,4.75-5.53S693.19,328.45,691,328.23Z" fill="#6a6a6a"/><path d="M713.64,329.16s-4.45-1.69-7.88-.17.66,3.77,4.26,2.32A9.42,9.42,0,0,0,713.64,329.16Z" fill="#6a6a6a"/><path d="M722.36,325s1.84,6.2-1.06,7.63c-1.94,1-3.09-2.72-1.44-5A15.64,15.64,0,0,1,722.36,325Z" fill="#ff3853"/><path d="M725.49,338.19c-1.07-.94,6-3.88,6.81-2.52S726.55,339.14,725.49,338.19Z" fill="#6a6a6a"/><path d="M679.61,324.66c1.39.05,1.15,3.87-.85,3.56S677.92,324.6,679.61,324.66Z" fill="#6a6a6a"/><path d="M673,330.07c-1.59-.54-2.47,2.16-1.19,2.68S674.87,330.7,673,330.07Z" fill="#422d62"/><path d="M647.48,326.67c-2.16-2.43-8.36,3.86-8.36,3.86S651.35,331,647.48,326.67Z" fill="#6a6a6a"/><path d="M648.3,319.75c-1.94-.14-2.8,3.11-.28,3.29S650.25,319.89,648.3,319.75Z" fill="#6a6a6a"/><path d="M696.67,444.05c.84-6.22,8.69-6.53,2.52-11.11-2.94-2.18-4.77-4.35-3.35-6.4,1.17-1.68,4-1.62,6.76,2.84,2.5,4.06,3.44,1.42,2.63-1.93A20.16,20.16,0,0,0,700,417.31c-3.3-3.4.66-4.87,4-.41,3.79,5.14,3.91,8.43,3.91,8.43a31.85,31.85,0,0,0-.3-10.56,2.2,2.2,0,0,1-2-1c-.61-1.11,1.35-1.75.13-2.83s-3.32-3.6-1.65-5,3.44,1.32,3.44,1.32,0-2.14,1.32-2.9,2.8,1.11,2.26,3.61.82.72,2.08,1.24.89,2.4-1.2,3.58-1.73,5.21-.81,6.07c2.66,2.5,4.52-4.08,4.45-7.52-.1-5.33,2.46-6.64,4-5.4.81.67,1.08,2.39,1.82,2.19s-.3-4.69,3.37-8.57a29.66,29.66,0,0,0,5.23-7.32s2.53,5.83,0,10.69-9.31,9.78-11.2,14.84,3,5.43,5.8-1,5.46-5.63,7.45-8.43,4.79-5.7,6.75-6.61,1.79,1.21-.64,3.91-2,7-2,7,2.72-2.18,2.93-3.64c.34-2.29,2.63-5.06,5.56-3.57,3.34,1.69,2.39,5.46-.71,6.71s-4.52.47-7.32,3.47-2,7.69.54,7.79,2.45-3.91,5.67-6.27a8.36,8.36,0,0,1,6.21-1.82s1.18-8.13-1-10.19-3.47-4.42-2-7.55,4.77-3.46,5.63-2.93c1.38.84-.24,2.8-.24,2.8s2.73-1.11,3.1,1.25-2.9,2.77-2.9,2.77,2.53-.07,2.16,1.92-2.33.78-2,2.53-1.65,7.32.17,7.32,1.4-3.39,1.62-5.13c.3-2.36,2.93-2.9,3.64-4.38s-.47-4.65,1.72-7,4.32-2.63,5.83-4.59,1.88.26,2.07,1.83c.36,2.9.45,4.41-1.9,6.23-3.22,2.49-1.48,4.08-2.39,8.13s-2.18,3.59-4,5.68-.21,3.15-2.44,5.75-2.52,3.88-1.85,4.72c2.43,3.07,6.61-3.27,6.1-6.71s5.72-3.64,5.5-8.3a18.2,18.2,0,0,1,4.22-12.11,53.4,53.4,0,0,0,.27,7.55c.78,3.91-1.69,7.69-1.69,7.69s3.41-.74,3.88-5.6,1.27-6.92,2.63-6.51c2.62.8,2,11.06,6.35,8.45A4.19,4.19,0,0,0,783,407c.14-.3.44-.8.33-1.12s-.71-.66-.92-1a4.24,4.24,0,0,1-.55-1.23,8.94,8.94,0,0,1-.34-3.23.21.21,0,0,1,.07-.17c.06,0,.14,0,.21,0a2,2,0,0,1,1,.82c.09.19.11.4.19.59s.44.55.57.87.08.73.22,1.07c.06.15.24.3.36.2a.3.3,0,0,0,.09-.16,22.18,22.18,0,0,1,.91-2.5c.26-.59,2-3.94,2.81-3.45.55.36-.52,1.73-.7,2.11a15.19,15.19,0,0,0-1,2.66c-.48,1.83-.71,5.48-.4,5.62s3.14-.62,5.67-4.91a8.18,8.18,0,0,1,1.45-2.07c.69-.67.78,0,.36,1a11,11,0,0,0-.93,4,2,2,0,0,0,.83,1.78,2.15,2.15,0,0,0,1.19.27c1.19,0,2.34-.61,3.52-.48.59.06,1.15.3,1.75.33s1.54-.19,2,.34a1.58,1.58,0,0,1,0,1.62,10.08,10.08,0,0,1-1.17,2,3.15,3.15,0,0,0-.72,1.3c-.23,1.38,2.13,1.88,3.09,1.79,2.61-.25,5.23.17,6.78,2.56,1.2,1.85-.29,4.15-2.8,3.2s-4.65-1.79-7.28-.24-6.85-1.72-8.16-3.91-4.55,1.11-6.51,4.18-1.15-.07-1.72-3-2-4-2.87.37-1.65,7.18-3,7.12,0-4.22-2.16-5-3.54,4.2-4.28,6.24c-1.4,3.87-6.65,6.11-11.4,5.71s-21.59-6.91-34.06,10.16C719.07,426.39,696.09,448.4,696.67,444.05Z" fill="#422d62"/><path d="M654.49,87c-5.87-33.59,7.41-57.71,22.84-84.3q1-1.74,2-3.51c13-22.77,24.86-47.21,20-79.59h-4.7c-8.9-20.53-35.81-11-56,0H602.29c-.38-.92-.78-1.84-1.21-2.78a63.68,63.68,0,0,0-8.28,2.78H-1.46v347s-42,77.73,4,108.55c40,26.8,164.68,5.33,213.2,27.62,39.8,18.29,78.41,19.87,119.53-3,38-4.32,67.18-20.84,87-46,18.09-23,36.79-29.68,57.5-26.38,15.93,2.54,26.89-6.16,32.25-11.93,10.25-11,28.53-25.17,41.5-29.55C593.93,272.23,602,246.61,599,223.18,658.45,194.94,661.93,129.56,654.49,87Z" fill="#422d62"/><path d="M339.8,424.91c21.09,11.79,22.44,13.38,21.34,15.63-3.64,7.43-31.62-1.49-45.64,12a33.16,33.16,0,0,1-5.16,4.57c-3.28,2.05-7.38,2.4-11.22,2-11.49-1.26-21.44-8.69-32.77-11-10.92-2.19-52.83,3.71-61.86,3.6-1.15,0-8-2.33,2.43-8.5a41,41,0,0,0,18.36-24.67c1-3.69-.91-11.77-9.55-15.82,32.38,17.38,51.65-23.59,71-25.76,45.1-5.07,37.94-14.62,55.59-23.07,5.37-2.57,12.93-7.32,19.1-7.12,4.51.14,5.35,4.61,3.16,8.07-3,4.77-16.28,13.1-23.82,30.93C333.44,403.06,330.48,419.71,339.8,424.91Z" fill="#6a6a6a"/></g></svg>