<?xml version="1.0" encoding="utf-8"?>
<!-- Generator: Adobe Illustrator 20.1.0, SVG Export Plug-In . SVG Version: 6.00 Build 0)  -->
<svg version="1.1" id="hjelp" xmlns="http://www.w3.org/2000/svg" xmlns:xlink="http://www.w3.org/1999/xlink" x="0px" y="0px"
	 viewBox="0 0 170.7 170.7" style="enable-background:new 0 0 170.7 170.7;" xml:space="preserve">
<style type="text/css">
	.st0{fill:#1EAEF7;}
	.st1{fill:#CFF0FF;}
	.st2{fill:#0062BA;}
	.st3{fill:#FFFFFF;}
	.st4{fill:#E23B53;}
	.st5{fill:#3F3161;}
	.st6{fill:#C2F0FF;}
</style>
<g>
	<rect x="-1.9" y="92.6" class="st0" width="1032.9" height="236.5"/>
	<polygon class="st1" points="-1.4,92.6 59.2,92.6 66.7,88.8 96.7,84.8 121.8,92.6 1030.5,92.6 1030.5,-199.7 1.1,-199.7 	"/>
	<path class="st2" d="M859.2,238.9c0,0,13.8-1,26.9,1c13.1,2,21.1,1.3,18.8-7.6c-2.3-9-25.9-7.7-38.7,0.3S859.2,238.9,859.2,238.9z"
		/>
	<path class="st2" d="M914.4,251.4c0,0,11.9,0.3,18.4-10.6c6.5-10.9,5.9-10.9,11.3-14c7.4-4.2,37.8,12.3,37.8,12.3l56.2-5.7
		l-0.9,17.4c0,0-11.5,0-30.4,4.5c-6.4,1.5-15.5,4.2-26,5.3C961.7,262.6,937.5,261,914.4,251.4z"/>
	<path class="st2" d="M59.2,92.6c11.1-6.4,27.1-11.9,41.6-7.6c13.9,4.1,25.1,6,37.9,7.6c0,0,3.6,8-6.7,10.8
		c-10.3,2.8-21.1,3.1-21.9,7.1c-0.8,3.9,5.1,1.2,4.7,7.3c-0.4,6.2-12.4,9-29.1,6.1s-35.9-1.2-42.5-1.1c-6.5,0.1-8.4-4.3-7.9-8.4
		c0,0,2.6-2,7.5-4.8C50.2,105.2,57.2,95.7,59.2,92.6z"/>
	<path class="st1" d="M778.8,290.3c0,0-16.4-9.1-0.2-20.3c23.5-16.2,60-35.1,98.4-30.8c30.7,3.5,30.9,15.1,67,19.9
		c56.6,7.5,56.9-9.5,99.9-8.3l-12.1,40.2L778.8,290.3z"/>
	<path class="st1" d="M943.9,226.9c9.4-5.7,20.7-14.6,32.8-40.6s36.5-36.5,58.1-29.8l1.9,74.1l-79.1,4.9L943.9,226.9z"/>
	<path class="st1" d="M938.1,187.2c-6.6-6.6-19-9.6-19-9.6l-42.8,2.1l-189.8,0.4v-23.5c0,0,13.7-7.8,25.6-18.9
		c18.9-17.8,47.6-31.1,78.1-27.5c30.5,3.6,89.9,1.1,89.9,1.1l25.6-7.9l77.3,30.7l69.1-24.8l-3.6,71.3L938.1,187.2z"/>
	<path class="st1" d="M697.7,223.1c0,0-11.2,23.1-67,18.2c-23.8-2.1-47.3,4-64.9,2.9c-26.1-1.5-34.9-7.8-40.4-12.9c0,0,0,0,0,0
		c-11.6-13.7,13.9-18.9,26.2-16.6c12,2.3,18.5,2,30.1-4.6c14.5-8.2,20.8-2.3,30-10.3c10.5-9.1,24.8-4.7,24.8-4.7s3.8-3.2,6.5-1.3
		c0,0-1.4-1.5-5.7-3.7c-11.9-6.3-24.4,0.9-29.7,4.5c-2.6,1.8-8,2.8-15.6,4c-15.2,2.5-18,11.4-34.1,7.5c-17.4-4.2-27.5-1.5-51,5.3
		c-23.5,6.8-88.4,25.5-113.7,25.4c-30.1,0-46.8-9.8-49-23.9c-3.5-22.9,55.6-30.3,92.7-26c13.9,1.6,40.5,6.6,63.2,5.7
		c26-1,61.3-11.4,69.6-17c19.5-13.2,94,3.4,94,3.4l53.9-38.7c0,0-5.6,0.8-14.5-1.2c-3.2-0.7-5.7-6.7-10.1-6.3
		c-21.8,2.2-56.3-4-70.4-4c-22.2,0-71,15-121,24.9c-71.3,14.1-123.1,2.4-124.5-14.9c-0.9-11.9,25.8-21.6-21.5-26.3
		c-34.9-3.5-74.1-0.7-105.7,1.8c-37.9,3-86.5,13.6-135,3.3c-2.6,9.7-23.4,6.1-40.4,4.6c-12.2-1-47.7-1.4-57.3-2.1
		c-10.3,4.9-12.4,3.4-15.1,3.7c-8,1-129.8,4.4-12.3,23.9s252.8-21.1,305.5-14.9c39.6,4.7,62,19.4,55.6,34.3
		C325.2,226.7,54,187.1,4.7,172.5c-45.9-13.5-22.8,54.2-22.8,54.2s-9.1,39.9,16.8,24.7c40.5-23.9,110.8-35.9,186.1-20.4
		c44.1,9.1,111.3,35.3,141,53.9c46.9,29.5,108.8,2,118-4.7c13.1-9.5,29.8-21.9,68.6-26.6c49.3-5.9,91.4,16.5,148.7,21
		c28.8,2.3,30.3-17.1,43.1-19.2c53.8-8.8,61.6-9.3,84.4-17.2v-17.1L697.7,223.1z"/>
	<path class="st3" d="M982.3-102.7c-45,4-59.6-15.7-94.6-6c-36.6,10.1-39.5,41.5-99,34.7c-24.3-2.8-75.9-19.1-108.5-10.7
		c-33.1,8.6-47.1,42.1-51.5,45c-10,6.7-11.2-9.9-35-12.1c-16.2-1.5-30,3.8-38.5,6.2s-15.6-8.2-23.4-15.1C512.8-77.6,476-83.5,448-62
		s-20.7,15.2-47.6,6c-30-10.3-68.9-7.4-91.5,24.1c0,0-6.2-24.3-32.6-43.7C251-94.2,220.9-88,193.7-80s-49-1.8-69-11.8
		s-46-20.2-76-12s-51-2-51-2l6,92.7c28.7,0,279.5-15.7,330.5,26.7c51,42.3,40.2,57,75.2,57h133.8c0,0,11.8-19.3,38.2-18
		c26.3,1.3,53.7-0.3,61.7-12.7c8-12.3,24.8-59.8,104.4-63.3c45.3-2,52.9-6.3,74.3,21s33.2,48.2,77,25.2
		c45-23.6,61.8-26.6,133.9-26.6v-139.3C1032.5-143.1,1027.2-106.7,982.3-102.7z M888,18.4c-10.8-0.6-16.3,8.4-18.6,7.9
		s2.7-5.3-7.6-8.9c-5.2-1.8-9.6-1.5-9.8-2.6s3-2.7,7.8-2.6c8.1,0.2,12,5.3,12,5.3s4.1-3.1,9.8-3.1C887.2,14.6,895.6,18.8,888,18.4z
		 M913.9-25.9c0,0-5.3-2.8-12.8-3c-7.5-0.3-17.5,8.6-8.9-0.5c8.6-9.1,19.7-3.6,19.7-3.6c7.8-11.8,16.4-1.6,16.4-1.6
		C918.8-35,913.9-25.9,913.9-25.9z"/>
	<path class="st3" d="M787.3,25.5c-1.5,0.6-5.5,0.1-8.3-1.5c-4.1-2.3-12.1,0.9-12.8,0s4-4.1,6.9-4.6s7.7,1.2,7.7,1.2
		s1.2-5.7,13.4-2.3c0,0-6.9,1.6-8.3,3.8C784.5,24.3,787.3,25.5,787.3,25.5z"/>
	<path class="st3" d="M65.7,34.8c0,0-7.6,4.4-7.6,11.1c0,0-6.3-3.1-16-0.5c0,0,7.6-7.6,13.7-3.5C55.9,41.9,56.2,33.2,65.7,34.8z"/>
	<path class="st4" d="M74.2,75.2l-3,17c0,0,1,3.5,10.4,3.5s11.6-3.6,11.6-3.6l-2.4-16.9L74.2,75.2z"/>
	<path class="st4" d="M83.6,54v-1.5h-0.7L82.5,53L82,52.6h-0.7V54l-6.8,6.5c-0.7,0.7-1,1.6-0.8,2.6l0.9,4.4h6.7h2.2h6.7l0.9-4.4
		c0.2-0.9-0.1-1.9-0.8-2.6L83.6,54z"/>
	<path class="st5" d="M956.3,230.6c-5.5,4.9-12,4.2-12.2,8.2c-0.2,4,10.2,7.1,20.6,2.5c10.4-4.6,13.5-1.7,16.2,3.4
		c2.7,5.2,14.2,1.2,22.3-3.3c8.2-4.5,28.7-2.9,28.7-2.9v-13.7c0,0-2.9-1.7-5.7-4.4c-3.3-3.2-8.4-4.8-12.6,0c0,0-2-3.5-3.7-5.9
		c-3-4.5-7.3-5.9-10.5,0c0,0-0.6-2.4-2.3-3.4c-1.8-1.1-4.6-0.6-6.1,3.4c-0.9,2.6-0.9,4.1-2,4.1c-1,0-0.5-3.6-1.8-4.8
		c-1.3-1.3-4.2-0.5-7.5,5.4c-4.2,7.5-13.8,10.1-11.3,4c2.7-6.5,10-18.9,8.3-19.9c-1.7-1-5,5.8-8.7,12.1S960.3,227,956.3,230.6z"/>
	<path class="st5" d="M972,223.2c-1.6,0,0.3-3.4,3.1-9.5c2.8-6.1,6.3-10.5,6.3-10.5s1.1-11.1,3-11.2s-0.8,8.6,0.3,8.8
		s3.3-3.9,3.8-5.6c0.9-2.9,2-7.5,4.2-7.5c1.4,0-1.7,6.4-2,8.1c-0.3,1.6,3-2.5,4-1.9c0.7,0.5-6.9,6.1-10.5,10.7
		c-3,3.8-5.4,7.5-7.5,11.9C974.6,220.8,973.5,223.2,972,223.2z"/>
	<path class="st5" d="M985,208.2c-1.2-1-6.9,7.9-6.4,8.3C979.1,217,986.7,209.7,985,208.2z"/>
	<path class="st5" d="M987.7,208.5c-1.4,0,0.5-7.4,2.3-7.4C991.7,201.1,989.6,208.5,987.7,208.5z"/>
	<path class="st5" d="M890.9,202.9c-4.7,0.2-12.4,2-16.8,6.9c-6,6.8-17.3,9.8-27.6,6.8c-6.2-1.8-11.7,5.5-14.2-1
		c0,0-2.7,6.2-13.6,8.6s-19.5,3.3-19.5,3.3s8.2-0.7,8.5,3.7c0.1,2.8-6.7,5.4-19.1,7.2c-12.6,1.8-28.1,0.7-30.1-1.7
		c-5-5.9,20.8-9.5,20.8-9.5s-8-2.4-25.8,3.6c-17.8,6-38.1,7.2-55.7-7.6c-17.6-14.8-17-13.3-17-13.3s-4.3,6.4-12.9,0.5
		c0,0-7.2,5-13.8-1.2c0,0-3-1.4-7.3,0.9c-4.3,2.3-7.7,0.2-10.3-2.6s-10.5-1.7-16,0.2c-7.6,2.7-10.9-4.8-1.7-5.4
		c8.8-0.5,9.2-1.3,12.6-3.1c3.3-1.8,8.2-7.7,11.8-5.2c0,0,0.6-18.5,20.9-24c0,0-1.4-4.2,3.7-4.4c5-0.2,0.9-2,2.3-5s5.9-4.7,7.9-0.8
		c0,0,1.7-4.3,5.6-4.3c4,0,4.5,4,4.5,4s3-1,2.9,1.5s-3.1,4-3.1,4s3.9-1.6,4,2.4c0,0,4.4-1.1,5.3,3.3c0.6,3.1-1.2,5.4-1.2,5.4
		s3.7-4.9,6.4-0.6c0,0,3.4-4.7,6.8,0.2c0,0,2-5.8,6.2-0.4c0,0,0.1-6,5.2-2.3c0,0,4.9-5.6,11.2-2.4c6.2,3.2,7.6-1.6,9.5-4.8
		c1.8-3.2,5-6.4,11-4.3c0,0,1.5-9.7,15.9-4.5s33.8-5.4,41.4-4.7c7.9,0.7,11,7.1,11,7.1s8.4-2.9,13.5,3.1c5.2,6,8.3,7.2,15,3.3
		l1.6,3.5l4.3-3.4l4.8,7.3c0,0,4.7,3.1,11.3-1.9c5.6-4.3,9.1-2,10.5,3c0.6,2.2,4.2,2.4,6.3-1.2c2.8-4.6,8.8,0.5,8.8,0.5
		s-3.6-12.8-4.7-15.1c-1.1-2.4-18.4-1.4-18.4-1.4s0.7-3-0.1-5.2c-0.4-0.9-2.1-0.4-2.1-0.4s2.2-2.4,6.9-3.8
		c13.1-3.9,15.4-10.3,17.7-7.9c0,0,4.5-2.6,7.6,0.2c0,0,7.5-4,13.8,3.6c6.3,7.6,11,15.3,9.4,23.4c0,0,6.6,5.7,6.4,15.1
		s-1.9,3.2-3.2,3.2s-11.5,2.3-13.9,2.9c-4.3,1-7.9,0-9-12.6c0,0-1.3-1.3-4.7,2.1c-0.6,0.6-2,1.3-2.8,2.5c-3.5,5.4-8.1,15.2-8,17.8
		C891.2,200.9,890.9,202.9,890.9,202.9z"/>
	<path class="st5" d="M813.6,105c0,0-4.1-2.9-1.8-2.1c2.3,0.8,1.1-3,3.5-6.9c2-3.3,5.2-4.1,7.7-4.1c3.2,0,5.5,1.1,7.8,3.7
		c1.6,1.8,2.2,4.5,2.2,4.5s9-4,11.9-7.2c2.9-3.3,4.7-6.4,8.6-5.5s3.6,7.1,5.7,7.4c2.1,0.4,6.2-2.7,9.5-0.1c2.4,1.9,1.1,4.4,3.2,4.7
		c2,0.3,7.4-3.2,13.6,4.7c0,0,25.1-24.9,72.7-24.9c50.1,0,86.7,0,86.7,0v49.4c0,0-34.7-7.2-60.9,15.6c0,0-5.7-3.7-13.1-6
		c-8.4-2.6-19-4-24.7-6.4c-10.7-4.5-24.2-19.3-42.9-21.1c-10.5-1-17.5,2.9-17.5,2.9s-3.9,5.8-8.9,5.7c-3.7-0.1-1.7,2.7-9.7,2.6
		c-3.4-0.1-1.3,2.7-2.4,4.7c-1.1,2.1-4.9,1.1-4.9,1.1s1.6,3.4-2.6,4.7s-29.3-5.5-29.3-5.5l-9.1-13.7L813.6,105z"/>
	<path class="st5" d="M973.5,70.8c0,0,1.7-2.6,3.2-5c1.5-2.4,1.5-2.3-7.4-2.3h-19.5c-0.7,0-1.3,0.3-1.8,0.8l-6.3,6.6L973.5,70.8z"/>
	<path class="st5" d="M633.6,230c-1.4-5.1,13.9-9.2,23.3-8.7c9.5,0.4,14.6,2.9,17,6c3.9,5-12.9,7.6-22.7,7.4
		C642.3,234.5,634.1,231.5,633.6,230z"/>
	<path class="st5" d="M759.9,292c0,0-6.9-17.7,8.2-12.5c0,0,4.4-10.2,15-12.5c10.2-2.1,20,7.3,20,7.3s-4-7.6-13.1-14.3
		c-9.1-6.7-10.5-14.1-8.5-15.6c2-1.5,10.3,13.5,12.2,13.3s-10.6-14.9-3.8-17.4c6.9-2.6,7.6,9.7,8.9,13.4s4.3,7.8,4.3,7.8
		s-4.5-16.9,3.5-17.6c4.8-0.4,4.3,7.6,4.3,7.6s1-6.7,6.3-7.4c0,0-7.2-18.7,5.9-18.8c12.2-0.1-2,30.2-7.4,37.7
		c-3.7,5,0.3,8.4,3.7,1.5c2.9-5.9,7.3-2.5,7.3-2.5s-3.8-10.6,4.3-12c8.2-1.4,10.4,10.2,10.4,10.2s4.5-4.5,3.9-8.8c0,0-4.1,4.1-6.9-3
		s-1.7-19,1.7-19.8s5.2,17.5,5.2,17.5s3.2-18.4,8.6-18.7c5.5-0.3-3.8,19.9-3,20.2s5.3-6.6,7.1-9.6s-0.6,10.4-0.6,10.4
		s3.2-10.4,8.4-9c5.2,1.4,0,12.4,0,12.4s5.5-13.1,11.1-12.7c5.6,0.4-1.6,16.8-1.6,16.8s8-15.1,13.2-11.7c4,2.6-4.4,8.1-8.2,22
		c0,0-0.6-3.2,1.4-9.8c0.9-3,2.4-4.9,1.5-5.3c-1.8-0.8-6.5,5.4-8.9,11.7c-5,13.4-20.4,16.8-20.4,29.1H759.9z"/>
	<path class="st5" d="M802.6,273.8c0,0-15.5-5.6-19.5-6.7c-4.1-1.2-6-3.8-4.7-5.8c0.9-1.3,3.5-1.6,8.1,0.3
		C794.3,264.8,802.6,273.8,802.6,273.8z"/>
	<path class="st5" d="M813.1,237.5c-2.1-0.3-2.5,4.1-1.3,8.2C811.8,245.7,816.3,238,813.1,237.5z"/>
	<path class="st5" d="M858.5,237.8c0.8,0.3,7.6-5.4,3.6-7.6C858.2,227.9,856.9,237.1,858.5,237.8z"/>
	<path class="st5" d="M900.4,220.1c0.1,7.2,2,10.7-5.5,10.3c-7.5-0.4-11.2,0.4-13.6,0c-2.3-0.3-5.2-3.9,1.8-5.9s7.7-4.4,7.7-4.4
		H900.4z"/>
	<path class="st5" d="M939.2,239.8l-8.7,4c0,0,1.3,4.2-4.5,11.7c0,0,1.6,0.5,5.3,1.4c3,0.7,4.7,1,4.7,1s1.1-1.5,2.9-5.3
		C940.2,249.8,941.9,248.4,939.2,239.8z"/>
	<path class="st5" d="M693,162.8c-1.3-0.1-1.1,3.4-0.3,3.5C693.6,166.3,694.1,162.8,693,162.8z"/>
	<path class="st5" d="M698.5,162.3c-1.7-0.7-5.4,3.7-3.7,4.5C696.5,167.7,700,162.9,698.5,162.3z"/>
	<path class="st5" d="M694.6,162.2c1,0,0.5-1.1,0.9-3.1c0.5-2.4-1-2.7-1.9-0.3C693,160.9,693.6,162.2,694.6,162.2z"/>
	<path class="st1" d="M994.7,138.9c-6.5,3.8-7.3-4-5.8-7.9c0.9-2.2-2.7-3.8-1.6-7c0.5-1.3,1.8-2.5,5.2-1.8c0,0-2.2-4,1.2-5.4
		c3.5-1.4,5.2,2.8,5.2,2.8s-1.5-4.9,2.1-5.9c2.7-0.7,4.2,2,4.2,2s1.2-3.5,4.5-2.6c2.6,0.7,3.2,4.6,3.2,4.6s0.1-5.1,3.8-4.4
		c2.6,0.5,2.1,4.6,2.1,4.6s2.3-3.8,7.8-3.8c5.4,0,13.4,8.3,13.4,8.3l-2.3,4.9C1037.8,127.5,1016.6,126.2,994.7,138.9z"/>
	<path class="st1" d="M950.1,133.1c-8.3-3.1-12.4-6.1-20.7-12.1c-8.3-6-27.1-16.3-43.7-7.7c0,0-1.8,3-5.5,4.9
		c-3.7,1.9-4.4-0.5-6.8,2.2c-2.4,2.8-7.3,0.1-8,2c0,0,5.1,5.5,32.8,0.2c19.4-3.7,32.4,3.1,39.3,5.9
		C944.4,131.3,950.1,133.1,950.1,133.1z"/>
	<path class="st4" d="M941.7,70.9l-1,9.2c0,0,7.7-0.9,16.8-0.9c10.6,0,16.2-0.2,16.2-0.2l-0.1-8.2L941.7,70.9z"/>
	<path class="st4" d="M985.3,59.4c0,0-4.8,6.9-6.2,9.1c-0.4,0.5-0.8,1.6-0.8,2.9c0,2.4,0,5.5,0.1,7.7c3.4,0,35.9,0.2,35.9,0.2V68.9
		L985.3,59.4z"/>
	<path class="st2" d="M812.8,156.5c0.9-3.2,2.6,8.4,1.7,10.4C813.6,168.9,810.9,163.5,812.8,156.5z"/>
	<path class="st2" d="M854.2,292c0,0-3.5-12.2,4-14.2c7.2-1.9,4,10.9,10,9.9c4.5-0.8-11.4-23.6-6-28.2c2.9-2.5,4.4,9.3,8.2,9.5
		c3.7,0.1-2.1-11.8,1.9-12.1c2.4-0.2,3.9,3.9,5.6,10.9c1.2,4.9,3,5.1,4.2,1.2c1.3-4.2,2.2-6.2,6.8-12.2c4-5.3,8-6.4,9.4-4.1
		c1.7,2.9,0.3,10.2,1.4,10.2c0.9,0.1,1-4.5,2.3-8.9c1.3-4.4,4-8.7,8.8-7.8c3.8,0.7,5.5,5.4,4.7,10c-0.8,4.7-2.9,9.2-2.9,9.2
		s5.7-12.5,9.7-9.7c4,2.9-3.7,13.8-3.7,13.8s10.2-10.8,14.2-5.5c2.3,3.1-3.3,8.6-8.6,14c-9.8,10-13.5,19.8-13.5,19.8L854.2,292z"/>
	<path class="st2" d="M932.7,280.3c3.1-0.8,5.8-3.4,9.3-8.8c4.6-7.2,0.4-8.6-5.4-0.9C930.9,278.3,931.3,280.7,932.7,280.3z"/>
	<path class="st2" d="M763.7,207.5c-1.6-1.2-4.1-1.8-7.9-0.1c-2.2,1-1.6-4.2-5.9-4.1c-4.4,0.1-9,3.6-11.5,5.9c-2.5,2.3-5-1.4-11.7-3
		c-4.1-1-7.7,0.1-8.1-3.8s-1.6-4.9-7.6-6.1c-5.9-1.1-4-4.5-1.6-9.1c1.7-3.3-7.8-1.6-7.4-3.4c1.4-5.6,7.2-5.6,10.8-6.5
		c4.3-1.1,6.2-2.5,7.3-5c1.9-4.4,3.5-3,4.3-3c0.8,0,0.6-1.1,1.2-2c1.6-2.4,4.3-0.9,3.6,3.5c-0.5,3.2-1.6,7.9-3.5,8.6
		c-2.7,1,0.8-7-0.1-7.3c-0.9-0.3-6.9,5.8-8.6,13.2c-0.9,3.8-0.5,8.8,1.1,9.2c1.4,0.4-0.1-2,1.5-9.4c1.2-5.7,3.4-7.5,3.4-7.5
		s-0.6,3.7,0.9,7.2s-0.4,6.9,1,7.7s1.4-4.8,4.9-5.1c3.5-0.3,4.9,4.2,4.9,4.2s-1.9-8.9-0.5-14.9c1.4-6,0.6,4.8,1.1,8.3
		c0.6,3.5,2.1-12.1,5.5-11.2c1.9,0.5-2.4,6.2-2.9,11.3c-0.3,3.4,0.8-1.5,2.6-4.4c2.1-3.6,4-1.5,1,2.9c-1.6,2.4-2.2,5.6-2.2,5.6
		s3.4,0.8,2.7,5.1c0,0,1.6-1.5,3.2-1.5c0,0-0.2-1-0.1-2.1c0.2-4,4-3.3,3.3,0.2c-0.3,1.3-0.8,2.2-0.8,2.2s2.4,0.6,2.9,3.3
		c0,0,5.4,0.1,9.5,2.9c4.2,2.9,5.7,5.1,6.4,7.5C767,209.4,765,208.4,763.7,207.5z"/>
	<path class="st2" d="M727.1,181.9c0.6-2.1,2.7-5.3,4.4-8.4c1.3-2.5,0.6,3.3-0.2,6.6s-2.2,5.2-3.9,6.8
		C725.8,188.1,726.4,184.5,727.1,181.9z"/>
	<path class="st2" d="M744.5,171.1c-1.5-0.1-2.2,2.7-0.8,2.8C745,174,745.9,171.2,744.5,171.1z"/>
	<path class="st2" d="M747,175.4c-2-0.2-2.8,3.7-0.9,3.8C747.5,179.2,748.4,175.5,747,175.4z"/>
	<path class="st2" d="M745.5,181c0.4-1.7-5.5,5.3-2.6,9.2C744.3,192.1,745.3,182,745.5,181z"/>
	<path class="st2" d="M751.9,190.7c-0.8,0.2-1.2,3.8,1.1,4.1C756.2,195.2,753.7,190.3,751.9,190.7z"/>
	<path class="st2" d="M711.9,136.5c-1.3,0.9,1.4,5.2,3.4,3.9C716.7,139.5,713.2,135.5,711.9,136.5z"/>
	<path class="st2" d="M767.8,119.7c-5,0.5-7.5,2.3-9.1,4.4c-0.9,1.2-4,1.5-7.2,1.3c-3.3-0.3-4.8,1.5-5.7,2.6c-1,1.1-2.7-0.2-5,0
		c-2.3,0.2-3.5,3.1-4.8,3.1c-1.3,0-0.8-4.4-1.7-4.5c-1.4-0.3-0.7,5.8-1.7,6.9c-1,1.1-1.4-0.8-1-3.1c0.4-2.3,0.3-3.5-0.7-3.9
		c-1-0.4-2.3,7.1-3.1,7c-0.8-0.1-0.8-3.6,0.6-7.2c1.1-2.8-0.7-4.2-2-2.3c-1.3,1.9-2.5,12.2-2.5,12.2s-1.8-7.6-1.2-9.1
		c0.5-1.4,2.3-1.1,1.1-4.7c-1.1-3.5-1.5,2.2-1.5,2.2s-0.7-0.9-1.5-0.4c-0.3,0.2-0.4,2.4,0.6,4.6c1.4,3,0.5,7.6-0.1,10.5
		c-1,5,0.8-11.1-2-13c-2.8-1.9-0.4,4.4-0.4,4.4s-2-0.4-1.6,2.8c0.3,2.2,2.2,1.2,2.2,1.2l0.1,4.8c0,0-3.3-2.3-3.9-9.7
		c-0.6-7.4-4-3.1-1.5,0.5c0,0-2,0.8-1.3,3c0.7,2.3,2.3,1.9,2.3,1.9s0.5,2.7,2.2,3.7c0,0-2.3,3.6,1.9,4.1c0,0,2.5,4.6,6.8,9
		c0,0-1.5-10.4,1.6-10.6c3.1-0.3,2.6,11.5,2.6,11.5s0.9-10,8.2-13.4c3.2-1.5,2.6-0.5-0.1,3.2c-1.1,1.5-2.2,3.4-2.4,5.4
		c0,0,4.3-7.1,5.4-6.4c1.2,0.7-2.1,4-4,7.6c-1.9,3.6-3.9,10.7-2.5,10.7c1.2,0,0.5-2.8,2.4-6.9s4.5-7.2,4.5-7.2s-0.1-2.2,1-3.3
		c1.1-1.1,0.1-3.4,1.4-3.8c1.3-0.5,0.9,2.9-0.2,4.7l1.8-1.8c0,0-0.6-1,0.3-2.4c0.9-1.4,1.6-3,2.1-2.9c0.5,0-0.4,2.8-0.2,2.7
		c0.2-0.1,2.6-2.6,3.5-1.8c1,0.8-3.4,5.4-5.2,4.9l-3.4,3.8c0,0,3.9-2.6,4.9-1.8c1,0.8-6.5,3.3-6.7,4.1c-0.3,0.8,0.8,0.7,2.6-0.4
		c1.9-1.1,1.9,1.7-1.3,2.7c-3.2,1-4.1,2.9-4.5,5.2c-0.3,1.6-0.5,2.7,0.4,2.7c1,0,2.3-3,4.3-4.5c3.5-2.8,6.6-2,8.8-2.3
		c2.3-0.4,4-2,4.6-6.1s4.3-11.2,10.8-13c11.2-3.1,12-9.2,12-9.2S773.9,119.1,767.8,119.7z M731.6,143.2c-1.3-1.3,2-8.8,3.5-8.5
		C737.6,135.3,732.9,144.4,731.6,143.2z"/>
	<path class="st2" d="M810.2,185.3c2.5-0.3,1.4-6.1,0.4-11.9c-1-5.7-2.5-10.9-4.9-9.9C803.3,164.5,804.8,185.9,810.2,185.3z"/>
	<path class="st2" d="M818.1,184.6c-2.2,1.1-3.8-5.9-4.8-9.2c-1-3.2-3-10.6-4.5-14.4c0,0,2.4,1.3,4.2,8.3c1.7,6.5,3.4,8.1,3.4,8.1
		s-1.1-7.5,0.1-13.9C816.6,163.4,820.2,183.5,818.1,184.6z"/>
	<path class="st2" d="M816,157.5c0,0,1.1,2,2.1,7.7c1,5.8,1.3,11,3,11c1.2,0,3.4-2,2.8-6.6c-0.5-3.9,0.6-8.3,0.6-8.3s-3.5,5-3.3,9.8
		C821.3,171.1,820.5,160.2,816,157.5z"/>
	<path class="st2" d="M828.5,155.2c-0.8-0.3-3.5,7.3-3.1,13.6c0.4,6.3-2.6,10.5-0.7,11c2.6,0.7,5.7-3.3,11.3-2.3
		c5.6,1,8.9,3.8,10.9,4.6c2,0.8-1.3-1.3-1-6.8c0.3-5.5,1.1-9.2,2.2-8.9c1.1,0.3,0.4,12.4,0.4,12.4s6-6.8,11.1-5
		c5.1,1.7,12.8-0.7,13.2-3.5c0.4-2.8-3.9-0.2-5.2,1.3c0,0-1.1-1.6-4.3,1.7c0,0-1.5-0.6,1-2.3c2.5-1.7,1.9-4.3,0.2-4.4
		c-1.7-0.1-4.7,3.5-2,5.1c0,0-0.9,1.5-2.2,1.5c-1.3-0.1,0.5-5.6-1.2-6.2s-2.1,1.6-2.1,1.6s0.5-4.3-1.3-4.5s-4.9,4.2-4.9,4.2
		s0.5-4.6-1.2-5.1c-1.8-0.5-3.2,1.9-4.7,5.6c-2.4,6.2-8.3,7.9-7.1,2.3c1.2-5.7,0.9-7.9,0.1-8.2s-3.6,4.2-4.1,6.7
		c-0.5,2.5-3.2,1.8-1.9-2.3s1.8-5.3,0.5-6.2s-4.3,5.2-4.3,8.1C827.8,169,829.3,155.5,828.5,155.2z"/>
	<path class="st2" d="M843.9,162.9c-1.8-1.1-6.3,8.9-3.8,9.2C842.6,172.4,846.1,164.2,843.9,162.9z"/>
	<path class="st2" d="M921,83c1.9-0.2,3.9-2,7.6-2.2c2.1-0.1,6,0.7,6.9,3.7c1,3.3,0.7,8.2-4.8,8.2c-6.3,0-9.8,0-9.8,0
		s0.9,3.5-2.5,4.4c-3.4,0.9-3.3-2.5-7.5,0.1c-2.3,1.4-5.4,1.6-5.6-1.2c0,0-1,1.9-2.7,3c-1.1,0.6-3,1.5-4.7,0.8
		c-1.8-0.8-2.3-2.3-2.1-3.4c0.2-1.8,2-3.1,3.4-3.6c0,0-1.8-0.3-2.2-4.3c-0.4-4.7,4.7-10.7,10.7-9.2C914.1,80.8,916,83.5,921,83z"/>
	<path class="st2" d="M937.6,105.2c2.5,4.2,8.3,2.8,14.7,6.4c3.5,2,10.8,3.3,16.1,1.8c6.4-1.8,9.4-5.1,10.3-8.5c0,0,1.4,1.3,4.2,1.7
		c6.8,1,10.9-2.8,13.6-7.4c0,0,2.3,1.9,4.2-0.2c0.7-0.7,1.8-2.7,3-2.2c2.6,1.1,4.6-0.7,5.5-1.7c-2.7,0.3-4.9-3.4-7.7-3
		c-2,0.3-2.7,2.5-2.7,2.5s-4.2-2.8-8.1,0.7c-1.7,1.6-5.3,6.2-13.7,1.4c-3.7-2.1-9.2-1.2-9.4,4.4c0,0-3.9-4-7.3-3.7
		c-1.5,0.1-2.9,1.3-3.6,3.1c-0.6,1.5-1.5,1.7-2.4-0.5c-1.6-3.8-6.4-4.5-9-2.1c-1.7,1.6-1.9,4.4-1.9,4.4s-1.3-2-3.7-2
		C937.8,100.4,936.3,102.9,937.6,105.2z"/>
	<path class="st2" d="M866.1,121.8c0,1.9,1.4,2.3,8.3,2.5c17.8,0.5,36-5.7,51.3-0.4c15,5.2,18.4,8.6,31.4,10.6
		c18,2.7,26.9,9.4,26.9,9.4s17.3-17.7,48-16.7l2.5,29.2c0,0-9.3-3.1-21.2-1c-6.8,1.3-14.5,4.3-21.7,10.7
		c-9.8,8.7-12.6,15.2-14.5,19.4c-2,4.2-25.5,1.7-25.5,1.7s-10.2-9.8-3.9-14.7s12.2-8.5,12.2-8.5s0.8-5.7-2-5.8
		c-1.6-0.1-4.3,3.2-7.1,5.1c-0.4,0.3-0.1,0.6-0.5,0.7c-0.4,0.1,1-10.6,0.6-10.6c-0.8,0-4.1,10.6-4.8,10.7c-2.3,0.5-2.4,4.1-5.3,4.4
		c-6.7,0.6-11.6,0.6-14.7-1.6c0,0,10-6,6.8-11.1c-3.2-5.1-11.2-7.3-10.9-12.9c0.4-7.2-2.9-12.6-11.1-12.8l-15.4,9.7
		c0,0-0.2-1.6-6.6,2.9c-21,5.9-21.9-12.6-29.2-15.1c1.9,0.3,4.2-0.2,4.9-1.7C865.3,124.7,864.2,122.1,866.1,121.8z"/>
	<path class="st1" d="M904.4,175.2c0,0-9.7,6.4-14.3,15.9c-4.7,9.5,0.7,29.1,0.7,29.1h9.7c0,0,0.2-13.1-0.1-21.2
		c0,0,7.6-7.7,8.8-7.1c1.2,0.5,1,3.2,5.8,13c5,10.2,4.9,11.6,6.4,14c1.5,2.3,6.6,16.2,9.2,25.1l8.7-4c0,0-1.1-6.7-2.2-12
		c-1.6-7.7-5.7-14.2-5.7-14.2s0.3-19.6-0.2-27c0,0,0.2-2.7-4.2-1.5s-12.2,4-15.4,2c-3.6-2.2-4.8-11.8-4.8-11.8s-0.2-0.4-1-0.4
		c-0.2,0-0.3-0.2-0.6-0.1C904.9,174.9,904.7,175,904.4,175.2z"/>
	<path class="st2" d="M896,139.6c-0.1-1.4-1.9-1.6-2.4,3.3c-0.5,4.9-1.6,9.5,1.8,15.5c3.4,5.9,2.4,15.8,11.3,16.9
		c0,0-0.3-1.5-2.5-4.5s-7.1-18.5-6.2-26.4L896,139.6z"/>
	<path class="st1" d="M899.9,149.8c0,0-1.4-2.5-0.6-5.4c1.5-4.9,7.1-6.1,11.5-8.1c4.5-2,8.9-3.7,8.9-3.7s3.6,2.8,3.6,9
		c0,0.5,2.3,3,3.4,4.3c2.9,3.6,7.6,6.4,7,13.9c-0.5,6.6-7.6,7-7.6,7s-1.1-8.8-5.7-15.6c-4.6-6.8-8.6-13-14.6-10.8
		C900,142.7,899.9,149.8,899.9,149.8z"/>
	<path class="st6" d="M891.1,141.1c-2.6,2-1.9,5.4-0.9,5.9c1.7,1,2.8-7,2.8-7L891.1,141.1z"/>
	<path class="st3" d="M884.3,126.9c0,1.4,0.8,3,1.2,3.9c0.2,0.5,0.3,1.4,0.2,2.3c-0.1,0.9-0.5,1.5-0.1,2c0.6,0.7,1.7,0.3,2.8,1.2
		c1.1,0.9,3.4,2.8,6,1.5c2.6-1.3-0.1,4,1,6.7c0.5,1.1,1.5,0.8,2.6-0.1c0.6-3.5,5.2-6.4,2.7-5.3c-0.3-2.6-3.9-14.5-3.9-14.5
		L884.3,126.9z"/>
	<path class="st4" d="M901.6,120c-3-3.4-9.1-4.2-12.4-2.7c-3.9,1.7-9,7-4.9,9.5c4.7,2.9,9.2,2.4,11.7,0c0,0-0.2,1.3,0,3.2
		c0.3,3.2,1.4,8.1,6.6,10.2l17.1-7.5c0,0-2.1-1.8-8.1-3.1C906.5,128.5,905.5,124.5,901.6,120z"/>
	<path class="st0" d="M771,137.7c-1.6,3.5-4.8,3.8-4.1,13.8c0.4,5.2,0,11.9,0,11.9s-7.9,9.1-14,19.5l11.7,2.4
		c0,0,11.4-10.9,13.8-13.9c2.5-3.1,2.8-8.1,2.8-8.1l10.9,13.9c0,0-12.5,14.8-17.4,26.8l13.2,1c0,0-0.8,4.1,2,5.6
		c2.8,1.5,7.1,2.8,7.9,4.8c0,0,1.6-0.9-0.5-3s-7.8-2.1-7.7-5.9c0.1-3.8,10.9-14.9,16.5-21.8c5.5-6.9,3.4-12.7,0-18.4
		c-3.4-5.7-8-16.4-8-16.4S773.7,131.6,771,137.7z"/>
	<path class="st0" d="M813.8,105c0,0,1.7,0.9,3.4,0.6c2.5-0.5,3.8-5.2,5.6-3.9c1.2,0.8-0.2,2.7,1,2.8c0.6,0.1,2.2-1.8,2.9-2
		c0.7-0.2,2.4,0.9,3.3,0.8c1.7,0,2.6-1.1,2.9-1.3c-0.4,0.9-0.5,1.4-0.9,2.2c-0.8,1.6-1.3,2.5-1.6,3.4c-0.4,1.5,0.1,3-0.3,3.8
		c-0.5,0.9-2.3-0.1-4.5,1.1c-0.9,0.5-3.8,2.2-5.2,1C815.3,109.2,813.8,105,813.8,105z"/>
	<path class="st0" d="M846.7,144.6c3.2,1.8,6.8,3.2,9.5,3.1c2.6-0.1,5.6,2,7.5,4.8c1.9,2.8,2.1,6.2-1.3,6.4
		c-3.4,0.2-3.1,0.4-7.3-1.2c-3.5-1.4-9.5-3.4-13.8-5.2L846.7,144.6z"/>
	<path class="st3" d="M872.4,151.1c-6.2,0.9-9.7,1.5-13.1-0.5c-3.4-2-4.2-1.4-4.2-1s0.6,1,1.7,1.6c1,0.5,2.1,1.7,3.3,3.3
		c2.5,3.3,3.4,3.9,6.9,3.4s6.8-0.8,6.8-0.8S874.6,150.8,872.4,151.1z"/>
	<path class="st3" d="M849.2,155.6c0,0,0.4,3.2,6.5,3.3C861.8,159.1,852.4,154.4,849.2,155.6z"/>
	<path class="st3" d="M846.7,144.6c-0.7-2.3-5.7-4.1-8.8-7.1c-5.2-5-9.5-11.4-10.8-13.6c-2.1-3.5-8.6-15.9-14.9-20.8
		c-1.6-1.3-9.6-0.5-9.6-0.5s-11.2,9.3-20.4,17.5c-2.7,2.5-3.9,5.9-5.9,7.9c-1.7,1.7-4.4,2-5.1,3c-4.9,6.7-6.4,10.3,0,16.5
		c4.6,4.5,12.3,2.3,18.5,2.1c1.3,0,3.4,0,5.4,1.1c1.8,1,2.6,3.7,4.9,3.2c3.3-0.7,5.2-13.7,11.3-15.1c3.5-0.8,6.2,2.4,15.8,8.3
		c4.9,3,11.6,5,11.6,5s0.2,1.6,2.1,2.2S847.8,148.3,846.7,144.6z"/>
	<path class="st3" d="M916.4,177.7c0,0,0.1,8.6-0.3,11.5c-0.4,3-5.2,5.8-4.7,9.2c0.5,3.4-0.4,5.5,1.4,5.9c1.8,0.4,4.1,0.2,7.2-7.1
		c3.1-7.3,2-9.2,4.8-17.8C924.6,179.3,920.4,176.8,916.4,177.7z"/>
	<path class="st4" d="M811,138.9c1.9-0.5-1.7,2.7-4.3,2.7c-3.6,0.1-9.3-0.6-13.7-5.1c0,0-1.5,0.8-8.9-1.3c-6.3-1.8-5.6-5.3-6.3-6.9
		c0,0-3.5,5-10.8,6.1l-0.9-2c0,0,8.9-2.9,11.5-9c0,0,1.2-10.5,8-16c6.8-5.6,12.6-10.6,19.4-5.1c6.7,5.4,7.3,5.7,7.1,7.7
		c0,0,8.6-0.8,9.5,4.7c0,0-3.4-3.2-9.5-0.4c0,0-5.9,10.8-10.1,15c-3,3-4.3,6.3-4.3,6.3s-0.1,2.9,7.5,3.7
		C806.8,139.5,808.9,139.5,811,138.9z"/>
	<path class="st4" d="M793.1,136.5c-1,5-7,10.1-7,10.1l2.5,1.3c6.5-5.7,7.3-11.4,7.3-11.4H793.1z"/>
	<path class="st5" d="M64.7,94.1c-0.9-3.2,0.8-6.2,4.5-5.3c2.4,0.6,2.1,3.2,2.1,3.2s0.6-0.7,1.7-1.1c1.5-0.5,3.9,0.7,2.9,3.2
		c0,0,2.6-1.9,2.9,0.3c0,0,6.7-1.9,6.8,1c0.1,2.9-4.9,2.1-8.8,1.2C72.7,95.8,65.8,98.1,64.7,94.1z"/>
	<path class="st5" d="M81,103.8c0.5-1.4-0.3-3.4-4.6-0.6s-8.1,5.6-6,7.2c2.1,1.6,6.4-2.9,7-1.7c1.5,3.4,7.9,2.5,9.7-1.5
		c0,0,4.3,2.9,8.5,2.1c4.1-0.9,13.3,2.8,15.7,3.5c-0.7-3.3-1.4-4.7-5.9-4.8c0,0,0.6-3.3-3.2-3.4c-1.9-0.1-2-2.8-5-3.6
		c-3.6-1-4.3,1.3-5.5,1.4c-1.2,0.1-3.8-3.3-6.9-1.5C83.7,101.5,81,103.8,81,103.8z"/>
	<path class="st5" d="M110.3,101.3c2,1.4,5.1-0.1,7.8-0.6c2.8-0.6,7.3-0.9,7.6-2.3c0.5-2.1-4.4-1.8-5.3-2c-1.2-0.3-2-1.5-3.6-1.8
		c-2-0.4-3.4,0.8-4.3,2.8C109.9,96.8,108.4,99.9,110.3,101.3z"/>
	<path class="st5" d="M90.8,93.4c1.1,1.6,3.9,0.8,5.8-1.6c2.3-2.8,3.8-0.9,7.1-0.5c4.6,0.5,8.4-2.4,3.4-3.8
		c-2.3-0.7-3.4-0.8-3.8-1.6c-0.7-1.4-2.8-3.9-5.8-3.4c-1.5,0.2-2.1,1.1-2.1,1.1s-0.8-2.4-3.8-2.2c0,0,0.8,5.3,1.2,8.4
		C90.8,90.5,90.1,92.3,90.8,93.4z"/>
	<path class="st5" d="M985.3,59.4l5.7,8.5c0.5,0.7,1.2,1.1,2,1.1h21.2c0,0-1.3-3-2.2-4.8c-0.9-1.8-1.9-3.1-6.7-3.7
		c-2.5-0.3-6.9-0.9-12.4-1.6C988.6,58.3,986.4,57.7,985.3,59.4z"/>
	<path class="st5" d="M953.3,168.5c-2.9,1.5-5.9,0-7.5,1.6c-1.6,1.6-4,3.7-6.9,4.1c-3.1,0.4-0.7,1.5,1.9,1.4s-6.5,0.5-6.5,3.4
		c0,1.9,2.6,2.5,4.6,2.5c3.2,0-4.7,3.4-0.3,6.2c0,0-5.6,2.4-2.3,6.1c0,0-4.7,4.4,3.4,4.1c8-0.4,9-4.4,13.6-3s14.8-5.9,19.7-1l4-8.2
		c0,0-7.2,3.2-14.1-0.8c0,0-11.1,1.7-14-4.4C946.1,174.3,953.3,168.5,953.3,168.5z"/>
	<path class="st5" d="M993.8,155.3c-4.8,3.2-4.9,0.5-11.7,1.3c-3.4,0.4,0.1-3.5,6.4-3.1c1.5-2.8,4.6-4.8,7.4-3.4
		c7.3,3.7-3.3-2.2-0.1-5.7c1.8-1.9,4.4,3.1,5.9,3s-4.2-6,0.5-7.1c3.7-0.9,4.8,4.2,4.8,4.2s0.2-8.6,4.2-7.9c4,0.6,0.5,7.3,0.5,7.3
		s3.3-8.9,7.5-7.3c3.5,1.3-0.5,9.7-0.5,9.7s4-7.3,6.2-5.6c2.3,1.7-3.9,9.2-2.1,9.6c1.7,0.3,1.7-5,4.2-5.6c2.5-0.5,3.7,5,1,8.1
		c0,0,2.8-3.9,5.5-2.1v6.4c0,0-7.1-3.4-20.3-1.5c-9.2,1.3-18.9,8.4-18.9,8.4s2.9-4.3,7.8-5.8C1002.2,158.1,1000.4,151,993.8,155.3z"
		/>
	<path class="st5" d="M939.9,146c-0.6,0.2-1.2,22,1.3,22.3c2.5,0.3,0.8-4.4,3.4-17.6c0,0-3,5.8-3.1,11.5c0,0-0.4-5-0.5-9.5
		C940.7,149,940.9,145.7,939.9,146z"/>
	<path class="st5" d="M947.8,148.1c1.9-0.3-0.8,12.1,0.5,7.7c1.4-4.6,3.3-9.8,5.6-11.4l-2.4,12.7c0,0,3-8.1,9-8c0,0-4.7,8.2-2.9,8.5
		c0.7,0.1,3.1-7,5.1-6.3s-0.2,5.2-0.2,5.2s1.8-1,1.9,1.1c0,0,1.3-0.1,2.2,0.3c1.1,0.5,1.4,1.5,1.1,2.1c-0.3,0.7-1.2,1.1-1.9,0.6
		c-0.6-0.4-1.2-1.4-1.2-1.4s0.1,2.6-1,2.7c-1.1,0.1-1-1.1-1.5-1.1s-0.4,3.9-2.3,4s0.2-4.8-0.6-5c-1-0.2-2.4,5.2-3.4,5.2
		c-1.7,0-0.1-3.1-1.5-3.2c-1.3,0-2,6-4.5,5.9c-1.6-0.1,1.4-10.3,0.4-10.4c-0.9-0.1-1.5,2.4-3.2,8.3c-0.8,2.7-2.8,2.3-3.5,1.1
		C942.3,165,945.8,148.4,947.8,148.1z"/>
	<path class="st1" d="M79.6,66c0,2.6-0.7,2.9-1.6,2.9c-0.9,0-1.6-0.4-1.6-2.9c0-2.4,0.7-2.9,1.6-2.9C78.9,63.1,79.6,63.6,79.6,66z"
		/>
	<path class="st1" d="M84,66c0,2.6-0.7,2.9-1.6,2.9s-1.6-0.4-1.6-2.9c0-2.4,0.7-2.9,1.6-2.9S84,63.6,84,66z"/>
	<path class="st1" d="M88.4,66c0,2.6-0.7,2.9-1.6,2.9c-0.9,0-1.6-0.4-1.6-2.9c0-2.4,0.7-2.9,1.6-2.9C87.7,63.1,88.4,63.6,88.4,66z"
		/>
	<path class="st3" d="M92.9,66.7h-9.6h-1.7H72c0,0-1.4,1.5-1.4,4.7c0,1.1,0.1,1.9,0.3,2.6c0.3,1.2,1.5,2.1,2.7,2.1h7.9h1.7h7.9
		c1.3,0,2.4-0.8,2.7-2.1c0.2-0.7,0.3-1.6,0.3-2.6C94.3,68.1,92.9,66.7,92.9,66.7z M73.7,74.3c-0.9,0-1.6-0.4-1.6-2.9
		c0-2.4,0.7-2.9,1.6-2.9c0.9,0,1.6,0.5,1.6,2.9C75.3,73.9,74.5,74.3,73.7,74.3z M78.1,74.3c-0.9,0-1.6-0.4-1.6-2.9
		c0-2.4,0.7-2.9,1.6-2.9c0.9,0,1.6,0.5,1.6,2.9C79.6,73.9,78.9,74.3,78.1,74.3z M82.5,74.3c-0.9,0-1.6-0.4-1.6-2.9
		c0-2.4,0.7-2.9,1.6-2.9c0.9,0,1.6,0.5,1.6,2.9C84,73.9,83.3,74.3,82.5,74.3z M86.8,74.3c-0.9,0-1.6-0.4-1.6-2.9
		c0-2.4,0.7-2.9,1.6-2.9c0.9,0,1.6,0.5,1.6,2.9C88.4,73.9,87.7,74.3,86.8,74.3z M91.2,74.3c-0.9,0-1.6-0.4-1.6-2.9
		c0-2.4,0.7-2.9,1.6-2.9s1.6,0.5,1.6,2.9C92.8,73.9,92.1,74.3,91.2,74.3z"/>
	<g>
		<path class="st3" d="M84.1,53.1h-3.3v-0.5c0-1.2,0.2-2.9,1.7-2.9c1.4,0,1.6,1.5,1.6,2.9V53.1z M81.8,52.1h1.3
			c-0.1-1.4-0.4-1.4-0.6-1.4C82.3,50.7,81.8,50.7,81.8,52.1z"/>
	</g>
	<path class="st3" d="M578.6,230.9c-9.3,2.7,47.3,0.4,52.5,11.6c2.4,5,5.2,6.5,7.4,7.7c10.6,5.7,39.4,2.9,39.6,7.2
		c0.1,3.4-29.2,0-27,9.5c1.3,5.9,18,6.2,22.9,5.9c7.3-0.4,11.9-3.5,15.8-6.3c8-5.7,17.1-2.8,19.3-2.2c8,2.2,16.8,2.8,24.1-3
		c9.3-7.4,42.4,0.3,53.1-4.5c0,0-3.3-3.3-5.1-6.7c0,0-4.9-2.7-11.6-0.6c-6.7,2-0.8-7.2-8.7-7.9c-7.9-0.7-9.9,6.6-14.6,2.6
		c-2.6-2.2,2.4-7.2,5.9-12.2c2.7-4,3.2-8.5,0.3-10.8c-3.2-2.5-8.6-0.9-12.5,0.9c-4.1,2-7.4,4.2-8.5,2.1c-2.1-4.1-3.7-10.6-14.1-8.1
		c-10.4,2.6-16.8,15.7-32.7,21.2c-15.9,5.5-48.1,3.6-51.1-7.3c0,0-7.8,3.2-17.8-1.8C605.8,223.3,587.9,228.2,578.6,230.9z"/>
	<path class="st3" d="M585.5,220.3c1,1,3.1,0.6,5.1-0.3c3-1.4,7.3-4.1,13.5-5.1c10.3-1.7,12.2,2.3,12.8,4.7c0.5,2.5,3.1,2.4,8.9,0.6
		c5.8-1.7,13.1,2.2,9.5,6.2c0,0,4.3-3.8,16.9-5.1c0,0,0.8-7-8.5-4.8c-9.2,2.3-8.6-4.8-11.2-5.6s-12.7,2-17.8-3.3c0,0-4.5,4.1-12.5,5
		c-5.5,0.6-12.8,2.2-15.7,4.3C585.3,217.9,584.5,219.3,585.5,220.3z"/>
	<path class="st3" d="M747.2,208.3c-3.8-0.3-8.3,5.9-3.8,6.4C748,215.3,752,208.6,747.2,208.3z"/>
	<path class="st3" d="M649.3,200.1c-2.9-1.3-9.7,5.2-7.9,7.5C643,210,651.8,201.3,649.3,200.1z"/>
	<path class="st3" d="M661,208.3c3.1,0.7,6-3.6,4.1-4.2C663.1,203.4,658,207.6,661,208.3z"/>
	<path class="st3" d="M678.3,202.8c-2-0.1-8.7,6-4.5,6.7C678,210.1,681.4,203,678.3,202.8z"/>
	<path class="st3" d="M673.6,196.7c-1.3-0.2-3.9,3-2.1,3.2C673.3,200.1,674.7,196.9,673.6,196.7z"/>
	<path class="st3" d="M660.8,158.2c-3.9-1.3-5.9,1.3-7.3,0.6c-0.7-0.3,0.4-3.5-1-4.4c-1.6-1-5.2-0.6-10.4,3.3
		c-7.4,5.6-7.3-3.5-19.1,1c-5.6,2.1-13.7,10.4-23.6,10.2c-21-0.5-42.1,12.5-61.2,18.1c23.5-5.1,47.3-1,59.8-5
		c12.7-4.1,13.5-10.9,27.2-8.2c13.8,2.7,19.6,8.4,26.2,3.1c6.6-5.4,12.6-6.7,12.6-6.7s-1.5-3.9,3.7-4.4
		C667.6,165.6,666.3,160,660.8,158.2z M624.4,166.3c0.2-2.8,8.6,1.5,15.2-2.4c3-1.7,5.5-5.2,6.9-6.3c1.9-1.5,5-2,4.6,1.2
		c-0.2,1.2-0.6,2.4,1.2,2.9c1.4,0.4,3.2-0.5,5-1c3.9-1.2,6.5,3.8,1.3,6.9c-2.5,1.5-9.2,3.7-15.9,3.6
		C633.5,171,624.3,167.9,624.4,166.3z"/>
	<path class="st3" d="M617.2,134.6c-4.8,2.4-6.6-4.6,7.9-5.9c14.5-1.3,19.7,2.5,38.8,3.8c19.1,1.3,28.7-7.4,35.2-3.2
		c3.2,2,0.9,7.2,3.8,8.5s5.5-1.9,8.7-0.1c0.2,0.7,0.3,0.9,0.6,1.4c-2.1,2.2-9.1,7-22.1,20.5c-0.8-0.2-1.5-0.1-2.1,0
		c-0.5-2.6-2.6-3.9-5.1-3.9c-11.5,0-24.2-5.5-33.5-13.8c0,0,21.1,12.5,41.7,7.6c20.6-4.9,12.4-10.7-1.9-7.6c0,0,11.7-6.9,3.9-7.6
		c-7.8-0.6-10.2,6.8-26.2,4.2C650.8,135.7,633.5,126.5,617.2,134.6z"/>
	<path class="st3" d="M607.5,135.4c-3.3,1.1-2.2,4,1.2,2.7S610.4,134.4,607.5,135.4z"/>
	<path class="st3" d="M598.8,139c-2.2,0.8-1.7,2.5,0.5,1.4C601.4,139.4,601,138.2,598.8,139z"/>
	<path class="st3" d="M840.6,224.6c-3.8,0.9-7.9-2.2-1.5-4.4C845.6,217.9,845.8,223.3,840.6,224.6z"/>
	<path class="st1" d="M847.7,219.6c0,0,5.8-2.9,8.2-5.8c2.4-2.9,8.1-7.4,8.7-3.6c0,0,9.8-5.5,7,0.4c-2.8,5.9,7.7-2.4,9.3-0.4
		c1.6,2-3.6,7.5-9.8,6.3C864.9,215.3,854.2,225.4,847.7,219.6z"/>
	<path class="st3" d="M871.8,199.7c-3-0.2-9.3,5.3-4.7,5.4S873.6,199.9,871.8,199.7z"/>
	<path class="st3" d="M857.9,205.2c-2.5-1-4.7,5-2.6,5C857.4,210.1,860,206,857.9,205.2z"/>
	<path class="st3" d="M874.6,195.8c-1.8-0.4-2.1,1.7-0.9,1.8C874.8,197.8,875.9,196.1,874.6,195.8z"/>
	<path class="st1" d="M935.3,196.8c2.4,3.4,6,1.5,8.3,2.5c2.4,1,3.1,1.7,5.1,1.7c3.8-0.1,3.5-3,7-2.3c8.6,1.8,12.8-2.1,11.5-3.8
		c-1-1.3-5.1,1-7.4,0.6c-3-0.5-4.4-2.2-7.4-2.3c-2.3-0.1-4.4,2.1-5.9,3c-1.5,0.9-3.4-3-5.2-1.3C937.2,198.8,935.3,196.8,935.3,196.8
		z"/>
	<path class="st3" d="M950.3,188c-1.6-0.5-5.4,4.3-2.5,4.4S951.7,188.4,950.3,188z"/>
	<path class="st3" d="M955.4,181.3c-2.1-0.1-3.1,3.1-1.2,3S957.5,181.3,955.4,181.3z"/>
	<path class="st3" d="M959.1,186.8c-2.3-0.4-3.5,2.9-1.2,3S961.4,187.2,959.1,186.8z"/>
	<path class="st3" d="M14.3,121.6c5-2.1,15.1-9.3,21.1-7.4s5.4,7.4,11.6,6.2c6.2-1.1,10.4-5.2,15.9-0.7s6.7,8.4,11.2,8
		c4.5-0.4-5.8,5.9-13.6,1.5c-7.8-4.5-9.9-4.6-16.7-1.9c-6.9,2.7-10.4-4.6-14.2-4.9S21.5,124.3,14.3,121.6z"/>
	<path class="st1" d="M16.9,113.3c11.4-5.7,12.5-0.9,21.4-6.4c5.1-3.1-4.7,6.1,1.3,3.9c6.1-2.2,9.4-5.5,14.5-11.5
		c-1.1-1.3-3.6-0.9-5.8,0.9c-1.9,1.5,0.1-2.1-2-2c-2.6,0.2-5.6,4.9-12.6,7.4c-7,2.5-8.8-1.8-17.2,2.2c-15.2,7.2-29.6-3.6-29.6-3.6
		s4.8,15.1,6.4,15.3C4.9,120.6,11.5,116,16.9,113.3z"/>
	<path class="st1" d="M125.7,104.8c9.8-1.2,10.4-2.3,14.2-4.3c6.1-3.3,11.9,1.2,15.4,2.1c3.4,0.9,3.9-3,6.8-3.8c2-0.6,3.7,0,5,0.2
		c1.3,0.2,2.2-0.3,0.9-0.7c-1.6-0.5-2.6-0.8-3.8-1.1c-3-0.7-4.7,0.2-6.6,2.7c-1.6,2.1-7-4.5-14.2-3.8
		C136.5,96.7,132.5,103.6,125.7,104.8z"/>
	<path class="st1" d="M113.1,112.3c0.3-2.7,7.4-4.8,12-2.4c7.9,4.2,10.5,0.6,10.3,2.4c-0.1,1.1-1.8,2.2-6.2,1.9
		c-1.8-0.1-3.9-1.1-4.9-1c-1.4,0.2-0.2,1.1,1.3,1.7s3.4,1,2,1.9C124.8,118.6,112.7,116.6,113.1,112.3z"/>
	<path class="st1" d="M137.1,110.2c-1.7,1.4-0.4,1.9,0.6,1.1C138.6,110.4,138.2,109.2,137.1,110.2z"/>
	<path class="st1" d="M170.9,98.3c-2.2,0-1.5,1.2-0.2,1.2C171.9,99.4,172.4,98.3,170.9,98.3z"/>
	<path class="st3" d="M81.2,127.5c-4-0.7-4,2.8-0.4,2.7C84.5,130.1,83.5,127.9,81.2,127.5z"/>
	<path class="st3" d="M73,120.4c-3.1-0.1-2.9,3.4,0,3.4S74.9,120.4,73,120.4z"/>
	<path class="st1" d="M51.6,94.6c-2.3,0.9-2.4,3.7-0.5,2.6C53.2,96.1,52.8,94.2,51.6,94.6z"/>
	<path class="st1" d="M674.6,249.6c0,0,34.5,2.4,58.7-16.1C757.5,215,749.2,259.7,674.6,249.6z"/>
	<polygon class="st3" points="73.1,81.4 91.6,81.4 92.3,86.7 72.1,86.7 	"/>
	<path class="st4" d="M715.1,151c-0.9-0.2-0.4-1.6,0.5-1.6C716.6,149.5,715.9,151.2,715.1,151z"/>
	<path class="st4" d="M714.2,145.7c-0.8,0.1-1.2,1.8,0,1.8S714.9,145.7,714.2,145.7z"/>
	<path class="st4" d="M717.8,146.3c-0.6-0.3-1.8,0.9-1.2,1.2C717.2,147.9,718.6,146.6,717.8,146.3z"/>
	<path class="st4" d="M720,147.9c-1-0.2-1.8,2.3-0.8,2.3C720.3,150.3,720.9,148,720,147.9z"/>
	<path class="st4" d="M846.8,259.5c-1.8-0.4-4.4,3.6-1.9,4.2S848.4,259.9,846.8,259.5z"/>
	<path class="st4" d="M853.4,254.1c-1.2-0.4-3.9,5-2.6,5.3C852,259.7,854.6,254.5,853.4,254.1z"/>
	<path class="st4" d="M859.2,255.9c-1.2,1.8,0.4,3.7,1.7,1.2C862.1,254.6,860.7,253.8,859.2,255.9z"/>
	<path class="st4" d="M858.5,250.9c0.9,0.4,2.4-2.4,1.2-2.5S857.7,250.5,858.5,250.9z"/>
	<path class="st4" d="M852.9,263.4c-2-0.5-4.7,5-2.1,5.6C853.4,269.5,854.9,263.9,852.9,263.4z"/>
	<path class="st4" d="M847.6,97.2c-1.2,0-1.7,1.7-0.8,1.7C847.9,98.9,848.5,97.2,847.6,97.2z"/>
	<path class="st4" d="M850.5,101.8c-0.9,0-1.4,1.8-0.6,1.7C850.6,103.4,851.1,101.8,850.5,101.8z"/>
	<path class="st4" d="M854.9,98.2c-0.9-0.2-1.2,1-0.6,1.1S855.6,98.4,854.9,98.2z"/>
	<path class="st4" d="M849,106c-0.8-0.2-1.2,1.2-0.3,1.3S849.8,106.2,849,106z"/>
	<path class="st4" d="M855.7,105.4c-0.7,0-0.7,1.1,0,1.2S856.8,105.4,855.7,105.4z"/>
	<path class="st4" d="M861.6,101.8c-0.8,0-0.9,1.2-0.4,1.2C861.9,103.1,862.4,101.8,861.6,101.8z"/>
	<path class="st4" d="M861.9,108.9c-0.9-0.1-1.1,1.7,0,1.7C863,110.6,862.9,108.9,861.9,108.9z"/>
	<path class="st4" d="M869.6,104.7c-0.8-0.5-3,0.9-1.9,1.7C868.8,107.2,870.4,105.2,869.6,104.7z"/>
	<path class="st4" d="M872,114.2c-1.4-0.6-2.3,0.6-1.2,1.1S873,114.7,872,114.2z"/>
	<path class="st4" d="M865.4,117.7c-1.1-0.5-1.8,1.5-0.6,1.7C866,119.7,866.3,118.1,865.4,117.7z"/>
	<path class="st4" d="M878.8,110c-1.3-0.5-1.9,1.6-0.5,1.7S879.6,110.3,878.8,110z"/>
	<path class="st4" d="M984.9,219.4c-1.7-0.1-3.4,3.9-0.3,3.8C987.7,223.1,986.6,219.5,984.9,219.4z"/>
	<path class="st4" d="M984.7,229.2c-2.2-0.3-4.3,4-1.7,4.2C985.6,233.7,986.6,229.5,984.7,229.2z"/>
	<path class="st4" d="M993.3,223.2c-1.3-1.4-3.7,1.6-2.2,2.4C992.5,226.3,994.6,224.6,993.3,223.2z"/>
	<path class="st4" d="M998.7,224.8c-1.1-0.1-3.3,2-1.5,2.4C999,227.5,999.7,224.8,998.7,224.8z"/>
	<path class="st4" d="M1001.6,220.7c-1.9-0.7,0-4.6,2.4-3.2C1006.3,218.9,1003,221.2,1001.6,220.7z"/>
	<path class="st4" d="M990.9,232.8c-1.5-0.5-3.6,2.8-0.8,3.1C993,236.2,992.6,233.3,990.9,232.8z"/>
	<path class="st4" d="M993.7,228.4c-1.4,0.4-1.3,1.6,0,1.7C995,230.1,994.5,228.1,993.7,228.4z"/>
	<path class="st4" d="M1003.9,228.9c-1.6-1.2-3.8,2-1.9,2.5C1003.9,231.9,1005.2,229.8,1003.9,228.9z"/>
	<path class="st4" d="M1014.6,225c-2.3,0-6.7,3.4-2.9,3.9S1016.8,225,1014.6,225z"/>
	<path class="st4" d="M1017.3,232.2c-1.6-0.8-3.8,2.6-1.6,3.1C1017.9,235.7,1018.9,233,1017.3,232.2z"/>
	<path class="st4" d="M1024.4,230.3c-1.7-0.3-3,2.2-0.4,2.4C1026.5,232.9,1025.7,230.6,1024.4,230.3z"/>
	<path class="st4" d="M1011.9,101c-0.9-0.1-0.8,1.1,0,1.1C1012.7,102,1012.8,101.1,1011.9,101z"/>
	<path class="st4" d="M1016.1,101.1c-0.9-0.1-0.8,1.2,0,1.2S1016.6,101.2,1016.1,101.1z"/>
	<path class="st4" d="M1012.7,104.1c-0.7-0.2-0.8,1.2,0,1.1S1013.4,104.3,1012.7,104.1z"/>
	<path class="st4" d="M1017.3,106c-0.8-0.5-1.7,1.2-0.7,1.2C1017.6,107.2,1018,106.5,1017.3,106z"/>
	<path class="st4" d="M1019.5,103.7c-0.7,0.2-0.5,1.4,0.2,1.1C1020.3,104.5,1020.2,103.6,1019.5,103.7z"/>
	<path class="st4" d="M1022.4,99.7c-0.3-0.8-2.1,0-1.7,0.8C1021.2,101.4,1022.6,100.4,1022.4,99.7z"/>
	<path class="st4" d="M940.8,83c-0.7-0.1-1.2,1.2-0.4,1.1S941.5,83.1,940.8,83z"/>
	<path class="st4" d="M939.5,87.1c-0.8-0.1-0.8,1.2,0,1.2S940.4,87.2,939.5,87.1z"/>
	<path class="st4" d="M941.2,86c-0.3,0-0.3,0.8,0,0.7S941.6,86,941.2,86z"/>
	<path class="st4" d="M944.9,86.5c-0.2-0.6-1.6,0.2-1.3,0.7C943.9,87.6,945.1,87.1,944.9,86.5z"/>
	<path class="st4" d="M944.7,83c-0.7-0.3-1.4,0.8-0.5,0.9C945.1,84,945.1,83.2,944.7,83z"/>
	<path class="st4" d="M950.3,86.8c-0.8-0.3-1.6,0.9-0.6,1.2S950.8,87,950.3,86.8z"/>
	<path class="st4" d="M953.6,82.4c-0.9,0-1.4,1.2-0.3,1.1S954.2,82.4,953.6,82.4z"/>
	<path class="st4" d="M946.5,89.1c-0.6,0-0.4,0.6,0,0.6S946.8,89.1,946.5,89.1z"/>
	<path class="st4" d="M730,192.2c-0.4-0.7-2.4,0.6-1.4,1.2C729.6,194,730.3,192.7,730,192.2z"/>
	<path class="st4" d="M733,191.6c-0.7,0-1.1,1.4-0.3,1.4S733.5,191.6,733,191.6z"/>
	<path class="st4" d="M731.8,195.3c0.6,0.5-0.5,1.7-1.3,1.1C730,196.1,731,194.7,731.8,195.3z"/>
	<path class="st4" d="M734.7,194.6c-0.6,0-0.8,1.1,0,1S735.5,194.6,734.7,194.6z"/>
	<path class="st4" d="M736.9,191.4c-0.8-0.5-2,1.7-0.8,1.8C737.2,193.3,737.6,191.8,736.9,191.4z"/>
	<path class="st2" d="M1015.3,82.6c0,0-6,0.8-6.5-5.9c-0.3-4.1,2.2-7.1,5-8.7c5.8-3.5,12.3-2.6,15.7,0.6c2.5,2.4,5,2.9,8,3.2v13.5
		C1037.5,85.2,1019.4,92.2,1015.3,82.6z"/>
</g>
</svg>
