<?xml version="1.0" encoding="utf-8"?>
<!DOCTYPE svg PUBLIC "-//W3C//DTD SVG 1.1//EN" "http://www.w3.org/Graphics/SVG/1.1/DTD/svg11.dtd">
<svg version="1.1" xmlns="http://www.w3.org/2000/svg" xmlns:xlink="http://www.w3.org/1999/xlink" x="0px" y="0px"
	 viewBox="0 0 90 90" enable-background="new 0 0 90 90" xml:space="preserve">

<g id="Virkkontakt">
	<g>
		<path fill="#1EAEF7" d="M38.2,57.1c1.7-1.7,4.3-2.5,6.6-3.2c0.2-0.1,0.5-0.1,0.7-0.2c1-0.3,1.8-0.8,2.4-1.4
			c-0.8-0.3-1.5-0.6-2.3-0.9c-0.5-0.1-1.1-0.3-1.6-0.4c-0.6-0.4-1.2-1.9-1.6-2.6c-0.3,0-0.7-0.1-1-0.1c0.1-1.1,0.7-1.2,1-2
			c0.2-0.7,0-1.7,0.4-2.4c0.2-0.4,0.7-0.5,1-0.7c0-0.1,0-0.1,0-0.2c-0.1-1.2-0.2-2.8,0.2-5.3c0,0,0,0,0-0.1c-0.1-0.7,0.2-3,0.2-3.5
			c0-1.3,0-1.4-0.3-2.6c0,0-0.4-1.1-1-1.5l-1.2-0.2L41,29.1c-2.9-1.8-6.1-0.5-7.8,0.1c-2.4,0.8-4,3.2-2.9,8.2
			c0.2,0.9-0.5,1.3-0.4,1.7c0.1,1,0.1,3.5,1.1,4.1c0.1,0.1,0.8,0.2,0.8,0.2c0.1,1,0.2,2,0.3,3c0.2,0.7,0.8,0.7,1,1.7l-0.7,0.2
			c-0.3,0.7-1,2.2-1.6,2.6c-0.5,0.1-1.1,0.3-1.6,0.4c-1.9,0.8-3,1.7-4.9,2.4c-1.7,0.7-3.7,1-4.3,2.7c0,1.2-0.1,4-0.1,5.6h17.6
			C37.2,61.3,36.7,58.6,38.2,57.1z"/>
		<path fill="#3F3161" d="M70.9,57.8c-1.7-1.7-4.5-2.4-6.9-3.2c-3.2-1-4.4-3.4-4.8-5.7c0.3-0.4,0.7-0.8,1-1.3
			c2.1,0.7,4.6,0.9,6.7-0.7c-2.9-2.9-0.6-6.6-2.7-13.1c-1.8-5.5-9.2-5.3-10.2-3.3c-3.9-1.4-6.9,0.5-8,6.3c-1.3,6.7,1.2,7.4-1.8,10.4
			c2.3,1.3,4.3,1,6.1,0.3c0.4,0.5,0.7,0.9,1.1,1.4c-0.4,2.3-1.6,4.7-4.8,5.7c-2.4,0.8-5.2,1.5-6.9,3.2c-1.3,1.3-0.4,4.5-0.4,4.5
			h31.9C71.3,62.2,72.2,59.1,70.9,57.8z"/>
	</g>
</g>
</svg>
