<svg width="380" height="381" viewBox="0 0 380 381" fill="none" xmlns="http://www.w3.org/2000/svg">
<g clip-path="url(#clip0)">
<path d="M222.246 215.291H133.253C132.621 215.291 131.988 214.659 131.988 214.027V56.4309C131.988 55.7987 132.463 55.1664 133.253 55.1664H222.088C222.72 55.1664 223.353 55.6406 223.353 56.4309V137.837C223.353 138.469 222.72 139.101 222.088 139.101C221.456 139.101 220.824 138.627 220.824 137.837V57.5374H134.517V212.92H221.14V154.75C221.14 154.118 221.772 153.486 222.404 153.486C223.037 153.486 223.669 153.96 223.669 154.75V214.185C223.353 214.817 222.879 215.291 222.246 215.291Z" fill="#1EAEF7"/>
<path d="M354.709 191.106H240.424C239.792 191.106 239.16 190.632 239.16 189.842C239.16 189.052 239.792 188.577 240.424 188.577H353.602V2.37105H241.689V146.531C241.689 147.163 241.057 147.795 240.424 147.795H152.379C151.747 147.795 151.115 147.321 151.115 146.531C151.115 145.74 151.589 145.266 152.379 145.266H239.16V1.26456C239.16 0.63228 239.792 0 240.424 0H354.709C355.341 0 355.973 0.63228 355.973 1.26456V190C355.815 190.79 355.341 191.106 354.709 191.106Z" fill="#1EAEF7"/>
<path d="M353.918 282.313H276.148C275.516 282.313 274.883 281.681 274.883 281.048V263.028C274.883 262.396 275.516 261.764 276.148 261.764H377.471V215.291H302.388C301.755 215.291 301.123 214.659 301.123 214.027V136.414C293.694 136.256 287.055 135.624 282.787 132.779C279.468 130.566 277.413 126.93 276.78 122.978C276.306 119.501 277.255 116.023 279.468 113.494C281.839 110.649 287.055 108.91 292.113 110.649C296.223 112.072 303.02 117.288 303.336 134.043C303.968 134.043 304.443 134.043 304.917 134.043H337.005V97.371H256.389C255.757 97.371 255.125 96.8968 255.125 96.1065V78.7188C255.125 78.0865 255.757 77.4542 256.389 77.4542H338.27C338.902 77.4542 339.534 77.9284 339.534 78.7188C339.534 79.5091 338.902 79.9833 338.27 79.9833H257.654V95H338.428C339.06 95 339.692 95.4742 339.692 96.2645V135.308C339.692 135.94 339.06 136.572 338.428 136.572H305.075C304.443 136.572 303.968 136.572 303.494 136.572V213.078H378.735C379.368 213.078 380 213.71 380 214.343V263.186C380 263.819 379.368 264.451 378.735 264.451H277.255V280.1H353.76C354.393 280.1 355.025 280.732 355.025 281.364C355.025 281.997 354.551 282.313 353.918 282.313ZM288.161 112.23C285.316 112.23 282.787 113.494 281.681 114.917C279.942 116.972 279.151 119.659 279.468 122.504C279.784 125.824 281.68 128.669 284.368 130.724C288.003 133.253 294.484 133.885 301.439 134.043C301.281 128.037 300.175 122.978 298.436 119.343C296.697 116.181 294.484 113.968 291.797 113.02C290.374 112.546 289.268 112.23 288.161 112.23Z" fill="#1EAEF7"/>
<path d="M378.894 309.501H250.857C250.225 309.501 249.592 308.869 249.592 308.236V214.185C249.592 213.552 250.225 212.92 250.857 212.92H292.113C292.745 212.92 293.378 213.552 293.378 214.185C293.378 214.817 292.745 215.449 292.113 215.449H252.121V307.13H377.629V272.987C377.629 272.354 378.261 271.722 378.894 271.722C379.526 271.722 380.158 272.354 380.158 272.987V308.236C380 308.869 379.526 309.501 378.894 309.501Z" fill="#1EAEF7"/>
<path d="M338.586 62.2796H256.705C256.073 62.2796 255.441 61.8054 255.441 61.015C255.441 60.2247 256.073 59.7505 256.705 59.7505H338.586C339.218 59.7505 339.85 60.2247 339.85 61.015C339.85 61.8054 339.218 62.2796 338.586 62.2796Z" fill="#1EAEF7"/>
<path d="M202.646 92.629H152.379C151.747 92.629 151.115 92.1548 151.115 91.3644C151.115 90.5741 151.589 90.0999 152.379 90.0999H202.646C203.278 90.0999 203.91 90.5741 203.91 91.3644C203.91 92.1548 203.278 92.629 202.646 92.629Z" fill="#1EAEF7"/>
<path d="M202.646 110.333H152.379C151.747 110.333 151.115 109.859 151.115 109.068C151.115 108.278 151.589 107.804 152.379 107.804H202.646C203.278 107.804 203.91 108.278 203.91 109.068C203.91 109.859 203.278 110.333 202.646 110.333Z" fill="#1EAEF7"/>
<path d="M202.646 128.985H152.379C151.747 128.985 151.115 128.511 151.115 127.721C151.115 126.93 151.589 126.456 152.379 126.456H202.646C203.278 126.456 203.91 126.93 203.91 127.721C203.91 128.511 203.278 128.985 202.646 128.985Z" fill="#1EAEF7"/>
<path d="M107.962 151.115C107.962 151.115 113.968 126.14 120.291 119.343C124.401 114.917 127.562 107.171 130.566 101.955C132.146 99.2678 132.621 95.7903 135.624 96.4226C144.16 98.0033 132.621 121.081 132.621 121.081L132.304 160.599L119.817 169.925L107.962 151.115Z" fill="#0062BA"/>
<path d="M31.1398 189.368C31.1398 189.368 6.797 233.943 1.73877 246.747C-3.31947 259.709 2.52912 326.572 21.4975 354.077C31.1398 368.145 16.9135 380.316 35.0915 380.316C53.2696 380.316 141.631 380.316 141.631 380.316C141.631 380.316 146.373 376.522 149.534 362.77C151.747 353.128 149.534 333.686 149.534 333.686C149.534 333.686 199.8 281.681 201.855 270.774C204.068 260.025 184.151 227.779 168.503 237.421C152.854 247.063 127.562 260.657 127.562 260.657L125.666 237.579C125.666 237.579 148.428 229.043 149.692 214.975C149.692 214.975 134.992 214.817 133.727 214.817C132.463 214.817 131.83 213.869 131.83 212.604C131.83 211.339 131.988 160.125 131.988 160.125C131.988 160.125 118.078 163.918 107.804 150.641L101.165 176.09L55.0083 169.293L31.1398 189.368Z" fill="#E23B53"/>
<path d="M25.2912 209.601C25.2912 209.601 33.985 225.566 52.9534 226.356C71.9218 227.146 71.4476 199.958 71.4476 199.958C71.4476 199.958 83.7771 192.371 86.4642 184.468C89.1514 176.564 89.3095 165.657 91.6805 162.654C94.0516 159.651 99.2679 155.225 99.584 151.115C99.9002 146.847 91.2063 147.479 84.7255 135.782C78.2446 124.085 69.7088 113.336 69.7088 113.336L30.8236 130.724L20.391 184.626C20.5491 184.468 25.2912 199.168 25.2912 209.601Z" fill="#0062BA"/>
<path d="M23.3943 194.9C23.3943 194.9 30.6656 199.958 38.2529 204.068C45.8403 208.178 57.5374 199.642 49.9501 184.468C42.3627 169.293 42.0466 158.544 49.792 157.912C57.5374 157.28 56.2729 167.712 62.9118 165.183C67.3378 163.444 66.7055 156.805 66.7055 147.479C66.7055 138.153 82.0383 130.25 81.406 118.236C80.7737 106.223 67.1797 96.1065 54.6922 99.9002C54.6922 99.9002 35.2496 92.787 18.8103 112.072C2.37105 131.356 -0.474211 146.373 -1.81422e-06 159.176C0.790348 181.464 18.9684 191.897 23.3943 194.9Z" fill="#1EAEF7"/>
<path d="M183.361 241.057C183.361 241.057 187.471 237.263 191.581 229.675C197.587 218.769 201.381 195.849 209.601 195.849C217.82 195.849 210.233 215.291 210.233 215.291C210.233 215.291 220.033 215.291 221.14 215.291C222.246 215.291 223.353 214.501 223.353 213.078C223.353 211.656 223.353 209.759 223.353 207.704C223.353 197.903 223.353 185.89 223.353 185.89C223.353 185.89 228.253 186.522 230.308 195.532C232.521 204.384 233.153 211.181 235.366 219.717C237.895 229.359 228.885 236.947 218.295 247.854C207.704 258.76 192.213 269.035 192.213 269.035L183.361 241.057Z" fill="#0062BA"/>
<path d="M353.919 246.589H276.148C275.516 246.589 274.884 245.957 274.884 245.325C274.884 244.692 275.516 244.06 276.148 244.06H353.919C354.551 244.06 355.183 244.692 355.183 245.325C355.183 245.957 354.551 246.589 353.919 246.589Z" fill="#1EAEF7"/>
</g>
<defs>
<clipPath id="clip0">
<rect width="380" height="380.474" fill="white"/>
</clipPath>
</defs>
</svg>
