<?xml version="1.0" encoding="UTF-8"?>
<svg width="133px" height="24px" viewBox="0 0 133 24" version="1.1" xmlns="http://www.w3.org/2000/svg" xmlns:xlink="http://www.w3.org/1999/xlink">
    <!-- Generator: Sketch 47.1 (45422) - http://www.bohemiancoding.com/sketch -->
    <title>Artboard</title>
    <desc>Created with Sketch.</desc>
    <defs></defs>
    <g id="Page-1" stroke="none" stroke-width="1" fill="none" fill-rule="evenodd">
        <g id="Artboard" fill="#FFFFFF">
            <g id="a-logo-black" transform="translate(1.000000, 0.000000)">
                <g id="altinn" fill-rule="nonzero">
                    <path d="M8.83954231,19.4457076 C7.82146149,20.4594785 6.86239984,20.8946522 5.11887496,20.8946522 C3.4036301,20.8946522 2.15439084,20.4594785 1.2531188,19.5621626 C0.437916406,18.7212353 0.00264996859,17.5052006 0.00264996859,16.1714851 C0.00264996859,13.7663841 1.65887565,11.7964568 5.17543501,11.7964568 L8.74978398,11.7964568 L8.74978398,11.0437902 C8.74978398,9.3925817 7.93581114,8.66810939 5.93038866,8.66810939 C4.4770414,8.66810939 3.80938695,9.01624836 3.02369414,9.91479016 L0.611285242,7.56730374 C2.09291252,5.94428964 3.54625978,5.48092156 6.07547748,5.48092156 C10.3187104,5.48092156 12.5270114,7.27677931 12.5270114,10.8121061 L12.5270114,20.7512287 L8.83954231,20.7512287 L8.83954231,19.4457076 Z M5.7582494,14.3756273 C4.39220133,14.3756273 3.63724769,15.0130649 3.63724769,16.0844503 C3.63724769,17.1276414 4.33441173,17.8226935 5.816039,17.8226935 C6.86239984,17.8226935 7.53128386,17.7356587 8.20016789,17.0982212 C8.60715429,16.7218879 8.75224311,16.1138704 8.75224311,15.1859085 L8.75224311,14.3756273 L5.7582494,14.3756273 Z" id="Shape"></path>
                    <path d="M15.7773039,16.5665512 L15.7773039,0.254278702 L19.5557608,0.254278702 L19.5557608,16.3348672 C19.5557608,17.2334089 19.9344673,17.696777 20.8935289,17.696777 L22.3468762,17.696777 L22.3468762,20.8839649 L20.1951353,20.8839649 C17.0855624,20.8839649 15.7773039,18.7105479 15.7773039,16.5665512 Z" id="Shape"></path>
                    <path d="M24.9597083,16.5533186 L24.9597083,9.07813723 L23.3612722,9.07813723 L23.3612722,6.20966818 L24.9597083,6.20966818 L24.9597083,1.74760523 L28.7381653,1.74760523 L28.7381653,6.20966818 L31.4112422,6.20966818 L31.4112422,9.07813723 L28.7381653,9.07813723 L28.7381653,16.3216345 C28.7381653,17.1907561 29.1451516,17.6835443 30.0464237,17.6835443 L31.4124718,17.6835443 L31.4124718,20.8707322 L29.3480301,20.8707322 C26.2679667,20.8707322 24.9597083,18.6973153 24.9597083,16.5533186 Z" id="Shape"></path>
                    <path d="M34.1305071,0.104946049 L37.9962633,0.104946049 L37.9962633,3.17690478 L34.1305071,3.17690478 L34.1305071,0.104946049 Z M34.1895263,5.75484939 L37.9679833,5.75484939 L37.9679833,20.8510871 L34.1895263,20.8510871 L34.1895263,5.75484939 Z" id="Shape"></path>
                    <path d="M50.2172699,11.6236132 C50.2172699,9.56665119 48.9090114,8.87037323 47.7187913,8.87037323 C46.5273416,8.87037323 45.1895736,9.56542534 45.1895736,11.6236132 L45.1895736,20.7500029 L41.4111167,20.7500029 L41.4111167,5.65499106 L45.1022744,5.65499106 L45.1022744,7.04509528 C46.0896161,6.00190419 47.4851737,5.48092156 48.8807314,5.48092156 C50.3918682,5.48092156 51.6128274,5.97370984 52.4550803,6.81341125 C53.67481,8.02944598 53.9957268,9.45019625 53.9957268,11.1014047 L53.9957268,20.7500029 L50.2172699,20.7500029 L50.2172699,11.6236132 Z" id="Shape"></path>
                </g>
                <path d="M67.6204691,21 L67.6204691,6 L64.6567164,6 L64.6567164,15.1853933 L58.6439232,6 L56,6 L56,21 L58.9637527,21 L58.9637527,11.7935393 L64.9765458,21 L67.6204691,21 Z M81.1599147,21 L81.1599147,18.3876404 L74.1236674,18.3876404 L74.1236674,14.7429775 L80.1151386,14.7429775 L80.1151386,12.130618 L74.1236674,12.130618 L74.1236674,8.61235955 L81.1599147,8.61235955 L81.1599147,6 L71.1599147,6 L71.1599147,21 L81.1599147,21 Z M93.8251599,8.61235955 L93.8251599,6 L82.9296375,6 L82.9296375,8.61235955 L86.8955224,8.61235955 L86.8955224,21 L89.8592751,21 L89.8592751,8.61235955 L93.8251599,8.61235955 Z M106,8.61235955 L106,6 L95.1044776,6 L95.1044776,8.61235955 L99.0703625,8.61235955 L99.0703625,21 L102.034115,21 L102.034115,8.61235955 L106,8.61235955 Z" id="NETT"></path>
            </g>
        </g>
    </g>
</svg>