<svg width="380" height="381" viewBox="0 0 380 381" fill="none" xmlns="http://www.w3.org/2000/svg">
<g clip-path="url(#clip0)">
<path d="M129.463 378.417C96.8597 378.417 66.9471 376.518 50.9621 352.62C48.1133 348.505 46.2141 344.39 45.1062 340.591C44.9479 340.591 44.7897 340.591 44.6314 340.591C33.2362 339.958 24.0567 331.254 21.5244 318.592C19.1504 306.247 23.2653 288.68 42.5739 279.817C68.2133 268.105 113.003 242.94 119.017 223.79C124.082 207.489 108.73 200.841 98.4423 196.41C96.0683 195.46 94.1691 194.511 92.903 193.719C86.5723 189.921 73.1195 181.691 78.0258 166.497C78.8172 163.965 79.6085 161.908 80.3998 159.692C82.6156 153.519 84.3565 148.455 84.1983 141.016C83.8817 129.621 76.7597 117.276 63.94 116.96C59.5085 116.801 55.7101 118.384 52.5448 121.549C47.7968 126.456 44.7897 134.686 44.9479 144.023C45.1062 153.678 47.955 160.641 50.8038 166.181C53.4944 171.404 53.9692 175.044 52.07 177.418C50.1708 180.108 45.7393 180.741 37.9842 179.317C32.6031 178.367 27.0637 179.633 23.2653 182.957C19.7834 185.964 17.8842 190.237 17.8842 195.302V211.92C17.8842 212.553 17.2512 213.186 16.6181 213.186H0.791347C0.158277 213.186 -0.474792 212.553 -0.474792 211.92V80.5581C-0.474792 79.925 0.158277 79.292 0.791347 79.292H64.4148V42.2574C64.4148 41.6243 64.8896 40.9912 65.681 40.9912H122.182C122.816 40.9912 123.449 41.6243 123.449 42.2574V118.701H135.002C135.319 118.701 135.635 118.701 136.11 118.701C136.11 115.377 136.11 112.053 136.11 108.73V107.938C136.11 88.9463 145.923 77.8675 163.174 77.7093C172.67 77.551 179.634 75.6518 182.482 72.3282C185.648 68.688 183.748 62.5156 180.108 59.5085C171.245 52.07 167.763 47.6385 169.188 39.7251C169.663 37.0346 170.929 33.3944 171.404 31.97C170.296 30.7039 167.763 27.6968 167.289 25.6393C166.497 21.6826 169.03 20.5748 171.245 19.4669C172.195 19.1504 173.145 18.5173 174.094 18.0425C175.519 16.9346 176.785 14.8771 178.209 12.6614C181.374 6.96376 185.331 0 197.834 0C209.546 0 217.776 7.12203 219.359 18.5173C220.625 28.0133 217.459 38.9338 215.56 45.4227C215.402 46.2141 215.244 46.8471 214.927 47.3219C209.863 65.0479 218.884 67.8967 231.387 71.8534C234.077 72.6447 236.768 73.4361 239.617 74.5439C255.76 80.7164 256.077 100.183 256.077 100.342C256.077 100.975 255.444 101.608 254.811 101.608C254.177 101.608 253.544 101.133 253.544 100.342C253.544 100.183 253.386 82.299 238.667 76.7597C235.977 75.6518 233.286 74.8605 230.596 74.0691C218.251 70.2707 206.697 66.7888 212.553 46.6889C212.711 46.0558 212.87 45.4227 213.186 44.7897C215.085 38.459 218.251 27.6968 216.985 18.6756C215.56 8.38817 208.438 2.21574 197.676 2.21574C186.597 2.21574 183.115 8.2299 180.108 13.611C178.684 16.1433 177.418 18.5173 175.519 19.7834C174.411 20.5748 173.303 21.0496 172.353 21.5244C170.137 22.474 169.346 22.9488 169.663 25.0062C169.979 26.2724 172.195 29.1212 173.619 30.7039C173.936 31.0204 173.936 31.4952 173.936 31.97C173.936 31.97 172.195 36.718 171.72 39.8834C170.612 46.5306 173.461 50.1708 181.691 57.4511C186.281 61.2495 188.338 68.8463 184.382 73.5943C179.95 78.8172 169.188 79.6085 163.332 79.7668C147.347 80.0833 138.642 89.8959 138.642 107.622V108.413C138.642 111.895 138.642 115.219 138.801 118.384C157.476 119.017 163.807 125.981 165.706 130.096C167.763 134.369 167.13 139.434 164.282 143.232C161.433 146.872 156.685 148.455 152.253 147.663C139.908 144.973 137.06 133.894 136.426 120.6C136.11 120.6 135.793 120.6 135.319 120.6H122.499C121.866 120.6 121.233 120.125 121.233 119.334V43.3653H66.9471V80.5581C66.9471 81.1912 66.4723 81.8242 65.681 81.8242H2.21575V210.97H15.6685V195.618C15.6685 188.18 19.1504 183.907 21.9992 181.533C26.4307 177.893 32.6031 176.31 38.7755 177.259C45.2645 178.526 49.0629 178.209 50.4873 176.31C51.5952 174.885 50.9621 171.878 48.9046 167.447C45.8976 161.591 42.8905 154.469 42.7322 144.182C42.5739 134.369 45.7393 125.348 50.9621 119.967C54.6023 116.485 59.0337 114.586 64.0983 114.744C78.3424 115.06 86.2557 128.513 86.5723 141.016C86.8888 148.93 84.9896 153.994 82.6156 160.483C81.8242 162.541 81.0329 164.756 80.2416 167.13C75.9684 180.583 87.8384 187.705 94.1691 191.504C95.4352 192.137 97.3344 192.928 99.3919 194.036C109.838 198.467 127.089 205.906 121.233 224.265C118.226 233.603 106.672 244.998 87.0471 257.818C68.3715 270.004 49.0629 279.184 43.5235 281.716C25.3228 290.104 21.5244 306.406 23.7401 317.959C26.1141 329.671 34.0275 337.584 44.3149 338.217C41.9409 327.772 45.1062 319.384 50.0125 314.319C55.2353 308.938 62.5156 307.039 67.4219 310.204C70.9038 312.42 72.9613 315.902 73.2778 320.175C73.5943 325.714 70.9038 331.412 66.4723 334.894C61.7243 338.534 55.0771 340.591 47.6385 340.591C48.9046 344.39 50.8038 348.03 53.0196 351.354C69.7959 376.518 103.349 376.36 138.642 376.043C141.649 376.043 144.815 376.043 147.98 376.043C148.613 376.043 149.246 376.676 149.246 377.309C149.246 377.943 148.771 378.576 147.98 378.576C144.815 378.576 141.808 378.576 138.642 378.576C135.635 378.417 132.628 378.417 129.463 378.417ZM62.0408 311.154C58.7172 311.154 54.9188 312.895 51.9117 316.06C45.7393 322.549 44.9479 330.621 47.0054 338.376C56.6597 338.376 62.5156 335.052 65.2062 333.153C69.0046 330.146 71.5369 325.081 71.2203 320.491C71.0621 317.959 70.1125 314.636 66.6306 312.42C65.2062 311.47 63.6235 311.154 62.0408 311.154ZM138.642 121.075C139.275 133.578 141.808 143.39 152.57 145.764C156.21 146.556 159.85 145.289 162.224 142.282C164.756 139.275 165.073 135.16 163.49 131.678C160.325 125.348 151.462 121.708 138.642 121.075Z" fill="#1EAEF7"/>
<path d="M131.045 362.591C131.045 362.591 138.8 371.137 152.411 368.921C166.022 366.706 152.411 321.599 152.411 321.599L128.83 337.268L131.045 362.591Z" fill="#3F3161"/>
<path d="M239.142 205.748C232.97 205.589 226.639 206.697 220.308 206.222C189.446 203.532 156.052 201 132.786 233.286C104.456 272.378 74.7022 326.031 96.3848 348.188C116.168 368.605 125.823 371.295 131.045 362.591C136.268 354.044 135.477 334.261 154.469 330.304C173.461 326.347 269.846 361.958 269.846 361.958L284.723 338.85C284.723 338.85 293.269 362.749 317.484 363.065C341.699 363.382 367.813 326.98 347.713 313.844C327.613 300.708 316.06 290.737 312.262 278.867C308.463 266.997 305.931 225.373 283.615 215.877C267.472 209.071 251.329 207.805 243.89 207.33C240.883 207.489 239.142 205.748 239.142 205.748Z" fill="#0062BA"/>
<path d="M192.295 201.316C192.295 201.316 199.1 211.762 204.007 221.1C208.596 229.646 227.589 235.818 233.603 221.1C237.718 210.97 243.415 202.741 246.422 198.626C247.847 196.726 258.292 192.928 258.292 192.928L259.242 157.793L238.192 132.47L205.589 141.649L187.389 157.16L184.54 183.748L192.295 201.316Z" fill="#3F3161"/>
<path d="M182.482 252.436C166.497 253.703 155.893 233.444 168.871 203.215C180.425 176.31 166.972 166.656 179 144.815C189.763 125.19 211.604 117.118 233.128 120.442C241.2 121.708 250.063 124.556 255.918 130.412C261.616 136.11 265.573 143.39 267.788 151.145C270.637 160.8 270.796 171.087 269.688 181.216C269.213 185.489 268.58 189.763 269.055 194.194C269.688 200.208 273.961 212.87 273.961 212.87L240.408 207.647C240.408 207.647 244.84 200.367 246.897 196.726C248.796 193.719 251.012 190.712 252.595 187.547C254.177 184.382 255.444 180.741 254.811 177.101C254.494 174.252 252.278 171.087 249.429 170.929C247.055 170.771 244.998 172.67 243.89 174.569C242.941 176.152 242.307 178.051 240.566 178.367C238.826 178.684 237.243 177.101 237.085 175.519C236.768 173.619 237.559 171.72 238.034 169.979C238.351 168.555 239.775 166.339 238.667 164.915C238.034 163.965 236.452 163.965 235.502 164.598C234.552 165.231 233.919 166.339 233.286 167.289C233.128 167.605 232.653 168.08 232.495 168.555C226.797 176.31 216.985 180.9 207.33 180.9C204.323 180.9 201.316 180.425 198.784 178.842C198.467 178.684 196.093 177.418 196.093 176.943C196.093 176.943 193.245 195.144 200.525 210.654C208.28 226.006 207.963 250.379 182.482 252.436Z" fill="#E23B53"/>
<path d="M358.792 323.024C358.792 323.024 361.008 311.312 342.332 311.312C323.657 311.312 316.376 313.844 316.376 321.758C316.376 329.671 316.376 363.065 316.376 363.065C316.376 363.065 316.851 372.878 337.584 372.878C358.317 372.878 363.224 360.058 363.224 360.058L371.295 328.721L358.792 323.024Z" fill="#1EAEF7"/>
<path d="M364.332 332.045C364.332 332.045 348.188 341.224 345.972 352.62C344.232 361.166 342.016 364.965 346.764 371.454C353.411 380.791 366.389 374.461 375.094 360.533C383.798 346.764 379.525 329.671 372.087 321.916C364.648 314.161 358.634 323.024 358.634 323.024C358.634 323.024 364.332 325.398 364.332 332.045Z" fill="#3F3161"/>
<path d="M354.677 270.162C354.994 267.472 353.728 264.781 351.67 262.882C349.613 260.983 346.764 260.35 344.073 260.35C339.958 260.35 335.685 262.091 332.995 265.414C330.462 268.738 329.513 273.328 330.779 277.284C332.045 280.608 334.577 282.982 334.894 286.622C335.052 289.629 333.469 293.269 335.052 295.96C336.002 297.701 338.217 298.492 339.958 299.758C342.649 301.974 342.807 304.665 343.282 307.514C345.656 304.823 347.397 299.917 347.397 296.435C347.555 293.903 346.764 291.37 346.922 288.68C347.08 285.989 348.03 283.457 348.98 281.083C350.721 277.284 354.202 274.119 354.677 270.162Z" fill="#CFF0FF"/>
<path d="M155.419 282.666C142.599 282.666 140.225 284.09 140.858 300.233C141.491 316.376 146.872 367.972 148.138 376.993C148.613 380.791 151.62 380.791 162.699 380.791C173.778 380.791 271.587 380.791 280.766 380.791C286.147 380.791 285.356 373.669 286.306 365.123C287.255 356.576 290.421 306.722 290.895 297.226C291.37 287.73 292.478 282.666 278.867 282.666C265.256 282.666 161.591 282.666 155.419 282.666Z" fill="#CFF0FF"/>
<path d="M91.4785 82.1408H82.4573C81.8242 82.1408 81.1912 81.666 81.1912 80.8747V65.2062C81.1912 64.5731 81.666 63.9401 82.4573 63.9401H91.4785C92.1116 63.9401 92.7447 64.4149 92.7447 65.2062V80.8747C92.5864 81.666 92.1116 82.1408 91.4785 82.1408ZM83.7234 79.7668H90.3707V66.4723H83.7234V79.7668Z" fill="#1EAEF7"/>
<path d="M109.363 104.773H100.025C99.3919 104.773 98.7589 104.298 98.7589 103.507V88.3133C98.7589 87.6802 99.2337 87.0471 100.025 87.0471H109.363C109.996 87.0471 110.629 87.5219 110.629 88.3133V103.507C110.471 104.14 110.154 104.773 109.363 104.773ZM101.291 102.399H108.255V89.5794H101.291V102.399Z" fill="#1EAEF7"/>
<path d="M29.4377 115.377H19.4669C18.8338 115.377 18.2007 114.902 18.2007 114.111V99.7085C18.2007 99.0755 18.8338 98.4424 19.4669 98.4424H29.4377C30.0708 98.4424 30.7039 98.9172 30.7039 99.7085V114.269C30.7039 114.744 30.0708 115.377 29.4377 115.377ZM20.5748 113.003H28.1716V100.816H20.5748V113.003Z" fill="#1EAEF7"/>
<path d="M29.4377 142.282H19.4669C18.8338 142.282 18.2007 141.808 18.2007 141.016V126.614C18.2007 125.981 18.8338 125.348 19.4669 125.348H29.4377C30.0708 125.348 30.7039 125.823 30.7039 126.614V141.016C30.7039 141.808 30.0708 142.282 29.4377 142.282ZM20.5748 139.908H28.1716V127.88H20.5748V139.908Z" fill="#1EAEF7"/>
</g>
<defs>
<clipPath id="clip0">
<rect width="380" height="380.95" fill="white"/>
</clipPath>
</defs>
</svg>
