<svg width="375" height="428" viewBox="0 0 375 428" fill="none" xmlns="http://www.w3.org/2000/svg">
<g clip-path="url(#clip0)">
<path d="M204.761 381.651H188.45C187.817 381.651 187.183 381.018 187.183 380.384V328.442H137.299C137.141 333.034 136.983 337.627 135.557 340.477C134.132 343.803 131.44 346.178 128.59 346.653C125.739 347.287 122.572 346.178 120.355 343.803C118.296 341.586 117.663 338.419 119.088 335.093C120.83 330.976 125.897 326.383 135.082 325.908V275.549H94.2251C93.5916 275.549 93.1166 275.074 92.9582 274.44C92.7998 273.807 93.2749 273.174 94.0667 273.174C98.0258 272.54 104.36 269.056 105.31 265.097C105.785 263.038 104.677 260.98 101.826 258.921C98.1841 256.229 90.8995 255.12 84.4067 254.17C76.3302 252.903 69.9958 251.953 69.5207 248.152C69.5207 247.519 69.8374 247.202 70.3125 246.886C77.2804 244.352 76.647 238.492 73.6381 229.783C71.2627 222.815 62.5528 195.26 62.0777 193.359L38.4818 150.602C38.3235 150.285 38.3235 149.968 38.4818 149.652C38.4818 149.335 38.7986 149.177 39.1153 149.018C42.4409 147.276 50.6757 142.209 49.0921 137.616C42.916 118.771 29.6136 88.9992 29.4552 88.6824C29.2969 88.2074 29.4552 87.5739 29.772 87.2572C30.247 86.9405 30.7221 86.9405 31.3556 87.2572C31.5139 87.4155 53.2095 105.627 59.7023 111.486C63.503 114.97 82.348 126.056 85.3568 126.056C86.307 126.056 87.2572 124.789 88.049 123.839C88.8408 122.572 89.9493 121.147 91.2162 121.305C92.6415 121.463 93.5916 122.73 94.0667 123.68C99.451 132.707 108.003 136.983 112.278 136.349C111.328 134.924 109.428 132.39 107.844 130.173C107.527 129.856 107.527 129.065 107.844 128.748C108.161 128.431 108.794 128.273 109.111 128.431C110.378 128.906 120.83 132.865 122.097 138.725C125.739 139.992 129.856 139.516 132.549 137.458C134.766 135.557 135.557 132.549 134.766 129.065C134.607 128.59 134.449 127.798 134.449 126.531C134.132 123.997 133.182 117.663 132.39 116.712C131.123 115.604 128.59 115.129 126.056 114.812C123.522 114.495 120.988 113.862 119.246 112.753C118.296 112.12 117.979 112.12 117.979 112.12C117.821 112.12 117.663 112.278 117.663 112.437C116.712 113.228 115.762 114.02 113.228 113.387C113.07 113.228 112.912 113.228 112.753 113.07C99.1343 102.302 73.4797 80.4476 54.1596 56.3767C46.7166 47.1917 39.1153 45.133 32.9392 43.5494C29.6136 42.5992 26.6047 41.8074 24.3877 40.0655C21.2204 37.5317 19.6368 32.7808 20.9037 29.6136C22.329 25.8129 26.7631 26.6047 31.3556 27.2382C36.1064 28.03 41.6491 28.8218 44.9747 25.4962C50.9924 19.4785 52.7344 16.628 52.7344 16.4696C53.0511 16.1529 53.5262 15.8361 54.0013 15.8361C56.2183 16.1529 59.0688 15.9945 59.7023 15.3611C60.1774 14.7276 60.019 14.2525 59.5439 12.3522C59.2272 11.5604 59.0688 10.7686 58.9105 9.66005C58.5938 6.65118 58.5938 1.42525 58.5938 1.26689C58.5938 0.633446 59.0688 0 59.7023 0C60.3357 0 60.9692 0.633446 60.9692 1.26689C60.9692 1.26689 60.9692 6.33446 61.4443 9.18497C61.6026 10.1351 61.761 10.9269 62.0777 11.7188C62.5528 13.6191 63.1862 15.3611 61.761 16.9447C60.1774 18.5283 56.6934 18.3699 54.6347 18.2116C53.8429 19.4785 51.4675 22.329 46.875 27.0798C42.7576 31.3556 36.2648 30.4054 31.0389 29.6136C26.6047 28.8218 23.9126 28.6634 23.1208 30.4054C22.329 32.3057 23.2791 35.9481 25.9713 38.1651C27.7133 39.7487 30.5638 40.3822 33.5726 41.3324C39.7487 42.916 47.9835 45.2914 55.9016 55.1098C74.905 79.0224 100.243 100.56 113.862 111.486C115.129 111.803 115.287 111.486 115.762 111.011C116.871 109.903 117.979 109.745 120.196 111.17C121.463 112.12 123.839 112.437 126.056 112.912C128.906 113.387 131.598 113.862 133.499 115.446C134.766 116.554 135.399 120.038 136.349 126.689C136.508 127.798 136.666 128.59 136.666 128.906C137.616 133.34 136.508 137.299 133.657 139.675C130.173 142.525 124.789 143 120.196 140.942C119.88 140.783 119.563 140.467 119.563 139.833C119.405 136.983 115.446 134.449 111.962 132.549C114.97 136.824 114.812 137.141 114.654 137.775C114.495 138.091 114.337 138.091 114.179 138.25C108.003 141.575 96.9172 133.974 91.6913 125.106C90.8995 123.997 90.5828 123.839 90.5828 123.839C90.266 123.997 89.791 124.789 89.3159 125.264C88.2073 126.689 86.9405 128.59 84.8818 128.59C80.4476 128.59 60.8108 116.396 57.6436 113.387C52.8927 108.953 39.9071 98.0258 33.4143 92.4831C37.3733 101.668 46.3999 122.572 51.1508 136.983C53.2095 143.159 44.1829 148.86 41.0156 150.76L63.978 193.201C63.978 193.359 63.978 193.359 63.978 193.518C63.978 193.834 73.163 222.815 75.5384 229.941C77.4388 235.008 81.0811 245.46 72.0545 249.578C73.7964 251.003 79.9725 251.953 84.4067 252.587C91.0578 253.537 98.8176 254.804 102.935 257.813C107.369 261.138 107.844 264.305 107.211 266.364C106.577 269.373 103.727 272.065 100.401 273.807H135.716C136.349 273.807 136.983 274.44 136.983 275.074V326.225H187.975C188.609 326.225 189.242 326.858 189.242 327.492V379.434H204.286C204.92 379.434 205.553 380.068 205.553 380.701C205.553 381.334 205.395 381.651 204.761 381.651ZM134.924 328.6C127.006 328.917 122.572 332.717 121.147 336.201C120.196 338.577 120.513 340.794 122.097 342.378C123.839 344.12 126.214 344.911 128.273 344.595C130.49 344.278 132.39 342.536 133.499 339.685C134.607 337.152 134.924 332.717 134.924 328.6Z" fill="#1EAEF7"/>
<path d="M333.826 382.601C333.984 384.343 333.984 385.927 333.668 387.511C333.351 390.678 332.242 393.845 330.976 396.696C330.025 398.913 328.758 401.13 327.333 403.188C325.908 405.089 324.799 406.039 322.899 407.622C320.682 409.364 318.623 411.106 317.198 413.64C314.189 418.391 314.981 424.726 320.524 427.101C320.682 427.101 320.682 427.101 320.682 427.101C324.958 428.526 330.025 427.893 334.618 427.893C342.219 427.734 347.762 424.092 352.671 418.391C352.671 418.074 353.78 417.124 354.096 416.807C354.73 416.174 355.047 415.541 355.68 414.907C356.63 413.64 357.897 412.373 358.847 411.106C361.381 408.098 364.073 404.93 366.607 401.763C368.824 399.071 371.358 396.696 373.1 393.687C377.851 385.61 373.258 376.584 369.299 369.141C368.349 367.399 367.399 365.815 365.973 364.231C364.707 362.806 362.965 362.014 361.856 360.589C362.173 360.906 359.956 364.548 359.639 365.182C358.847 366.765 357.422 368.19 356.155 369.299C354.888 370.408 353.146 371.199 351.721 372.15C349.821 373.416 347.604 374.525 345.703 375.633C343.803 376.742 341.586 378.009 339.685 379.117C339.052 379.434 333.826 382.126 333.826 382.601Z" fill="#3F3161"/>
<path d="M262.247 341.427C262.247 341.427 273.965 360.589 267.156 378.167C266.206 380.701 263.83 381.651 260.98 381.651C247.361 381.651 207.295 381.651 201.119 381.651C193.834 381.651 191.776 370.091 201.753 364.39C211.729 358.689 233.583 357.897 233.108 348.079C233.266 347.92 255.12 334.935 262.247 341.427Z" fill="#3F3161"/>
<path d="M251.953 193.993C251.953 193.993 211.729 235.959 204.761 249.261C200.644 257.021 199.377 265.572 201.436 272.382C203.336 279.35 224.24 352.038 224.24 352.038C224.24 352.038 252.587 351.721 269.215 342.853C275.232 339.685 252.745 288.06 251.636 280.775C250.528 273.49 278.716 254.487 278.716 254.487C278.716 254.487 286.001 284.417 295.978 309.755C304.054 330.342 318.623 366.924 323.849 379.592C324.799 381.968 330.5 384.027 336.36 382.443C347.287 379.434 361.381 369.299 366.29 366.607C368.824 365.182 370.091 362.806 369.299 360.272C365.973 348.87 351.246 308.013 343.486 287.268C334.935 264.939 333.509 238.334 336.201 223.606C338.894 208.879 315.139 166.596 315.139 166.596L251.953 193.993Z" fill="#E23B53"/>
<path d="M252.587 83.9316C241.185 83.4565 231.841 88.2074 218.38 99.7678C204.92 111.487 176.89 115.921 157.886 109.428C146.168 105.31 138.408 103.41 138.408 111.487C138.408 119.563 134.607 134.607 141.892 139.041C149.335 143.476 167.863 154.878 197.635 153.769C219.172 153.136 224.557 149.968 224.557 149.968C224.557 149.968 232.791 170.872 243.402 192.093C253.537 212.363 304.054 188.609 304.054 188.609C304.054 188.609 320.84 218.697 330.342 216.005C340.002 213.313 351.404 199.377 351.404 199.377C351.404 199.377 336.518 157.253 328.6 142.05C320.682 126.848 323.849 99.7678 288.218 82.6647C266.997 72.5296 271.748 84.5651 252.587 83.9316Z" fill="#1EAEF7"/>
<path d="M237.384 27.8716C237.384 27.8716 235.167 37.5317 230.099 42.1242C225.032 46.7167 221.706 47.5085 222.815 50.359C223.765 53.2095 228.357 53.2095 229.149 58.5938C230.099 63.9781 229.466 70.1542 238.809 74.7466C248.152 79.1808 244.51 93.2749 250.686 92.9582C256.862 92.7999 270.165 79.0224 275.391 78.5473V58.9105L248.944 23.5959L237.384 27.8716Z" fill="#6A6A6A"/>
<path d="M251.478 37.3733C248.311 38.0068 236.909 35.7897 232.633 28.6634C230.733 25.4962 229.149 19.4785 233.583 17.4198C234.375 17.103 235.167 16.9447 236.117 16.7863C239.126 15.8361 238.967 13.7774 239.918 11.402C241.026 8.70987 243.718 6.9679 246.569 6.9679C248.786 7.12626 251.003 8.23479 253.062 9.34332C256.229 11.2437 269.373 19.1617 270.64 19.7952C278.716 24.7044 291.86 41.6491 284.576 59.3855C278.399 74.4299 279.983 74.7466 272.857 75.2217C265.731 75.6968 253.695 70.7876 256.704 61.4442C259.713 51.1507 258.446 44.4996 252.111 48.617C245.777 52.8927 252.428 38.6402 251.478 37.3733Z" fill="#3F3161"/>
<path d="M330.975 216.005C330.975 216.005 333.509 236.909 337.468 239.126C343.328 242.135 340.002 226.774 342.061 225.823C344.278 224.873 345.703 237.067 346.97 240.393C350.137 249.419 362.648 248.152 362.173 230.733C361.698 213.313 355.997 208.72 351.087 199.377C351.246 199.377 333.351 197.318 330.975 216.005Z" fill="#6A6A6A"/>
<path d="M132.232 105.469C132.707 105.627 133.182 105.786 133.657 105.944C136.032 107.052 142.367 110.536 142.367 113.704C142.367 117.188 142.842 127.956 141.417 131.123C140.15 133.974 137.299 132.39 137.299 132.39C137.299 132.39 129.065 115.604 123.205 114.495C120.355 114.495 119.088 114.179 116.396 113.862C115.287 113.704 113.862 113.387 113.545 112.278C113.228 111.328 113.704 110.378 114.337 109.745C114.97 109.111 116.079 108.794 116.871 108.636C119.405 108.003 121.938 107.211 124.472 106.419C126.848 105.627 129.698 104.835 132.232 105.469Z" fill="#6A6A6A"/>
<path d="M117.979 128.431C118.454 128.748 119.088 128.906 119.246 129.54C119.563 130.173 119.405 130.965 119.721 131.598C120.196 132.232 121.147 132.39 121.938 132.707C123.205 133.182 123.997 134.291 124.472 135.557C124.947 136.824 124.947 138.091 125.106 139.358C125.106 139.833 125.264 140.467 124.789 140.942C124.314 141.734 123.047 141.575 122.097 141.417C118.613 140.467 116.237 139.516 113.228 137.616C108.794 134.449 106.102 128.273 106.102 128.273C106.102 128.273 111.011 127.639 111.962 127.639C113.704 127.798 117.663 128.273 117.979 128.431Z" fill="#6A6A6A"/>
<path d="M45.133 275.232H12.3522C12.0355 275.232 11.7188 275.074 11.402 274.916C11.2437 274.599 11.0853 274.282 11.0853 273.965C11.7188 267.789 9.02661 266.364 6.01774 264.78C3.00888 263.038 -0.633438 261.296 7.72625e-06 254.645L5.54266 185.916C5.70102 185.441 5.85938 184.966 6.49283 184.808C6.96791 184.649 7.60136 184.966 7.75972 185.283L46.0832 249.419C46.0832 249.578 46.2416 249.736 46.2416 250.053V273.965C46.2416 274.757 45.7665 275.232 45.133 275.232ZM13.6191 272.857H44.0245V250.528L7.60136 189.717L2.37543 254.645C2.05871 259.713 4.27577 261.138 7.12627 262.722C10.1351 264.305 13.7775 266.364 13.6191 272.857Z" fill="#1EAEF7"/>
</g>
<defs>
<clipPath id="clip0">
<rect width="375" height="427.893" fill="white"/>
</clipPath>
</defs>
</svg>
