<svg width="1440" height="650" viewBox="0 0 1440 650" fill="none" xmlns="http://www.w3.org/2000/svg">
<path d="M1647.8 -92H-82V909.1H1647.8V-92Z" fill="white"/>
<path d="M1524.8 581.4H871.8V139.1L1524.8 0.699951V581.4Z" fill="white"/>
<path d="M898.1 435.9H915.1V389.6H970.6V443.9H980.3V430.2H1004.5L1036.1 471.8L1004.2 506.1L898.1 489.8V435.9Z" fill="#6A6A6A"/>
<path d="M1189.4 432.5H1216.6V389.6H1261.3L1259.9 536.6L1146.3 521L1189.4 432.5Z" fill="#6A6A6A"/>
<path d="M1290.6 389.6C1291.7 390.9 1292.9 392 1294 393.3C1296.4 396 1298.9 398.6 1301.3 401.3C1303.8 404 1306.2 406.8 1308.8 409.5C1309.5 410.2 1310.1 410.9 1310.8 411.6C1311.5 412.3 1312.3 412.9 1312.5 414C1312.5 414.3 1312.5 414.4 1312.5 414.7C1312.5 415.4 1312.5 416.2 1312.5 417C1312.5 419.4 1312.5 421.9 1312.5 424.3C1312.5 427.5 1312.5 430.9 1312.5 434.2C1312.5 437.9 1312.5 441.7 1312.5 445.3C1312.5 448.9 1312.5 452.6 1312.5 456.3C1312.5 459.5 1312.5 462.6 1312.5 465.9C1312.5 468.2 1312.5 470.5 1312.5 472.8C1312.5 473.8 1312.5 474.6 1312.5 475.6H1320.1C1320.1 474.8 1320.1 473.9 1320.1 473.1C1320.1 471 1320.1 468.9 1320.1 466.9C1320.1 463.9 1320.1 460.8 1320.1 457.9C1320.1 454.4 1320.1 450.7 1320.1 447.2C1320.1 443.4 1320.1 439.6 1320.1 435.8C1320.1 432.1 1320.1 428.3 1320.1 424.7C1320.1 421.5 1320.1 418.2 1320.1 414.8C1320.1 412.3 1320.1 409.9 1320.1 407.3C1320.1 406.5 1320.1 405.6 1320.1 404.8C1320.1 404.5 1320.1 404.2 1320.1 403.8C1320.1 402.8 1320.5 402.5 1321.5 402.7C1322.5 402.9 1323.6 402.7 1324.6 402.7C1326 402.7 1327.6 402.7 1329 402.7C1332.7 402.7 1336.5 402.7 1340.1 402.7C1344 402.7 1347.8 402.7 1351.8 402.7C1354.9 402.7 1358 402.7 1361.1 402.7C1362.4 402.7 1363.6 402.7 1364.9 402.7L1422.6 460.8L1428.2 527.1L1333.1 537.1L1282.4 504.6L1290.6 389.6Z" fill="#6A6A6A"/>
<path d="M935.1 408.3H928.2V420.8H935.1V408.3Z" fill="#3F3161"/>
<path d="M925.8 392.4H918.9V404.9H925.8V392.4Z" fill="#3F3161"/>
<path d="M925.4 421.5H919.2V435.4H925.4V421.5Z" fill="#3F3161"/>
<path d="M1251.4 417H1244.2V431.5H1251.4V417Z" fill="#3F3161"/>
<path d="M1235.5 438H1228V454H1235.5V438Z" fill="#3F3161"/>
<path d="M1247.9 466.8H1240.4V485.7H1247.9V466.8Z" fill="#3F3161"/>
<path d="M1197.1 358.7C1193.3 361.1 1198.8 354.8 1205.1 351.4C1209.3 349.1 1210.4 355.1 1210.4 355.1C1210.4 355.1 1214.6 349.2 1222.5 353.4C1222.5 353.4 1210.5 357.5 1209.1 362.3C1209.1 362.3 1208.3 351.8 1197.1 358.7Z" fill="#CFF0FF"/>
<path d="M1379.1 289.8C1379.1 289.8 1366.9 290.5 1361.2 298.1C1355.6 305.7 1356.7 282.8 1376 282.3C1376 282.3 1376.3 272.9 1384.2 272C1392.1 271.1 1397.9 276.2 1397.9 276.2C1397.9 276.2 1380.7 274 1379.1 289.8Z" fill="#CFF0FF"/>
<path d="M1193.6 501.6L1279.3 506.1L1272.4 537.1L1129.4 528.3L1132.3 518.3L1193.6 501.6Z" fill="#1EAEF7"/>
<path d="M1126.9 249C1131.3 249.8 1135.1 253.2 1136.2 257.6C1139.9 254.5 1144.8 252.8 1149.7 253.1C1154.5 253.4 1159.3 255.6 1162.5 259.3C1153.2 256.9 1142.8 259 1135.1 264.8C1135.8 264.2 1130.2 258.6 1129.6 258.2C1127.1 256.2 1124.3 255 1121.2 254.3C1118.9 253.9 1114.4 254.3 1117.7 251.3C1119.7 249 1124.1 248.4 1126.9 249Z" fill="#CFF0FF"/>
<path d="M1198.3 487.1C1197.6 487.1 1197 486.5 1196.9 485.8C1196.8 485.1 1197.3 484.4 1198.2 484.3C1198.3 484.3 1207.5 483.2 1215.2 482.8C1224.8 482.4 1231.7 478.9 1235.5 472.8C1240.4 464.5 1239.2 451.8 1231.7 436.1C1221.3 414.1 1213.4 396.1 1214.8 382.5C1215.6 375.2 1219.2 369.4 1224.9 365.8C1233.2 360.7 1245.3 360.6 1258.1 365.5C1258.8 365.8 1259.2 366.6 1258.9 367.3C1258.6 368 1257.8 368.4 1257.1 368.1C1245.3 363.6 1233.9 363.6 1226.4 368.1C1221.3 371.2 1218.2 376.3 1217.5 382.7C1216.1 395.6 1224.1 413.9 1234.1 434.8C1242 451.4 1243.2 465.1 1237.8 474.2C1233.6 481.1 1225.8 485 1215.3 485.6C1207.7 486 1198.6 487 1198.3 487.1C1198.4 487.1 1198.4 487.1 1198.3 487.1Z" fill="#1EAEF7"/>
<path d="M1301.3 363.2C1300.7 363.2 1300.2 362.8 1300.2 362.2C1300.1 361.5 1300.6 360.9 1301.2 360.8C1301.5 360.8 1326.3 357.1 1336.9 339.1C1337.6 338 1338.3 336.6 1339 335.2C1330.3 332.2 1324.2 327 1321.4 321.8C1318.9 317.2 1318.6 312.1 1320.3 307.3C1321.8 303.1 1324.9 299.8 1328.6 298.4C1332.1 297.1 1335.8 297.4 1339 299.4C1343.2 301.9 1346 306.9 1346.9 312.8C1347.7 319.3 1345.4 327.2 1342.4 333.8C1347.9 335.3 1354.2 336.1 1361.5 335.5C1387.1 333.5 1395.6 323.7 1404.3 313.3C1414.3 301.5 1424.7 289.2 1461.6 289.9C1462.3 289.9 1462.7 290.5 1462.7 291.2C1462.7 291.9 1462.3 292.5 1461.4 292.3C1425.8 291.6 1416.2 302.9 1406.1 314.8C1397.4 325.1 1388.2 335.8 1361.6 337.9C1353.9 338.5 1347.1 337.8 1341.3 336.1C1340.5 337.6 1339.8 339.2 1338.9 340.5C1327.6 359.5 1302.6 363.2 1301.5 363.3C1301.4 363.2 1301.4 363.2 1301.3 363.2ZM1332.8 300.1C1331.7 300.1 1330.5 300.2 1329.4 300.8C1326.4 301.9 1323.8 304.7 1322.5 308.3C1321 312.4 1321.4 316.9 1323.5 320.8C1326.2 325.7 1331.8 330.4 1340.1 333.2C1342.9 326.9 1345.2 319.3 1344.5 313.2C1343.8 308 1341.4 303.8 1337.9 301.5C1336.2 300.6 1334.5 300.1 1332.8 300.1Z" fill="#1EAEF7"/>
<path d="M1451.5 548.9C1442.4 547.9 1433.2 547.1 1424.1 546.1C1407.2 544.4 1390.3 544.7 1373.3 544.7C1353.2 544.7 1332.9 544 1312.9 542.6C1307.8 542.2 1253.2 537.8 1253.4 536.1C1253.4 535.3 1253.5 534.6 1253.5 533.7C1254.2 518.8 1254.2 503.9 1254.2 488.9C1254.2 471.9 1254.2 454.8 1254.2 437.8C1254.2 416.8 1254.2 395.9 1254.2 374.9C1254.2 352.4 1254.2 329.9 1254.2 307.5C1254.2 285.8 1254.2 264.2 1254.2 242.6C1254.2 224.2 1254.2 205.7 1254.2 187.4C1254.2 174.6 1254.2 161.8 1254.2 149C1254.2 144.2 1254.2 136.9 1254.2 132.1L1073.9 169.4V463L1038 457.4V176.9L901.6 205.2V480.5C901.6 477.5 892.9 473 890.2 473.3C890.3 468.5 890.2 463.7 890.2 458.9L886.1 455.8L885.7 352.8L414.2 351.8L396.9 438.6L-38.7 480.4L-21.1 -49.6001H1459.5L1493.1 82.2999L1302.5 122V508.2L1405.8 518.3L1451.5 518.6V548.9Z" fill="#EFEFEF"/>
<path d="M619.019 405.318L604.89 408.099L613.213 450.388L627.342 447.608L619.019 405.318Z" fill="#CFF0FF"/>
<path d="M635.705 404.706L620.12 412.885L640.149 451.05L655.734 442.871L635.705 404.706Z" fill="#CFF0FF"/>
<path d="M536.9 550.6L539.6 649.8L852.1 661.6L919.2 544.1L790.4 495.4L630 520.2L536.9 550.6Z" fill="#1EAEF7"/>
<path d="M423.4 448.7H682.9L727.9 480.6L676.7 515.1C676.7 515.1 432.2 541.8 431.3 541.8C415.5 541.8 423.4 448.7 423.4 448.7Z" fill="#3F3161"/>
<path d="M593.4 613.8C593.4 613.8 599.7 619 606.6 620.7C614.6 622.5 621.9 628 621 632.2C620.4 634.9 620 636.8 620 636.8L579.5 664.4C579.5 664.4 535 671.6 537 657.1C539 642.6 538.1 617.6 538.1 617.6L563.7 611.8L593.4 613.8Z" fill="#0062BA"/>
<path d="M815.2 457.3H891.2V486.1H811.2L815.2 457.3Z" fill="#6A6A6A"/>
<path d="M857.5 475.6H1009.1V498.2H852.1L857.5 475.6Z" fill="#1EAEF7"/>
<path d="M847.8 495.3H975.3V542L801.7 580.1L847.8 518.6V495.3Z" fill="#0062BA"/>
<path d="M614.2 552.4L593.4 613.8C593.4 613.8 587.2 630.5 571.9 626.3C578 638.1 551.1 652.1 551.1 652.1L557.9 628.2L534.3 630.5V563.2L614.2 552.4Z" fill="#3F3161"/>
<path d="M418.3 389.7L414.1 448.7C421.7 448.7 429.2 448.7 436.8 448.7C440.9 448.7 445.1 448.7 449.2 448.7C450.7 448.7 452.4 448.7 454 448.7C455.5 448.7 467.8 448.7 469.2 448.7C471.3 448.7 473.6 448.7 475.7 448.7L481.5 443.5L486.4 448.7H604.8C604.8 444.3 604.8 439.8 604.8 435.5C604.8 431.3 604.5 426.9 604.8 422.8C605.1 419.6 606.8 402.7 603.4 402.7C601.1 402.7 598.9 402.7 596.6 402.6C594.8 402.5 593.9 403.3 593.9 405.1C593.8 409.7 593.8 414.5 593.6 419.2C593.6 420.5 593.5 422 592.3 422.7C592.3 417.2 592.4 411.9 592.4 406.4C592.4 405.6 592.4 404.4 591.6 403.9C591 403.5 590.5 403.5 589.8 403.5C587.1 403.5 584.5 403.6 581.8 403.6C581 403.6 580 403.6 579.3 404.2C577.8 405.5 578.9 407.6 578.7 409.1C577.3 409.1 564.1 409.2 564.1 409.1C564.1 405.7 564.1 402.3 564.1 399C564.1 396.7 564.1 394.5 564.1 392.4C564.1 389.4 561.6 389.7 559.3 389.7C557 389.7 554.8 389.7 552.7 389.7C549 389.7 545.4 389.7 541.9 389.7C541.1 389.7 540.2 389.6 539.5 389.7C538.8 389.8 538.1 390.4 537.4 390.5C536 390.8 534.4 390.6 533 390.6C528.4 390.5 523.9 391.4 519.6 393.3C518.6 393.7 517.5 394.3 516.4 394.6C513.9 395 513.4 393.1 511.5 391.9C509.8 390.9 507.7 390.6 505.7 390.5C502.5 390.4 499.2 390.5 496.3 391.9C494 393 492.1 394.6 491.5 397C490.7 399.7 490.5 402.5 490.4 405.3C490.3 408.1 490.4 411.1 490.3 413.9C490.2 415.3 490 416.7 489.7 418.1C489.4 419.1 488.7 420.5 488.6 421.6C488.7 416.8 488.9 412 489.2 407.2C489.3 404.8 489.5 402.4 489.8 400C489.9 399.2 490.2 397.9 489.9 397C489.6 396.6 488.8 395.7 488.4 395.3C487.3 394 486 392.6 484.9 391.4C484.6 391.1 483.5 389.4 483.1 389.4C480.8 389.4 478.7 389.4 476.5 389.4C474.1 389.4 471.7 389.4 469.3 389.4C467.3 389.4 464.4 388.7 463.5 390.9C463.1 391.9 463.2 392.9 463.2 393.9C463.5 401.2 463.3 408.5 462.6 415.7C462.6 415.8 462.6 416.1 462.3 416.3C461.9 416.6 461.6 415.9 461.6 415.3C461.7 409.1 461.7 402.9 461.9 396.6C461.9 394.8 461.9 392.7 460.9 391.1C460.8 390.8 460.5 390.5 460.3 390.4C458.8 388.9 457.1 389.3 455.1 389.4C452.6 389.4 450.2 389.4 447.6 389.4C445.5 389.4 443.8 388.7 442.1 390.7C441 392.1 440.6 393.9 440.4 395.6C440.3 397.3 440.4 399.1 440.3 400.8C440.2 402.5 439.6 404.3 438.3 405.6C438.4 401.2 438.6 396.7 438.7 392.4C438.7 391.7 438.7 390.9 438.4 390.3C437.7 388.9 434.7 389.6 433.5 389.6C428.1 389.6 423.2 389.6 418.3 389.7Z" fill="#CFF0FF"/>
<path d="M469.1 393.4C475.6 393.4 475.2 404.2 469.1 404.2C463 404.2 462.6 393.4 469.1 393.4Z" fill="#C0EFFF"/>
<path d="M1336.6 545.6L1099.8 666.4L1374.1 734.9L1336.6 545.6Z" fill="#3F3161"/>
<path d="M935.9 479.9C934.9 480.2 933.9 480.6 933.2 481.3C931.8 482.4 931.1 484.4 931.9 485.9C932.7 487.6 935 487.9 936.8 488C945 488.6 953 488 961.1 486.9C962.6 486.8 964.2 486.5 965.6 485.6C968.4 483.8 966.7 480.5 965 478.4C964.6 477.8 963.9 477.4 963.5 476.7C962.2 474.6 963.4 471.9 964.5 469.9C965.3 468.2 966.5 466.8 967.5 465.3C968.3 464 968.5 462.8 970.2 462.2C971 461.9 971.9 461.8 972.7 461.6C973.1 459.5 973.3 457.2 973 455C973 454.4 972.9 453.9 972.4 453.5C972.1 453.2 971.6 453.1 971.1 453.1C965.9 452.4 960.8 451.8 955.6 451.6C949.7 451.3 943.9 451.5 938.1 452.4C937.4 452.5 936.7 452.7 936.3 453.1C935.7 453.7 935.6 454.6 935.6 455.5C935.6 457.6 935.5 459.7 935.5 461.8C935.5 461.9 937.3 462.5 937.5 462.5C938.5 463.1 938.8 464.3 939.2 465.3C940.3 468 941.5 470.6 942.3 473.3C942.7 474.7 943.4 476 942.3 477C941.3 478.1 936.6 479.8 935.9 479.9Z" fill="#3F3161"/>
<path d="M948.6 450.1C947.2 449.8 945.8 449.7 944.4 449.5C940.9 449.1 937.4 447.8 934.7 445.7C931.9 443.4 930.1 440.2 929.9 436.6C929.9 436.2 938.1 436.9 938.8 437C940.1 437.3 941.5 437.4 942.7 437.7C944.1 438.1 945.5 438.7 946.9 439.2C945.1 436.2 944.1 432.9 943.7 429.3C943.6 428.2 943.8 426.8 945.2 427.2C946.3 427.5 947.2 428.5 947.7 429.5C949.1 431.9 950.7 434.3 952.1 436.7C952.1 431.5 952.2 426.4 952.2 421.2C952.2 419.5 952.8 417.1 954.5 417.1C955.9 421.7 956.8 426.5 956.9 431.5C957.9 427.4 958.9 423.1 961.8 420.1C962.2 419.5 963.1 419.1 963.6 419.5C963.9 419.6 963.9 419.9 964 420.3C965.3 424.7 964.6 429.6 961.9 433.4C964.2 430.3 966.7 426.8 970.5 427.5C970.9 430.3 970.1 432.7 968.4 434.8C966.9 436.9 964.9 438.9 962.6 440.4C965.3 439 967.9 438 970.9 437.2C971.7 436.9 972.7 436.9 973.3 437.6C973.6 438 973.6 438.4 973.6 438.9C973.3 442.3 969.9 444.4 967.3 445.8C964.8 447.1 962.2 447.8 959.7 448.9C959 449.2 958.3 449.5 957.9 450C957.5 450.4 957.2 451.4 957.5 452C957.8 452.4 958.5 452.8 959 453.1C959.8 453.5 960.7 453.4 961.7 453.5C963.2 453.8 970.4 453.6 966.2 455.3C962.4 456.7 961 456.3 955.1 456.4C949.3 456.5 940.3 455.7 940.3 455.1C940.3 454.5 947.9 454 949.7 453C950.3 452.7 950.4 452 950.5 451.5C950.6 450.7 950.2 450.5 949.4 450.4C949 450.2 948.9 450.1 948.6 450.1Z" fill="#0062BA"/>
<path d="M853.3 489.2C852.9 489.2 860.1 489.2 859.6 488.9C859.3 488.6 851.4 488.2 851.4 487.8C851 483.3 848.2 476.8 847.7 472.3C866.4 470.5 895.3 470.8 914 468.9C928.5 467.5 926.1 484.9 913.7 486.8C896.8 489.4 870.6 488.8 853.3 489.2Z" fill="#3F3161"/>
<path d="M503.3 415.7C505.785 415.7 507.8 411.268 507.8 405.8C507.8 400.332 505.785 395.9 503.3 395.9C500.815 395.9 498.8 400.332 498.8 405.8C498.8 411.268 500.815 415.7 503.3 415.7Z" fill="white"/>
<path d="M477.9 439.4H465.9V444.7H477.9V439.4Z" fill="white"/>
<path d="M477.9 432.4H465.9V437.7H477.9V432.4Z" fill="white"/>
<path d="M882.3 440.2H809.5V458.9H882.3V440.2Z" fill="#CFF0FF"/>
<path d="M873.7 414.9H816.7V438.5H873.7V414.9Z" fill="#CFF0FF"/>
<path d="M864.6 400.8H831.8V413.6H864.6V400.8Z" fill="#CFF0FF"/>
<path d="M851.1 406.7C851.2 403.2 861.7 401.8 861.5 407C861.3 412.2 850.9 410.8 851.1 406.7Z" fill="white"/>
<path d="M857.3 419.1H827.6V425.3H857.3V419.1Z" fill="white"/>
<path d="M871.2 455.4C869.9 455.5 868.5 455.7 867.3 456C866.6 456.1 865.6 456.3 865 456.8C864.4 457.5 864.6 458.5 864.6 459.3C864.6 460.4 864.6 461.7 864.6 462.8C864.6 465.3 864.6 467.9 864.6 470.3C864.6 470.6 864.6 471 864.7 471.3C865.1 472.3 866.7 471.9 867.5 471.9C868.8 471.9 870.2 471.9 871.4 471.9C873.9 471.9 876.5 472 879.1 472C884.3 472.1 889.5 472.1 894.6 472.3C898.5 472.3 902.6 472.4 906.4 471.5C908.4 470.9 910.3 470.1 911.2 468.3C912.5 465.9 911.1 462.8 908.9 461.3C906.8 459.8 904 459.2 901.4 458.8C898.9 458.4 896.3 458 893.8 457.4C891.7 457 889.3 457 887.5 456.1C885.7 455.3 883.7 455.3 881.7 455.3C878.2 454.9 874.7 455.2 871.2 455.4Z" fill="#1EAEF7"/>
<path d="M903.6 461.8C904.9 463.2 905.7 465.2 905.1 467C904.1 470.4 899.6 471.1 896 470.9C891.1 470.9 886 470.8 881.1 470.8C878.8 470.8 876.5 470.5 874.2 470.7C872.2 470.8 870.3 470.8 868.1 470.8C866.8 470.8 864.4 470.5 863.3 471.4C862.9 471.8 862.6 472.4 862.6 473.1C862.6 473.7 862.7 474.4 862.9 474.9C862.9 474.6 877 474.8 878.2 474.8C880.7 474.8 883.4 474.8 885.9 474.8C888.3 474.8 890.5 475.1 892.9 475.1C894.2 475.1 895.4 475.1 896.7 475.1H896.8C902 475.1 907.1 475 912.3 475C915 475 923.4 476.1 923.3 471.3C923.2 468.8 923.2 466.4 923 463.8C922.9 462.1 922.7 460 921.2 458.9C920.5 458.3 919.5 458.1 918.7 457.9C913.6 456.6 908.4 456.1 903.2 455.5C902.2 455.4 877.6 454.1 872 453.8C869.9 453.8 867.9 453.7 865.8 453.9C865 454 864.1 454.2 863.5 454.6C862.9 455.2 862.7 456.1 863.2 456.7C863.6 457.1 864.3 457.3 864.9 457.3C875.5 457.9 886 459 896.7 459.6C899.2 459.7 902.2 460.2 903.6 461.8Z" fill="#0062BA"/>
<path d="M960.3 424C958.8 429.2 957.1 434.3 955.5 439.5C955.8 438.8 956.6 438 957 437.2C957.6 436.4 958 435.7 958.4 434.8C959.4 433.1 960.1 431.4 960.9 429.6C961.6 427.9 962.2 426.1 962.7 424.3C963 423.3 964.2 419.9 963 419.4C961.8 418.7 960.6 423.2 960.3 424Z" fill="#1EAEF7"/>
<path d="M951.3 442.8C951.6 443.1 951.7 443.4 951.7 443.8C951.6 444.4 950.9 444.5 950.4 444.4C949.1 444.3 948 443.4 947 442.6C945.2 441.1 943.3 439.5 941.4 438C940.4 437.3 939.6 436.5 938.6 435.7C938 435.3 936.5 434.4 936.5 433.6C936.5 431.8 940.3 434 941 434.4C943 435.4 944.7 436.5 946.3 437.9C948.3 439.2 949.9 440.9 951.3 442.8Z" fill="#1EAEF7"/>
<path d="M558.7 452.5C558.6 452.5 558.4 452.5 558.4 452.5C557.7 452.5 557.3 451.9 557.3 451.2C557.3 450.5 557.9 450.1 558.6 450.1C559.6 450.1 578.2 450.5 591.3 436.9C582.9 434.6 576.4 428.9 573.1 422.3C568 412.3 569.6 400.1 576.5 394.7C582.8 389.8 594.2 389.1 600.8 396C605.6 401.1 606.7 409.9 603.8 419.6C601.8 425.9 599 431.1 595.6 435.4C599.5 435.8 603.9 435.4 608.8 433.9C619.9 430.2 625 425.3 629.5 421.1C635.7 415.2 641 410.3 658.2 410.3C658.9 410.3 659.3 410.9 659.3 411.4C659.3 412 658.7 412.5 658.2 412.5C642 412.5 637.2 417 631.2 422.8C626.6 427.3 621.2 432.2 609.7 436.2C603.9 438.2 598.6 438.5 593.8 437.6C580.6 451.9 561.3 452.5 558.7 452.5ZM588.2 393.1C584.4 393.1 580.6 394.4 577.9 396.3C571.8 401.1 570.6 411.9 575.1 420.9C577.5 425.7 583.5 432.4 593 434.6C596.5 430.5 599.5 425.3 601.4 418.7C604.1 410 603.1 401.8 599 397.4C596.2 394.5 592.2 393.1 588.2 393.1Z" fill="#1EAEF7"/>
<path d="M423.4 541.8V518.3L711.6 485L816.7 498.9L774.2 531.4L550.2 563.1L423.4 541.8Z" fill="#CFF0FF"/>
<path d="M423.8 534.4L550.2 557.6L774.2 526.5V538L557.8 569.7V697.4L434.1 665.6L421.5 575.9L423.8 534.4Z" fill="#6A6A6A"/>
<path d="M649.5 389.8C649.4 389.9 649.4 390.1 649.4 390.2C649.4 390.3 649.4 390.5 649.4 390.6C649.4 391 649.4 391.4 649.4 391.9C649.4 393.2 649.4 394.3 649.4 395.6C649.4 397.3 649.4 399 649.4 400.7C649.4 402.8 649.4 404.9 649.4 406.9C649.4 409.3 649.4 411.7 649.4 414.1C649.4 416.8 649.4 419.3 649.4 422C649.4 424.8 649.4 427.6 649.4 430.4C649.4 433.2 649.4 436.2 649.4 439C649.4 441.8 649.4 444.8 649.4 447.6C649.4 450.4 649.4 453.2 649.4 455.9C649.4 458.6 649.4 461.1 649.4 463.8C649.4 466.2 649.4 468.6 649.4 471C649.4 473.1 649.4 475.1 649.4 477.2C649.4 478.9 649.4 480.6 649.4 482.1C649.4 483.2 649.4 484.5 649.4 485.6C649.4 486.2 649.4 486.9 649.4 487.4C649.4 487.7 649.7 487.7 650 487.7C650.1 487.7 650.3 487.7 650.6 487.7C650.9 487.7 651 487.7 651.3 487.7C651.6 487.7 651.9 487.7 652.1 487.7C652.3 487.7 652.8 487.7 653.1 487.7C653.5 487.7 653.8 487.7 654.2 487.7C654.6 487.7 655 487.7 655.5 487.7C656 487.7 656.5 487.7 656.9 487.7C657.5 487.7 657.9 487.7 658.4 487.7C659 487.7 659.5 487.7 660.1 487.7C660.7 487.7 661.2 487.7 661.9 487.7C662.6 487.7 663.2 487.7 663.9 487.7C664.6 487.7 665.3 487.7 665.9 487.7C666.6 487.7 667.3 487.7 668 487.7C668.7 487.7 669.4 487.7 670.3 487.7C671 487.7 671.8 487.7 672.6 487.7C673.4 487.7 674.1 487.7 675 487.7C675.9 487.7 676.7 487.7 677.5 487.7C678.3 487.7 679.2 487.7 680 487.7C680.8 487.7 681.7 487.7 682.7 487.7C683.5 487.7 684.5 487.7 685.4 487.7C686.4 487.7 687.2 487.7 688.2 487.7C689.2 487.7 690 487.7 691 487.7C692 487.7 693 487.7 693.8 487.7C694.8 487.7 695.8 487.7 696.8 487.7C697.8 487.7 698.8 487.7 699.8 487.7C700.8 487.7 701.8 487.7 702.8 487.7C703.8 487.7 704.8 487.7 705.9 487.7C706.9 487.7 707.9 487.7 709 487.7C710 487.7 711.1 487.7 712.1 487.7C713.1 487.7 714.2 487.7 715.2 487.7C716.2 487.7 717.3 487.7 718.3 487.7C719.3 487.7 720.4 487.7 721.4 487.7C722.4 487.7 723.5 487.7 724.5 487.7C725.5 487.7 726.6 487.7 727.6 487.7C728.6 487.7 729.7 487.7 730.7 487.7C731.7 487.7 732.8 487.7 733.8 487.7C734.8 487.7 735.9 487.7 736.9 487.7C737.9 487.7 738.9 487.7 740 487.7C741 487.7 742 487.7 743 487.7C744 487.7 745 487.7 746 487.7C747 487.7 748 487.7 749 487.7C750 487.7 751 487.7 751.8 487.7C752.8 487.7 753.6 487.7 754.6 487.7C755.6 487.7 756.4 487.7 757.4 487.7C758.2 487.7 759.2 487.7 760.1 487.7C760.9 487.7 761.9 487.7 762.8 487.7C763.6 487.7 764.5 487.7 765.3 487.7C766.1 487.7 767 487.7 767.8 487.7C768.6 487.7 769.3 487.7 770.2 487.7C770.9 487.7 771.7 487.7 772.5 487.7C773.2 487.7 774 487.7 774.8 487.7C775.6 487.7 776.2 487.7 776.9 487.7C777.6 487.7 778.3 487.7 778.9 487.7C779.6 487.7 780.2 487.7 780.9 487.7C781.5 487.7 782.2 487.7 782.7 487.7C783.3 487.7 783.8 487.7 784.4 487.7C785 487.7 785.4 487.7 785.9 487.7C786.3 487.7 786.9 487.7 787.3 487.7C787.7 487.7 788.1 487.7 788.6 487.7C789 487.7 789.3 487.7 789.7 487.7C790 487.7 790.4 487.7 790.7 487.7C791 487.7 791.3 487.7 791.5 487.7C791.8 487.7 791.9 487.7 792.2 487.7C792.3 487.7 792.5 487.7 792.8 487.7C792.9 487.7 793.1 487.7 793.2 487.7C793.2 487.7 793.3 487.7 793.5 487.7L795.9 389.5C795.6 389.5 795.5 389.5 795.2 389.5C794.5 389.5 793.9 389.5 793.2 389.5C792.2 389.5 791.1 389.5 790.1 389.5C788.7 389.5 787.3 389.5 786 389.5C784.3 389.5 782.6 389.5 780.9 389.5C778.9 389.5 777 389.5 775 389.5C772.7 389.5 770.6 389.5 768.4 389.5C766 389.5 763.6 389.5 761.2 389.5C758.7 389.5 756 389.5 753.5 389.5C750.8 389.5 748.2 389.5 745.3 389.5C742.5 389.5 739.7 389.5 736.9 389.5C734.1 389.5 731.1 389.5 728.3 389.5C725.5 389.5 722.5 389.5 719.7 389.5C716.9 389.5 713.9 389.5 711.1 389.5C708.3 389.5 705.5 389.5 702.7 389.5C700 389.5 697.2 389.5 694.5 389.5C691.8 389.5 689.3 389.5 686.6 389.5C684.2 389.5 681.7 389.5 679.3 389.5C677 389.5 674.8 389.5 672.5 389.5C670.5 389.5 668.4 389.5 666.4 389.5C664.6 389.5 662.9 389.5 661.1 389.5C659.7 389.5 658.1 389.5 656.7 389.5C655.6 389.5 654.4 389.5 653.3 389.5C652.6 389.5 651.8 389.5 651 389.5C650.1 389.6 649.7 389.6 649.5 389.8Z" fill="#6A6A6A"/>
<path d="M685 500.5C688.4 502.8 702.9 502.3 721.7 502.3C740.6 502.3 741.4 498.9 741.4 498.9V492.4L739.1 485.9L715.9 480.3C715.9 480.3 691.1 487.6 700.1 487.6C709.2 487.6 709.7 488.6 709.5 490.6C709.4 492.3 696.4 492.7 687.4 494C685 494.7 682.9 498.9 685 500.5Z" fill="#6A6A6A"/>
<path d="M658.3 398.6V479.1H784.1L792 453.7L784.1 436.7V398.6H658.3Z" fill="white"/>
<path d="M507.2 435.6C507.2 435.6 502.4 444.5 502.8 444.9C503.2 445.3 533.9 462.4 533.9 462.4C533.9 462.4 536.7 450 537 445.7C540.7 442.2 544 443.4 546.4 438.8C548.8 434.2 550.1 429.7 554 428C557.7 426.5 559.3 425.3 558.9 423.6C558.3 420.9 555.1 420.9 554.4 414.9C554.1 412.9 555.1 404.8 550.2 397.3C547.9 393.9 543.9 389.8 535.7 389.8C518.2 389.8 510.4 415.1 510.4 415.1L507.2 435.6Z" fill="#6A6A6A"/>
<path d="M506.5 436.7C509.2 437.8 511.8 437.4 518.2 431.5C524.5 425.7 522.1 423.1 521 417.6C519.6 410.7 526.2 408.5 528.5 415.3C530 419.8 533.1 421.4 535.7 418.4C537.7 416.1 537.4 413.3 533 405.3C528.6 397.3 538.5 389.8 538.5 389.8C538.5 389.8 534.1 389.4 530.3 389.4C525.2 389.4 517.9 390 511 396.3C498.9 407.4 504 435.6 506.5 436.7Z" fill="#3F3161"/>
<path d="M505.3 439.4C505.3 439.4 500.8 440.5 495.4 440.8C488.5 441.1 479.9 441.2 472.9 448.5C460.4 461.4 461.2 483.1 456.7 488.9C452.2 494.5 445.2 502.4 447.4 515.5C449.6 528.6 474.6 527.9 490 528.3C505.5 528.9 551.1 529.7 551.1 529.7L608.8 480.3C608.8 480.3 598.9 466.2 590.1 457.2C583.6 450.6 578.3 448.5 573.2 450.9C571.4 451.7 569.7 453 567.7 455.3C567.7 455.3 560.8 449.8 548.1 446.9C547 446.6 544.6 443.2 543.7 441.6C540.3 441.5 538.9 441.3 536.9 445.4C536.9 445.4 534.4 455.7 522.8 453.4C511.5 451.2 502.9 445.2 505.3 439.4Z" fill="#0062BA"/>
<path d="M568.9 455.3C566.9 456.8 565.1 459 562.7 459.5C560.9 459.9 559 459.9 557.4 459.6C557 459.5 556.4 459.3 556 459.2C555.7 459.1 555.2 458.8 554.9 458.8C554.5 458.8 554.3 459.5 554.2 459.8C553.5 461.3 551.7 464.4 549.4 463.2C546.6 461.5 544.2 466.7 541.2 461.4C539.7 458.6 540.1 454.6 540.5 451.5C540.9 448.8 541.1 445.3 542.8 443.1C544.8 440.4 547.9 438.5 551.1 437.8C554.1 437.2 556.9 437.8 559.7 438.9C565.5 441.2 570.5 445.2 573.2 450.9C573.2 451 573.3 451 573.3 451.2L568.9 455.3Z" fill="#6A6A6A"/>
<path d="M478.2 527.5L529.2 525.9L526.2 539L478.2 527.5Z" fill="#1EAEF7"/>
<path d="M550.2 557.6L557.8 569.7L674.3 552.7V540.4L550.2 557.6Z" fill="#0062BA"/>
<path d="M509.2 529.3C507.5 528.9 505.8 528.5 504.1 528C502.8 527.7 500.6 527.3 499.5 526.9C498.5 526.5 500.9 521 502.2 520.1C509.4 515 524.7 516.9 528 516.6C532.4 516.3 535.5 516.9 534.9 518.6C534.2 520.4 534.1 522.5 533.4 524.4C532.8 526.4 532.4 528.5 531.9 530.5C531.6 531.5 531.6 532.5 531.2 533.5C530.6 534.6 529.9 534.3 528.8 534.2C526.1 533.9 523.5 533.4 520.8 532.7C516.9 531.4 513 530.4 509.2 529.3Z" fill="#6A6A6A"/>
<path d="M545.8 480.9C549.7 480.6 606.3 475.7 623.2 474.3C626.2 474 627.7 475.4 627.1 478C624.7 489.5 618.1 519.8 617.1 524.4C615.8 530.2 615.3 534.8 608.4 536.2C597.8 538.2 550.7 545.1 533 546.9C528.9 547.3 526.2 547.5 520.9 545.9C515.6 544.4 481.5 534.5 481.5 534.5L478 527L526.4 539.1C526.4 539.1 535.8 495.5 537.4 488.6C538.6 482.6 541.3 481.3 545.8 480.9Z" fill="white"/>
<path d="M666.1 411.2H663.3C662.7 411.2 662.2 410.8 662.2 410.1C662.2 409.4 662.6 409 663.3 409H666.1C666.7 409 667.2 409.4 667.2 410.1C667.3 410.8 666.7 411.2 666.1 411.2Z" fill="#1EAEF7"/>
<path d="M759.7 411.2H754.1C753.5 411.2 753 410.8 753 410.1C753 409.4 753.4 409 754.1 409H759.7C760.3 409 760.8 409.4 760.8 410.1C760.9 410.8 760.3 411.2 759.7 411.2ZM744.1 411.2H738.5C737.9 411.2 737.4 410.8 737.4 410.1C737.4 409.4 737.8 409 738.5 409H744.1C744.7 409 745.2 409.4 745.2 410.1C745.2 410.8 744.7 411.2 744.1 411.2ZM728.5 411.2H722.9C722.3 411.2 721.8 410.8 721.8 410.1C721.8 409.4 722.2 409 722.9 409H728.5C729.1 409 729.6 409.4 729.6 410.1C729.6 410.8 729 411.2 728.5 411.2ZM712.9 411.2H707.3C706.7 411.2 706.2 410.8 706.2 410.1C706.2 409.4 706.6 409 707.3 409H712.9C713.5 409 714 409.4 714 410.1C714 410.8 713.6 411.2 712.9 411.2ZM697.4 411.2H691.7C691.1 411.2 690.6 410.8 690.6 410.1C690.6 409.4 691 409 691.7 409H697.3C697.9 409 698.4 409.4 698.4 410.1C698.5 410.8 697.9 411.2 697.4 411.2ZM681.8 411.2H676.2C675.6 411.2 675.1 410.8 675.1 410.1C675.1 409.4 675.5 409 676.2 409H681.8C682.4 409 682.9 409.4 682.9 410.1C682.9 410.8 682.3 411.2 681.8 411.2Z" fill="#1EAEF7"/>
<path d="M772.4 414.1C771.8 414.1 771.3 413.7 771.3 413V411.3H769.6C769 411.3 768.5 410.9 768.5 410.2C768.5 409.5 768.9 409.1 769.6 409.1H772.4C773 409.1 773.5 409.5 773.5 410.2V413C773.5 413.6 773 414.1 772.4 414.1Z" fill="#1EAEF7"/>
<path d="M772.4 425.3H769.6C769 425.3 768.5 424.9 768.5 424.2C768.5 423.5 768.9 423.1 769.6 423.1H771.3V421.4C771.3 420.8 771.7 420.3 772.4 420.3C773.1 420.3 773.5 420.7 773.5 421.4V424.2C773.5 424.9 773 425.3 772.4 425.3Z" fill="#1EAEF7"/>
<path d="M760.3 425.3H755C754.4 425.3 753.9 424.9 753.9 424.2C753.9 423.5 754.3 423.1 755 423.1H760.3C760.9 423.1 761.4 423.5 761.4 424.2C761.4 424.9 760.9 425.3 760.3 425.3ZM745.7 425.3H740.4C739.8 425.3 739.3 424.9 739.3 424.2C739.3 423.5 739.7 423.1 740.4 423.1H745.7C746.3 423.1 746.8 423.5 746.8 424.2C746.8 424.9 746.2 425.3 745.7 425.3ZM731 425.3H725.7C725.1 425.3 724.6 424.9 724.6 424.2C724.6 423.5 725 423.1 725.7 423.1H731C731.6 423.1 732.1 423.5 732.1 424.2C732.1 424.9 731.6 425.3 731 425.3ZM716.4 425.3H711.1C710.5 425.3 710 424.9 710 424.2C710 423.5 710.4 423.1 711.1 423.1H716.4C717 423.1 717.5 423.5 717.5 424.2C717.5 424.9 716.9 425.3 716.4 425.3ZM701.7 425.3H696.4C695.8 425.3 695.3 424.9 695.3 424.2C695.3 423.5 695.7 423.1 696.4 423.1H701.7C702.3 423.1 702.8 423.5 702.8 424.2C702.9 424.9 702.3 425.3 701.7 425.3ZM687.1 425.3H681.8C681.2 425.3 680.7 424.9 680.7 424.2C680.7 423.5 681.1 423.1 681.8 423.1H687.1C687.7 423.1 688.2 423.5 688.2 424.2C688.2 424.9 687.7 425.3 687.1 425.3Z" fill="#1EAEF7"/>
<path d="M669.7 428.1C669.1 428.1 668.6 427.7 668.6 427V424.2C668.6 423.6 669 423.2 669.7 423.2H672.5C673.1 423.2 673.6 423.6 673.6 424.3C673.6 425 673.2 425.4 672.5 425.4H670.7V427.2C670.6 427.7 670.2 428.1 669.7 428.1Z" fill="#1EAEF7"/>
<path d="M672.3 439.8H669.5C669.2 439.8 668.9 439.7 668.8 439.5C668.7 439.3 668.5 439.1 668.5 438.8V436C668.5 435.4 668.9 435 669.6 435C670.2 435 670.6 435.4 670.6 436.1V437.8H672.3C672.9 437.8 673.4 438.2 673.4 438.9C673.5 439.7 673 439.8 672.3 439.8Z" fill="#1EAEF7"/>
<path d="M760.3 439.8H755C754.4 439.8 753.9 439.4 753.9 438.7C753.9 438 754.3 437.6 755 437.6H760.3C760.9 437.6 761.4 438 761.4 438.7C761.4 439.4 760.9 439.8 760.3 439.8ZM745.7 439.8H740.4C739.8 439.8 739.3 439.4 739.3 438.7C739.3 438 739.7 437.6 740.4 437.6H745.7C746.3 437.6 746.8 438 746.8 438.7C746.8 439.4 746.2 439.8 745.7 439.8ZM731 439.8H725.7C725.1 439.8 724.6 439.4 724.6 438.7C724.6 438 725 437.6 725.7 437.6H731C731.6 437.6 732.1 438 732.1 438.7C732.1 439.4 731.6 439.8 731 439.8ZM716.4 439.8H711.1C710.5 439.8 710 439.4 710 438.7C710 438 710.4 437.6 711.1 437.6H716.4C717 437.6 717.5 438 717.5 438.7C717.5 439.4 716.9 439.8 716.4 439.8ZM701.7 439.8H696.4C695.8 439.8 695.3 439.4 695.3 438.7C695.3 438 695.7 437.6 696.4 437.6H701.7C702.3 437.6 702.8 438 702.8 438.7C702.9 439.4 702.3 439.8 701.7 439.8ZM687.1 439.8H681.8C681.2 439.8 680.7 439.4 680.7 438.7C680.7 438 681.1 437.6 681.8 437.6H687.1C687.7 437.6 688.2 438 688.2 438.7C688.2 439.4 687.7 439.8 687.1 439.8Z" fill="#1EAEF7"/>
<path d="M772.4 442.6C771.8 442.6 771.3 442.2 771.3 441.5V439.8H769.6C769 439.8 768.5 439.4 768.5 438.7C768.5 438 768.9 437.6 769.6 437.6H772.4C772.7 437.6 773 437.7 773.1 437.9C773.2 438 773.4 438.3 773.4 438.6V441.4C773.5 442.2 773 442.6 772.4 442.6Z" fill="#1EAEF7"/>
<path d="M772.3 453.9H769.5C768.9 453.9 768.4 453.5 768.4 452.8C768.4 452.1 768.8 451.7 769.5 451.7H771.3V449.9C771.3 449.3 771.9 448.9 772.4 448.9C773 448.9 773.4 449.3 773.4 450V452.8C773.2 453.5 772.8 453.9 772.3 453.9Z" fill="#1EAEF7"/>
<path d="M760.1 453.9H754.8C754.2 453.9 753.7 453.5 753.7 452.8C753.7 452.1 754.1 451.7 754.8 451.7H760.1C760.7 451.7 761.2 452.1 761.2 452.8C761.2 453.5 760.7 453.9 760.1 453.9ZM745.5 453.9H740.2C739.6 453.9 739.1 453.5 739.1 452.8C739.1 452.1 739.5 451.7 740.2 451.7H745.5C746.1 451.7 746.6 452.1 746.6 452.8C746.6 453.5 746.1 453.9 745.5 453.9ZM730.9 453.9H725.6C725 453.9 724.5 453.5 724.5 452.8C724.5 452.1 724.9 451.7 725.6 451.7H730.9C731.5 451.7 732 452.1 732 452.8C732 453.5 731.4 453.9 730.9 453.9ZM716.4 453.9H711.1C710.5 453.9 710 453.5 710 452.8C710 452.1 710.4 451.7 711.1 451.7H716.4C717 451.7 717.5 452.1 717.5 452.8C717.5 453.5 716.9 453.9 716.4 453.9ZM687.1 453.9H681.8C681.2 453.9 680.7 453.5 680.7 452.8C680.7 452.1 681.1 451.7 681.8 451.7H687.1C687.7 451.7 688.2 452.1 688.2 452.8C688.2 453.5 687.7 453.9 687.1 453.9Z" fill="#1EAEF7"/>
<path d="M669.7 456.7C669.1 456.7 668.6 456.3 668.6 455.6V452.8C668.6 452.2 669 451.8 669.7 451.8H672.5C673.1 451.8 673.6 452.2 673.6 452.9C673.6 453.6 673.2 454 672.5 454H670.7V455.8C670.8 456.3 670.2 456.7 669.7 456.7Z" fill="#1EAEF7"/>
<path d="M672.3 468.4H669.5C669.2 468.4 668.9 468.3 668.8 468.1C668.7 467.9 668.5 467.7 668.5 467.4V464.6C668.5 464 668.9 463.6 669.6 463.6C670.2 463.6 670.6 464 670.6 464.7V466.4H672.3C672.9 466.4 673.4 466.8 673.4 467.5C673.5 468.2 672.9 468.4 672.3 468.4Z" fill="#1EAEF7"/>
<path d="M752.8 468.4H746.9C746.3 468.4 745.8 468 745.8 467.3C745.8 466.6 746.2 466.2 746.9 466.2H752.8C753.4 466.2 753.9 466.6 753.9 467.3C754 468 753.4 468.4 752.8 468.4ZM736.6 468.4H730.7C730.1 468.4 729.6 468 729.6 467.3C729.6 466.6 730 466.2 730.7 466.2H736.6C737.2 466.2 737.7 466.6 737.7 467.3C737.8 468 737.3 468.4 736.6 468.4ZM720.6 468.4H714.7C714.1 468.4 713.6 468 713.6 467.3C713.6 466.6 714 466.2 714.7 466.2H720.6C721.2 466.2 721.7 466.6 721.7 467.3C721.7 468 721.2 468.4 720.6 468.4ZM704.6 468.4H698.7C698.1 468.4 697.6 468 697.6 467.3C697.6 466.6 698 466.2 698.7 466.2H704.6C705.2 466.2 705.7 466.6 705.7 467.3C705.7 468 705.1 468.4 704.6 468.4ZM688.5 468.4H682.6C682 468.4 681.5 468 681.5 467.3C681.5 466.6 681.9 466.2 682.6 466.2H688.5C689.1 466.2 689.6 466.6 689.6 467.3C689.6 468 689.1 468.4 688.5 468.4Z" fill="#1EAEF7"/>
<path d="M782 468.4H779.2C778.6 468.4 778.1 468 778.1 467.3C778.1 466.6 778.5 466.2 779.2 466.2H782C782.6 466.2 783.1 466.6 783.1 467.3C783.1 468 782.5 468.4 782 468.4Z" fill="#1EAEF7"/>
<path d="M823.2 465.6C818.7 465.6 815.3 465 815 465C814.3 464.9 813.9 464.3 814 463.6C814.1 462.9 814.7 462.5 815.4 462.6C815.5 462.6 833 465.6 843.5 457.4C850.7 451.9 852.8 444.6 854.6 438.1C856.7 430.9 858.5 424 867.4 422.3C873.6 421.2 877.8 425.8 881.9 430.3C884.9 433.5 887.8 436.9 891.3 437.8C896.9 439.2 900.3 433.2 904.1 426.1C904.9 424.4 905.9 422.9 906.9 421.2C914.5 408.7 923.9 401.4 934.5 399.9C944.6 398.5 955.3 403 965.5 412.7C974.9 421.7 981 420.2 989.3 417.9C993.8 416.8 998.7 415.4 1005.2 415.4C1005.9 415.4 1006.3 416 1006.3 416.5C1006.3 417.1 1005.7 417.6 1005.2 417.6C999.1 417.6 994.2 418.9 990 420C981.3 422.4 974.2 424.2 963.8 414.2C954.2 405.1 944.2 400.8 934.8 402.1C925.1 403.4 916.1 410.4 908.9 422.2C907.9 423.7 907.1 425.4 906.1 427C902 434.5 898.1 441.6 890.6 439.8C886.4 438.7 883.1 435.2 879.9 431.6C876.1 427.4 872.6 423.4 867.7 424.3C860.4 425.7 858.7 431.3 856.7 438.4C854.7 445.2 852.6 452.9 844.7 458.9C838.4 464.4 829.5 465.6 823.2 465.6Z" fill="#1EAEF7"/>
<path d="M762.8 622.4L764.9 661.7C764.9 661.7 755.9 661.6 743.8 666.5C731.7 671.6 715.1 678.6 715.1 678.6L809.5 677.5L790.8 664.4L808.5 659.9L805.8 646L778.5 655.1L781.6 620.2C781.6 620.2 795.3 618.4 809.5 610.6C823.7 602.9 812 584 812 584C788.2 595.7 764.9 609.1 738.3 612.9C735.8 613.3 733.2 613.6 730.7 613.7C732.6 613.6 746.1 620.2 762.8 622.4Z" fill="#3F3161"/>
<path d="M637.7 614.3C637.7 614.3 630.9 624.6 619.5 623.4C608.1 622.3 594.3 616.6 588.7 628C583.1 639.4 605.2 649.7 618.7 649.8C632.2 649.9 623.1 655 628.4 660.5C633.7 666 643.3 663.2 650.6 654.7C657.4 647 667.2 635.6 667.2 635.6L637.7 614.3Z" fill="#3F3161"/>
<path d="M820.1 472C820.1 472 837 457.2 858.7 472C880.4 486.8 868.7 536.5 818 560.2L794.4 541.2L820.1 472Z" fill="white"/>
<path d="M725.8 593.4C725.8 593.4 715.1 605.1 729.2 613C743.4 621 786.5 617.8 810.7 598.1C821.1 589.7 814.4 580.4 811.1 572.5C806.9 562.2 803.5 554.3 803.5 554.3L725.8 593.4Z" fill="white"/>
<path d="M794.3 551.3C794.3 551.3 721.7 528.4 708.6 525C695.5 521.6 680 520.5 667.5 540.2C658.8 554.1 655.5 575.4 634.7 599.9C628.9 606.7 614.6 613.3 627.1 621.9C639.6 630.3 660 644.1 660 644.1L671.7 634V665.9H719.7C719.7 665.9 720.8 602.6 726 594.4C726 594.4 745.3 609.3 779.5 604.7C802.4 601.5 810.7 584.7 814.3 574.9C811.1 563.1 810.4 560.7 810.4 560.7L794.3 551.3Z" fill="#0062BA"/>
<path d="M750 527.4C745.8 524.2 741.6 520.8 737.3 517.5C735.5 516.1 733.2 515.4 731.2 514.3C729.1 513.2 729.8 514.9 727.8 513.5C721.6 512 717 508.4 712.6 508C705.3 507.4 699.5 508.7 695 511.5C694 512.1 691.3 515.2 690.6 516.4C690 517.4 689.8 518.5 689.9 519.6C690.3 523.5 693.8 523.4 696.5 524.1C698.5 524.7 700.4 524.8 702.3 525.4C704.6 526.1 706.5 527.4 708.5 528.8C711.5 531.1 714.4 533.6 718.1 534.6C723.4 536 729.5 533.9 734.3 536.6C736.1 537.6 737.5 539.1 738.9 540.7C740.3 542.2 741.7 543.8 743.5 544.8C746.6 546.5 749.3 545.1 752.1 543.7C753.8 542.9 754.9 541.3 755.1 539.2C755.4 535.5 753 531.9 751 529.1C750.7 528.3 750.4 527.9 750 527.4Z" fill="#3F3161"/>
<path d="M733.4 449.1C731.7 450.6 729.7 451.6 728.1 453.2C726.7 454.5 725.3 455.9 723.9 457.1C722.6 458.4 722.1 459.8 720 459.6C719 459.5 718.2 459.2 717.2 458.9C712.7 457.4 708.1 456.9 703.4 456.2C699.5 455.5 695.9 453.1 692.4 451C688.7 448.7 685.5 445.2 684 441.1C682.7 437.9 681.7 431.4 685.7 429.4C686.5 429 687.5 428.8 688.4 428.7C691.6 428.1 693.5 428.7 696.1 430.5C698.2 431.9 700.3 433.2 702.4 434.4C703.7 435.1 706.2 437.1 707.6 436.8C710.7 436.2 707.3 432.3 706.8 430.7C706.1 429.2 704.7 426.1 706.4 424.5C708.2 422.5 710.2 425.6 711.5 426.8C713.3 428.5 715.3 430.2 717.1 432C720.3 435.1 723.4 438.2 726.2 441.6C728.1 443.9 730.7 447.6 733.4 449.1Z" fill="#3F3161"/>
<path d="M806.3 397C804.8 397.3 803.3 398 802.1 398.8C801.4 399.2 800.8 399.6 800.1 399.9C799.4 400.2 798.6 400.5 797.8 400.7C797 401.1 796.1 401.7 795.4 402.2C794.3 403.2 793.3 404.3 792.7 405.7C792.4 406.4 792.3 407.1 792 407.8C791.7 408.5 791.3 409.1 790.7 409.6C789.9 410.4 788.9 410.6 787.7 410.9C786.4 411.2 785.3 411.6 784 411.7C781 412 779.1 413.2 779.8 416.5C780.1 417.8 780.6 419 780.8 420.3C781.2 423.8 774 436.2 780.7 443.5C782.5 445.6 788 449.4 788 455.3C781.8 459.7 780.1 475.8 781.5 476.1C782.8 476.5 805.6 480.7 805.6 480.7L819.1 464.7C819.1 464.7 817 462.2 815.7 458.4C814.4 454.9 813.9 450.1 815 445.3C817.3 435.3 828.8 415.2 828.8 415.2L822.3 407.7C820.9 406.7 819.6 405.6 818.2 404.6C816.2 403.1 814.1 401.5 812.1 400C810.7 399.3 808.6 396.7 806.3 397Z" fill="#3F3161"/>
<path d="M720.9 510.9C714.7 515.3 710.3 529.3 715 534.1C721.3 540.6 766.7 564.2 779.3 565.1C785.5 565.5 788.2 561.6 792.4 563.4C801.1 567.2 811.1 572.4 811.1 581.4C811.1 581.4 813.1 582.7 815.7 574.9C818.7 566 822.7 547.3 827.5 534.5C834.4 516.1 848.3 501.1 845.9 483.1C843.4 464.5 822.4 461.6 815.8 458.6C815.8 458.6 801.6 466.9 792.3 465.8C783 464.5 788.1 458.5 788.1 455.5C785.1 455.5 782.9 454.9 779.9 455.9C777.2 456.7 774.7 458.3 772.3 460C769.3 462.1 766.5 464.5 763.2 466.2C761.8 466.9 760.4 467.7 758.7 467.3C757 467 755.6 466 754.3 465C748.1 460.4 732.5 448.5 730.9 447C728.9 444.9 714.6 457.7 714.2 460.1C713.8 463.1 716.3 467.1 717.6 469.7C721 476.5 724.8 483.2 728.6 489.7C731 493.6 733.4 497.6 736.3 501.2C737.7 502.9 739.4 504.6 741.1 506.1C742.8 507.5 744.6 508.4 746.3 509.6C741.9 509.5 737.7 509.3 733.4 509.2C728.3 508.9 723.6 508.9 720.9 510.9Z" fill="#E23B53"/>
<path d="M834.7 414.5C834.4 413.5 834.1 412.4 834.8 411.7C835.2 411.1 835.9 411 836.6 410.7C838.3 410.1 839.8 409.2 841.1 408C842.5 406.7 843.1 405.5 843.6 403.6C844.6 400.5 844.6 397 843 394.3C841.3 391.2 837.8 389.2 834.3 389.5C830.8 389.6 827.5 392 826.1 395.3C823.4 391.6 818.8 389.5 814.1 390C811.7 390.3 809.3 391.1 806.9 391.3C803.1 391.4 798.9 388.8 795.2 389.5C791.7 390.2 789 393.3 789 398.1C789 401.1 791.8 408.1 791.8 408.1C791.8 408.1 793.3 405 793.9 404.3C795.4 401.9 798.1 400.6 801.1 402.5C802.8 403.5 803.6 405.5 803.8 407.4C804 409.3 803.4 411.2 802.8 413C802.2 414.8 801.7 416.7 801.5 418.6C801.5 419.4 801.5 420.4 801.9 421.1C802.3 421.9 803 422.5 803.9 422.6C804.6 422.6 805.3 422.3 805.6 421.6C806 420.8 806.6 420.1 807.6 419.6C809 418.9 810.8 419 812.1 420C813.5 421 812.8 423.7 812.4 425.1C811.4 428.8 809 431.2 807.8 434.5C806.4 438.2 806 442.2 806.7 446.2C807 447.7 807.4 449.4 808.4 450.7C809.4 452 810.8 453.1 812.5 453.1C814.8 453.2 816.6 451.7 818.3 450.3C821.5 447.5 824.9 444.7 828.2 441.9C829.6 440.6 831.4 439.5 832.4 437.8C833.4 436.1 834.2 434.3 834.8 432.3C836.6 426.7 836.6 420.5 834.9 414.8C834.7 414.6 834.7 414.5 834.7 414.5Z" fill="#1EAEF7"/>
<path d="M804.3 584.2V576.9L903.1 559.6L916 582.4L965.4 576.9L966.9 548.5L1145.2 517.4L1405.6 544.8C1391.2 551.7 1376.7 558.5 1362.4 565.3C1332.8 579.4 1303.3 593.4 1273.7 607.5C1262 613.1 1250.2 618.6 1238.5 624.2C1224.4 631 1213.9 643.3 1206.7 657.3C1206 658.7 1205.3 660.3 1204 661.4C1202.9 662.5 1201 663.2 1199.6 662.7C1198.3 662.3 1197.5 661.2 1196.8 660C1194.3 656.5 1190.9 648.9 1186.9 646.9C1185.6 646.3 1183.5 646.5 1182.1 646.2C1179.7 645.8 1177.5 645.5 1175.1 645.1C1168.5 644 1161.7 642.8 1155.1 641.9C1135.5 638.7 1115.8 635.4 1096.3 632.2C1071.5 628.1 1046.9 624 1022.1 620.1C996.1 615.9 970.2 611.5 944.1 607.3C920.7 603.5 897.4 599.7 874 595.8C857.1 593 840.4 590.3 823.5 587.5C817.3 586.3 810.8 585.2 804.3 584.2Z" fill="#CFF0FF"/>
<path d="M847.8 550C847.8 553 847.8 566.6 847.8 571.1C847.8 574.2 849.8 576.3 853.3 576.9C856.8 577.5 919.2 586.9 919.2 586.9L976.8 576.3V571.5C976.8 571.5 934.7 578.7 928.2 579.7C921.7 580.7 912.3 578.9 912.3 568.7C912.3 558.5 920.3 557.4 925.8 556.5C931.3 555.7 976.7 548.3 976.7 548.3L941.2 531.4C941.2 531.4 862 540 854.9 541C847.8 542 847.8 545.8 847.8 550Z" fill="#3F3161"/>
<path d="M964.1 548.2C964.1 548.2 953 562 953 580.9C953 599.8 966.5 595.8 985.7 595.8C1004.9 595.8 1010.6 592.8 1010.6 577.6C1010.6 562.4 996.5 539.9 996.5 539.9L964.1 548.2Z" fill="#1EAEF7"/>
<path d="M816.5 702.4L811 593L1176.5 647.5L1173.6 719L816.5 702.4Z" fill="#3F3161"/>
<path d="M804.3 584.2V687.4H832.8V600.8L966.2 625.2V694.7H993.6V628.4L1161 657.3V697.4H1189.4V647.4L804.3 584.2Z" fill="#6A6A6A"/>
<path d="M913.3 676.1C913.3 676.1 913.2 676.1 913.2 676.2C908.1 678.3 893.1 687.5 891 677.5C890.2 673.4 890 669.1 889.7 664.8C889.4 660.3 889.1 655.8 888.9 651.1C888.8 646.6 888.5 642 888.5 637.4C888.5 635.1 888.5 632.9 888.4 630.6C888.4 629.1 889 626.9 888.5 625.4C887.9 623 885.3 623.4 884 625.7C883.2 627.1 883.2 628.9 883 630.6C882.9 640.2 882.7 649.6 882.6 659.2C882.5 664.3 880.5 666.9 875.3 664.5C871.5 662.7 869 659 867.7 655.1C866.4 651.2 866.2 646.9 866 642.7C865.9 638.8 865.6 635 865.4 631C865.4 628 865.4 624.7 867.5 622.3C868.8 620.9 870.5 620 872.3 619.2C873.7 618.5 875.3 617.9 876.7 617.2C873.2 617.9 869.8 618.9 866.4 620C865.7 620.3 865 620.6 864.4 621C862 622.8 862.7 627.5 862.6 630.1C862.6 633.6 862.7 637.3 862.6 640.8C862.5 646.7 861.9 652.9 859.2 658.1C858.4 659.9 857.1 661.8 855.5 663C854 664.3 851.8 665.1 849.7 665C845.9 664.6 843.1 660.9 842.5 657.1C842.1 654.3 842.6 651.3 843.3 648.7C844 646.3 843.9 644.1 843.9 641.7C844 635.8 844.2 629.9 843.8 624C843.7 620.5 843.2 617.2 846.8 615.1C849.5 613.4 869.2 608.9 874.8 608.2C893.7 611.4 927.6 617.8 927.6 617.8C927.6 617.8 913.1 621.3 912.8 624.8C912.5 627.8 912.8 630.9 912.8 633.8C912.8 634.6 912.8 647 912.8 647H922.8C922.8 644.3 922.8 641.5 922.8 638.8C922.8 636.7 922.8 634.6 922.8 632.5C922.8 631 922.2 628.1 923.8 627.2C924.9 626.4 937.9 628.5 943.1 629C945.6 629.3 955.8 629.6 957.2 631C958.7 632.5 958 636.5 958 638.6C958 641.6 958 644.5 958 647.5C958 651.2 958 654.8 958 658.5C958 658.9 952.4 660.8 951.9 660.9C950.8 661.3 946.1 664 945.3 662.7C944.9 662.1 945 661.4 945.2 660.7C946.2 654.4 932.7 650.3 932.5 655.6C932.4 659.3 933.1 663.8 931.1 667C929.8 669.3 927.4 670.4 925 671.2C921.2 673.2 917.2 674.6 913.3 676.1Z" fill="#0062BA"/>
<path d="M1191.5 389.6H1004.7L996.8 399.6L1006.8 544.1L1202.3 511.2C1202.5 511.2 1204.2 428.6 1191.5 389.6Z" fill="#0062BA"/>
<path d="M1022.1 401.1L1180.4 397.4L1191.2 500.8L1030.5 524.3L1022.1 401.1Z" fill="white"/>
<path d="M1085.1 526.4C1083.8 529.2 1083 532.3 1082.4 535.3C1082 538.1 1082 540.6 1080.6 543.2C1079.6 545 1077.9 546.6 1076.1 547.7C1072.3 550.1 1068.1 551.4 1064 553.3C1061.7 554.4 1059.5 555.8 1057.7 557.7C1056 559.5 1055.3 561.1 1054.7 563.5C1057.7 565 1060.5 566.6 1063.4 568.1C1065.4 569.1 1067.3 570.2 1069.2 571.2C1069.6 571.3 1071.3 572.6 1071.7 572.5C1073.1 572.1 1074.7 571.7 1076.1 571.2C1083.1 569.1 1090.3 567 1097.4 564.9C1107.5 561.9 1117.5 559 1127.7 555.9C1137.6 552.9 1147.4 550 1157.3 547.2C1163.2 545.4 1169.4 544.2 1175 541.7C1176 541.3 1178 540.9 1177.8 539.4C1177.8 538.3 1176.4 537.4 1175.7 536.9C1174 535.8 1172.2 534.9 1170.4 534.2C1165.8 532.4 1160.7 531.9 1155.8 532.1C1136.9 532.5 1141 511.4 1141 511.4C1134.7 512.9 1128.2 514.6 1121.9 516.2C1111.6 518.7 1101.4 521.4 1091.2 523.9C1089.1 524.3 1086 524.4 1085.1 526.4Z" fill="#0062BA"/>
<path d="M1079.3 587.6V601.7L1153.5 616.6L1285.7 567.3V557.9L1229.9 541.8L1079.3 587.6Z" fill="#0062BA"/>
<path d="M1008.7 495.5C1010.8 496.2 1012.8 496.9 1014.9 497.6C1015.9 497.9 1017 498.2 1017.7 497.5C1018.1 497.1 1018.3 496.4 1018.4 495.7C1018.7 493.9 1019.7 492 1020.2 490.2C1021 486.7 1018.8 482 1015.1 481.2C1015.2 478.2 1012.4 475.6 1009.5 475.7C1008.5 475.7 1007.2 476.1 1006.4 475.7C1006.3 475.7 1006.1 475.6 1006 475.6C1004.9 474.9 1004.7 473.5 1004.3 472.2C1003.7 469.9 1002.2 467.8 999.9 467C997.8 466.2 995 466.7 993.6 468.5C989.1 467.4 991.8 474.4 987.4 474.4C986.3 474.4 985.1 473.8 984.2 473.4C983.6 473.3 983.1 473 982.5 473C982.1 473 981.2 473.3 981 473.1C980.3 472.8 979.9 471.6 979.2 471.1C978.4 470.5 977.1 470.5 976.5 471.4C976.4 471.7 976.2 472.1 975.9 472.4C975.2 472.8 974.5 472.1 973.9 471.6C970 467.4 964.5 471.3 962.8 475.7C962.1 477.4 962 479.2 961.1 480.8C960.3 482.3 958.7 483.9 956.9 483.5C956.2 483.4 955.6 483.1 954.9 483.2C954.5 483.3 954.1 483.8 953.6 483.9C952.5 484.5 951.1 483.6 949.9 482.9C948.5 481.9 946.8 481.1 945.1 481.2C943.4 481.3 941.6 482.7 941.9 484.4C942 485.7 943.2 486.7 943.3 487.9C943.7 490.4 940.6 491.8 938.7 493.5C935.7 496 935.2 501 937.4 504.1C934.6 505.4 931.6 506.8 929.7 509.3C928.6 510.7 927.9 512.5 928 514.4C928 515.4 928.3 516.1 928.7 516.9C929.1 518.2 929 518.2 928.4 519.4C926.6 523.2 926.3 527.7 927.6 531.6C929.6 537.5 935.3 542 941.5 542.9C940 544 938.7 545.9 938.3 547.7C940.4 546.6 942.8 546 945.2 546.2C945.5 548.3 946 550.4 946.7 552.4C946.6 551.8 950.1 550.4 950.4 550.4C952.1 549.8 953.8 549.4 955.6 550C957.1 550.6 958.4 551.5 959.8 552.3C961.2 553 962.9 553.6 964.4 553C966.7 552.3 968.3 550.2 970.6 549.2C972.3 548.5 975 548.8 976.1 547.2C976.8 546.4 976.8 545.2 976.8 544.2C977.1 536.6 978.1 529 980 521.7C981.4 516.1 983.5 510.4 987.3 506.2C991.9 501.1 998.4 499.4 1004.6 497.5C1007.7 496.5 1010.8 495.4 1013.5 493.4C1016 491.7 1019 490.9 1019.1 487.2C1019.1 486.4 1019 485.4 1018.7 484.5" fill="#0062BA"/>
<path d="M1035.3 528.2C1035.3 528.1 1035.4 527.9 1035.4 527.8C1036.5 524.6 1033.9 521.2 1035.8 518.2C1036.6 516.9 1037.9 515.8 1038.8 514.5C1039.6 513.2 1040.3 511.5 1039.8 510C1038.8 507.3 1035.3 507 1033.3 504.9C1030.2 501.7 1034.8 497.7 1031.6 494.9C1030.3 493.8 1028.2 493.8 1027.2 495C1026.8 493.6 1025.2 492.7 1023.7 492.7C1022.3 492.7 1020.9 493.4 1019.8 494.4C1019.2 495 1018.7 495.5 1017.8 495.5C1016.7 495.5 1015.8 494.2 1016 493.1C1016 492 1016.6 490.8 1016.8 489.7C1017.4 487 1015.7 484.1 1013.1 483.1C1010.6 482.1 1007.3 483.2 1005.9 485.6C1004.6 484.2 1002.8 483.3 1000.8 483.3C999 483.3 997 484.1 995.9 485.7C994.9 483.2 992.8 481.2 990.1 480.5C987 479.7 985.5 481.9 982.8 482.8C980.7 483.4 978.6 482.4 976.5 482.1C973.4 481.8 970.2 483.2 968.3 485.8C967.7 486.5 967.5 487.3 966.8 488.1C966.1 488.9 965 489.6 963.8 489.2C963 488.9 962.7 487.9 962 487.4C961.2 486.7 960.2 486.1 959 486.6C958.7 486.7 957 488.1 957.7 488.6C956.4 487.9 954.7 489 954.7 490.4C954.7 491.1 955.1 491.9 954.7 492.7C954.6 493 954.1 493.3 954 493.5C953.4 494.2 953.7 495.2 954.3 496C954.7 496.7 955.3 497.5 955.3 498.4C955.3 499.8 953.9 500.8 952.5 500.8C951.1 500.8 950 500.1 948.8 499.4C947.7 498.7 946.5 497.9 945.3 497.4C944 497.1 942.3 497.4 941.8 498.5C941 499.9 941.9 501.7 942.8 503.1C941.4 502.7 939.8 503.4 939.3 504.6C938.6 505.9 939 507.6 940 508.4C938.2 508.7 937 510.5 936.9 512.3C936.8 514 938.3 516.1 937.6 517.5C936.9 518.9 935.6 520 934.9 521.6C933.6 524.7 933.5 528.2 934.8 531.3C936.6 536.2 941.7 539.6 946.9 539.6C950.3 539.6 954.2 538.5 956.8 540.7C958.8 542.5 959.5 545.2 960.5 547.5C960.9 548.3 961.5 549.8 962.2 550.5C963 551.3 964.7 551.3 965.9 551.5C966.2 551.5 966.5 551.6 966.6 551.8C967 552.2 967 552.9 967.2 553.5C967.5 554.3 968.3 554.9 969.3 555C970.3 555.1 971.1 554.9 972.1 554.7C972.4 557.2 974.4 559.3 976.7 557.2C977.5 556.4 978.4 555.4 979.7 555.2C980.7 555.1 981.7 555.6 982.5 555.9C983.8 556.2 985.3 555.6 986.2 554.6C987 553.6 987.3 552.1 986.9 550.8C988 551.8 989.7 552.1 991.1 551.5C992.5 550.9 993.6 549.7 993.8 548.3C994.6 550.4 996.8 549.6 998.4 549.7C1000.7 549.8 1002.8 550.5 1004.9 551C1007.9 551.6 1011.1 551.6 1013.5 549.9C1016.7 547.6 1017.3 543 1019.8 539.9C1021.9 537.2 1025.3 535.7 1028.2 534.1C1031.2 533.3 1034.2 531.3 1035.3 528.2Z" fill="#3F3161"/>
<path d="M959.7 517.6C960.3 518.4 960.3 519.3 960 520.1C959.6 520.9 958.9 521.5 958 521.6C956.2 522.2 954.3 520.1 954.9 518.4C955.2 517.4 956.2 516.7 957.2 516.6C957.8 516.5 958.2 516.5 958.7 516.7C959 516.8 959.4 517.2 959.7 517.6Z" fill="#E23B53"/>
<path d="M974.1 536.8C974 536.5 973.8 536.4 973.8 536.1C973.7 535.7 973.5 535.1 973.7 534.7C973.8 533 975.5 532.3 976.9 532.7C977.9 533 979 534.1 978.9 535.2C978.8 535.9 978.3 536.5 977.9 536.9C977.2 537.5 976.5 537.6 975.6 537.6C975.2 537.6 974.6 537.5 974.2 537C974.2 536.9 974.2 536.9 974.1 536.8Z" fill="#E23B53"/>
<path d="M987.2 509.2C986.6 508.6 985.8 508.2 984.9 508.2C984.3 508.2 983.9 508.3 983.4 508.6C982.1 509.3 981.6 511.1 982.1 512.5C982.7 513.9 984.2 514.8 985.6 514.5C987.3 514.1 988.4 512 987.7 510.1C987.6 509.8 987.4 509.5 987.2 509.2Z" fill="#E23B53"/>
<path d="M1009 522.8C1009 522.7 1009 522.7 1008.9 522.5C1008.8 521.9 1008.3 521.4 1007.8 521.1C1007.2 520.8 1006.7 520.8 1006.1 521C1005.1 521.1 1004.1 521.7 1003.7 522.8C1003.1 524.2 1003.8 526.2 1005.1 526.7C1006.4 527.3 1007.8 526.6 1008.6 525.3C1009 524.7 1009.1 523.7 1009 522.8Z" fill="#E23B53"/>
<path d="M1007.1 497.4C1007.8 498.2 1008.1 499.2 1007.9 500.4C1007.9 501 1007.5 501.7 1007.1 502.1C1005.8 503.2 1003.6 503.1 1002.5 501.8C1001.4 500.5 1001.7 498.3 1002.9 497.3C1003.5 496.9 1004.3 496.5 1005 496.5C1005.9 496.2 1006.6 496.8 1007.1 497.4Z" fill="#E23B53"/>
<path d="M1015.6 572.4V584.2L1047.4 590.5L1076.4 579.1V571L1054.7 567.9L1015.6 572.4Z" fill="#1EAEF7"/>
<path d="M1264.1 557C1266.6 557.7 1267.2 562.6 1269 564.7C1271.3 567.2 1274.3 568.9 1277.7 569.2C1283 569.6 1288.1 566.9 1293.3 565.8C1297.4 565 1301.5 565 1305.5 565.7C1309.6 566.4 1313.4 568.5 1317.3 569.4C1319.8 569.8 1319.3 569.8 1319.8 567.3C1320.2 565.3 1320.6 563.5 1321.1 561.5C1321.4 559.8 1324.9 540 1325.6 540C1315.5 539.9 1304.9 538.5 1295.3 534.8C1292.6 533.8 1290 532.7 1287.1 532.5C1283.4 532.4 1279.9 533.9 1276.7 535.5C1269.1 539 1261.5 542.5 1254 546.3C1250.2 548.3 1246.4 550.2 1242.7 552.4C1240.2 553.8 1236.6 556.3 1239.7 559.6C1240.8 560.7 1242.5 561.1 1244.2 561C1245.7 560.9 1247.3 560.3 1248.8 559.9C1252 558.7 1260.1 555.9 1264.1 557Z" fill="#1EAEF7"/>
<path d="M1300.2 543.5C1300.2 543.8 1300.1 544.1 1300.1 544.3C1299.4 550.2 1299.5 556.3 1300.4 562.2C1301.1 567.8 1303.1 570.4 1308.4 571.2C1310.4 571.5 1311.9 572.3 1314 573C1318.1 574.4 1322.4 574.8 1326.7 575.8C1331.9 576.9 1337.1 577.9 1342.3 578.8C1353.1 580.6 1364.8 582.5 1374.8 578.1C1383.9 574.2 1390.3 565.9 1396.1 557.8C1398.1 555 1400 552.2 1401.2 549.1C1402.3 545.9 1402.6 542.2 1401.1 539.1C1399.1 535.3 1394.9 533.2 1390.7 532.8C1386.5 532.4 1382.3 533.2 1378.2 534.1C1367.8 536.1 1356.8 539.2 1346.1 538.5C1335.5 537.7 1326 535.5 1315.7 533.2C1312.5 532.4 1308.8 531.8 1305.7 533.3C1302.1 535.1 1300.7 539.5 1300.2 543.5Z" fill="#E23B53"/>
<path d="M1337.5 438C1337.4 438 1337.1 438 1336.9 438.3C1336.6 438.7 1336.8 441.4 1336.8 442C1336.5 443.5 1336.2 445 1335.8 446.5C1334.3 452.6 1331.9 458.3 1328.8 463.7C1327.7 465.7 1326.4 467.6 1326.7 469.9C1327 472.4 1329.2 474.3 1331.5 475.7C1333.6 477 1335.9 478.4 1337.6 480.3C1339.1 482.1 1339.4 484.8 1340.1 487.1C1340.9 490.1 1341.8 493 1342.6 495.8C1344.3 501.3 1346.5 509.3 1351.7 512.5C1358.9 517.1 1373 514.2 1374.2 516.9C1375.5 519.6 1381.2 551.5 1381.8 551.2C1382.4 550.9 1435.7 517 1435.7 517L1408.8 450C1402.7 449 1396.8 448 1390.8 447C1377.3 444.7 1363.8 442.5 1350.3 440.2C1346.6 439.6 1342.4 438.2 1338.6 438.2C1338 438.1 1337.7 438 1337.5 438Z" fill="#1EAEF7"/>
<path d="M1421.6 511.3C1411.3 511.7 1394.7 511.6 1389.2 499.5C1385.8 491.8 1388.1 484 1389.8 477.7C1391.5 470.9 1392.3 459.1 1381.9 459.4C1368.8 459.7 1380.4 479.2 1372.9 480.1C1365.4 480.9 1361.2 474.6 1360 461.9C1359.2 453.6 1348.5 450.8 1342.8 446.6C1338.7 443.5 1336 439.6 1334.9 434.6C1333.6 428.7 1334.1 422.5 1336 416.9C1336.4 415.5 1337 414.2 1337.7 413C1342.1 404.4 1350.1 397.9 1359.2 395C1368.3 392.1 1378.5 392.7 1387.5 396.3C1396.1 399.7 1403.1 405.2 1412.4 407C1421.3 408.7 1430.6 408.5 1439.3 410.8C1444.4 412.1 1449.4 414.3 1453.1 418.1C1456.5 421.6 1458.6 426.1 1459.9 430.8C1461.4 436.4 1461.7 442.3 1460.6 448C1459.5 453.7 1456.8 459.1 1452.6 463.2C1449.6 466.2 1446 468.3 1442.9 470.9C1440.1 473.4 1439.1 477.5 1436.7 480.6C1426.1 494.4 1433.2 510.7 1433.2 510.7C1433.2 510.7 1432 510.9 1421.6 511.3Z" fill="#3F3161"/>
<path d="M1080.9 531.6L1091.7 529.8C1091.7 529.8 1097.6 541.2 1090.6 547.3C1086.9 550.4 1082.4 552.6 1077.9 554.5C1074 556.2 1069.7 558 1067.5 561.8C1066.7 563.2 1066.2 564.8 1065.4 566.2C1065.3 566.5 1063.6 569.4 1063.4 569.4C1062.4 569.3 1061.3 569.1 1060.3 568.8C1058.8 568.5 1058 568.8 1056.5 569.1C1055.7 569.2 1047.2 568.4 1047.6 567.3C1049.7 562 1052.5 556.7 1057 553.2C1062.9 548.6 1078 545.7 1080.1 540.7C1081.9 536.8 1081.5 533.8 1080.9 531.6Z" fill="#3F3161"/>
<path d="M1015.6 572.4L1049.2 563.5C1049.2 563.5 1071.4 566.2 1079.3 564.6L1050.3 579.2L1015.6 572.4Z" fill="white"/>
<path d="M1079.3 587.6V601.7L1153.5 616.6C1153.5 614.8 1154.1 611.7 1153.4 610.1C1152.6 608.4 1149.6 608.3 1148.1 607.8C1145.7 607.1 1143.2 606.4 1140.8 605.7C1132.4 603.2 1123.9 600.8 1115.5 598.2C1107.2 595.8 1098.9 593.3 1090.7 590.9C1086.8 589.8 1083 588.7 1079.3 587.6Z" fill="#3F3161"/>
<path d="M1183.1 602.5C1179.7 600.7 1176.3 598.7 1173 596.9C1170.7 595.6 1168.5 594.4 1166.4 592.7C1165 591.7 1161.8 590 1163.2 588.1C1163.8 587.3 1164.9 586.8 1165.7 586.3C1176 581.7 1187.5 577.7 1197.9 573.6C1203.2 571.5 1208.6 569.5 1213.9 567.7C1216.6 566.7 1219.2 565.9 1221.9 564.9C1225.7 563.6 1228 563.5 1231.8 564.8C1235.2 565.9 1238.8 567.3 1241.8 569.3C1244.2 570.8 1246.9 572.4 1248.3 574.9C1249.4 576.7 1249.7 579.3 1248.4 581C1247.6 582.4 1245.9 583.1 1244.5 583.8C1234.2 588.4 1223.5 592.1 1212.8 595.3C1211.7 595.7 1210.3 596 1209.1 595.6C1207.6 594.9 1207.3 594.8 1205.6 595.3C1203.9 595.9 1202.1 596.4 1200.4 597C1197.4 598 1194.5 599 1191.5 599.8C1189.4 600.5 1187.4 601.2 1185.3 601.8C1184.8 601.9 1183.6 602.6 1183.1 602.5Z" fill="#3F3161"/>
<path d="M1249.2 615.5C1244.3 611.1 1238.4 607.6 1234 603C1224.7 593.3 1213 586.4 1199.4 585.1C1195.2 584.7 1191.1 585.2 1186.9 585.1C1182.1 585 1177.3 584.8 1172.7 585.8C1167.8 586.8 1166.2 594.5 1166.4 599C1167 609.8 1179.8 618.6 1188.2 623.9C1195.7 628.5 1204.1 630.1 1212.1 633.5C1215.2 634.8 1218.4 636.2 1221.8 636.3C1224.9 636.3 1228 635.3 1230.9 634C1238.4 630.8 1245.5 626.1 1250 619.4C1250.3 618.8 1250.7 618.3 1250.7 617.7C1250.5 616.7 1249.8 616 1249.2 615.5Z" fill="#1EAEF7"/>
<path d="M804.3 576.9V584.2L1189.4 653V646L804.3 576.9Z" fill="white"/>
<path d="M978.6 493.9C978.6 494.7 979 495.4 979.7 495.7C980.3 495.8 980.8 495.8 981.2 495.6C982.3 495 983.2 492.9 981.9 492.1C980.7 491 978.6 492.3 978.6 493.9Z" fill="#E23B53"/>
<path d="M1026.7 516.8C1028.1 518.2 1030.1 515.8 1028.8 514.4C1027.4 513 1025.3 515.4 1026.7 516.8Z" fill="#E23B53"/>
<path d="M997.3 540.6C997.2 541 997.2 541.4 997.4 541.7C997.7 542.1 998.1 542.4 998.5 542.5C999.3 542.6 1000.3 542.4 1000.8 541.7C1002.5 539.2 997.9 537.8 997.3 540.6Z" fill="#E23B53"/>
<path d="M1247 689.8C1244.3 683.9 1244.3 679.7 1238.3 676.3C1231.3 672.4 1223.5 669.4 1215.6 667.6C1212.1 666.8 1208.6 666.2 1205.3 664.6C1202.1 663.1 1199.1 660.5 1198.1 657.1C1196.7 652.6 1199.1 647.7 1201.6 643.7C1208.9 632 1218.8 621.7 1230.2 614C1233.6 611.6 1237.4 609.5 1241.5 609.2C1245.9 609.1 1249.8 611 1253.7 613C1263.7 618.2 1273.7 623.3 1283.7 628.5C1287.1 630.2 1290.7 632 1294.3 631.2C1298.2 630.4 1300.8 626.7 1303 623.5C1309.3 614.2 1315.5 604.9 1321.9 595.6C1327.4 587.6 1332.3 577.2 1340.1 571.3C1344.7 567.8 1349 563.8 1354.2 560.7C1364.2 554.6 1373.6 547.9 1383.5 541.7C1393.6 535.2 1403.9 529.3 1414.5 523.7C1422.4 519.5 1430.5 515.5 1439.1 513.1C1448.7 510.6 1460.6 509.6 1469.9 513.9C1474.8 516.2 1478.8 520.4 1482 524.6C1490.3 535.9 1495.2 549.5 1499.5 562.7C1503.2 574.4 1506.1 586.5 1508.4 598.6C1509 601.3 1509.4 604.1 1509.9 606.9L1370.4 708.1C1368.9 707.8 1367.4 707.7 1365.9 707.4C1343.4 704 1320.9 700.8 1298.3 697.4C1281.3 694.8 1264 691.3 1247 689.8Z" fill="#E23B53"/>
<path d="M1474.8 578.6C1474.8 578.6 1411.7 600.3 1395.8 636.2C1379.9 671.9 1376.9 680.8 1376.9 680.8L1481.2 677.4L1474.8 578.6Z" fill="#3F3161"/>
<path d="M843 657.4C844.3 659.5 846.5 661.3 849.1 662C852.5 662.8 856.1 661.7 858.5 659.2C858.8 658.9 858.9 658.6 859.2 658.4L843.3 648.4C842.6 651.5 841.4 654.6 843 657.4Z" fill="#3F3161"/>
<path d="M-16.2 120.9C-16.2 120.9 393.8 214.2 407.7 217.4C421.6 220.6 427.7 229.2 427.7 241.9C427.7 254.7 427.7 661.6 427.7 661.6L-22 657.2L-16.2 120.9Z" fill="white"/>
<path d="M110.1 401.1C112.5 400.7 114.2 398.7 116.3 397.6C118.6 396.3 121.4 396.1 123.9 396.2C125.7 396.2 127.6 396.3 129.1 397.2C130.6 398 132.1 399.5 132.3 401.3C132.6 403.1 131.3 405.1 129.5 405.2C127.7 405.5 126.1 404.1 124.4 403.5C121.2 402.5 117.9 404.9 115.4 407C112.9 409.3 109.6 411.5 106.4 410.7C104.6 410.3 103.4 408.9 101.9 408C99.9 407 98.9 407.6 97.3 407.3C95 407 94.2 406.5 94.6 403.6C95.9 394.5 105.3 402 110.1 401.1Z" fill="#CFF0FF"/>
<path d="M77.6 503.6C79.4 504.9 80.7 507.5 82.8 507.1C83.8 507 84.5 506.1 85.2 505.3C86.7 503.3 88.2 500.9 90.3 499.7C92.4 498.3 95.8 498.3 97.2 500.4C97.6 501 97.8 501.7 98.3 502.2C99.4 503.5 101.5 503.5 103.1 502.8C104.6 502.1 106.1 500.8 107.6 500.3C110.8 499 115.1 500.7 116.2 504C117.3 507.3 114.9 511.5 111.4 511.6C108.4 511.7 105.6 509.3 102.7 509.9C100.7 510.2 99.2 511.7 97.6 513C96 514.3 93.8 515.3 92.1 514.3C91.3 513.9 90.6 512.9 89.7 512.5C87.4 511.2 84.8 512.8 82.5 514.3C80.4 515.7 77.3 517 75.5 515.1C74.7 514.4 74.4 513.1 73.5 512.6C70.8 510.6 63.4 516.7 65.3 510.9C66.6 506.5 73.3 500.8 77.6 503.6Z" fill="#CFF0FF"/>
<path d="M47.7 532.1C48.8 531.7 50 531.5 51.1 532C53.5 532.8 54.8 535.9 57.3 535.7C59.8 535.4 60.7 531.6 63.2 531.5C65.7 531.2 67 534.7 69.5 535.6C71.9 536.3 74.1 534.5 76 532.8C77.8 531.3 80.6 529.7 82.6 531.3C83.2 531.9 83.6 532.6 84.3 533C87.4 535.1 91.3 528.8 94.4 530.7C95.9 531.7 95.7 534.1 94.5 535.3C93.2 536.6 91.4 537.1 89.7 537.4C87.4 537.8 85.3 538.2 83.1 538.5C82.5 538.6 81.8 538.6 81.3 538.4C80.9 538.1 80.6 537.8 80.3 537.6C78.9 536.3 76.6 537 75.1 538.2C73.6 539.3 72.3 540.9 70.5 541.3C68.8 541.7 66.8 540.9 65.9 539.5C65.5 538.9 65.3 538.2 64.8 537.8C63.3 536.4 60.9 537.5 59.5 539.1C58.1 540.5 56.4 542.3 54.4 542.1C51.9 541.8 50.5 538.4 47.9 538.3C46.4 538.2 44.9 539.4 43.7 540.4C40.7 542.7 38.6 541.9 40.5 538.7C41.8 535.5 44.6 533.1 47.7 532.1Z" fill="#CFF0FF"/>
<path d="M328.8 541C328.5 541.1 328.2 541.3 328.1 541.4C325.4 543.2 323.3 545.9 321.6 548.7C321 549.5 320.6 550.4 320.6 551.4C320.7 552.7 321.7 553.7 323 553.8C328.1 554.6 330.3 546.9 335.8 548C337.9 548.4 339.5 550.3 341.6 550.4C345.4 550.8 348.5 545.9 352.2 547C353.5 547.3 354.5 548.4 355.4 549.3C357.9 551.6 361.7 553.2 364.7 551.7C367 550.6 367.9 547.6 367.1 545.2C366.1 542.8 365 542.7 362.7 542.5C360.4 542.4 358.3 542.1 356.4 541C355.1 540.3 354 539.2 352.5 538.6C350.5 537.9 348.4 538.2 346.6 539.2C344.3 540.3 342.7 543 340.1 542.6C335.7 541.4 332.9 538.8 328.8 541Z" fill="#CFF0FF"/>
<path d="M352.7 559.2C353.8 558.4 355 557.7 356.4 557.7C359.2 557.7 360.9 560.8 363.6 561.5C368.7 562.9 372.7 555.7 378 556.4C381.8 557 384.1 561.6 388 562C390.1 562.3 392.2 561.2 394.1 560C395.9 558.9 398.2 557.9 400.3 558.5C402.4 559.1 403.8 562 402.3 563.4C401 564.7 399.1 564.1 397.2 564.2C393 564.5 389.9 569.1 385.8 568.8C382.3 568.5 379.7 564.9 376.2 564.6C371.1 564 367.2 570.5 362.1 570.1C358.6 569.7 355.8 566 352.2 566.9C349.8 567.5 346.3 571.5 346.4 567.5C346.5 564.2 350.6 560.7 352.7 559.2Z" fill="#CFF0FF"/>
<path d="M-3.90001 550.9C-4.70001 550.9 -5.3 550.3 -5.3 549.5C-5.3 548.7 -4.70001 548.1 -3.90001 548.1C27.5 548.1 33.1 525.6 37.2 509C28.3 511.3 18.1 510.5 6.7 507.2C6.3 507.1 5.9 506.6 5.7 506.2C5.6 505.8 5.69999 505.2 6.09999 504.8C6.19999 504.5 21 490.4 24.1 461.2C24.2 460.5 24.8 459.9 25.6 459.9C25.9 459.9 57 462.7 68.1 457.6C68.5 457.3 69.1 457.5 69.5 457.7C69.9 457.9 70.1 458.5 70.1 459C70.1 459.1 67.6 479.3 78.3 481.4C82.2 482.1 85.6 481.4 88.4 479C94.6 473.9 97.4 462.4 97.4 453.8V422.1C97.4 421.7 97.5 421.4 97.8 421.1C98.1 420.8 98.5 420.7 98.9 420.7C99.3 420.7 137 423.5 155.8 416.1C156.5 415.8 157.3 416.1 157.6 416.9C157.9 417.6 157.6 418.4 156.8 418.7C139.5 425.6 107.7 424 100.2 423.6V453.7C100.2 463.1 97.1 475.4 90.2 481C86.7 484 82.5 484.9 77.7 484C66.7 481.9 66.7 466.7 67.1 460.8C55.6 464.6 32.6 463.1 26.7 462.5C23.9 486.6 13.8 500.1 9.7 504.7C20.3 507.7 29.8 507.9 38 505.5C40 498.2 44.2 486.8 50.1 487.3C54.2 487.7 55.3 490 55.6 491.2C56.6 495.1 52.9 500.6 49 503.4C46.3 505.2 43.5 506.6 40.4 507.6C40.3 508 40.1 508.4 40.1 508.9C35.9 525.8 29.9 550.9 -3.90001 550.9ZM49.6 490.3C47.1 490.3 43.8 495.9 41.3 504.5C43.4 503.7 45.5 502.5 47.4 501.3C50.8 499 53.6 494.4 52.9 492.2C52.8 491.8 52.5 490.7 49.8 490.4C49.7 490.3 49.6 490.3 49.6 490.3Z" fill="#1EAEF7"/>
<path d="M386.8 453.2C386 453.2 385.3 453.2 384.4 453.2C369.3 452.5 355.7 445 349.9 434.6C343 436.9 337.1 440.2 331.3 443.5C320 449.8 310.5 455.2 299.1 449.1C280.9 439.4 282.2 417.3 282.2 416.3L285 416.4C285 416.7 283.9 437.7 300.3 446.5C310.3 451.8 318.9 447.1 329.7 440.9C335.2 437.8 341.4 434.3 348.4 431.9C337.3 407.7 344.3 391.8 344.6 391.2C344.9 390.6 345.3 390.4 345.9 390.4H389.5C390.3 390.4 390.9 391 390.9 391.8C390.9 410.2 400.3 424.7 400.5 424.9C400.8 425.3 400.8 425.9 400.5 426.3C400.2 426.7 399.8 427 399.2 427C382.5 427 367 429.1 352.2 433.5C357.5 442.9 370.1 449.5 384 450.2C400 450.9 413.8 443.7 421.6 430.6C423.3 427.8 424.8 424.8 426.4 421.6C433 408.8 440.5 394.2 457.8 394.2C470.7 394.2 478.3 404.1 485 412.9C490.6 420.2 496.3 427.1 503.7 427.1L504.1 430.1C495.2 430.1 488.6 422.5 482.7 414.6C476.1 406 469.3 397 457.8 397C442.3 397 435.6 410.1 428.9 422.9C427.4 426 425.7 429.1 424 432C416.6 445.6 403 453.2 386.8 453.2ZM347.2 393.2C345.9 396.7 342.1 410.9 351.4 431.1C365.9 426.7 381 424.5 397.1 424.3C394.4 419.7 388.8 407.8 388.4 393.2H347.2Z" fill="#1EAEF7"/>
<path d="M396.8 459.2C396.8 459.2 390 455.3 392.2 458.4C393.9 460.9 383.9 458.8 381.9 461.2C377.8 466.3 387 473.9 392.7 477.5L396.8 459.2Z" fill="#E23B53"/>
<path d="M392.1 458.4C392.1 458.4 364.7 501.9 356.1 511.9C356.1 511.9 371.4 531 418.3 532.3L445.2 519.2L447.6 475.7L445.2 461.6L392.1 458.4Z" fill="#CFF0FF"/>
<path d="M-6.90001 647.5C-4.90001 642 -7.5 593.3 20.7 580.5C20.7 580.5 21.1 580.8 21 581.2C20.7 584 19.9 596.1 35.5 597.8C53.2 599.8 69.6 588.2 72.5 605.8C75.5 623.4 29 652.7 29 652.7L-6.90001 647.5Z" fill="#E23B53"/>
<path d="M21.3 566.9C21.2 570.1 20.7 578.9 20.7 580.6C20.7 581.6 17.3 600 37.2 602.4C57.1 604.8 67.3 590.3 72.8 605.9L121.2 585.8V563.7C121.2 563.7 109.9 549.3 71.1 549.3C39 549.3 25.9 560.4 22.4 564.4C21.5 565.2 21.3 566.2 21.3 566.9Z" fill="#3F3161"/>
<path d="M18.7 657.7C18.7 657.7 24.8 634.9 27 630.8C31.9 622.4 39.7 618.1 44.3 616.2C48.9 614.3 181.7 556.3 181.7 556.3C181.7 556.3 274.2 584.2 327.5 580.5C370.7 577.5 392.1 586.4 404.9 596.1C417.6 605.8 425.7 624.2 434.3 624.2C448.2 624.1 431.8 601.7 436.7 585.9C441.3 571.1 472.7 555.2 504.4 559.7C508.3 560.3 513 565.2 513 565.2L571.7 663.4L18.7 657.7Z" fill="#1EAEF7"/>
<path d="M453.1 568.7C450.1 561.9 444.4 551.5 435.5 547.9C421.8 542.3 416.5 533.5 413.8 514.8C411.1 496.1 395.5 479.3 400.9 473.3C406.2 467.2 424.4 482.9 429.9 493.4C433.8 501 438.6 494.8 438.6 494.8C438.6 494.8 444.5 483.8 444.1 470.2L392.1 458.4C392.1 458.4 385.3 454.7 388.7 448.1C392.1 441.5 429.8 444.9 441.8 452.7C453.8 460.4 463.9 487.7 466.9 501.4C470.1 516.3 496 552.3 501.4 562.5C502.2 564 499.9 565.5 499.9 565.5L465.3 572.8C465.2 572.8 454.6 572.4 453.1 568.7Z" fill="#E23B53"/>
<path d="M290.2 375.9C290.2 375.9 301.7 395.2 314.1 401.4C326.5 407.6 331.8 405.2 332.4 412.5C333 419.7 322.5 428.7 322.4 438.5C322.1 448.4 324.2 487.8 319.6 495.6C315 503.4 277.1 546.4 277.1 546.4L217 422.5L290.2 375.9Z" fill="#E23B53"/>
<path d="M291.8 654.9C291.8 654.9 303.2 673.6 320.4 635.8C335 603.7 340.7 572.9 319.3 530.4C299.9 491.8 279.8 481.1 268.4 472.4C257 463.7 255.5 445.1 268.4 440.2C280.6 435.6 283.6 448.6 289.5 447C295.4 445.2 306.5 407.3 298.8 382.1C291.1 356.9 261.1 337.1 224.9 334C182.8 330.5 144.4 339.6 126 396.2C119.1 417.3 119.8 440.4 116.4 455.7C111.3 479.5 97.5 487.6 96.4 513.8C95.4 540.1 107.8 557.1 104.1 581.4C100.4 605.6 71.2 649 101.3 671.5C131.5 693.8 291.8 654.9 291.8 654.9Z" fill="#0062BA"/>
<path d="M55 435.3H11.4C10.7 435.3 10.1 434.9 10 434.2C9.9 433.6 10.1 432.9 10.7 432.7C11 432.6 35.5 419.6 37.7 391.7C37.7 391 38.4 390.4 39.1 390.4H78.2C78.9 390.4 79.5 390.8 79.6 391.5C79.6 391.8 85.9 419.1 55.5 435.1C55.5 435.2 55.3 435.3 55 435.3ZM16.3 432.5H54.6C79.8 419.1 78 398.3 77.1 393.2H40.5C38.3 414.5 23.7 427.3 16.3 432.5Z" fill="#1EAEF7"/>
<path d="M1041.1 506.2C1040.8 506.2 1040.4 506.1 1040.3 505.9C1040 505.6 1039.9 505.3 1039.7 504.9L1038.7 480.7C1038.7 480 1039.3 479.3 1040 479.3L1173.7 465.6L1171.7 452.4L1039.3 462.7C1038.9 462.7 1038.6 462.6 1038.3 462.4C1038 462.1 1037.9 461.8 1037.9 461.4L1036.6 437.3C1036.6 436.5 1037.2 435.9 1037.9 435.8L1169.8 428.5L1167.7 413.2L1023.9 416.4H1023.2L1023.1 413.6H1024.5L1169 410.4C1169.7 410.4 1170.3 411 1170.4 411.7L1172.9 429.9C1172.9 430.3 1172.9 430.7 1172.6 431C1172.3 431.3 1172 431.4 1171.6 431.6L1039.6 438.9L1040.7 460.2L1173 449.9C1173.7 449.9 1174.4 450.3 1174.5 451L1176.9 466.9C1176.9 467.3 1176.9 467.6 1176.6 468C1176.3 468.3 1176 468.6 1175.6 468.6L1041.8 482.3L1042.6 503.7L1189 485.5L1189.6 485.4L1189.9 488.2L1041.4 506.6C1041.2 506.2 1041.2 506.2 1041.1 506.2Z" fill="#1EAEF7"/>
</svg>
