<svg width="78" height="60" viewBox="0 0 78 60" fill="none" xmlns="http://www.w3.org/2000/svg">
    <path d="M0 0V60H78V0H0ZM74.4545 56.8235H3.54545V3.52941H74.4545V56.8235Z" fill="white"/>
    <path d="M3.54492 14.1172H74.454V17.6466H3.54492V14.1172ZM14.1813 24.7054H21.2722V28.2348H14.1813V24.7054ZM28.3631 24.7054H35.454V28.2348H28.3631V24.7054ZM42.5449 24.7054H49.6358V28.2348H42.5449V24.7054ZM56.7267 24.7054H63.8176V28.2348H56.7267V24.7054ZM14.1813 35.2937H21.2722V38.8231H14.1813V35.2937ZM28.3631 35.2937H35.454V38.8231H28.3631V35.2937ZM42.5449 35.2937H49.6358V38.8231H42.5449V35.2937ZM56.7267 35.2937H63.8176V38.8231H56.7267V35.2937ZM14.1813 45.8819H21.2722V49.4113H14.1813V45.8819ZM28.3631 45.8819H35.454V49.4113H28.3631V45.8819ZM42.5449 45.8819H49.6358V49.4113H42.5449V45.8819Z" fill="white"/>
</svg>