<?xml version="1.0" encoding="UTF-8" standalone="no"?>
<!-- Created with Inkscape (http://www.inkscape.org/) -->

<svg
   xmlns:dc="http://purl.org/dc/elements/1.1/"
   xmlns:cc="http://creativecommons.org/ns#"
   xmlns:rdf="http://www.w3.org/1999/02/22-rdf-syntax-ns#"
   xmlns:svg="http://www.w3.org/2000/svg"
   xmlns="http://www.w3.org/2000/svg"
   xmlns:sodipodi="http://sodipodi.sourceforge.net/DTD/sodipodi-0.dtd"
   xmlns:inkscape="http://www.inkscape.org/namespaces/inkscape"
   width="2620"
   height="580"
   viewBox="0 0 693.20832 153.45834"
   version="1.1"
   id="svg8"
   inkscape:version="0.92.2 (5c3e80d, 2017-08-06)"
   sodipodi:docname="drawing2.svg">
  <defs
     id="defs2" />
  <sodipodi:namedview
     id="base"
     pagecolor="#ffffff"
     bordercolor="#666666"
     borderopacity="1.0"
     inkscape:pageopacity="0.0"
     inkscape:pageshadow="2"
     inkscape:zoom="0.175"
     inkscape:cx="3173.1713"
     inkscape:cy="338.58915"
     inkscape:document-units="mm"
     inkscape:current-layer="g212"
     showgrid="false"
     units="px"
     inkscape:window-width="1920"
     inkscape:window-height="1017"
     inkscape:window-x="1912"
     inkscape:window-y="-8"
     inkscape:window-maximized="1"
     showguides="false" />
  <metadata
     id="metadata5">
    <rdf:RDF>
      <cc:Work
         rdf:about="">
        <dc:format>image/svg+xml</dc:format>
        <dc:type
           rdf:resource="http://purl.org/dc/dcmitype/StillImage" />
        <dc:title></dc:title>
      </cc:Work>
    </rdf:RDF>
  </metadata>
  <g
     inkscape:label="Layer 1"
     inkscape:groupmode="layer"
     id="layer1"
     transform="translate(0,-143.54165)">
    <g
       id="g212"
       transform="matrix(0.26458333,0,0,0.26458333,46.14523,74.028052)">
      <path
         id="path12"
         d="M -4162.0082,852.39558"
         class="st0"
         inkscape:connector-curvature="0"
         style="fill:none;stroke:#41a9df;stroke-width:3.85277748;stroke-miterlimit:10" />
      <rect
         id="rect14"
         height="307.02716"
         width="588.23743"
         class="st1"
         y="357.26801"
         x="-4335.0029"
         style="opacity:0.2;fill:#1eaef7;stroke-width:0.93219882" />
      <line
         id="line16"
         y2="664.29517"
         x2="-4335.0029"
         y1="664.29517"
         x1="-3746.7651"
         class="st2"
         style="fill:none;stroke:#41a9df;stroke-width:2.79659629;stroke-miterlimit:10" />
      <g
         id="g20"
         transform="matrix(0.93967648,0,0,0.92478061,-4562.5923,43.489999)">
        <path
           id="path18"
           d="m 605.8,757.1 v 64.8 h 0.1 119.7 c 4.9,0 8.9,4 8.9,8.9 v 0 c 0,4.9 -4,8.9 -8.9,8.9 H 532.7 487.3 384.8 c -4.9,0 -8.9,-4 -8.9,-8.9 v 0 c 0,-4.9 4,-8.9 8.9,-8.9 h 119.7 v -64.8"
           class="st3"
           inkscape:connector-curvature="0"
           style="fill:none;stroke:#1eaef7;stroke-width:3;stroke-miterlimit:10" />
      </g>
      <path
         id="path22"
         d="m -3993.6048,542.62049 h -120.5605 c -14.9408,0 -27.0627,-11.92966 -27.0627,-26.63368 v 0 c 0,-14.70401 12.1219,-26.63367 27.0627,-26.63367 h 120.5605 c 14.9409,0 27.0627,11.92966 27.0627,26.63367 v 0 c 0,14.70402 -12.1218,26.63368 -27.0627,26.63368 z"
         class="st4"
         inkscape:connector-curvature="0"
         style="fill:#1fb1e6;stroke-width:0.93219882" />
      <rect
         id="rect24"
         height="35.696529"
         width="182.1093"
         class="st5"
         y="516.79266"
         x="-4102.9966"
         style="fill:none;stroke-width:0.93219882" />
      <text
         id="text26"
         class="st6 st7 st8"
         style="font-size:19.79990196px;font-family:DIN-Bold;fill:#404041;stroke-width:0.93219888"
         x="-4086.3711"
         y="524.64746"
         transform="scale(1.0080216,0.99204224)">Send melding</text>
      <rect
         id="rect28"
         height="307.02716"
         width="588.23743"
         class="st1"
         y="356.22433"
         x="2695.7764"
         style="opacity:0.2;fill:#1eaef7;stroke-width:0.93219882" />
      <line
         id="line30"
         y2="661.86426"
         x2="2695.7764"
         y1="661.86426"
         x1="3284.0137"
         class="st3"
         style="fill:none;stroke:#1eaef7;stroke-width:2.79659629;stroke-miterlimit:10" />
      <line
         id="line32"
         y2="354.46729"
         x2="2695.7764"
         y1="354.46729"
         x1="3284.0137"
         class="st3"
         style="fill:none;stroke:#1eaef7;stroke-width:2.79659629;stroke-miterlimit:10" />
      <polyline
         id="polyline34"
         points="2813.3,633.7 3081.1,486.1 3127.3,519.2 3358.1,393.6 "
         class="st3"
         style="fill:none;stroke:#1eaef7;stroke-width:3;stroke-miterlimit:10"
         transform="matrix(0.93967648,0,0,0.92478061,73.8904,42.446276)" />
      <polyline
         id="polyline36"
         points="3326.3,384.2 3358.1,393.6 3348.7,425.4 "
         class="st3"
         style="fill:none;stroke:#1eaef7;stroke-width:3;stroke-miterlimit:10"
         transform="matrix(0.93967648,0,0,0.92478061,73.8904,42.446276)" />
      <path
         id="path38"
         d="m 3250.4668,741.39546 h -521.0506 c -18.5116,0 -33.5464,-14.79649 -33.5464,-33.01466 V 324.59684 c 0,-18.21818 15.0348,-33.01467 33.5464,-33.01467 h 521.0506 c 18.5117,0 33.5462,14.79649 33.5462,33.01467 v 383.69148 c 0,18.31065 -15.0345,33.10714 -33.5462,33.10714 z"
         class="st3"
         inkscape:connector-curvature="0"
         style="fill:none;stroke:#1eaef7;stroke-width:2.79659629;stroke-miterlimit:10" />
      <path
         id="path40"
         d="m 1232.4042,771.47725 h -222.7973 c -12.5917,0 -22.7402,-9.98763 -22.7402,-22.37969 V 342.28657 h 245.5375 z"
         class="st3"
         inkscape:connector-curvature="0"
         style="fill:none;stroke:#1eaef7;stroke-width:2.79659629;stroke-miterlimit:10" />
      <path
         id="path42"
         d="M 1232.3102,342.00914 H 986.7728 v 0 c 0,-26.35625 21.7064,-47.71868 48.4872,-47.71868 h 148.6569 c 26.7807,0 48.3933,21.36243 48.3933,47.71868 z"
         class="st3"
         inkscape:connector-curvature="0"
         style="fill:none;stroke:#1eaef7;stroke-width:2.79659629;stroke-miterlimit:10" />
      <path
         id="path44"
         d="m 1232.3102,771.19982 v 0 c 0,26.35625 -21.7065,47.71868 -48.4873,47.71868 h -148.6568"
         class="st3"
         inkscape:connector-curvature="0"
         style="fill:none;stroke:#1eaef7;stroke-width:2.79659629;stroke-miterlimit:10" />
      <path
         id="path46"
         d="M 986.7728,771.19982"
         class="st9"
         inkscape:connector-curvature="0"
         style="fill:none;stroke:#41a9df;stroke-width:2.61155486;stroke-miterlimit:10" />
      <path
         id="path48"
         d="m 1232.3102,771.19982 h -221.9516 c -13.3434,0 -24.2436,-10.63497 -24.2436,-23.85934 v -403.3893 h 246.1952 z"
         class="st1"
         inkscape:connector-curvature="0"
         style="opacity:0.2;fill:#1eaef7;stroke-width:0.93219882" />
      <rect
         id="rect50"
         height="45.129295"
         width="187.27753"
         class="st10"
         y="490.8988"
         x="1016.2788"
         style="fill:#ffffff;stroke:#1eaef7;stroke-width:2.79659629;stroke-miterlimit:10" />
      <rect
         id="rect52"
         height="101.81834"
         width="188.59306"
         class="st5"
         y="461.21335"
         x="1016.2788"
         style="fill:none;stroke-width:0.93219882" />
      <text
         id="text54"
         class="st11 st12 st13"
         style="font-size:16.77957916px;font-family:DIN-Regular;fill:#0e3050;stroke-width:0.93219888"
         x="1008.1401"
         y="476.86761"
         transform="scale(1.0080216,0.99204224)">Fødselsnummer</text>
      <rect
         id="rect56"
         height="45.129295"
         width="102.80061"
         class="st14"
         y="570.79987"
         x="1016.2788"
         style="fill:#1eaef7;stroke-width:0.93219882" />
      <rect
         id="rect58"
         height="30.332804"
         width="81.188049"
         class="st5"
         y="587.53833"
         x="1037.2339"
         style="fill:none;stroke-width:0.93219882" />
      <text
         id="text60"
         class="st11 st7 st13"
         style="font-size:16.77957916px;font-family:DIN-Bold;fill:#0e3050;stroke-width:0.93219888"
         x="1028.9287"
         y="604.19836"
         transform="scale(1.0080216,0.99204224)">Logg inn</text>
      <g
         id="g66"
         transform="matrix(0.93967648,0,0,0.92478061,-608.0462,43.767392)">
        <rect
           id="rect62"
           height="34.799999"
           width="200.7"
           class="st5"
           y="396.39999"
           x="1727.9"
           style="fill:none" />
        <text
           id="text64"
           class="st11 st7 st13"
           transform="translate(1727.8682,409.1694)"
           style="font-size:18px;font-family:DIN-Bold;fill:#0e3050">Elektronisk ID</text>
      </g>
      <path
         id="path68"
         d="m 678.0891,342.00914 v 0 h 245.5374 v 0 c 0,-26.35625 -21.7066,-47.71868 -48.4873,-47.71868 h -5178.3809 c -18.3237,0 -33.2646,14.61153 -33.2646,32.73724 v 384.43129 c 0,18.03323 14.8469,32.73724 33.2646,32.73724 h 235.3889 l 135.5954,-0.18496 h 151.3818 c 18.3237,0 33.2646,-14.61153 33.2646,-32.73723 l 0.8457,-354.00602 h -588.2375"
         class="st3"
         inkscape:connector-curvature="0"
         style="fill:none;stroke:#1eaef7;stroke-width:2.79659629;stroke-miterlimit:10"
         sodipodi:nodetypes="ccccsssssccsccc" />
      <path
         id="path70"
         d="M 1035.448,818.9185 H 726.4824 c -26.7807,0 -48.4873,-21.36243 -48.4873,-47.71868 v 0 H 813.4024 678.3709"
         class="st3"
         inkscape:connector-curvature="0"
         style="fill:none;stroke:#1eaef7;stroke-width:2.79659629;stroke-miterlimit:10" />
      <rect
         id="rect72"
         height="222.96461"
         width="210.8634"
         class="st1"
         y="392.87207"
         x="695.75488"
         style="opacity:0.2;fill:#1eaef7;stroke-width:0.93219882" />
      <rect
         id="rect74"
         height="145.28304"
         width="188.59306"
         class="st5"
         y="457.32928"
         x="707.50098"
         style="fill:none;stroke-width:0.93219882" />
      <text
         id="text86"
         x="701.87256"
         y="472.96951"
         transform="scale(1.0080216,0.99204224)"
         style="font-size:11.18638515px;stroke-width:0.93219888">
        <tspan
           id="tspan76"
           class="st6 st7 st13"
           y="472.96951"
           x="701.87256"
           style="font-size:16.77957916px;font-family:DIN-Bold;fill:#404041;stroke-width:0.93219888">Ny melding</tspan>
        <tspan
           id="tspan78"
           class="st6 st12 st13"
           y="507.27441"
           x="701.87256"
           style="font-size:16.77957916px;font-family:DIN-Regular;fill:#404041;stroke-width:0.93219888">Du har mottatt en viktig</tspan>
        <tspan
           id="tspan80"
           class="st6 st12 st13"
           y="532.44379"
           x="701.87256"
           style="font-size:16.77957916px;font-family:DIN-Regular;fill:#404041;stroke-width:0.93219888">melding om foretaket</tspan>
        <tspan
           id="tspan82"
           class="st6 st12 st13"
           y="557.61316"
           x="701.87256"
           style="font-size:16.77957916px;font-family:DIN-Regular;fill:#404041;stroke-width:0.93219888">ditt. Logg inn og les den</tspan>
        <tspan
           id="tspan84"
           class="st6 st12 st13"
           y="582.78259"
           x="701.87256"
           style="font-size:16.77957916px;font-family:DIN-Regular;fill:#404041;stroke-width:0.93219888">nå.</tspan>
      </text>
      <path
         id="path88"
         d="M 900.8864,771.19982 H 677.9951 V 342.00914 h 245.6314 v 406.90347 c 0,12.29958 -10.1486,22.28721 -22.7401,22.28721 z"
         class="st3"
         inkscape:connector-curvature="0"
         style="fill:none;stroke:#1eaef7;stroke-width:2.79659629;stroke-miterlimit:10" />
      <path
         id="path90"
         d="m 708.8164,414.60442 v 17.20092 h 26.217 v -17.20092 z m 14.5651,9.06284 c -0.8458,0.73984 -2.0674,0.73984 -2.913,0 l -7.7054,-6.93585 h 18.3237 z m -6.6718,-0.46238 -5.732,5.08629 V 418.0261 Z m 1.6915,1.47964 0.6577,0.55487 c 0.8458,0.73982 1.8794,1.10974 2.9131,1.10974 1.0336,0 2.0673,-0.36992 2.9128,-1.10974 l 0.6579,-0.55487 5.5441,4.99382 h -18.2297 z m 8.7389,-1.47964 5.7321,-5.08629 v 10.26506 z"
         class="st11"
         inkscape:connector-curvature="0"
         style="fill:#0e3050;stroke-width:0.93219882" />
      <g
         id="g122"
         transform="matrix(0.93967648,0,0,0.92478061,-608.0462,43.767392)">
        <path
           id="path120"
           d="m 1955.9266,786.6 c 0,28.5 20.0594,51.6 48.5594,51.6 h 1757.8712 192.9 c 4.9,0 8.9,-4 8.9,-8.9 v 0 c 0,-4.9 -4,-8.9 -8.9,-8.9 h -119.7 v -64.8"
           class="st3"
           inkscape:connector-curvature="0"
           style="fill:none;stroke:#1eaef7;stroke-width:3;stroke-miterlimit:10"
           sodipodi:nodetypes="cscsccscc" />
      </g>
    </g>
  </g>
  <style
     id="style10"
     type="text/css">
	.st0{fill:none;stroke:#41A9DF;stroke-width:4.133;stroke-miterlimit:10;}
	.st1{opacity:0.2;fill:#1EAEF7;}
	.st2{fill:none;stroke:#41A9DF;stroke-width:3;stroke-miterlimit:10;}
	.st3{fill:none;stroke:#1EAEF7;stroke-width:3;stroke-miterlimit:10;}
	.st4{fill:#1FB1E6;}
	.st5{fill:none;}
	.st6{fill:#404041;}
	.st7{font-family:'DIN-Bold';}
	.st8{font-size:21.24px;}
	.st9{fill:none;stroke:#41A9DF;stroke-width:2.8015;stroke-miterlimit:10;}
	.st10{fill:#FFFFFF;stroke:#1EAEF7;stroke-width:3;stroke-miterlimit:10;}
	.st11{fill:#0E3050;}
	.st12{font-family:'DIN-Regular';}
	.st13{font-size:18px;}
	.st14{fill:#1EAEF7;}
	.st15{fill:#FFFFFF;}
	.st16{opacity:0.2;fill:#41A9DF;}
</style>
</svg>
