<svg width="77" height="82" viewBox="0 0 77 82" version="1.1" xmlns="http://www.w3.org/2000/svg" xmlns:xlink="http://www.w3.org/1999/xlink">
<g id="Canvas" fill="none">
<g id="Layer 2">
<g id="Vector">
<path d="M 43.6713 59.6115L 66.0993 59.6115C 66.4783 59.617 66.8545 59.5465 67.2062 59.4044C 67.5579 59.2622 67.878 59.0511 68.1479 58.7833C 68.4178 58.5155 68.6321 58.1964 68.7783 57.8446C 68.9246 57.4927 68.9999 57.1151 68.9998 56.7337L 68.9998 53.4448C 69.0049 53.0057 68.8893 52.5737 68.6658 52.1964C 68.4423 51.8192 68.1197 51.5114 67.7334 51.307C 66.0433 50.3821 64.5674 49.107 63.4031 47.5659C 59.7263 43.4547 56.499 27.5446 55.2326 17.6779C 53.9253 9.08562 44.2024 7.19449 41.6287 6.8656C 41.2178 4.87391 40.9583 2.8536 40.8525 0.822228C 40.858 0.719618 40.8433 0.616922 40.8093 0.520025C 40.7753 0.423128 40.7227 0.333934 40.6544 0.257553C 40.5861 0.181173 40.5034 0.119107 40.4113 0.0749111C 40.3191 0.0307154 40.2191 0.0052588 40.1171 0L 26.6358 0C 26.4372 0.0208177 26.2542 0.117889 26.1248 0.271026C 25.9955 0.424164 25.9297 0.621582 25.9413 0.822228C 25.9112 2.88968 25.7199 4.95157 25.3694 6.98894C 22.5711 7.32978 19.9549 8.56339 17.9038 10.5091C 15.8528 12.4547 14.4747 15.0102 13.9716 17.8012C 12.46 27.668 9.23266 43.4136 5.80105 47.6892C 4.62707 49.2212 3.15323 50.4945 1.47069 51.4303C 1.0588 51.5879 0.700904 51.8618 0.440007 52.2192C 0.179111 52.5766 0.02632 53.0021 0 53.4448L 0 56.6104C 0 57.3736 0.301286 58.1056 0.837579 58.6453C 1.37387 59.185 2.10124 59.4882 2.85967 59.4882L 43.7122 59.4882L 43.6713 59.6115Z" stroke-width="6.94829" stroke-miterlimit="10" transform="translate(4 4)" stroke="#022F51"/>
</g>
<g id="Vector_2">
<path d="M 20.4262 0C 20.4262 2.72585 19.3502 5.34006 17.4349 7.26753C 15.5196 9.195 12.9218 10.2778 10.2131 10.2778C 7.50443 10.2778 4.90669 9.195 2.99135 7.26753C 1.07602 5.34006 2.90841e-07 2.72585 2.3376e-07 0" stroke-width="6.94829" stroke-miterlimit="10" transform="translate(26.2233 67.7222)" stroke="#022F51"/>
</g>
</g>
</g>
</svg>

