<?xml version="1.0" encoding="utf-8"?>
<!-- Generator: Adobe Illustrator 21.0.2, SVG Export Plug-In . SVG Version: 6.00 Build 0)  -->
<svg version="1.1" id="Layer_1" xmlns="http://www.w3.org/2000/svg" xmlns:xlink="http://www.w3.org/1999/xlink" x="0px" y="0px"
	 viewBox="0 0 46 28" style="enable-background:new 0 0 46 28;" xml:space="preserve">
<style type="text/css">
	.st0{fill:#0062BA;}
	.st1{fill:#FFFFFF;}
	.st2{fill:#E23B53;}
</style>
<g>
	<polygon class="st0" points="0,9 9,9 0,3.5 	"/>
	<polygon class="st0" points="18,0 5.8,0 18,7.4 	"/>
	<polygon class="st0" points="28,28 40.2,28 28,20.5 	"/>
	<polygon class="st0" points="46,19 37,19 46,24.5 	"/>
	<polygon class="st0" points="28,0 28,7.4 40.2,0 	"/>
	<polygon class="st0" points="46,9 46,3.5 37,9 	"/>
	<polygon class="st0" points="0,19 0,24.5 9,19 	"/>
	<polygon class="st0" points="18,28 18,20.5 5.8,28 	"/>
	<polygon class="st1" points="18,7.4 5.8,0 0,0 0,3.5 9,9 18,9 	"/>
	<polygon class="st1" points="46,24.4 37,19 28,19 28,20.5 40.2,28 46,28 	"/>
	<polygon class="st1" points="37,9 46,3.5 46,0 40.2,0 28,7.4 28,9 	"/>
	<polygon class="st1" points="9,19 0,24.4 0,28 5.8,28 18,20.5 18,19 	"/>
</g>
<rect y="11.5" class="st2" width="46" height="5"/>
<rect x="20.5" class="st2" width="5" height="28"/>
<polygon class="st2" points="0,0 0,2.2 11.4,9 14.9,9 "/>
<polygon class="st2" points="43,0 46,0 31.2,9 28,9 "/>
<polygon class="st2" points="46,28 46,25.8 34.5,19 31.1,19 "/>
<polygon class="st2" points="14.9,19 17.9,19 3.2,28 0,28 "/>
</svg>
