<svg width="26" height="24" viewBox="0 0 26 24" fill="none" xmlns="http://www.w3.org/2000/svg"><rect width="25.632" height="23.66" fill="black" fill-opacity="0"/><path d="M12.816 3.64L15.12 8.82L15.408 9.52L16.272 9.66L22.032 10.22L17.712 13.86L17.136 14.28L17.28 15.12L18.576 20.72L13.536 17.78L12.816 17.36L12.096 17.78L7.05599 20.72L8.35199 15.12L8.49599 14.28L7.92 13.86L3.6 10.22L9.36 9.66L10.224 9.52L10.512 8.82L12.816 3.64ZM12.816 0L9.21599 8.12L0 8.96L6.91199 14.7L4.89599 23.66L12.816 19.04L20.736 23.66L18.72 14.84L25.632 9.1L16.416 8.26L12.816 0Z" fill="#6A6A6A"/><path d="M15.1201 8.81989L12.8161 3.63989L10.5121 8.81989L10.2241 9.51989L9.3601 9.65989L3.6001 10.2199L7.9201 13.8599L8.49609 14.2799L8.35209 15.1199L7.05609 20.7199L12.0961 17.7799L12.8161 17.3599L13.5361 17.7799L18.5761 20.7199L17.2801 15.1199L17.1361 14.2799L17.7121 13.8599L22.0321 10.2199L16.2721 9.65989L15.4081 9.51989L15.1201 8.81989Z" fill="#FBF6BD"/></svg>
