<?xml version="1.0" encoding="utf-8"?>
<!-- Generator: Adobe Illustrator 20.1.0, SVG Export Plug-In . SVG Version: 6.00 Build 0)  -->
<svg version="1.1" xmlns="http://www.w3.org/2000/svg" xmlns:xlink="http://www.w3.org/1999/xlink" x="0px" y="0px"
	 viewBox="0 0 1024 467.2" style="enable-background:new 0 0 1024 467.2;" xml:space="preserve">
<style type="text/css">
	.st0{fill:#EFEFEF;}
	.st1{fill:#CFF0FF;}
	.st2{fill:#FFFFFF;}
	.st3{fill:#FFC41E;}
	.st4{fill:#6A6A6A;}
	.st5{fill:#0062BA;}
	.st6{fill:#00ADF3;}
	.st7{fill:#1EAEF7;}
</style>
<g id="bakke">
	<polygon class="st0" points="-32.2,238.5 -32.2,484.5 143.8,484.5 1026.4,484.5 1022.8,238.5 818.6,252.3 808.8,254.5 719.5,259 
		515.3,238.5 159.1,238.5 	"/>
	<path class="st1" d="M918.2,307.4c60.6,16.4,101.1,81.6,32.1,116.4c-22.4,11.3-64.4,18.1-59.2,22.5c8.2,7.1,95.6,16.9,150.7,22.1
		c0-28.1,16.5-99.3,16.5-139.8c-55.1-17.4-117.7-26.7-139.8-29.6C912.9,298.3,918.2,307.4,918.2,307.4z"/>
</g>
<g id="Layer_15">
	<rect class="st2" width="1020.8" height="256.6"/>
	<polygon class="st1" points="-29.3,-44.5 -29.3,207.6 46.7,207.6 1026.4,207.6 1026.4,-44.5 72.7,-44.5 	"/>
	<circle class="st3" cx="562.8" cy="113.7" r="42.2"/>
	<path class="st2" d="M-17.4,17.6c0,0-23.4-34.3,227.4,55.8c66,23.7,137.9,73.8,289.7,31.7c70.2-19.5,113.5-0.6,164,13.4
		c50.5,14.1,100.2-9.8,148.6-30c48.2-20.1,153.6-26,194.1,19.6s11.2,126.3,11.2,126.3L43.3,214.9L-21,228.2L-17.4,17.6z"/>
	<path class="st1" d="M615.1,273.1c-32.1-27,79.7-25,119.4-14.7c49.8,12.9,105.1,26.4,116.7,45.3c7.9,13-11.1,55-109.2,47.7
		c-17.9-1.3-35.1-25.6-51.4-42.1C661.6,280,632.5,287.6,615.1,273.1z"/>
	<path class="st4" d="M799.2,165c9-0.7,17.8-2.8,26.7-3.2c0-0.1,0.1-0.2,0.2-0.3c4-1.7,6.6-5.3,10.1-7.7c3-2.1,7-2.4,10.6-2.4
		c6.2,0,12.8,0.7,16.8,5.9c3.9,5,4.2,11.8,2.6,17.7c-1.8,7-6.4,12.9-11.8,17.6c-1.2,1-2.4,1.9-3.6,2.8l221.3,26.3l-18.3-113
		c0,0-59.8-34.6-124.4-34.6c-40.4,0-77.4,30.3-105.2,53c-16.7,13.6-28.2,24.3-58.2,24.3c-6,0,9.6,1,20.9,4.7c4.3,1.4,5.2,6.1,8.1,7
		c2.5,0.8,4.1,1.2,4.1,1.2L799.2,165z"/>
	<path class="st1" d="M835.9,193.6l13.4,1.6c1.4-1,2.8-2,4.1-3.1c5.3-4.4-7.1-39.6-13.2-39.1c-4,0.4-3.5,1.1-6.4,3.8
		c-2.1,1.9-4,3.8-6.5,5.1c0.2,0.3,0,0.8-0.4,0.8c-9.4,0.3-18.5,2.5-27.8,3.3l-0.6,23.1l0.1,12.3c0,0,4.7,1.8,30.3,1.8
		C842.5,203.1,835.9,193.6,835.9,193.6z"/>
	<path class="st4" d="M638.7,158.8l25.8,10.4l75.3-4.4l44.8-13.3c0,0,37.5,3.3-2,3.3c-76.6,0-67.2-32.5-97.3-22.3
		c-31,10.5-31.2-2.9-53.5-3.3c-10.7-0.2-24.7,7.2-34.1,13.8c-6.7,4.6-13.6,10.8-13.6,10.8l56.5,2.4"/>
	<path class="st2" d="M255.1,256.6c94.1,57.3,216.4,90.7,266,102.1c74.9,17.2,127.1,25.9,253.4,18.2c56.3-3.5,69.9-12.3,81.9-21.7
		c15.7-16.7,5.6-24.2,5.6-24.2l24.7-20.1c0,0-209.2,15.2-254.8,14.3c-45.6-0.9-118.9-6.6-182.5-12.8S255.1,256.6,255.1,256.6z"/>
	<path class="st1" d="M830.4,271.9c-6.6-6.9-12-10.7-16.3-12.7v2.3l-54.5-16.8l-9.1,0.5l-12.9-27.4c-8.4-2.5-19-9.6-36.6-18.4
		c-8.5-4.2-13.5,0.7-12.9-9c1-16.2-28.7,5.3-37.3,1.3c-13.9-6.5-20.5-15.1-25.7-16.2c-4.4-0.9-9.6-4.4-15.6-6.7
		c-17.5-7-45.7-13.1-69.1-19.4c-2.5-0.7-5.8-1.5-8.3-2.1c-142.6-30.9-260.7-1.4-339.4,25.3c0,0,0,0,0,0
		C132.1,189.7,44.7,215-8.7,221.6c-12.8,1.6-15.3,48.5-15.3,48.5l24.3,12.6c0,0,130.9-48,275.7-5.7c66.3,19.4,245,83.7,392.5,83.7
		c225.3,0,203.6-36.7,203.6-36.7S849.8,292.3,830.4,271.9z"/>
	<polyline class="st2" points="887.4,167.1 982,170 982,252.2 880,227.5 887.4,167.1 	"/>
	<path class="st5" d="M855.1,402.4c-0.2,3.7-3,6-9.7,6.5c-2.5,0.2-11.9,1.1-20.2,0.9c-2.9-0.1-5-0.9-7.3-1.4
		c-3.2-0.6-6.2-1.1-6.4-2.9c-0.5-4.2,4-5.7,10-6.9c7.1-1.5,7.8-2.7,11.6-3.7c6.2-1.6,15.6-5.3,20.2-3c1.3,0.6,1.8-0.2,1.8,1.7
		C855.3,396,855.1,401.7,855.1,402.4z"/>
	<path class="st4" d="M708.3,379.2c-17.8,0-32.3,14.4-32.3,32.3s14.4,32.3,32.3,32.3s32.3-14.4,32.3-32.3S726.1,379.2,708.3,379.2z
		 M708.3,434.4c-12.7,0-23-10.3-23-23c0-12.7,10.3-23,23-23c12.7,0,23,10.3,23,23C731.3,424.1,721,434.4,708.3,434.4z"/>
	<path class="st4" d="M810.2,374c-13.9-1.9-26.8,8.7-28.9,23.8c-2.1,15.1,7.4,28.9,21.3,30.9s26.8-8.7,28.9-23.8
		C833.6,389.8,824,376,810.2,374z M803.6,420.8c-9.9-1.4-16.7-11.2-15.2-22c1.5-10.8,10.7-18.4,20.6-17s16.7,11.2,15.2,22
		C822.7,414.6,813.5,422.2,803.6,420.8z"/>
	<path class="st3" d="M761.5,205.2c0,0-2.5-2.8-8.9-2.8c-4,0-8.1,0.1-10.6,1c-3.3,1.2-4.8,2.2-9.7,4.6c-6.1,3-4.4,0.5-4.4,0.5
		s11.1,3,17.3,12.3c2.5,3.9,3.1,6.7,3.1,6.7h18c0,0,14.1,0,15.7,0c1.6,0,3.1-0.4,4.1-1.1c2-1.2,5.1-3.2,6.3-4.1
		c4.3-3.3,1.9-9.7-3.9-9.7c-5.7,0-19.5-2.8-19.5-2.8"/>
	<line class="st4" x1="769.1" y1="209.8" x2="774.2" y2="208.6"/>
	<path class="st6" d="M810.4,192.3c3.5-1.5,1.5-3.7,4.4-7.3c1.8-2.3,8.3-10.7,12.9-11.1c6.3-2.9,6.3-4.8,10.2-8.1
		c2.3-1.9,3.8-0.7,3,0.7c-0.6,1,3.5,7.9,4.2,7.2c2-2,2.9-16.4,2.4-18c0,0,4.5-2,1.1-2.8c0,0-9.8,1.4-9-1.8c2.2-8.1-2.1-5.5-6.1-6.2
		c-3.5-0.6-5-3.9-5.1-7.5c-0.2-3.5-2.3-6-4.2-6.9c-1.5-0.7-6.8-2.4-9.2,2.9c-1.4,5.6-2.3,7.4-2.2,18.1c0.2,10.7-8.3,8.7-8.7,17.3
		c-0.4,6.4,0.2,21.3,0.2,21.3s2.8-0.1,4,0.5C809.8,191.4,809.2,192.8,810.4,192.3z"/>
	<path class="st0" d="M843.1,193.7c-0.2-0.3,0.1-2.4-11.7-2.7c-7.3,4.5-13.6,10.3-32.8,10.3l-26.5,9.2h0.1c0,0,8.4,1.7,18.5,2.5
		c13.7,2.1,27-2,33-0.6c12.3,2.9,11.8,6.4,22,16.5c0.7-0.5-5.7-12.6-5.2-13.1C844.3,212.2,848.2,199.4,843.1,193.7z"/>
	<path class="st0" d="M767.4,205.2l1.7,4.7l3,0.7c0,0,0-21,0-24.4c0-3.4,2.3-5.8,4.3-7.3c1.3-0.9,4.4-3.3,6.6-4.9
		c1.3-1,2.3-2.8,2.3-5.3c0-2.5,0.1-13.8,0.1-13.8l-19,20.3l-5,30.1"/>
	<path class="st3" d="M920.3,304.8c0,0,0,12.7-6.1,27.6c-6.1,14.9-6.1,25.4-6.1,25.4l21.9,55.8l-23.3,12.3c0,0-16.6-27.9-24.8-39.6
		c-10.4-15.1-14.9-33.3-12.6-44.4l-11.1,13.6l-3,39.3l-21.8,0.1l-2.4-49l35.3-41.1H920.3z"/>
	<circle class="st4" cx="772.7" cy="225.9" r="6.6"/>
	<path class="st1" d="M648.7,162.2c0,0,10.8-16,29.8-16.1c7.9,0,13.1,2.8,16.9,7.4c2.4,2.9,2.4,4.4,3.9,4.4c1.5,0,2.4-1.4,4.9-3.9
		c5.3-5.4,12.5-8.4,24.4-7.9c19,0.8,25.9,17,25.9,17l-48.7,17.6l-43.9-9L648.7,162.2z"/>
	<path class="st5" d="M932.1,135.1c-1.1,9.2-19.5,16.5-19.6,25.7l50-1.1l66.4-57.5l1.1-33.4c-16,0.3-23.3,17.7-29.7,23.9
		c-6.4,6.2-14.5,13.4-42.6,3.9c-6.7-2.3-12.1,12.3-19.6,13.8C934.7,118.2,933.1,126.8,932.1,135.1z"/>
	<path class="st5" d="M803.9,343c0,0,4,8.3,1.8,12.3c-1.6,2.8-16.2,13.7-20.4,19.2c-4.1,5.5-7.8,14.2-7.9,38.7c0,0-14,1.3-15.6,1.5
		s-2.3-0.9-2.6-3.1c-0.2-2.2-2.7-26.1-2.7-26.1l-6.6-3l-5-20.8l9.3-12.2l17.2-2.7L803.9,343z"/>
	<polygon class="st4" points="772.6,421.2 776.9,421.2 780.3,423.4 780.3,427.3 767.8,431 	"/>
	<path class="st3" d="M809.8,402.4c3.2,1.4,7.5,3.2,11.3,4.5c3.4,1.2,3.7,2.6,3.7,4.2c0,3.4,0,8.5,0,8.5l-5.7,0.2
		c0,0,1.4-6.9-1.5-9.4c-3-2.5-8.6-5.3-11.3-5.8c0,0-0.3-1.9,0.5-2.6C807.4,401.5,809.1,402.1,809.8,402.4z"/>
	
		<ellipse transform="matrix(0.2787 -0.9604 0.9604 0.2787 188.0889 1097.0065)" class="st5" cx="824.4" cy="423.3" rx="10.3" ry="9.2"/>
	<path class="st6" d="M805.2,263.3c9.4-0.1,11.4-12.4,11.4-12.4c-5.8,3.3-12.2,2.3-15,0.7c-4.3-2.5-3.3-8.4-7.7-11.3
		c-3.7-2.3-9.3-2.7-12.1-3.7c-5-1.7-1.8-9.5-9.6-13.2c-6.1-2.9-8.8,1.6-11.6,0.9c-3.7-1-0.7-5.7-5.2-6.8c-3.8-1-8.6,2.4-11.8-1.1
		c-1.3-1.4-3.6,1.9-5.8,1.2l10.6,31.9c0,0,6.2-4.8,11.4-3c4.5,1.6,10.4,3.8,18,4.3C782.7,258.5,799,263.4,805.2,263.3z"/>
	<path class="st6" d="M866,158.4c-6.3-3.5-14.9-9.3-13.7-17.6c1.2-8.4,11.4-3.9,14.7-8.5s2.3-7.7,8.6-11.5c6.3-3.8,7.9-5.7,9.2-9.1
		c1.2-3.3,4.4-12.4,15.2-8c10.8,4.4,11.3-4,16.8-7.5c5.3-3.4,12.3-1.7,16.4,6.8c0,0,8.2-11.5,23.3-6.6c11.8,3.8,15.6,18.3,6.6,26.4
		c-2.9,2.6-5.5,3-11.6,4.1c0,0,5,2.7,5.3,7.3c0.4,5.4-3,10.1-9.6,9.7c-9.9-0.6-16,0.9-20.2,4.6c-0.8,0.7-5.9,2.4-6,3.4
		c-1.1,5.5-2,9.1-2.7-1c-0.4-5-2.8-9.6-1.8-13.8c1-4.2,2.4-10.6-8-11c-10-0.4-7.9,8.5-5.9,12.4c2.6,5,6.1,7.9-6.5,7.9
		c-8.9,0-4.7,7.5-6.9,11C887,160.7,872.5,161.9,866,158.4z"/>
	<path class="st5" d="M764.6,284.7c0,0,2.2-1.8,2.6,0.9s2.2,12.8,2.2,12.8l12.8-9.7c0,0,2.8-2.2-3.6-9.9c-6.4-7.7-7-8.4-7-8.4
		L764.6,284.7z"/>
	<path class="st3" d="M691.2,345.7c0,0-6.3-1.5-7.9-11.5c0,0-9,0.1-6.5-9.7c2-8,11.3-6.8,13.2-1.9c0,0,8.2-5.4,15.4,0.7
		c0,0,3.9-6.3,9-1.2c4.2,4.2-0.9,9.7-4.5,9.2c0,0,1.5,4.4-0.3,8.9c0,0,10.3-0.1,11.5,3.8s-3.3,5.9-7.5,5.2c0,0,2.4,3.3,1.8,5.7
		l3.3,10.9l-0.5,11.6c0,0-13.9,2-14.2,2c-0.3,0-12.9-4.4-12.2-9.2c0.3-2.1-2.2-7.8,0.4-9.8c4.4-3.5,14.8-2.6,14.8-2.6h-16.9
		c0,0-2.4,3.3-6,6.2c-1.9,1.6-6.3,2.4-8.6,1.3c-2.9-1.5-3-5.8,2.4-11.2C683.9,348.1,691.2,345.7,691.2,345.7z"/>
	<path class="st5" d="M1003.2,278.8c0,0-35.6,6.6-36.7-10.9L952.6,257L871,241.8c0,0-28-2.2-18.6,4.7c13.8,10.1,91,48.9,174.1,41.4
		v-6.9L1003.2,278.8z"/>
	<path class="st6" d="M706.4,379.8l0.2-21.9c0,0-13.2,0-15.5,0c-2.3,0-2.9,0.7-2.9,8.3c0,7.6,0.1,8.8,2.7,9.7
		c1.8,0.6,6.8,2.6,9.5,3.6C702.4,380.1,704.1,381.1,706.4,379.8z M696.1,374.3c0,0-3.8-0.4-3.8-4.2c0-2.2,0-4,0-9.2l3.8,0
		L696.1,374.3z M703,376.9l-4-1.7l0.2-14.2h3.8V376.9z"/>
	<path class="st6" d="M540.5,149.3c4.2-4.2,10.5-8.6,21.7-5.8c7.2,1.7,11.3,10.2,19.9,7.8c16.6-4.7,14.3-13.6,34.6-12.5
		c13.3,0.8,17.2,13.7,24.1,17.4c3.6,1.9,8.9-1.4,17,4.2c8.1,5.6,6.2,6.7,13.3,6.2c9.6-0.7,19.2,3.5,22.9,10.8l-2.8,1.6
		c0,0-4.8-8.7-13.7-6.6c-8.8,2.1-12.4,13.8-12.4,13.8s-11.8-8.6-19.3,4.1C645.8,190.3,627.1,172.2,540.5,149.3z"/>
	<polygon class="st2" points="721.1,186.1 721.1,196.5 730.3,196.5 730.3,190.3 	"/>
	<path class="st6" d="M974.7,175.1l43.2-17.9l12.9,3.3l-5.6-66.4c0,0-24.8-1.2-27,25.3c-1,12.1-6.7,3.1-18.7,8.8
		c-12.1,5.7-14,16.7-14,16.7l48,6.9"/>
	<path class="st1" d="M883,259.1c0,0,35.8,12,77.4,19.7c28.6,5.2,59.3,10,66,9.1l1.2,22.7c0,0-78.6-3.8-122-19.6L883,259.1z"/>
	<path class="st6" d="M901.2,289.6c0,0-52.3,0.7,0.2,7.3c52.9,6.6,126.1,23.3,126.1,23.3s-0.5-3.2,0.1-9.6
		C989.2,306.8,930.7,297.2,901.2,289.6z"/>
	<path class="st4" d="M809,259.5l-27.5,23.6c0,0,2.1,3.7,0.6,5.6l15.1,2.6l24.4-16.8L809,259.5z"/>
	<path class="st4" d="M849.4,283.3c0,0-3.7,26.6-4.9,31.7s-13.9,24.6-13.9,24.6s-15.5,9.9-16.4,12.2c2.3,1.7,5.5,0.6,7.9-0.3
		c2.1-0.8,2.3-1.2,1,0.6c-4.6,6.5-7.6,9.9-11,12.1c2.4,2.4,5.1,0.4,14.4-2.6c4.2-1.3,6.7-1.6,9.4-6.7c2.8-5.3,2.7-7.9,6-11.4
		c6.6-6.8,18-20.4,18-20.4s9.6-23.3,10.1-34L849.4,283.3z"/>
	<path class="st4" d="M766.9,367c-6.4-0.1-11.2,9.5-11,11.7c0.2,2.2,0.9,8.9,1.3,12.8c0.4,3.9,5.5,7.9,12,3.8
		c3.9-2.5,5.2-9.7,5.2-9.7s5.6,1.7,6.1,1.2c0.5-0.6,0.8-3.2,0.8-3.2s-3.5-2.4-6.2-2.3C775.2,381.2,777.8,367.1,766.9,367z"/>
	<path class="st4" d="M742.9,290.9c0,0,0,1,1.2,1.5c1.1,0.5,2.1,0.7,2.5,1.7c0.4,1,0.8,2.9,1.1,3.9c0.3,1,0.9,1.6,2.6,0.8
		c1.7-0.8,1.5,0.7,3.7,1.9c1.6,0.9,5.1,2,8.9-1.1c0,0,0.6,1,1.3,2c0.7,1,6.5,1.3,9.3-6.3l-4,3c0,0-1.2-7-1.7-10.1
		c-0.5-3-0.2-5.6-3.3-3.2S742.9,290.9,742.9,290.9z"/>
	<path class="st4" d="M751.9,309.4l-10.7,6.7l-14.7,5.3h-5.3c0,0-4,1.5-4.8,7.4c0,0,2.1-3.9,4.8-2.1c1.4,0.9,0,4.4,0,4.4
		s0.1,2.1,2.4,0s2.8-3.7,7.5-4.6c4.7-0.8,17-3.2,17-3.2l12-7.6L751.9,309.4z"/>
	<path class="st4" d="M770.2,312.2l-11.3,11.8l-2.9,2.8c0,0-13.9,2.6-17.2,4.7c-3.3,2.1-8.8,6.1-7.9,13.2l5.7,0.4
		c0,0,2.6-7.5,5.9-7.8c3.3-0.3,16-0.9,16-0.9l9.4-3.8l9.8-8.4c0,0,3.8-4.8,0.6-8.9S770.2,312.2,770.2,312.2z"/>
	<path class="st4" d="M823.1,416.8c0,0-5.3,3-4.2,8.9c0.9,5,6.5,5.1,6.5,5.1s-4.3-3.1-4.6-6.7S823.1,416.8,823.1,416.8z"/>
	<path class="st5" d="M706.6,357.8l0,3.3l4.3,0l-0.3,15.8l-4.2,0.5l0,2.3c0,0-0.8,0.6-2.4,0.7c3.2,0.2,9.8-0.8,9.8-0.8l13.9-1.8
		c0,0,0.5-17.8,0.5-18.8s-0.4-1.7-1.4-1.7C726,357.3,706.6,357.8,706.6,357.8z M717,376.3l-3.3,0.4l0.2-15.7l2.9-0.1L717,376.3z
		 M723.5,375.4l-3.3,0.7v-15.4h3.3V375.4z"/>
	<path class="st5" d="M931.2,186.2l-0.2,30.2l0.5-0.2l1.1,0.4l30.3,3.4v-32L931.2,186.2z M960.6,218.3l-27.1-2.1l-0.3-0.9l0.6-26.5
		l26.7,1.6L960.6,218.3z"/>
	<path class="st5" d="M896.5,183.3l-0.2,28.6l-0.4,2.8l0-2.8l29.4,3.9l0.6-30L896.5,183.3z M923,214.4l-24.6-3.1l0,1.2l0.3-26.7
		l24.6,2L923,214.4z"/>
	<ellipse class="st4" cx="692.9" cy="334.7" rx="1.5" ry="1.7"/>
	
		<ellipse transform="matrix(0.9132 -0.4075 0.4075 0.9132 -74.7642 315.2421)" class="st4" cx="702.7" cy="333.1" rx="1.2" ry="1.5"/>
	<path class="st4" d="M697.9,335.2c-1.5,0.6-1.6,1.8-0.5,1.5c0,0,0.3,1.9,1.7,1.4c1.5-0.5,0.2-2.2,0.2-2.2S701,333.9,697.9,335.2z"
		/>
	<path class="st5" d="M1028.7,155c-3.6-1.6-7.3-2.8-10.9-3.9c-1.1-0.3-4.3,1.2-5.5,1.2l-39.6,23.6c0,0,1,0.9,2.6,2.2
		c1.5-0.2,4.1-0.9,7.3-2.2l35.4-18.8l12.9,3.3l-0.4-4.2C1029.2,155.9,1029.6,155.4,1028.7,155z"/>
	<path class="st1" d="M853.9,108.8c-4.2-0.5-4.5,3.8-10.6,7.6c-6.1,3.7-4.1,7.2-0.9,8.4c3.2,1.2-0.7,4-6.6,6.5s-7.1,10.7-0.3,11.5
		c6.1,0.7,0.3,1.4-2.5,5.2c-2.1,3-0.6,8.1,8.1,6.8c9.1-1.5,10.7,5.2,11.7,8.4s-3.1,17.3,6.5,15.7l13.6,18l14.5-0.8l0-27.3
		c0,0,34.1-10.6,33.3-11.5c-2.1-2.3,3.3-6,6.4-8.8c0.1-0.8,0.2-1.6,0.4-2.6c0.3-2.8-3.7-4.4-6-5.4s-2.7-4,0.1-4.6
		c2.8-0.6,5-3.5-1.2-7.8c-6.2-4.3-9-10.2-11.3-10.5s-2.1,3.9-7,7.1s-8.1,5.2-7.2,7.3c0.9,2.1,6.1,2.4,2.4,5.7
		c-3.7,3.4-9.3,6.1-8.1,10.8c1.2,4.7-4.7,8.6-10,7.9c-5.3-0.7-8.9-4.9-4.2-4.6c2.2,0.2,3.1-1.1,3.4-2c0.6-2.2-2.3-3.4-5-5.2
		c-5-3.2-5.4-6.9-9.7-3.3c-4.3,3.7-8.1,5.5-8.1,5.5s-3.4-8.4,5.2-11.4c8.6-3,10.6-3.8,14.7-11.5c3.2-6,6.8-2.9,9.3-12.2
		c0,0-1.2,3.9-7.2,5.2c-6.9,1.5-7.7,8.2-10.9,10.2c-3.1,2.1-6.9-0.2-4.7-1.8c1.4-1,3.3-2.4,3.3-4.1c0-1.3-0.6-2.5-2.7-4.1
		C856.3,112.2,856.2,109.1,853.9,108.8z"/>
	<path class="st5" d="M853.5,188.3c0.3-0.5,4.8-0.2,2.7-6.6c-1.1-3.6-0.9-6.3,1.9-8c7-4.2,8.2-12.2,13.9-12.2c3.7,0,3.6,6.3,11.4,13
		c3.1,2.7,3.1,6.9-0.5,11.2c-0.8,0.9-2.8,3.8-2.3,6.2c0.9,4,6.7,2.7,6.7,2.7l0,17.8c0,0-1.8,1.9-8.3,1.8c-8.5-0.2-14.7,4.3-14.7,4.3
		s2.7-10.9-1.8-12.1c-5.4-1.5-10.2,2-12.7,8.9c0,0-1.3-11.6,3.9-15.9C859,195,851.9,191.5,853.5,188.3z"/>
	<path class="st3" d="M928.8,216.7c0,0,0.4-2.2,2.2-2c5.1,0.5,31.8,3,31.8,3s1.7,0.2,1.5,2.6L928.8,216.7z"/>
	<path class="st3" d="M891.9,211.7c0,0-1-1.6,1.9-1.3c4.9,0.5,31.4,3.5,31.4,3.5s1.3,0.2,1.3,2.5L891.9,211.7z"/>
	<path class="st2" d="M733.9,214.4c4.2,0,9.8,0,9.8,0s-0.6-1.8,0-3.9c0.5-1.7,1.4-3.6,1.4-3.6S734.1,209.7,733.9,214.4z"/>
	<path class="st5" d="M702.8,175.6h63.7c0,0,16.8-17.9,18.7-19.4c3.1,1.9,13.1,12.5,13.1,11.8c0-2.4,3.5-1.2-0.1-4.6
		c-2.5-2.3-12.3-12-13.5-12c-3,0-42.4-0.6-52-0.7c-1.3,0-2.6,0.4-3.6,1c-6.1,4.1-28.2,18.8-30.6,20.5
		C695.6,174.1,691.9,175.6,702.8,175.6z"/>
	<path class="st1" d="M804.1,168.3c0,1.3,1.2,4.4,3.7,4.4c2.7,0,3.8-1.2,4-3.9c0.6-8.3,12.6-8.9,12.6-8.9s-8.4-0.6-9.2-7.5
		c-0.5-3.9,1.6-7.3,5.6-10.2c3.6-2.6,4.5-4.7,4.2-7.3c-0.5-5.4-7.4-6.8-9.7-1.9c-1.8,3.8-2.1,2.8-6.4,3.2c-7.4,0.8-7,8.7-2.4,11.5
		c-10.1-0.1-12.7,8.3-8.5,13C798.9,161.7,804.1,164,804.1,168.3z"/>
	<path class="st2" d="M750.8,308.4l10.3-7.7l1.6-1.1c0,0,0.3,0.4,0.9,1.4c0.5,0.8,2.3,1.6,4.6,0.5c2-0.9,4.2-4,5-6.2
		c3-2.3,7.5-0.3,7.5-0.3l10.4,6.2c0,0,12.8,38.2,13.2,39.4c0.4,1.2-0.2,2.3-1.3,2.6c-1.2,0.2-34.9,7-34.9,7s-3.3-6.8-4.2-16.1
		c0,0,6.9-2.3,14.1-11.5c3.4-4.3-5-14-9.3-9c-2.7,3.1-5.6,5.9-7.5,7.8c-1.5,1.4,0.3,2.4,0.3,2.4s-0.6-6.2-2.6-5.7
		c-0.7,0.2-1,0.4-1.4,0.3c-0.9-0.1-3.1-3-4.5-4.7C751.5,311.8,750.1,308.9,750.8,308.4z"/>
	<path class="st4" d="M750.6,355c0.6-1.7,3.5-5.4,3.5-5.4c0,0,0-0.7-1.1-0.7c-2.5-0.1-6.9,0.8-9.7,6.8c-3.4,7.2-0.5,10.6-0.5,10.6
		l3.9-0.2c0,0,1-5,2.4-7.6c1.8,1.4,7.4,6.9,7.4,6.9l2.7-0.2C758.1,363.4,751.7,357.1,750.6,355z"/>
	<path class="st2" d="M761.8,214.4c-6.6,0-12.2,0-15.1,0s0.5-7.5,0.5-7.5h11.5C758.7,206.9,767.8,214.4,761.8,214.4z"/>
	<path class="st2" d="M760.3,206.3l6.8,6.2l5-1.9c0,0-6.6-3.4-10.7-5.3C761.2,205.4,760.6,206.1,760.3,206.3z"/>
	<path class="st6" d="M846.7,155.1c0,0,2.7,0.8,4.5,3.6c0.6,0.9,1,2,1.3,3.3c1,4.5,5.5,5.1,5.5,7.5c0,1.3-0.8,2.3-2.1,3.4
		c-1.9,1.6-3.1,2.7-0.5,4.3c3,1.8,5.6,1.9,6.6,2.8c1,0.9,1.8,3.5-1.4,4.7c-2.6,1-3.4,1.5-2.6,2.6c0.8,1.1,5.3,1.6,6.1,5.2
		c0.9,3.9-0.8,7.2-5.3,9.4c0,0-3.9-5.7-10.2-4.8c-6.3,0.9-14.1,7.1-18.2,2.5c-2.8-3.1-2-7.7,2.7-9.4c1.4-0.5,3.6-1.2,3.7-2
		c0.2-1.1-2-2.3-2.6-2.7c-3.1-2-2.3-4.4-1.2-5.3c1.5-1.1,4.6-2.3,7-4.6c1.7-1.6-0.2-2.5-1.3-3.5c-1.4-1.3-1.3-3,0.6-4.4
		c0.8-0.6,2.2-1.6,3-2.7c1.6-2.1,2.8-4.8,2-5.6C843.2,158,846.7,155.1,846.7,155.1z"/>
	<path class="st6" d="M868.4,248.3c0,0,19.8,12.8,27.4,10.7s17.3-2.5,25.8,3c3.9,2.5,7.1,5.6,12.9,3.2c0,0,5.8,4.4,11.9,3.7
		c7.1-0.8,9.6-0.9,15.3,3.5l-14.5-34.3l-17.4-10.5l-49-7.6l-31.9-3.2l-12,11.8l-1.4,17.7L868.4,248.3z"/>
	<path class="st1" d="M829.8,192.7c0,0-3.5,5.2-1.4,12c4,12.7,14,15.8,13.1,28.4c0,0,3-8.8,10.7-10.7c4.9-1.2,7.5,2.3,11.2,4.5
		c4.5,2.7,10.3-1.8,12.3-3.2s3.6,1.4,7.8,3.2c4.2,1.8,10.2,2.1,13.8-1c0,0-0.4,4.4,5.3,6.4c5.7,2,11.9-2.8,17.2,0.9
		c3.3,2.3,3.5,4.5,3.5,4.5s4-5.6,10.1-2.8c5.7,2.6,4.8,6.9,2.7,11.3c-1.9,3.9-0.5,10.3,8.1,12.9c8.7,2.6,12.2,5.6,15.1,10.2
		c3.5,5.7,9.2,9.8,17.8,9.5c0,0,5.8-39-9.9-47.9c-5.8-3.3-10.9-2.3-15.1-1.3c-4.8,1.2-7.9,1.3-11.8-3.5c-2.9-3.5-9.2-5.8-15.8-0.9
		c0,0-3.7-6.1-9.7-7.6c-5.2-1.3-7.5,1.7-9.7,1.3c-2.2-0.4-2.2-8.4-11.8-11c-5.6-1.5-10,3-10,3s-2.2-5.6-9.2-5.3c-7,0.3-8,6.2-8,6.2
		s2-7.1-4.1-8.6c-2.7-0.6-3.1-1.9-3.8-3.7c-0.7-2-3.4-4.7-7.4-4c-6.9,1.2-11.8,6.4-16.7,5.6C829.2,200.2,828,196.1,829.8,192.7z"/>
	<path class="st4" d="M1017.7,151.1l-45.1,24.9c0,0-77.5-5-85.3-5.7c-3.4-0.3-5.2-1.6-5.2-3.5c0-3.1,6-5.4,19.6-8.2
		c24.9-5,63.8-13.8,63.8-13.8L1017.7,151.1z"/>
	<path class="st1" d="M976,219.2c0.5-1,1.7-0.8,2.5-0.7c1,0.2,37.8,1.9,37.8,1.9l10.1,1.7l1.2-62.5l-9.7-2.5l-42.6,21v40.7
		C975.5,218.9,975.8,219.1,976,219.2z"/>
	<path class="st2" d="M977.5,222.2c0,0-1.6-0.4-1.6-2c-0.2-0.1-0.4-0.2-0.6-0.3v16.4c0,0,4.3,1.3,7.6,5.7c0,0,2.8-2.2,6.4-2
		c0,0,3.1-6.1,10-2.2c0,0,5.3,1.5,10.4,10.4c0,0,10.7-0.4,16.6,5l3.8-23.5l-14.3-3.9L977.5,222.2z"/>
	<path class="st1" d="M766.5,175.6l1,29.6c0,0-7.1-2.1-11.7-2.8c-0.5-0.1-0.9,0-1.3,0.1c0,0-8.3-0.4-12.4,0.9
		c-5,1.6-24.7,13.1-24.7,13.1s-11.3-40.3-14-40.9H766.5z"/>
	<polygon class="st3" points="794.8,172.7 794.8,185.6 788.8,187.6 788.8,174.1 	"/>
	<path class="st2" d="M865.8,308h56.5c0,0,3.5-16.6-24.1-46.9c-8.5-9.3-19.1-15-26.8-17.8c-17-6.2-28.4-4.8-28.4-4.8
		s-7.4,14-6.9,19.7l-3.8-3.2c0,0-1.2,0.3-4.9,1.2c-3,0.8-5.3,1.4-6.6,0.6c-3.2-1.9-5.6-4.9-5.6-4.9c0,0-8.8,8.3-9.5,8.9
		c-1.5,1.4,0.2,4.8,0.8,5.7c1.6,2.6,7.9,11.5,12.4,12.3c3.7,0.7,9.3-7.5,12.9-3.6c4.6,5.1,15.9,20.5,15.9,20.5l1.3-10.4l21,6.2
		C870,291.4,867.5,302.9,865.8,308z"/>
	<path class="st6" d="M774.3,272.9c0,0-0.6-2.6-6.1-7c-5.4-4.3-13.1-3.5-19.5-0.3c-3.8,1.9-7.7,4.2-9.4,8.5
		c-4.6,11.7,2.2,17.5,2.2,17.5s5.1,2.1,11.2,0c3.1-1,5.7-2.2,7.9-3.4c0.8,1.2,2.7,4.5,2.2,11.5l2.7-1.6c0,0,0.9-6.3-2.5-11.3
		C773.1,280.3,774.3,272.9,774.3,272.9z M744.5,273.7c-1.7-0.3-0.9-3.3,0.7-3.2C746.9,270.6,746.2,274,744.5,273.7z M753.8,274.7
		c-2.7,0.5-3-2.7-1.1-3.2C755.3,270.7,756.5,274.2,753.8,274.7z M758.6,268.5c-1.6,1.6-3.9-0.6-2.6-1.9
		C757.6,264.9,760.2,266.8,758.6,268.5z"/>
	<path class="st3" d="M757.3,323.6c-2.6,3-4.2,8.3-0.4,12.5c4.7,5.3,17.5-4.9,10.7-12.4C764,319.6,759,321.7,757.3,323.6z"/>
	<path class="st3" d="M742.4,313.9c-1.6,1-1.3,2,1.3,5.7c2.6,3.7,3,4.6,4.9,4c2-0.6,1.2-3.7-1.3-6.9
		C744.7,313.4,743.4,313.3,742.4,313.9z"/>
	<path class="st6" d="M790.4,370.8c9.8,16.1,14.1,29.8,14.1,29.8s-18.6-6.6-25.7-9.1c-0.6,3.4-0.6,4.6-0.9,6.8
		c6.1,2.1,19.5,6.9,23.8,8.3c2.4,0.8,4.7,1.2,6.4,1.1c2-0.2,3.2-1.1,3.1-1.1c-3.2-1.3-4.7-2.2-4.2-3.7c0.4-1.4,2-0.6,4.7,0.4
		c-2-11.1-16.4-34.9-16.4-34.9C793.6,369,790.1,370.3,790.4,370.8z"/>
	<path class="st6" d="M798.6,370c-0.3,0.1-0.6,0.2-0.9,0.3c8.1-2.1,12-4.1,14.5-6c1.7-1.1,5.4-3.7,5.2-6.9c-0.2-3.2-1.3-4.7-3.1-5.5
		c-3.5-1.7-6.2-0.9-7.9-0.1c0,0-0.2,2.7-3.3,5.4c-7.4,6.5-15.3,14.4-15.3,14.4l4.2-0.4c0,0,0,0,0,0.1V371c1.6,0,4,0,5.8-0.6l0,0
		c0,0,0,0,0,0C798,370.3,798.3,370.2,798.6,370z"/>
	<path class="st6" d="M762.1,364.9l-6.3,8.1c0,0-8.3,0.1-24,1.3l24.6,11.3l0.8,7.8L726,378l-12.9,33.5c0,0-5.3-2.5-4.9-4.9
		l10.8-27.6l7-0.9c0,0,1.6-0.8,1.6-1.8c0-1.1,0.3-13.3,0.3-13.3l1.7,4.1L762.1,364.9z"/>
	<polygon class="st6" points="722.2,368.9 720.2,360.7 723.5,360.7 723.5,375.4 720.2,376.1 720.2,375.1 	"/>
	<path class="st6" d="M719.1,357.5c0,0-1.4-5.6-2-8.2c2-0.5,4.5-1.5,4-4.9l5.4,12.9L719.1,357.5z"/>
	<path class="st6" d="M714.9,340.7c0,0-1.4-8,1.2-11.9c2.6-4,7.7-3.6,5.1,2.3c-2.5,5.7,12.1,5,12.1,5s-2.2,2.6-2.4,8.7l-9.9-0.4
		C721.2,344.4,720.3,341.5,714.9,340.7z"/>
	<path class="st6" d="M736.5,345.1c2.1,0,12.1,1.1,13.9-3c1.7-4-5.4-4.9-8.4-4.8S736.5,342.5,736.5,345.1z"/>
	<path class="st2" d="M566.7-13c0,0,93.3,97.1,219.9,62c68.5-18.9,91.2,1.1,133.7,21.3C971,94.5,1057.5-4.5,1057.5-4.5L566.7-13z"/>
	<path class="st5" d="M975.2,222l49.8,4.3l7-5.5v-6.5l-6.5,6.8l-50.3-3.3c0,0-2.6,0-2.6,1.9C972.7,222,975.2,222,975.2,222z"/>
	<path class="st5" d="M1014.2,244.9c0.7-5.2-4.4-11.1-15.3-6.8c0,0-2.6-7.4-8.8-8.4c-6.2-1-9.3,3.3-12.5,6
		c-3.2,2.6-10.7,3.8-11.5,13.2c-0.4,5.5,2.7,8.2,5,10.1c2.3,1.9,0,3.2-2.3,6.5c-4.4,6.3,0.2,13.6,16.5,15.9
		c16.3,2.3,40.8,4.1,40.8,4.1S1035.3,240.8,1014.2,244.9z"/>
	<polygon class="st2" points="982,189.5 999,184.9 999,210.8 982,215 	"/>
	<polygon class="st2" points="1006.1,183.6 1020.8,179.2 1020.8,204.6 1006.1,209.1 	"/>
	<path class="st5" d="M929.3,414c0,0,2.3,4,0.6,9.5c-1.3,4.2-4.2,5.3-10.7,11.9s-8.6,9.1-14.8,10.9s-16.9,1.7-13.9-3.3
		c1.3-2.1,5-5.2,7.9-8.6c4-4.8,7.3-10,7.3-10L929.3,414z"/>
	<path class="st3" d="M760.8,418.4c0.9-2.9,0.2-8.8,6.1-9.6c5.9-0.7,3.9,2.8,10.5,2.7c0.1,3.3,2.6,5.4-4.4,15.1
		c-7.1,9.7-12.8,10.8-17.5,9.7c-4.2-1-5.8-4.6-1.4-8.9C756.7,425,759.9,421.4,760.8,418.4z"/>
	<path class="st3" d="M757.7,398c0,0-18.3,7.7-19.4,1.3c-1.1-6.4,10-5.9,11.1-9.8l7.8,3.9L757.7,398z"/>
	<path class="st6" d="M781.6,289.1c4.9-4.1,13.3-5.1,19.9,0.7c6.5,5.9,10.2,9.2,8.7,11.2c-1.1,1.4-3.1,0.9-3.1,0.9s1.6,7,2.7,8.5
		c1.2,1.5,3.5,3.1,2.3,4.6c-1.2,1.6-3.8-2.1-3.8-2.1s1.8,16.3-5.4,23l-2-5.5c0,0-4.7,6.1-20.4,8.9c0,0,8.3,3.2,6,5.5
		c-2.3,2.3-5.2-3.5-9.8-3.7c-4.6-0.2-10.1,1.2-11.2,1.5c-1.1,0.3-1.7-3.1-0.7-3.3c1-0.1,26.3-3,35.2-11.6c0,0-5.8-16.1-12.2-25.4
		c-6.4-9.3-12.3-4.3-14-0.6c-1.7,3.7-8,15.1-8,15.1s-0.5-2.5-0.5-3.6s0.7-2.3,1.3-3.7c0.7-1.4,6.7-14.3,6.7-14.3L781.6,289.1z"/>
	<rect x="737.9" y="179.1" class="st2" width="9.3" height="17.4"/>
	<rect x="722" y="179.1" class="st2" width="9.3" height="17.4"/>
	<path class="st5" d="M620,183.9c0,0,1.8,6.9,8.9,5.9c0,0,1.4-1.3,8,1.8c0,0,0.9-1.6,2.3-1.5c0,0,7.2-5.4,1.1-11.2
		c0,0,1.3-0.9,1.2-3.2c0-0.8,1.1-3,1.1-3s-1.9,0.7-2.9,0.5c-1-0.2-3.9-1-5.2,1.2c-1.8,3.1,0.2,4.3-3.5,7.3c-2,1.6-2.5,4.1-2.5,4.1
		s-1.7,0.3-3.5-1.7C622,183.9,620,183.9,620,183.9z"/>
	<path class="st6" d="M606.3,177c-3.5,0,0.6,8.7,0.6,8.7S609.8,177,606.3,177z"/>
	<path class="st6" d="M609.5,184.3c0,0,9.4-7.2,6.5-8.7C613.2,174.1,609.5,184.3,609.5,184.3z"/>
	<path class="st6" d="M607,189.4c0,0-6.3-10-8-7.3S607,189.4,607,189.4z"/>
	<path class="st6" d="M975.7,243.5c-1.1-0.4-1.8,1.4-0.5,2C976.6,246,977.1,243.9,975.7,243.5z"/>
	<path class="st6" d="M981.3,269c-0.4,0.6,4.6,3.3,4.8,1.7C986.4,269.1,981.7,268.5,981.3,269z"/>
	<path class="st6" d="M977.2,256.2c1.4,0.4,1.8-1.2,1.3-1.6C977.1,253.4,975.9,255.8,977.2,256.2z"/>
	<path class="st6" d="M988.8,261.9c-0.8,0.7,0.7,3,1.9,1.7C991.9,262.4,990.1,260.8,988.8,261.9z"/>
	<path class="st6" d="M977.9,265.9c0.6,0.4,4.5-3.2,2.3-4.2C978.4,260.8,977.2,265.5,977.9,265.9z"/>
	<path class="st6" d="M993.8,260c0,0,4.9-1.8,3.8-3C996.2,255.3,993.8,260,993.8,260z"/>
	<path class="st6" d="M984.8,238.9c0,0,4.4-0.1,4.1-2.1C988.6,234.8,985.2,237.4,984.8,238.9z"/>
	<path class="st6" d="M973.5,250.8c-1.7,1,1.4,3.4,2,3S974.9,249.9,973.5,250.8z"/>
	<path class="st6" d="M1003,243.6c1.3,0,1.3,1.6,0.2,1.7C1001.6,245.6,1001.7,243.6,1003,243.6z"/>
	<path class="st6" d="M989,252.9c-1.2-0.5-1.9,1.4-0.7,1.8S990,253.3,989,252.9z"/>
	<path class="st6" d="M993.9,247.1c1.2-0.9,2.7,3,2.1,3.5C995.4,251.1,992.3,248.3,993.9,247.1z"/>
	<path class="st6" d="M984.2,245.5c-1.6-0.3-1.7,1.8-0.3,2C985.2,247.7,985.8,245.8,984.2,245.5z"/>
	<path class="st6" d="M975.4,268c-1.6-0.3-1.7,1.8-0.3,2C976.4,270.2,977,268.3,975.4,268z"/>
	<g>
		<path class="st5" d="M798.6,194c-0.1-13.6-0.4-30.5-0.4-30.5s5.8-3.8,6.6,7.3c0,0,9.3-3.7,12.5,4.3c0,0,4.9-3.9,10.5-1.2
			c-3.7,2.4-4.8,5.1-3.7,9.1c1.9,7.1-3.7,3.2-7.4,5.7c-5,3.3-4.1,8.4-8.4,9.2c0.5-2.4-0.7-6-3.5-6.6
			C802.8,190.9,799.8,191.6,798.6,194z"/>
		<path class="st6" d="M802.3,183.9c0.7,0.2,1-0.6,0.7-0.8C802.2,182.5,801.6,183.7,802.3,183.9z"/>
		<path class="st6" d="M812.1,188.4c-0.4,0.4,0.4,1.6,1,0.9C813.8,188.7,812.8,187.9,812.1,188.4z"/>
		<path class="st6" d="M804.9,188.9c0.3,0.2,2.4-1.7,1.2-2.2C805.2,186.2,804.5,188.7,804.9,188.9z"/>
		<path class="st6" d="M811.6,178.8c0,0,2.3-0.1,2.2-1.1C813.6,176.6,811.8,178,811.6,178.8z"/>
		<path class="st6" d="M808.4,182.2c-0.6-0.2-1,0.7-0.4,0.9C808.7,183.3,809,182.4,808.4,182.2z"/>
		<path class="st6" d="M813.6,181.4c0.7-0.5,1.4,1.6,1.1,1.8S812.8,182,813.6,181.4z"/>
		<path class="st6" d="M807.8,175.9c-0.9-0.1-0.9,1-0.2,1.1C808.3,177.1,808.7,176.1,807.8,175.9z"/>
		<path class="st6" d="M802.6,177.8c-0.9-0.1-0.9,1-0.2,1.1C803.1,179,803.5,178,802.6,177.8z"/>
	</g>
	<path class="st5" d="M754.4,202.5c0,0,4.3-4.2,8.4-3.6c4.1,0.6,4.1,4.2,5.5,3.6c1.4-0.6,5.1-4.2,8.3-2.3c3.1,1.9,3.7-0.8,7.1-0.2
		c1.8,0.3,3.1,1.6,3.4,3.5c0.3,2.1-0.4,4.7-2.9,5.2c-4.2,0.8-4.3,3.3-7.4,2.7s-4.7-0.8-4.7-0.8s-8.9-4.6-10.5-5.4
		S757.5,202.6,754.4,202.5z"/>
	<path class="st5" d="M843,238.4c0,0,3.4-20.9-16.7-25.5c-9.7-2.2-14.1,4.1-18.2,5.4c-4.1,1.3-9.4,3.5-7,9c0,0-3.7,1.4-2.8,5.8
		c0.6,2.8,3.9,4.3,7.3,3.7c1.9-0.3,19.1,6.7,22.8,7.5C830.7,244.8,836.2,241.5,843,238.4z"/>
	<path class="st4" d="M843,238.4c0,0-4.6,15.2-4.5,21.9l-6.2-5.4c0,0-6.5,1.7-9.5,2.3c-2.9,0.6-7.7-5.4-7.7-5.4s-4.7,1.7-6,0.6
		s-1-8.6-1-8.6s-2.1-3.6-2.6-7.1c0,0,2.5-0.2,5.4-2.7c2.9-2.5,5.8-3.8,8-1s4.8,5.8,5.2,2.4c0.4-3.4,1.6-5.3,4.1-4.6
		c2.5,0.7,2.7,8.6,8.7,8.6C841,239.2,843,238.4,843,238.4z"/>
	<path class="st5" d="M660.6,264.7c-1,3.4,8.1,3.4,8.1,3.4S661.6,261.4,660.6,264.7z"/>
	<path class="st6" d="M661.5,256.3c0,0,2.9-1,3.5-4.1C665,252.3,662,251.2,661.5,256.3z"/>
	<path class="st6" d="M694.3,297.8c0,0-4.9,1.8-5.9,7.2C688.4,305,693.7,306.7,694.3,297.8z"/>
	<path class="st2" d="M676.5,281.4c0,0-0.7-3.5-3.6-1.5c-2.9,2-2.7,10.5,2.9,7.6C681.4,284.7,679,280.1,676.5,281.4z"/>
	<path class="st2" d="M646.9,242.4c0,0,1.3-3.3,3.8-0.9s0.9,10.8-4.1,7.1C641.6,244.9,644.7,240.7,646.9,242.4z"/>
	<path class="st2" d="M684.6,277.5c-3.1-1-2.5-5.5,0.7-3.3C688.6,276.5,686.4,278.1,684.6,277.5z"/>
	<path class="st2" d="M694.1,304.5c0,0,3-1.9-0.5-2.6s-6.9,3.2-4.2,5.9C692,310.5,701,305.3,694.1,304.5z"/>
	<path class="st2" d="M715,272.7c-0.6,1.9,5.7,3.1,5.9,0.8C721,271.1,715.5,270.8,715,272.7z"/>
	<path class="st2" d="M648.2,270.1c-2.3,0.1-2.6-1.9-1.2-4.9c0.7-1.5-0.8-0.5-2-0.4c-1.3,0.1-3-2-0.7-4.2c2.5-2.4,4.2,0.6,4.4-1.1
		c0.6-3.9,4.3-4,3.6-0.2c-0.4,1.9,3.5-2.9,4.5,0.8c0.5,2-0.9,2.6-2.5,2.7c-1.7,0.1,0.3,0.4,1.4,1.5c0.6,0.7,0.7,2.1-0.4,2.8
		c-2.7,2-4.3-1.2-4.3-1.2S650.9,269.9,648.2,270.1z"/>
	<path class="st2" d="M669.4,251.9c0,0,4.8-1.5,2.8-4.1c-0.5-0.7-2.2-0.8-3.7,0c-0.1,0.1,0.6-5.9-3.6-4.7c-4.2,1.1,0.2,6,0.2,6
		s-7.4-2-6,2.3c1.4,4.3,5.8,1.3,5.8,1.3s-0.8,3.5,1.6,4.3C670,258.1,671.1,254.6,669.4,251.9z M660.3,251.1
		c-0.6-1.6,4.5-0.8,4.5-0.8S660.8,252.7,660.3,251.1z M666.7,250.6c-0.5-1,0.7-1.7,1-0.8C668.2,251,667.3,251.6,666.7,250.6z
		 M667.4,255.5c-1.3-0.2-1.5-2.2,0.6-3.4C668.1,252,669.1,255.7,667.4,255.5z"/>
	<path class="st5" d="M698,278.9c-0.3-0.2-6.9-4.7-5.3-6.6C694.3,270.4,698,278.9,698,278.9z"/>
	<path class="st2" d="M614,215.8c-2.3,1.2,0.5,4.2,1.4,2.9C616.4,217.4,615.1,215.2,614,215.8z"/>
	<path class="st2" d="M636.6,254.6c0-2.6-3.9-1.5-3.2-0.1C634.1,256,636.6,255.8,636.6,254.6z"/>
	<path class="st2" d="M620.6,219.9c-1.3,0.2-0.2,4.6,1.4,3.3C623.6,221.9,622.4,219.6,620.6,219.9z"/>
	<path class="st2" d="M676,297.7c-0.6-2-7,0.5-4.8,2.7S676.7,300.3,676,297.7z"/>
	<path class="st2" d="M613.2,225c-2.9,0.1-2.2,3.8,0,3.7C615.5,228.5,615.3,224.9,613.2,225z"/>
	<path class="st2" d="M678.7,233.7c-2.4,0.1-1.8,3.1,0,3C680.5,236.6,680.4,233.7,678.7,233.7z"/>
	<path class="st2" d="M622.2,229.7c-1.5,0.1-1.3,3,0.8,3S624.1,229.5,622.2,229.7z"/>
	<path class="st2" d="M720.2,279c0,0,1-1.6-1.1-2.1c-1-0.3-1.8,0.6-2,1.2c-0.2,0.8,0.1,1.8,0.1,1.8s-1.2-0.4-2.1,0.2
		c-1.7,1-1,3.2,0.1,3.6c2.1,0.8,3.4-0.6,3.4-0.6s0.1,0.9,0.8,1.4c0.7,0.5,2.2,0.2,2.4-0.6c0.4-1.5-1.1-2.4-1.1-2.4s1.1,0.3,1.9,0
		c0.8-0.2,1-1.7,0.3-2.4C722,278.1,720.2,279,720.2,279z"/>
	<path class="st3" d="M650.5,262.3c-1.8,1.2-0.9,2.3,0.6,1.7S651.4,261.8,650.5,262.3z"/>
	<path class="st3" d="M668,249.8c-1.1-1.7-2.1-0.8-1.5,0.6C667,251.8,668.5,250.6,668,249.8z"/>
	<path class="st2" d="M685.3,240c0,0,0-2.6-2.9-0.1c-2.9,2.5-2.1,8.2,1.6,6.9S691,235.1,685.3,240z"/>
	<path class="st7" d="M691.4,241.5c0,0-11.2,0.6-9.9,4.5C683,250.2,691.4,241.5,691.4,241.5z"/>
	<path class="st7" d="M670.6,288.9c0,0-4.2-10.5-7.4-7.9C659.7,283.7,670.6,288.9,670.6,288.9z"/>
	<path class="st5" d="M669.4,270c0,0-11.9,0.2-11.1,2.9C659,275.6,669.4,270,669.4,270z"/>
	<path class="st5" d="M723.7,298.3c-1.4-3.2-8.3,2.7-8.3,2.7S725.1,301.5,723.7,298.3z"/>
	<path class="st6" d="M713.6,300c0,0,8.9-7.9,6.6-9.5S713.6,300,713.6,300z"/>
	<path class="st5" d="M679.5,247.1c-2.2,2.5-7.3-5.3-6.7-5.9C673.5,240.6,682,244.3,679.5,247.1z"/>
	<path class="st6" d="M699.1,279.4c-4.6-3.8,5.1-9.2,5.1-9.2s0.4,1.8-1.5,4.2C701.1,276.5,699.1,279.4,699.1,279.4z"/>
	<path class="st1" d="M649.5,231.2c-2.5-1-0.7,7.1-0.7,7.1S652.2,232.3,649.5,231.2z"/>
	<path class="st2" d="M705.6,281.1c0,0,2.1-3,0.2-4c-1.5-0.8-4.2-0.8-5.5,2.2c-1,2.4-1.3,2.1-1.4,2.4c-0.4-1.4-1.1-2.5-2.4-2.8
		c-2.5-0.6-5.1,1.6-4.3,3.5c0.5,1.4,2.6,2.8,4.7,2.8c2.3,0,0.3,0.9-1.4,1.8c-1.8,0.9,2.1,4.9,5,0.8c0,0,0.3,2.3,2.5,0.8
		s-0.4-3.4,0.6-3.8c1-0.4,2.1,2.9,4.4,1.6C710.3,285.2,709.8,280.3,705.6,281.1z M706.5,285.1c-1.8-1.3-3-2.2-4.7-0.7
		c0,0,2.6-3.1,5.4-1.7C708.5,283.4,707.3,285.6,706.5,285.1z"/>
	<path class="st3" d="M700.6,282c-2.1,0.5-1.7,1.8,0,1.8S701.6,281.8,700.6,282z"/>
	<g>
		<path class="st2" d="M791.9,252.1c-4.1-0.8-5.5,3.9-7.3,3.5c-1.8-0.4-1-5.1-1.6-9.5c-0.5-4.4-4.7-7-7.9-1.4
			c-3.2,5.6-5.6,5-6.1,3.9c-0.5-1.1,3.4-5.6,4.2-11.4c0.4-3.4-0.6-5.4-2.1-6.1c-1.1-0.5-2.6-0.4-3.5,1.2c-2.3,3.8,0.9,8.5-2.3,8.2
			c-3.2-0.3-2.8-7.4-9.6-7.1c-2.4,0.1-4.3,2.3-5,4.2c-1,2.9-2,3.8-1.8,2.7c3-19.4-8-28.8-17.2-30.8c-6.4-1.4-8.1-4-10.3-8.4
			c-2.2-4.4-8-4.7-8-4.7c0.8-6.6-3.6-5.3-4.4-7.5c-0.8-2.3,4.4-9.5,0.3-13.8s-10-4.2-14.3-1.3c-4.4,2.9-5.9,0.5-9.3-1.2
			c-3.4-1.7-9.1-2.1-13.9,1.5s-6.5,9.3-11.1,8.4c-4.6-0.9-10.1-5.8-14-1.7c-3.9,4.1-5.4,4.2-8.6,4.8c-3.2,0.6-3.5,4.9-3.5,4.9
			c-14.4-5.6-25.5,4.6-25.5,4.6c5.3,2.8,2.5,7.8,5.8,12.6c3.3,4.8,8,3.9,8.7,0.1c0.7-3.8,2.7-5.3,4.8-4.9c2.1,0.4,3,3,1.9,5.8
			c-1.2,2.7-1.2,4.3,0.9,3.3c2.1-1,2,1.2,1.1,4c-2.1,6.4-7.3,11.7-3.1,14.4c4.6,2.9,8.7-3.2,12.3-9.5c3.6-6.3,6.6-6.9,5.4-1
			c-1.1,5.8-7.6,12.5-7.6,12.5s1.3-0.9,5.3-1.4c5.5-0.7,7.2,3.9,7.2,3.9s2.6-8.8,0.3-19.8c-2.3-10.9,6-10.1,7-6.1
			c1,4-0.5,6.8-0.5,6.8s6.2-3.6,10.4,3.6c3,5.1,0.2,9-3.4,10.3c-3.5,1.2-8.3,4.8-6.7,7.6c1.5,2.8,5.7,2.1,8.8,0
			c6.4-4.2,7-8.8,6.1-14.5c-1.3-7.4-7-9.5-8-17.2c-0.8-6.3,2.6-9.6,3.4-9.5c0.8,0.1,1.8,1,0.8,6.3c-1,5.4,1.8,7,3.3,1.8
			c0.8-2.7,1.7-3.4,2.4-3.3c0.6,0.1,1,1,0,3c-2,4.2-1.5,10.1,0.9,14s5.5,3.4,6,0c2-13.8,16.3-14.9,18.3-8.3c0.4,1.5-0.6,7.2,2.8,7.6
			c1.7,0.2,3.1,3.4,0,5c-3.1,1.6-3.8,5.2-1.2,6.4c2.6,1.2,5.7-1.1,6.6-6s5.1-6.1,6.6-3.3c1.5,2.8-1.7,5.1-1.7,5.1
			c3.8-0.8,5.3,1.5,6.5,5.7c1.2,4.2,4.1,2.9,4.1,2.9c-1.3-2.9-0.6-8,4.7-9c5.4-1,7.6,2.9,4.5,6c-2.4,2.4-4.1,4.9,0.6,3.2
			c4.7-1.7,11.4,2.8,7.7,11.6c-3.7,8.8-11,9.1-11.7,7.2c-0.3-0.9,1.1-2.7,1.3-5.6s-2.3-4.5-2.3-4.5s0.3,2.2-2.1,6.8
			c-1.2,2.3-2.2,2.8-2.9,2.5s-1.2-1.3-0.5-3.4c0.9-2.9,1.4-7.8-0.8-7.4c-2.2,0.4-0.6,4.7-2.3,6.1c-1.6,1.4-3.2,0.1-3.5-2.5
			c-0.2-1.3-0.5-3.6-1.2-5.4c-0.7-1.8-3.1-2.7-4.7-1.5c-2.5,2-0.8,4.9,1.8,6.8c4.5,3.1,3.9,6.6,2.1,7.2c-4.3,1.5-8.2-5.7-7.7-11.6
			c0.3-4.9,4.6-7.2,4-7.9c-0.2-0.3-1.9,0.6-2.6,1.3c-4.5,4.2-4.3,10.5-2.5,14.7c1.8,4.3,2.7,6.1,1,7c-2.4,1.3-8.3-4.3-14.7-6
			c-6.4-1.8-15.6,0.7-19.5,8c-3.8,7.3-0.1,13.1-0.1,13.1c-0.1-4.2,3.6-4,6.3-7.5c2.8-3.5,4.5-3.2,3-0.2s-4.7,5.3-3.3,5.8
			c1.4,0.5,5.2-1.9,7.1-4.1c2-2.2,3.9-5.9,4.1-3.6c0.2,2.3-3.7,7.3-3.7,7.3s2.1,0.2,5.2-2.1c3.8-2.8,7.6-2.8,11.7-0.6
			c4,2.2,6.1,3.9,12.4,3.8c6.3-0.2,9.2,3.5,11.6,6.5c2.4,2.9,4.7,11.5,6.6,2.2c1.9-9.3,9.5-13.4,15.2-16.2c5.7-2.9,7.6-5.9,9.4-9
			c1.3-2.4,1.9-3.6,2.5-3.4c0.7,0.3,0.8,1.4-0.6,3.8c-1.8,3.2-4.7,6.9-4.7,6.9s2.8-1,5.4-4c2.4-2.8,3.1-4.3,3.9-3.9
			c1,0.5-0.3,2.3-1,3.2c-1.9,2.8-4.5,5-4.5,5s3.4-0.3,5.8-3.4c3-3.8,4.1-3.7,4.7-2.8c0.5,0.8-1.7,2.2-2.6,4.4
			c-0.5,1.3-1,3.2,0.3,4.9c2.5,3.3,8.8,5.3,14,5.8c6,0.5,11.9-1,14-4.6C800.3,257.2,796,252.9,791.9,252.1z M643,200.8
			c2.3-0.1,2.2,4.9-0.2,4.8C640.4,205.4,641.2,200.8,643,200.8z M643,212.9c-4,5.4-8.4,12.4-8.4,12.4s2.4-13.4,7.1-17.1
			C644.7,205.8,647.1,207.5,643,212.9z M678,197.1c-1-1.4,2.1-4.3,2.9-3.7C682.3,194.6,679,198.5,678,197.1z M689,203.4
			c-2,2.2-3.1,1.9-6.4,6.7c-3.2,4.7-0.8,7.1-2.8,7s-2.7-10.1,0.9-15.6c3.5-5.4,7.1-4.8,8.6-3.2C690.3,199.4,690.7,201.5,689,203.4z
			 M704.8,214.4c-1.4-0.6-0.6-5.9,1.4-5.2C708.8,210.2,706.2,215,704.8,214.4z M721.3,224.1c-2.4-1.1-0.2-4.4,1.3-3.7
			C724.7,221.2,723.7,225.2,721.3,224.1z M751.5,255.8c-1.3-0.8,0.5-4.2,1.6-3.7C755.4,252.9,752.8,256.5,751.5,255.8z M774.5,255
			c-1.5-1.3,1.1-4.1,2.3-3C778,253.2,776,256.3,774.5,255z"/>
		<path class="st2" d="M704.4,250.1c1.8,0.4,0.6-5-1.3-10c-1.9-5-3.1-7.5-5.2-6.3c-1.2,0.7-1,2.4,2,6.1c1.3,1.6,2.3,4,3,6.3
			C703.6,248.2,703.6,249.9,704.4,250.1z"/>
		<path class="st2" d="M721.7,239.3c2,0,0.3-4.3-1-4.1C719.5,235.4,719.8,239.3,721.7,239.3z"/>
		<path class="st2" d="M726.8,238.7c-0.9-0.1-1.7,3.6-0.3,4C727.8,243.1,727.6,238.8,726.8,238.7z"/>
		<path class="st2" d="M731.4,236.7c-1.8-0.1-2.1,3.5,0,3.7C733.5,240.5,733.1,236.8,731.4,236.7z"/>
		<path class="st2" d="M737,244.3c1-4.2,0.1-6-0.7-6c-1.2,0-1.2,2.1-1.3,5.1c-0.1,3.5-2.2,7.5-2.2,7.5S735.6,249.8,737,244.3z"/>
	</g>
	<circle class="st6" cx="708.2" cy="411.4" r="4.9"/>
	<path class="st5" d="M648.6,249.6c1.1-0.8-2-4.9-7.2-4.4C641.3,245.2,644.6,252.4,648.6,249.6z"/>
	<path class="st2" d="M711.1,302.8c0,0-2.2,3.2-4.2-0.9c-2.1-4.1,2.7-3.3,2.7-3.3s2.2-4.6,4.8,0C717,303.2,711.1,302.8,711.1,302.8z
		"/>
	<path class="st3" d="M710.1,300.9c2.1,0.6,2.3-0.8,0.9-1.6S709.1,300.6,710.1,300.9z"/>
</g>
</svg>
