<?xml version="1.0" encoding="UTF-8"?>
<svg width="1025px" height="484px" viewBox="0 0 1025 484" version="1.1" xmlns="http://www.w3.org/2000/svg" xmlns:xlink="http://www.w3.org/1999/xlink">
    <!-- Generator: Sketch 46.2 (44496) - http://www.bohemiancoding.com/sketch -->
    <title>Artboard</title>
    <desc>Created with Sketch.</desc>
    <defs></defs>
    <g id="Page-1" stroke="none" stroke-width="1" fill="none" fill-rule="evenodd">
        <g id="Artboard" fill-rule="nonzero">
            <g id="header-bg-help" transform="translate(-64.000000, -6.000000)">
                <rect id="Rectangle-path" fill="#1EAEF7" x="59.4" y="292.6" width="1032.9" height="236.5"></rect>
                <polygon id="Shape" fill="#CFF0FF" points="59.9 292.6 120.6 292.6 128 288.8 158.1 284.8 183.1 292.6 1091.8 292.6 1091.8 0.3 62.4 0.3"></polygon>
                <path d="M920.6,438.9 C920.6,438.9 934.4,437.9 947.5,439.9 C960.6,441.9 968.6,441.2 966.3,432.3 C964,423.3 940.4,424.6 927.6,432.6 C914.7,440.4 920.6,438.9 920.6,438.9 Z" id="Shape" fill="#0062BA"></path>
                <path d="M975.7,451.4 C975.7,451.4 987.6,451.7 994.1,440.8 C1000.6,429.9 1000,429.9 1005.4,426.8 C1012.8,422.6 1043.2,439.1 1043.2,439.1 L1099.4,433.4 L1098.5,450.8 C1098.5,450.8 1087,450.8 1068.1,455.3 C1061.7,456.8 1052.6,459.5 1042.1,460.6 C1023,462.6 998.8,461 975.7,451.4 Z" id="Shape" fill="#0062BA"></path>
                <path d="M120.6,292.6 C131.7,286.2 147.7,280.7 162.2,285 C176.1,289.1 187.3,291 200.1,292.6 C200.1,292.6 203.7,300.6 193.4,303.4 C183.1,306.2 172.3,306.5 171.5,310.5 C170.7,314.4 176.6,311.7 176.2,317.8 C175.8,324 163.8,326.8 147.1,323.9 C130.4,321 111.2,322.7 104.6,322.8 C98.1,322.9 96.2,318.5 96.7,314.4 C96.7,314.4 99.3,312.4 104.2,309.6 C111.6,305.2 118.5,295.7 120.6,292.6 Z" id="Shape" fill="#0062BA"></path>
                <path d="M840.2,490.3 C840.2,490.3 823.8,481.2 840,470 C863.5,453.8 900,434.9 938.4,439.2 C969.1,442.7 969.3,454.3 1005.4,459.1 C1062,466.6 1062.3,449.6 1105.3,450.8 L1093.2,491 L840.2,490.3 Z" id="Shape" fill="#CFF0FF"></path>
                <path d="M1005.2,426.9 C1014.6,421.2 1025.9,412.3 1038,386.3 C1050.1,360.3 1074.5,349.8 1096.1,356.5 L1098,430.6 L1018.9,435.5 L1005.2,426.9 Z" id="Shape" fill="#CFF0FF"></path>
                <path d="M999.5,387.2 C992.9,380.6 980.5,377.6 980.5,377.6 L937.7,379.7 L747.9,380.1 L747.9,356.6 C747.9,356.6 761.6,348.8 773.5,337.7 C792.4,319.9 821.1,306.6 851.6,310.2 C882.1,313.8 941.5,311.3 941.5,311.3 L967.1,303.4 L1044.4,334.1 L1113.5,309.3 L1109.9,380.6 L999.5,387.2 Z" id="Shape" fill="#CFF0FF"></path>
                <path d="M759,423.1 C759,423.1 747.8,446.2 692,441.3 C668.2,439.2 644.7,445.3 627.1,444.2 C601,442.7 592.2,436.4 586.7,431.3 C586.7,431.3 586.7,431.3 586.7,431.3 C575.1,417.6 600.6,412.4 612.9,414.7 C624.9,417 631.4,416.7 643,410.1 C657.5,401.9 663.8,407.8 673,399.8 C683.5,390.7 697.8,395.1 697.8,395.1 C697.8,395.1 701.6,391.9 704.3,393.8 C704.3,393.8 702.9,392.3 698.6,390.1 C686.7,383.8 674.2,391 668.9,394.6 C666.3,396.4 660.9,397.4 653.3,398.6 C638.1,401.1 635.3,410 619.2,406.1 C601.8,401.9 591.7,404.6 568.2,411.4 C544.7,418.2 479.8,436.9 454.5,436.8 C424.4,436.8 407.7,427 405.5,412.9 C402,390 461.1,382.6 498.2,386.9 C512.1,388.5 538.7,393.5 561.4,392.6 C587.4,391.6 622.7,381.2 631,375.6 C650.5,362.4 725,379 725,379 L778.9,340.3 C778.9,340.3 773.3,341.1 764.4,339.1 C761.2,338.4 758.7,332.4 754.3,332.8 C732.5,335 698,328.8 683.9,328.8 C661.7,328.8 612.9,343.8 562.9,353.7 C491.6,367.8 439.8,356.1 438.4,338.8 C437.5,326.9 464.2,317.2 416.9,312.5 C382,309 342.8,311.8 311.2,314.3 C273.3,317.3 224.7,327.9 176.2,317.6 C173.6,327.3 152.8,323.7 135.8,322.2 C123.6,321.2 88.1,320.8 78.5,320.1 C68.2,325 66.1,323.5 63.4,323.8 C55.4,324.8 -66.4,328.2 51.1,347.7 C168.6,367.2 303.9,326.6 356.6,332.8 C396.2,337.5 418.6,352.2 412.2,367.1 C386.6,426.7 115.3,387.1 66,372.5 C20.1,359 43.2,426.7 43.2,426.7 C43.2,426.7 34.1,466.6 60,451.4 C100.5,427.5 170.7,415.5 246,431 C290.1,440.1 357.3,466.3 387,484.9 C433.9,514.4 495.8,486.9 505,480.2 C518.1,470.7 534.8,458.3 573.6,453.6 C622.9,447.7 665,470.1 722.3,474.6 C751.1,476.9 752.6,457.5 765.4,455.4 C819.2,446.6 827,446.1 849.8,438.2 L849.8,421.1 L759,423.1 Z" id="Shape" fill="#CFF0FF"></path>
                <path d="M1041.6,119.3 C996.6,123.3 982,103.6 947,113.3 C910.4,123.4 907.5,154.8 848,148 C823.7,145.2 772.1,128.9 739.5,137.3 C706.4,145.9 692.4,179.4 688,182.3 C678,189 676.8,172.4 653,170.2 C636.8,168.7 623,174 614.5,176.4 C606,178.8 598.9,168.2 591.1,161.3 C572.1,144.4 535.3,138.5 507.3,160.1 C479.3,181.7 486.6,175.3 459.7,166.1 C429.7,155.9 390.8,158.7 368.2,190.2 C368.2,190.2 362,165.9 335.6,146.5 C310.2,127.9 280.2,134.1 253,142.1 C225.8,150.1 204,140.3 184,130.3 C164,120.3 138,110.1 108,118.3 C78,126.5 57,116.3 57,116.3 L63,209 C91.7,209 342.5,193.3 393.5,235.7 C444.5,278 433.7,292.7 468.7,292.7 L602.5,292.7 C602.5,292.7 614.3,273.4 640.7,274.7 C667,276 694.4,274.4 702.4,262 C710.4,249.7 727.2,202.2 806.8,198.7 C852.1,196.7 859.7,192.4 881.1,219.7 C902.5,247 914.3,267.9 958.1,244.9 C1003.1,221.3 1019.9,218.3 1092,218.3 L1092,78.9 C1091.9,78.9 1086.6,115.3 1041.6,119.3 Z M949.3,218.4 C938.5,217.8 933,226.8 930.7,226.3 C928.4,225.8 933.4,221 923.1,217.4 C917.9,215.6 913.5,215.9 913.3,214.8 C913,213.7 916.3,212.1 921.1,212.2 C929.2,212.4 933.1,217.5 933.1,217.5 C933.1,217.5 937.2,214.4 942.9,214.4 C948.5,214.6 956.9,218.8 949.3,218.4 Z M975.3,174.1 C975.3,174.1 970,171.3 962.5,171.1 C955,170.8 945,179.7 953.6,170.6 C962.2,161.5 973.3,167 973.3,167 C981.1,155.2 989.7,165.4 989.7,165.4 C980.1,165 975.3,174.1 975.3,174.1 Z" id="Shape" fill="#FFFFFF"></path>
                <path d="M848.6,225.5 C847.1,226.1 843.1,225.6 840.3,224 C836.2,221.7 828.2,224.9 827.5,224 C826.8,223.1 831.5,219.9 834.4,219.4 C837.3,218.9 842.1,220.6 842.1,220.6 C842.1,220.6 843.3,214.9 855.5,218.3 C855.5,218.3 848.6,219.9 847.2,222.1 C845.8,224.3 848.6,225.5 848.6,225.5 Z" id="Shape" fill="#FFFFFF"></path>
                <path d="M127.1,234.8 C127.1,234.8 119.5,239.2 119.5,245.9 C119.5,245.9 113.2,242.8 103.5,245.4 C103.5,245.4 111.1,237.8 117.2,241.9 C117.2,241.9 117.5,233.2 127.1,234.8 Z" id="Shape" fill="#FFFFFF"></path>
                <path d="M135.5,275.2 L132.5,292.2 C132.5,292.2 133.5,295.7 142.9,295.7 C152.3,295.7 154.5,292.1 154.5,292.1 L152,275.2 L135.5,275.2 Z" id="Shape" fill="#E23B53"></path>
                <path d="M144.9,254 L144.9,252.5 L144.2,252.5 L143.8,252.9 L143.4,252.5 L142.7,252.5 L142.7,254 L135.9,260.5 C135.2,261.2 134.9,262.1 135.1,263.1 L136,267.5 L142.7,267.5 L144.9,267.5 L151.6,267.5 L152.5,263.1 C152.7,262.2 152.4,261.2 151.7,260.5 L144.9,254 Z" id="Shape" fill="#E23B53"></path>
                <path d="M1017.6,430.6 C1012.1,435.5 1005.6,434.8 1005.4,438.8 C1005.2,442.8 1015.6,445.9 1026,441.3 C1036.4,436.7 1039.5,439.6 1042.2,444.7 C1044.9,449.8 1056.4,445.9 1064.5,441.4 C1072.7,436.9 1093.2,438.5 1093.2,438.5 L1093.2,424.8 C1093.2,424.8 1090.3,423.1 1087.5,420.4 C1084.2,417.2 1079.1,415.6 1074.9,420.4 C1074.9,420.4 1072.9,416.9 1071.2,414.5 C1068.2,410 1063.9,408.6 1060.7,414.5 C1060.7,414.5 1060.1,412.1 1058.4,411.1 C1056.6,410 1053.8,410.5 1052.3,414.5 C1051.4,417.1 1051.4,418.6 1050.3,418.6 C1049.3,418.6 1049.8,415 1048.5,413.8 C1047.2,412.5 1044.3,413.3 1041,419.2 C1036.8,426.7 1027.2,429.3 1029.7,423.2 C1032.4,416.7 1039.7,404.3 1038,403.3 C1036.3,402.3 1033,409.1 1029.3,415.4 C1025.6,421.7 1021.6,427 1017.6,430.6 Z" id="Shape" fill="#3F3161"></path>
                <path d="M1033.3,423.2 C1031.7,423.2 1033.6,419.8 1036.4,413.7 C1039.2,407.6 1042.7,403.2 1042.7,403.2 C1042.7,403.2 1043.8,392.1 1045.7,392 C1047.6,391.9 1044.9,400.6 1046,400.8 C1047.1,401 1049.3,396.9 1049.8,395.2 C1050.7,392.3 1051.8,387.7 1054,387.7 C1055.4,387.7 1052.3,394.1 1052,395.8 C1051.7,397.4 1055,393.3 1056,393.9 C1056.7,394.4 1049.1,400 1045.5,404.6 C1042.5,408.4 1040.1,412.1 1038,416.5 C1035.9,420.8 1034.8,423.2 1033.3,423.2 Z" id="Shape" fill="#3F3161"></path>
                <path d="M1046.3,408.2 C1045.1,407.2 1039.4,416.1 1039.9,416.5 C1040.4,416.9 1048.1,409.7 1046.3,408.2 Z" id="Shape" fill="#3F3161"></path>
                <path d="M1049,408.5 C1047.6,408.5 1049.5,401.1 1051.3,401.1 C1053.1,401.1 1050.9,408.5 1049,408.5 Z" id="Shape" fill="#3F3161"></path>
                <path d="M952.2,402.9 C947.5,403.1 939.8,404.9 935.4,409.8 C929.4,416.6 918.1,419.6 907.8,416.6 C901.6,414.8 896.1,422.1 893.6,415.6 C893.6,415.6 890.9,421.8 880,424.2 C869.1,426.6 860.5,427.5 860.5,427.5 C860.5,427.5 868.7,426.8 869,431.2 C869.1,434 862.3,436.6 849.9,438.4 C837.3,440.2 821.8,439.1 819.8,436.7 C814.8,430.8 840.6,427.2 840.6,427.2 C840.6,427.2 832.6,424.8 814.8,430.8 C797,436.8 776.7,438 759.1,423.2 C741.5,408.4 742.1,409.9 742.1,409.9 C742.1,409.9 737.8,416.3 729.2,410.4 C729.2,410.4 722,415.4 715.4,409.2 C715.4,409.2 712.4,407.8 708.1,410.1 C703.8,412.4 700.4,410.3 697.8,407.5 C695.2,404.7 687.3,405.8 681.8,407.7 C674.2,410.4 670.9,402.9 680.1,402.3 C688.9,401.8 689.3,401 692.7,399.2 C696.1,397.4 700.9,391.5 704.5,394 C704.5,394 705.1,375.5 725.4,370 C725.4,370 724,365.8 729.1,365.6 C734.1,365.4 730,363.6 731.4,360.6 C732.8,357.6 737.3,355.9 739.3,359.8 C739.3,359.8 741,355.5 744.9,355.5 C748.9,355.5 749.4,359.5 749.4,359.5 C749.4,359.5 752.4,358.5 752.3,361 C752.2,363.5 749.2,365 749.2,365 C749.2,365 753.1,363.4 753.2,367.4 C753.2,367.4 757.6,366.3 758.5,370.7 C759.1,373.8 757.3,376.1 757.3,376.1 C757.3,376.1 761,371.2 763.7,375.5 C763.7,375.5 767.1,370.8 770.5,375.7 C770.5,375.7 772.5,369.9 776.7,375.3 C776.7,375.3 776.8,369.3 781.9,373 C781.9,373 786.8,367.4 793.1,370.6 C799.3,373.8 800.7,369 802.6,365.8 C804.4,362.6 807.6,359.4 813.6,361.5 C813.6,361.5 815.1,351.8 829.5,357 C843.9,362.2 863.3,351.6 870.9,352.3 C878.8,353 881.9,359.4 881.9,359.4 C881.9,359.4 890.3,356.5 895.4,362.5 C900.5,368.5 903.7,369.7 910.4,365.8 L912,369.3 L916.3,365.9 L921.1,373.2 C921.1,373.2 925.8,376.3 932.4,371.3 C938,367 941.5,369.3 942.9,374.3 C943.5,376.5 947.1,376.7 949.2,373.1 C952,368.5 958,373.6 958,373.6 C958,373.6 954.4,360.8 953.3,358.5 C952.2,356.1 934.9,357.1 934.9,357.1 C934.9,357.1 935.6,354.1 934.8,351.9 C934.4,351 932.7,351.5 932.7,351.5 C932.7,351.5 934.9,349.1 939.6,347.7 C952.7,343.8 955,337.4 957.3,339.8 C957.3,339.8 961.8,337.2 964.9,340 C964.9,340 972.4,336 978.7,343.6 C985,351.2 989.7,358.9 988.1,367 C988.1,367 994.7,372.7 994.5,382.1 C994.3,391.6 992.6,385.3 991.3,385.3 C990,385.3 979.8,387.6 977.4,388.2 C973.1,389.2 969.5,388.2 968.4,375.6 C968.4,375.6 967.1,374.3 963.7,377.7 C963.1,378.3 961.7,379 960.9,380.2 C957.4,385.6 952.8,395.4 952.9,398 C952.6,400.9 952.2,402.9 952.2,402.9 Z" id="Shape" fill="#3F3161"></path>
                <path d="M874.9,305 C874.9,305 870.8,302.1 873.1,302.9 C875.4,303.7 874.2,299.9 876.6,296 C878.6,292.7 881.8,291.9 884.3,291.9 C887.5,291.9 889.8,293 892.1,295.6 C893.7,297.4 894.3,300.1 894.3,300.1 C894.3,300.1 903.3,296.1 906.2,292.9 C909.1,289.6 910.9,286.5 914.8,287.4 C918.7,288.3 918.4,294.5 920.5,294.8 C922.6,295.2 926.7,292.1 930,294.7 C932.4,296.6 931.1,299.1 933.2,299.4 C935.2,299.7 940.6,296.2 946.8,304.1 C946.8,304.1 971.9,279.2 1019.5,279.2 C1069.6,279.2 1106.2,279.2 1106.2,279.2 L1106.2,328.6 C1106.2,328.6 1071.5,321.4 1045.3,344.2 C1045.3,344.2 1039.6,340.5 1032.2,338.2 C1023.8,335.6 1013.2,334.2 1007.5,331.8 C996.8,327.3 983.3,312.5 964.6,310.7 C954.1,309.7 947.1,313.6 947.1,313.6 C947.1,313.6 943.2,319.4 938.2,319.3 C934.5,319.2 936.5,322 928.5,321.9 C925.1,321.8 927.2,324.6 926.1,326.6 C925,328.7 921.2,327.7 921.2,327.7 C921.2,327.7 922.8,331.1 918.6,332.4 C914.4,333.7 889.3,326.9 889.3,326.9 L880.2,313.2 L874.9,305 Z" id="Shape" fill="#3F3161"></path>
                <path d="M1034.9,270.8 C1034.9,270.8 1036.6,268.2 1038.1,265.8 C1039.6,263.4 1039.6,263.5 1030.7,263.5 L1011.2,263.5 C1010.5,263.5 1009.9,263.8 1009.4,264.3 L1003.1,270.9 L1034.9,270.8 Z" id="Shape" fill="#3F3161"></path>
                <path d="M695,430 C693.6,424.9 708.9,420.8 718.3,421.3 C727.8,421.7 732.9,424.2 735.3,427.3 C739.2,432.3 722.4,434.9 712.6,434.7 C703.6,434.5 695.4,431.5 695,430 Z" id="Shape" fill="#3F3161"></path>
                <path d="M821.2,492 C821.2,492 814.3,474.3 829.4,479.5 C829.4,479.5 833.8,469.3 844.4,467 C854.6,464.9 864.4,474.3 864.4,474.3 C864.4,474.3 860.4,466.7 851.3,460 C842.2,453.3 840.8,445.9 842.8,444.4 C844.8,442.9 853.1,457.9 855,457.7 C856.9,457.5 844.4,442.8 851.2,440.3 C858.1,437.7 858.8,450 860.1,453.7 C861.4,457.5 864.4,461.5 864.4,461.5 C864.4,461.5 859.9,444.6 867.9,443.9 C872.7,443.5 872.2,451.5 872.2,451.5 C872.2,451.5 873.2,444.8 878.5,444.1 C878.5,444.1 871.3,425.4 884.4,425.3 C896.6,425.2 882.4,455.5 877,463 C873.3,468 877.3,471.4 880.7,464.5 C883.6,458.6 888,462 888,462 C888,462 884.2,451.4 892.3,450 C900.5,448.6 902.7,460.2 902.7,460.2 C902.7,460.2 907.2,455.7 906.6,451.4 C906.6,451.4 902.5,455.5 899.7,448.4 C896.9,441.3 898,429.4 901.4,428.6 C904.8,427.8 906.6,446.1 906.6,446.1 C906.6,446.1 909.8,427.7 915.2,427.4 C920.7,427.1 911.4,447.3 912.2,447.6 C913,447.9 917.5,441 919.3,438 C921.1,435 918.7,448.4 918.7,448.4 C918.7,448.4 921.9,438 927.1,439.4 C932.3,440.8 927.1,451.8 927.1,451.8 C927.1,451.8 932.6,438.7 938.2,439.1 C943.8,439.5 936.6,455.9 936.6,455.9 C936.6,455.9 944.6,440.8 949.8,444.2 C953.8,446.8 945.4,452.3 941.6,466.2 C941.6,466.2 941,463 943,456.4 C943.9,453.4 945.4,451.5 944.5,451.1 C942.7,450.3 938,456.5 935.6,462.8 C930.6,476.2 915.2,479.6 915.2,491.9 L821.2,491.9 L821.2,492 Z" id="Shape" fill="#3F3161"></path>
                <path d="M863.9,473.8 C863.9,473.8 848.4,468.2 844.4,467.1 C840.3,465.9 838.4,463.3 839.7,461.3 C840.6,460 843.2,459.7 847.8,461.6 C855.7,464.8 863.9,473.8 863.9,473.8 Z" id="Shape" fill="#3F3161"></path>
                <path d="M874.4,437.5 C872.3,437.2 871.9,441.6 873.1,445.7 C873.1,445.7 877.7,438 874.4,437.5 Z" id="Shape" fill="#3F3161"></path>
                <path d="M919.9,437.8 C920.7,438.1 927.5,432.4 923.5,430.2 C919.5,427.9 918.3,437.1 919.9,437.8 Z" id="Shape" fill="#3F3161"></path>
                <path d="M961.7,420.1 C961.8,427.3 963.7,430.8 956.2,430.4 C948.7,430 945,430.8 942.6,430.4 C940.3,430.1 937.4,426.5 944.4,424.5 C951.3,422.5 952.1,420.1 952.1,420.1 L961.7,420.1 L961.7,420.1 Z" id="Shape" fill="#3F3161"></path>
                <path d="M1000.6,439.8 L991.9,443.8 C991.9,443.8 993.2,448 987.4,455.5 C987.4,455.5 989,456 992.7,456.9 C995.7,457.6 997.4,457.9 997.4,457.9 C997.4,457.9 998.5,456.4 1000.3,452.6 C1001.5,449.8 1003.2,448.4 1000.6,439.8 Z" id="Shape" fill="#3F3161"></path>
                <path d="M754.4,362.8 C753.1,362.7 753.3,366.2 754.1,366.3 C755,366.3 755.5,362.8 754.4,362.8 Z" id="Shape" fill="#3F3161"></path>
                <path d="M759.8,362.3 C758.1,361.6 754.4,366 756.1,366.8 C757.8,367.6 761.3,362.9 759.8,362.3 Z" id="Shape" fill="#3F3161"></path>
                <path d="M756,362.2 C757,362.2 756.5,361.1 756.9,359.1 C757.4,356.7 755.9,356.4 755,358.8 C754.3,360.9 754.9,362.2 756,362.2 Z" id="Shape" fill="#3F3161"></path>
                <path d="M1056,338.9 C1049.5,342.7 1048.7,334.9 1050.2,331 C1051.1,328.8 1047.5,327.2 1048.6,324 C1049.1,322.7 1050.4,321.5 1053.8,322.2 C1053.8,322.2 1051.6,318.2 1055,316.8 C1058.5,315.4 1060.2,319.6 1060.2,319.6 C1060.2,319.6 1058.7,314.7 1062.3,313.7 C1065,313 1066.5,315.7 1066.5,315.7 C1066.5,315.7 1067.7,312.2 1071,313.1 C1073.6,313.8 1074.2,317.7 1074.2,317.7 C1074.2,317.7 1074.3,312.6 1078,313.3 C1080.6,313.8 1080.1,317.9 1080.1,317.9 C1080.1,317.9 1082.4,314.1 1087.9,314.1 C1093.3,314.1 1101.3,322.4 1101.3,322.4 L1099,327.3 C1099.2,327.5 1077.9,326.2 1056,338.9 Z" id="Shape" fill="#CFF0FF"></path>
                <path d="M1011.5,333.1 C1003.2,330 999.1,327 990.8,321 C982.5,315 963.7,304.7 947.1,313.3 C947.1,313.3 945.3,316.3 941.6,318.2 C937.9,320.1 937.2,317.7 934.8,320.4 C932.4,323.2 927.5,320.5 926.8,322.4 C926.8,322.4 931.9,327.9 959.6,322.6 C979,318.9 992,325.7 998.9,328.5 C1005.7,331.3 1011.5,333.1 1011.5,333.1 Z" id="Shape" fill="#CFF0FF"></path>
                <path d="M1003.1,270.9 L1002.1,280.1 C1002.1,280.1 1009.8,279.2 1018.9,279.2 C1029.5,279.2 1035.1,279 1035.1,279 L1035,270.8 L1003.1,270.9 Z" id="Shape" fill="#E23B53"></path>
                <path d="M1046.7,259.4 C1046.7,259.4 1041.9,266.3 1040.5,268.5 C1040.1,269 1039.7,270.1 1039.7,271.4 C1039.7,273.8 1039.7,276.9 1039.8,279.1 C1043.2,279.1 1075.7,279.3 1075.7,279.3 L1075.7,269 L1046.7,259.4 Z" id="Shape" fill="#E23B53"></path>
                <path d="M874.1,356.5 C875,353.3 876.7,364.9 875.8,366.9 C875,368.9 872.2,363.5 874.1,356.5 Z" id="Shape" fill="#0062BA"></path>
                <path d="M915.5,492 C915.5,492 912,479.8 919.5,477.8 C926.7,475.9 923.5,488.7 929.5,487.7 C934,486.9 918.1,464.1 923.5,459.5 C926.4,457 927.9,468.8 931.7,469 C935.4,469.1 929.6,457.2 933.6,456.9 C936,456.7 937.5,460.8 939.2,467.8 C940.4,472.7 942.2,472.9 943.4,469 C944.7,464.8 945.6,462.8 950.2,456.8 C954.2,451.5 958.2,450.4 959.6,452.7 C961.3,455.6 959.9,462.9 961,462.9 C961.9,463 962,458.4 963.3,454 C964.6,449.6 967.3,445.3 972.1,446.2 C975.9,446.9 977.6,451.6 976.8,456.2 C976,460.9 973.9,465.4 973.9,465.4 C973.9,465.4 979.6,452.9 983.6,455.7 C987.6,458.5 979.9,469.5 979.9,469.5 C979.9,469.5 990.1,458.7 994.1,464 C996.4,467.1 990.8,472.6 985.5,478 C975.7,488 972,497.8 972,497.8 L915.5,492 Z" id="Shape" fill="#0062BA"></path>
                <path d="M994,480.3 C997.1,479.5 999.8,476.9 1003.3,471.5 C1007.9,464.3 1003.7,462.9 997.9,470.6 C992.2,478.3 992.6,480.7 994,480.3 Z" id="Shape" fill="#0062BA"></path>
                <path d="M825.1,407.5 C823.5,406.3 821,405.7 817.2,407.4 C815,408.4 815.6,403.2 811.3,403.3 C806.9,403.4 802.3,406.9 799.8,409.2 C797.3,411.5 794.8,407.8 788.1,406.2 C784,405.2 780.4,406.3 780,402.4 C779.6,398.5 778.4,397.5 772.4,396.3 C766.5,395.2 768.4,391.8 770.8,387.2 C772.5,383.9 763,385.6 763.4,383.8 C764.8,378.2 770.6,378.2 774.2,377.3 C778.5,376.2 780.4,374.8 781.5,372.3 C783.4,367.9 785,369.3 785.8,369.3 C786.6,369.3 786.4,368.2 787,367.3 C788.6,364.9 791.3,366.4 790.6,370.8 C790.1,374 789,378.7 787.1,379.4 C784.4,380.4 787.9,372.4 787,372.1 C786.1,371.8 780.1,377.9 778.4,385.3 C777.5,389.1 777.9,394.1 779.5,394.5 C780.9,394.9 779.4,392.5 781,385.1 C782.2,379.4 784.4,377.6 784.4,377.6 C784.4,377.6 783.8,381.3 785.3,384.8 C786.7,388.3 784.9,391.7 786.3,392.5 C787.7,393.3 787.7,387.7 791.2,387.4 C794.7,387.1 796.1,391.6 796.1,391.6 C796.1,391.6 794.2,382.7 795.6,376.7 C797,370.7 796.2,381.5 796.7,385 C797.3,388.5 798.8,372.9 802.2,373.8 C804.1,374.3 799.8,380 799.3,385.1 C799,388.5 800.1,383.6 801.9,380.7 C804,377.1 805.9,379.2 802.9,383.6 C801.3,386 800.7,389.2 800.7,389.2 C800.7,389.2 804.1,390 803.4,394.3 C803.4,394.3 805,392.8 806.6,392.8 C806.6,392.8 806.4,391.8 806.5,390.7 C806.7,386.7 810.5,387.4 809.8,390.9 C809.5,392.2 809,393.1 809,393.1 C809,393.1 811.4,393.7 811.9,396.4 C811.9,396.4 817.3,396.5 821.4,399.3 C825.6,402.2 827.1,404.4 827.8,406.8 C828.3,409.4 826.3,408.4 825.1,407.5 Z" id="Shape" fill="#0062BA"></path>
                <path d="M788.5,381.9 C789.1,379.8 791.2,376.6 792.9,373.5 C794.2,371 793.5,376.8 792.7,380.1 C791.9,383.3 790.5,385.3 788.8,386.9 C787.2,388.1 787.8,384.5 788.5,381.9 Z" id="Shape" fill="#0062BA"></path>
                <path d="M805.8,371.1 C804.3,371 803.6,373.8 805,373.9 C806.4,374 807.2,371.2 805.8,371.1 Z" id="Shape" fill="#0062BA"></path>
                <path d="M808.3,375.4 C806.3,375.2 805.5,379.1 807.4,379.2 C808.8,379.2 809.8,375.5 808.3,375.4 Z" id="Shape" fill="#0062BA"></path>
                <path d="M806.9,381 C807.3,379.3 801.4,386.3 804.3,390.2 C805.6,392.1 806.6,382 806.9,381 Z" id="Shape" fill="#0062BA"></path>
                <path d="M813.2,390.7 C812.4,390.9 812,394.5 814.3,394.8 C817.5,395.2 815.1,390.3 813.2,390.7 Z" id="Shape" fill="#0062BA"></path>
                <path d="M773.2,336.5 C771.9,337.4 774.6,341.7 776.6,340.4 C778,339.5 774.5,335.5 773.2,336.5 Z" id="Shape" fill="#0062BA"></path>
                <path d="M829.1,319.7 C824.1,320.2 821.6,322 820,324.1 C819.1,325.3 816,325.6 812.8,325.4 C809.5,325.1 808,326.9 807.1,328 C806.2,329.1 804.4,327.8 802.1,328 C799.8,328.2 798.6,331.1 797.3,331.1 C796,331.1 796.5,326.7 795.6,326.6 C794.2,326.3 794.9,332.4 793.9,333.5 C792.9,334.6 792.5,332.7 792.9,330.4 C793.3,328.1 793.2,326.9 792.2,326.5 C791.2,326.1 789.9,333.6 789.1,333.5 C788.3,333.4 788.3,329.9 789.7,326.3 C790.8,323.5 789,322.1 787.7,324 C786.4,325.9 785.2,336.2 785.2,336.2 C785.2,336.2 783.4,328.6 784,327.1 C784.5,325.7 786.3,326 785.1,322.4 C784,318.9 783.6,324.6 783.6,324.6 C783.6,324.6 782.9,323.7 782.1,324.2 C781.8,324.4 781.7,326.6 782.7,328.8 C784.1,331.8 783.2,336.4 782.6,339.3 C781.6,344.3 783.4,328.2 780.6,326.3 C777.8,324.4 780.2,330.7 780.2,330.7 C780.2,330.7 778.2,330.3 778.6,333.5 C778.9,335.7 780.8,334.7 780.8,334.7 L780.9,339.5 C780.9,339.5 777.6,337.2 777,329.8 C776.4,322.4 773,326.7 775.5,330.3 C775.5,330.3 773.5,331.1 774.2,333.3 C774.9,335.6 776.5,335.2 776.5,335.2 C776.5,335.2 777,337.9 778.7,338.9 C778.7,338.9 776.4,342.5 780.6,343 C780.6,343 783.1,347.6 787.4,352 C787.4,352 785.9,341.6 789,341.4 C792.1,341.1 791.6,352.9 791.6,352.9 C791.6,352.9 792.5,342.9 799.8,339.5 C803,338 802.4,339 799.7,342.7 C798.6,344.2 797.5,346.1 797.3,348.1 C797.3,348.1 801.6,341 802.7,341.7 C803.9,342.4 800.6,345.7 798.7,349.3 C796.8,352.9 794.8,360 796.2,360 C797.4,360 796.7,357.2 798.6,353.1 C800.4,348.9 803.1,345.9 803.1,345.9 C803.1,345.9 803,343.7 804.1,342.6 C805.2,341.5 804.2,339.2 805.5,338.8 C806.8,338.3 806.4,341.7 805.3,343.5 L807.1,341.7 C807.1,341.7 806.5,340.7 807.4,339.3 C808.3,337.9 809,336.3 809.5,336.4 C810,336.5 809.1,339.2 809.3,339.1 C809.5,339 811.9,336.5 812.8,337.3 C813.8,338.1 809.4,342.7 807.6,342.2 L804.2,346 C804.2,346 808.1,343.4 809.1,344.2 C810.1,345 802.6,347.5 802.4,348.3 C802.1,349.1 803.2,349 805,347.9 C806.8,346.8 806.9,349.6 803.7,350.6 C800.5,351.6 799.6,353.5 799.2,355.8 C798.9,357.4 798.7,358.5 799.6,358.5 C800.6,358.5 801.9,355.5 803.9,354 C807.4,351.2 810.5,352 812.7,351.7 C815,351.3 816.7,349.7 817.3,345.6 C817.9,341.5 821.6,334.4 828.1,332.6 C839.3,329.5 840.1,323.4 840.1,323.4 C840.1,323.4 835.2,319.1 829.1,319.7 Z M793,343.2 C791.7,341.9 795,334.4 796.5,334.7 C798.9,335.3 794.2,344.4 793,343.2 Z" id="Shape" fill="#0062BA"></path>
                <path d="M871.5,385.3 C874,385 872.9,379.2 871.9,373.4 C870.9,367.7 869.4,362.5 867,363.5 C864.6,364.5 866.2,385.9 871.5,385.3 Z" id="Shape" fill="#0062BA"></path>
                <path d="M879.5,384.6 C877.3,385.7 875.7,378.7 874.7,375.4 C873.7,372.2 871.7,364.8 870.2,361 C870.2,361 872.6,362.3 874.4,369.3 C876.1,375.8 877.8,377.4 877.8,377.4 C877.8,377.4 876.7,369.9 877.9,363.5 C877.9,363.4 881.6,383.5 879.5,384.6 Z" id="Shape" fill="#0062BA"></path>
                <path d="M877.4,357.5 C877.4,357.5 878.5,359.5 879.5,365.2 C880.5,371 880.8,376.2 882.5,376.2 C883.7,376.2 885.9,374.2 885.3,369.6 C884.8,365.7 885.9,361.3 885.9,361.3 C885.9,361.3 882.4,366.3 882.6,371.1 C882.6,371.1 881.9,360.2 877.4,357.5 Z" id="Shape" fill="#0062BA"></path>
                <path d="M889.8,355.2 C889,354.9 886.3,362.5 886.7,368.8 C887.1,375.1 884.1,379.3 886,379.8 C888.6,380.5 891.7,376.5 897.3,377.5 C902.9,378.5 906.2,381.3 908.2,382.1 C910.2,382.9 906.9,380.8 907.2,375.3 C907.5,369.8 908.3,366.1 909.4,366.4 C910.5,366.7 909.8,378.8 909.8,378.8 C909.8,378.8 915.8,372 920.9,373.8 C926,375.5 933.7,373.1 934.1,370.3 C934.5,367.5 930.2,370.1 928.9,371.6 C928.9,371.6 927.8,370 924.6,373.3 C924.6,373.3 923.1,372.7 925.6,371 C928.1,369.3 927.5,366.7 925.8,366.6 C924.1,366.5 921.1,370.1 923.8,371.7 C923.8,371.7 922.9,373.2 921.6,373.2 C920.3,373.1 922.1,367.6 920.4,367 C918.7,366.4 918.3,368.6 918.3,368.6 C918.3,368.6 918.8,364.3 917,364.1 C915.2,363.9 912.1,368.3 912.1,368.3 C912.1,368.3 912.6,363.7 910.9,363.2 C909.2,362.7 907.7,365.1 906.2,368.8 C903.8,375 897.9,376.7 899.1,371.1 C900.3,365.5 900,363.2 899.2,362.9 C898.4,362.6 895.6,367.1 895.1,369.6 C894.6,372.1 891.9,371.4 893.2,367.3 C894.5,363.2 895,362 893.7,361.1 C892.3,360.2 889.4,366.3 889.4,369.2 C889.1,369 890.6,355.5 889.8,355.2 Z" id="Shape" fill="#0062BA"></path>
                <path d="M905.3,362.9 C903.5,361.8 899,371.8 901.5,372.1 C903.9,372.4 907.5,364.2 905.3,362.9 Z" id="Shape" fill="#0062BA"></path>
                <path d="M982.3,283 C984.2,282.8 986.2,281 989.9,280.8 C992,280.7 995.9,281.5 996.8,284.5 C997.8,287.8 997.5,292.7 992,292.7 C985.7,292.7 982.2,292.7 982.2,292.7 C982.2,292.7 983.1,296.2 979.7,297.1 C976.3,298 976.4,294.6 972.2,297.2 C969.9,298.6 966.8,298.8 966.6,296 C966.6,296 965.6,297.9 963.9,299 C962.8,299.6 960.9,300.5 959.2,299.8 C957.4,299 956.9,297.5 957.1,296.4 C957.3,294.6 959.1,293.3 960.5,292.8 C960.5,292.8 958.7,292.5 958.3,288.5 C957.9,283.8 963,277.8 969,279.3 C975.4,280.8 977.3,283.5 982.3,283 Z" id="Shape" fill="#0062BA"></path>
                <path d="M998.9,305.2 C1001.4,309.4 1007.2,308 1013.6,311.6 C1017.1,313.6 1024.4,314.9 1029.7,313.4 C1036.1,311.6 1039.1,308.3 1040,304.9 C1040,304.9 1041.4,306.2 1044.2,306.6 C1051,307.6 1055.1,303.8 1057.7,299.2 C1057.7,299.2 1060,301.1 1061.9,299 C1062.6,298.3 1063.7,296.3 1064.9,296.8 C1067.5,297.9 1069.5,296.1 1070.4,295.1 C1067.7,295.4 1065.5,291.7 1062.7,292.1 C1060.7,292.4 1060,294.6 1060,294.6 C1060,294.6 1055.8,291.8 1051.9,295.3 C1050.2,296.9 1046.6,301.5 1038.2,296.7 C1034.5,294.6 1029,295.5 1028.8,301.1 C1028.8,301.1 1024.9,297.1 1021.5,297.4 C1020,297.5 1018.6,298.7 1017.9,300.5 C1017.3,302 1016.4,302.2 1015.5,300 C1013.9,296.2 1009.1,295.5 1006.5,297.9 C1004.8,299.5 1004.6,302.3 1004.6,302.3 C1004.6,302.3 1003.3,300.3 1000.9,300.3 C999.1,300.4 997.6,302.9 998.9,305.2 Z" id="Shape" fill="#0062BA"></path>
                <path d="M927.4,321.8 C927.4,323.7 928.8,324.1 935.7,324.3 C953.5,324.8 971.7,318.6 987,323.9 C1002,329.1 1005.4,332.5 1018.4,334.5 C1036.4,337.2 1045.3,343.9 1045.3,343.9 C1045.3,343.9 1062.6,326.2 1093.3,327.2 L1095.8,356.4 C1095.8,356.4 1086.5,353.3 1074.6,355.4 C1067.8,356.7 1060.1,359.7 1052.9,366.1 C1043.1,374.8 1040.3,381.3 1038.4,385.5 C1036.4,389.7 1012.9,387.2 1012.9,387.2 C1012.9,387.2 1002.7,377.4 1009,372.5 C1015.4,367.6 1021.2,364 1021.2,364 C1021.2,364 1022,358.3 1019.2,358.2 C1017.6,358.1 1014.9,361.4 1012.1,363.3 C1011.7,363.6 1012,363.9 1011.6,364 C1011.2,364.1 1012.6,353.4 1012.2,353.4 C1011.4,353.4 1008.1,364 1007.4,364.1 C1005.1,364.6 1005,368.2 1002.1,368.5 C995.4,369.1 990.5,369.1 987.4,366.9 C987.4,366.9 997.4,360.9 994.2,355.8 C991,350.7 983,348.5 983.3,342.9 C983.7,335.7 980.4,330.3 972.2,330.1 L956.8,339.8 C956.8,339.8 956.6,338.2 950.2,342.7 C929.2,348.6 928.3,330.1 921,327.6 C922.9,327.9 925.2,327.4 925.9,325.9 C926.6,324.7 925.5,322.1 927.4,321.8 Z" id="Shape" fill="#0062BA"></path>
                <path d="M965.7,375.2 C965.7,375.2 956,381.6 951.4,391.1 C946.7,400.6 952.1,420.2 952.1,420.2 L961.8,420.2 C961.8,420.2 962,407.1 961.7,399 C961.7,399 969.3,391.3 970.5,391.9 C971.7,392.4 971.5,395.1 976.3,404.9 C981.3,415.1 981.2,416.5 982.7,418.9 C984.2,421.2 989.3,435.1 991.9,444 L1000.6,440 C1000.6,440 999.5,433.3 998.4,428 C996.8,420.3 992.7,413.8 992.7,413.8 C992.7,413.8 993,394.2 992.5,386.8 C992.5,386.8 992.7,384.1 988.3,385.3 C983.9,386.5 976.1,389.3 972.9,387.3 C969.3,385.1 968.1,375.5 968.1,375.5 C968.1,375.5 967.9,375.1 967.1,375.1 C966.9,375.1 966.8,374.9 966.5,375 C966.2,374.9 966,375 965.7,375.2 Z" id="Shape" fill="#CFF0FF"></path>
                <path d="M957.3,339.6 C957.2,338.2 955.4,338 954.9,342.9 C954.4,347.8 953.3,352.4 956.7,358.4 C960.1,364.3 959.1,374.2 968,375.3 C968,375.3 967.7,373.8 965.5,370.8 C963.2,367.8 958.4,352.3 959.3,344.4 L957.3,339.6 Z" id="Shape" fill="#0062BA"></path>
                <path d="M961.2,349.8 C961.2,349.8 959.8,347.3 960.6,344.4 C962.1,339.5 967.7,338.3 972.1,336.3 C976.6,334.3 981,332.6 981,332.6 C981,332.6 984.6,335.4 984.6,341.6 C984.6,342.1 986.9,344.6 988,345.9 C990.9,349.5 995.6,352.3 995,359.8 C994.5,366.4 987.4,366.8 987.4,366.8 C987.4,366.8 986.3,358 981.7,351.2 C977.1,344.4 973.1,338.2 967.1,340.4 C961.1,342.6 961.2,349.8 961.2,349.8 Z" id="Shape" fill="#CFF0FF"></path>
                <path d="M952.4,341.1 C949.8,343.1 950.5,346.5 951.5,347 C953.2,348 954.3,340 954.3,340 L952.4,341.1 Z" id="Shape" fill="#C2F0FF"></path>
                <path d="M945.6,326.9 C945.6,328.3 946.4,329.9 946.8,330.8 C947,331.3 947.1,332.2 947,333.1 C946.9,334 946.5,334.6 946.9,335.1 C947.5,335.8 948.6,335.4 949.7,336.3 C950.8,337.2 953.1,339.1 955.7,337.8 C958.3,336.5 955.6,341.8 956.7,344.5 C957.2,345.6 958.2,345.3 959.3,344.4 C959.9,340.9 964.5,338 962,339.1 C961.7,336.5 958.1,324.6 958.1,324.6 L945.6,326.9 Z" id="Shape" fill="#FFFFFF"></path>
                <path d="M962.9,320 C959.9,316.6 953.8,315.8 950.5,317.3 C946.6,319 941.5,324.3 945.6,326.8 C950.3,329.7 954.8,329.2 957.3,326.8 C957.3,326.8 957.1,328.1 957.3,330 C957.6,333.2 958.7,338.1 963.9,340.2 L981,332.7 C981,332.7 978.9,330.9 972.9,329.6 C967.8,328.5 966.8,324.5 962.9,320 Z" id="Shape" fill="#E23B53"></path>
                <path d="M832.3,337.7 C830.7,341.2 827.5,341.5 828.2,351.5 C828.6,356.7 828.2,363.4 828.2,363.4 C828.2,363.4 820.3,372.5 814.2,382.9 L825.9,385.3 C825.9,385.3 837.3,374.4 839.7,371.4 C842.2,368.3 842.5,363.3 842.5,363.3 L853.4,377.2 C853.4,377.2 840.9,392 836,404 L849.2,405 C849.2,405 848.4,409.1 851.2,410.6 C854,412.1 858.3,413.4 859.1,415.4 C859.1,415.4 860.7,414.5 858.6,412.4 C856.4,410.3 850.8,410.3 850.9,406.5 C851,402.7 861.8,391.6 867.4,384.7 C872.9,377.8 870.8,372 867.4,366.3 C864,360.6 859.4,349.9 859.4,349.9 C859.4,349.9 835.1,331.6 832.3,337.7 Z" id="Shape" fill="#1EAEF7"></path>
                <path d="M875.1,305 C875.1,305 876.8,305.9 878.5,305.6 C881,305.1 882.3,300.4 884.1,301.7 C885.3,302.5 883.9,304.4 885.1,304.5 C885.7,304.6 887.3,302.7 888,302.5 C888.7,302.3 890.4,303.4 891.3,303.3 C893,303.3 893.9,302.2 894.2,302 C893.8,302.9 893.7,303.4 893.3,304.2 C892.5,305.8 892,306.7 891.7,307.6 C891.3,309.1 891.8,310.6 891.4,311.4 C890.9,312.3 889.1,311.3 886.9,312.5 C886,313 883.1,314.7 881.7,313.5 C876.6,309.2 875.1,305 875.1,305 Z" id="Shape" fill="#1EAEF7"></path>
                <path d="M908.1,344.6 C911.3,346.4 914.9,347.8 917.6,347.7 C920.2,347.6 923.2,349.7 925.1,352.5 C927,355.3 927.2,358.7 923.8,358.9 C920.4,359.1 920.7,359.3 916.5,357.7 C913,356.3 907,354.3 902.7,352.5 L908.1,344.6 Z" id="Shape" fill="#1EAEF7"></path>
                <path d="M933.8,351.1 C927.6,352 924.1,352.6 920.7,350.6 C917.3,348.6 916.5,349.2 916.5,349.6 C916.5,350 917.1,350.6 918.2,351.2 C919.2,351.7 920.3,352.9 921.5,354.5 C924,357.8 924.9,358.4 928.4,357.9 C931.9,357.4 935.2,357.1 935.2,357.1 C935.2,357.1 935.9,350.8 933.8,351.1 Z" id="Shape" fill="#FFFFFF"></path>
                <path d="M910.6,355.6 C910.6,355.6 911,358.8 917.1,358.9 C923.1,359.1 913.7,354.4 910.6,355.6 Z" id="Shape" fill="#FFFFFF"></path>
                <path d="M908.1,344.6 C907.4,342.3 902.4,340.5 899.3,337.5 C894.1,332.5 889.8,326.1 888.5,323.9 C886.4,320.4 879.9,308 873.6,303.1 C872,301.8 864,302.6 864,302.6 C864,302.6 852.8,311.9 843.6,320.1 C840.9,322.6 839.7,326 837.7,328 C836,329.7 833.3,330 832.6,331 C827.7,337.7 826.2,341.3 832.6,347.5 C837.2,352 844.9,349.8 851.1,349.6 C852.4,349.6 854.5,349.6 856.5,350.7 C858.3,351.7 859.1,354.4 861.4,353.9 C864.7,353.2 866.6,340.2 872.7,338.8 C876.2,338 878.9,341.2 888.5,347.1 C893.4,350.1 900.1,352.1 900.1,352.1 C900.1,352.1 900.3,353.7 902.2,354.3 C904.1,354.9 909.2,348.3 908.1,344.6 Z" id="Shape" fill="#FFFFFF"></path>
                <path d="M977.7,377.7 C977.7,377.7 977.8,386.3 977.4,389.2 C977,392.2 972.2,395 972.7,398.4 C973.2,401.8 972.3,403.9 974.1,404.3 C975.9,404.7 978.2,404.5 981.3,397.2 C984.4,389.9 983.3,388 986.1,379.4 C986,379.3 981.7,376.8 977.7,377.7 Z" id="Shape" fill="#FFFFFF"></path>
                <path d="M872.3,338.9 C874.2,338.4 870.6,341.6 868,341.6 C864.4,341.7 858.7,341 854.3,336.5 C854.3,336.5 852.8,337.3 845.4,335.2 C839.1,333.4 839.8,329.9 839.1,328.3 C839.1,328.3 835.6,333.3 828.3,334.4 L827.4,332.4 C827.4,332.4 836.3,329.5 838.9,323.4 C838.9,323.4 840.1,312.9 846.9,307.4 C853.7,301.8 859.5,296.8 866.3,302.3 C873,307.7 873.6,308 873.4,310 C873.4,310 882,309.2 882.9,314.7 C882.9,314.7 879.5,311.5 873.4,314.3 C873.4,314.3 867.5,325.1 863.3,329.3 C860.3,332.3 859,335.6 859,335.6 C859,335.6 858.9,338.5 866.5,339.3 C868.2,339.5 870.3,339.5 872.3,338.9 Z" id="Shape" fill="#E23B53"></path>
                <path d="M854.5,336.5 C853.5,341.5 847.5,346.6 847.5,346.6 L850,347.9 C856.5,342.2 857.3,336.5 857.3,336.5 L854.5,336.5 L854.5,336.5 Z" id="Shape" fill="#E23B53"></path>
                <path d="M126,294.1 C125.1,290.9 126.8,287.9 130.5,288.8 C132.9,289.4 132.6,292 132.6,292 C132.6,292 133.2,291.3 134.3,290.9 C135.8,290.4 138.2,291.6 137.2,294.1 C137.2,294.1 139.8,292.2 140.1,294.4 C140.1,294.4 146.8,292.5 146.9,295.4 C147,298.3 142,297.5 138.1,296.6 C134,295.8 127.2,298.1 126,294.1 Z" id="Shape" fill="#3F3161"></path>
                <path d="M142.4,303.8 C142.9,302.4 142.1,300.4 137.8,303.2 C133.5,306 129.7,308.8 131.8,310.4 C133.9,312 138.2,307.5 138.8,308.7 C140.3,312.1 146.7,311.2 148.5,307.2 C148.5,307.2 152.9,310.1 157,309.3 C161.1,308.4 170.3,312.1 172.7,312.8 C172,309.5 171.3,308.1 166.8,308 C166.8,308 167.4,304.7 163.6,304.6 C161.7,304.5 161.6,301.8 158.6,301 C155,300 154.3,302.3 153.1,302.4 C151.9,302.5 149.3,299.1 146.2,300.9 C145,301.5 142.4,303.8 142.4,303.8 Z" id="Shape" fill="#3F3161"></path>
                <path d="M171.6,301.3 C173.6,302.7 176.7,301.2 179.4,300.7 C182.2,300.1 186.7,299.8 187,298.4 C187.5,296.3 182.6,296.6 181.7,296.4 C180.5,296.1 179.7,294.9 178.1,294.6 C176.1,294.2 174.7,295.4 173.8,297.4 C171.2,296.8 169.7,299.9 171.6,301.3 Z" id="Shape" fill="#3F3161"></path>
                <path d="M152.2,293.4 C153.3,295 156.1,294.2 158,291.8 C160.3,289 161.8,290.9 165.1,291.3 C169.7,291.8 173.5,288.9 168.5,287.5 C166.2,286.8 165.1,286.7 164.7,285.9 C164,284.5 161.9,282 158.9,282.5 C157.4,282.7 156.8,283.6 156.8,283.6 C156.8,283.6 156,281.2 153,281.4 C153,281.4 153.8,286.7 154.2,289.8 C152.1,290.5 151.4,292.3 152.2,293.4 Z" id="Shape" fill="#3F3161"></path>
                <path d="M1046.7,259.4 L1052.4,267.9 C1052.9,268.6 1053.6,269 1054.4,269 L1075.6,269 C1075.6,269 1074.3,266 1073.4,264.2 C1072.5,262.4 1071.5,261.1 1066.7,260.5 C1064.2,260.2 1059.8,259.6 1054.3,258.9 C1049.9,258.3 1047.7,257.7 1046.7,259.4 Z" id="Shape" fill="#3F3161"></path>
                <path d="M1014.7,368.5 C1011.8,370 1008.8,368.5 1007.2,370.1 C1005.6,371.7 1003.2,373.8 1000.3,374.2 C997.2,374.6 999.6,375.7 1002.2,375.6 C1004.8,375.5 995.7,376.1 995.7,379 C995.7,380.9 998.3,381.5 1000.3,381.5 C1003.5,381.5 995.6,384.9 1000,387.7 C1000,387.7 994.4,390.1 997.7,393.8 C997.7,393.8 993,398.2 1001.1,397.9 C1009.1,397.5 1010.1,393.5 1014.7,394.9 C1019.4,396.3 1029.5,389 1034.4,393.9 L1038.4,385.7 C1038.4,385.7 1031.2,388.9 1024.3,384.9 C1024.3,384.9 1013.2,386.6 1010.3,380.5 C1007.4,374.3 1014.7,368.5 1014.7,368.5 Z" id="Shape" fill="#3F3161"></path>
                <path d="M1055.2,355.3 C1050.4,358.5 1050.3,355.8 1043.5,356.6 C1040.1,357 1043.6,353.1 1049.9,353.5 C1051.4,350.7 1054.5,348.7 1057.3,350.1 C1064.6,353.8 1054,347.9 1057.2,344.4 C1059,342.5 1061.6,347.5 1063.1,347.4 C1064.6,347.3 1058.9,341.4 1063.6,340.3 C1067.3,339.4 1068.4,344.5 1068.4,344.5 C1068.4,344.5 1068.6,335.9 1072.6,336.6 C1076.6,337.3 1073.1,343.9 1073.1,343.9 C1073.1,343.9 1076.4,335 1080.6,336.6 C1084.1,337.9 1080.1,346.3 1080.1,346.3 C1080.1,346.3 1084.1,339 1086.3,340.7 C1088.5,342.4 1082.4,349.9 1084.2,350.3 C1086,350.7 1085.9,345.3 1088.4,344.7 C1090.9,344.1 1092.1,349.7 1089.4,352.8 C1089.4,352.8 1092.2,348.9 1094.9,350.7 L1094.9,357.1 C1094.9,357.1 1087.8,353.7 1074.6,355.6 C1065.4,356.9 1055.7,364 1055.7,364 C1055.7,364 1058.6,359.7 1063.5,358.2 C1063.5,358.1 1061.7,351 1055.2,355.3 Z" id="Shape" fill="#3F3161"></path>
                <path d="M1001.2,346 C1000.6,346.2 1000,368 1002.5,368.3 C1005,368.6 1003.3,363.9 1005.9,350.7 C1005.9,350.7 1002.9,356.5 1002.8,362.2 C1002.8,362.2 1002.4,357.2 1002.3,352.7 C1002.1,349 1002.2,345.7 1001.2,346 Z" id="Shape" fill="#3F3161"></path>
                <path d="M1009.1,348.1 C1011,347.8 1008.3,360.2 1009.6,355.8 C1011,351.2 1012.9,346 1015.2,344.4 L1012.8,357.1 C1012.8,357.1 1015.8,349 1021.8,349.1 C1021.8,349.1 1017.1,357.3 1018.9,357.6 C1019.6,357.7 1022,350.6 1024,351.3 C1026,352 1023.8,356.5 1023.8,356.5 C1023.8,356.5 1025.6,355.5 1025.7,357.6 C1025.7,357.6 1027,357.5 1027.9,357.9 C1029,358.4 1029.3,359.4 1029,360 C1028.7,360.7 1027.8,361.1 1027.1,360.6 C1026.5,360.2 1025.9,359.2 1025.9,359.2 C1025.9,359.2 1026,361.8 1024.9,361.9 C1023.8,362 1023.9,360.8 1023.4,360.8 C1022.9,360.9 1023,364.7 1021.1,364.8 C1019.2,364.9 1021.3,360 1020.5,359.8 C1019.5,359.6 1018.1,365 1017.1,365 C1015.4,365 1017,361.9 1015.6,361.8 C1014.3,361.8 1013.6,367.8 1011.1,367.7 C1009.5,367.6 1012.5,357.4 1011.5,357.3 C1010.6,357.2 1010,359.7 1008.3,365.6 C1007.5,368.3 1005.5,367.9 1004.8,366.7 C1003.7,365 1007.2,348.4 1009.1,348.1 Z" id="Shape" fill="#3F3161"></path>
                <path d="M141,266 C141,268.6 140.3,268.9 139.4,268.9 C138.5,268.9 137.8,268.5 137.8,266 C137.8,263.6 138.5,263.1 139.4,263.1 C140.3,263.1 141,263.6 141,266 Z" id="Shape" fill="#CFF0FF"></path>
                <path d="M145.4,266 C145.4,268.6 144.7,268.9 143.8,268.9 C142.9,268.9 142.2,268.5 142.2,266 C142.2,263.6 142.9,263.1 143.8,263.1 C144.7,263.1 145.4,263.6 145.4,266 Z" id="Shape" fill="#CFF0FF"></path>
                <path d="M149.7,266 C149.7,268.6 149,268.9 148.1,268.9 C147.2,268.9 146.5,268.5 146.5,266 C146.5,263.6 147.2,263.1 148.1,263.1 C149,263.1 149.7,263.6 149.7,266 Z" id="Shape" fill="#CFF0FF"></path>
                <path d="M154.3,266.7 L144.7,266.7 L143,266.7 L133.4,266.7 C133.4,266.7 132,268.2 132,271.4 C132,272.5 132.1,273.3 132.3,274 C132.6,275.2 133.8,276.1 135,276.1 L143,276.1 L144.7,276.1 L152.6,276.1 C153.9,276.1 155,275.3 155.3,274 C155.5,273.3 155.6,272.4 155.6,271.4 C155.6,268.1 154.3,266.7 154.3,266.7 Z M135,274.3 C134.1,274.3 133.4,273.9 133.4,271.4 C133.4,269 134.1,268.5 135,268.5 C135.9,268.5 136.6,269 136.6,271.4 C136.6,273.9 135.9,274.3 135,274.3 Z M139.4,274.3 C138.5,274.3 137.8,273.9 137.8,271.4 C137.8,269 138.5,268.5 139.4,268.5 C140.3,268.5 141,269 141,271.4 C141,273.9 140.3,274.3 139.4,274.3 Z M143.8,274.3 C142.9,274.3 142.2,273.9 142.2,271.4 C142.2,269 142.9,268.5 143.8,268.5 C144.7,268.5 145.4,269 145.4,271.4 C145.4,273.9 144.7,274.3 143.8,274.3 Z M148.2,274.3 C147.3,274.3 146.6,273.9 146.6,271.4 C146.6,269 147.3,268.5 148.2,268.5 C149.1,268.5 149.8,269 149.8,271.4 C149.8,273.9 149,274.3 148.2,274.3 Z M152.6,274.3 C151.7,274.3 151,273.9 151,271.4 C151,269 151.7,268.5 152.6,268.5 C153.5,268.5 154.2,269 154.2,271.4 C154.1,273.9 153.4,274.3 152.6,274.3 Z" id="Shape" fill="#FFFFFF"></path>
                <path d="M145.4,253.1 L142.1,253.1 L142.1,252.6 C142.1,251.4 142.3,249.7 143.8,249.7 C145.2,249.7 145.4,251.2 145.4,252.6 L145.4,253.1 Z M143.1,252.1 L144.4,252.1 C144.3,250.7 144,250.7 143.8,250.7 C143.6,250.7 143.2,250.7 143.1,252.1 Z" id="Shape" fill="#FFFFFF"></path>
                <path d="M640,430.9 C630.7,433.6 687.3,431.3 692.5,442.5 C694.9,447.5 697.7,449 699.9,450.2 C710.5,455.9 739.3,453.1 739.5,457.4 C739.6,460.8 710.3,457.4 712.5,466.9 C713.8,472.8 730.5,473.1 735.4,472.8 C742.7,472.4 747.3,469.3 751.2,466.5 C759.2,460.8 768.3,463.7 770.5,464.3 C778.5,466.5 787.3,467.1 794.6,461.3 C803.9,453.9 837,461.6 847.7,456.8 C847.7,456.8 844.4,453.5 842.6,450.1 C842.6,450.1 837.7,447.4 831,449.5 C824.3,451.5 830.2,442.3 822.3,441.6 C814.4,440.9 812.4,448.2 807.7,444.2 C805.1,442 810.1,437 813.6,432 C816.3,428 816.8,423.5 813.9,421.2 C810.7,418.7 805.3,420.3 801.4,422.1 C797.3,424.1 794,426.3 792.9,424.2 C790.8,420.1 789.2,413.6 778.8,416.1 C768.4,418.7 762,431.8 746.1,437.3 C730.2,442.8 698,440.9 695,430 C695,430 687.2,433.2 677.2,428.2 C667.2,423.2 649.2,428.2 640,430.9 Z" id="Shape" fill="#FFFFFF"></path>
                <path d="M646.9,420.3 C647.9,421.3 650,420.9 652,420 C655,418.6 659.3,415.9 665.5,414.9 C675.8,413.2 677.7,417.2 678.3,419.6 C678.8,422.1 681.4,422 687.2,420.2 C693,418.5 700.3,422.4 696.7,426.4 C696.7,426.4 701,422.6 713.6,421.3 C713.6,421.3 714.4,414.3 705.1,416.5 C695.9,418.8 696.5,411.7 693.9,410.9 C691.3,410.1 681.2,412.9 676.1,407.6 C676.1,407.6 671.6,411.7 663.6,412.6 C658.1,413.2 650.8,414.8 647.9,416.9 C646.6,417.9 645.9,419.3 646.9,420.3 Z" id="Shape" fill="#FFFFFF"></path>
                <path d="M808.6,408.3 C804.8,408 800.3,414.2 804.8,414.7 C809.3,415.3 813.3,408.6 808.6,408.3 Z" id="Shape" fill="#FFFFFF"></path>
                <path d="M710.6,400.1 C707.7,398.8 700.9,405.3 702.7,407.6 C704.4,410 713.2,401.3 710.6,400.1 Z" id="Shape" fill="#FFFFFF"></path>
                <path d="M722.4,408.3 C725.5,409 728.4,404.7 726.5,404.1 C724.4,403.4 719.4,407.6 722.4,408.3 Z" id="Shape" fill="#FFFFFF"></path>
                <path d="M739.6,402.8 C737.6,402.7 730.9,408.8 735.1,409.5 C739.3,410.1 742.7,403 739.6,402.8 Z" id="Shape" fill="#FFFFFF"></path>
                <path d="M735,396.7 C733.7,396.5 731.1,399.7 732.9,399.9 C734.7,400.1 736,396.9 735,396.7 Z" id="Shape" fill="#FFFFFF"></path>
                <path d="M722.1,358.2 C718.2,356.9 716.2,359.5 714.8,358.8 C714.1,358.5 715.2,355.3 713.8,354.4 C712.2,353.4 708.6,353.8 703.4,357.7 C696,363.3 696.1,354.2 684.3,358.7 C678.7,360.8 670.6,369.1 660.7,368.9 C639.7,368.4 618.6,381.4 599.5,387 C623,381.9 646.8,386 659.3,382 C672,377.9 672.8,371.1 686.5,373.8 C700.3,376.5 706.1,382.2 712.7,376.9 C719.3,371.6 725.3,370.2 725.3,370.2 C725.3,370.2 723.8,366.3 729,365.8 C728.9,365.6 727.6,360 722.1,358.2 Z M685.7,366.3 C685.9,363.5 694.3,367.8 700.9,363.9 C703.9,362.2 706.4,358.7 707.8,357.6 C709.7,356.1 712.8,355.6 712.4,358.8 C712.2,360 711.8,361.2 713.6,361.7 C715,362.1 716.8,361.2 718.6,360.7 C722.5,359.5 725.1,364.5 719.9,367.6 C717.4,369.1 710.7,371.3 704,371.2 C694.8,371 685.6,367.9 685.7,366.3 Z" id="Shape" fill="#FFFFFF"></path>
                <path d="M678.5,334.6 C673.7,337 671.9,330 686.4,328.7 C700.9,327.4 706.1,331.2 725.2,332.5 C744.3,333.8 753.9,325.1 760.4,329.3 C763.6,331.3 761.3,336.5 764.2,337.8 C767.1,339.1 769.7,335.9 772.9,337.7 C773.1,338.4 773.2,338.6 773.5,339.1 C771.4,341.3 764.4,346.1 751.4,359.6 C750.6,359.4 749.9,359.5 749.3,359.6 C748.8,357 746.7,355.7 744.2,355.7 C732.7,355.7 720,350.2 710.7,341.9 C710.7,341.9 731.8,354.4 752.4,349.5 C773,344.6 764.8,338.8 750.5,341.9 C750.5,341.9 762.2,335 754.4,334.3 C746.6,333.7 744.2,341.1 728.2,338.5 C712.1,335.7 694.8,326.5 678.5,334.6 Z" id="Shape" fill="#FFFFFF"></path>
                <path d="M668.8,335.4 C665.5,336.5 666.6,339.4 670,338.1 C673.4,336.8 671.7,334.4 668.8,335.4 Z" id="Shape" fill="#FFFFFF"></path>
                <path d="M660.2,339 C658,339.8 658.5,341.5 660.7,340.4 C662.7,339.4 662.4,338.2 660.2,339 Z" id="Shape" fill="#FFFFFF"></path>
                <path d="M901.9,424.6 C898.1,425.5 894,422.4 900.4,420.2 C906.9,417.9 907.2,423.3 901.9,424.6 Z" id="Shape" fill="#FFFFFF"></path>
                <path d="M909,419.6 C909,419.6 914.8,416.7 917.2,413.8 C919.6,410.9 925.3,406.4 925.9,410.2 C925.9,410.2 935.7,404.7 932.9,410.6 C930.1,416.5 940.6,408.2 942.2,410.2 C943.8,412.2 938.6,417.7 932.4,416.5 C926.2,415.3 915.5,425.4 909,419.6 Z" id="Shape" fill="#CFF0FF"></path>
                <path d="M933.2,399.7 C930.2,399.5 923.9,405 928.5,405.1 C933.2,405.3 935,399.9 933.2,399.7 Z" id="Shape" fill="#FFFFFF"></path>
                <path d="M919.2,405.2 C916.7,404.2 914.5,410.2 916.6,410.2 C918.7,410.2 921.4,406 919.2,405.2 Z" id="Shape" fill="#FFFFFF"></path>
                <path d="M935.9,395.8 C934.1,395.4 933.8,397.5 935,397.6 C936.1,397.8 937.2,396.1 935.9,395.8 Z" id="Shape" fill="#FFFFFF"></path>
                <path d="M996.6,396.8 C999,400.2 1002.6,398.3 1004.9,399.3 C1007.2,400.3 1008,401 1010,401 C1013.8,400.9 1013.5,398 1017,398.7 C1025.6,400.5 1029.8,396.6 1028.5,394.9 C1027.5,393.6 1023.4,395.9 1021.1,395.5 C1018.1,395 1016.7,393.3 1013.7,393.2 C1011.4,393.1 1009.3,395.3 1007.8,396.2 C1006.3,397.1 1004.4,393.2 1002.6,394.9 C998.6,398.8 996.6,396.8 996.6,396.8 Z" id="Shape" fill="#CFF0FF"></path>
                <path d="M1011.7,388 C1010.1,387.5 1006.3,392.3 1009.2,392.4 C1012,392.6 1013.1,388.4 1011.7,388 Z" id="Shape" fill="#FFFFFF"></path>
                <path d="M1016.7,381.3 C1014.6,381.2 1013.6,384.4 1015.5,384.3 C1017.4,384.2 1018.9,381.3 1016.7,381.3 Z" id="Shape" fill="#FFFFFF"></path>
                <path d="M1020.4,386.8 C1018.1,386.4 1016.9,389.7 1019.2,389.8 C1021.5,389.9 1022.8,387.2 1020.4,386.8 Z" id="Shape" fill="#FFFFFF"></path>
                <path d="M75.6,321.6 C80.6,319.5 90.7,312.3 96.7,314.2 C102.7,316.1 102.1,321.6 108.3,320.4 C114.5,319.2 118.7,315.2 124.2,319.7 C129.7,324.2 130.9,328.1 135.4,327.7 C139.9,327.3 129.6,333.6 121.8,329.2 C114,324.7 111.9,324.6 105.1,327.3 C98.3,330 94.7,322.7 90.9,322.4 C87.1,322.1 82.9,324.3 75.6,321.6 Z" id="Shape" fill="#FFFFFF"></path>
                <path d="M78.2,313.3 C89.6,307.6 90.7,312.4 99.6,306.9 C104.7,303.8 94.9,313 100.9,310.8 C107,308.6 110.3,305.3 115.4,299.3 C114.3,298 111.8,298.4 109.6,300.2 C107.7,301.7 109.7,298.1 107.6,298.2 C105,298.4 102,303.1 95,305.6 C88,308.1 86.2,303.8 77.8,307.8 C62.6,315 48.2,304.2 48.2,304.2 C48.2,304.2 53,319.3 54.6,319.5 C66.3,320.6 72.8,316 78.2,313.3 Z" id="Shape" fill="#CFF0FF"></path>
                <path d="M187.1,304.8 C196.9,303.6 197.5,302.5 201.3,300.5 C207.4,297.2 213.2,301.7 216.7,302.6 C220.1,303.5 220.6,299.6 223.5,298.8 C225.5,298.2 227.2,298.8 228.5,299 C229.8,299.2 230.7,298.7 229.4,298.3 C227.8,297.8 226.8,297.5 225.6,297.2 C222.6,296.5 220.9,297.4 219,299.9 C217.4,302 212,295.4 204.8,296.1 C197.8,296.7 193.9,303.6 187.1,304.8 Z" id="Shape" fill="#CFF0FF"></path>
                <path d="M174.5,312.3 C174.8,309.6 181.9,307.5 186.5,309.9 C194.4,314.1 197,310.5 196.8,312.3 C196.7,313.4 195,314.5 190.6,314.2 C188.8,314.1 186.7,313.1 185.7,313.2 C184.3,313.4 185.5,314.3 187,314.9 C188.5,315.5 190.4,315.9 189,316.8 C186.2,318.6 174.1,316.6 174.5,312.3 Z" id="Shape" fill="#CFF0FF"></path>
                <path d="M198.4,310.2 C196.7,311.6 198,312.1 199,311.3 C199.9,310.4 199.6,309.2 198.4,310.2 Z" id="Shape" fill="#CFF0FF"></path>
                <path d="M232.2,298.3 C230,298.3 230.7,299.5 232,299.5 C233.3,299.4 233.7,298.3 232.2,298.3 Z" id="Shape" fill="#CFF0FF"></path>
                <path d="M142.6,327.5 C138.6,326.8 138.6,330.3 142.2,330.2 C145.8,330.1 144.8,327.9 142.6,327.5 Z" id="Shape" fill="#FFFFFF"></path>
                <path d="M134.3,320.4 C131.2,320.3 131.4,323.8 134.3,323.8 C137.2,323.7 136.3,320.4 134.3,320.4 Z" id="Shape" fill="#FFFFFF"></path>
                <path d="M113,294.6 C110.7,295.5 110.6,298.3 112.5,297.2 C114.5,296.1 114.1,294.2 113,294.6 Z" id="Shape" fill="#CFF0FF"></path>
                <path d="M735.9,449.6 C735.9,449.6 770.4,452 794.6,433.5 C818.9,415 810.6,459.7 735.9,449.6 Z" id="Shape" fill="#CFF0FF"></path>
                <polygon id="Shape" fill="#FFFFFF" points="134.4 281.4 152.9 281.4 153.7 286.7 133.5 286.7"></polygon>
                <path d="M776.4,351 C775.5,350.8 776,349.4 776.9,349.4 C777.9,349.5 777.3,351.2 776.4,351 Z" id="Shape" fill="#E23B53"></path>
                <path d="M775.5,345.7 C774.7,345.8 774.3,347.5 775.5,347.5 C776.7,347.4 776.2,345.7 775.5,345.7 Z" id="Shape" fill="#E23B53"></path>
                <path d="M779.1,346.3 C778.5,346 777.3,347.2 777.9,347.5 C778.5,347.8 779.9,346.6 779.1,346.3 Z" id="Shape" fill="#E23B53"></path>
                <path d="M781.3,347.9 C780.3,347.7 779.5,350.2 780.5,350.2 C781.6,350.3 782.3,348 781.3,347.9 Z" id="Shape" fill="#E23B53"></path>
                <path d="M908.2,459.5 C906.4,459.1 903.8,463.1 906.3,463.7 C908.8,464.4 909.7,459.9 908.2,459.5 Z" id="Shape" fill="#E23B53"></path>
                <path d="M914.7,454.1 C913.5,453.7 910.8,459.1 912.1,459.4 C913.4,459.7 915.9,454.5 914.7,454.1 Z" id="Shape" fill="#E23B53"></path>
                <path d="M920.6,455.9 C919.4,457.7 921,459.6 922.3,457.1 C923.5,454.6 922,453.8 920.6,455.9 Z" id="Shape" fill="#E23B53"></path>
                <path d="M919.9,450.9 C920.8,451.3 922.3,448.5 921.1,448.4 C919.9,448.2 919,450.5 919.9,450.9 Z" id="Shape" fill="#E23B53"></path>
                <path d="M914.2,463.4 C912.2,462.9 909.5,468.4 912.1,469 C914.7,469.5 916.3,463.9 914.2,463.4 Z" id="Shape" fill="#E23B53"></path>
                <path d="M909,297.2 C907.8,297.2 907.3,298.9 908.2,298.9 C909.3,298.9 909.8,297.2 909,297.2 Z" id="Shape" fill="#E23B53"></path>
                <path d="M911.8,301.8 C910.9,301.8 910.4,303.6 911.2,303.5 C912,303.4 912.5,301.8 911.8,301.8 Z" id="Shape" fill="#E23B53"></path>
                <path d="M916.3,298.2 C915.4,298 915.1,299.2 915.7,299.3 C916.3,299.4 916.9,298.4 916.3,298.2 Z" id="Shape" fill="#E23B53"></path>
                <path d="M910.4,306 C909.6,305.8 909.2,307.2 910.1,307.3 C911,307.4 911.2,306.2 910.4,306 Z" id="Shape" fill="#E23B53"></path>
                <path d="M917,305.4 C916.3,305.4 916.3,306.5 917,306.6 C917.7,306.8 918.1,305.4 917,305.4 Z" id="Shape" fill="#E23B53"></path>
                <path d="M922.9,301.8 C922.1,301.8 922,303 922.5,303 C923.3,303.1 923.7,301.8 922.9,301.8 Z" id="Shape" fill="#E23B53"></path>
                <path d="M923.3,308.9 C922.4,308.8 922.2,310.6 923.3,310.6 C924.4,310.6 924.2,308.9 923.3,308.9 Z" id="Shape" fill="#E23B53"></path>
                <path d="M930.9,304.7 C930.1,304.2 927.9,305.6 929,306.4 C930.1,307.2 931.7,305.2 930.9,304.7 Z" id="Shape" fill="#E23B53"></path>
                <path d="M933.3,314.2 C931.9,313.6 931,314.8 932.1,315.3 C933.2,315.8 934.4,314.7 933.3,314.2 Z" id="Shape" fill="#E23B53"></path>
                <path d="M926.7,317.7 C925.6,317.2 924.9,319.2 926.1,319.4 C927.3,319.6 927.6,318.1 926.7,317.7 Z" id="Shape" fill="#E23B53"></path>
                <path d="M940.1,310 C938.8,309.5 938.2,311.6 939.6,311.7 C941,311.8 941,310.3 940.1,310 Z" id="Shape" fill="#E23B53"></path>
                <path d="M1046.3,419.4 C1044.6,419.3 1042.9,423.3 1046,423.2 C1049,423.1 1048,419.5 1046.3,419.4 Z" id="Shape" fill="#E23B53"></path>
                <path d="M1046.1,429.2 C1043.9,428.9 1041.8,433.2 1044.4,433.4 C1047,433.7 1047.9,429.5 1046.1,429.2 Z" id="Shape" fill="#E23B53"></path>
                <path d="M1054.6,423.2 C1053.3,421.8 1050.9,424.8 1052.4,425.6 C1053.9,426.3 1055.9,424.6 1054.6,423.2 Z" id="Shape" fill="#E23B53"></path>
                <path d="M1060,424.8 C1058.9,424.7 1056.7,426.8 1058.5,427.2 C1060.3,427.6 1061.1,424.8 1060,424.8 Z" id="Shape" fill="#E23B53"></path>
                <path d="M1062.9,420.7 C1061,420 1062.9,416.1 1065.3,417.5 C1067.6,418.9 1064.3,421.2 1062.9,420.7 Z" id="Shape" fill="#E23B53"></path>
                <path d="M1052.2,432.8 C1050.7,432.3 1048.6,435.6 1051.4,435.9 C1054.3,436.2 1053.9,433.3 1052.2,432.8 Z" id="Shape" fill="#E23B53"></path>
                <path d="M1055,428.4 C1053.6,428.8 1053.7,430 1055,430.1 C1056.3,430.2 1055.8,428.1 1055,428.4 Z" id="Shape" fill="#E23B53"></path>
                <path d="M1065.3,428.9 C1063.7,427.7 1061.5,430.9 1063.4,431.4 C1065.2,431.9 1066.5,429.8 1065.3,428.9 Z" id="Shape" fill="#E23B53"></path>
                <path d="M1075.9,425 C1073.6,425 1069.2,428.4 1073,428.9 C1076.8,429.4 1078.2,425 1075.9,425 Z" id="Shape" fill="#E23B53"></path>
                <path d="M1078.6,432.2 C1077,431.4 1074.8,434.8 1077,435.3 C1079.2,435.8 1080.3,433 1078.6,432.2 Z" id="Shape" fill="#E23B53"></path>
                <path d="M1085.7,430.3 C1084,430 1082.7,432.5 1085.3,432.7 C1087.8,432.9 1087.1,430.6 1085.7,430.3 Z" id="Shape" fill="#E23B53"></path>
                <path d="M1073.2,301 C1072.3,300.9 1072.4,302.1 1073.2,302.1 C1074,302.1 1074.1,301.1 1073.2,301 Z" id="Shape" fill="#E23B53"></path>
                <path d="M1077.4,301.1 C1076.5,301 1076.6,302.3 1077.4,302.3 C1078.2,302.3 1077.9,301.2 1077.4,301.1 Z" id="Shape" fill="#E23B53"></path>
                <path d="M1074.1,304.1 C1073.4,303.9 1073.3,305.3 1074.1,305.2 C1074.9,305.1 1074.7,304.3 1074.1,304.1 Z" id="Shape" fill="#E23B53"></path>
                <path d="M1078.6,306 C1077.8,305.5 1076.9,307.2 1077.9,307.2 C1078.9,307.2 1079.3,306.5 1078.6,306 Z" id="Shape" fill="#E23B53"></path>
                <path d="M1080.8,303.7 C1080.1,303.9 1080.3,305.1 1081,304.8 C1081.7,304.5 1081.5,303.6 1080.8,303.7 Z" id="Shape" fill="#E23B53"></path>
                <path d="M1083.7,299.7 C1083.4,298.9 1081.6,299.7 1082,300.5 C1082.4,301.3 1084,300.4 1083.7,299.7 Z" id="Shape" fill="#E23B53"></path>
                <path d="M1002.2,283 C1001.5,282.9 1001,284.2 1001.8,284.1 C1002.6,284 1002.9,283.1 1002.2,283 Z" id="Shape" fill="#E23B53"></path>
                <path d="M1000.8,287.1 C1000,287 1000,288.3 1000.8,288.3 C1001.6,288.3 1001.7,287.2 1000.8,287.1 Z" id="Shape" fill="#E23B53"></path>
                <path d="M1002.6,286 C1002.3,286 1002.3,286.8 1002.6,286.7 C1002.9,286.6 1002.9,286 1002.6,286 Z" id="Shape" fill="#E23B53"></path>
                <path d="M1006.2,286.5 C1006,285.9 1004.6,286.7 1004.9,287.2 C1005.2,287.7 1006.5,287.1 1006.2,286.5 Z" id="Shape" fill="#E23B53"></path>
                <path d="M1006.1,283 C1005.4,282.7 1004.7,283.8 1005.6,283.9 C1006.5,284 1006.4,283.2 1006.1,283 Z" id="Shape" fill="#E23B53"></path>
                <path d="M1011.6,286.8 C1010.8,286.5 1010,287.7 1011,288 C1012,288.3 1012.1,287 1011.6,286.8 Z" id="Shape" fill="#E23B53"></path>
                <path d="M1014.9,282.4 C1014,282.4 1013.5,283.6 1014.6,283.5 C1015.7,283.4 1015.6,282.4 1014.9,282.4 Z" id="Shape" fill="#E23B53"></path>
                <path d="M1007.8,289.1 C1007.2,289.1 1007.4,289.7 1007.8,289.7 C1008.2,289.7 1008.1,289.1 1007.8,289.1 Z" id="Shape" fill="#E23B53"></path>
                <path d="M791.4,392.2 C791,391.5 789,392.8 790,393.4 C791,394 791.6,392.7 791.4,392.2 Z" id="Shape" fill="#E23B53"></path>
                <path d="M794.3,391.6 C793.6,391.6 793.2,393 794,393 C794.8,392.9 794.8,391.6 794.3,391.6 Z" id="Shape" fill="#E23B53"></path>
                <path d="M793.1,395.3 C793.7,395.8 792.6,397 791.8,396.4 C791.3,396.1 792.3,394.7 793.1,395.3 Z" id="Shape" fill="#E23B53"></path>
                <path d="M796.1,394.6 C795.5,394.6 795.3,395.7 796.1,395.6 C796.9,395.5 796.9,394.6 796.1,394.6 Z" id="Shape" fill="#E23B53"></path>
                <path d="M798.2,391.4 C797.4,390.9 796.2,393.1 797.4,393.2 C798.5,393.3 798.9,391.8 798.2,391.4 Z" id="Shape" fill="#E23B53"></path>
                <path d="M1076.7,282.6 C1076.7,282.6 1070.7,283.4 1070.2,276.7 C1069.9,272.6 1072.4,269.6 1075.2,268 C1081,264.5 1087.5,265.4 1090.9,268.6 C1093.4,271 1095.9,271.5 1098.9,271.8 L1098.9,285.3 C1098.8,285.2 1080.7,292.2 1076.7,282.6 Z" id="Shape" fill="#0062BA"></path>
            </g>
        </g>
    </g>
</svg>