<?xml version="1.0" encoding="UTF-8"?>
<svg width="1025px" height="484px" viewBox="0 0 1025 484" version="1.1" xmlns="http://www.w3.org/2000/svg" xmlns:xlink="http://www.w3.org/1999/xlink">
    <!-- Generator: Sketch 46.2 (44496) - http://www.bohemiancoding.com/sketch -->
    <title>Artboard</title>
    <desc>Created with Sketch.</desc>
    <defs></defs>
    <g id="Page-1" stroke="none" stroke-width="1" fill="none" fill-rule="evenodd">
        <g id="Artboard" fill-rule="nonzero">
            <g id="header-bg-starteogdrive" transform="translate(-27.000000, -46.000000)">
                <g id="bakke" transform="translate(0.000000, 283.000000)">
                    <polygon id="Shape" fill="#EFEFEF" points="0.8 0.5 0.8 246.5 176.8 246.5 1059.4 246.5 1055.8 0.5 851.6 14.3 841.8 16.5 752.5 21 548.3 0.5 192.1 0.5"></polygon>
                    <path d="M951.2,69.4 C1011.8,85.8 1052.3,151 983.3,185.8 C960.9,197.1 918.9,203.9 924.1,208.3 C932.3,215.4 1019.7,225.2 1074.8,230.4 C1074.8,202.3 1091.3,131.1 1091.3,90.6 C1036.2,73.2 973.6,63.9 951.5,61 C945.9,60.3 951.2,69.4 951.2,69.4 Z" id="Shape" fill="#CFF0FF"></path>
                </g>
                <g id="Layer_15" transform="translate(3.000000, 0.000000)">
                    <rect id="Rectangle-path" fill="#FFFFFF" x="30" y="45" width="1020.8" height="256.6"></rect>
                    <polygon id="Shape" fill="#CFF0FF" points="0.7 0.5 0.7 252.6 76.7 252.6 1056.4 252.6 1056.4 0.5 102.7 0.5"></polygon>
                    <circle id="Oval" fill="#FFC41E" cx="592.8" cy="158.7" r="42.2"></circle>
                    <path d="M12.6,62.6 C12.6,62.6 -10.8,28.3 240,118.4 C306,142.1 377.9,192.2 529.7,150.1 C599.9,130.6 643.2,149.5 693.7,163.5 C744.2,177.6 793.9,153.7 842.3,133.5 C890.5,113.4 995.9,107.5 1036.4,153.1 C1076.9,198.7 1047.6,279.4 1047.6,279.4 L73.3,259.9 L9,273.2 L12.6,62.6 Z" id="Shape" fill="#FFFFFF"></path>
                    <path d="M645.1,318.1 C613,291.1 724.8,293.1 764.5,303.4 C814.3,316.3 869.6,329.8 881.2,348.7 C889.1,361.7 870.1,403.7 772,396.4 C754.1,395.1 736.9,370.8 720.6,354.3 C691.6,325 662.5,332.6 645.1,318.1 Z" id="Shape" fill="#CFF0FF"></path>
                    <path d="M829.2,210 C838.2,209.3 847,207.2 855.9,206.8 C855.9,206.7 856,206.6 856.1,206.5 C860.1,204.8 862.7,201.2 866.2,198.8 C869.2,196.7 873.2,196.4 876.8,196.4 C883,196.4 889.6,197.1 893.6,202.3 C897.5,207.3 897.8,214.1 896.2,220 C894.4,227 889.8,232.9 884.4,237.6 C883.2,238.6 882,239.5 880.8,240.4 L1102.1,266.7 L1083.8,153.7 C1083.8,153.7 1024,119.1 959.4,119.1 C919,119.1 882,149.4 854.2,172.1 C837.5,185.7 826,196.4 796,196.4 C790,196.4 805.6,197.4 816.9,201.1 C821.2,202.5 822.1,207.2 825,208.1 C827.5,208.9 829.1,209.3 829.1,209.3 L829.2,210 Z" id="Shape" fill="#6A6A6A"></path>
                    <path d="M865.9,238.6 L879.3,240.2 C880.7,239.2 882.1,238.2 883.4,237.1 C888.7,232.7 876.3,197.5 870.2,198 C866.2,198.4 866.7,199.1 863.8,201.8 C861.7,203.7 859.8,205.6 857.3,206.9 C857.5,207.2 857.3,207.7 856.9,207.7 C847.5,208 838.4,210.2 829.1,211 L828.5,234.1 L828.6,246.4 C828.6,246.4 833.3,248.2 858.9,248.2 C872.5,248.1 865.9,238.6 865.9,238.6 Z" id="Shape" fill="#CFF0FF"></path>
                    <path d="M668.7,203.8 L694.5,214.2 L769.8,209.8 L814.6,196.5 C814.6,196.5 852.1,199.8 812.6,199.8 C736,199.8 745.4,167.3 715.3,177.5 C684.3,188 684.1,174.6 661.8,174.2 C651.1,174 637.1,181.4 627.7,188 C621,192.6 614.1,198.8 614.1,198.8 L670.6,201.2" id="Shape" fill="#6A6A6A"></path>
                    <path d="M285.1,301.6 C379.2,358.9 501.5,392.3 551.1,403.7 C626,420.9 678.2,429.6 804.5,421.9 C860.8,418.4 874.4,409.6 886.4,400.2 C902.1,383.5 892,376 892,376 L916.7,355.9 C916.7,355.9 707.5,371.1 661.9,370.2 C616.3,369.3 543,363.6 479.4,357.4 C415.8,351.2 285.1,301.6 285.1,301.6 Z" id="Shape" fill="#FFFFFF"></path>
                    <path d="M860.4,316.9 C853.8,310 848.4,306.2 844.1,304.2 L844.1,306.5 L789.6,289.7 L780.5,290.2 L767.6,262.8 C759.2,260.3 748.6,253.2 731,244.4 C722.5,240.2 717.5,245.1 718.1,235.4 C719.1,219.2 689.4,240.7 680.8,236.7 C666.9,230.2 660.3,221.6 655.1,220.5 C650.7,219.6 645.5,216.1 639.5,213.8 C622,206.8 593.8,200.7 570.4,194.4 C567.9,193.7 564.6,192.9 562.1,192.3 C419.5,161.4 301.4,190.9 222.7,217.6 C222.7,217.6 222.7,217.6 222.7,217.6 C162.1,234.7 74.7,260 21.3,266.6 C8.5,268.2 6,315.1 6,315.1 L30.3,327.7 C30.3,327.7 161.2,279.7 306,322 C372.3,341.4 551,405.7 698.5,405.7 C923.8,405.7 902.1,369 902.1,369 C902.1,369 879.8,337.3 860.4,316.9 Z" id="Shape" fill="#CFF0FF"></path>
                    <polyline id="Shape" fill="#FFFFFF" points="917.4 212.1 1012 215 1012 297.2 910 272.5 917.4 212.1"></polyline>
                    <path d="M885.1,447.4 C884.9,451.1 882.1,453.4 875.4,453.9 C872.9,454.1 863.5,455 855.2,454.8 C852.3,454.7 850.2,453.9 847.9,453.4 C844.7,452.8 841.7,452.3 841.5,450.5 C841,446.3 845.5,444.8 851.5,443.6 C858.6,442.1 859.3,440.9 863.1,439.9 C869.3,438.3 878.7,434.6 883.3,436.9 C884.6,437.5 885.1,436.7 885.1,438.6 C885.3,441 885.1,446.7 885.1,447.4 Z" id="Shape" fill="#0062BA"></path>
                    <path d="M738.3,424.2 C720.5,424.2 706,438.6 706,456.5 C706,474.4 720.4,488.8 738.3,488.8 C756.2,488.8 770.6,474.4 770.6,456.5 C770.6,438.6 756.1,424.2 738.3,424.2 Z M738.3,479.4 C725.6,479.4 715.3,469.1 715.3,456.4 C715.3,443.7 725.6,433.4 738.3,433.4 C751,433.4 761.3,443.7 761.3,456.4 C761.3,469.1 751,479.4 738.3,479.4 Z" id="Shape" fill="#6A6A6A"></path>
                    <path d="M840.2,419 C826.3,417.1 813.4,427.7 811.3,442.8 C809.2,457.9 818.7,471.7 832.6,473.7 C846.5,475.7 859.4,465 861.5,449.9 C863.6,434.8 854,421 840.2,419 Z M833.6,465.8 C823.7,464.4 816.9,454.6 818.4,443.8 C819.9,433 829.1,425.4 839,426.8 C848.9,428.2 855.7,438 854.2,448.8 C852.7,459.6 843.5,467.2 833.6,465.8 Z" id="Shape" fill="#6A6A6A"></path>
                    <path d="M791.5,250.2 C791.5,250.2 789,247.4 782.6,247.4 C778.6,247.4 774.5,247.5 772,248.4 C768.7,249.6 767.2,250.6 762.3,253 C756.2,256 757.9,253.5 757.9,253.5 C757.9,253.5 769,256.5 775.2,265.8 C777.7,269.7 778.3,272.5 778.3,272.5 L796.3,272.5 C796.3,272.5 810.4,272.5 812,272.5 C813.6,272.5 815.1,272.1 816.1,271.4 C818.1,270.2 821.2,268.2 822.4,267.3 C826.7,264 824.3,257.6 818.5,257.6 C812.8,257.6 799,254.8 799,254.8" id="Shape" fill="#FFC41E"></path>
                    <path d="M799.1,254.8 L804.2,253.6" id="Shape" fill="#6A6A6A"></path>
                    <path d="M840.4,237.3 C843.9,235.8 841.9,233.6 844.8,230 C846.6,227.7 853.1,219.3 857.7,218.9 C864,216 864,214.1 867.9,210.8 C870.2,208.9 871.7,210.1 870.9,211.5 C870.3,212.5 874.4,219.4 875.1,218.7 C877.1,216.7 878,202.3 877.5,200.7 C877.5,200.7 882,198.7 878.6,197.9 C878.6,197.9 868.8,199.3 869.6,196.1 C871.8,188 867.5,190.6 863.5,189.9 C860,189.3 858.5,186 858.4,182.4 C858.2,178.9 856.1,176.4 854.2,175.5 C852.7,174.8 847.4,173.1 845,178.4 C843.6,184 842.7,185.8 842.8,196.5 C843,207.2 834.5,205.2 834.1,213.8 C833.7,220.2 834.3,235.1 834.3,235.1 C834.3,235.1 837.1,235 838.3,235.6 C839.8,236.4 839.2,237.8 840.4,237.3 Z" id="Shape" fill="#00ADF3"></path>
                    <path d="M873.1,238.7 C872.9,238.4 873.2,236.3 861.4,236 C854.1,240.5 847.8,246.3 828.6,246.3 L802.1,255.5 L802.2,255.5 C802.2,255.5 810.6,257.2 820.7,258 C834.4,260.1 847.7,256 853.7,257.4 C866,260.3 865.5,263.8 875.7,273.9 C876.4,273.4 870,261.3 870.5,260.8 C874.3,257.2 878.2,244.4 873.1,238.7 Z" id="Shape" fill="#EFEFEF"></path>
                    <path d="M797.4,250.2 L799.1,254.9 L802.1,255.6 C802.1,255.6 802.1,234.6 802.1,231.2 C802.1,227.8 804.4,225.4 806.4,223.9 C807.7,223 810.8,220.6 813,219 C814.3,218 815.3,216.2 815.3,213.7 C815.3,211.2 815.4,199.9 815.4,199.9 L796.4,220.2 L791.4,250.3" id="Shape" fill="#EFEFEF"></path>
                    <path d="M950.3,349.8 C950.3,349.8 950.3,362.5 944.2,377.4 C938.1,392.3 938.1,402.8 938.1,402.8 L960,458.6 L936.7,470.9 C936.7,470.9 920.1,443 911.9,431.3 C901.5,416.2 897,398 899.3,386.9 L888.2,400.5 L885.2,439.8 L863.4,439.9 L861,390.9 L896.3,349.8 L950.3,349.8 L950.3,349.8 Z" id="Shape" fill="#FFC41E"></path>
                    <circle id="Oval" fill="#6A6A6A" cx="802.7" cy="270.9" r="6.6"></circle>
                    <path d="M678.7,207.2 C678.7,207.2 689.5,191.2 708.5,191.1 C716.4,191.1 721.6,193.9 725.4,198.5 C727.8,201.4 727.8,202.9 729.3,202.9 C730.8,202.9 731.7,201.5 734.2,199 C739.5,193.6 746.7,190.6 758.6,191.1 C777.6,191.9 784.5,208.1 784.5,208.1 L735.8,225.7 L691.9,216.7 L678.7,207.2 Z" id="Shape" fill="#CFF0FF"></path>
                    <path d="M962.1,180.1 C961,189.3 942.6,196.6 942.5,205.8 L992.5,204.7 L1058.9,147.2 L1060,113.8 C1044,114.1 1036.7,131.5 1030.3,137.7 C1023.9,143.9 1015.8,151.1 987.7,141.6 C981,139.3 975.6,153.9 968.1,155.4 C964.7,163.2 963.1,171.8 962.1,180.1 Z" id="Shape" fill="#0062BA"></path>
                    <path d="M833.9,388 C833.9,388 837.9,396.3 835.7,400.3 C834.1,403.1 819.5,414 815.3,419.5 C811.2,425 807.5,433.7 807.4,458.2 C807.4,458.2 793.4,459.5 791.8,459.7 C790.2,459.9 789.5,458.8 789.2,456.6 C789,454.4 786.5,430.5 786.5,430.5 L779.9,427.5 L774.9,406.7 L784.2,394.5 L801.4,391.8 L833.9,388 Z" id="Shape" fill="#0062BA"></path>
                    <polygon id="Shape" fill="#6A6A6A" points="802.6 466.2 806.9 466.2 810.3 468.4 810.3 472.3 797.8 476"></polygon>
                    <path d="M839.8,447.4 C843,448.8 847.3,450.6 851.1,451.9 C854.5,453.1 854.8,454.5 854.8,456.1 C854.8,459.5 854.8,464.6 854.8,464.6 L849.1,464.8 C849.1,464.8 850.5,457.9 847.6,455.4 C844.6,452.9 839,450.1 836.3,449.6 C836.3,449.6 836,447.7 836.8,447 C837.4,446.5 839.1,447.1 839.8,447.4 Z" id="Shape" fill="#FFC41E"></path>
                    <ellipse id="Oval" fill="#0062BA" transform="translate(854.386500, 468.226450) rotate(-73.817716) translate(-854.386500, -468.226450) " cx="854.3865" cy="468.22645" rx="10.3002155" ry="9.20019251"></ellipse>
                    <path d="M835.2,308.3 C844.6,308.2 846.6,295.9 846.6,295.9 C840.8,299.2 834.4,298.2 831.6,296.6 C827.3,294.1 828.3,288.2 823.9,285.3 C820.2,283 814.6,282.6 811.8,281.6 C806.8,279.9 810,272.1 802.2,268.4 C796.1,265.5 793.4,270 790.6,269.3 C786.9,268.3 789.9,263.6 785.4,262.5 C781.6,261.5 776.8,264.9 773.6,261.4 C772.3,260 770,263.3 767.8,262.6 L778.4,294.5 C778.4,294.5 784.6,289.7 789.8,291.5 C794.3,293.1 800.2,295.3 807.8,295.8 C812.7,303.5 829,308.4 835.2,308.3 Z" id="Shape" fill="#00ADF3"></path>
                    <path d="M896,203.4 C889.7,199.9 881.1,194.1 882.3,185.8 C883.5,177.4 893.7,181.9 897,177.3 C900.3,172.7 899.3,169.6 905.6,165.8 C911.9,162 913.5,160.1 914.8,156.7 C916,153.4 919.2,144.3 930,148.7 C940.8,153.1 941.3,144.7 946.8,141.2 C952.1,137.8 959.1,139.5 963.2,148 C963.2,148 971.4,136.5 986.5,141.4 C998.3,145.2 1002.1,159.7 993.1,167.8 C990.2,170.4 987.6,170.8 981.5,171.9 C981.5,171.9 986.5,174.6 986.8,179.2 C987.2,184.6 983.8,189.3 977.2,188.9 C967.3,188.3 961.2,189.8 957,193.5 C956.2,194.2 951.1,195.9 951,196.9 C949.9,202.4 949,206 948.3,195.9 C947.9,190.9 945.5,186.3 946.5,182.1 C947.5,177.9 948.9,171.5 938.5,171.1 C928.5,170.7 930.6,179.6 932.6,183.5 C935.2,188.5 938.7,191.4 926.1,191.4 C917.2,191.4 921.4,198.9 919.2,202.4 C917,205.7 902.5,206.9 896,203.4 Z" id="Shape" fill="#00ADF3"></path>
                    <path d="M794.6,329.7 C794.6,329.7 796.8,327.9 797.2,330.6 C797.6,333.3 799.4,343.4 799.4,343.4 L812.2,333.7 C812.2,333.7 815,331.5 808.6,323.8 C802.2,316.1 801.6,315.4 801.6,315.4 L794.6,329.7 Z" id="Shape" fill="#0062BA"></path>
                    <path d="M721.2,390.7 C721.2,390.7 714.9,389.2 713.3,379.2 C713.3,379.2 704.3,379.3 706.8,369.5 C708.8,361.5 718.1,362.7 720,367.6 C720,367.6 728.2,362.2 735.4,368.3 C735.4,368.3 739.3,362 744.4,367.1 C748.6,371.3 743.5,376.8 739.9,376.3 C739.9,376.3 741.4,380.7 739.6,385.2 C739.6,385.2 749.9,385.1 751.1,389 C752.3,392.9 747.8,394.9 743.6,394.2 C743.6,394.2 746,397.5 745.4,399.9 L748.7,410.8 L748.2,422.4 C748.2,422.4 734.3,424.4 734,424.4 C733.7,424.4 721.1,420 721.8,415.2 C722.1,413.1 719.6,407.4 722.2,405.4 C726.6,401.9 737,402.8 737,402.8 L720.1,402.8 C720.1,402.8 717.7,406.1 714.1,409 C712.2,410.6 707.8,411.4 705.5,410.3 C702.6,408.8 702.5,404.5 707.9,399.1 C713.9,393.1 721.2,390.7 721.2,390.7 Z" id="Shape" fill="#FFC41E"></path>
                    <path d="M1033.2,323.8 C1033.2,323.8 997.6,330.4 996.5,312.9 L982.6,302 L901,286.8 C901,286.8 873,284.6 882.4,291.5 C896.2,301.6 973.4,340.4 1056.5,332.9 L1056.5,326 L1033.2,323.8 Z" id="Shape" fill="#0062BA"></path>
                    <path d="M736.4,424.8 L736.6,402.9 C736.6,402.9 723.4,402.9 721.1,402.9 C718.8,402.9 718.2,403.6 718.2,411.2 C718.2,418.8 718.3,420 720.9,420.9 C722.7,421.5 727.7,423.5 730.4,424.5 C732.4,425.1 734.1,426.1 736.4,424.8 Z M726.1,419.3 C726.1,419.3 722.3,418.9 722.3,415.1 C722.3,412.9 722.3,411.1 722.3,405.9 L726.1,405.9 L726.1,419.3 Z M733,421.9 L729,420.2 L729.2,406 L733,406 L733,421.9 Z" id="Shape" fill="#00ADF3"></path>
                    <path d="M570.5,194.3 C574.7,190.1 581,185.7 592.2,188.5 C599.4,190.2 603.5,198.7 612.1,196.3 C628.7,191.6 626.4,182.7 646.7,183.8 C660,184.6 663.9,197.5 670.8,201.2 C674.4,203.1 679.7,199.8 687.8,205.4 C695.9,211 694,212.1 701.1,211.6 C710.7,210.9 720.3,215.1 724,222.4 L721.2,224 C721.2,224 716.4,215.3 707.5,217.4 C698.7,219.5 695.1,231.2 695.1,231.2 C695.1,231.2 683.3,222.6 675.8,235.3 C675.8,235.3 657.1,217.2 570.5,194.3 Z" id="Shape" fill="#00ADF3"></path>
                    <polygon id="Shape" fill="#FFFFFF" points="751.1 231.1 751.1 241.5 760.3 241.5 760.3 235.3"></polygon>
                    <path d="M1004.7,220.1 L1047.9,202.2 L1060.8,205.5 L1055.2,139.1 C1055.2,139.1 1030.4,137.9 1028.2,164.4 C1027.2,176.5 1021.5,167.5 1009.5,173.2 C997.4,178.9 995.5,189.9 995.5,189.9 L1043.5,196.8" id="Shape" fill="#00ADF3"></path>
                    <path d="M913,304.1 C913,304.1 948.8,316.1 990.4,323.8 C1019,329 1049.7,333.8 1056.4,332.9 L1057.6,355.6 C1057.6,355.6 979,351.8 935.6,336 L913,304.1 Z" id="Shape" fill="#CFF0FF"></path>
                    <path d="M931.2,334.6 C931.2,334.6 878.9,335.3 931.4,341.9 C984.3,348.5 1057.5,365.2 1057.5,365.2 C1057.5,365.2 1057,362 1057.6,355.6 C1019.2,351.8 960.7,342.2 931.2,334.6 Z" id="Shape" fill="#00ADF3"></path>
                    <path d="M839,304.5 L811.5,328.1 C811.5,328.1 813.6,331.8 812.1,333.7 L827.2,336.3 L851.6,319.5 L839,304.5 Z" id="Shape" fill="#6A6A6A"></path>
                    <path d="M879.4,328.3 C879.4,328.3 875.7,354.9 874.5,360 C873.3,365.1 860.6,384.6 860.6,384.6 C860.6,384.6 845.1,394.5 844.2,396.8 C846.5,398.5 849.7,397.4 852.1,396.5 C854.2,395.7 854.4,395.3 853.1,397.1 C848.5,403.6 845.5,407 842.1,409.2 C844.5,411.6 847.2,409.6 856.5,406.6 C860.7,405.3 863.2,405 865.9,399.9 C868.7,394.6 868.6,392 871.9,388.5 C878.5,381.7 889.9,368.1 889.9,368.1 C889.9,368.1 899.5,344.8 900,334.1 L879.4,328.3 Z" id="Shape" fill="#6A6A6A"></path>
                    <path d="M796.9,412 C790.5,411.9 785.7,421.5 785.9,423.7 C786.1,425.9 786.8,432.6 787.2,436.5 C787.6,440.4 792.7,444.4 799.2,440.3 C803.1,437.8 804.4,430.6 804.4,430.6 C804.4,430.6 810,432.3 810.5,431.8 C811,431.2 811.3,428.6 811.3,428.6 C811.3,428.6 807.8,426.2 805.1,426.3 C805.2,426.2 807.8,412.1 796.9,412 Z" id="Shape" fill="#6A6A6A"></path>
                    <path d="M772.9,335.9 C772.9,335.9 772.9,336.9 774.1,337.4 C775.2,337.9 776.2,338.1 776.6,339.1 C777,340.1 777.4,342 777.7,343 C778,344 778.6,344.6 780.3,343.8 C782,343 781.8,344.5 784,345.7 C785.6,346.6 789.1,347.7 792.9,344.6 C792.9,344.6 793.5,345.6 794.2,346.6 C794.9,347.6 800.7,347.9 803.5,340.3 L799.5,343.3 C799.5,343.3 798.3,336.3 797.8,333.2 C797.3,330.2 797.6,327.6 794.5,330 C791.4,332.4 772.9,335.9 772.9,335.9 Z" id="Shape" fill="#6A6A6A"></path>
                    <path d="M781.9,354.4 L771.2,361.1 L756.5,366.4 L751.2,366.4 C751.2,366.4 747.2,367.9 746.4,373.8 C746.4,373.8 748.5,369.9 751.2,371.7 C752.6,372.6 751.2,376.1 751.2,376.1 C751.2,376.1 751.3,378.2 753.6,376.1 C755.9,374 756.4,372.4 761.1,371.5 C765.8,370.7 778.1,368.3 778.1,368.3 L790.1,360.7 L781.9,354.4 Z" id="Shape" fill="#6A6A6A"></path>
                    <path d="M800.2,357.2 L788.9,369 L786,371.8 C786,371.8 772.1,374.4 768.8,376.5 C765.5,378.6 760,382.6 760.9,389.7 L766.6,390.1 C766.6,390.1 769.2,382.6 772.5,382.3 C775.8,382 788.5,381.4 788.5,381.4 L797.9,377.6 L807.7,369.2 C807.7,369.2 811.5,364.4 808.3,360.3 C805.1,356.2 800.2,357.2 800.2,357.2 Z" id="Shape" fill="#6A6A6A"></path>
                    <path d="M853.1,461.8 C853.1,461.8 847.8,464.8 848.9,470.7 C849.8,475.7 855.4,475.8 855.4,475.8 C855.4,475.8 851.1,472.7 850.8,469.1 C850.5,465.5 853.1,461.8 853.1,461.8 Z" id="Shape" fill="#6A6A6A"></path>
                    <path d="M736.6,402.8 L736.6,406.1 L740.9,406.1 L740.6,421.9 L736.4,422.4 L736.4,424.7 C736.4,424.7 735.6,425.3 734,425.4 C737.2,425.6 743.8,424.6 743.8,424.6 L757.7,422.8 C757.7,422.8 758.2,405 758.2,404 C758.2,403 757.8,402.3 756.8,402.3 C756,402.3 736.6,402.8 736.6,402.8 Z M747,421.3 L743.7,421.7 L743.9,406 L746.8,405.9 L747,421.3 Z M753.5,420.4 L750.2,421.1 L750.2,405.7 L753.5,405.7 L753.5,420.4 Z" id="Shape" fill="#0062BA"></path>
                    <path d="M961.2,231.2 L961,261.4 L961.5,261.2 L962.6,261.6 L992.9,265 L992.9,233 L961.2,231.2 Z M990.6,263.3 L963.5,261.2 L963.2,260.3 L963.8,233.8 L990.5,235.4 L990.6,263.3 Z" id="Shape" fill="#0062BA"></path>
                    <path d="M926.5,228.3 L926.3,256.9 L925.9,259.7 L925.9,256.9 L955.3,260.8 L955.9,230.8 L926.5,228.3 Z M953,259.4 L928.4,256.3 L928.4,257.5 L928.7,230.8 L953.3,232.8 L953,259.4 Z" id="Shape" fill="#0062BA"></path>
                    <ellipse id="Oval" fill="#6A6A6A" cx="722.9" cy="379.7" rx="1.5" ry="1.7"></ellipse>
                    <ellipse id="Oval" fill="#6A6A6A" transform="translate(732.679690, 378.078770) rotate(-24.048007) translate(-732.679690, -378.078770) " cx="732.67969" cy="378.07877" rx="1.19999429" ry="1.49999287"></ellipse>
                    <path d="M727.9,380.2 C726.4,380.8 726.3,382 727.4,381.7 C727.4,381.7 727.7,383.6 729.1,383.1 C730.6,382.6 729.3,380.9 729.3,380.9 C729.3,380.9 731,378.9 727.9,380.2 Z" id="Shape" fill="#6A6A6A"></path>
                    <path d="M1058.7,200 C1055.1,198.4 1051.4,197.2 1047.8,196.1 C1046.7,195.8 1043.5,197.3 1042.3,197.3 L1002.7,220.9 C1002.7,220.9 1003.7,221.8 1005.3,223.1 C1006.8,222.9 1009.4,222.2 1012.6,220.9 L1048,202.1 L1060.9,205.4 L1060.5,201.2 C1059.2,200.9 1059.6,200.4 1058.7,200 Z" id="Shape" fill="#0062BA"></path>
                    <path d="M883.9,153.8 C879.7,153.3 879.4,157.6 873.3,161.4 C867.2,165.1 869.2,168.6 872.4,169.8 C875.6,171 871.7,173.8 865.8,176.3 C859.9,178.8 858.7,187 865.5,187.8 C871.6,188.5 865.8,189.2 863,193 C860.9,196 862.4,201.1 871.1,199.8 C880.2,198.3 881.8,205 882.8,208.2 C883.8,211.4 879.7,225.5 889.3,223.9 L902.9,241.9 L917.4,241.1 L917.4,213.8 C917.4,213.8 951.5,203.2 950.7,202.3 C948.6,200 954,196.3 957.1,193.5 C957.2,192.7 957.3,191.9 957.5,190.9 C957.8,188.1 953.8,186.5 951.5,185.5 C949.2,184.5 948.8,181.5 951.6,180.9 C954.4,180.3 956.6,177.4 950.4,173.1 C944.2,168.8 941.4,162.9 939.1,162.6 C936.8,162.3 937,166.5 932.1,169.7 C927.2,172.9 924,174.9 924.9,177 C925.8,179.1 931,179.4 927.3,182.7 C923.6,186.1 918,188.8 919.2,193.5 C920.4,198.2 914.5,202.1 909.2,201.4 C903.9,200.7 900.3,196.5 905,196.8 C907.2,197 908.1,195.7 908.4,194.8 C909,192.6 906.1,191.4 903.4,189.6 C898.4,186.4 898,182.7 893.7,186.3 C889.4,190 885.6,191.8 885.6,191.8 C885.6,191.8 882.2,183.4 890.8,180.4 C899.4,177.4 901.4,176.6 905.5,168.9 C908.7,162.9 912.3,166 914.8,156.7 C914.8,156.7 913.6,160.6 907.6,161.9 C900.7,163.4 899.9,170.1 896.7,172.1 C893.6,174.2 889.8,171.9 892,170.3 C893.4,169.3 895.3,167.9 895.3,166.2 C895.3,164.9 894.7,163.7 892.6,162.1 C886.3,157.2 886.2,154.1 883.9,153.8 Z" id="Shape" fill="#CFF0FF"></path>
                    <path d="M883.5,233.3 C883.8,232.8 888.3,233.1 886.2,226.7 C885.1,223.1 885.3,220.4 888.1,218.7 C895.1,214.5 896.3,206.5 902,206.5 C905.7,206.5 905.6,212.8 913.4,219.5 C916.5,222.2 916.5,226.4 912.9,230.7 C912.1,231.6 910.1,234.5 910.6,236.9 C911.5,240.9 917.3,239.6 917.3,239.6 L917.3,257.4 C917.3,257.4 915.5,259.3 909,259.2 C900.5,259 894.3,263.5 894.3,263.5 C894.3,263.5 897,252.6 892.5,251.4 C887.1,249.9 882.3,253.4 879.8,260.3 C879.8,260.3 878.5,248.7 883.7,244.4 C889,240 881.9,236.5 883.5,233.3 Z" id="Shape" fill="#0062BA"></path>
                    <path d="M958.8,261.7 C958.8,261.7 959.2,259.5 961,259.7 C966.1,260.2 992.8,262.7 992.8,262.7 C992.8,262.7 994.5,262.9 994.3,265.3 L958.8,261.7 Z" id="Shape" fill="#FFC41E"></path>
                    <path d="M921.9,256.7 C921.9,256.7 920.9,255.1 923.8,255.4 C928.7,255.9 955.2,258.9 955.2,258.9 C955.2,258.9 956.5,259.1 956.5,261.4 L921.9,256.7 Z" id="Shape" fill="#FFC41E"></path>
                    <path d="M763.9,259.4 C768.1,259.4 773.7,259.4 773.7,259.4 C773.7,259.4 773.1,257.6 773.7,255.5 C774.2,253.8 775.1,251.9 775.1,251.9 C775.1,251.9 764.1,254.7 763.9,259.4 Z" id="Shape" fill="#FFFFFF"></path>
                    <path d="M732.8,220.6 L796.5,220.6 C796.5,220.6 813.3,202.7 815.2,201.2 C818.3,203.1 828.3,213.7 828.3,213 C828.3,210.6 831.8,211.8 828.2,208.4 C825.7,206.1 815.9,196.4 814.7,196.4 C811.7,196.4 772.3,195.8 762.7,195.7 C761.4,195.7 760.1,196.1 759.1,196.7 C753,200.8 730.9,215.5 728.5,217.2 C725.6,219.1 721.9,220.6 732.8,220.6 Z" id="Shape" fill="#0062BA"></path>
                    <path d="M834.1,213.3 C834.1,214.6 835.3,217.7 837.8,217.7 C840.5,217.7 841.6,216.5 841.8,213.8 C842.4,205.5 854.4,204.9 854.4,204.9 C854.4,204.9 846,204.3 845.2,197.4 C844.7,193.5 846.8,190.1 850.8,187.2 C854.4,184.6 855.3,182.5 855,179.9 C854.5,174.5 847.6,173.1 845.3,178 C843.5,181.8 843.2,180.8 838.9,181.2 C831.5,182 831.9,189.9 836.5,192.7 C826.4,192.6 823.8,201 828,205.7 C828.9,206.7 834.1,209 834.1,213.3 Z" id="Shape" fill="#CFF0FF"></path>
                    <path d="M780.8,353.4 L791.1,345.7 L792.7,344.6 C792.7,344.6 793,345 793.6,346 C794.1,346.8 795.9,347.6 798.2,346.5 C800.2,345.6 802.4,342.5 803.2,340.3 C806.2,338 810.7,340 810.7,340 L821.1,346.2 C821.1,346.2 833.9,384.4 834.3,385.6 C834.7,386.8 834.1,387.9 833,388.2 C831.8,388.4 798.1,395.2 798.1,395.2 C798.1,395.2 794.8,388.4 793.9,379.1 C793.9,379.1 800.8,376.8 808,367.6 C811.4,363.3 803,353.6 798.7,358.6 C796,361.7 793.1,364.5 791.2,366.4 C789.7,367.8 791.5,368.8 791.5,368.8 C791.5,368.8 790.9,362.6 788.9,363.1 C788.2,363.3 787.9,363.5 787.5,363.4 C786.6,363.3 784.4,360.4 783,358.7 C781.5,356.8 780.1,353.9 780.8,353.4 Z" id="Shape" fill="#FFFFFF"></path>
                    <path d="M780.6,400 C781.2,398.3 784.1,394.6 784.1,394.6 C784.1,394.6 784.1,393.9 783,393.9 C780.5,393.8 776.1,394.7 773.3,400.7 C769.9,407.9 772.8,411.3 772.8,411.3 L776.7,411.1 C776.7,411.1 777.7,406.1 779.1,403.5 C780.9,404.9 786.5,410.4 786.5,410.4 L789.2,410.2 C788.1,408.4 781.7,402.1 780.6,400 Z" id="Shape" fill="#6A6A6A"></path>
                    <path d="M791.8,259.4 C785.2,259.4 779.6,259.4 776.7,259.4 C773.8,259.4 777.2,251.9 777.2,251.9 L788.7,251.9 C788.7,251.9 797.8,259.4 791.8,259.4 Z" id="Shape" fill="#FFFFFF"></path>
                    <path d="M790.3,251.3 L797.1,257.5 L802.1,255.6 C802.1,255.6 795.5,252.2 791.4,250.3 C791.2,250.4 790.6,251.1 790.3,251.3 Z" id="Shape" fill="#FFFFFF"></path>
                    <path d="M876.7,200.1 C876.7,200.1 879.4,200.9 881.2,203.7 C881.8,204.6 882.2,205.7 882.5,207 C883.5,211.5 888,212.1 888,214.5 C888,215.8 887.2,216.8 885.9,217.9 C884,219.5 882.8,220.6 885.4,222.2 C888.4,224 891,224.1 892,225 C893,225.9 893.8,228.5 890.6,229.7 C888,230.7 887.2,231.2 888,232.3 C888.8,233.4 893.3,233.9 894.1,237.5 C895,241.4 893.3,244.7 888.8,246.9 C888.8,246.9 884.9,241.2 878.6,242.1 C872.3,243 864.5,249.2 860.4,244.6 C857.6,241.5 858.4,236.9 863.1,235.2 C864.5,234.7 866.7,234 866.8,233.2 C867,232.1 864.8,230.9 864.2,230.5 C861.1,228.5 861.9,226.1 863,225.2 C864.5,224.1 867.6,222.9 870,220.6 C871.7,219 869.8,218.1 868.7,217.1 C867.3,215.8 867.4,214.1 869.3,212.7 C870.1,212.1 871.5,211.1 872.3,210 C873.9,207.9 875.1,205.2 874.3,204.4 C873.2,203 876.7,200.1 876.7,200.1 Z" id="Shape" fill="#00ADF3"></path>
                    <path d="M898.4,293.3 C898.4,293.3 918.2,306.1 925.8,304 C933.4,301.9 943.1,301.5 951.6,307 C955.5,309.5 958.7,312.6 964.5,310.2 C964.5,310.2 970.3,314.6 976.4,313.9 C983.5,313.1 986,313 991.7,317.4 L977.2,283.1 L959.8,272.6 L910.8,265 L878.9,261.8 L866.9,273.6 L865.5,291.3 L898.4,293.3 Z" id="Shape" fill="#00ADF3"></path>
                    <path d="M859.8,237.7 C859.8,237.7 856.3,242.9 858.4,249.7 C862.4,262.4 872.4,265.5 871.5,278.1 C871.5,278.1 874.5,269.3 882.2,267.4 C887.1,266.2 889.7,269.7 893.4,271.9 C897.9,274.6 903.7,270.1 905.7,268.7 C907.7,267.3 909.3,270.1 913.5,271.9 C917.7,273.7 923.7,274 927.3,270.9 C927.3,270.9 926.9,275.3 932.6,277.3 C938.3,279.3 944.5,274.5 949.8,278.2 C953.1,280.5 953.3,282.7 953.3,282.7 C953.3,282.7 957.3,277.1 963.4,279.9 C969.1,282.5 968.2,286.8 966.1,291.2 C964.2,295.1 965.6,301.5 974.2,304.1 C982.9,306.7 986.4,309.7 989.3,314.3 C992.8,320 998.5,324.1 1007.1,323.8 C1007.1,323.8 1012.9,284.8 997.2,275.9 C991.4,272.6 986.3,273.6 982.1,274.6 C977.3,275.8 974.2,275.9 970.3,271.1 C967.4,267.6 961.1,265.3 954.5,270.2 C954.5,270.2 950.8,264.1 944.8,262.6 C939.6,261.3 937.3,264.3 935.1,263.9 C932.9,263.5 932.9,255.5 923.3,252.9 C917.7,251.4 913.3,255.9 913.3,255.9 C913.3,255.9 911.1,250.3 904.1,250.6 C897.1,250.9 896.1,256.8 896.1,256.8 C896.1,256.8 898.1,249.7 892,248.2 C889.3,247.6 888.9,246.3 888.2,244.5 C887.5,242.5 884.8,239.8 880.8,240.5 C873.9,241.7 869,246.9 864.1,246.1 C859.2,245.2 858,241.1 859.8,237.7 Z" id="Shape" fill="#CFF0FF"></path>
                    <path d="M1047.7,196.1 L1002.6,221 C1002.6,221 925.1,216 917.3,215.3 C913.9,215 912.1,213.7 912.1,211.8 C912.1,208.7 918.1,206.4 931.7,203.6 C956.6,198.6 995.5,189.8 995.5,189.8 L1047.7,196.1 Z" id="Shape" fill="#6A6A6A"></path>
                    <path d="M1006,264.2 C1006.5,263.2 1007.7,263.4 1008.5,263.5 C1009.5,263.7 1046.3,265.4 1046.3,265.4 L1056.4,267.1 L1057.6,204.6 L1047.9,202.1 L1005.3,223.1 L1005.3,263.8 C1005.5,263.9 1005.8,264.1 1006,264.2 Z" id="Shape" fill="#CFF0FF"></path>
                    <path d="M1007.5,267.2 C1007.5,267.2 1005.9,266.8 1005.9,265.2 C1005.7,265.1 1005.5,265 1005.3,264.9 L1005.3,281.3 C1005.3,281.3 1009.6,282.6 1012.9,287 C1012.9,287 1015.7,284.8 1019.3,285 C1019.3,285 1022.4,278.9 1029.3,282.8 C1029.3,282.8 1034.6,284.3 1039.7,293.2 C1039.7,293.2 1050.4,292.8 1056.3,298.2 L1060.1,274.7 L1045.8,270.8 L1007.5,267.2 Z" id="Shape" fill="#FFFFFF"></path>
                    <path d="M796.5,220.6 L797.5,250.2 C797.5,250.2 790.4,248.1 785.8,247.4 C785.3,247.3 784.9,247.4 784.5,247.5 C784.5,247.5 776.2,247.1 772.1,248.4 C767.1,250 747.4,261.5 747.4,261.5 C747.4,261.5 736.1,221.2 733.4,220.6 L796.5,220.6 L796.5,220.6 Z" id="Shape" fill="#CFF0FF"></path>
                    <polygon id="Shape" fill="#FFC41E" points="824.8 217.7 824.8 230.6 818.8 232.6 818.8 219.1"></polygon>
                    <path d="M895.8,353 L952.3,353 C952.3,353 955.8,336.4 928.2,306.1 C919.7,296.8 909.1,291.1 901.4,288.3 C884.4,282.1 873,283.5 873,283.5 C873,283.5 865.6,297.5 866.1,303.2 L862.3,300 C862.3,300 861.1,300.3 857.4,301.2 C854.4,302 852.1,302.6 850.8,301.8 C847.6,299.9 845.2,296.9 845.2,296.9 C845.2,296.9 836.4,305.2 835.7,305.8 C834.2,307.2 835.9,310.6 836.5,311.5 C838.1,314.1 844.4,323 848.9,323.8 C852.6,324.5 858.2,316.3 861.8,320.2 C866.4,325.3 877.7,340.7 877.7,340.7 L879,330.3 L900,336.5 C900,336.4 897.5,347.9 895.8,353 Z" id="Shape" fill="#FFFFFF"></path>
                    <path d="M804.3,317.9 C804.3,317.9 803.7,315.3 798.2,310.9 C792.8,306.6 785.1,307.4 778.7,310.6 C774.9,312.5 771,314.8 769.3,319.1 C764.7,330.8 771.5,336.6 771.5,336.6 C771.5,336.6 776.6,338.7 782.7,336.6 C785.8,335.6 788.4,334.4 790.6,333.2 C791.4,334.4 793.3,337.7 792.8,344.7 L795.5,343.1 C795.5,343.1 796.4,336.8 793,331.8 C803.1,325.3 804.3,317.9 804.3,317.9 Z M774.5,318.7 C772.8,318.4 773.6,315.4 775.2,315.5 C776.9,315.6 776.2,319 774.5,318.7 Z M783.8,319.7 C781.1,320.2 780.8,317 782.7,316.5 C785.3,315.7 786.5,319.2 783.8,319.7 Z M788.6,313.5 C787,315.1 784.7,312.9 786,311.6 C787.6,309.9 790.2,311.8 788.6,313.5 Z" id="Shape" fill="#00ADF3"></path>
                    <path d="M787.3,368.6 C784.7,371.6 783.1,376.9 786.9,381.1 C791.6,386.4 804.4,376.2 797.6,368.7 C794,364.6 789,366.7 787.3,368.6 Z" id="Shape" fill="#FFC41E"></path>
                    <path d="M772.4,358.9 C770.8,359.9 771.1,360.9 773.7,364.6 C776.3,368.3 776.7,369.2 778.6,368.6 C780.6,368 779.8,364.9 777.3,361.7 C774.7,358.4 773.4,358.3 772.4,358.9 Z" id="Shape" fill="#FFC41E"></path>
                    <path d="M820.4,415.8 C830.2,431.9 834.5,445.6 834.5,445.6 C834.5,445.6 815.9,439 808.8,436.5 C808.2,439.9 808.2,441.1 807.9,443.3 C814,445.4 827.4,450.2 831.7,451.6 C834.1,452.4 836.4,452.8 838.1,452.7 C840.1,452.5 841.3,451.6 841.2,451.6 C838,450.3 836.5,449.4 837,447.9 C837.4,446.5 839,447.3 841.7,448.3 C839.7,437.2 825.3,413.4 825.3,413.4 C823.6,414 820.1,415.3 820.4,415.8 Z" id="Shape" fill="#00ADF3"></path>
                    <path d="M828.6,415 C828.3,415.1 828,415.2 827.7,415.3 C835.8,413.2 839.7,411.2 842.2,409.3 C843.9,408.2 847.6,405.6 847.4,402.4 C847.2,399.2 846.1,397.7 844.3,396.9 C840.8,395.2 838.1,396 836.4,396.8 C836.4,396.8 836.2,399.5 833.1,402.2 C825.7,408.7 817.8,416.6 817.8,416.6 L822,416.2 C822,416.2 822,416.2 822,416.3 L822,416 C823.6,416 826,416 827.8,415.4 L827.8,415.4 C827.8,415.4 827.8,415.4 827.8,415.4 C828,415.3 828.3,415.2 828.6,415 Z" id="Shape" fill="#00ADF3"></path>
                    <path d="M792.1,409.9 L785.8,418 C785.8,418 777.5,418.1 761.8,419.3 L786.4,430.6 L787.2,438.4 L756,423 L743.1,456.5 C743.1,456.5 737.8,454 738.2,451.6 L749,424 L756,423.1 C756,423.1 757.6,422.3 757.6,421.3 C757.6,420.2 757.9,408 757.9,408 L759.6,412.1 L792.1,409.9 Z" id="Shape" fill="#00ADF3"></path>
                    <polygon id="Shape" fill="#00ADF3" points="752.2 413.9 750.2 405.7 753.5 405.7 753.5 420.4 750.2 421.1 750.2 420.1"></polygon>
                    <path d="M749.1,402.5 C749.1,402.5 747.7,396.9 747.1,394.3 C749.1,393.8 751.6,392.8 751.1,389.4 L756.5,402.3 L749.1,402.5 Z" id="Shape" fill="#00ADF3"></path>
                    <path d="M744.9,385.7 C744.9,385.7 743.5,377.7 746.1,373.8 C748.7,369.8 753.8,370.2 751.2,376.1 C748.7,381.8 763.3,381.1 763.3,381.1 C763.3,381.1 761.1,383.7 760.9,389.8 L751,389.4 C751.2,389.4 750.3,386.5 744.9,385.7 Z" id="Shape" fill="#00ADF3"></path>
                    <path d="M766.5,390.1 C768.6,390.1 778.6,391.2 780.4,387.1 C782.1,383.1 775,382.2 772,382.3 C769,382.4 766.5,387.5 766.5,390.1 Z" id="Shape" fill="#00ADF3"></path>
                    <path d="M596.7,32 C596.7,32 690,129.1 816.6,94 C885.1,75.1 907.8,95.1 950.3,115.3 C1001,139.5 1087.5,40.5 1087.5,40.5 L596.7,32 Z" id="Shape" fill="#FFFFFF"></path>
                    <path d="M1005.2,267 L1055,271.3 L1062,265.8 L1062,259.3 L1055.5,266.1 L1005.2,262.8 C1005.2,262.8 1002.6,262.8 1002.6,264.7 C1002.7,267 1005.2,267 1005.2,267 Z" id="Shape" fill="#0062BA"></path>
                    <path d="M1044.2,289.9 C1044.9,284.7 1039.8,278.8 1028.9,283.1 C1028.9,283.1 1026.3,275.7 1020.1,274.7 C1013.9,273.7 1010.8,278 1007.6,280.7 C1004.4,283.3 996.9,284.5 996.1,293.9 C995.7,299.4 998.8,302.1 1001.1,304 C1003.4,305.9 1001.1,307.2 998.8,310.5 C994.4,316.8 999,324.1 1015.3,326.4 C1031.6,328.7 1056.1,330.5 1056.1,330.5 C1056.1,330.5 1065.3,285.8 1044.2,289.9 Z" id="Shape" fill="#0062BA"></path>
                    <polygon id="Shape" fill="#FFFFFF" points="1012 234.5 1029 229.9 1029 255.8 1012 260"></polygon>
                    <polygon id="Shape" fill="#FFFFFF" points="1036.1 228.6 1050.8 224.2 1050.8 249.6 1036.1 254.1"></polygon>
                    <path d="M959.3,459 C959.3,459 961.6,463 959.9,468.5 C958.6,472.7 955.7,473.8 949.2,480.4 C942.7,487 940.6,489.5 934.4,491.3 C928.2,493.1 917.5,493 920.5,488 C921.8,485.9 925.5,482.8 928.4,479.4 C932.4,474.6 935.7,469.4 935.7,469.4 L959.3,459 Z" id="Shape" fill="#0062BA"></path>
                    <path d="M790.8,463.4 C791.7,460.5 791,454.6 796.9,453.8 C802.8,453.1 800.8,456.6 807.4,456.5 C807.5,459.8 810,461.9 803,471.6 C795.9,481.3 790.2,482.4 785.5,481.3 C781.3,480.3 779.7,476.7 784.1,472.4 C786.7,470 789.9,466.4 790.8,463.4 Z" id="Shape" fill="#FFC41E"></path>
                    <path d="M787.7,443 C787.7,443 769.4,450.7 768.3,444.3 C767.2,437.9 778.3,438.4 779.4,434.5 L787.2,438.4 L787.7,443 Z" id="Shape" fill="#FFC41E"></path>
                    <path d="M811.6,334.1 C816.5,330 824.9,329 831.5,334.8 C838,340.7 841.7,344 840.2,346 C839.1,347.4 837.1,346.9 837.1,346.9 C837.1,346.9 838.7,353.9 839.8,355.4 C841,356.9 843.3,358.5 842.1,360 C840.9,361.6 838.3,357.9 838.3,357.9 C838.3,357.9 840.1,374.2 832.9,380.9 L830.9,375.4 C830.9,375.4 826.2,381.5 810.5,384.3 C810.5,384.3 818.8,387.5 816.5,389.8 C814.2,392.1 811.3,386.3 806.7,386.1 C802.1,385.9 796.6,387.3 795.5,387.6 C794.4,387.9 793.8,384.5 794.8,384.3 C795.8,384.2 821.1,381.3 830,372.7 C830,372.7 824.2,356.6 817.8,347.3 C811.4,338 805.5,343 803.8,346.7 C802.1,350.4 795.8,361.8 795.8,361.8 C795.8,361.8 795.3,359.3 795.3,358.2 C795.3,357.1 796,355.9 796.6,354.5 C797.3,353.1 803.3,340.2 803.3,340.2 L811.6,334.1 Z" id="Shape" fill="#00ADF3"></path>
                    <rect id="Rectangle-path" fill="#FFFFFF" x="767.9" y="224.1" width="9.3" height="17.4"></rect>
                    <rect id="Rectangle-path" fill="#FFFFFF" x="752" y="224.1" width="9.3" height="17.4"></rect>
                    <path d="M650,228.9 C650,228.9 651.8,235.8 658.9,234.8 C658.9,234.8 660.3,233.5 666.9,236.6 C666.9,236.6 667.8,235 669.2,235.1 C669.2,235.1 676.4,229.7 670.3,223.9 C670.3,223.9 671.6,223 671.5,220.7 C671.5,219.9 672.6,217.7 672.6,217.7 C672.6,217.7 670.7,218.4 669.7,218.2 C668.7,218 665.8,217.2 664.5,219.4 C662.7,222.5 664.7,223.7 661,226.7 C659,228.3 658.5,230.8 658.5,230.8 C658.5,230.8 656.8,231.1 655,229.1 C652,228.9 650,228.9 650,228.9 Z" id="Shape" fill="#0062BA"></path>
                    <path d="M636.3,222 C632.8,222 636.9,230.7 636.9,230.7 C636.9,230.7 639.8,222 636.3,222 Z" id="Shape" fill="#00ADF3"></path>
                    <path d="M639.5,229.3 C639.5,229.3 648.9,222.1 646,220.6 C643.2,219.1 639.5,229.3 639.5,229.3 Z" id="Shape" fill="#00ADF3"></path>
                    <path d="M637,234.4 C637,234.4 630.7,224.4 629,227.1 C627.3,229.8 637,234.4 637,234.4 Z" id="Shape" fill="#00ADF3"></path>
                    <path d="M1005.7,288.5 C1004.6,288.1 1003.9,289.9 1005.2,290.5 C1006.6,291 1007.1,288.9 1005.7,288.5 Z" id="Shape" fill="#00ADF3"></path>
                    <path d="M1011.3,314 C1010.9,314.6 1015.9,317.3 1016.1,315.7 C1016.4,314.1 1011.7,313.5 1011.3,314 Z" id="Shape" fill="#00ADF3"></path>
                    <path d="M1007.2,301.2 C1008.6,301.6 1009,300 1008.5,299.6 C1007.1,298.4 1005.9,300.8 1007.2,301.2 Z" id="Shape" fill="#00ADF3"></path>
                    <path d="M1018.8,306.9 C1018,307.6 1019.5,309.9 1020.7,308.6 C1021.9,307.4 1020.1,305.8 1018.8,306.9 Z" id="Shape" fill="#00ADF3"></path>
                    <path d="M1007.9,310.9 C1008.5,311.3 1012.4,307.7 1010.2,306.7 C1008.4,305.8 1007.2,310.5 1007.9,310.9 Z" id="Shape" fill="#00ADF3"></path>
                    <path d="M1023.8,305 C1023.8,305 1028.7,303.2 1027.6,302 C1026.2,300.3 1023.8,305 1023.8,305 Z" id="Shape" fill="#00ADF3"></path>
                    <path d="M1014.8,283.9 C1014.8,283.9 1019.2,283.8 1018.9,281.8 C1018.6,279.8 1015.2,282.4 1014.8,283.9 Z" id="Shape" fill="#00ADF3"></path>
                    <path d="M1003.5,295.8 C1001.8,296.8 1004.9,299.2 1005.5,298.8 C1006.1,298.4 1004.9,294.9 1003.5,295.8 Z" id="Shape" fill="#00ADF3"></path>
                    <path d="M1033,288.6 C1034.3,288.6 1034.3,290.2 1033.2,290.3 C1031.6,290.6 1031.7,288.6 1033,288.6 Z" id="Shape" fill="#00ADF3"></path>
                    <path d="M1019,297.9 C1017.8,297.4 1017.1,299.3 1018.3,299.7 C1019.5,300.1 1020,298.3 1019,297.9 Z" id="Shape" fill="#00ADF3"></path>
                    <path d="M1023.9,292.1 C1025.1,291.2 1026.6,295.1 1026,295.6 C1025.4,296.1 1022.3,293.3 1023.9,292.1 Z" id="Shape" fill="#00ADF3"></path>
                    <path d="M1014.2,290.5 C1012.6,290.2 1012.5,292.3 1013.9,292.5 C1015.2,292.7 1015.8,290.8 1014.2,290.5 Z" id="Shape" fill="#00ADF3"></path>
                    <path d="M1005.4,313 C1003.8,312.7 1003.7,314.8 1005.1,315 C1006.4,315.2 1007,313.3 1005.4,313 Z" id="Shape" fill="#00ADF3"></path>
                    <g id="Group" transform="translate(828.000000, 207.000000)">
                        <path d="M0.6,32 C0.5,18.4 0.2,1.5 0.2,1.5 C0.2,1.5 6,-2.3 6.8,8.8 C6.8,8.8 16.1,5.1 19.3,13.1 C19.3,13.1 24.2,9.2 29.8,11.9 C26.1,14.3 25,17 26.1,21 C28,28.1 22.4,24.2 18.7,26.7 C13.7,30 14.6,35.1 10.3,35.9 C10.8,33.5 9.6,29.9 6.8,29.3 C4.8,28.9 1.8,29.6 0.6,32 Z" id="Shape" fill="#0062BA"></path>
                        <path d="M4.3,21.9 C5,22.1 5.3,21.3 5,21.1 C4.2,20.5 3.6,21.7 4.3,21.9 Z" id="Shape" fill="#00ADF3"></path>
                        <path d="M14.1,26.4 C13.7,26.8 14.5,28 15.1,27.3 C15.8,26.7 14.8,25.9 14.1,26.4 Z" id="Shape" fill="#00ADF3"></path>
                        <path d="M6.9,26.9 C7.2,27.1 9.3,25.2 8.1,24.7 C7.2,24.2 6.5,26.7 6.9,26.9 Z" id="Shape" fill="#00ADF3"></path>
                        <path d="M13.6,16.8 C13.6,16.8 15.9,16.7 15.8,15.7 C15.6,14.6 13.8,16 13.6,16.8 Z" id="Shape" fill="#00ADF3"></path>
                        <path d="M10.4,20.2 C9.8,20 9.4,20.9 10,21.1 C10.7,21.3 11,20.4 10.4,20.2 Z" id="Shape" fill="#00ADF3"></path>
                        <path d="M15.6,19.4 C16.3,18.9 17,21 16.7,21.2 C16.4,21.4 14.8,20 15.6,19.4 Z" id="Shape" fill="#00ADF3"></path>
                        <path d="M9.8,13.9 C8.9,13.8 8.9,14.9 9.6,15 C10.3,15.1 10.7,14.1 9.8,13.9 Z" id="Shape" fill="#00ADF3"></path>
                        <path d="M4.6,15.8 C3.7,15.7 3.7,16.8 4.4,16.9 C5.1,17 5.5,16 4.6,15.8 Z" id="Shape" fill="#00ADF3"></path>
                    </g>
                    <path d="M784.4,247.5 C784.4,247.5 788.7,243.3 792.8,243.9 C796.9,244.5 796.9,248.1 798.3,247.5 C799.7,246.9 803.4,243.3 806.6,245.2 C809.7,247.1 810.3,244.4 813.7,245 C815.5,245.3 816.8,246.6 817.1,248.5 C817.4,250.6 816.7,253.2 814.2,253.7 C810,254.5 809.9,257 806.8,256.4 C803.7,255.8 802.1,255.6 802.1,255.6 C802.1,255.6 793.2,251 791.6,250.2 C790,249.4 787.5,247.6 784.4,247.5 Z" id="Shape" fill="#0062BA"></path>
                    <path d="M873,283.4 C873,283.4 876.4,262.5 856.3,257.9 C846.6,255.7 842.2,262 838.1,263.3 C834,264.6 828.7,266.8 831.1,272.3 C831.1,272.3 827.4,273.7 828.3,278.1 C828.9,280.9 832.2,282.4 835.6,281.8 C837.5,281.5 854.7,288.5 858.4,289.3 C860.7,289.8 866.2,286.5 873,283.4 Z" id="Shape" fill="#0062BA"></path>
                    <path d="M873,283.4 C873,283.4 868.4,298.6 868.5,305.3 L862.3,299.9 C862.3,299.9 855.8,301.6 852.8,302.2 C849.9,302.8 845.1,296.8 845.1,296.8 C845.1,296.8 840.4,298.5 839.1,297.4 C837.8,296.3 838.1,288.8 838.1,288.8 C838.1,288.8 836,285.2 835.5,281.7 C835.5,281.7 838,281.5 840.9,279 C843.8,276.5 846.7,275.2 848.9,278 C851.1,280.8 853.7,283.8 854.1,280.4 C854.5,277 855.7,275.1 858.2,275.8 C860.7,276.5 860.9,284.4 866.9,284.4 C871,284.2 873,283.4 873,283.4 Z" id="Shape" fill="#6A6A6A"></path>
                    <path d="M690.6,309.7 C689.6,313.1 698.7,313.1 698.7,313.1 C698.7,313.1 691.6,306.4 690.6,309.7 Z" id="Shape" fill="#0062BA"></path>
                    <path d="M691.5,301.3 C691.5,301.3 694.4,300.3 695,297.2 C695,297.3 692,296.2 691.5,301.3 Z" id="Shape" fill="#00ADF3"></path>
                    <path d="M724.3,342.8 C724.3,342.8 719.4,344.6 718.4,350 C718.4,350 723.7,351.7 724.3,342.8 Z" id="Shape" fill="#00ADF3"></path>
                    <path d="M706.5,326.4 C706.5,326.4 705.8,322.9 702.9,324.9 C700,326.9 700.2,335.4 705.8,332.5 C711.4,329.7 709,325.1 706.5,326.4 Z" id="Shape" fill="#FFFFFF"></path>
                    <path d="M676.9,287.4 C676.9,287.4 678.2,284.1 680.7,286.5 C683.2,288.9 681.6,297.3 676.6,293.6 C671.6,289.9 674.7,285.7 676.9,287.4 Z" id="Shape" fill="#FFFFFF"></path>
                    <path d="M714.6,322.5 C711.5,321.5 712.1,317 715.3,319.2 C718.6,321.5 716.4,323.1 714.6,322.5 Z" id="Shape" fill="#FFFFFF"></path>
                    <path d="M724.1,349.5 C724.1,349.5 727.1,347.6 723.6,346.9 C720.1,346.2 716.7,350.1 719.4,352.8 C722,355.5 731,350.3 724.1,349.5 Z" id="Shape" fill="#FFFFFF"></path>
                    <path d="M745,317.7 C744.4,319.6 750.7,320.8 750.9,318.5 C751,316.1 745.5,315.8 745,317.7 Z" id="Shape" fill="#FFFFFF"></path>
                    <path d="M678.2,315.1 C675.9,315.2 675.6,313.2 677,310.2 C677.7,308.7 676.2,309.7 675,309.8 C673.7,309.9 672,307.8 674.3,305.6 C676.8,303.2 678.5,306.2 678.7,304.5 C679.3,300.6 683,300.5 682.3,304.3 C681.9,306.2 685.8,301.4 686.8,305.1 C687.3,307.1 685.9,307.7 684.3,307.8 C682.6,307.9 684.6,308.2 685.7,309.3 C686.3,310 686.4,311.4 685.3,312.1 C682.6,314.1 681,310.9 681,310.9 C681,310.9 680.9,314.9 678.2,315.1 Z" id="Shape" fill="#FFFFFF"></path>
                    <path d="M699.4,296.9 C699.4,296.9 704.2,295.4 702.2,292.8 C701.7,292.1 700,292 698.5,292.8 C698.4,292.9 699.1,286.9 694.9,288.1 C690.7,289.2 695.1,294.1 695.1,294.1 C695.1,294.1 687.7,292.1 689.1,296.4 C690.5,300.7 694.9,297.7 694.9,297.7 C694.9,297.7 694.1,301.2 696.5,302 C700,303.1 701.1,299.6 699.4,296.9 Z M690.3,296.1 C689.7,294.5 694.8,295.3 694.8,295.3 C694.8,295.3 690.8,297.7 690.3,296.1 Z M696.7,295.6 C696.2,294.6 697.4,293.9 697.7,294.8 C698.2,296 697.3,296.6 696.7,295.6 Z M697.4,300.5 C696.1,300.3 695.9,298.3 698,297.1 C698.1,297 699.1,300.7 697.4,300.5 Z" id="Shape" fill="#FFFFFF"></path>
                    <path d="M728,323.9 C727.7,323.7 721.1,319.2 722.7,317.3 C724.3,315.4 728,323.9 728,323.9 Z" id="Shape" fill="#0062BA"></path>
                    <path d="M644,260.8 C641.7,262 644.5,265 645.4,263.7 C646.4,262.4 645.1,260.2 644,260.8 Z" id="Shape" fill="#FFFFFF"></path>
                    <path d="M666.6,299.6 C666.6,297 662.7,298.1 663.4,299.5 C664.1,301 666.6,300.8 666.6,299.6 Z" id="Shape" fill="#FFFFFF"></path>
                    <path d="M650.6,264.9 C649.3,265.1 650.4,269.5 652,268.2 C653.6,266.9 652.4,264.6 650.6,264.9 Z" id="Shape" fill="#FFFFFF"></path>
                    <path d="M706,342.7 C705.4,340.7 699,343.2 701.2,345.4 C703.4,347.6 706.7,345.3 706,342.7 Z" id="Shape" fill="#FFFFFF"></path>
                    <path d="M643.2,270 C640.3,270.1 641,273.8 643.2,273.7 C645.5,273.5 645.3,269.9 643.2,270 Z" id="Shape" fill="#FFFFFF"></path>
                    <path d="M708.7,278.7 C706.3,278.8 706.9,281.8 708.7,281.7 C710.5,281.6 710.4,278.7 708.7,278.7 Z" id="Shape" fill="#FFFFFF"></path>
                    <path d="M652.2,274.7 C650.7,274.8 650.9,277.7 653,277.7 C655.1,277.7 654.1,274.5 652.2,274.7 Z" id="Shape" fill="#FFFFFF"></path>
                    <path d="M750.2,324 C750.2,324 751.2,322.4 749.1,321.9 C748.1,321.6 747.3,322.5 747.1,323.1 C746.9,323.9 747.2,324.9 747.2,324.9 C747.2,324.9 746,324.5 745.1,325.1 C743.4,326.1 744.1,328.3 745.2,328.7 C747.3,329.5 748.6,328.1 748.6,328.1 C748.6,328.1 748.7,329 749.4,329.5 C750.1,330 751.6,329.7 751.8,328.9 C752.2,327.4 750.7,326.5 750.7,326.5 C750.7,326.5 751.8,326.8 752.6,326.5 C753.4,326.3 753.6,324.8 752.9,324.1 C752,323.1 750.2,324 750.2,324 Z" id="Shape" fill="#FFFFFF"></path>
                    <path d="M680.5,307.3 C678.7,308.5 679.6,309.6 681.1,309 C682.6,308.4 681.4,306.8 680.5,307.3 Z" id="Shape" fill="#FFC41E"></path>
                    <path d="M698,294.8 C696.9,293.1 695.9,294 696.5,295.4 C697,296.8 698.5,295.6 698,294.8 Z" id="Shape" fill="#FFC41E"></path>
                    <path d="M715.3,285 C715.3,285 715.3,282.4 712.4,284.9 C709.5,287.4 710.3,293.1 714,291.8 C717.7,290.5 721,280.1 715.3,285 Z" id="Shape" fill="#FFFFFF"></path>
                    <path d="M721.4,286.5 C721.4,286.5 710.2,287.1 711.5,291 C713,295.2 721.4,286.5 721.4,286.5 Z" id="Shape" fill="#1EAEF7"></path>
                    <path d="M700.6,333.9 C700.6,333.9 696.4,323.4 693.2,326 C689.7,328.7 700.6,333.9 700.6,333.9 Z" id="Shape" fill="#1EAEF7"></path>
                    <path d="M699.4,315 C699.4,315 687.5,315.2 688.3,317.9 C689,320.6 699.4,315 699.4,315 Z" id="Shape" fill="#0062BA"></path>
                    <path d="M753.7,343.3 C752.3,340.1 745.4,346 745.4,346 C745.4,346 755.1,346.5 753.7,343.3 Z" id="Shape" fill="#0062BA"></path>
                    <path d="M743.6,345 C743.6,345 752.5,337.1 750.2,335.5 C747.9,333.9 743.6,345 743.6,345 Z" id="Shape" fill="#00ADF3"></path>
                    <path d="M709.5,292.1 C707.3,294.6 702.2,286.8 702.8,286.2 C703.5,285.6 712,289.3 709.5,292.1 Z" id="Shape" fill="#0062BA"></path>
                    <path d="M729.1,324.4 C724.5,320.6 734.2,315.2 734.2,315.2 C734.2,315.2 734.6,317 732.7,319.4 C731.1,321.5 729.1,324.4 729.1,324.4 Z" id="Shape" fill="#00ADF3"></path>
                    <path d="M679.5,276.2 C677,275.2 678.8,283.3 678.8,283.3 C678.8,283.3 682.2,277.3 679.5,276.2 Z" id="Shape" fill="#CFF0FF"></path>
                    <path d="M735.6,326.1 C735.6,326.1 737.7,323.1 735.8,322.1 C734.3,321.3 731.6,321.3 730.3,324.3 C729.3,326.7 729,326.4 728.9,326.7 C728.5,325.3 727.8,324.2 726.5,323.9 C724,323.3 721.4,325.5 722.2,327.4 C722.7,328.8 724.8,330.2 726.9,330.2 C729.2,330.2 727.2,331.1 725.5,332 C723.7,332.9 727.6,336.9 730.5,332.8 C730.5,332.8 730.8,335.1 733,333.6 C735.2,332.1 732.6,330.2 733.6,329.8 C734.6,329.4 735.7,332.7 738,331.4 C740.3,330.2 739.8,325.3 735.6,326.1 Z M736.5,330.1 C734.7,328.8 733.5,327.9 731.8,329.4 C731.8,329.4 734.4,326.3 737.2,327.7 C738.5,328.4 737.3,330.6 736.5,330.1 Z" id="Shape" fill="#FFFFFF"></path>
                    <path d="M730.6,327 C728.5,327.5 728.9,328.8 730.6,328.8 C732.3,328.8 731.6,326.8 730.6,327 Z" id="Shape" fill="#FFC41E"></path>
                    <g id="Group" transform="translate(639.000000, 216.000000)" fill="#FFFFFF">
                        <path d="M182.9,81.1 C178.8,80.3 177.4,85 175.6,84.6 C173.8,84.2 174.6,79.5 174,75.1 C173.5,70.7 169.3,68.1 166.1,73.7 C162.9,79.3 160.5,78.7 160,77.6 C159.5,76.5 163.4,72 164.2,66.2 C164.6,62.8 163.6,60.8 162.1,60.1 C161,59.6 159.5,59.7 158.6,61.3 C156.3,65.1 159.5,69.8 156.3,69.5 C153.1,69.2 153.5,62.1 146.7,62.4 C144.3,62.5 142.4,64.7 141.7,66.6 C140.7,69.5 139.7,70.4 139.9,69.3 C142.9,49.9 131.9,40.5 122.7,38.5 C116.3,37.1 114.6,34.5 112.4,30.1 C110.2,25.7 104.4,25.4 104.4,25.4 C105.2,18.8 100.8,20.1 100,17.9 C99.2,15.6 104.4,8.4 100.3,4.1 C96.2,-0.2 90.3,-0.1 86,2.8 C81.6,5.7 80.1,3.3 76.7,1.6 C73.3,-0.1 67.6,-0.5 62.8,3.1 C58,6.7 56.3,12.4 51.7,11.5 C47.1,10.6 41.6,5.7 37.7,9.8 C33.8,13.9 32.3,14 29.1,14.6 C25.9,15.2 25.6,19.5 25.6,19.5 C11.2,13.9 0.1,24.1 0.1,24.1 C5.4,26.9 2.6,31.9 5.9,36.7 C9.2,41.5 13.9,40.6 14.6,36.8 C15.3,33 17.3,31.5 19.4,31.9 C21.5,32.3 22.4,34.9 21.3,37.7 C20.1,40.4 20.1,42 22.2,41 C24.3,40 24.2,42.2 23.3,45 C21.2,51.4 16,56.7 20.2,59.4 C24.8,62.3 28.9,56.2 32.5,49.9 C36.1,43.6 39.1,43 37.9,48.9 C36.8,54.7 30.3,61.4 30.3,61.4 C30.3,61.4 31.6,60.5 35.6,60 C41.1,59.3 42.8,63.9 42.8,63.9 C42.8,63.9 45.4,55.1 43.1,44.1 C40.8,33.2 49.1,34 50.1,38 C51.1,42 49.6,44.8 49.6,44.8 C49.6,44.8 55.8,41.2 60,48.4 C63,53.5 60.2,57.4 56.6,58.7 C53.1,59.9 48.3,63.5 49.9,66.3 C51.4,69.1 55.6,68.4 58.7,66.3 C65.1,62.1 65.7,57.5 64.8,51.8 C63.5,44.4 57.8,42.3 56.8,34.6 C56,28.3 59.4,25 60.2,25.1 C61,25.2 62,26.1 61,31.4 C60,36.8 62.8,38.4 64.3,33.2 C65.1,30.5 66,29.8 66.7,29.9 C67.3,30 67.7,30.9 66.7,32.9 C64.7,37.1 65.2,43 67.6,46.9 C70,50.8 73.1,50.3 73.6,46.9 C75.6,33.1 89.9,32 91.9,38.6 C92.3,40.1 91.3,45.8 94.7,46.2 C96.4,46.4 97.8,49.6 94.7,51.2 C91.6,52.8 90.9,56.4 93.5,57.6 C96.1,58.8 99.2,56.5 100.1,51.6 C101,46.7 105.2,45.5 106.7,48.3 C108.2,51.1 105,53.4 105,53.4 C108.8,52.6 110.3,54.9 111.5,59.1 C112.7,63.3 115.6,62 115.6,62 C114.3,59.1 115,54 120.3,53 C125.7,52 127.9,55.9 124.8,59 C122.4,61.4 120.7,63.9 125.4,62.2 C130.1,60.5 136.8,65 133.1,73.8 C129.4,82.6 122.1,82.9 121.4,81 C121.1,80.1 122.5,78.3 122.7,75.4 C122.9,72.5 120.4,70.9 120.4,70.9 C120.4,70.9 120.7,73.1 118.3,77.7 C117.1,80 116.1,80.5 115.4,80.2 C114.7,79.9 114.2,78.9 114.9,76.8 C115.8,73.9 116.3,69 114.1,69.4 C111.9,69.8 113.5,74.1 111.8,75.5 C110.2,76.9 108.6,75.6 108.3,73 C108.1,71.7 107.8,69.4 107.1,67.6 C106.4,65.8 104,64.9 102.4,66.1 C99.9,68.1 101.6,71 104.2,72.9 C108.7,76 108.1,79.5 106.3,80.1 C102,81.6 98.1,74.4 98.6,68.5 C98.9,63.6 103.2,61.3 102.6,60.6 C102.4,60.3 100.7,61.2 100,61.9 C95.5,66.1 95.7,72.4 97.5,76.6 C99.3,80.9 100.2,82.7 98.5,83.6 C96.1,84.9 90.2,79.3 83.8,77.6 C77.4,75.8 68.2,78.3 64.3,85.6 C60.5,92.9 64.2,98.7 64.2,98.7 C64.1,94.5 67.8,94.7 70.5,91.2 C73.3,87.7 75,88 73.5,91 C72,94 68.8,96.3 70.2,96.8 C71.6,97.3 75.4,94.9 77.3,92.7 C79.3,90.5 81.2,86.8 81.4,89.1 C81.6,91.4 77.7,96.4 77.7,96.4 C77.7,96.4 79.8,96.6 82.9,94.3 C86.7,91.5 90.5,91.5 94.6,93.7 C98.6,95.9 100.7,97.6 107,97.5 C113.3,97.3 116.2,101 118.6,104 C121,106.9 123.3,115.5 125.2,106.2 C127.1,96.9 134.7,92.8 140.4,90 C146.1,87.1 148,84.1 149.8,81 C151.1,78.6 151.7,77.4 152.3,77.6 C153,77.9 153.1,79 151.7,81.4 C149.9,84.6 147,88.3 147,88.3 C147,88.3 149.8,87.3 152.4,84.3 C154.8,81.5 155.5,80 156.3,80.4 C157.3,80.9 156,82.7 155.3,83.6 C153.4,86.4 150.8,88.6 150.8,88.6 C150.8,88.6 154.2,88.3 156.6,85.2 C159.6,81.4 160.7,81.5 161.3,82.4 C161.8,83.2 159.6,84.6 158.7,86.8 C158.2,88.1 157.7,90 159,91.7 C161.5,95 167.8,97 173,97.5 C179,98 184.9,96.5 187,92.9 C191.3,86.2 187,81.9 182.9,81.1 Z M34,29.8 C36.3,29.7 36.2,34.7 33.8,34.6 C31.4,34.4 32.2,29.8 34,29.8 Z M34,41.9 C30,47.3 25.6,54.3 25.6,54.3 C25.6,54.3 28,40.9 32.7,37.2 C35.7,34.8 38.1,36.5 34,41.9 Z M69,26.1 C68,24.7 71.1,21.8 71.9,22.4 C73.3,23.6 70,27.5 69,26.1 Z M80,32.4 C78,34.6 76.9,34.3 73.6,39.1 C70.4,43.8 72.8,46.2 70.8,46.1 C68.8,46 68.1,36 71.7,30.5 C75.2,25.1 78.8,25.7 80.3,27.3 C81.3,28.4 81.7,30.5 80,32.4 Z M95.8,43.4 C94.4,42.8 95.2,37.5 97.2,38.2 C99.8,39.2 97.2,44 95.8,43.4 Z M112.3,53.1 C109.9,52 112.1,48.7 113.6,49.4 C115.7,50.2 114.7,54.2 112.3,53.1 Z M142.5,84.8 C141.2,84 143,80.6 144.1,81.1 C146.4,81.9 143.8,85.5 142.5,84.8 Z M165.5,84 C164,82.7 166.6,79.9 167.8,81 C169,82.2 167,85.3 165.5,84 Z" id="Shape"></path>
                        <path d="M95.4,79.1 C97.2,79.5 96,74.1 94.1,69.1 C92.2,64.1 91,61.6 88.9,62.8 C87.7,63.5 87.9,65.2 90.9,68.9 C92.2,70.5 93.2,72.9 93.9,75.2 C94.6,77.2 94.6,78.9 95.4,79.1 Z" id="Shape"></path>
                        <path d="M112.7,68.3 C114.7,68.3 113,64 111.7,64.2 C110.5,64.4 110.8,68.3 112.7,68.3 Z" id="Shape"></path>
                        <path d="M117.8,67.7 C116.9,67.6 116.1,71.3 117.5,71.7 C118.8,72.1 118.6,67.8 117.8,67.7 Z" id="Shape"></path>
                        <path d="M122.4,65.7 C120.6,65.6 120.3,69.2 122.4,69.4 C124.5,69.5 124.1,65.8 122.4,65.7 Z" id="Shape"></path>
                        <path d="M128,73.3 C129,69.1 128.1,67.3 127.3,67.3 C126.1,67.3 126.1,69.4 126,72.4 C125.9,75.9 123.8,79.9 123.8,79.9 C123.8,79.9 126.6,78.8 128,73.3 Z" id="Shape"></path>
                    </g>
                    <circle id="Oval" fill="#00ADF3" cx="738.2" cy="456.4" r="4.9"></circle>
                    <path d="M678.6,294.6 C679.7,293.8 676.6,289.7 671.4,290.2 C671.3,290.2 674.6,297.4 678.6,294.6 Z" id="Shape" fill="#0062BA"></path>
                    <path d="M741.1,347.8 C741.1,347.8 738.9,351 736.9,346.9 C734.8,342.8 739.6,343.6 739.6,343.6 C739.6,343.6 741.8,339 744.4,343.6 C747,348.2 741.1,347.8 741.1,347.8 Z" id="Shape" fill="#FFFFFF"></path>
                    <path d="M740.1,345.9 C742.2,346.5 742.4,345.1 741,344.3 C739.6,343.5 739.1,345.6 740.1,345.9 Z" id="Shape" fill="#FFC41E"></path>
                </g>
            </g>
        </g>
    </g>
</svg>