<?xml version="1.0" encoding="utf-8"?>
<!-- Generator: Adobe Illustrator 20.1.0, SVG Export Plug-In . SVG Version: 6.00 Build 0)  -->
<svg version="1.1" xmlns="http://www.w3.org/2000/svg" xmlns:xlink="http://www.w3.org/1999/xlink" x="0px" y="0px"
	 viewBox="0 0 1024 467.2" style="enable-background:new 0 0 1024 467.2;" xml:space="preserve">
<style type="text/css">
	.st0{fill:#DEDAF7;}
	.st1{fill:#FFFFFF;}
	.st2{fill:#3F3161;}
	.st3{fill:#10C96B;}
	.st4{fill:#D4F9E4;}
	.st5{fill:#FFDA06;}
</style>
<g id="bakke_og_himmel">
	<rect x="-6.7" y="-7.3" class="st0" width="1036.6" height="480.5"/>
</g>
<g id="skyer">
	<path class="st1" d="M-10.7,100.1c0,0,33.7-45.8,100-52.8c44-4.7,51.3,24.7,113.3,18.4s70-30.4,126-9s102.9,41.8,176,20.7
		s118.5-0.7,171.2,14C728.7,106,780.5,81.1,831,60c50.3-21,160.3-27.1,202.7,20.4c42.3,47.6,11.7,131.9,11.7,131.9l-1063-21.4
		L-10.7,100.1z"/>
	<path class="st1" d="M864.3,395.5c0,0,0.9,5,1.7,9s-3.1,5.6-8.7,6.2c-5.6,0.6-38.8,2.7-38.8,2.7s-2.5-6.6,9-10.4
		c11.5-3.8,10.1-5.6,10.1-5.6L864.3,395.5z"/>
</g>
<g id="skygge_under_skisse">
	<g>
		<path class="st2" d="M953.6,438.5l-4.5,3.8c0,0-6.9-6.2-14.6-3.8s-28.3,4.4-28.3,4.4l-2.3-22.8c0,0-26.9-17.1-37.8-14.6
			c0.7,7.8-31.7,6.1-41.6,7c-2.8,6.1-9.9,1,17.7,3.7s33.2,4.6,25.7,14.9c-6.4,8.8-18.5-5.9-36.9-6.6v9c0,0,9.6,0.5,15.4,9.9
			s-5.6,10.2-19.1,10c0,0,13.5-11.8,5.1-15.2c-8.4-3.4-27.3,4.3-16.4,6.8s0.9,6,0.9,6l-12-5.4l6.2-3.1l1-13.7c0,0-32.1-9.3-31.9-9
			c0.3,0.4,17.7,29.5,17.7,29.5s-14.9,3.5-22.9-3.6s-13.5-4.6-13.5-4.6l-6.4-5.9c0,0-13.7,7.1-20.2,7.3c-6.5,0.2-32.9,0-32.9,0
			l-22.5,5.1c0,0-13.1,18.2,31.6,30.6l318.7-1.9l2.6-8.1L953.6,438.5z M724.5,462.7c9.6,3,19.5,6.5,19.5,6.5
			c-47.3,8.5-65.9-17.9-41.5-21.4s41.5,12.4,41.5,12.4s-9.2,0.2-17.1-2c-8.6-2.3-14.2-7-16.4-2.7
			C708.9,458.8,716.9,460.3,724.5,462.7z"/>
	</g>
</g>
<g id="hvit">
	<g>
		<path class="st2" d="M573.5,330.5c0,0,229,13.3,264.2,0l-3.5,16.2C834.1,346.7,743.8,364.7,573.5,330.5z"/>
		<path class="st2" d="M833.8,194c0,0-4.3,0.8-4.3,6.1s3.5,29.1,3.5,29.1l16-6.3L833.8,194z"/>
		<path class="st2" d="M721.3,406.6c-1.8-19.6-21.1-32.8-40.8-30c-14.1,9.1-27.9,20.6-30.4,40.4c4.8,22.5,16.3,33.5,40.8,30
			C710.6,444.2,723.2,427.8,721.3,406.6z M710.3,419.1c-2.5,12.3-12.8,19.1-24.5,19.7c-10.9,0.6-26.4-7.3-24.5-26.8
			c1.9-19.5,20.3-26.4,30.7-24.1C702.3,390.2,714.5,398.8,710.3,419.1z"/>
		<path class="st2" d="M829,389.8c-5.8-17.3-18.5-19.2-24.3-19.2c-9.4,0-27.3,8-28.7,32.3c-1.3,24.3,22.8,31.5,35.2,29.7
			C823.5,430.8,834.8,407.2,829,389.8z M806.1,425.6c-6.8,1.3-18-3.3-20.1-13.6c-5.2-25.1,11.7-30.7,18-31.4c8-0.8,19,4,19,21.1
			C823,413.3,815.1,424,806.1,425.6z"/>
		<path class="st2" d="M753.2,149.8v31.4c0,0-2.6-4.3-9.2-4.3s-12.1,0-12.1,0l-9,7.3l-4.6,0.5c0,0,11.6,3.1,18.1,12.9
			c2.6,4.1,3.3,7,3.3,7h18.7h18.9v1.5c0,0,2.7,0.4,7.1-3.2s3.3-13.9-2.7-13.9s-20.4-2.9-20.4-2.9l5.2-1.2l70.1,9.1l-5.6-24.8
			l-10.3-2.9v-7.9c0,0,4.7-3.1,1.9-9.1s6.9-7.8,4.9-13.9c0,0,3.5-9.9-1-10.9c0,0,5.8-9.6,1.8-11.5c0,0,3.8-14.4-3-16.9
			c0,0,6.1-3.5,3-7.1s-21,7.1-20.8,21.4s-11,11.6-11.6,23s-9.1,41-9.1,41l-22.4,6.5V157l14.2-10.2v-18.2L753.2,149.8z"/>
		<circle class="st1" cx="765" cy="202.9" r="6.9"/>
		<path class="st1" d="M908.4,272.4c1.9,0.8,53.4,19.6,124.1,16.6v10.2c0,0-92.3-5.1-122.7-19.3L908.4,272.4z"/>
		<path class="st1" d="M807,248.4c0,0,10.3-30-33.8-27.1S807,248.4,807,248.4z"/>
		<path class="st1" d="M174.3,250.4c37.5,20.9,86.8,43.8,161,57.3c67.5,12.3,157.6,15.8,241.2,23.4c175.6,15.8,269.4-0.9,269.4-0.9
			l1-17.4c0,0-61.4,35.7-266.4,0.7c0,0-215-12.6-281-22.6S174.3,250.4,174.3,250.4z"/>
		<path class="st3" d="M127.8,156c0,0,31.5-46.2,119.8-40c64.5,4.5,74,36.8,140.2,21.8s72.6-27.3,122.4-17
			c35.1,7.2,72.6,29.5,92.1,33.5c5.4,1.1,17.2,6.1,31.8,12.8c9,4.2,34.5-3.9,33.5,13c-0.6,10.1,10.1-9.3,18.9-4.9
			c23,11.4,47.3,40.9,53.8,43.4c0,0,5.6-2.5,3-8.2s-0.5-7.8-0.5-7.8s-3.1-4-1-4.9s6.4-0.9,7.6,8.1s3.8,8.4,3.8,8.4s-3-12.1,1.2-12.6
			s2.8,13,4.4,13s-0.4-9.9,2.8-12.8c0,0-4.9,0.5-4.2-2.9s1.9-8.1,5.9-5.5s-1.8,7.8-1,14.9s1.5,11.8,3.5,11.4s1.5-8.1,5.9-7.5
			c2.6,0.4-2,4.6,0,5.6s2.4-3.6,5.5-1.4s0,8.8,0,8.8s5.5-0.8,7,6.1c0,0,6.5-2.2,7.5,5.5c0,0,9.8-7.1,30,14.1s43.5,54.4,43.5,54.4
			s-51.1,26-109,25.2s-164.8-12-223.5-26.5S134.8,201.8,134.8,201.8L127.8,156z"/>
		<path class="st3" d="M635.5,136.4c0,0,9-16,28.9-15.1s24,10.6,24,10.6s9.2-13.1,29.1-12.2s28.4,17.6,28.4,17.6L695,155.6
			l-45.9-9.4L635.5,136.4z"/>
		<path class="st3" d="M831,169.2v-21.3l-7.5-11.2v-5.3l21.2-2.7c0,0-0.7-8.3,9.2-13.2c4.4-2.2,25.6-15.9,52.8-25.6
			c16.7-6,36.9-7.3,53.5-12.8c17.3-5.7,32.7-10.5,42.5-13c0,0,14.3-24.7,31-25l-1.2,34.8l-69.3,60l-78.5,7.7v33.2l-30.2,6.3l9.3,3.7
			l18.7-3.2v9.2c0,0,5.8-9.2,19-4.2c9.2,3.5,5.6,13,8.9,11.3c2.4-1.2,5.9-2.4,10.1-1.1c7,2.2,10.3,8.3,10.3,8.3s8-6.7,16.2,0
			c5.8,4.8,6.7,8.8,6.7,8.8s21.3-8,31.3,6.7l47.5,17l1.2,21.7c0,0-14.7,3.2-40.3,0c0,0-10.4,4-20.3-1.2c-7.3-3.8-5.7-11.3-5.7-11.3
			s-7.2,4-22.7-4.2c0,0-62.5-18.8-76-22.7c-12.8-3.7-6.3-24.7-6.3-24.7l-25.3-1.7L831,169.2z"/>
		<path class="st3" d="M834.9,221.1c0,0,3.8-23.6-18.9-28.8c-11-2.5-15.9,4.6-20.5,6.1s-10.6,4-7.9,10.1c0,0-4.1,1.6-3.1,6.5
			s8,6.1,14.2,1s7.6-3.1,11,1.5c3.4,4.6,1.1-6.5,8.5-5.1S823.1,226.5,834.9,221.1z"/>
		<path class="st3" d="M790.1,336.9c0,0,3,9.4,1.6,12.8s-14.9,15.2-19.5,21.4s-8.8,15.9-8.9,43.4l-20,1.9l-3.5-33.2l-7.4-3.1
			l-5.6-23.2l10.4-13.6l19.2-3L790.1,336.9z"/>
		<path class="st3" d="M686.6,377.2l-2.8-0.1l0.2-24.9c0,0-14.8,0-17.4,0s-3.2,0.8-3.2,9.2s0.1,9.9,3,10.9s12.6,4.9,12.6,4.9
			S660,381,652.2,401s1.9,36.2,9.8,41.4c0,0-14.7-25-3.6-43.1c11.1-18.1,28.2-25.6,57-8.9C715.4,390.4,704.8,372.8,686.6,377.2z
			 M672.4,370.5c0,0-2.9-0.9-2.9-14.6h3.6L672.4,370.5z M680.1,373.6l-4.5-1.9l1-15.9h3.5V373.6z"/>
		<polygon class="st3" points="761.5,417.9 766.2,417.9 770.1,420.4 770.1,424.8 756.1,428.9 		"/>
		<path class="st3" d="M800.6,404.1c5.9,2.2,10.3,6,17.2,12.2l-2.6,9.4h-5.8c0,0,6.5-6.1,2.6-9.4s-12.2-9.5-15.8-10.1
			C796.4,406.1,798.4,403.2,800.6,404.1z"/>
		<path class="st3" d="M750.6,194c-1.3-0.6-3.2,4.5,0,8.9C750.6,202.9,755.2,196,750.6,194z"/>
		<ellipse class="st3" cx="821.7" cy="431.1" rx="12.4" ry="13.9"/>
		<ellipse class="st3" cx="818.6" cy="431.1" rx="12.4" ry="13.9"/>
		<path class="st4" d="M-10.7,169c0,0,7.3,8.3,20.7,6.7c13.3-1.7,26.9-29.9,60.7-37.7c35-8,66.2,9.5,91,37.9
			c12.3,14.1,25,14.1,50,11.1s38-1,60,20.3s47.2-1.8,88,6.7c32,6.7,31.1,39.7,62.3,38c16.6-0.9,38.5,1.4,51.7,15
			c9.7,10,23.3,21.4,36.5,25.6c31.6,10.1,73.4,21.4,73.4,21.4S388,301,334.3,295.7c-53.7-5.3-119.7-20.7-179-55.7
			s-173-14.9-173-14.9L-10.7,169z"/>
		<path class="st4" d="M862.4,132.4c-6.6-3.6-12.7-6.5-11.4-15.2c1.3-8.8,9-7.3,12.5-12s3.6-8,11-10.1s7.6-8.6,7.6-12.2
			s4.5-12.1,15.8-7.5s11.8-4.2,17.5-7.9c5.5-3.5,12.9-1.8,17.1,7.1c0,0,1-6.5,13.4-5.6c6.4,0.5,9.2,1.8,12.9,4.5
			c7.9,5.7,13.6,14.1,5,21.8c-3,2.7-5.8,3.1-12.1,4.2c0,0,2.2,9-6.5,13.2s-11.6,4.5-12.8,10.2s-18.5,11.4-19.2,0.9
			s0.4-19.6,7.5-25.8c0,0-3.1-8.7-13.1-5.8s-9,15.3-6.9,19.2c2.8,5.2,6.4,8.2-6.8,8.2c-9.2,0-9.1,7.7-11.5,11.4
			S869.2,136.1,862.4,132.4z"/>
		<path class="st4" d="M598.7,240.7c0,0-6.5,10.6-3.8,11.4C597.7,252.9,598.7,240.7,598.7,240.7z"/>
		<path class="st4" d="M561.6,234.9c-2.6,2.2-9-13.2-5.8-14.5C559.1,219.1,565.8,231.3,561.6,234.9z"/>
		<path class="st4" d="M587.9,164.3c-3-1.3-9.9,14.6-6.4,15.7S592.3,166.2,587.9,164.3z"/>
		<path class="st4" d="M676.7,197.2c-2.6-1-0.8,7.4-0.8,7.4S679.5,198.2,676.7,197.2z"/>
		<path class="st4" d="M670.7,197.6c0,0-7.5,3.9-10.1,11.5c-2,6.1,2.8,13.3,4.9,13.3c4.3-0.1,8.6-8.9,7.4-15.3
			C672.5,204.9,670.7,197.6,670.7,197.6z"/>
		<path class="st4" d="M916.5,294.7c0,0,0,13.2-6.3,28.7c-6.3,15.5-6.3,26.3-6.3,26.3l23.3,62.5L899,424.5c0,0-24.3-44.5-28.2-58.8
			c-3.8-14.3-3-17.2-0.7-28.8l-7.5,11.6l3.3,46.8l-28.3,2l-4.7-59.5l27.5-43.2H916.5z"/>
		<path class="st4" d="M749.3,270.2c0,0,2.2-1.8,2.7,1.2s2.4,14.3,2.4,14.3l14.3-10.8c0,0,3.1-2.4-4.1-11.1
			c-7.2-8.7-10.3-7.8-10.3-7.8L749.3,270.2z"/>
		<path class="st4" d="M666.9,338.7c0,0-7.1-1.7-8.8-12.8c0,0-9.2,0.2-6.8-10.8s13.2-7.6,14.2-2.2c0,0,9.2-6,17.2,0.8
			c0,0,4.4-7,10.1-1.3c4.8,4.8-1,10.9-5.1,10.3c0,0,1.7,4.9-0.3,9.9c0,0,11.5-0.2,12.8,4.3c1.3,4.5-3.8,6.6-8.4,5.9
			c0,0,2.7,3.8,2,6.3l3.8,12.2l-0.6,13c0,0-12.2,2.9-12.5,2.9c-0.7,0,0-24.9,0-24.9h-18.9c0,0-2.7,3.7-6.7,7
			c-2.1,1.8-7.1,2.7-9.6,1.4c-3.3-1.7-3.4-6.5,2.7-12.6C658.7,341.4,666.9,338.7,666.9,338.7z"/>
		<path class="st4" d="M833.8,194c0,0-0.2,20,14.3,30.3c14.5,10.3,92.2,50,178.8,42.2v-6.4l-33.7-0.9c0,0-24.8,5.8-26-12.5
			l-99.8-27.2c0,0-10.2-3.5-5.2-24.3L833.8,194z"/>
		<path class="st4" d="M583.5,281.8c0.4-3.8-9.2-11.4-18.2-10.6S583.5,281.8,583.5,281.8z"/>
		<polygon class="st4" points="823.5,136.7 817.4,147.6 817.4,165.4 831,169.2 831,147.8 		"/>
		<polygon class="st4" points="831,137.6 835.1,144.5 843.6,144.5 840,137.6 		"/>
		<g>
			<path class="st4" d="M659.8,177.5c0,0,0-0.4,0-1.1C659.6,176.9,659.8,177.5,659.8,177.5z"/>
			<path class="st4" d="M686.5,226.5c0,0,0,0.4-0.1,1C686.6,226.8,686.5,226.5,686.5,226.5z"/>
			<path class="st4" d="M790.2,252.8c-2.6-2-8,1.6-7.1,0.3c0.9-1.2,8.1-5.1,0.7-4.8c-7.4,0.3-3.8,1.6-6.4,0.9
				c-2.7-0.7,0.2-11.6-3.8-14s-4.9,2.9-7.3,2.8c-2.4-0.1-1.1-10.5-5.1-9.4c-4,1.1-1.9,5.2-4.2,4.8c-2.2-0.4-0.5-8.8-4.1-8.5
				c-3.6,0.3,2.1,6.3-2,6.2c-4.1-0.1-6.2,8.8-6.2,8.8c0.7-9.6-3.8-6.8-5.2-4.6c-1.3,2.2-3.2,2.7-2.5-2.6s-4.7-3.8-4.7-3.8
				c1.4-3.1-1.6-4.2-1.6-4.2c7-6.4,5,1.4,5,1.4s3.3-0.3,4.6-8c4.8-29.3-26.6-35-26.6-35c-1.2-11.5-10.7-10.8-10.7-10.8
				c-0.2-6.3-6.8-8.3-6.8-8.3s3-4.7,1-8c-6.4-10.6-17.3-2.3-17.3-2.3s-3.7-7.2-11.7-7.2c-12,0-15.5,14.7-15.5,14.7s-4.5-3-8.7-3
				c-9.3,0.1-11.7,7.8-11.7,7.8c-6.3-3-9.2,0.7-9.2,0.7c-7.5-3.7-20.8-3.9-31.1,7c-13.4,14.2-7.2,29-3.9,35
				c2.9,5.2,9.5,16.9,4.5,17.8s-1.8-6.4-4-6.2c-3.9,0.3-1.3,6.9-3.3,8.2c-0.7,0.4-3.1,2-4.8,0.2c-3.4-3.3,7.7-12.7,5.6-13
				c-2.2-0.3-7.8,0.3-11.1,4.4c-1.6,2-2.8,3.2-4.3,2.5c-0.8-0.3,1.5-5,5.9-7.1c4.4-2.1,10.9-1.8,10-3.6c-0.5-0.9-7.7-4.1-11.9-2.3
				c-6,2.5-9.3,11.1-8.1,16c2,8.3-2,11.5-5,21.5s6.3,13.2,6.3,13.2s-3.9-10.8,1.3-15s11.7,5.1,11.7,5.1s-1.6-8.1,2.7-10.9
				s6.3,0.5,6.3,0.5s2.1-5.8,4.2-5.5c2.1,0.3,1.7,6.5,1.7,6.5s5.6-8.7,8.4-7.7s-1.8,12.2-1.8,12.2l3.2-1.1c0,0-0.2-4.2,2.2-4.4
				c2.3-0.2,2.5,3.5,2.5,3.5c1.8-1.3,3.2,1.2,3.2,1.2c2.7-4,7-1.6,7-1.6c-0.5-2.2-3.2-4.2-3.2-4.2s8.6-4.9,1.1-7.6
				c-7.5-2.7-14.4-13.5-19.4-21.7s-1.2-9.2-1.2-9.2c-3.9-11.1,1.5-5.7,5.8,4.2c4.3,9.8,8.1,12.9,8.1,10.5c0-2.4,5.8-25.9,8.5-25.9
				s0.3,2.3,1.1,2.8s4-5.1,3.3-3c-0.7,2.1-4.2,7.5-6.6,18.8c-2.3,11.2,4.4,11.5,4.4,11.5s-3-11.4,5.1-21.7c4.6-5.7,7.5-7.1,7.6-3.8
				c0.2,9.3-12.7,20.3-7.2,19.4c8.7-1.4,13.7-15.2,12.4-20.6c-1.2-5.4,1.6-10.7,4.9-10.6c2.4,0.1,2.3,6.8,1.9,8.4
				c-0.4,1.7,3.3-1.9,6.7,1.1c1.9,1.6,1,6.1,0.5,7.7c-0.9,3.4-5.4,10.6-7,11.4c-1.7,0.8,0.5-11.5-0.7-9.9c-2.7,3.5-6.1,20,1.3,17.5
				c3.1-1,5.9-10.6,9.7-17.8c2-3.8,1-9.1-1.1-12c-2.1-2.8-1.5-16,1.3-16.6c2.1-0.4-0.6,6.8,2.5,9c0,0,3.3-4.4,4-4.3
				c1.8,0.2-0.5,19.3-0.5,19.3l6.7-7.2c0,0,0.5-6.9,2.1-6.8c1.6,0.1,0.7,4.7,0.7,4.7s9.8-4.3,11-1.4c1.7,4.1-4,1.9-6.2,4.5
				c-2.2,2.6,0.2,3.7,0.2,3.7s1.5-5.9,5.2-3.8c3.8,2.2-0.7,11.2-0.7,11.2l3.2-2.7c-2-5.1,1.1-13.7,3.6-16.3c2.3-2.5,2.7,1.4,2.7,1.4
				c0.8-2.7,3.4-1.7,2.8,1.8s-1.2,8.9-1.2,8.9c4.8,2.2-1,8.7-1,8.7s9.9-7.7,11.3-4.8c2.4,4.8-2.8,7.8-2.8,7.8
				c2.9-0.6,2.8,4.9,2.8,4.9c2.7-0.8,6.7,2.9,6.7,2.9s-7.1-16.8-3-14.9c4.1,1.8,8.9,20.2,8.9,20.2c-3.7-1.6-5.2-0.6-5.2-0.6
				c2.6,4.9-1.5,5.4-1.5,5.4c3.2,8.4-2.4,7.9-2.4,7.9c1.4-2.8-0.3-3.3-0.3-3.3c-4.1,1.7-5.2-2.1-5.2-2.1c-1.7,0.2-2.7-2.4-2.7-2.4
				s-3.3,6.3-5.8,6.3c-2.4,0-1.5-6.5-1.5-6.5s-3.1,7.6-4.4,7.7c-1,0.1-1-2.5-1-4c-0.3,1.4-1.4,4.3-6,9.4c-6.9,7.8-8.2,6.8-8.8,16.2
				c-0.7,9.4,4.7,7.5,4.8-0.2c0.1-5.2,3.5-10.7,3.5-10.7c1.6,7,14.4,1.4,14.4,1.4c8.7,0.7,19-5.8,19-5.8l7.2-1
				c-6.2,3.6-4.5,9.8-4.5,9.8c13.5-6.9,18.7,1.7,18.7,1.7l5.6-1.3l8.4,3.6c0,0,11.8-4.3,18.4-0.5c6.7,3.8,6.2,12.1,10.8,10.7
				c4.5-1.4-0.8-6.9-0.8-6.9C788.8,260.2,792.8,254.8,790.2,252.8z M615.4,189.5c-4.6,8.9-6.2,18.8-6.2,18.8s-1.2-14.6,1.5-22.7
				S620,180.6,615.4,189.5z M630.1,177c2.8-0.1,2.2,4.6,0,5C627.9,182.4,628.3,177,630.1,177z M632.8,186.3
				c-1.2,3.1-11.2,16.2-11.2,16.2s1.8-6.3,5.1-14C629.9,180.8,633.4,184.6,632.8,186.3z M696.8,194c-1.2-0.9-0.6-6.8,1.8-5.3
				C700.8,190,698,194.8,696.8,194z M720.2,220.5c0,0-1.1-10,1.3-9c3,1.2,4.1,15.7,4.1,15.7C723.7,219.3,720.2,220.5,720.2,220.5z
				 M749,241.6c0,0-0.2-5.1,2.7-5.8l1.3,6.4L749,241.6z M758.3,243c0,0,0.8-5.6,2.6-5.7l2.2,6.2L758.3,243z M767.9,244.2l2.8-3.7
				l2.2,4.8L767.9,244.2z"/>
		</g>
		<path class="st2" d="M523,124c0,0,8.5-9.2,23.3-7.4c9.2,1.1,12,10.2,12,10.2s2-6.5,8.6-5.9c5.6,0.5,8.8,8.1,8.8,8.1
			s5.6-19,26.8-18s20.1,18.5,24.9,19s9.2-1.5,17.8,4.4s6.5,6.9,13.9,6.5s10,5.1,10,5.1s10.1-1.5,13.9,6.2l-2.9,1.7
			c0,0-5.1-9.1-14.3-6.9s-12.9,14.4-12.9,14.4s-12.3-9-20.1,4.3L523,124z"/>
		<polygon class="st2" points="711.2,161.3 711.2,172.2 720.8,172.2 720.8,165.8 		"/>
		<path class="st2" d="M881.3,196.3c0,0-14.4-0.8-14.4,11.7s0.7,17.3,12.2,21c7.1,2.3,9.4,0,9.4,0s1.4,7.4,10.6,8s12-3.2,13.8-2.9
			c1.8,0.3,4.9,5.3,10.4,6.6c5.2,1.3,7.1-0.7,7.1-0.7s8.1,11.3,16.2,3.4c5.9-5.7-0.5-13.2-0.5-13.2s3.7-9.9-7.7-11.2
			c0,0-4.8-5.8-8.8-0.2c0,0-5.8-8.5-11.3-4.6c0,0-11.2-2.7-10.3-10C908,204.3,882.1,206.2,881.3,196.3z"/>
		<path class="st2" d="M1027,221.3c0,0-5.8-5.8-13.4-2.1c0,0-4.6-9-12.1-4c0,0-7.7-3.8-10.2,2.3c0,0-17-0.2-16.5,25.3
			c0.6,25.5,32.8,17,36.1,10.5c0,0,3.8,4.5,7,1c0,0,4.8,5.1,9,0.6V221.3z"/>
		<path class="st2" d="M978,198.8l40.2,9.2l11.7-1.9v-6.7l-11.1,3.3l-39-7.9c0,0-2.2,0.1-2.6,1.6S978,198.8,978,198.8z"/>
		<path class="st2" d="M975.9,149.8l45.1-18.7l13.5,3.5l-5.8-69.4c0,0-3.8,13-18.8,11.4c0,0-7.5,2.4-9.4,15
			c-1.8,12.6-7,3.2-19.6,9.2c-12.6,5.9-14.6,17.4-14.6,17.4l10.4-1.7l39.7,8.9l-50.8,24.4C965.6,149.8,962.9,155.2,975.9,149.8z"/>
		<path class="st2" d="M833.1,130.1c0,0-3.1-22.4,5.9-32.7s15.6-16.1,22.1-9.6s0.3,19.2,0.3,19.2s-9.8,3.8-10.5,10.4
			c0,0-7.4,5.7-6.3,11.2L833.1,130.1z"/>
		<path class="st2" d="M858.3,163.7c0.3-0.5,8-22.6,8-22.6s7.4-3.1,7.7,6.2c0.1,4-1.2,5-1.2,5s7.7-2.4,8.8,4.9
			c1.2,7.2-0.6,8.8-0.6,8.8s10.9,1.9,4.8,13.8c-3.4,6.8-10.4,0-10.4,0s-2.7,4.1-8.7,2.6c0,0-2.8,7.8-9.4,5.8c0,0-3.4,5.7-11.1,2.7
			c0,0-2.1-11.2,3.3-15.7C855.1,170.6,856.6,167,858.3,163.7z"/>
		<path class="st2" d="M886,243.4l27.8,9.9c0,0-1.3-7.5,0.5-8.4s0.9,6.5,2.3,6.9s2.8-8.6,5.6-7.9c1.4,0.4-1.2,3.9-1.2,3.9
			s1.1-1.4,2.1-0.4s-1.6,4.1-1.6,4.1s2.3-2.1,3.1-1.1c0,0,1.2-1.8,2.1-0.8s-1.3,2.3-1.3,2.3s2.2-0.2,1.5,1.6c0,0,2.3-0.9,3.9,0.5
			s5.7,1.4,10.6-1.2s6.6,3.8,6.6,3.8s0.5-1.2,1.8-1s1.8,3.3,3.6,3.3s0.1-2,1.4-2.3s-0.7,2.5,2.9,3.4c3.6,1,53,8.9,69.3,6.5v24
			c0,0-71.3-0.8-116.7-17.3L886,243.4z"/>
		<path class="st2" d="M947,289c0,0,44,9.3,81.3,8.5v15.3L947,289z"/>
		<path class="st2" d="M834.9,221.1c0,0-7.9,14.6-7.8,22.2l-4.3-3.6c0,0-7.4,1.9-10.7,2.6c-3.3,0.7-8.7-6.1-8.7-6.1
			s-5.3,1.9-6.8,0.7c-1.5-1.3-1.1-9.7-1.1-9.7s-4.5-3.6-2.9-8.1c0,0,2.8-0.2,6.1-3.1s6.5-4.3,9-1.1c2.5,3.2,3.5,5.7,4.5,2
			c1-3.7,3.2-5.2,6-4.5s5.4,9.8,9.9,9.7S834.9,221.1,834.9,221.1z"/>
		<path class="st2" d="M795.7,247.7l-26.3,24.1c0,0,0.4,2.3-1.4,3.6l22.3,0.5l18.5-12.8L795.7,247.7z"/>
		<path class="st2" d="M842.8,272.4c0,0-6,26.4-7.2,31.7c-1.2,5.2-23.4,31.6-23.4,31.6s6.2,10.5,0.6,15.7
			c-5.6,5.2-12.8,9.2-12.8,9.2s10.2,2.5,18.9-3.8s11.5-15.1,14.1-19.2c5.1-7.9,18.9-21.5,18.9-21.5s11.9-26.3,12.3-37.5L842.8,272.4
			z"/>
		<path class="st2" d="M751.6,364.3c-7.1-0.1-12,11.3-12,11.3s0.7,11.8,1.2,16.1c0.5,4.4,6.2,8.9,13.5,4.3
			c4.4-2.8,5.9-10.9,5.9-10.9s6.3,1.9,6.9,1.3s0.9-3.6,0.9-3.6s-3.9-2.7-7-2.6C760.9,380.2,763.9,364.4,751.6,364.3z"/>
		<path class="st2" d="M741.7,360.3c0.9-1.4-9-11.3-9-11.3l4-5.3c0,0-3.8-0.3-8.3,5.5s-3.9,12.1-3.9,12.1h4.1l2.9-8.2l7.8,7.1H741.7
			z"/>
		<path class="st2" d="M724.8,277.3c0,0,0,1.1,1.3,1.7s2.3,0.8,2.8,1.9s0.9,3.3,1.2,4.4c0.3,1.1,1,1.8,2.9,0.9
			c1.9-0.9,1.7,0.8,4.1,2.1c1.8,1,5.7,2.2,9.9-1.2c0,0,0.7,1.1,1.5,2.2s7.3,1.5,10.4-7l-4.5,3.4c0,0-1.4-7.9-1.9-11.3
			c-0.5-3.4-0.2-6.2-3.6-3.6C745.4,273.4,724.8,277.3,724.8,277.3z"/>
		<path class="st2" d="M734,297.4l-11.1,8.1l-16.5,5.9h-5.9c0,0-4.4,1.7-5.4,8.3c0,0,2.3-4.3,5.4-2.4c1.6,1,0,4.9,0,4.9
			s0.1,2.4,2.7,0s3.1-4.2,8.4-5.1s20.2-4,20.2-4l11.7-8.9L734,297.4z"/>
		<path class="st2" d="M755.3,301.2l-16,16.4c0,0-15.6,2.9-19.2,5.3s-9.8,6.9-8.9,14.8l6.4,0.4c0,0,2.9-8.4,6.6-8.7
			c3.7-0.3,17.9-1,17.9-1l10.5-4.2l11-9.4c0,0,3.2-5.6-0.4-10.1S755.3,301.2,755.3,301.2z"/>
		<path class="st2" d="M817.6,422.1c0,0-6.5,5-4.1,12.7c2.1,6.6,9.6,5.8,9.6,5.8s-6.2-3.4-7.2-8.2S817.6,422.1,817.6,422.1z"/>
		<path class="st2" d="M684.6,352.2l-0.1,4.4l4.4-0.3l-0.3,18.2l-5,0.9v2.2l24.1-3.2l0.6-22.9L684.6,352.2z M694.7,373.6l-3.5,0.8
			l0.5-18.2h3.9L694.7,373.6z M703.1,371.9l-3.8,0.8v-17.2h3.8V371.9z"/>
		<polygon class="st2" points="894,181.2 894,156.8 922.9,161.5 922.9,181.8 920.1,181.1 920.4,163.4 896.4,160.2 896,181.8 		"/>
		<polygon class="st2" points="930.4,162.4 963.5,164.2 963.5,200.1 931.8,196.3 932.1,194 961.1,197 961.5,167.2 932.5,165.1 
			932.5,185.4 929.9,185.2 		"/>
		<circle class="st2" cx="668.4" cy="326.4" r="1.9"/>
		
			<ellipse transform="matrix(0.9132 -0.4075 0.4075 0.9132 -73.2834 305.1519)" class="st2" cx="679.7" cy="324.6" rx="1.4" ry="1.7"/>
		<path class="st2" d="M674.4,326.9c-1.7,0.7-1.8,2-0.6,1.7c0,0,0.3,2.1,1.9,1.5s0.2-2.5,0.2-2.5S677.8,325.5,674.4,326.9z"/>
		<path class="st0" d="M695.5,150.4h57.8c0,0,22.8-18.6,24.8-20.3s0-4.9,0-4.9l-55-0.9l-2.2-1.9h-2.5l-30.8,24.3
			C687.5,146.8,684.1,150.4,695.5,150.4z"/>
		<path class="st0" d="M778.9,134.6c0,0,0.9-3.1,4.4-3.8s14.9,0.1,16.5,9.8s0,20.2,0,26.2c0,6-5.6,7.9-14,7.9
			c-8.4,0-7.2-23-7.2-28.8S778.9,134.6,778.9,134.6z"/>
		<path class="st0" d="M795.9,132.6c0,3.6,6.2,0.3,6.8-6.9s5.4-1.1,11.5-4.2c3.4-1.8,1.4-5.5,0.6-11.5s-1.8-10.8,3.1-12.2
			c5.1-1.5,9.6-6,9.1-9.4c-1.4-8.9-13.1-11-16.4-2.9c-2.1,5.2-2.9,3.7-8.5,4.2c-9.9,1-9.2,11.6-3.2,15.2c2.7,1.6-7.1,5.2-4.2,12.1
			C795.5,119,795.9,126.9,795.9,132.6z"/>
		<path class="st0" d="M833.8,194c0,0,1.3-10.2-4.8-12.2c-3.8-1.2-4-3.5-4.2-5.9c-0.3-2.6,1.7-5.2,7.2-7.6
			c6.7-2.8-0.3-17.8,8.7-24.4c7.8-5.8,0.1-13,9-13.3s5.9,8.6,5.9,8.6s7.1-1.1,6.8,5.4c0,0,0-2.3,4.1-3.4c4-1.2,4.3,9.8-2.2,10.3
			s0.1,15.2-5.6,19.8s-12.6,4.8-12.6,19.1C845.9,190.2,847,195.6,833.8,194z"/>
		<path class="st0" d="M734,297.4l11.2-9.1l1.8-1.2c0,0,0.8,4.7,6.3,2.2c5.5-2.5,14-7.3,14-7.3l11.6,7l15.6,46.5l-41.4,8.3
			c0,0-3.7-7.6-4.7-18c0,0,7.7-2.6,15.8-12.9c3.8-4.8-5.6-16.6-10.5-10.1s-11.1,11.3-11.1,11.3l-3.1-6.8
			C739.6,307.2,745.2,305.4,734,297.4z"/>
		<path class="st0" d="M736.7,343.8l1.4-1.3c0,0-8.3-2.5-12.9,7.3c-3.8,8-0.7,11.6-0.7,11.6S723.7,347.9,736.7,343.8z"/>
		<path class="st0" d="M755.2,190.9c-6.2,0-11.4,0-14.2,0s0.5-7,0.5-7h10.8C752.2,183.9,760.8,190.9,755.2,190.9z"/>
		<path class="st5" d="M1016.4,125.4l-51,25.2c0,0-72.5-5.1-80.7-5.9c-8.2-0.8-10.8-9.7,14.6-14.2s75-13.7,75-13.7s2.2-0.4,8.8,1
			C989.6,119.4,1016.4,125.4,1016.4,125.4z"/>
		<path class="st5" d="M1031.1,133.7l-10.1-2.6l-44.5,18.5v64.1c0,0,4.5,1.4,7.9,5.9c0,0,3-2.3,6.7-2.1c0,0,3.3-6.4,10.5-2.3
			c0,0,6.7-5.3,12.1,4c0,0,7.2-3.5,13.4,2.1v-14.8l-8.8,1.5l-39.5-9c0,0-1.9-0.5-1.7-2.3s2-2.1,3-1.9s38.8,7.8,38.8,7.8l11.1-3.6
			L1031.1,133.7z"/>
		<path class="st5" d="M753.2,150.4v30.9c0,0-2.3-4.3-10.2-4.3l-46.8-22.8c0,0-3.9-3.5-6.7-3.8H753.2z"/>
		<polygon class="st5" points="773.2,150.7 773.2,164.8 767,167.9 767,155.1 		"/>
		<path class="st5" d="M860.5,294.7h58c0,0,1.2-20.9-27.5-52.4s-56.7-20.9-56.7-20.9s-7.8,16.2-7.2,22.1l-4.3-3.6
			c0,0-10.5,5.3-14.9,0.9c-4.4-4.4-4.5-4-4.5-4l-9.3,9.1l14.3,17.8c0,0,11.3-8.1,16.1-2.9c4.8,5.3,16.6,19.9,16.6,19.9l1.8-8.1
			l21.6,6.2C864.4,278.6,862.3,289.4,860.5,294.7z"/>
		<path class="st5" d="M760,257.1c0,0-0.6-2.9-6.9-7.9c-6-4.8-14.6-3.9-21.9-0.3c-4.3,2.1-8.6,4.6-10.6,9.5
			c-5.2,13.1,2.4,19.6,2.4,19.6s5.8,2.3,12.6,0c3.4-1.2,6.4-2.5,8.9-3.9c0.9,1.3,3.1,5.4,2.5,13.2l3-2.2c0,0,1.1-7-2.8-12.6
			C758.6,265.4,760,257.1,760,257.1z M726.6,258c-1.9-0.4-1.1-3.7,0.8-3.6S728.5,258.4,726.6,258z M736.9,259.1
			c-3.1,0.6-3.4-3-1.2-3.6C738.6,254.7,740,258.6,736.9,259.1z M742.4,252.2c-1.8,1.8-4.3-0.7-2.9-2.1
			C741.2,248.2,744.2,250.4,742.4,252.2z"/>
		<path class="st5" d="M740.9,314c-2.9,3.3-4.7,9.3-0.5,14c5.3,6,19.6-5.4,12-13.9C748.4,309.5,742.8,311.8,740.9,314z"/>
		<path class="st5" d="M722.8,302.5c-2.4,0.9-1.6,3.4,1.2,7.5s3.3,5.1,5.5,4.5s1.3-4.1-1.5-7.8S724.4,301.9,722.8,302.5z"/>
		<path class="st5" d="M792.1,346.6c3.1-1.6,7.2-4.8,12.2-2.8s10.2,5.1,10.2,5.1s-8.6,12.4-28.4,17.5c0,0,15.5,25.2,18.5,39.6
			c0,0-4-3.2-6.8-1.3l-1.5,1.7l4,3.7c0,0-1.1,1-7-0.9c-5.9-1.9-29.6-7.4-29.6-7.4s0.3-8.4,0.8-8.2c0.5,0.2,31.8,8.8,31.8,8.8
			s-5.1-16.2-16.8-34.9l-4.7,0.4c0,0,11-10.5,16.5-17.6C792.8,348.5,792.1,346.6,792.1,346.6z"/>
		<path class="st5" d="M746.3,360.2l-7,9.1c0,0-9.3,0.1-26.9,1.4l27.6,12.7l0.9,8.7l-35.2-16.6L692,411.8c0,0-0.1,8.9-7.1,7
			c-6-1.6-4-8.8,1.1-10.2l12.1-32.8l9.6-1.3l0.6-16.3l1.7,4.2L746.3,360.2z"/>
		<polygon class="st5" points="701.6,364.7 699.3,355.5 703.1,355.5 703.1,371.9 699.3,372.8 699.3,369.4 		"/>
		<path class="st5" d="M697.9,351.8c0.1,0.1-2-9.1-2-9.1s4.7-0.5,4.9-4.6c0,0,5.9,13.8,5.7,13.7S697.9,351.8,697.9,351.8z"/>
		<path class="st5" d="M694,333.2c0,0-1.5-9.2,1.2-13.4s7.7-3.7,5.4,2.5c-2.4,6.2,14,5.2,14,5.2s-3.7,3-3.4,9.8l-10.9-0.8
			C700.2,336.4,699.8,334.1,694,333.2z"/>
		<path class="st5" d="M717.6,338.1c0,0,13.6,1.2,15.5-3.3c1.9-4.5-6-5.5-9.4-5.3C720.2,329.6,717.6,338.1,717.6,338.1z"/>
		<path class="st5" d="M482.9,82.6c0,0,10.5-48.4,61.5-47.3c40.1,0.9,55,35.9,55,35.9s-38.3-7.8-75.7,1.5
			C486.4,81.9,482.9,82.6,482.9,82.6z"/>
		<polygon class="st1" points="983.5,163.2 998.8,161.2 998.8,185.5 983.5,189.9 		"/>
		<polygon class="st1" points="1008.6,159.8 1024,156.8 1024,180.6 1008.6,183.9 		"/>
		<path class="st1" d="M923.9,413.6c0,0,2.4,4.2,0.6,10c-1.4,4.4-4.4,5.5-11.3,12.5s-9,9.6-15.5,11.5s-17.8,1.8-14.6-3.5
			c1.3-2.2,5.3-5.4,8.3-9.1c4.2-5,7.5-10.4,7.5-10.4L923.9,413.6z"/>
		<path class="st1" d="M744.8,422.1c1-3.3,0.2-9.9,6.8-10.7c6.6-0.8,5.1,3.3,11.7,3c0,0,3,6.1-5,16.9c-7.9,10.9-14.3,12.1-19.5,10.9
			c-4.7-1.1-6.5-5.2-1.5-9.9C740.3,429.4,743.8,425.5,744.8,422.1z"/>
		<path class="st1" d="M741.4,397.3c0,0-20.5,9-21.7,1.9c-1.2-7.2,11.1-6.9,12.4-11.3l8.8,4.2L741.4,397.3z"/>
		<path class="st1" d="M768,275.4c5.5-4.6,15-6.1,22.3,0.5c7.3,6.6,11.4,10.3,9.8,12.6c-1.2,1.6-3.5,1-3.5,1s1.8,7.8,3.1,9.5
			s3.9,3.4,2.6,5.2s-4.2-2.4-4.2-2.4s2,18.5-6.1,26l-2.1-6.4c0,0-8.5,7.9-23,9.5c0,0,9.4,4.1,6.8,6.7s-5.9-3.9-11-4.2
			s-12.5,1.7-12.5,1.7l-0.8-3.7c0,0,29.4-3.3,39.4-13c0,0-6.5-18.1-13.6-28.5s-14.3-3.9-16.2,0.2s-8.4,16-8.4,16l-0.5-5.1l9.4-19.1
			L768,275.4z"/>
		<rect x="728.7" y="154" class="st1" width="9.7" height="17.1"/>
		<polygon class="st1" points="710.8,154 720.8,154 720.8,166.1 710.8,161.3 		"/>
		<path class="st1" d="M588.4,266.9c-1.1,1.4,8.4,3.5,8.4,3.5S591.8,262.7,588.4,266.9z"/>
		<path class="st1" d="M606.8,266.2c0,0,3.2-5,0.4-6.5c-2.2-1.2-7.4-0.8-9.4,3.8c-1.6,3.7,1.5,5.1,1.3,5.6c-2.9-0.7-1.9-5.1-9.1-5
			c-7.2,0.1-5.6,7.2,1.9,7.8s2.6,4.2-0.1,5.6c-2.7,1.4,0.5,8.3,6.2-1c0,0,0.4,3.5,3.8,1.3s-0.6-5.1,0.9-5.7c1.5-0.6,3.1,4.4,6.7,2.3
			C612.9,272.2,612.5,265,606.8,266.2z M607.2,272.1c-2.7-1.9-4.6-3.3-7.1-1c0,0,3.9-4.6,8.1-2.5
			C610.3,269.6,608.4,272.9,607.2,272.1z"/>
		<path class="st1" d="M620.4,259.2c0,0-3.1,2-3.6-0.9c-0.5-2.9,4.1-10.7,6.9-5.4c0,0,4-2.5,3.9,2.1
			C627.6,259.5,621.1,263.6,620.4,259.2z"/>
		<path class="st1" d="M635.4,264.5c0,0,0.2-2.2-2.1-1.8s-3.1,7.8,1,7.4C638.5,269.7,641.1,260.7,635.4,264.5z"/>
		<path class="st1" d="M654.4,261.5c0,0,3-1,3.7-4.2C658.1,257.2,654.9,256.2,654.4,261.5z"/>
		<path class="st1" d="M660.2,264.9c0,0,1.5-3.4-2.2-3.4c-3.7,0-8.7,7.3-2.2,8.2C662.4,270.7,663.2,265.3,660.2,264.9z"/>
		<path class="st1" d="M649.9,280.8c0,0-2.2,3.4-4.4-0.9c-2.2-4.3,2.8-3.4,2.8-3.4s2.2-4.8,5,0C656.1,281.2,649.9,280.8,649.9,280.8
			z"/>
		<path class="st1" d="M671.4,276.4c0,0,3.2-2-0.5-2.7c-3.7-0.8-7.2,3.4-4.4,6.2C669.2,282.7,678.7,277.2,671.4,276.4z"/>
		<path class="st1" d="M607.2,278.1c-0.6,2,6,3.2,6.2,0.8C613.6,276.5,607.8,276.2,607.2,278.1z"/>
		<path class="st1" d="M651.9,257.2c-3.1-0.3-1.8-6.5,1.5-9.7c3.3-3.2-4.4-1.6,1.3-7.8c5.8-6.2,9-1,7.8,1.3s4.2-2.9,4,1.5
			s0.5,5.2-3.2,3.9c-3.7-1.3,3.7,4.8-0.8,6.1s-5.2-1.4-5.2-1.4S655.8,257.6,651.9,257.2z"/>
		<path class="st1" d="M646.6,232.9c0,0-0.5-10.7-10,0.7c-0.2,0.2-11.2-4.6-12,2.7s12,3.4,12,3.4s-7.6,10.3,0,10.8
			c7.6,0.4,5.3-5.8,5.3-5.8s4.3-0.1,6.7-2.5C651.2,239.6,651.6,234.6,646.6,232.9z M636.9,248.4c-2.8-0.1,1.5-7.4,1.5-7.4
			S639.8,248.5,636.9,248.4z M640,238.1c-1.8,0.2-2.2-2-0.6-2C641.4,236.1,641.8,237.8,640,238.1z M647.7,238.6
			c-1.4,3.1-4.1,2.4-4.7-1.5C643,236.8,649.1,235.5,647.7,238.6z"/>
		<path class="st1" d="M659.4,222.4c-3.2-0.3-4.5,4.6-1.3,4.7C661.2,227.3,663.1,222.8,659.4,222.4z"/>
		<path class="st1" d="M686.5,217c0,0,1.6-2.2-2.4-1.8c-4,0.3-6.8,5.7-2.9,6.8C685,223.2,694.4,216.3,686.5,217z"/>
		<path class="st1" d="M675.3,216.4c0,0-3.5,10.4,0.6,11.3C680.1,228.7,675.3,216.4,675.3,216.4z"/>
		<path class="st1" d="M665.5,284.1c0.7,0.1,14.8,1.6,13.8,5.9S665.5,284.1,665.5,284.1z"/>
		<path class="st1" d="M605.6,159c0,0,0.4,4.8,5.3,5.8c0,0,5.3-1,12.2,2.2c0,0,1-1.6,2.4-1.5c0,0,5.1-5.5,0.5-10.2
			c0,0,2.3-1.2,1.9-4.9l1.2-3.2l-3,0.5c0,0-3.9-2.2-6.3,2.2c-1.8,3.2,1.1,4-2.5,7.1c-2,1.8-2.9,3.9-2.9,3.9L605.6,159z"/>
		<path class="st1" d="M573.2,166.7c-2.4,1.2,0.5,4.3,1.5,3S574.3,166.1,573.2,166.7z"/>
		<path class="st1" d="M575.8,162.3c-1.4,0.2-0.2,4.8,1.4,3.4C578.8,164.4,577.6,162.1,575.8,162.3z"/>
		<path class="st1" d="M578.5,151c-3,0.1-2.3,4,0,3.8C580.8,154.7,580.7,150.9,578.5,151z"/>
		<path class="st1" d="M584.9,152.9c-1.5,0.1-1.3,3.2,0.8,3.1S586.9,152.8,584.9,152.9z"/>
		<path class="st1" d="M591.3,152.5c-1.7,0.1,0.7,8.2,0.7,8.2S595.2,152.2,591.3,152.5z"/>
		<path class="st1" d="M594.7,159.4c0,0,9.8-7.5,6.8-9S594.7,159.4,594.7,159.4z"/>
		<path class="st1" d="M737.8,235.2c0,0,1.3-2.4-1.3-2.2s-1.8,3.1-1.8,3.1s-3.8,0.5-2.2,3.3c1.5,2.9,3.7,0,3.7,0s0.9,1.9,2.7,1.6
			s-0.5-3.2-0.5-3.2s3.7-0.2,3.3-1.8C741.2,234.6,737.8,235.2,737.8,235.2z"/>
		<path class="st1" d="M951,227.4c0,0,0.6-1.4-0.9-1.8c-1.5-0.4-3.5,2.4-1,3.4S951,227.4,951,227.4z"/>
		<path class="st1" d="M962.1,229.7c-1-1.3-2.1-0.2-2.5,0.3c-0.4,0.6,1.5,2,2,1.3c0.6-0.7,2.8,2.1,3,0.5
			C964.9,230.1,962.1,229.7,962.1,229.7z"/>
		<path class="st1" d="M953.3,236c-1.8-0.7-2.3,1.2-1.6,1.6c0.7,0.4-1.7,2.2,0.2,2.8c2,0.5,4-1.1,2.2-2.3
			C952.4,237,955.2,236.8,953.3,236z"/>
		<path class="st1" d="M962.7,239.8c-0.9,0.7,0.7,3.1,2,1.8C965.9,240.2,964,238.6,962.7,239.8z"/>
		<path class="st1" d="M955.7,240.1c2.6-1.3,4.2-4.8,3-5C957.5,234.8,955.7,240.1,955.7,240.1z"/>
		<path class="st1" d="M962.7,228.7c0,0,2.2-1.9,0-2.3C960.5,226,962.7,228.7,962.7,228.7z"/>
		<path class="st1" d="M952.2,227.5c0,0,4.6-0.1,4.3-2.2C956.2,223.2,952.6,226,952.2,227.5z"/>
		<path class="st1" d="M955.7,231.4c-2,0.2-0.2,2.3,0.4,2.2C956.8,233.5,957.4,231.2,955.7,231.4z"/>
	</g>
</g>
</svg>
