<?xml version="1.0" encoding="utf-8"?>
<!-- Generator: Adobe Illustrator 19.1.0, SVG Export Plug-In . SVG Version: 6.00 Build 0)  -->
<svg version="1.1" id="Layer_1" xmlns="http://www.w3.org/2000/svg" xmlns:xlink="http://www.w3.org/1999/xlink" x="0px" y="0px"
	 viewBox="0 0 60 44" style="enable-background:new 0 0 60 44;" xml:space="preserve">
<style type="text/css">
	.st0{fill:#17C96B;}
	.st1{fill:#3F3161;}
	.st2{fill:#1EAEF7;}
</style>
<path class="st0" d="M40.9,6l-6.1,2.3l11.4,30.5l6.1-2.3L40.9,6z M38.2,13.3l-0.8-2.1l3.4-1.3l0.8,2.1L38.2,13.3z M45.5,32.8
	l3.4-1.3l0.8,2.1l-3.4,1.3L45.5,32.8z"/>
<path class="st1" d="M27,7v31h7V7H27z M32,35h-3v-2h3V35z M32,18h-3v-3h3V18z"/>
<path class="st0" d="M17,9v29h8V9H17z M24,17h-6v-3h6V17z"/>
<path class="st2" d="M8,5v33h7V5H8z M13,35h-3v-2h3V35z M13,12h-3v-2h3V12z"/>
</svg>
