<svg id="Layer_2" data-name="Layer 2" xmlns="http://www.w3.org/2000/svg" xmlns:xlink="http://www.w3.org/1999/xlink" viewBox="0 0 262.61 262.61"><defs><clipPath id="clip-path"><circle cx="131.31" cy="131.31" r="131.31" fill="none"/></clipPath></defs><title>Artboard 1</title><g clip-path="url(#clip-path)"><rect x="-368.99" y="-260.41" width="1082.94" height="324.08" fill="#c0efff"/><path d="M-332.51-114.86s6.26,13.54,21.41,14,86.85-41.41,165.11-22.09S-63-21.34-10.68-15.28C44.86-8.84,4.37,14.78,41.58,16c41.91,1.38,42.26,43.78,65.29,23.67C137.41,13,192.25,27.8,205,58.74c0,0,97-55.58,126.34,3.88l-1.89,55.1H-328.8Z" fill="#fff"/><rect x="-339.79" y="160.29" width="939.74" height="93.33" fill="#c0efff"/><path d="M186.88,193.26c.85,1.44,145.24,20.64,145.24,20.64l85.16-52.22-230.4-2.89Z" fill="#6a6a6a"/><rect x="-28.39" y="74.13" width="133.15" height="103.27" fill="#fff"/><rect x="104.76" y="79.7" width="60.21" height="80.5" fill="#6a6a6a"/><polygon points="245.26 160.29 184.34 160.29 180.97 78.57 245.26 78.57 245.26 160.29" fill="#422d62"/><polygon points="-19.12 89.01 92.72 89.01 92.72 120.73 102.29 120.73 102.29 78.34 -12.87 76.5 -19.12 89.01" fill="#0062bd"/><path d="M225.3,174c-2.52,0-3.79-.82-3.79-4.33V101.35h3.79S227.83,174,225.3,174Z" fill="#00aff9"/><polygon points="184.34 62.93 -19.12 62.93 -19.12 89.01 17.21 76.5 186.88 76.5 184.34 62.93" fill="#00aff9"/><path d="M163.88,73.82H3.88L-19.12,89s10-7.16,82-7.16h109.6Z" fill="#422d62"/><polygon points="3.88 73.82 -12.37 85.29 -20.7 75.97 -19.12 62.79 102.29 62.79 102.29 73.82 3.88 73.82" fill="#c0efff"/><path d="M102.29,73.82v13h70.19s1.29-13.32-8.32-13.32S102.29,73.82,102.29,73.82Z" fill="#6a6a6a"/><path d="M-14,141.49s16.39-.83,32.59-16.28c7-6.67,14.73-22.83,14.73-22.83s4.64,15.46,13,23.52c18.43,17.83,27.21,11.94,27.21,11.94H89.85V88.78h-109v47.67Z" fill="#ff3853"/><path d="M250,82.42c.64-1.44-.58-2.13-1.27-3.55-.87-1.8-2.29-2-4-3-3.68-2.25-13.83-12.53-23.54-12.91a39,39,0,0,0-6.24.63c-2.75.69-6.27,2-8.09,2.19-8.49,1.09-13.44-2.85-22-2.85-5.76,2-13.17,3.79-19.17,6.17-5,2-6.14,10.63-11.26,12.34-21.54,7.17-21.56,20.59-19,26.26,1.87,4.22,9.27,6.59,9.17,6.93s-6.77,7.58-7.19,16.06c-.64,12.8,6.66,28.72,22.36,29.62,16,.92,29.78-12.62,29.78-12.62V108.39s14.31-25.55,22.79-25.55S250,82.42,250,82.42Z" fill="#0062bd"/><rect x="227.01" y="102.36" width="71.45" height="48.35" fill="#eee"/><rect x="225.3" y="101.35" width="31.83" height="55.05" fill="#0062bd"/><polygon points="244.12 63.03 213.27 101.35 280.96 101.35 286.87 63.03 244.12 63.03" fill="#c0efff"/><polygon points="225.3 144.83 298.89 147.47 302.08 180.79 225.3 174.03 225.3 144.83" fill="#c0efff"/><polygon points="299.55 145.56 299.99 147.8 225.3 144.83 234.59 143 299.55 145.56" fill="#0062bd"/><path d="M299.55,112.69c-15.06-.15-57.67-5.41-57.67,30.6V101.35h57.67Z" fill="#422d62"/><path d="M104.58,146.7c.63-1.61-.58-2.39-1.27-4-.87-2-2.28-2.22-4-3.39-4.08-2.82-6.69-7-11.07-9.71-4.53-2.8-10.23-4.5-15.66-3.51-2.61.47-5.06,1.54-7.69,1.93a22.91,22.91,0,0,1-3.29.14c-6.69-1.52-14.42-4.76-21.88-3.38C33.2,126,31,133.58,25.06,136.26c-4.93,2.21-12.93.3-18.06,2.13-1.11.4-1.66,2.81-2.48,3.58-2.09,1.95-2.31,3.16-1.18,5.64s2.94,4.75,3.52,7.38-.65,5.89-3.6,6.55c-3.61.81-7.08-2.68-10.72-2a5.24,5.24,0,0,0-4,5.84c.32,2.48,2,4.64,3.59,6.69l6.51,8.27a3.15,3.15,0,0,1,1,2.53c-.35,1.35-2.25,1.75-3.75,2.17A11.06,11.06,0,0,0-12,192.88,9.81,9.81,0,0,0-8,202.74c3.36,2.42,15.38,14.52,19,15.94,15,6,33.39,1.3,33.39,1.3s23.84-51.57,32.29-51.57S104.58,146.7,104.58,146.7Z" fill="#0062bd"/><path d="M142.86,99.82c4.79-17.63,21-17.63,21-17.63s-.31-11.45,12.81-16.12a23.74,23.74,0,0,1,18.8,1,71.42,71.42,0,0,1,9.28,6.17,15.61,15.61,0,0,1,3.58-5.44c2.93-3,6.66-4.73,12.75-4.84-8.8-.17-14.53,2.46-18.32,2.32A20.45,20.45,0,0,1,193.68,63a18.14,18.14,0,0,0-16,1.32c-5.11,3.3-25.25-2.59-26.78,15.17-6.43,1-20.94,2.22-19.31,20.08.46,5-15.11,35.53,8.49,45.81-5.8-16.53,5.38-30.27,5.38-30.27A18.44,18.44,0,0,1,142.86,99.82Z" fill="#c0efff"/><path d="M3.88,166.07c9.83,3.61,19.5-.06,20.33-11.06s8.67-17.42,16.17-12.12c0,0,.41-17.73,21.27-14.72,0,0-16.84-12.35-33.59,2.87-7.71,7-13.91-.18-24.71,9.72Z" fill="#00aff9"/><path d="M16.38,145.29c.12,1.08,1.41,1.37,1.86,1.38a1.46,1.46,0,0,0,1.21-.51,1.69,1.69,0,0,0,.3-.86A1.71,1.71,0,1,0,16.38,145.29Z" fill="#ff3853"/><path d="M36.21,153.67a1.13,1.13,0,0,1-1.77.17,1.4,1.4,0,0,1-.07-1.43,1,1,0,0,1,.42-.5C36.05,151.28,36.55,153.06,36.21,153.67Z" fill="#ff3853"/><path d="M37.22,172.71a1.39,1.39,0,0,0,1.27,2,1.34,1.34,0,0,0,1.24-1.31A1.38,1.38,0,0,0,37.22,172.71Z" fill="#ff3853"/><path d="M54.24,156.79a1.17,1.17,0,0,1,.05,1.25,1.44,1.44,0,0,1-.9.55,1.87,1.87,0,0,1-1.2-.07,1.1,1.1,0,0,1-.67-.94,1.26,1.26,0,0,1,.24-.7,2,2,0,0,1,.7-.65A1.41,1.41,0,0,1,54.24,156.79Z" fill="#ff3853"/><path d="M52.2,134.93c-1.1,1.15-.51,2.56.32,2.67a2,2,0,0,0,1.51-.19c.55-.44.45-1.28.3-2A1.19,1.19,0,0,0,52.2,134.93Z" fill="#ff3853"/><path d="M37,131.1c-.6.86-.16,1.63.23,1.74a.73.73,0,0,0,.67-.2,1.32,1.32,0,0,0,.34-.64,1.44,1.44,0,0,0-.05-.79A.69.69,0,0,0,37,131.1Z" fill="#ff3853"/><path d="M16.33,159.16a1,1,0,0,1-.63,1.13,1.3,1.3,0,0,1-1.06,0,1.1,1.1,0,0,1-.63-.84,1.06,1.06,0,0,1,.4-.92C15.3,157.81,16.22,158.77,16.33,159.16Z" fill="#ff3853"/><path d="M27.63,180.12l-.46-2.19c-.71-3.43-1.41-7.1-.06-10.33a6.76,6.76,0,0,1,1.95-2.7c.69-.55,1.81-.88,2.36-.2a1.92,1.92,0,0,1,.31,1.19c.15,5.56-2,10.9-4.13,16" fill="#00aff9"/><path d="M42.79,179.45c.74-.57,1.87-1.07,2.51-.4a1.66,1.66,0,0,1,.36,1c.19,2.51-1.56,4.73-3.29,6.56q-1.93,2-4,3.95c-.88.81-2.2,2.61-3.25,1.13-1.61-2.25,2.18-6.62,3.54-8.27A25.73,25.73,0,0,1,42.79,179.45Z" fill="#00aff9"/><path d="M40.77,160.14a5.58,5.58,0,0,1,1.62-3.1,1.2,1.2,0,0,1,1.09-.35c.52.17.66.84.65,1.39a10,10,0,0,1-2.33,5.85c-.78,1-1.29,1.39-1.36-.16A13.68,13.68,0,0,1,40.77,160.14Z" fill="#00aff9"/><path d="M234.08,179.63l.07,7.1a5.73,5.73,0,0,0,.89,3.69,3.42,3.42,0,0,0,1.47,1.09c2,.69,3.61-.58,4.51-.35,0,1.34,1.51,2.09,2.22,2.08,6.41-.11,13.19-1,13.31-1.64a2.35,2.35,0,0,0-1.09-2.38c-1.25-.74,4.52-1.21,3.29-2s-4.31-1.54-4.33-3c0-1.63-4.57-3.13-4.44-4.76a3.37,3.37,0,0,0-.49-2.59,3.23,3.23,0,0,0-2.28-.73q-3.73-.19-7.47-.23a11.88,11.88,0,0,0-2.63.18C235,176.59,234.06,177.51,234.08,179.63Z" fill="#0062bd"/><path d="M246.19,111.5c.74,1.37.54,2.05,1.75,3,.47.38,1.32.45,1.36.79a1.49,1.49,0,0,1-.35,1.07,6.35,6.35,0,0,0-.46,2.27,4,4,0,0,1-2.44,3c-2.65,1-2.46,4-3.63,3.65-1.45-.47-1.38-4.72-1.58-6.24-.23-1.71-.15-3.62,1-4.92a7.38,7.38,0,0,1,3.2-1.81C245,111.9,245.78,111.59,246.19,111.5Z" fill="#c0efff"/><path d="M243,109.64a7.31,7.31,0,0,0-5.36.64,24.19,24.19,0,0,0-2.25,1.61s-3.71-3.06-5.65.48c-2.18,4,1.52,7.07,4,6,.94-.41.62,2.2.89,3.2a5.17,5.17,0,0,0,5.3,3.55c2.3-.2,3.52-3.09,3.22-8.37-.05-.93,1.92-1.17,2.25-2a7.68,7.68,0,0,0,.88-2.41C246.37,110.67,244.29,110,243,109.64Z" fill="#ff3853"/><path d="M230.61,130.53c1.95,2.74,4.31.31,4.31.31s-.64,1.93-.87,2.52a144.89,144.89,0,0,0-5.27,17.45l-7.05,27.46a3.34,3.34,0,0,0,.08,2.69,3.24,3.24,0,0,0,1.83,1.07,68.82,68.82,0,0,0,32,2,.78.78,0,0,0,.78-1.08c-1.39-10.46-4.94-35.81-3.95-37.05,3.92.26,6,.28,8.48.34,0-1.8-2-2.48-3.51-3.24-2-1-4-1.31-4.59-2.06-3.2-4.1-3.25-14.19-9-16.57-2.06-.85-6.91-3.43-9.16-2.85A6.11,6.11,0,0,0,230.61,130.53Z" fill="#422d62"/><path d="M149.79,193.29s.71-11.94,32.9-11.65c32.42.29,44.73,14.68,47.69,54.35,1.59,21.26-16.14,40.15-32.27,40-14-.16-54.47.62-54.47.62s-20.3-27.79-20.24-28.68S125.5,197.88,149.79,193.29Z" fill="#ff3853"/><path d="M202.06,217.63c5.5.31,10.93-1.1,16.37-2a7.46,7.46,0,0,1,4.4.19c1.27.6,2.07,1.71,3.36,2.3,1.48.69,5.09.49,7.09,4.22s-.76,11.93-4.43,13.21a36.05,36.05,0,0,1-11.73,1.84,79.52,79.52,0,0,1-14-1.71q-7.1-1.26-14.1-3a1.89,1.89,0,0,1-1.22-.68,1.6,1.6,0,0,1-.17-.9c.11-2.87,2.95-3.88,4.89-5.51a36.14,36.14,0,0,0,5.62-5.92,6.16,6.16,0,0,1,1.35-1.46A3.47,3.47,0,0,1,202.06,217.63Z" fill="#422d62"/><path d="M139.38,103.88S136,110.56,136.31,117s2.8,7.61-4,7.61-1.5,4.9-9.81,9S112,135.11,109,140.75s-10.91-1.67-10.91-1.67l-1.4-32.82L126.3,92.12Z" fill="#422d62"/><path d="M164.94,132.61s-5.37,2.89-8.43,3.59-.39,5-.68,6.9-4.25,9.79,2.86,16.71S164.94,132.61,164.94,132.61Z" fill="#422d62"/><path d="M45.47,205.25s6.11-57,29.12-60.76,41.88-7.91,57.16,1.08,19.1,31.07,21.95,39.39c7.53,22,43.64,27.84,49.49,30s-4.1,20-4.1,20-6.72.1-43.07-13.19C141.09,216.27,145.15,269,145.15,269l-107-2.07Z" fill="#fff"/><path d="M-51,134.1s-38.09,11.09-48.15,21.71S-148.1,213.33-142.37,276l153.8-4.4L7.17,180.94,4,166.43s7.76-8.5,3-21.8S-26.45,126.89-51,134.1Z" fill="#00aff9"/><path d="M-74.16,194.66a120.75,120.75,0,0,0,5.62-15.16c3-10.39,9.61-22.79,23.74-26.11,20.69-4.86,28,8,48.84,13,0,0,15.38-4.17,24.42,9.78,6.09,9.39,6.57,13.62,6.57,13.62s15.53,4.54,26.07,29,.88,48,.88,48L-7.31,266s1.76-9.67,6-34.57S-9,178.52-26.79,164.35c-5.71-4.54-28.27-10.4-31.6,11a50,50,0,0,1-3,11.41C-65.51,196.73-74.16,194.66-74.16,194.66Z" fill="#c0efff"/><path d="M182.47,128.32c-10.39-1.6-15.91.24-17.69,4.17a6.24,6.24,0,0,0,.13,4.51,22.68,22.68,0,0,0-5.2,16.49c.71,10.36-12,24.83-2.92,37.88,5,7.16,18.85,13.41,30.83,12.72,22.32-1.28,21.65-20.79,17.67-31.62-2.34-6.39-4.7-12.29-4-18.25C202.46,143.47,197.12,130.58,182.47,128.32Z" fill="#00aff9"/><path d="M73.07,146.14c-13.2-7.83-17.44-18.82,0-37.89,9.53-10.41,10.74-18.44,28.77-28.89s32.35,1.31,38.2,10.19,2.67,15.92-4.89,14.56c-6.25-1.13-10.9-1.77-12.62,1-.36.58-1.31,3.66-2.23,1.85-.62-1.22-1.53-2.48-2.89-2.38-3.4.26-9.15,6.74-4.31,12.39S101.27,162.86,73.07,146.14Z" fill="#00aff9"/><path d="M108.14,243.42c-5.5.31-11.44-1-16.88-1.91-6.86-1.13-12.37,3.81-19.91,6.65-4,1.49,5.82,12,9.49,13.28a36.05,36.05,0,0,0,11.73,1.84,79.52,79.52,0,0,0,14-1.71q7.1-1.26,14.1-3a1.89,1.89,0,0,0,1.22-.68,1.6,1.6,0,0,0,.17-.9c-.11-2.87-2.95-3.88-4.89-5.51a36.14,36.14,0,0,1-5.62-5.92,6.16,6.16,0,0,0-1.35-1.46C109.64,243.67,108.73,243.11,108.14,243.42Z" fill="#422d62"/><rect x="-325.12" y="-223.66" width="1024" height="467.2" fill="none"/><path d="M102.4,243.17c-2,.06-6.7,13-.12,16.23,13.41,6.63,30.29,2.81,42.5,2.53,15.15-.34,10.72-16,11.2-16.38a3.41,3.41,0,0,0,.92-1.8c1.43-5.35,5.23-24.95-5.64-22.51C145.82,222.46,126.86,242.45,102.4,243.17Z" fill="#ff3853"/></g></svg>