<svg id="Layer_2" data-name="Layer 2" xmlns="http://www.w3.org/2000/svg" xmlns:xlink="http://www.w3.org/1999/xlink" viewBox="0 0 1024 467.2"><defs><clipPath id="clip-path"><rect width="1024" height="467.2" fill="none"/></clipPath></defs><title>Artboard 1</title><g clip-path="url(#clip-path)"><polygon points="-29.33 -44.5 -29.33 207.61 46.67 207.61 1026.43 207.61 1026.43 -44.5 72.67 -44.5 -29.33 -44.5" fill="#c0efff"/><polygon points="-32.19 238.49 -32.19 484.48 143.81 484.48 1026.43 484.48 1022.75 238.49 818.63 252.3 808.78 254.47 719.53 259 515.29 238.49 159.15 238.49 -32.19 238.49" fill="#fff"/><path d="M-17.36,17.65S-40.76-16.64,210,73.44c66,23.72,137.95,73.85,289.71,31.73,70.23-19.49,113.51-.64,164,13.41s100.17-9.82,148.57-30c48.22-20.12,153.59-26,194.15,19.57s11.18,126.34,11.18,126.34L43.33,214.87-21,228.17Z" fill="#fff"/><path d="M615.13,273.07c-32.12-27,79.67-25,119.44-14.73,49.76,12.85,105.15,26.41,116.67,45.34,7.91,13-11.14,55-109.22,47.67-17.9-1.34-35.09-25.63-51.38-42.06C661.59,280,632.49,287.65,615.13,273.07Z" fill="#c0efff"/><path d="M799.17,165c9-.72,17.76-2.77,26.74-3.24a.37.37,0,0,1,.21-.31c4-1.75,6.57-5.27,10.08-7.73,3-2.13,7-2.4,10.62-2.4,6.16,0,12.77.73,16.81,5.93,3.87,5,4.16,11.83,2.64,17.74-1.82,7-6.37,12.93-11.83,17.57-1.17,1-2.4,1.94-3.65,2.84l221.3,26.26-18.26-113S994,74,929.42,74c-40.36,0-77.36,30.3-105.21,53-16.71,13.63-28.24,24.3-58.15,24.3-6,0,9.62,1,20.9,4.65,4.29,1.39,5.22,6.09,8.13,7l4.09,1.24Z" fill="#eee"/><path d="M835.94,193.6l13.4,1.59c1.42-1,2.81-2,4.14-3.12,5.28-4.42-7.05-39.64-13.17-39.09-4,.36-3.46,1.14-6.38,3.84a29.72,29.72,0,0,1-6.54,5.05.51.51,0,0,1-.4.77c-9.36.35-18.53,2.55-27.85,3.3L798.58,189l.08,12.31s4.7,1.76,30.26,1.76C842.52,203.11,835.94,193.6,835.94,193.6Z" fill="#c0efff"/><path d="M255.1,256.59c94.13,57.31,216.38,90.71,266,102.09,74.92,17.19,127.14,25.94,253.38,18.17,56.33-3.47,69.94-12.3,81.92-21.67C872.09,338.52,862,331,862,331l24.69-20.1S677.47,326,631.83,325.15,512.9,318.52,449.31,312.3,255.1,256.59,255.1,256.59Z" fill="#eee"/><path d="M830.43,271.92c-6.58-6.91-12-10.68-16.3-12.66v2.27l-54.46-16.85-9.15.46-12.89-27.42c-8.41-2.51-19-9.63-36.57-18.37-8.47-4.21-13.48.68-12.87-9,1-16.18-28.7,5.32-37.35,1.32-13.95-6.46-20.46-15.13-25.65-16.2-4.41-.91-9.64-4.35-15.65-6.74-17.53-7-45.75-13.08-69.06-19.38-2.51-.68-5.82-1.52-8.32-2.06-142.58-30.93-260.67-1.39-339.38,25.29h0C132.11,189.74,44.67,215-8.67,221.62-21.44,223.21-24,270.12-24,270.12L.27,282.71S131.19,234.76,276,277c66.31,19.35,245,83.68,392.53,83.68C893.8,360.7,872.11,324,872.11,324S849.83,292.28,830.43,271.92Z" fill="#c0efff"/><path d="M918.22,307.38c60.65,16.43,101.06,81.63,32.09,116.4C927.88,435.09,886,441.9,891.08,446.3c11,9.42,162.55,23.75,190.88,25.5,137.19-70.2,53.8-120.7-38.82-148.28-50.27-15-104.73-21.88-124.74-24.53C912.89,298.26,918.22,307.38,918.22,307.38Z" fill="#eee"/><polyline points="887.35 167.09 982.03 169.97 982.03 252.24 880.02 227.52 887.35 167.09" fill="#fff"/><path d="M855.08,402.43c-.18,3.74-3,6-9.69,6.48a201.72,201.72,0,0,1-20.18.87c-2.92-.08-5-.93-7.3-1.38-3.25-.63-6.15-1.08-6.35-2.86-.47-4.17,4-5.67,10-6.91,7.1-1.45,7.77-2.7,11.64-3.73,6.22-1.65,15.6-5.31,20.22-3,1.27.64,1.84-.21,1.84,1.7C855.27,396,855.11,401.67,855.08,402.43Z" fill="#0062ba"/><path d="M708.33,379.15a32.26,32.26,0,1,0,32.26,32.26A32.26,32.26,0,0,0,708.33,379.15Zm0,55.24a23,23,0,1,1,23-23A23,23,0,0,1,708.33,434.39Z" fill="#422d62"/><path d="M810.15,374c-13.87-1.94-26.83,8.74-28.93,23.84s7.43,28.92,21.3,30.85,26.83-8.74,28.93-23.84S824,376,810.15,374Zm-6.54,46.82c-9.88-1.38-16.67-11.22-15.17-22s10.73-18.36,20.61-17,16.67,11.22,15.17,22S813.5,422.22,803.62,420.84Z" fill="#422d62"/><path d="M761.46,205.17s-2.51-2.78-8.86-2.78c-4,0-8.08.09-10.58,1-3.27,1.22-4.8,2.24-9.66,4.64-6.14,3-4.4.51-4.4.51s11.08,3,17.32,12.31a23.42,23.42,0,0,1,3.14,6.66h33.65a8.09,8.09,0,0,0,4.13-1.07c2-1.22,5.09-3.17,6.34-4.13,4.33-3.34,1.86-9.73-3.89-9.73s-19.52-2.75-19.52-2.75" fill="#ff3853"/><line x1="769.12" y1="209.84" x2="774.15" y2="208.64" fill="#6a6a6a"/><path d="M810.45,192.27c3.46-1.46,1.48-3.65,4.38-7.27,1.85-2.3,8.29-10.69,12.9-11.12,6.27-2.9,6.25-4.82,10.17-8.1,2.26-1.89,3.83-.7,3,.75-.61,1,3.51,7.85,4.17,7.2,2-2,2.88-16.41,2.37-18,0,0,4.48-2,1.1-2.78,0,0-9.82,1.43-9-1.78,2.17-8.1-2.13-5.48-6.12-6.18-3.55-.62-5-3.86-5.15-7.47a8.25,8.25,0,0,0-4.19-6.94c-1.48-.73-6.82-2.44-9.18,2.87-1.45,5.6-2.34,7.4-2.15,18.12s-8.27,8.74-8.74,17.29c-.35,6.4.21,21.34.21,21.34a13.14,13.14,0,0,1,4,.48C809.77,191.37,809.21,192.79,810.45,192.27Z" fill="#00aef5"/><path d="M843.12,193.68c-.23-.26.12-2.42-11.69-2.66-7.33,4.49-13.64,10.33-32.78,10.33l-26.54,9.24h.08a183,183,0,0,0,18.47,2.48c13.74,2.14,27-2,33-.56,12.35,2.87,11.79,6.38,22,16.54.73-.46-5.69-12.61-5.19-13.09C844.27,212.25,848.23,199.4,843.12,193.68Z" fill="#eee"/><path d="M767.44,205.17l1.68,4.67,3,.67V186.07c0-3.44,2.3-5.83,4.3-7.31l6.63-4.9a6.5,6.5,0,0,0,2.27-5.34c0-2.52.12-13.75.12-13.75l-19,20.31-5,30.1" fill="#fff"/><path d="M920.35,304.76a80.85,80.85,0,0,1-6.1,27.61c-6.1,14.93-6.1,25.37-6.1,25.37L930,413.59l-23.31,12.34s-16.65-27.88-24.79-39.62c-10.45-15.07-14.87-33.33-12.62-44.45l-11.07,13.58-3,39.29-21.81.1-2.39-49,35.34-41.09Z" fill="#422d62"/><circle cx="772.68" cy="225.89" r="6.62" fill="#422d62"/><path d="M640.07,154.93s2.76-1,13.29-5c9.37-3.58,14,5.09,24.3,0,12.57-6.21,28.54-15,41.7-10.67,14,4.6,24.41,11.82,37.09,11.82,18.19,0-50.79,29.55-50.79,29.55l-58.4-6.42Z" fill="#eee"/><path d="M932.13,135.08c-1.12,9.22-19.51,16.45-19.57,25.73l50-1.07L1029,102.27l1.12-33.37c-16,.32-23.31,17.71-29.7,23.95s-14.53,13.43-42.63,3.92c-6.71-2.27-12.13,12.33-19.57,13.76C934.69,118.2,933.13,126.84,932.13,135.08Z" fill="#0062ba"/><path d="M803.89,343s4,8.26,1.76,12.32c-1.59,2.84-16.23,13.72-20.36,19.19s-7.81,14.17-7.92,38.73c0,0-14,1.34-15.64,1.47s-2.33-.88-2.56-3.1l-2.74-26.08-6.6-3-5-20.82L754,349.55l17.19-2.68Z" fill="#00aef5"/><polygon points="772.63 421.15 776.87 421.15 780.33 423.38 780.33 427.29 767.83 430.97 772.63 421.15" fill="#0062ba"/><path d="M809.8,402.41c3.19,1.37,7.46,3.22,11.25,4.51,3.4,1.15,3.66,2.58,3.66,4.23,0,3.38,0,8.52,0,8.52l-5.67.17s1.43-6.88-1.54-9.37-8.6-5.34-11.29-5.82c0,0-.27-1.9.54-2.59C807.43,401.51,809.07,402.09,809.8,402.41Z" fill="#6a6a6a"/><ellipse cx="824.39" cy="423.28" rx="10.29" ry="9.22" transform="translate(188.09 1097.01) rotate(-73.81)" fill="#0062ba"/><path d="M805.24,263.33c9.44-.12,12.95-13.1,12.95-13.1-5.84,3.32-13.74,3.07-16.6,1.43-4.33-2.47-3.26-8.43-7.73-11.26-3.67-2.32-9.26-2.67-12.13-3.66-5-1.73-1.78-9.53-9.61-13.23-6.06-2.86-8.8,1.63-11.64.89-3.68-1-.69-5.66-5.23-6.83-3.82-1-8.63,2.4-11.85-1.09-1.3-1.41-3.65,1.88-5.77,1.24l10.64,31.93s6.17-4.81,11.39-3c4.54,1.62,10.36,3.77,18,4.32C782.71,258.55,799,263.41,805.24,263.33Z" fill="#0062ba"/><path d="M866,158.35c-6.35-3.47-14.86-9.28-13.65-17.63s11.38-3.93,14.73-8.48,2.29-7.68,8.56-11.52,7.9-5.69,9.16-9.1c1.21-3.26,4.43-12.42,15.21-8s11.26-4,16.76-7.54c5.27-3.35,12.33-1.68,16.41,6.83,0,0,8.23-11.5,23.31-6.61,11.81,3.83,15.65,18.28,6.63,26.37-2.9,2.6-5.51,3-11.62,4.07,0,0,5,2.69,5.31,7.3.4,5.45-3,10.08-9.58,9.68-9.88-.6-16,.93-20.18,4.59-.75.66-5.86,2.44-6,3.37-1.08,5.51-2,9.07-2.68-1-.36-5-2.83-9.64-1.8-13.81s2.42-10.55-8-11c-10-.43-7.9,8.55-5.87,12.36,2.64,5,6.11,7.86-6.47,7.86-8.86,0-4.67,7.45-6.95,11S872.53,161.92,866,158.35Z" fill="#00aef5"/><path d="M764.59,284.69s2.24-1.8,2.61.88l1.87,13.49,13.09-10.37s2.75-2.16-3.65-9.9-7-8.38-7-8.38Z" fill="#422d62"/><path d="M691.24,345.68s-6.32-1.49-7.89-11.46c0,0-9,.08-6.49-9.68,2-8,11.27-6.77,13.19-1.92,0,0,8.18-5.36,15.4.74,0,0,3.93-6.26,9-1.19,4.24,4.24-.89,9.75-4.54,9.23a14.07,14.07,0,0,1-.3,8.85s10.27-.15,11.46,3.83-3.35,5.92-7.51,5.25c0,0,3.52,5.92,2.92,8.22l2.21,8.29-.52,11.61s-13.93,2-14.15,2-12.93-4.36-12.2-9.21c.32-2.11-2.15-7.8.36-9.75,4.45-3.46,14.83-2.65,14.83-2.65l-16.63,1.92s-.54-1.52-1.07-.88a38.94,38.94,0,0,1-5.14,5.21c-1.89,1.56-6.32,2.42-8.58,1.26-2.91-1.48-3-5.82,2.4-11.23A38,38,0,0,1,691.24,345.68Z" fill="#6a6a6a"/><path d="M1003.23,278.76s-35.56,6.64-36.68-10.92L952.62,257,871,241.78s-28-2.18-18.59,4.67c13.78,10.06,91,51.79,174.05,44.28v-9.8Z" fill="#0062ba"/><path d="M706.38,379.75l.22-21.94H691.09c-2.34,0-2.9.67-2.9,8.26s.11,8.82,2.68,9.71c1.84.64,6.8,2.59,9.48,3.64C702.43,380.1,704.12,381.08,706.38,379.75Zm-10.27-5.41s-3.82-.43-3.82-4.15c0-2.17,0-4,0-9.18l3.81,0Zm6.92,2.55-4-1.67L699.2,361H703Z" fill="#00aef5"/><path d="M565.77,155.86c3.51-3.52,10.6-7.06,20.22-7,11.3.1,18.14,9,18.14,9s5.16-11.72,22.08-10.76c11.16.63,17.44,11.54,23.24,14.63,3,1.61,7.41-1.2,14.22,3.51s5.22,5.64,11.12,5.21c8-.59,15.5,3.24,18.58,9.39l-1.79,1s-4.05-7.28-11.42-5.54-10.34,11.55-10.34,11.55-12.78-1.1-19,9.51C650.79,196.43,638.21,175,565.77,155.86Z" fill="#c0efff"/><polygon points="721.13 186.07 721.13 196.46 730.34 196.46 730.34 190.33 721.13 186.07" fill="#fff"/><path d="M974.71,175.07l43.18-17.93,12.93,3.33L1025.23,94s-24.84-1.17-27,25.31c-1,12.14-6.68,3.07-18.74,8.77a25,25,0,0,0-14,16.66l48,6.9" fill="#422d62"/><path d="M872.67,260.32s46.13,10.81,87.75,18.44c28.61,5.25,73.94,12,80.65,11l-13.48,20.71s-78.58-3.78-122-19.59Z" fill="#6a6a6a"/><path d="M901.24,289.57s-52.35.69.16,7.26c52.93,6.63,126.06,23.27,126.06,23.27a44.92,44.92,0,0,1,.12-9.62C989.22,306.81,930.67,297.23,901.24,289.57Z" fill="#0062ba"/><path d="M809,259.49l-27.51,23.65s2.09,3.7.62,5.56l15.14,2.57,24.43-16.84Z" fill="#6a6a6a"/><path d="M849.39,283.33S845.66,310,844.54,315s-13.86,24.62-13.86,24.62-15.52,9.87-16.43,12.25c2.28,1.7,5.5.59,7.89-.29,2.07-.76,2.32-1.24,1,.61-4.56,6.49-7.58,9.92-11,12.12,2.44,2.4,5.05.41,14.43-2.58,4.23-1.35,6.74-1.61,9.43-6.69,2.81-5.31,2.73-7.94,6-11.35,6.62-6.84,18-20.43,18-20.43s9.65-23.25,10.05-34Z" fill="#6a6a6a"/><path d="M766.87,367c-6.38-.07-11.21,9.5-11,11.73s.9,8.88,1.31,12.77,5.52,7.92,12,3.84c3.91-2.46,5.25-9.71,5.25-9.71s5.64,1.73,6.14,1.17.84-3.24.84-3.24-3.52-2.4-6.25-2.34C775.18,381.18,777.81,367.06,766.87,367Z" fill="#422d62"/><path d="M742.95,290.88a1.88,1.88,0,0,0,1.15,1.53c1.12.52,2.08.71,2.46,1.71s.78,2.94,1.08,3.94.86,1.56,2.57.78,1.48.69,3.68,1.86a7.72,7.72,0,0,0,8.86-1.08s.63,1,1.34,2,6.49,1.34,9.27-6.29l-4,3s-1.24-7-1.73-10.07-.2-5.57-3.25-3.22S742.95,290.88,742.95,290.88Z" fill="#6a6a6a"/><path d="M751.93,309.39l-10.68,6.68-14.73,5.3h-5.26s-4,1.51-4.79,7.42c0,0,2.06-3.85,4.79-2.12,1.41.89,0,4.35,0,4.35s.12,2.12,2.41,0,2.79-3.74,7.48-4.58,17-3.18,17-3.18l12-7.64Z" fill="#6a6a6a"/><path d="M770.16,312.22l-11.34,11.84-2.94,2.78s-13.89,2.62-17.19,4.74-8.76,6.14-7.92,13.17l5.69.39s2.61-7.51,5.91-7.8,16-.9,16-.9l9.37-3.79,9.82-8.43s3.79-4.83.56-8.9A8.51,8.51,0,0,0,770.16,312.22Z" fill="#6a6a6a"/><path d="M823.15,416.85s-5.28,3-4.22,8.95c.9,5,6.5,5.12,6.5,5.12s-4.28-3.11-4.57-6.7S823.15,416.85,823.15,416.85Z" fill="#422d62"/><path d="M706.6,357.81l0,3.31,4.31,0-.28,15.75-4.19.53,0,2.31a4.61,4.61,0,0,1-2.42.66,64.92,64.92,0,0,0,9.78-.84l13.9-1.81s.49-17.81.49-18.8-.44-1.66-1.41-1.66C726,357.3,706.6,357.81,706.6,357.81ZM717,376.35l-3.25.41.2-15.68,2.93-.05Zm6.56-1-3.35.74v-15.4h3.35Z" fill="#422d62"/><path d="M931.19,186.24,931,216.49l.48-.21,1.11.38L962.87,220V188Zm29.4,32.11-27.09-2.06-.33-.85.58-26.46,26.66,1.57Z" fill="#00aef5"/><path d="M896.53,183.26l-.25,28.59-.43,2.78v-2.84l29.39,3.92.57-30ZM923,214.39l-24.57-3.11v1.22l.32-26.74,24.61,2Z" fill="#00aef5"/><ellipse cx="692.88" cy="334.73" rx="1.51" ry="1.71" fill="#422d62"/><ellipse cx="702.68" cy="333.14" rx="1.23" ry="1.49" transform="translate(-74.76 315.24) rotate(-24.05)" fill="#422d62"/><path d="M697.93,335.15c-1.51.62-1.58,1.79-.49,1.53,0,0,.27,1.86,1.72,1.38s.22-2.19.22-2.19S701,333.89,697.93,335.15Z" fill="#422d62"/><path d="M1028.65,155a98.18,98.18,0,0,0-10.94-3.91c-1.09-.33-4.31,1.16-5.49,1.23l-39.58,23.64s1,.9,2.6,2.23a34.39,34.39,0,0,0,7.27-2.23l35.4-18.79,12.93,3.33-.35-4.18C1029.25,155.94,1029.61,155.39,1028.65,155Z" fill="#0062ba"/><path d="M853.91,108.85c-4.15-.52-4.53,3.84-10.6,7.57s-4.07,7.22-.86,8.43-.69,4-6.65,6.48-7.09,10.71-.34,11.46c6.13.69.27,1.42-2.46,5.22-2.14,3-.56,8.15,8.08,6.76,9.12-1.46,10.73,5.23,11.65,8.38s-3.12,17.32,6.47,15.69l13.62,18,14.54-.8,0-27.32s34.09-10.64,33.26-11.54c-2.12-2.27,3.31-6,6.4-8.83.11-.76.24-1.61.35-2.6.31-2.78-3.68-4.36-6-5.4s-2.69-4,.11-4.64,5-3.5-1.2-7.78-9-10.24-11.31-10.55-2.06,3.9-7,7.11-8.1,5.2-7.18,7.34,6.11,2.37,2.37,5.73-9.32,6.11-8.1,10.78-4.71,8.56-10,7.87-8.92-4.93-4.18-4.57c2.19.17,3.13-1.09,3.36-2,.57-2.16-2.3-3.44-5-5.17-5-3.21-5.39-6.95-9.67-3.28a41.93,41.93,0,0,1-8.06,5.5s-3.44-8.41,5.2-11.39,10.62-3.82,14.67-11.46c3.19-6,6.8-2.9,9.32-12.23,0,0-1.17,3.86-7.18,5.2-6.88,1.53-7.72,8.18-10.85,10.24s-6.93-.17-4.74-1.83c1.35-1,3.29-2.41,3.29-4.05,0-1.25-.63-2.49-2.71-4.09C856.26,112.19,856.18,109.14,853.91,108.85Z" fill="#0062ba"/><path d="M853.54,188.26c.26-.49,4.79-.17,2.73-6.63-1.14-3.59-.94-6.28,1.86-8,7-4.22,8.19-12.17,13.92-12.17,3.73,0,3.62,6.28,11.44,13,3.13,2.7,3.14,6.95-.54,11.18-.78.9-2.83,3.76-2.31,6.17.85,4,6.71,2.71,6.71,2.71l0,17.76s-1.79,1.94-8.26,1.78a25.73,25.73,0,0,0-14.65,4.31s2.68-10.86-1.79-12.14c-5.38-1.54-10.24,2-12.71,8.91,0,0-1.34-11.64,3.85-15.95S851.87,191.45,853.54,188.26Z" fill="#422d62"/><path d="M928.8,216.66s.41-2.19,2.23-2c5.09.46,31.85,3,31.85,3s1.72.16,1.54,2.57Z" fill="#00aef5"/><path d="M891.92,211.72s-1-1.63,1.92-1.34c4.91.48,31.43,3.54,31.43,3.54s1.3.19,1.3,2.51Z" fill="#00aef5"/><path d="M733.92,214.43h9.76a7,7,0,0,1,0-3.92,29.63,29.63,0,0,1,1.41-3.57S734.13,209.75,733.92,214.43Z" fill="#fff"/><path d="M702.76,175.59h63.7s16.8-17.86,18.71-19.41c3.05,1.9,13.13,12.49,13.13,11.83,0-2.36,3.48-1.24-.09-4.58-2.47-2.32-12.27-12-13.52-12-3,0-42.43-.6-52-.74a6.48,6.48,0,0,0-3.62,1L698.47,172.2C695.6,174.13,691.86,175.59,702.76,175.59Z" fill="#6a6a6a"/><path d="M804.07,168.32c0,1.34,1.17,4.35,3.69,4.35s3.79-1.19,4-3.91c.63-8.27,12.56-8.93,12.56-8.93s-8.43-.62-9.23-7.51c-.46-3.93,1.56-7.34,5.57-10.23,3.56-2.57,4.45-4.75,4.23-7.3a5.07,5.07,0,0,0-9.69-1.91c-1.77,3.82-2.15,2.76-6.38,3.2-7.42.76-7,8.74-2.44,11.47-10.09-.14-12.66,8.34-8.48,13C798.9,161.72,804.07,164,804.07,168.32Z" fill="#c0efff"/><path d="M750.75,308.43l10.34-7.72,1.65-1.08s.31.41.95,1.41c.5.77,2.32,1.6,4.64.54,2-.93,4.19-4,5-6.22,3-2.3,7.47-.26,7.47-.26l10.38,6.25S804,339.51,804.43,340.7a1.87,1.87,0,0,1-1.34,2.57l-34.87,7A51.09,51.09,0,0,1,764,334.15s6.86-2.32,14.11-11.49c3.36-4.25-5-14-9.35-9-2.73,3.09-5.55,5.94-7.47,7.81a1.44,1.44,0,0,0,.34,2.44s-.62-6.22-2.56-5.72c-.74.19-1,.39-1.45.33-.94-.11-3.13-3-4.5-4.67C751.46,311.76,750.11,308.94,750.75,308.43Z" fill="#fff"/><path d="M750.58,355c.63-1.68,3.49-5.42,3.46-5.42s0-.7-1.13-.73c-2.46-.07-6.85.76-9.7,6.76-3.4,7.17-.49,10.62-.49,10.62l3.87-.24a33.5,33.5,0,0,1,2.43-7.58c1.77,1.44,7.39,6.87,7.39,6.87l2.68-.17C758.1,363.42,751.75,357.13,750.58,355Z" fill="#422d62"/><path d="M761.82,214.43H746.67c-2.94,0,.53-7.48.53-7.48H758.7S767.79,214.43,761.82,214.43Z" fill="#fff"/><path d="M760.33,206.28l6.81,6.17,5-1.94s-6.63-3.37-10.66-5.34C761.23,205.37,760.59,206.09,760.33,206.28Z" fill="#fff"/><path d="M846.74,155.05a9,9,0,0,1,4.48,3.63,10.29,10.29,0,0,1,1.35,3.25c1,4.46,5.45,5.06,5.46,7.54,0,1.26-.83,2.27-2.14,3.39-1.93,1.64-3.12,2.73-.48,4.32,3,1.83,5.61,1.87,6.63,2.81s1.79,3.5-1.38,4.68c-2.63,1-3.38,1.5-2.56,2.56s5.29,1.59,6.14,5.16c.93,3.89-.77,7.24-5.33,9.39,0,0-3.9-5.69-10.17-4.8s-14.07,7.12-18.22,2.52c-2.76-3.06-2-7.69,2.65-9.37,1.42-.52,3.58-1.17,3.73-2,.19-1.06-2-2.32-2.6-2.72-3.09-2-2.35-4.42-1.18-5.29,1.46-1.09,4.63-2.26,7-4.55,1.71-1.63-.25-2.55-1.34-3.54-1.42-1.28-1.3-3,.59-4.42a15.17,15.17,0,0,0,3-2.69c1.62-2.1,2.79-4.75,2-5.62C843.16,158,846.74,155.05,846.74,155.05Z" fill="#00aef5"/><path d="M868.44,248.32s19.84,12.77,27.41,10.75,17.35-2.48,25.75,3c3.9,2.53,7.14,5.55,12.91,3.17,0,0,5.84,4.4,11.9,3.68,7.08-.84,9.62-.94,15.35,3.54l-14.51-34.28L929.8,227.7l-49-7.64-31.87-3.17-12,11.75-1.44,17.66Z" fill="#0062ba"/><path d="M829.78,192.68a14.64,14.64,0,0,0-1.36,12c4,12.67,14,15.84,13.12,28.38,0,0,3-8.8,10.74-10.74,4.9-1.23,7.46,2.27,11.18,4.47,4.5,2.67,10.31-1.8,12.33-3.17s3.6,1.37,7.79,3.17,10.24,2.09,13.77-1c0,0-.36,4.4,5.34,6.42s11.89-2.85,17.23.87c3.32,2.31,3.46,4.47,3.46,4.47s4-5.57,10.11-2.82c5.67,2.56,4.84,6.92,2.66,11.34-1.93,3.91-.51,10.31,8.14,12.9s12.21,5.65,15.08,10.25a19.13,19.13,0,0,0,17.8,9.51s5.83-39-9.88-47.95c-5.83-3.31-10.88-2.33-15.14-1.3-4.76,1.15-7.86,1.3-11.82-3.46-2.89-3.46-9.23-5.85-15.79-.87,0,0-3.66-6.05-9.73-7.57-5.19-1.3-7.5,1.66-9.73,1.3s-2.18-8.4-11.82-11c-5.55-1.51-10,3-10,3a9.18,9.18,0,0,0-9.16-5.34c-7,.29-8,6.2-8,6.2s2-7.13-4.08-8.59c-2.71-.64-3.12-1.88-3.77-3.71a6.68,6.68,0,0,0-7.43-4c-6.91,1.2-11.76,6.39-16.66,5.6S828,196.14,829.78,192.68Z" fill="#0062ba"/><path d="M1017.72,151.06l-45.07,24.87s-77.47-5-85.3-5.72c-3.42-.31-5.24-1.59-5.24-3.47,0-3.14,6-5.45,19.57-8.17,24.89-5,63.82-13.81,63.82-13.81Z" fill="#6a6a6a"/><path d="M976,219.19c.52-1,1.67-.82,2.48-.66,1,.2,37.82,1.94,37.82,1.94l10.08,1.69,1.15-62.54-9.7-2.49-42.64,21v40.65Z" fill="#c0efff"/><path d="M977.46,222.17a2.21,2.21,0,0,1-1.63-2l-.59-.28v16.36a16.59,16.59,0,0,1,7.58,5.66,10.29,10.29,0,0,1,6.38-2s3.15-6.09,10-2.21c0,0,5.27,1.47,10.43,10.39,0,0,10.67-.38,16.6,5l3.79-23.52-14.28-3.94Z" fill="#fff"/><path d="M766.45,175.59l1,29.58a111.92,111.92,0,0,0-11.72-2.78,3.44,3.44,0,0,0-1.33.08s-8.33-.39-12.37.94c-5,1.63-24.74,13.07-24.74,13.07s-11.33-40.28-14-40.88Z" fill="#eee"/><polygon points="794.81 172.73 794.81 185.56 788.84 187.64 788.84 174.11 794.81 172.73" fill="#c0efff"/><path d="M865.8,308h56.53s3.55-16.59-24.14-46.93a69.49,69.49,0,0,0-26.83-17.8c-17-6.19-28.37-4.83-28.37-4.83s-7.42,14-6.9,19.71l-3.84-3.21-4.9,1.22c-3,.75-5.33,1.38-6.63.61a23.48,23.48,0,0,1-5.59-4.94s-8.8,8.28-9.52,8.93c-1.52,1.37.24,4.8.81,5.74,1.61,2.65,7.95,11.47,12.43,12.31,3.65.68,9.32-7.53,12.86-3.58,4.6,5.13,15.91,20.49,15.91,20.49L849,285.26l21,6.16S867.54,302.88,865.8,308Z" fill="#fff"/><path d="M757.3,323.64c-2.57,3-4.16,8.33-.42,12.52,4.75,5.32,17.47-4.85,10.71-12.44C764,319.62,759,321.68,757.3,323.64Z" fill="#422d62"/><path d="M742.42,313.92c-1.63,1-1.32,2,1.26,5.67s3,4.58,4.91,4,1.17-3.68-1.34-6.92S743.42,313.29,742.42,313.92Z" fill="#422d62"/><path d="M790.38,370.78a153,153,0,0,1,14.13,29.77l-25.65-9.08c-.6,3.36-.61,4.59-.86,6.83,6.13,2.08,19.47,6.88,23.79,8.28a17.51,17.51,0,0,0,6.41,1.06c2-.18,3.21-1.06,3.07-1.12-3.23-1.34-4.7-2.17-4.22-3.66s2-.55,4.72.41c-2-11.11-16.38-34.85-16.38-34.86C793.55,369,790.11,370.34,790.38,370.78Z" fill="#ff3853"/><path d="M798.58,370a6.42,6.42,0,0,1-.85.34c8.08-2.08,12-4.08,14.47-6,1.75-1.07,5.36-3.66,5.16-6.89s-1.32-4.69-3.11-5.55a8.48,8.48,0,0,0-7.88-.06s-.24,2.69-3.35,5.44c-7.38,6.53-15.17,14.43-15.17,14.43s8-.71,9.86-1.31h0A6.42,6.42,0,0,0,798.58,370Z" fill="#422d62"/><path d="M762.1,364.88,755.82,373s-8.33.07-24,1.26l24.62,11.32.82,7.79L726,378l-12.86,33.45s-5.26-2.48-4.93-4.93l10.82-27.61,7-.92s1.63-.78,1.63-1.84.34-13.3.34-13.3l1.66,4.14Z" fill="#ff3853"/><polygon points="722.19 368.92 720.18 360.71 723.53 360.71 723.53 375.37 720.18 376.11 720.18 375.12 722.19 368.92" fill="#ff3853"/><path d="M719.09,357.5s-1.38-5.65-2-8.23c2-.51,4.5-1.51,4-4.88l5.43,12.92Z" fill="#ff3853"/><path d="M714.92,340.68s-1.35-8,1.21-11.94,7.66-3.57,5.14,2.29c-2.45,5.69,12.12,5,12.12,5s-2.18,2.64-2.35,8.7l-9.88-.39S720.31,341.54,714.92,340.68Z" fill="#ff3853"/><path d="M736.46,345.14c2.09,0,12.14,1.06,13.86-3s-5.35-4.89-8.4-4.75S736.46,342.54,736.46,345.14Z" fill="#ff3853"/><path d="M566.67-13S659.92,84,786.6,49c68.45-18.93,91.24,1.06,133.7,21.3C971,94.47,1057.5-4.5,1057.5-4.5Z" fill="#fff"/><path d="M975.24,222l49.75,4.34,7-5.5v-6.47l-6.48,6.81-50.3-3.28s-2.55,0-2.55,1.92C972.69,222,975.24,222,975.24,222Z" fill="#0062ba"/><path d="M1014.23,244.94c.73-5.18-4.4-11.1-15.29-6.85,0,0-2.6-7.35-8.8-8.36s-9.3,3.33-12.47,6-10.74,3.78-11.46,13.23c-.42,5.52,2.74,8.22,5,10.09s0,3.15-2.31,6.49c-4.43,6.27-1.12,14.57,15.11,17.33,19.49,3.32,42.38,6,42.38,6S1035.32,240.83,1014.23,244.94Z" fill="#422d62"/><polygon points="982.03 189.47 998.99 184.87 998.99 210.79 982.03 214.98 982.03 189.47" fill="#fff"/><polygon points="1006.1 183.59 1020.83 179.16 1020.83 204.57 1006.1 209.1 1006.1 183.59" fill="#fff"/><path d="M929.3,414a12.45,12.45,0,0,1,.57,9.49c-1.33,4.19-4.23,5.27-10.74,11.86s-8.57,9.12-14.76,10.95-16.9,1.75-13.89-3.33c1.27-2.14,5-5.16,7.93-8.65a114.56,114.56,0,0,0,7.33-10Z" fill="#0062ba"/><path d="M760.8,418.39c.88-2.91.22-8.84,6.1-9.58s3.94,2.83,10.45,2.72c.06,3.26,2.64,5.4-4.43,15.11s-12.8,10.78-17.45,9.7c-4.21-1-5.76-4.61-1.37-8.85C756.73,425,759.89,421.44,760.8,418.39Z" fill="#6a6a6a"/><path d="M757.72,398s-18.33,7.65-19.45,1.25,10-5.86,11.13-9.8l7.82,3.86Z" fill="#6a6a6a"/><path d="M781.57,289.13a15,15,0,0,1,19.86.75c6.51,5.88,10.19,9.23,8.71,11.23-1.06,1.42-3.09.89-3.09.89s1.56,7,2.73,8.48,3.52,3.07,2.34,4.63-3.79-2.12-3.79-2.12,1.79,16.34-5.44,23l-2-5.48s-4.68,6.15-20.39,8.94c0,0,8.26,3.23,6,5.52s-5.25-3.52-9.82-3.74-10.07,1.23-11.18,1.48-1.72-3.14-.69-3.27,26.27-3,35.19-11.65c0,0-5.81-16.14-12.17-25.4s-12.29-4.33-14-.64-8,15.12-8,15.12a28.23,28.23,0,0,1-.47-3.56,9.49,9.49,0,0,1,1.33-3.7c.67-1.36,6.66-14.26,6.66-14.26Z" fill="#0062ba"/><rect x="737.93" y="179.07" width="9.28" height="17.36" fill="#fff"/><rect x="721.95" y="179.07" width="9.28" height="17.36" fill="#fff"/><path d="M977.56,244.7c-1.09-.37-1.75,1.43-.52,2S978.93,245.17,977.56,244.7Z" fill="#00aef5"/><path d="M982.77,272.64c-.4.56,4.59,3.27,4.83,1.68S983.17,272.08,982.77,272.64Z" fill="#00aef5"/><path d="M982.28,254c1.35.37,1.83-1.17,1.32-1.57C982.15,251.28,980.93,253.63,982.28,254Z" fill="#00aef5"/><path d="M992.41,264.46c-.85.69.67,3,1.89,1.72S993.72,263.38,992.41,264.46Z" fill="#00aef5"/><path d="M1003.95,267c-.85.69.67,3,1.89,1.72S1005.27,266,1003.95,267Z" fill="#00aef5"/><path d="M1009.14,254c-.85.69.67,3,1.89,1.72S1010.46,252.88,1009.14,254Z" fill="#00aef5"/><path d="M980.62,265.87c.63.42,4.49-3.24,2.34-4.25C981.2,260.8,980,265.45,980.62,265.87Z" fill="#00aef5"/><path d="M997.74,260s4.88-1.85,3.82-3C1000.13,255.32,997.74,260,997.74,260Z" fill="#00aef5"/><path d="M984.76,238.87s4.39-.12,4.11-2.12S985.16,237.43,984.76,238.87Z" fill="#00aef5"/><path d="M972.21,250.77c-1.7,1,1.43,3.38,2,3S973.63,249.94,972.21,250.77Z" fill="#00aef5"/><path d="M1005,244.46a.87.87,0,1,1,.18,1.74A.89.89,0,1,1,1005,244.46Z" fill="#00aef5"/><path d="M989.89,254.89a1,1,0,0,0-.72,1.8A1,1,0,0,0,989.89,254.89Z" fill="#00aef5"/><path d="M995.17,245.84c1.24-.92,2.66,3,2.07,3.5S993.55,247,995.17,245.84Z" fill="#00aef5"/><path d="M987.77,244.2a1,1,0,1,0-.35,2C988.76,246.39,989.41,244.47,987.77,244.2Z" fill="#00aef5"/><path d="M975.4,268a1,1,0,1,0-.35,2C976.39,270.17,977,268.25,975.4,268Z" fill="#00aef5"/><path d="M798.63,194c-.1-13.6-.42-30.53-.42-30.53s5.8-3.75,6.59,7.34c0,0,9.26-3.69,12.45,4.29,0,0,4.89-3.92,10.47-1.19C824,176.25,823,178.94,824,183c1.91,7.13-3.7,3.22-7.41,5.66-5,3.3-4.12,8.36-8.4,9.21.48-2.43-.66-6-3.5-6.57A5.79,5.79,0,0,0,798.63,194Z" fill="#422d62"/><path d="M802.28,183.94c.71.2,1-.62.7-.83C802.2,182.51,801.56,183.75,802.28,183.94Z" fill="#422d62"/><path d="M812.13,188.45c-.45.36.35,1.55,1,.9S812.82,187.88,812.13,188.45Z" fill="#422d62"/><path d="M804.86,188.88c.33.22,2.36-1.7,1.23-2.23C805.17,186.22,804.53,188.66,804.86,188.88Z" fill="#422d62"/><path d="M811.59,178.78s2.31-.06,2.16-1.11S811.8,178,811.59,178.78Z" fill="#422d62"/><path d="M808.43,182.17a.51.51,0,0,0-.38.94A.51.51,0,0,0,808.43,182.17Z" fill="#422d62"/><path d="M813.62,181.39c.65-.48,1.4,1.59,1.09,1.84S812.77,182,813.62,181.39Z" fill="#422d62"/><path d="M807.83,175.94a.54.54,0,1,0-.18,1.05C808.34,177.09,808.69,176.08,807.83,175.94Z" fill="#422d62"/><path d="M802.6,177.85a.54.54,0,1,0-.18,1.05C803.12,179,803.46,178,802.6,177.85Z" fill="#422d62"/><path d="M754.39,202.47s4.31-4.15,8.38-3.55,4.07,4.19,5.51,3.59,5.15-4.19,8.26-2.28,3.74-.81,7.05-.25a4,4,0,0,1,3.39,3.47c.34,2.09-.42,4.7-2.9,5.18-4.19.81-4.28,3.26-7.41,2.73l-4.73-.8s-8.92-4.56-10.5-5.41S757.52,202.62,754.39,202.47Z" fill="#00aef5"/><path d="M843,238.39s3.4-20.9-16.72-25.47c-9.74-2.21-14.06,4.1-18.16,5.43s-9.41,3.54-7,9a4.91,4.91,0,0,0-2.77,5.76c.57,2.76,3.91,4.25,7.26,3.75,1.89-.28,19.08,6.67,22.82,7.52C830.69,244.85,836.18,241.5,843,238.39Z" fill="#422d62"/><path d="M843,238.39s-4.62,15.17-4.55,21.93l-6.2-5.43s-6.51,1.67-9.46,2.28-7.67-5.38-7.67-5.38-4.66,1.71-6,.59-1-8.56-1-8.56a22.06,22.06,0,0,1-2.58-7.14A10,10,0,0,0,811,234c2.88-2.55,5.76-3.8,8-1s4.83,5.82,5.2,2.4,1.6-5.31,4.11-4.64,2.74,8.62,8.74,8.55A17,17,0,0,0,843,238.39Z" fill="#6a6a6a"/><path d="M660.57,264.75c-1,3.37,8.06,3.37,8.06,3.37S661.61,261.37,660.57,264.75Z" fill="#0062ba"/><path d="M676.51,281.37s-.73-3.5-3.59-1.46-2.68,10.53,2.9,7.63S679,280.07,676.51,281.37Z" fill="#fff"/><path d="M658.54,246.09s1.3-3.33,3.78-.85.92,10.83-4.11,7.06S656.28,244.4,658.54,246.09Z" fill="#fff"/><path d="M644.87,288c-3.07-1-2.51-5.52.72-3.25S646.68,288.63,644.87,288Z" fill="#fff"/><path d="M696.94,234.72c-1.69-1.06-4.33,3-2.19,3.93S698.56,235.74,696.94,234.72Z" fill="#fff"/><path d="M645.37,271c-2.29.12-2.62-1.88-1.16-4.94.7-1.47-.77-.46-2-.39s-3-2-.66-4.25c2.49-2.39,4.15.58,4.4-1.11.59-3.95,4.34-4,3.61-.18-.36,1.89,3.5-2.88,4.46.76.53,2-.93,2.6-2.53,2.71s.34.43,1.35,1.53a1.94,1.94,0,0,1-.38,2.85c-2.73,2-4.3-1.21-4.3-1.21S648,270.87,645.37,271Z" fill="#fff"/><path d="M698,278.85c-.3-.21-6.92-4.74-5.3-6.57S698,278.85,698,278.85Z" fill="#0062ba"/><path d="M636.6,254.59c0-2.55-3.91-1.52-3.23-.08S636.59,255.84,636.6,254.59Z" fill="#fff"/><path d="M630.64,239.41c-1.34.18-.24,4.56,1.36,3.28A1.83,1.83,0,0,0,630.64,239.41Z" fill="#fff"/><path d="M690.93,301.76c-.55-2-7,.54-4.76,2.74A2.83,2.83,0,0,0,690.93,301.76Z" fill="#fff"/><path d="M620.15,247a1.84,1.84,0,1,0,0,3.67C622.39,250.47,622.23,246.87,620.15,247Z" fill="#fff"/><path d="M720.2,279s1-1.6-1.1-2.13a1.74,1.74,0,0,0-2,1.18,3.57,3.57,0,0,0,.15,1.82,3,3,0,0,0-2.1.17,2,2,0,0,0,.11,3.56,3.12,3.12,0,0,0,3.35-.56,2.37,2.37,0,0,0,.84,1.42c.67.48,2.2.19,2.42-.55a2.19,2.19,0,0,0-1.14-2.37,4.32,4.32,0,0,0,1.92,0c.84-.24,1-1.67.33-2.39C722,278.06,720.2,279,720.2,279Z" fill="#fff"/><path d="M647.68,263.26c-1.83,1.18-.93,2.26.62,1.68S648.56,262.69,647.68,263.26Z" fill="#ff3853"/><path d="M685.31,240s0-2.56-2.93-.05-2.07,8.19,1.56,6.94S691,235.09,685.31,240Z" fill="#fff"/><path d="M691.42,241.52s-11.25.6-9.89,4.46C683,250.18,691.42,241.52,691.42,241.52Z" fill="#00aff9"/><path d="M670.61,288.87s-4.17-10.46-7.4-7.94C659.7,283.66,670.61,288.87,670.61,288.87Z" fill="#00aff9"/><path d="M669.37,270s-11.9.24-11.14,2.89S669.37,270,669.37,270Z" fill="#0062ba"/><path d="M723.73,298.28c-1.41-3.24-8.31,2.71-8.31,2.71S725.14,301.52,723.73,298.28Z" fill="#0062ba"/><path d="M713.62,300s8.85-7.95,6.56-9.46S713.62,300,713.62,300Z" fill="#00aef5"/><path d="M679.54,247.08c-2.25,2.55-7.28-5.25-6.68-5.85S682,244.26,679.54,247.08Z" fill="#0062ba"/><path d="M699.15,279.44c-4.61-3.82,5.11-9.23,5.11-9.23s.41,1.77-1.48,4.19C701.08,276.55,699.15,279.44,699.15,279.44Z" fill="#00aef5"/><path d="M705.55,281.13s2.09-3,.22-4a3.92,3.92,0,0,0-5.54,2.24,6.37,6.37,0,0,1-1.42,2.45c-.42-1.38-1.06-2.49-2.38-2.8-2.48-.58-5.07,1.55-4.32,3.52a5.35,5.35,0,0,0,4.68,2.8c2.35,0,.33.89-1.44,1.83s2.15,4.95,5,.83c0,0,.28,2.33,2.49.83s-.39-3.38.61-3.77,2.05,2.94,4.43,1.55S709.75,280.26,705.55,281.13Zm.95,3.94c-1.8-1.28-3-2.17-4.71-.67,0,0,2.57-3.06,5.37-1.66C708.5,283.41,707.28,285.63,706.5,285.07Z" fill="#fff"/><path d="M700.55,282c-2.13.47-1.66,1.8,0,1.8S701.57,281.78,700.55,282Z" fill="#ff3853"/><path d="M791.88,252.11c-4.1-.82-5.53,3.89-7.3,3.52s-1-5.09-1.57-9.45-4.68-7-7.85-1.4-5.56,5-6.11,3.89,3.45-5.6,4.16-11.43c.42-3.4-.58-5.44-2.12-6.11a2.66,2.66,0,0,0-3.55,1.16c-2.29,3.82.85,8.47-2.32,8.16s-2.8-7.41-9.56-7.09c-2.44.11-4.34,2.3-5,4.19-1,2.9-2,3.82-1.84,2.73,3-19.43-8-28.81-17.15-30.82-6.4-1.41-8.14-4-10.29-8.4s-8-4.66-8-4.66c.82-6.6-3.58-5.27-4.35-7.53s4.4-9.52.31-13.77A11,11,0,0,0,695,173.75c-4.35,2.92-5.89.46-9.27-1.23a13.48,13.48,0,0,0-13.88,1.54c-4.76,3.64-6.45,9.32-11.06,8.45-2.75-.52-4.78-3.18-9-5.33-8.71-4.44-19.69,1.89-20.4,10.57a13.28,13.28,0,0,0,1.35,7.05c-10.29-10.29-28.11,1.66-28.11,1.66,13.59-2.88,8.41,5.6,10.34,11.1,1.71,4.89,8,3.89,8.7.14s2.7-5.29,4.81-4.88,3,3,1.88,5.77-1.19,4.3.92,3.35,2,1.16,1.13,4c-2.09,6.43-2.54,13.28,1.62,15.94,4.56,2.92,3.94-4.81,7.56-11.1s6.55-6.86,5.43-1-7.65,12.53-7.65,12.53,13.52-1.5,11.2-12.42,7.62-12.4,9.91-7.4a7.05,7.05,0,0,1-.56,6.82s8.18-5.09,11.06,3c1.94,5.47-5.17,13-5.17,13s9-7.32,14.18-2.59c-2.56-6.27,2.92-13.68,11.1-14.14,9.92-.57,12.49,6.5,12.49,6.5s2.44-4.3,7.59-1.89c4,1.89,2,7.5,2,7.5,3.82-.79,4.71,4.15,4.71,4.15s5.51-10,11.29-9.38c7.27.73,5.51,8.09,5.51,8.09s2.17-1.59,5.43,0c3.66,1.78,4.82,9.44-1.83,11.19-6,1.57-7.23,9.63-7.56,7.56-.14-.91,1.06-2.73,1.3-5.6a8.61,8.61,0,0,0-1.28-5.09,22,22,0,0,1-1,4.81,6.55,6.55,0,0,1-3,3.34s4.39-5.19,1-7.48a4.23,4.23,0,0,0-4.62.27c-1.57,1.2-1.92,4.22-1.92,4.22s-.6-4.13-3.12-5.52a5.47,5.47,0,0,0-6.85.93c-2.11,2.22-1.34,5.56-1.34,5.56s-1.25-6.12-7.5-6.49c-4-.23-8.89,1.74-9.16,7.53-6.42-1.77-15.63.68-19.46,8a13.52,13.52,0,0,0-.07,13.14c-.14-4.23,3.58-4,6.35-7.51s4.47-3.21,3-.24-4.71,5.29-3.31,5.77,5.15-1.91,7.13-4.1,3.89-5.91,4.13-3.58-3.69,7.34-3.69,7.34,2.06.24,5.22-2.12c3.75-2.8,7.65-2.83,11.67-.61s6.08,3.93,12.42,3.75,9.48,3.35,11.61,6.49c16.92,25,49.72-4.63,49.72-4.63s13.28,2,18.58-6.57C800.59,257.32,796,252.92,791.88,252.11ZM643,212.89c-4,5.36-8.36,12.39-8.36,12.39s2.42-13.38,7.07-17.07C644.75,205.81,647.06,207.53,643,212.89Z" fill="#00aef5"/><path d="M729.48,240c2,0,.27-4.27-1-4.06S727.5,240,729.48,240Z" fill="#00aef5"/><path d="M709.21,237c-.85-.1-1.71,3.62-.34,4S710.06,237.08,709.21,237Z" fill="#00aef5"/><path d="M735,239c-1.77-.07-2.12,3.55,0,3.65S736.8,239.08,735,239Z" fill="#00aef5"/><circle cx="708.25" cy="411.41" r="4.93" fill="#ff3853"/><path d="M636.3,201.66c-2.52-1-.72,7.1-.72,7.1S639,202.7,636.3,201.66Z" fill="#c0efff"/><path d="M660.16,253.31c1.12-.78-2-4.91-7.25-4.45C652.91,248.87,656.21,256.09,660.16,253.31Z" fill="#0062ba"/><path d="M711.08,302.77s-2.16,3.21-4.23-.87,2.71-3.29,2.71-3.29,2.16-4.63,4.79,0S711.08,302.77,711.08,302.77Z" fill="#fff"/><path d="M710.07,300.94c2.08.63,2.32-.76.88-1.57S709.07,300.63,710.07,300.94Z" fill="#ff3853"/><circle cx="745.63" cy="272.69" r="2.68" fill="#422d62"/><circle cx="753.64" cy="273.33" r="3.31" fill="#422d62"/><ellipse cx="758.24" cy="267.29" rx="3.85" ry="3.13" fill="#422d62"/><path d="M774.35,272.89s-.56-2.63-6.12-7c-5.38-4.26-13.06-3.52-19.54-.29-3.8,1.89-7.72,4.15-9.43,8.48-4.63,11.72,2.18,17.52,2.18,17.52a17.48,17.48,0,0,0,11.22,0,50.9,50.9,0,0,0,7.95-3.44c.77,1.16,2.67,4.54,2.15,11.49l2.73-1.64s.95-6.29-2.49-11.27C773.07,280.3,774.35,272.89,774.35,272.89Zm-29.85.77c-1.73-.33-.95-3.29.73-3.18S746.22,274,744.49,273.66Zm9.26,1c-2.73.5-3-2.68-1.06-3.24C755.26,270.7,756.49,274.16,753.75,274.67Zm4.85-6.19c-1.56,1.56-3.88-.61-2.62-1.9C757.6,264.94,760.24,266.84,758.61,268.47Z" fill="#ff3853"/></g></svg>