<?xml version="1.0" encoding="UTF-8"?>
<svg width="1020px" height="464px" viewBox="0 0 1020 464" version="1.1" xmlns="http://www.w3.org/2000/svg" xmlns:xlink="http://www.w3.org/1999/xlink">
    <!-- Generator: Sketch 47.1 (45422) - http://www.bohemiancoding.com/sketch -->
    <title>Artboard</title>
    <desc>Created with Sketch.</desc>
    <defs></defs>
    <g id="Page-1" stroke="none" stroke-width="1" fill="none" fill-rule="evenodd">
        <g id="Artboard">
            <g id="placeholder-altinnett" transform="translate(-87.000000, -1.000000)">
                <rect id="Rectangle" fill="#000000" fill-rule="nonzero" x="86" y="0" width="1024" height="466"></rect>
                <polygon id="Rectangle-Copy-2-Copy-2" fill="#C5D6DE" points="86 341 851.609375 434.980469 895.0625 457.199219 86 466.90625"></polygon>
                <polygon id="Rectangle-Copy-2-Copy-3" fill="#47B0E2" points="984.789062 439.46875 1110.09766 371.199219 1110.09766 466.425781 887.425781 466.425781"></polygon>
                <rect id="Rectangle" fill="#B9D7EA" fill-rule="nonzero" x="926" y="345" width="52" height="121"></rect>
                <polygon id="Rectangle-Copy-3" fill="#B9D7EA" fill-rule="nonzero" points="977.585035 345.214425 991 340 991 447 962 428.22807"></polygon>
                <polygon id="Rectangle-Copy-2" fill="#008BCE" fill-rule="nonzero" points="926 345 978 345 978 439 963.286821 394.088889"></polygon>
                <polygon id="Rectangle-Copy-6" fill="#450203" fill-rule="nonzero" points="926 344 978 395.756522 978 440 961.472868 395.756522"></polygon>
                <path d="M155.136719,400.808594 L972.25,440.28125 L1109.80859,465.601562 C1063.80686,465.601562 1011.57248,465.601562 953.105469,465.601562 C894.638455,465.601562 807.255642,465.601562 690.957031,465.601562 L155.136719,400.808594 Z" id="Rectangle-Copy-6-Copy" fill="#2D0102" fill-rule="nonzero"></path>
                <polygon id="Rectangle-Copy" fill="#B9D7EA" fill-rule="nonzero" points="926.426336 438 978.383304 438 1028 466 843 466"></polygon>
                <polygon id="Rectangle-Copy-2-Copy" fill="#008BCE" fill-rule="nonzero" points="0.74609375 335.539062 174.835938 401.839844 756.644531 466 86 466"></polygon>
                <rect id="Rectangle-Copy-2-Copy-2" fill="#FFFFFF" fill-rule="nonzero" x="926" y="436" width="51.743295" height="2.86150568"></rect>
            </g>
        </g>
    </g>
</svg>