<svg width="52" height="95" viewBox="0 0 52 95" fill="none" xmlns="http://www.w3.org/2000/svg">
<path d="M52 95H47.6667V57C47.6667 53.9773 45.5 51.3864 41.6 49.2273C37.7 47.5 32.0667 46.2045 26 46.2045C15.1667 46.2045 4.33333 50.0909 4.33333 57V94.5682H0V57C0 46.6364 13.4333 41.8864 26 41.8864C38.5667 41.8864 52 46.6364 52 57V95ZM26 32.8182C16.9 32.8182 9.53333 25.4773 9.53333 16.4091C9.53333 7.34091 16.9 8.23628e-07 26 8.23628e-07C35.1 8.23628e-07 42.4667 7.34091 42.4667 16.4091C42.4667 25.4773 35.1 32.8182 26 32.8182ZM26 4.31818C19.0667 4.31818 13.8667 9.5 13.8667 16.4091C13.8667 23.3182 19.5 28.5 26 28.5C32.5 28.5 38.1333 22.8864 38.1333 16.4091C38.1333 9.93182 32.9333 4.31818 26 4.31818Z" fill="white"/>
</svg>
