<svg width="76" height="69" viewBox="0 0 76 69" version="1.1" xmlns="http://www.w3.org/2000/svg" xmlns:xlink="http://www.w3.org/1999/xlink">
<g id="Canvas" fill="none">
<g id="Vector">
<path d="M 25.7371 25.423L 21.498 29.6602L 34.5179 42.6743L 7.21905e-08 42.6743L 7.21905e-08 48.7274L 34.5179 48.7274L 21.498 61.7416L 25.7371 65.9788L 46.0239 45.7009L 25.7371 25.423ZM 76 68.4L 69.9442 68.4L 69.9442 41.1611C 69.9442 40.8584 69.9442 39.3451 68.1275 38.1345C 64.494 35.108 56.0159 34.2 49.3546 36.0159L 47.8406 30.2655C 55.1076 28.4496 66.008 29.0549 71.7609 33.5947C 74.486 35.7133 76 38.4372 76 41.4637L 76 68.4ZM 56.0159 26.0283C 48.749 26.0283 42.996 20.2779 42.996 13.0142C 42.996 5.75044 48.749 2.88634e-07 56.0159 2.88634e-07C 63.2829 2.88634e-07 69.0359 5.75044 69.0359 13.0142C 69.0359 20.2779 63.2829 26.0283 56.0159 26.0283ZM 56.0159 5.75044C 52.0797 5.75044 49.0518 8.77699 49.0518 12.7115C 49.0518 16.646 52.0797 19.6726 56.0159 19.6726C 59.9522 19.6726 62.9801 16.646 62.9801 12.7115C 62.9801 8.77699 59.9522 5.75044 56.0159 5.75044Z" fill="#022F51"/>
</g>
</g>
</svg>

