<?xml version="1.0" encoding="UTF-8"?>
<svg width="139px" height="139px" viewBox="0 0 139 139" version="1.1" xmlns="http://www.w3.org/2000/svg" xmlns:xlink="http://www.w3.org/1999/xlink">
    <!-- Generator: Sketch 41 (35326) - http://www.bohemiancoding.com/sketch -->
    <title>Group</title>
    <desc>Created with Sketch.</desc>
    <defs></defs>
    <g id="Page-1" stroke="none" stroke-width="1" fill="none" fill-rule="evenodd">
        <g id="Group" transform="translate(4.000000, 4.000000)">
            <ellipse id="Oval" stroke="#0062BA" stroke-width="7" cx="65.270597" cy="65.3728139" rx="65.270597" ry="65.3728139"></ellipse>
            <path d="M65.5972248,103.312207 C86.3615987,103.312207 103.19445,86.4529959 103.19445,65.6561039 C103.19445,44.859212 86.3615987,28 65.5972248,28 C44.8328509,28 28,44.859212 28,65.6561039 C28,86.4529959 44.8328509,103.312207 65.5972248,103.312207 Z" id="Shape" fill-opacity="0.490602355" fill="#1EAEF7"></path>
            <path d="M129.139686,25.0887446 C129.139686,31.7761352 123.746777,37.1774892 117.069843,37.1774892 C110.392909,37.1774892 105,31.7761352 105,25.0887446 C105,18.401354 110.392909,13 117.069843,13 C123.703976,13 129.139686,18.401354 129.139686,25.0887446 L129.139686,25.0887446 Z" id="Shape" fill="#1EAEF7"></path>
        </g>
    </g>
</svg>