<?xml version="1.0" encoding="UTF-8" standalone="no"?>
<svg width="139px" height="139px" viewBox="0 0 139 139" version="1.1" xmlns="http://www.w3.org/2000/svg" xmlns:xlink="http://www.w3.org/1999/xlink">
    <!-- Generator: Sketch 3.8.3 (29802) - http://www.bohemiancoding.com/sketch -->
    <title>icon-atom</title>
    <desc>Created with Sketch.</desc>
    <defs></defs>
    <g id="Page-1" stroke="none" stroke-width="1" fill="none" fill-rule="evenodd">
        <g id="icon-atom" transform="translate(-1.000000, 4.000000)">
            <g id="atom" transform="translate(5.103696, 0.000000)">
                <g id="Group" transform="translate(-0.000000, 0.000000)">
                    <g transform="translate(0.000000, 0.000000)" id="Oval">
                        <ellipse stroke="#0062BA" stroke-width="7" cx="65.3273047" cy="65.6567965" rx="65.270597" ry="65.3728139"></ellipse>
                        <path d="M65.3273047,103.3129 C86.0916786,103.3129 102.92453,86.4536885 102.92453,65.6567965 C102.92453,44.8599046 86.0916786,28.0006926 65.3273047,28.0006926 C44.5629308,28.0006926 27.7300799,44.8599046 27.7300799,65.6567965 C27.7300799,86.4536885 44.5629308,103.3129 65.3273047,103.3129 Z" fill-opacity="0.490602355" fill="#1EAEF7"></path>
                    </g>
                    <path d="M128.774351,25.1608658 C128.774351,31.8482564 123.381442,37.2496104 116.704508,37.2496104 C110.027574,37.2496104 104.634665,31.8482564 104.634665,25.1608658 C104.634665,18.4734752 110.027574,13.0721212 116.704508,13.0721212 C123.338641,13.0721212 128.774351,18.4734752 128.774351,25.1608658 L128.774351,25.1608658 Z" id="Shape" fill="#1EAEF7"></path>
                </g>
            </g>
        </g>
    </g>
</svg>