<?xml version="1.0" encoding="utf-8"?>
<!-- Generator: Adobe Illustrator 22.1.0, SVG Export Plug-In . SVG Version: 6.00 Build 0)  -->
<svg version="1.1" id="Layer_1" xmlns="http://www.w3.org/2000/svg" xmlns:xlink="http://www.w3.org/1999/xlink" x="0px" y="0px"
	 viewBox="0 0 1624 609" style="enable-background:new 0 0 1624 609;" xml:space="preserve">
<style type="text/css">
	.st0{fill:none;stroke:#1EAEF7;stroke-width:3;stroke-miterlimit:10;}
	.st1{fill:none;stroke:#41A9DF;stroke-width:2.8015;stroke-miterlimit:10;}
	.st2{opacity:0.2;fill:#1EAEF7;enable-background:new    ;}
	.st3{fill:#FFFFFF;stroke:#1EAEF7;stroke-width:3;stroke-miterlimit:10;}
	.st4{fill:none;}
	.st5{enable-background:new    ;}
	.st6{fill:#0E3050;}
	.st7{fill:#1EAEF7;}
	.st8{fill:#404041;}
	.st9{fill:#FFFFFF;}
	.st10{opacity:0.2;fill:#41A9DF;enable-background:new    ;}
</style>
<path class="st0" d="M936.6,536.4H699.5c-13.4,0-24.2-10.8-24.2-24.2V72.3h261.3V536.4L936.6,536.4z"/>
<path class="st0" d="M936.5,72H675.2l0,0c0-28.5,23.1-51.6,51.6-51.6H885C913.5,20.4,936.5,43.5,936.5,72L936.5,72z"/>
<path class="st0" d="M936.5,536.1L936.5,536.1c0,28.5-23.1,51.6-51.6,51.6H726.7"/>
<path class="st1" d="M675.2,536.1"/>
<path class="st2" d="M936.5,536.1H700.3c-14.2,0-25.8-11.5-25.8-25.8V74.1h262V536.1z"/>
<rect x="706.6" y="233" class="st3" width="199.3" height="48.8"/>
<rect x="706.6" y="200.9" class="st4" width="200.7" height="110.1"/>
<g class="st5">
	<path class="st6" d="M709.8,202.1v4.7h5.6v1.2h-5.6v5.7h-1.4v-12.8h8v1.2H709.8z"/>
	<path class="st6" d="M724.9,209.3c0,0.7-0.1,1.3-0.2,1.9c-0.1,0.6-0.4,1.1-0.9,1.6c-0.3,0.3-0.7,0.6-1.1,0.7s-0.9,0.3-1.4,0.3
		c-0.4,0-0.7,0-1-0.1c-0.3-0.1-0.6-0.2-0.9-0.4l-0.7,1.2h-1l1-1.7c-0.4-0.5-0.7-1-0.8-1.6c-0.1-0.6-0.2-1.2-0.2-1.9c0-0.3,0-0.7,0-1
		c0-0.3,0.1-0.6,0.2-0.9c0.1-0.3,0.2-0.6,0.3-0.8c0.1-0.3,0.3-0.5,0.5-0.7c0.3-0.3,0.7-0.6,1.1-0.7c0.4-0.2,0.9-0.3,1.4-0.3
		c0.4,0,0.7,0,1,0.1s0.6,0.2,0.9,0.4l0.7-1.2h1l-1,1.7c0.4,0.5,0.7,1,0.8,1.6C724.8,208,724.9,208.6,724.9,209.3z M722.5,206.3
		c-0.4-0.3-0.8-0.4-1.3-0.4c-0.6,0-1.2,0.2-1.6,0.6c-0.2,0.2-0.3,0.4-0.4,0.6c-0.1,0.2-0.2,0.4-0.2,0.7c-0.1,0.2-0.1,0.5-0.1,0.7
		c0,0.3,0,0.5,0,0.8c0,0.4,0,0.8,0.1,1.3c0,0.4,0.2,0.8,0.4,1.1L722.5,206.3z M723.6,209.3c0-0.4,0-0.8-0.1-1.3
		c0-0.4-0.2-0.8-0.4-1.1l-3.2,5.4c0.4,0.3,0.8,0.4,1.3,0.4c0.6,0,1.2-0.2,1.6-0.6c0.2-0.2,0.3-0.3,0.4-0.6c0.1-0.2,0.2-0.4,0.2-0.7
		s0.1-0.5,0.1-0.7C723.6,209.8,723.6,209.5,723.6,209.3z"/>
	<path class="st6" d="M732.9,213.7v-1.1c-0.4,0.5-0.8,0.8-1.2,0.9c-0.4,0.2-0.9,0.2-1.4,0.2c-0.5,0-0.9-0.1-1.2-0.2
		s-0.7-0.3-0.9-0.6c-0.4-0.5-0.7-1-0.9-1.7c-0.1-0.7-0.2-1.4-0.2-2.1c0-0.4,0-0.7,0-1.1c0-0.4,0.1-0.7,0.2-1
		c0.1-0.3,0.2-0.6,0.3-0.9c0.1-0.3,0.3-0.5,0.5-0.8c0.2-0.2,0.5-0.4,0.9-0.6s0.8-0.2,1.2-0.2c0.5,0,1,0.1,1.4,0.2
		c0.4,0.2,0.8,0.5,1.2,0.9v-5h1.3v12.8H732.9z M732.9,209.3c0-0.4,0-0.9-0.1-1.3c0-0.4-0.1-0.8-0.3-1.1c-0.2-0.3-0.4-0.6-0.7-0.8
		c-0.3-0.2-0.7-0.3-1.2-0.3c-0.5,0-0.9,0.1-1.2,0.3c-0.3,0.2-0.5,0.4-0.7,0.8c-0.2,0.3-0.3,0.7-0.3,1.1c0,0.4-0.1,0.8-0.1,1.3
		c0,0.4,0,0.9,0.1,1.3c0,0.4,0.2,0.8,0.3,1.1s0.4,0.6,0.7,0.8c0.3,0.2,0.7,0.3,1.2,0.3c0.5,0,0.9-0.1,1.2-0.3
		c0.3-0.2,0.5-0.4,0.7-0.8c0.2-0.3,0.3-0.7,0.3-1.1S732.9,209.7,732.9,209.3z"/>
	<path class="st6" d="M743.8,211.1c0,0.9-0.3,1.5-1,2c-0.7,0.5-1.5,0.7-2.6,0.7c-0.8,0-1.4-0.1-2-0.3c-0.6-0.2-1.1-0.5-1.6-1
		l0.9-0.9c0.3,0.4,0.8,0.6,1.2,0.8c0.5,0.2,1,0.2,1.5,0.2c0.7,0,1.3-0.1,1.7-0.4c0.4-0.3,0.6-0.7,0.6-1.2c0-0.4-0.1-0.7-0.3-0.9
		c-0.2-0.2-0.6-0.3-1.1-0.4l-1.5-0.1c-0.9-0.1-1.5-0.3-2-0.7c-0.5-0.4-0.7-0.9-0.7-1.7c0-0.4,0.1-0.8,0.2-1.1s0.4-0.6,0.7-0.8
		c0.3-0.2,0.6-0.4,1-0.5s0.8-0.2,1.3-0.2c0.6,0,1.2,0.1,1.8,0.2c0.5,0.2,1,0.4,1.4,0.7l-0.8,0.8c-0.3-0.2-0.7-0.4-1.1-0.5
		c-0.4-0.1-0.8-0.2-1.3-0.2c-0.6,0-1.1,0.1-1.5,0.4c-0.3,0.3-0.5,0.6-0.5,1.1c0,0.4,0.1,0.7,0.4,0.9s0.7,0.3,1.2,0.4l1.4,0.1
		c0.4,0,0.7,0.1,1.1,0.2c0.3,0.1,0.6,0.2,0.8,0.4c0.2,0.2,0.4,0.4,0.5,0.7S743.8,210.7,743.8,211.1z"/>
	<path class="st6" d="M747.2,209.6c0,1,0.2,1.7,0.7,2.3c0.4,0.5,1.1,0.8,2,0.8c0.5,0,0.9-0.1,1.3-0.2c0.3-0.2,0.7-0.4,1-0.8l0.9,0.8
		c-0.2,0.2-0.5,0.4-0.7,0.6s-0.5,0.3-0.7,0.4c-0.3,0.1-0.5,0.2-0.8,0.3c-0.3,0.1-0.6,0.1-1,0.1c-0.6,0-1.1-0.1-1.6-0.3
		s-0.9-0.5-1.2-0.8c-0.3-0.4-0.6-0.8-0.8-1.4c-0.2-0.6-0.3-1.2-0.3-2c0-1.5,0.3-2.6,1-3.4s1.5-1.2,2.7-1.2c1.2,0,2.1,0.4,2.7,1.1
		c0.6,0.8,0.9,1.8,0.9,3.2v0.6H747.2z M751.9,208.7c0-0.2,0-0.3,0-0.5c0-0.1,0-0.3,0-0.4c0-0.1,0-0.2-0.1-0.3c0-0.1-0.1-0.2-0.1-0.3
		c-0.2-0.4-0.5-0.7-0.8-1s-0.8-0.4-1.3-0.4s-0.9,0.1-1.3,0.4s-0.6,0.6-0.8,1c-0.1,0.1-0.1,0.2-0.1,0.3c0,0.1-0.1,0.2-0.1,0.3
		c0,0.1,0,0.2,0,0.4c0,0.1,0,0.3,0,0.5H751.9z"/>
	<path class="st6" d="M758.1,213.7c-0.8,0-1.4-0.2-1.7-0.7s-0.5-1-0.5-1.7v-10.5h1.3v10.4c0,0.4,0.1,0.8,0.3,1
		c0.2,0.2,0.5,0.3,0.9,0.3h0.7v1.1H758.1z"/>
	<path class="st6" d="M767.6,211.1c0,0.9-0.3,1.5-1,2c-0.7,0.5-1.5,0.7-2.6,0.7c-0.8,0-1.4-0.1-2-0.3c-0.6-0.2-1.1-0.5-1.6-1
		l0.9-0.9c0.3,0.4,0.8,0.6,1.2,0.8c0.5,0.2,1,0.2,1.5,0.2c0.7,0,1.3-0.1,1.7-0.4c0.4-0.3,0.6-0.7,0.6-1.2c0-0.4-0.1-0.7-0.3-0.9
		c-0.2-0.2-0.6-0.3-1.1-0.4l-1.5-0.1c-0.9-0.1-1.5-0.3-2-0.7c-0.5-0.4-0.7-0.9-0.7-1.7c0-0.4,0.1-0.8,0.2-1.1s0.4-0.6,0.7-0.8
		c0.3-0.2,0.6-0.4,1-0.5s0.8-0.2,1.3-0.2c0.6,0,1.2,0.1,1.8,0.2c0.5,0.2,1,0.4,1.4,0.7l-0.8,0.8c-0.3-0.2-0.7-0.4-1.1-0.5
		c-0.4-0.1-0.8-0.2-1.3-0.2c-0.6,0-1.1,0.1-1.5,0.4c-0.3,0.3-0.5,0.6-0.5,1.1c0,0.4,0.1,0.7,0.4,0.9s0.7,0.3,1.2,0.4l1.4,0.1
		c0.4,0,0.7,0.1,1.1,0.2c0.3,0.1,0.6,0.2,0.8,0.4c0.2,0.2,0.4,0.4,0.5,0.7S767.6,210.7,767.6,211.1z"/>
	<path class="st6" d="M775.8,213.7v-5.5c0-0.8-0.2-1.4-0.6-1.8c-0.4-0.4-0.9-0.6-1.6-0.6s-1.2,0.2-1.6,0.6c-0.4,0.4-0.6,1-0.6,1.8
		v5.5h-1.3v-8.9h1.3v1c0.3-0.4,0.7-0.6,1.1-0.8c0.4-0.2,0.9-0.3,1.4-0.3c1,0,1.7,0.3,2.3,0.8c0.6,0.6,0.9,1.4,0.9,2.5v5.7H775.8z"/>
	<path class="st6" d="M785.8,213.7v-1c-0.3,0.4-0.7,0.6-1.1,0.8s-0.9,0.3-1.4,0.3c-1,0-1.7-0.3-2.3-0.8c-0.3-0.3-0.5-0.7-0.7-1.1
		s-0.2-0.9-0.2-1.4v-5.7h1.3v5.5c0,0.8,0.2,1.4,0.6,1.8s0.9,0.6,1.6,0.6s1.2-0.2,1.6-0.6c0.4-0.4,0.6-1,0.6-1.8v-5.5h1.3v8.9H785.8z
		"/>
	<path class="st6" d="M801.7,213.7v-5.5c0-0.8-0.2-1.4-0.6-1.8c-0.4-0.4-0.9-0.6-1.6-0.6c-0.6,0-1.2,0.2-1.6,0.6
		c-0.4,0.4-0.6,0.9-0.6,1.6v5.6H796v-5.5c0-0.8-0.2-1.4-0.6-1.8c-0.4-0.4-0.9-0.6-1.6-0.6s-1.2,0.2-1.6,0.6c-0.4,0.4-0.6,1-0.6,1.8
		v5.5h-1.3v-8.9h1.3v1c0.3-0.4,0.7-0.6,1.1-0.8c0.4-0.2,0.9-0.3,1.4-0.3c0.6,0,1.1,0.1,1.6,0.4s0.8,0.6,1.1,1.1
		c0.7-1,1.7-1.5,2.9-1.5c0.5,0,0.9,0.1,1.3,0.2c0.4,0.1,0.7,0.3,1,0.6c0.6,0.6,1,1.4,1,2.5v5.7H801.7z"/>
	<path class="st6" d="M817.6,213.7v-5.5c0-0.8-0.2-1.4-0.6-1.8c-0.4-0.4-0.9-0.6-1.6-0.6c-0.6,0-1.2,0.2-1.6,0.6
		c-0.4,0.4-0.6,0.9-0.6,1.6v5.6h-1.3v-5.5c0-0.8-0.2-1.4-0.6-1.8c-0.4-0.4-0.9-0.6-1.6-0.6s-1.2,0.2-1.6,0.6c-0.4,0.4-0.6,1-0.6,1.8
		v5.5h-1.3v-8.9h1.3v1c0.3-0.4,0.7-0.6,1.1-0.8c0.4-0.2,0.9-0.3,1.4-0.3c0.6,0,1.2,0.1,1.6,0.4c0.5,0.2,0.8,0.6,1.1,1.1
		c0.7-1,1.7-1.5,2.9-1.5c0.5,0,0.9,0.1,1.3,0.2c0.4,0.1,0.7,0.3,1,0.6c0.6,0.6,1,1.4,1,2.5v5.7H817.6z"/>
	<path class="st6" d="M822.8,209.6c0,1,0.2,1.7,0.7,2.3c0.4,0.5,1.1,0.8,2,0.8c0.5,0,0.9-0.1,1.3-0.2c0.3-0.2,0.7-0.4,1-0.8l0.9,0.8
		c-0.2,0.2-0.5,0.4-0.7,0.6c-0.2,0.2-0.5,0.3-0.7,0.4c-0.3,0.1-0.5,0.2-0.8,0.3c-0.3,0.1-0.6,0.1-1,0.1c-0.6,0-1.1-0.1-1.6-0.3
		c-0.5-0.2-0.9-0.5-1.2-0.8c-0.3-0.4-0.6-0.8-0.8-1.4c-0.2-0.6-0.3-1.2-0.3-2c0-1.5,0.3-2.6,1-3.4c0.6-0.8,1.5-1.2,2.7-1.2
		c1.2,0,2.1,0.4,2.7,1.1c0.6,0.8,0.9,1.8,0.9,3.2v0.6H822.8z M827.5,208.7c0-0.2,0-0.3,0-0.5c0-0.1,0-0.3,0-0.4c0-0.1,0-0.2-0.1-0.3
		c0-0.1-0.1-0.2-0.1-0.3c-0.2-0.4-0.5-0.7-0.8-1c-0.4-0.2-0.8-0.4-1.3-0.4c-0.5,0-0.9,0.1-1.3,0.4c-0.4,0.2-0.6,0.6-0.8,1
		c-0.1,0.1-0.1,0.2-0.1,0.3c0,0.1-0.1,0.2-0.1,0.3c0,0.1,0,0.2,0,0.4c0,0.1,0,0.3,0,0.5H827.5z"/>
	<path class="st6" d="M836.5,206.6c-0.2-0.2-0.5-0.4-0.7-0.5s-0.5-0.1-0.8-0.1c-0.3,0-0.6,0.1-0.9,0.2c-0.3,0.1-0.5,0.3-0.7,0.5
		c-0.2,0.2-0.3,0.5-0.4,0.8c-0.1,0.3-0.2,0.6-0.2,0.9v5.4h-1.3v-8.9h1.3v1.1c0.2-0.4,0.6-0.7,1-0.9c0.5-0.2,0.9-0.3,1.4-0.3
		c0.4,0,0.8,0.1,1.1,0.2s0.7,0.3,1,0.6L836.5,206.6z"/>
</g>
<rect x="706.6" y="319.4" class="st7" width="109.4" height="48.8"/>
<rect x="728.9" y="337.5" class="st4" width="86.4" height="32.8"/>
<g class="st5">
	<path class="st6" d="M730.7,350.3v-12.8h1.4v11.6h6.6v1.2H730.7z"/>
	<path class="st6" d="M747.6,345.9c0,0.7-0.1,1.3-0.2,1.9c-0.1,0.6-0.4,1.1-0.9,1.6c-0.3,0.3-0.7,0.6-1.1,0.7s-0.9,0.3-1.4,0.3
		s-1-0.1-1.4-0.3c-0.4-0.2-0.8-0.4-1.1-0.7c-0.2-0.2-0.4-0.5-0.5-0.7c-0.1-0.3-0.2-0.6-0.3-0.8s-0.1-0.6-0.2-0.9c0-0.3,0-0.7,0-1
		c0-0.7,0.1-1.3,0.2-1.9c0.1-0.6,0.4-1.1,0.9-1.6c0.3-0.3,0.7-0.6,1.1-0.7c0.4-0.2,0.9-0.3,1.4-0.3s1,0.1,1.4,0.3
		c0.4,0.2,0.8,0.4,1.1,0.7c0.5,0.5,0.7,1,0.9,1.6C747.5,344.6,747.6,345.2,747.6,345.9z M746.3,345.9c0-0.5,0-1-0.1-1.5
		c-0.1-0.5-0.3-0.9-0.6-1.2c-0.4-0.4-1-0.6-1.6-0.6c-0.6,0-1.2,0.2-1.6,0.6c-0.3,0.3-0.5,0.7-0.6,1.2s-0.1,1-0.1,1.5
		c0,0.3,0,0.5,0,0.8c0,0.3,0,0.5,0.1,0.7c0,0.2,0.1,0.5,0.2,0.7c0.1,0.2,0.2,0.4,0.4,0.6c0.4,0.4,1,0.6,1.6,0.6
		c0.6,0,1.2-0.2,1.6-0.6c0.3-0.3,0.5-0.7,0.6-1.2C746.2,346.9,746.3,346.4,746.3,345.9z"/>
	<path class="st6" d="M756.9,350.6c0,0.6-0.1,1.1-0.3,1.5s-0.4,0.9-0.7,1.2c-0.3,0.3-0.7,0.6-1.2,0.8c-0.5,0.2-1,0.3-1.6,0.3
		c-0.3,0-0.6,0-0.9-0.1c-0.3,0-0.5-0.1-0.7-0.2s-0.5-0.2-0.7-0.4c-0.2-0.1-0.4-0.3-0.7-0.5l0.8-0.8c0.2,0.1,0.3,0.3,0.5,0.4
		c0.1,0.1,0.3,0.2,0.5,0.3s0.3,0.1,0.5,0.2c0.2,0,0.4,0.1,0.7,0.1c0.4,0,0.8-0.1,1.1-0.2c0.3-0.1,0.6-0.3,0.8-0.6
		c0.2-0.2,0.3-0.5,0.4-0.9c0.1-0.3,0.1-0.7,0.1-1.1v-1.4c-0.4,0.5-0.7,0.8-1.2,0.9c-0.4,0.2-0.9,0.2-1.3,0.2c-0.5,0-0.9-0.1-1.2-0.2
		c-0.4-0.1-0.7-0.3-0.9-0.6c-0.4-0.4-0.7-1-0.9-1.6c-0.1-0.6-0.2-1.3-0.2-2.1s0.1-1.4,0.2-2.1c0.1-0.6,0.4-1.2,0.9-1.6
		c0.2-0.2,0.5-0.4,0.9-0.6s0.8-0.2,1.2-0.2c0.5,0,0.9,0.1,1.3,0.2c0.4,0.2,0.8,0.5,1.1,0.9v-1h1.3V350.6z M755.6,345.8
		c0-0.4,0-0.8-0.1-1.2c0-0.4-0.2-0.8-0.3-1.1c-0.2-0.3-0.4-0.6-0.7-0.7c-0.3-0.2-0.7-0.3-1.2-0.3c-0.5,0-0.9,0.1-1.2,0.3
		c-0.3,0.2-0.5,0.4-0.7,0.7c-0.2,0.3-0.3,0.7-0.3,1.1c0,0.4-0.1,0.8-0.1,1.2c0,0.4,0,0.8,0.1,1.2c0,0.4,0.1,0.7,0.3,1.1
		c0.2,0.3,0.4,0.6,0.7,0.7c0.3,0.2,0.7,0.3,1.2,0.3c0.5,0,0.9-0.1,1.2-0.3c0.3-0.2,0.5-0.4,0.7-0.7c0.2-0.3,0.3-0.7,0.3-1.1
		C755.6,346.6,755.6,346.2,755.6,345.8z"/>
	<path class="st6" d="M766.6,350.6c0,0.6-0.1,1.1-0.3,1.5s-0.4,0.9-0.7,1.2c-0.3,0.3-0.7,0.6-1.2,0.8c-0.5,0.2-1,0.3-1.6,0.3
		c-0.3,0-0.6,0-0.9-0.1c-0.3,0-0.5-0.1-0.7-0.2s-0.5-0.2-0.7-0.4c-0.2-0.1-0.4-0.3-0.7-0.5l0.8-0.8c0.2,0.1,0.3,0.3,0.5,0.4
		c0.1,0.1,0.3,0.2,0.5,0.3s0.3,0.1,0.5,0.2c0.2,0,0.4,0.1,0.7,0.1c0.4,0,0.8-0.1,1.1-0.2c0.3-0.1,0.6-0.3,0.8-0.6
		c0.2-0.2,0.3-0.5,0.4-0.9c0.1-0.3,0.1-0.7,0.1-1.1v-1.4c-0.4,0.5-0.7,0.8-1.2,0.9c-0.4,0.2-0.9,0.2-1.3,0.2c-0.5,0-0.9-0.1-1.2-0.2
		c-0.4-0.1-0.7-0.3-0.9-0.6c-0.4-0.4-0.7-1-0.9-1.6c-0.1-0.6-0.2-1.3-0.2-2.1s0.1-1.4,0.2-2.1c0.1-0.6,0.4-1.2,0.9-1.6
		c0.2-0.2,0.5-0.4,0.9-0.6s0.8-0.2,1.2-0.2c0.5,0,0.9,0.1,1.3,0.2c0.4,0.2,0.8,0.5,1.1,0.9v-1h1.3V350.6z M765.4,345.8
		c0-0.4,0-0.8-0.1-1.2c0-0.4-0.2-0.8-0.3-1.1c-0.2-0.3-0.4-0.6-0.7-0.7c-0.3-0.2-0.7-0.3-1.2-0.3c-0.5,0-0.9,0.1-1.2,0.3
		c-0.3,0.2-0.5,0.4-0.7,0.7c-0.2,0.3-0.3,0.7-0.3,1.1c0,0.4-0.1,0.8-0.1,1.2c0,0.4,0,0.8,0.1,1.2c0,0.4,0.1,0.7,0.3,1.1
		c0.2,0.3,0.4,0.6,0.7,0.7c0.3,0.2,0.7,0.3,1.2,0.3c0.5,0,0.9-0.1,1.2-0.3c0.3-0.2,0.5-0.4,0.7-0.7c0.2-0.3,0.3-0.7,0.3-1.1
		C765.3,346.6,765.4,346.2,765.4,345.8z"/>
	<path class="st6" d="M774.3,338.9v-1.5h1.5v1.5H774.3z M774.4,350.3v-8.9h1.3v8.9H774.4z"/>
	<path class="st6" d="M784.6,350.3v-5.5c0-0.8-0.2-1.4-0.6-1.8c-0.4-0.4-0.9-0.6-1.6-0.6s-1.2,0.2-1.6,0.6c-0.4,0.4-0.6,1-0.6,1.8
		v5.5h-1.3v-8.9h1.3v1c0.3-0.4,0.7-0.6,1.1-0.8c0.4-0.2,0.9-0.3,1.4-0.3c1,0,1.7,0.3,2.3,0.8c0.6,0.6,0.9,1.4,0.9,2.5v5.7H784.6z"/>
	<path class="st6" d="M794.7,350.3v-5.5c0-0.8-0.2-1.4-0.6-1.8c-0.4-0.4-0.9-0.6-1.6-0.6s-1.2,0.2-1.6,0.6c-0.4,0.4-0.6,1-0.6,1.8
		v5.5H789v-8.9h1.3v1c0.3-0.4,0.7-0.6,1.1-0.8c0.4-0.2,0.9-0.3,1.4-0.3c1,0,1.7,0.3,2.3,0.8c0.6,0.6,0.9,1.4,0.9,2.5v5.7H794.7z"/>
</g>
<rect x="705.9" y="145.9" class="st4" width="200.7" height="34.8"/>
<g class="st5">
	<path class="st6" d="M707.7,158.7v-12.8h8v1.2h-6.6v4.5h5.6v1.2h-5.6v4.6h6.6v1.2H707.7z"/>
	<path class="st6" d="M720.5,158.7c-0.8,0-1.4-0.2-1.7-0.7s-0.5-1-0.5-1.7v-10.5h1.3v10.4c0,0.4,0.1,0.8,0.3,1
		c0.2,0.2,0.5,0.3,0.9,0.3h0.7v1.1H720.5z"/>
	<path class="st6" d="M724.2,154.6c0,1,0.2,1.7,0.7,2.3c0.4,0.5,1.1,0.8,2,0.8c0.5,0,0.9-0.1,1.3-0.2c0.3-0.2,0.7-0.4,1-0.8l0.9,0.8
		c-0.2,0.2-0.5,0.4-0.7,0.6s-0.5,0.3-0.7,0.4c-0.3,0.1-0.5,0.2-0.8,0.3c-0.3,0.1-0.6,0.1-1,0.1c-0.6,0-1.1-0.1-1.6-0.3
		s-0.9-0.5-1.2-0.8c-0.3-0.4-0.6-0.8-0.8-1.4c-0.2-0.6-0.3-1.2-0.3-2c0-1.5,0.3-2.6,1-3.4s1.5-1.2,2.7-1.2c1.2,0,2.1,0.4,2.7,1.1
		c0.6,0.8,0.9,1.8,0.9,3.2v0.6H724.2z M728.9,153.6c0-0.2,0-0.3,0-0.5c0-0.1,0-0.3,0-0.4c0-0.1,0-0.2-0.1-0.3c0-0.1-0.1-0.2-0.1-0.3
		c-0.2-0.4-0.5-0.7-0.8-1s-0.8-0.4-1.3-0.4s-0.9,0.1-1.3,0.4s-0.6,0.6-0.8,1c-0.1,0.1-0.1,0.2-0.1,0.3c0,0.1-0.1,0.2-0.1,0.3
		c0,0.1,0,0.2,0,0.4c0,0.1,0,0.3,0,0.5H728.9z"/>
	<path class="st6" d="M738.8,158.7l-2.8-4.5l-1.7,2v2.6h-1.3v-12.8h1.3v8.6l4-4.6h1.6l-3,3.4l3.5,5.5H738.8z"/>
	<path class="st6" d="M745.1,158.7c-0.4,0-0.7-0.1-1-0.2c-0.3-0.1-0.5-0.3-0.7-0.5s-0.3-0.5-0.4-0.8c-0.1-0.3-0.1-0.6-0.1-0.9v-5.5
		h-1.1v-1h1.1v-2.7h1.3v2.7h1.9v1h-1.9v5.5c0,0.4,0.1,0.7,0.3,1c0.2,0.2,0.5,0.3,0.9,0.3h0.7v1.1H745.1z"/>
	<path class="st6" d="M753.5,151.5c-0.2-0.2-0.5-0.4-0.7-0.5c-0.2-0.1-0.5-0.1-0.8-0.1c-0.3,0-0.6,0.1-0.9,0.2
		c-0.3,0.1-0.5,0.3-0.7,0.5c-0.2,0.2-0.3,0.5-0.4,0.8s-0.2,0.6-0.2,0.9v5.4h-1.3v-8.9h1.3v1.1c0.2-0.4,0.6-0.7,1-0.9
		c0.4-0.2,0.9-0.3,1.4-0.3c0.4,0,0.8,0.1,1.1,0.2s0.7,0.3,1,0.6L753.5,151.5z"/>
	<path class="st6" d="M762.4,154.2c0,0.7-0.1,1.3-0.2,1.9c-0.1,0.6-0.4,1.1-0.9,1.6c-0.3,0.3-0.7,0.6-1.1,0.7s-0.9,0.3-1.4,0.3
		s-1-0.1-1.4-0.3c-0.4-0.2-0.8-0.4-1.1-0.7c-0.2-0.2-0.4-0.5-0.5-0.7c-0.1-0.3-0.2-0.6-0.3-0.8s-0.1-0.6-0.2-0.9c0-0.3,0-0.7,0-1
		c0-0.7,0.1-1.3,0.2-1.9c0.1-0.6,0.4-1.1,0.9-1.6c0.3-0.3,0.7-0.6,1.1-0.7c0.4-0.2,0.9-0.3,1.4-0.3s1,0.1,1.4,0.3
		c0.4,0.2,0.8,0.4,1.1,0.7c0.5,0.5,0.7,1,0.9,1.6C762.3,152.9,762.4,153.6,762.4,154.2z M761.1,154.2c0-0.5,0-1-0.1-1.5
		c-0.1-0.5-0.3-0.9-0.6-1.2c-0.4-0.4-1-0.6-1.6-0.6c-0.6,0-1.2,0.2-1.6,0.6c-0.3,0.3-0.5,0.7-0.6,1.2s-0.1,1-0.1,1.5
		c0,0.3,0,0.5,0,0.8c0,0.3,0,0.5,0.1,0.7c0,0.2,0.1,0.5,0.2,0.7c0.1,0.2,0.2,0.4,0.4,0.6c0.4,0.4,1,0.6,1.6,0.6
		c0.6,0,1.2-0.2,1.6-0.6c0.3-0.3,0.5-0.7,0.6-1.2C761,155.2,761.1,154.7,761.1,154.2z"/>
	<path class="st6" d="M770.8,158.7v-5.5c0-0.8-0.2-1.4-0.6-1.8c-0.4-0.4-0.9-0.6-1.6-0.6s-1.2,0.2-1.6,0.6c-0.4,0.4-0.6,1-0.6,1.8
		v5.5h-1.3v-8.9h1.3v1c0.3-0.4,0.7-0.6,1.1-0.8c0.4-0.2,0.9-0.3,1.4-0.3c1,0,1.7,0.3,2.3,0.8c0.6,0.6,0.9,1.4,0.9,2.5v5.7H770.8z"/>
	<path class="st6" d="M775.2,147.3v-1.5h1.5v1.5H775.2z M775.3,158.7v-8.9h1.3v8.9H775.3z"/>
	<path class="st6" d="M786.2,156.1c0,0.9-0.3,1.5-1,2c-0.7,0.5-1.5,0.7-2.6,0.7c-0.8,0-1.4-0.1-2-0.3c-0.6-0.2-1.1-0.5-1.6-1
		l0.9-0.9c0.3,0.4,0.8,0.6,1.2,0.8c0.5,0.2,1,0.2,1.5,0.2c0.7,0,1.3-0.1,1.7-0.4c0.4-0.3,0.6-0.7,0.6-1.2c0-0.4-0.1-0.7-0.3-0.9
		c-0.2-0.2-0.6-0.3-1.1-0.4l-1.5-0.1c-0.9-0.1-1.5-0.3-2-0.7c-0.5-0.4-0.7-0.9-0.7-1.7c0-0.4,0.1-0.8,0.2-1.1s0.4-0.6,0.7-0.8
		c0.3-0.2,0.6-0.4,1-0.5s0.8-0.2,1.3-0.2c0.6,0,1.2,0.1,1.8,0.2c0.5,0.2,1,0.4,1.4,0.7l-0.8,0.8c-0.3-0.2-0.7-0.4-1.1-0.5
		c-0.4-0.1-0.8-0.2-1.3-0.2c-0.6,0-1.1,0.1-1.5,0.4c-0.3,0.3-0.5,0.6-0.5,1.1c0,0.4,0.1,0.7,0.4,0.9s0.7,0.3,1.2,0.4l1.4,0.1
		c0.4,0,0.7,0.1,1.1,0.2c0.3,0.1,0.6,0.2,0.8,0.4c0.2,0.2,0.4,0.4,0.5,0.7S786.2,155.7,786.2,156.1z"/>
	<path class="st6" d="M794.6,158.7l-2.8-4.5l-1.7,2v2.6h-1.3v-12.8h1.3v8.6l4-4.6h1.6l-3,3.4l3.5,5.5H794.6z"/>
	<path class="st6" d="M803.1,158.7v-12.8h1.4v12.8H803.1z"/>
	<path class="st6" d="M817.1,152.3c0,0.5,0,1,0,1.4c0,0.5-0.1,0.9-0.1,1.4c-0.1,0.4-0.2,0.8-0.3,1.2c-0.1,0.4-0.4,0.7-0.7,1
		c-0.4,0.5-0.9,0.8-1.5,1s-1.2,0.3-1.9,0.3h-4.4v-12.8h4.4c0.7,0,1.4,0.1,1.9,0.3s1,0.6,1.5,1c0.3,0.3,0.5,0.7,0.7,1
		c0.2,0.4,0.3,0.8,0.3,1.2c0.1,0.4,0.1,0.9,0.1,1.4C817,151.3,817.1,151.8,817.1,152.3z M815.7,152.3c0-0.4,0-0.9,0-1.3
		c0-0.4,0-0.8-0.1-1.2c-0.1-0.4-0.1-0.7-0.3-1s-0.3-0.6-0.5-0.8c-0.3-0.4-0.7-0.6-1.1-0.7c-0.4-0.1-0.9-0.2-1.4-0.2h-2.8v10.4h2.8
		c0.5,0,1-0.1,1.4-0.2c0.4-0.1,0.8-0.4,1.1-0.7c0.2-0.2,0.4-0.5,0.5-0.8c0.1-0.3,0.2-0.6,0.3-1c0.1-0.4,0.1-0.8,0.1-1.2
		C815.7,153.1,815.7,152.7,815.7,152.3z"/>
</g>
<path class="st0" d="M346.7,72H608l0,0c0-28.5-23.1-51.6-51.6-51.6H-25"/>
<path class="st0" d="M727,587.7H398.2c-28.5,0-51.6-23.1-51.6-51.6l0,0h144.1H347"/>
<rect x="365.5" y="127" class="st2" width="224.4" height="241.1"/>
<rect x="378" y="196.7" class="st4" width="200.7" height="157.1"/>
<g class="st5">
	<path class="st8" d="M388,209.5l-6.8-10.3v10.3h-1.4v-12.8h1.3L388,207v-10.2h1.4v12.8H388z"/>
	<path class="st8" d="M395,211.7c-0.2,0.5-0.4,0.8-0.6,1c-0.2,0.2-0.5,0.4-0.8,0.5c-0.3,0.1-0.6,0.1-0.9,0.1h-0.6v-1.2h0.4
		c0.4,0,0.8-0.1,1-0.2s0.4-0.4,0.5-0.9l0.6-1.7l-3.2-8.7h1.4l2.4,7.1l2.4-7.1h1.4L395,211.7z"/>
	<path class="st8" d="M416.7,209.5v-5.5c0-0.8-0.2-1.4-0.6-1.8c-0.4-0.4-0.9-0.6-1.6-0.6c-0.6,0-1.2,0.2-1.6,0.6
		c-0.4,0.4-0.6,0.9-0.6,1.6v5.6H411v-5.5c0-0.8-0.2-1.4-0.6-1.8c-0.4-0.4-0.9-0.6-1.6-0.6s-1.2,0.2-1.6,0.6c-0.4,0.4-0.6,1-0.6,1.8
		v5.5h-1.3v-8.9h1.3v1c0.3-0.4,0.7-0.6,1.1-0.8c0.4-0.2,0.9-0.3,1.4-0.3c0.6,0,1.1,0.1,1.6,0.4s0.8,0.6,1.1,1.1
		c0.7-1,1.7-1.5,2.9-1.5c0.5,0,0.9,0.1,1.3,0.2c0.4,0.1,0.7,0.3,1,0.6c0.6,0.6,1,1.4,1,2.5v5.7H416.7z"/>
	<path class="st8" d="M422,205.5c0,1,0.2,1.7,0.7,2.3c0.4,0.5,1.1,0.8,2,0.8c0.5,0,0.9-0.1,1.3-0.2c0.3-0.2,0.7-0.4,1-0.8l0.9,0.8
		c-0.2,0.2-0.5,0.4-0.7,0.6s-0.5,0.3-0.7,0.4c-0.3,0.1-0.5,0.2-0.8,0.3c-0.3,0.1-0.6,0.1-1,0.1c-0.6,0-1.1-0.1-1.6-0.3
		s-0.9-0.5-1.2-0.8c-0.3-0.4-0.6-0.8-0.8-1.4c-0.2-0.6-0.3-1.2-0.3-2c0-1.5,0.3-2.6,1-3.4s1.5-1.2,2.7-1.2c1.2,0,2.1,0.4,2.7,1.1
		c0.6,0.8,0.9,1.8,0.9,3.2v0.6H422z M426.7,204.5c0-0.2,0-0.3,0-0.5c0-0.1,0-0.3,0-0.4c0-0.1,0-0.2-0.1-0.3c0-0.1-0.1-0.2-0.1-0.3
		c-0.2-0.4-0.5-0.7-0.8-1s-0.8-0.4-1.3-0.4s-0.9,0.1-1.3,0.4s-0.6,0.6-0.8,1c-0.1,0.1-0.1,0.2-0.1,0.3c0,0.1-0.1,0.2-0.1,0.3
		c0,0.1,0,0.2,0,0.4c0,0.1,0,0.3,0,0.5H426.7z"/>
	<path class="st8" d="M432.9,209.5c-0.8,0-1.4-0.2-1.7-0.7s-0.5-1-0.5-1.7v-10.5h1.3v10.4c0,0.4,0.1,0.8,0.3,1
		c0.2,0.2,0.5,0.3,0.9,0.3h0.7v1.1H432.9z"/>
	<path class="st8" d="M441.1,209.5v-1.1c-0.4,0.5-0.8,0.8-1.2,0.9c-0.4,0.2-0.9,0.2-1.4,0.2c-0.5,0-0.9-0.1-1.2-0.2
		s-0.7-0.3-0.9-0.6c-0.4-0.5-0.7-1-0.9-1.7c-0.1-0.7-0.2-1.4-0.2-2.1c0-0.4,0-0.7,0-1.1c0-0.4,0.1-0.7,0.2-1
		c0.1-0.3,0.2-0.6,0.3-0.9c0.1-0.3,0.3-0.5,0.5-0.8c0.2-0.2,0.5-0.4,0.9-0.6s0.8-0.2,1.2-0.2c0.5,0,1,0.1,1.4,0.2
		c0.4,0.2,0.8,0.5,1.2,0.9v-5h1.3v12.8H441.1z M441.1,205.1c0-0.4,0-0.9-0.1-1.3c0-0.4-0.1-0.8-0.3-1.1c-0.2-0.3-0.4-0.6-0.7-0.8
		c-0.3-0.2-0.7-0.3-1.2-0.3c-0.5,0-0.9,0.1-1.2,0.3c-0.3,0.2-0.5,0.4-0.7,0.8c-0.2,0.3-0.3,0.7-0.3,1.1c0,0.4-0.1,0.8-0.1,1.3
		c0,0.4,0,0.9,0.1,1.3c0,0.4,0.2,0.8,0.3,1.1s0.4,0.6,0.7,0.8c0.3,0.2,0.7,0.3,1.2,0.3c0.5,0,0.9-0.1,1.2-0.3
		c0.3-0.2,0.5-0.4,0.7-0.8c0.2-0.3,0.3-0.7,0.3-1.1S441.1,205.5,441.1,205.1z"/>
	<path class="st8" d="M445.6,198.2v-1.5h1.5v1.5H445.6z M445.6,209.5v-8.9h1.3v8.9H445.6z"/>
	<path class="st8" d="M455.8,209.5v-5.5c0-0.8-0.2-1.4-0.6-1.8c-0.4-0.4-0.9-0.6-1.6-0.6s-1.2,0.2-1.6,0.6c-0.4,0.4-0.6,1-0.6,1.8
		v5.5h-1.3v-8.9h1.3v1c0.3-0.4,0.7-0.6,1.1-0.8c0.4-0.2,0.9-0.3,1.4-0.3c1,0,1.7,0.3,2.3,0.8c0.6,0.6,0.9,1.4,0.9,2.5v5.7H455.8z"/>
	<path class="st8" d="M466.8,209.8c0,0.6-0.1,1.1-0.3,1.5s-0.4,0.9-0.7,1.2c-0.3,0.3-0.7,0.6-1.2,0.8c-0.5,0.2-1,0.3-1.6,0.3
		c-0.3,0-0.6,0-0.9-0.1c-0.3,0-0.5-0.1-0.7-0.2s-0.5-0.2-0.7-0.4c-0.2-0.1-0.4-0.3-0.7-0.5l0.8-0.8c0.2,0.1,0.3,0.3,0.5,0.4
		c0.1,0.1,0.3,0.2,0.5,0.3s0.3,0.1,0.5,0.2c0.2,0,0.4,0.1,0.7,0.1c0.4,0,0.8-0.1,1.1-0.2c0.3-0.1,0.6-0.3,0.8-0.6
		c0.2-0.2,0.3-0.5,0.4-0.9c0.1-0.3,0.1-0.7,0.1-1.1v-1.4c-0.4,0.5-0.7,0.8-1.2,0.9c-0.4,0.2-0.9,0.2-1.3,0.2c-0.5,0-0.9-0.1-1.2-0.2
		c-0.4-0.1-0.7-0.3-0.9-0.6c-0.4-0.4-0.7-1-0.9-1.6c-0.1-0.6-0.2-1.3-0.2-2.1s0.1-1.4,0.2-2.1c0.1-0.6,0.4-1.2,0.9-1.6
		c0.2-0.2,0.5-0.4,0.9-0.6s0.8-0.2,1.2-0.2c0.5,0,0.9,0.1,1.3,0.2c0.4,0.2,0.8,0.5,1.1,0.9v-1h1.3V209.8z M465.5,205
		c0-0.4,0-0.8-0.1-1.2c0-0.4-0.2-0.8-0.3-1.1c-0.2-0.3-0.4-0.6-0.7-0.7c-0.3-0.2-0.7-0.3-1.2-0.3c-0.5,0-0.9,0.1-1.2,0.3
		c-0.3,0.2-0.5,0.4-0.7,0.7c-0.2,0.3-0.3,0.7-0.3,1.1c0,0.4-0.1,0.8-0.1,1.2c0,0.4,0,0.8,0.1,1.2c0,0.4,0.1,0.7,0.3,1.1
		c0.2,0.3,0.4,0.6,0.7,0.7c0.3,0.2,0.7,0.3,1.2,0.3c0.5,0,0.9-0.1,1.2-0.3c0.3-0.2,0.5-0.4,0.7-0.7c0.2-0.3,0.3-0.7,0.3-1.1
		C465.5,205.9,465.5,205.5,465.5,205z"/>
</g>
<g class="st5">
	<path class="st8" d="M388.8,239.9c0,0.5,0,1,0,1.4c0,0.5-0.1,0.9-0.1,1.4c-0.1,0.4-0.2,0.8-0.3,1.2c-0.2,0.4-0.4,0.7-0.7,1
		c-0.4,0.5-0.9,0.8-1.5,1c-0.5,0.2-1.2,0.3-1.9,0.3h-4.4v-12.8h4.4c0.7,0,1.4,0.1,1.9,0.3c0.5,0.2,1,0.6,1.5,1
		c0.3,0.3,0.5,0.7,0.7,1c0.1,0.4,0.3,0.8,0.3,1.2c0.1,0.4,0.1,0.9,0.1,1.4C388.8,239,388.8,239.4,388.8,239.9z M387.4,239.9
		c0-0.4,0-0.9,0-1.3s0-0.8-0.1-1.2c-0.1-0.4-0.1-0.7-0.3-1c-0.1-0.3-0.3-0.6-0.5-0.8c-0.3-0.4-0.7-0.6-1.1-0.7
		c-0.4-0.1-0.9-0.2-1.4-0.2h-2.8v10.4h2.8c0.5,0,1-0.1,1.4-0.2s0.8-0.4,1.1-0.7c0.2-0.2,0.4-0.5,0.5-0.8c0.1-0.3,0.2-0.6,0.3-1
		c0.1-0.4,0.1-0.8,0.1-1.2S387.4,240.4,387.4,239.9z"/>
	<path class="st8" d="M397.4,246.3v-1c-0.3,0.4-0.7,0.6-1.1,0.8s-0.9,0.3-1.4,0.3c-1,0-1.7-0.3-2.3-0.8c-0.3-0.3-0.5-0.7-0.7-1.1
		s-0.2-0.9-0.2-1.4v-5.7h1.3v5.5c0,0.8,0.2,1.4,0.6,1.8s0.9,0.6,1.6,0.6s1.2-0.2,1.6-0.6c0.4-0.4,0.6-1,0.6-1.8v-5.5h1.3v8.9H397.4z
		"/>
	<path class="st8" d="M412,246.3v-5.5c0-0.8-0.2-1.4-0.6-1.8c-0.4-0.4-0.9-0.6-1.6-0.6s-1.2,0.2-1.6,0.6c-0.4,0.4-0.6,1-0.6,1.8v5.5
		h-1.3v-12.8h1.3v4.9c0.6-0.7,1.5-1.1,2.5-1.1c1,0,1.8,0.3,2.4,0.9s0.8,1.4,0.8,2.4v5.7H412z"/>
	<path class="st8" d="M421.5,246.3v-0.8c-0.3,0.3-0.7,0.6-1.1,0.7c-0.4,0.1-0.9,0.2-1.5,0.2c-0.6,0-1.1-0.1-1.5-0.2
		c-0.4-0.1-0.7-0.3-1-0.6c-0.2-0.2-0.4-0.5-0.5-0.8s-0.2-0.7-0.2-1c0-0.8,0.3-1.4,0.8-1.9c0.5-0.5,1.3-0.7,2.3-0.7h2.6v-0.8
		c0-0.6-0.2-1.1-0.5-1.5c-0.3-0.3-0.9-0.5-1.8-0.5c-0.6,0-1,0.1-1.3,0.2c-0.3,0.2-0.6,0.4-0.9,0.8l-0.9-0.8c0.4-0.5,0.8-0.9,1.3-1.1
		c0.5-0.2,1.1-0.3,1.8-0.3c1.2,0,2.1,0.3,2.7,0.8s0.9,1.2,0.9,2.2v6H421.5z M421.5,242.3H419c-1.3,0-2,0.5-2,1.6
		c0,0.5,0.2,0.9,0.5,1.1c0.3,0.2,0.8,0.4,1.6,0.4c0.4,0,0.7,0,1-0.1c0.3-0.1,0.6-0.2,0.9-0.5c0.3-0.3,0.5-0.8,0.5-1.5V242.3z"/>
	<path class="st8" d="M430.9,239.2c-0.2-0.2-0.5-0.4-0.7-0.5c-0.2-0.1-0.5-0.1-0.8-0.1c-0.3,0-0.6,0.1-0.9,0.2
		c-0.3,0.1-0.5,0.3-0.7,0.5c-0.2,0.2-0.3,0.5-0.4,0.8s-0.2,0.6-0.2,0.9v5.4h-1.3v-8.9h1.3v1.1c0.2-0.4,0.6-0.7,1-0.9
		c0.4-0.2,0.9-0.3,1.4-0.3c0.4,0,0.8,0.1,1.1,0.2s0.7,0.3,1,0.6L430.9,239.2z"/>
	<path class="st8" d="M449.4,246.3v-5.5c0-0.8-0.2-1.4-0.6-1.8c-0.4-0.4-0.9-0.6-1.6-0.6c-0.6,0-1.2,0.2-1.6,0.6
		c-0.4,0.4-0.6,0.9-0.6,1.6v5.6h-1.3v-5.5c0-0.8-0.2-1.4-0.6-1.8c-0.4-0.4-0.9-0.6-1.6-0.6s-1.2,0.2-1.6,0.6c-0.4,0.4-0.6,1-0.6,1.8
		v5.5H438v-8.9h1.3v1c0.3-0.4,0.7-0.6,1.1-0.8c0.4-0.2,0.9-0.3,1.4-0.3c0.6,0,1.1,0.1,1.6,0.4s0.8,0.6,1.1,1.1
		c0.7-1,1.7-1.5,2.9-1.5c0.5,0,0.9,0.1,1.3,0.2c0.4,0.1,0.7,0.3,1,0.6c0.6,0.6,1,1.4,1,2.5v5.7H449.4z"/>
	<path class="st8" d="M460.6,241.9c0,0.7-0.1,1.3-0.2,1.9c-0.1,0.6-0.4,1.1-0.9,1.6c-0.3,0.3-0.7,0.6-1.1,0.7s-0.9,0.3-1.4,0.3
		s-1-0.1-1.4-0.3c-0.4-0.2-0.8-0.4-1.1-0.7c-0.2-0.2-0.4-0.5-0.5-0.7c-0.1-0.3-0.2-0.6-0.3-0.8s-0.1-0.6-0.2-0.9c0-0.3,0-0.7,0-1
		c0-0.7,0.1-1.3,0.2-1.9c0.1-0.6,0.4-1.1,0.9-1.6c0.3-0.3,0.7-0.6,1.1-0.7c0.4-0.2,0.9-0.3,1.4-0.3s1,0.1,1.4,0.3
		c0.4,0.2,0.8,0.4,1.1,0.7c0.5,0.5,0.7,1,0.9,1.6C460.5,240.6,460.6,241.2,460.6,241.9z M459.3,241.9c0-0.5,0-1-0.1-1.5
		c-0.1-0.5-0.3-0.9-0.6-1.2c-0.4-0.4-1-0.6-1.6-0.6c-0.6,0-1.2,0.2-1.6,0.6c-0.3,0.3-0.5,0.7-0.6,1.2s-0.1,1-0.1,1.5
		c0,0.3,0,0.5,0,0.8c0,0.3,0,0.5,0.1,0.7c0,0.2,0.1,0.5,0.2,0.7c0.1,0.2,0.2,0.4,0.4,0.6c0.4,0.4,1,0.6,1.6,0.6
		c0.6,0,1.2-0.2,1.6-0.6c0.3-0.3,0.5-0.7,0.6-1.2C459.3,242.9,459.3,242.4,459.3,241.9z"/>
	<path class="st8" d="M465.8,246.3c-0.4,0-0.7-0.1-1-0.2c-0.3-0.1-0.5-0.3-0.7-0.5s-0.3-0.5-0.4-0.8c-0.1-0.3-0.1-0.6-0.1-0.9v-5.5
		h-1.1v-1h1.1v-2.7h1.3v2.7h1.9v1h-1.9v5.5c0,0.4,0.1,0.7,0.3,1c0.2,0.2,0.5,0.3,0.9,0.3h0.7v1.1H465.8z"/>
	<path class="st8" d="M471.8,246.3c-0.4,0-0.7-0.1-1-0.2c-0.3-0.1-0.5-0.3-0.7-0.5s-0.3-0.5-0.4-0.8c-0.1-0.3-0.1-0.6-0.1-0.9v-5.5
		h-1.1v-1h1.1v-2.7h1.3v2.7h1.9v1h-1.9v5.5c0,0.4,0.1,0.7,0.3,1c0.2,0.2,0.5,0.3,0.9,0.3h0.7v1.1H471.8z"/>
	<path class="st8" d="M480.2,246.3v-0.8c-0.3,0.3-0.7,0.6-1.1,0.7c-0.4,0.1-0.9,0.2-1.5,0.2c-0.6,0-1.1-0.1-1.5-0.2
		c-0.4-0.1-0.7-0.3-1-0.6c-0.2-0.2-0.4-0.5-0.5-0.8s-0.2-0.7-0.2-1c0-0.8,0.3-1.4,0.8-1.9c0.5-0.5,1.3-0.7,2.3-0.7h2.6v-0.8
		c0-0.6-0.2-1.1-0.5-1.5c-0.3-0.3-0.9-0.5-1.8-0.5c-0.6,0-1,0.1-1.3,0.2c-0.3,0.2-0.6,0.4-0.9,0.8l-0.9-0.8c0.4-0.5,0.8-0.9,1.3-1.1
		c0.5-0.2,1.1-0.3,1.8-0.3c1.2,0,2.1,0.3,2.7,0.8c0.6,0.5,0.9,1.2,0.9,2.2v6H480.2z M480.2,242.3h-2.5c-1.3,0-2,0.5-2,1.6
		c0,0.5,0.2,0.9,0.5,1.1c0.3,0.2,0.8,0.4,1.6,0.4c0.4,0,0.7,0,1-0.1c0.3-0.1,0.6-0.2,0.9-0.5c0.3-0.3,0.4-0.8,0.4-1.5V242.3z"/>
	<path class="st8" d="M487.2,246.3c-0.4,0-0.7-0.1-1-0.2c-0.3-0.1-0.5-0.3-0.7-0.5c-0.2-0.2-0.3-0.5-0.4-0.8
		c-0.1-0.3-0.1-0.6-0.1-0.9v-5.5h-1.1v-1h1.1v-2.7h1.3v2.7h1.9v1h-1.9v5.5c0,0.4,0.1,0.7,0.3,1c0.2,0.2,0.5,0.3,0.9,0.3h0.7v1.1
		H487.2z"/>
	<path class="st8" d="M493.1,246.3c-0.4,0-0.7-0.1-1-0.2c-0.3-0.1-0.5-0.3-0.7-0.5c-0.2-0.2-0.3-0.5-0.4-0.8
		c-0.1-0.3-0.1-0.6-0.1-0.9v-5.5h-1.1v-1h1.1v-2.7h1.3v2.7h1.9v1h-1.9v5.5c0,0.4,0.1,0.7,0.3,1c0.2,0.2,0.5,0.3,0.9,0.3h0.7v1.1
		H493.1z"/>
	<path class="st8" d="M501.9,242.3c0,1,0.2,1.7,0.7,2.3c0.4,0.5,1.1,0.8,2,0.8c0.5,0,0.9-0.1,1.3-0.2c0.3-0.2,0.7-0.4,1-0.8l0.9,0.8
		c-0.2,0.2-0.5,0.4-0.7,0.6c-0.2,0.2-0.5,0.3-0.7,0.4c-0.3,0.1-0.5,0.2-0.8,0.3c-0.3,0.1-0.6,0.1-1,0.1c-0.6,0-1.1-0.1-1.6-0.3
		c-0.5-0.2-0.9-0.5-1.2-0.8c-0.3-0.4-0.6-0.8-0.8-1.4c-0.2-0.6-0.3-1.2-0.3-2c0-1.5,0.3-2.6,1-3.4c0.6-0.8,1.5-1.2,2.7-1.2
		c1.2,0,2.1,0.4,2.7,1.1c0.6,0.8,0.9,1.8,0.9,3.2v0.6H501.9z M506.6,241.3c0-0.2,0-0.3,0-0.5c0-0.1,0-0.3,0-0.4c0-0.1,0-0.2-0.1-0.3
		c0-0.1-0.1-0.2-0.1-0.3c-0.2-0.4-0.5-0.7-0.8-1c-0.4-0.2-0.8-0.4-1.3-0.4c-0.5,0-0.9,0.1-1.3,0.4c-0.4,0.2-0.6,0.6-0.8,1
		c-0.1,0.1-0.1,0.2-0.1,0.3c0,0.1-0.1,0.2-0.1,0.3c0,0.1,0,0.2,0,0.4c0,0.1,0,0.3,0,0.5H506.6z"/>
	<path class="st8" d="M516.3,246.3v-5.5c0-0.8-0.2-1.4-0.6-1.8c-0.4-0.4-0.9-0.6-1.6-0.6c-0.7,0-1.2,0.2-1.6,0.6
		c-0.4,0.4-0.6,1-0.6,1.8v5.5h-1.3v-8.9h1.3v1c0.3-0.4,0.7-0.6,1.1-0.8c0.4-0.2,0.9-0.3,1.4-0.3c1,0,1.7,0.3,2.3,0.8
		c0.6,0.6,0.9,1.4,0.9,2.5v5.7H516.3z"/>
	<path class="st8" d="M528.2,246.3h-1.2l-3.2-8.9h1.4l2.4,7.1l2.4-7.1h1.4L528.2,246.3z"/>
	<path class="st8" d="M533.2,235v-1.5h1.5v1.5H533.2z M533.3,246.3v-8.9h1.3v8.9H533.3z"/>
	<path class="st8" d="M543.7,246.3l-2.8-4.5l-1.7,2v2.6h-1.3v-12.8h1.3v8.6l4-4.6h1.6l-3,3.4l3.5,5.5H543.7z"/>
	<path class="st8" d="M550,246.3c-0.4,0-0.7-0.1-1-0.2c-0.3-0.1-0.5-0.3-0.7-0.5c-0.2-0.2-0.3-0.5-0.4-0.8c-0.1-0.3-0.1-0.6-0.1-0.9
		v-5.5h-1.1v-1h1.1v-2.7h1.3v2.7h1.9v1H549v5.5c0,0.4,0.1,0.7,0.3,1c0.2,0.2,0.5,0.3,0.9,0.3h0.7v1.1H550z"/>
	<path class="st8" d="M553.4,235v-1.5h1.5v1.5H553.4z M553.5,246.3v-8.9h1.3v8.9H553.5z"/>
	<path class="st8" d="M564.5,246.6c0,0.6-0.1,1.1-0.3,1.5c-0.2,0.5-0.4,0.9-0.7,1.2c-0.3,0.3-0.7,0.6-1.2,0.8
		c-0.5,0.2-1,0.3-1.6,0.3c-0.3,0-0.6,0-0.9-0.1c-0.3,0-0.5-0.1-0.7-0.2c-0.2-0.1-0.5-0.2-0.7-0.4c-0.2-0.1-0.4-0.3-0.7-0.5l0.8-0.8
		c0.2,0.1,0.3,0.3,0.5,0.4c0.2,0.1,0.3,0.2,0.5,0.3c0.2,0.1,0.3,0.1,0.5,0.2c0.2,0,0.4,0.1,0.7,0.1c0.4,0,0.8-0.1,1.1-0.2
		c0.3-0.1,0.6-0.3,0.8-0.6s0.3-0.5,0.4-0.9c0.1-0.3,0.1-0.7,0.1-1.1v-1.4c-0.4,0.5-0.7,0.8-1.2,0.9s-0.9,0.2-1.3,0.2
		c-0.5,0-0.9-0.1-1.2-0.2c-0.4-0.1-0.7-0.3-0.9-0.6c-0.4-0.4-0.7-1-0.9-1.6c-0.1-0.6-0.2-1.3-0.2-2.1s0.1-1.4,0.2-2.1
		c0.1-0.6,0.4-1.2,0.9-1.6c0.2-0.2,0.5-0.4,0.9-0.6c0.4-0.1,0.8-0.2,1.2-0.2c0.5,0,0.9,0.1,1.3,0.2c0.4,0.2,0.8,0.5,1.1,0.9v-1h1.3
		V246.6z M563.2,241.8c0-0.4,0-0.8-0.1-1.2s-0.2-0.8-0.3-1.1c-0.2-0.3-0.4-0.6-0.7-0.7c-0.3-0.2-0.7-0.3-1.2-0.3
		c-0.5,0-0.9,0.1-1.2,0.3c-0.3,0.2-0.5,0.4-0.7,0.7c-0.2,0.3-0.3,0.7-0.3,1.1s-0.1,0.8-0.1,1.2c0,0.4,0,0.8,0.1,1.2
		c0,0.4,0.2,0.7,0.3,1.1c0.2,0.3,0.4,0.6,0.7,0.7c0.3,0.2,0.7,0.3,1.2,0.3c0.5,0,0.9-0.1,1.2-0.3c0.3-0.2,0.5-0.4,0.7-0.7
		c0.2-0.3,0.3-0.7,0.3-1.1C563.2,242.7,563.2,242.3,563.2,241.8z"/>
</g>
<g class="st5">
	<path class="st8" d="M391,273.3v-5.5c0-0.8-0.2-1.4-0.6-1.8c-0.4-0.4-0.9-0.6-1.6-0.6c-0.6,0-1.2,0.2-1.6,0.6
		c-0.4,0.4-0.6,0.9-0.6,1.6v5.6h-1.3v-5.5c0-0.8-0.2-1.4-0.6-1.8c-0.4-0.4-0.9-0.6-1.6-0.6s-1.2,0.2-1.6,0.6c-0.4,0.4-0.6,1-0.6,1.8
		v5.5h-1.3v-8.9h1.3v1c0.3-0.4,0.7-0.6,1.1-0.8c0.4-0.2,0.9-0.3,1.4-0.3c0.6,0,1.1,0.1,1.6,0.4s0.8,0.6,1.1,1.1
		c0.7-1,1.7-1.5,2.9-1.5c0.5,0,0.9,0.1,1.3,0.2c0.4,0.1,0.7,0.3,1,0.6c0.6,0.6,1,1.4,1,2.5v5.7H391z"/>
	<path class="st8" d="M396.3,269.3c0,1,0.2,1.7,0.7,2.3c0.4,0.5,1.1,0.8,2,0.8c0.5,0,0.9-0.1,1.3-0.2c0.3-0.2,0.7-0.4,1-0.8l0.9,0.8
		c-0.2,0.2-0.5,0.4-0.7,0.6s-0.5,0.3-0.7,0.4c-0.3,0.1-0.5,0.2-0.8,0.3c-0.3,0.1-0.6,0.1-1,0.1c-0.6,0-1.1-0.1-1.6-0.3
		s-0.9-0.5-1.2-0.8c-0.3-0.4-0.6-0.8-0.8-1.4c-0.2-0.6-0.3-1.2-0.3-2c0-1.5,0.3-2.6,1-3.4s1.5-1.2,2.7-1.2c1.2,0,2.1,0.4,2.7,1.1
		c0.6,0.8,0.9,1.8,0.9,3.2v0.6H396.3z M401,268.3c0-0.2,0-0.3,0-0.5c0-0.1,0-0.3,0-0.4c0-0.1,0-0.2-0.1-0.3c0-0.1-0.1-0.2-0.1-0.3
		c-0.2-0.4-0.5-0.7-0.8-1s-0.8-0.4-1.3-0.4s-0.9,0.1-1.3,0.4s-0.6,0.6-0.8,1c-0.1,0.1-0.1,0.2-0.1,0.3c0,0.1-0.1,0.2-0.1,0.3
		c0,0.1,0,0.2,0,0.4c0,0.1,0,0.3,0,0.5H401z"/>
	<path class="st8" d="M407.2,273.3c-0.8,0-1.4-0.2-1.7-0.7s-0.5-1-0.5-1.7v-10.5h1.3v10.4c0,0.4,0.1,0.8,0.3,1
		c0.2,0.2,0.5,0.3,0.9,0.3h0.7v1.1H407.2z"/>
	<path class="st8" d="M415.4,273.3v-1.1c-0.4,0.5-0.8,0.8-1.2,0.9c-0.4,0.2-0.9,0.2-1.4,0.2c-0.5,0-0.9-0.1-1.2-0.2
		s-0.7-0.3-0.9-0.6c-0.4-0.5-0.7-1-0.9-1.7c-0.1-0.7-0.2-1.4-0.2-2.1c0-0.4,0-0.7,0-1.1c0-0.4,0.1-0.7,0.2-1
		c0.1-0.3,0.2-0.6,0.3-0.9c0.1-0.3,0.3-0.5,0.5-0.8c0.2-0.2,0.5-0.4,0.9-0.6s0.8-0.2,1.2-0.2c0.5,0,1,0.1,1.4,0.2
		c0.4,0.2,0.8,0.5,1.2,0.9v-5h1.3v12.8H415.4z M415.4,268.9c0-0.4,0-0.9-0.1-1.3c0-0.4-0.1-0.8-0.3-1.1c-0.2-0.3-0.4-0.6-0.7-0.8
		c-0.3-0.2-0.7-0.3-1.2-0.3c-0.5,0-0.9,0.1-1.2,0.3c-0.3,0.2-0.5,0.4-0.7,0.8c-0.2,0.3-0.3,0.7-0.3,1.1c0,0.4-0.1,0.8-0.1,1.3
		c0,0.4,0,0.9,0.1,1.3c0,0.4,0.2,0.8,0.3,1.1s0.4,0.6,0.7,0.8c0.3,0.2,0.7,0.3,1.2,0.3c0.5,0,0.9-0.1,1.2-0.3
		c0.3-0.2,0.5-0.4,0.7-0.8c0.2-0.3,0.3-0.7,0.3-1.1S415.4,269.3,415.4,268.9z"/>
	<path class="st8" d="M419.9,262v-1.5h1.5v1.5H419.9z M419.9,273.3v-8.9h1.3v8.9H419.9z"/>
	<path class="st8" d="M430.1,273.3v-5.5c0-0.8-0.2-1.4-0.6-1.8c-0.4-0.4-0.9-0.6-1.6-0.6s-1.2,0.2-1.6,0.6c-0.4,0.4-0.6,1-0.6,1.8
		v5.5h-1.3v-8.9h1.3v1c0.3-0.4,0.7-0.6,1.1-0.8c0.4-0.2,0.9-0.3,1.4-0.3c1,0,1.7,0.3,2.3,0.8c0.6,0.6,0.9,1.4,0.9,2.5v5.7H430.1z"/>
	<path class="st8" d="M441.1,273.6c0,0.6-0.1,1.1-0.3,1.5s-0.4,0.9-0.7,1.2c-0.3,0.3-0.7,0.6-1.2,0.8c-0.5,0.2-1,0.3-1.6,0.3
		c-0.3,0-0.6,0-0.9-0.1c-0.3,0-0.5-0.1-0.7-0.2s-0.5-0.2-0.7-0.4c-0.2-0.1-0.4-0.3-0.7-0.5l0.8-0.8c0.2,0.1,0.3,0.3,0.5,0.4
		c0.1,0.1,0.3,0.2,0.5,0.3s0.3,0.1,0.5,0.2c0.2,0,0.4,0.1,0.7,0.1c0.4,0,0.8-0.1,1.1-0.2c0.3-0.1,0.6-0.3,0.8-0.6
		c0.2-0.2,0.3-0.5,0.4-0.9c0.1-0.3,0.1-0.7,0.1-1.1v-1.4c-0.4,0.5-0.7,0.8-1.2,0.9c-0.4,0.2-0.9,0.2-1.3,0.2c-0.5,0-0.9-0.1-1.2-0.2
		c-0.4-0.1-0.7-0.3-0.9-0.6c-0.4-0.4-0.7-1-0.9-1.6c-0.1-0.6-0.2-1.3-0.2-2.1s0.1-1.4,0.2-2.1c0.1-0.6,0.4-1.2,0.9-1.6
		c0.2-0.2,0.5-0.4,0.9-0.6s0.8-0.2,1.2-0.2c0.5,0,0.9,0.1,1.3,0.2c0.4,0.2,0.8,0.5,1.1,0.9v-1h1.3V273.6z M439.8,268.8
		c0-0.4,0-0.8-0.1-1.2c0-0.4-0.2-0.8-0.3-1.1c-0.2-0.3-0.4-0.6-0.7-0.7c-0.3-0.2-0.7-0.3-1.2-0.3c-0.5,0-0.9,0.1-1.2,0.3
		c-0.3,0.2-0.5,0.4-0.7,0.7c-0.2,0.3-0.3,0.7-0.3,1.1c0,0.4-0.1,0.8-0.1,1.2c0,0.4,0,0.8,0.1,1.2c0,0.4,0.1,0.7,0.3,1.1
		c0.2,0.3,0.4,0.6,0.7,0.7c0.3,0.2,0.7,0.3,1.2,0.3c0.5,0,0.9-0.1,1.2-0.3c0.3-0.2,0.5-0.4,0.7-0.7c0.2-0.3,0.3-0.7,0.3-1.1
		C439.8,269.7,439.8,269.3,439.8,268.8z"/>
	<path class="st8" d="M455.6,268.9c0,0.7-0.1,1.3-0.2,1.9c-0.1,0.6-0.4,1.1-0.9,1.6c-0.3,0.3-0.7,0.6-1.1,0.7s-0.9,0.3-1.4,0.3
		s-1-0.1-1.4-0.3c-0.4-0.2-0.8-0.4-1.1-0.7c-0.2-0.2-0.4-0.5-0.5-0.7c-0.1-0.3-0.2-0.6-0.3-0.8s-0.1-0.6-0.2-0.9c0-0.3,0-0.7,0-1
		c0-0.7,0.1-1.3,0.2-1.9c0.1-0.6,0.4-1.1,0.9-1.6c0.3-0.3,0.7-0.6,1.1-0.7c0.4-0.2,0.9-0.3,1.4-0.3s1,0.1,1.4,0.3
		c0.4,0.2,0.8,0.4,1.1,0.7c0.5,0.5,0.7,1,0.9,1.6C455.5,267.6,455.6,268.2,455.6,268.9z M454.3,268.9c0-0.5,0-1-0.1-1.5
		c-0.1-0.5-0.3-0.9-0.6-1.2c-0.4-0.4-1-0.6-1.6-0.6c-0.6,0-1.2,0.2-1.6,0.6c-0.3,0.3-0.5,0.7-0.6,1.2s-0.1,1-0.1,1.5
		c0,0.3,0,0.5,0,0.8c0,0.3,0,0.5,0.1,0.7c0,0.2,0.1,0.5,0.2,0.7c0.1,0.2,0.2,0.4,0.4,0.6c0.4,0.4,1,0.6,1.6,0.6
		c0.6,0,1.2-0.2,1.6-0.6c0.3-0.3,0.5-0.7,0.6-1.2C454.3,269.9,454.3,269.4,454.3,268.9z"/>
	<path class="st8" d="M469.8,273.3v-5.5c0-0.8-0.2-1.4-0.6-1.8c-0.4-0.4-0.9-0.6-1.6-0.6c-0.6,0-1.2,0.2-1.6,0.6
		c-0.4,0.4-0.6,0.9-0.6,1.6v5.6h-1.3v-5.5c0-0.8-0.2-1.4-0.6-1.8c-0.4-0.4-0.9-0.6-1.6-0.6s-1.2,0.2-1.6,0.6c-0.4,0.4-0.6,1-0.6,1.8
		v5.5h-1.3v-8.9h1.3v1c0.3-0.4,0.7-0.6,1.1-0.8c0.4-0.2,0.9-0.3,1.4-0.3c0.6,0,1.1,0.1,1.6,0.4s0.8,0.6,1.1,1.1
		c0.7-1,1.7-1.5,2.9-1.5c0.5,0,0.9,0.1,1.3,0.2c0.4,0.1,0.7,0.3,1,0.6c0.6,0.6,1,1.4,1,2.5v5.7H469.8z"/>
	<path class="st8" d="M480.3,265.5v7.9H479v-7.9h-1.1v-1h1.1v-1.6c0-0.3,0-0.6,0.1-0.9c0.1-0.3,0.2-0.5,0.4-0.8
		c0.2-0.2,0.4-0.4,0.7-0.5c0.3-0.1,0.6-0.2,1-0.2h0.9v1.1h-0.7c-0.4,0-0.7,0.1-0.9,0.3c-0.2,0.2-0.3,0.5-0.3,1v1.6h1.9v1H480.3z"/>
	<path class="st8" d="M490.8,268.9c0,0.7-0.1,1.3-0.2,1.9c-0.1,0.6-0.4,1.1-0.9,1.6c-0.3,0.3-0.7,0.6-1.1,0.7s-0.9,0.3-1.4,0.3
		c-0.5,0-1-0.1-1.4-0.3s-0.8-0.4-1.1-0.7c-0.2-0.2-0.4-0.5-0.5-0.7c-0.1-0.3-0.2-0.6-0.3-0.8c-0.1-0.3-0.1-0.6-0.2-0.9
		c0-0.3,0-0.7,0-1c0-0.7,0.1-1.3,0.2-1.9c0.1-0.6,0.4-1.1,0.9-1.6c0.3-0.3,0.7-0.6,1.1-0.7c0.4-0.2,0.9-0.3,1.4-0.3
		c0.5,0,1,0.1,1.4,0.3c0.4,0.2,0.8,0.4,1.1,0.7c0.5,0.5,0.8,1,0.9,1.6C490.8,267.6,490.8,268.2,490.8,268.9z M489.5,268.9
		c0-0.5,0-1-0.1-1.5c-0.1-0.5-0.3-0.9-0.6-1.2c-0.4-0.4-1-0.6-1.6-0.6c-0.6,0-1.2,0.2-1.6,0.6c-0.3,0.3-0.5,0.7-0.6,1.2
		c-0.1,0.5-0.1,1-0.1,1.5c0,0.3,0,0.5,0,0.8s0,0.5,0.1,0.7s0.1,0.5,0.2,0.7c0.1,0.2,0.2,0.4,0.4,0.6c0.4,0.4,1,0.6,1.6,0.6
		c0.6,0,1.2-0.2,1.6-0.6c0.3-0.3,0.5-0.7,0.6-1.2C489.5,269.9,489.5,269.4,489.5,268.9z"/>
	<path class="st8" d="M498.5,266.2c-0.2-0.2-0.5-0.4-0.7-0.5s-0.5-0.1-0.8-0.1c-0.3,0-0.6,0.1-0.9,0.2c-0.3,0.1-0.5,0.3-0.7,0.5
		c-0.2,0.2-0.3,0.5-0.4,0.8c-0.1,0.3-0.2,0.6-0.2,0.9v5.4h-1.3v-8.9h1.3v1.1c0.2-0.4,0.6-0.7,1-0.9c0.5-0.2,0.9-0.3,1.4-0.3
		c0.4,0,0.8,0.1,1.1,0.2s0.7,0.3,1,0.6L498.5,266.2z"/>
	<path class="st8" d="M501.4,269.3c0,1,0.2,1.7,0.7,2.3c0.4,0.5,1.1,0.8,2,0.8c0.5,0,0.9-0.1,1.3-0.2c0.3-0.2,0.7-0.4,1-0.8l0.9,0.8
		c-0.2,0.2-0.5,0.4-0.7,0.6c-0.2,0.2-0.5,0.3-0.7,0.4c-0.3,0.1-0.5,0.2-0.8,0.3c-0.3,0.1-0.6,0.1-1,0.1c-0.6,0-1.1-0.1-1.6-0.3
		c-0.5-0.2-0.9-0.5-1.2-0.8c-0.3-0.4-0.6-0.8-0.8-1.4c-0.2-0.6-0.3-1.2-0.3-2c0-1.5,0.3-2.6,1-3.4c0.6-0.8,1.5-1.2,2.7-1.2
		c1.2,0,2.1,0.4,2.7,1.1c0.6,0.8,0.9,1.8,0.9,3.2v0.6H501.4z M506.1,268.3c0-0.2,0-0.3,0-0.5c0-0.1,0-0.3,0-0.4c0-0.1,0-0.2-0.1-0.3
		c0-0.1-0.1-0.2-0.1-0.3c-0.2-0.4-0.5-0.7-0.8-1c-0.4-0.2-0.8-0.4-1.3-0.4c-0.5,0-0.9,0.1-1.3,0.4c-0.4,0.2-0.6,0.6-0.8,1
		c-0.1,0.1-0.1,0.2-0.1,0.3c0,0.1-0.1,0.2-0.1,0.3c0,0.1,0,0.2,0,0.4c0,0.1,0,0.3,0,0.5H506.1z"/>
	<path class="st8" d="M512.7,273.3c-0.4,0-0.7-0.1-1-0.2c-0.3-0.1-0.5-0.3-0.7-0.5c-0.2-0.2-0.3-0.5-0.4-0.8
		c-0.1-0.3-0.1-0.6-0.1-0.9v-5.5h-1.1v-1h1.1v-2.7h1.3v2.7h1.9v1h-1.9v5.5c0,0.4,0.1,0.7,0.3,1c0.2,0.2,0.5,0.3,0.9,0.3h0.7v1.1
		H512.7z"/>
	<path class="st8" d="M521.1,273.3v-0.8c-0.3,0.3-0.7,0.6-1.1,0.7c-0.4,0.1-0.9,0.2-1.5,0.2c-0.6,0-1.1-0.1-1.5-0.2
		c-0.4-0.1-0.7-0.3-1-0.6c-0.2-0.2-0.4-0.5-0.5-0.8s-0.2-0.7-0.2-1c0-0.8,0.3-1.4,0.8-1.9s1.3-0.7,2.3-0.7h2.6v-0.8
		c0-0.6-0.2-1.1-0.5-1.5c-0.3-0.3-0.9-0.5-1.8-0.5c-0.6,0-1,0.1-1.3,0.2c-0.3,0.2-0.6,0.4-0.9,0.8l-0.9-0.8c0.4-0.5,0.8-0.9,1.3-1.1
		c0.5-0.2,1.1-0.3,1.8-0.3c1.2,0,2.1,0.3,2.7,0.8c0.6,0.5,0.9,1.2,0.9,2.2v6H521.1z M521.1,269.3h-2.5c-1.3,0-2,0.5-2,1.6
		c0,0.5,0.2,0.9,0.5,1.1s0.8,0.4,1.6,0.4c0.4,0,0.7,0,1-0.1c0.3-0.1,0.6-0.2,0.9-0.5c0.3-0.3,0.4-0.8,0.4-1.5V269.3z"/>
	<path class="st8" d="M531.4,273.3l-2.8-4.5l-1.7,2v2.6h-1.3v-12.8h1.3v8.6l4-4.6h1.6l-3,3.4l3.5,5.5H531.4z"/>
	<path class="st8" d="M535.3,269.3c0,1,0.2,1.7,0.7,2.3c0.4,0.5,1.1,0.8,2,0.8c0.5,0,0.9-0.1,1.3-0.2c0.3-0.2,0.7-0.4,1-0.8l0.9,0.8
		c-0.2,0.2-0.5,0.4-0.7,0.6c-0.2,0.2-0.5,0.3-0.7,0.4c-0.3,0.1-0.5,0.2-0.8,0.3c-0.3,0.1-0.6,0.1-1,0.1c-0.6,0-1.1-0.1-1.6-0.3
		c-0.5-0.2-0.9-0.5-1.2-0.8c-0.3-0.4-0.6-0.8-0.8-1.4c-0.2-0.6-0.3-1.2-0.3-2c0-1.5,0.3-2.6,1-3.4c0.6-0.8,1.5-1.2,2.7-1.2
		c1.2,0,2.1,0.4,2.7,1.1c0.6,0.8,0.9,1.8,0.9,3.2v0.6H535.3z M540,268.3c0-0.2,0-0.3,0-0.5c0-0.1,0-0.3,0-0.4c0-0.1,0-0.2-0.1-0.3
		c0-0.1-0.1-0.2-0.1-0.3c-0.2-0.4-0.5-0.7-0.8-1c-0.4-0.2-0.8-0.4-1.3-0.4c-0.5,0-0.9,0.1-1.3,0.4c-0.4,0.2-0.6,0.6-0.8,1
		c-0.1,0.1-0.1,0.2-0.1,0.3c0,0.1-0.1,0.2-0.1,0.3c0,0.1,0,0.2,0,0.4c0,0.1,0,0.3,0,0.5H540z"/>
	<path class="st8" d="M546.5,273.3c-0.4,0-0.7-0.1-1-0.2c-0.3-0.1-0.5-0.3-0.7-0.5c-0.2-0.2-0.3-0.5-0.4-0.8
		c-0.1-0.3-0.1-0.6-0.1-0.9v-5.5h-1.1v-1h1.1v-2.7h1.3v2.7h1.9v1h-1.9v5.5c0,0.4,0.1,0.7,0.3,1c0.2,0.2,0.5,0.3,0.9,0.3h0.7v1.1
		H546.5z"/>
</g>
<g class="st5">
	<path class="st8" d="M384.9,300.3v-1.1c-0.4,0.5-0.8,0.8-1.2,0.9c-0.4,0.2-0.9,0.2-1.4,0.2c-0.5,0-0.9-0.1-1.2-0.2
		s-0.7-0.3-0.9-0.6c-0.4-0.5-0.7-1-0.9-1.7c-0.1-0.7-0.2-1.4-0.2-2.1c0-0.4,0-0.7,0-1.1c0-0.4,0.1-0.7,0.2-1
		c0.1-0.3,0.2-0.6,0.3-0.9c0.1-0.3,0.3-0.5,0.5-0.8c0.2-0.2,0.5-0.4,0.9-0.6s0.8-0.2,1.2-0.2c0.5,0,1,0.1,1.4,0.2
		c0.4,0.2,0.8,0.5,1.2,0.9v-5h1.3v12.8H384.9z M384.9,295.9c0-0.4,0-0.9-0.1-1.3c0-0.4-0.1-0.8-0.3-1.1c-0.2-0.3-0.4-0.6-0.7-0.8
		c-0.3-0.2-0.7-0.3-1.2-0.3c-0.5,0-0.9,0.1-1.2,0.3c-0.3,0.2-0.5,0.4-0.7,0.8c-0.2,0.3-0.3,0.7-0.3,1.1c0,0.4-0.1,0.8-0.1,1.3
		c0,0.4,0,0.9,0.1,1.3c0,0.4,0.2,0.8,0.3,1.1s0.4,0.6,0.7,0.8c0.3,0.2,0.7,0.3,1.2,0.3c0.5,0,0.9-0.1,1.2-0.3
		c0.3-0.2,0.5-0.4,0.7-0.8c0.2-0.3,0.3-0.7,0.3-1.1S384.9,296.3,384.9,295.9z"/>
	<path class="st8" d="M389.4,289v-1.5h1.5v1.5H389.4z M389.5,300.3v-8.9h1.3v8.9H389.5z"/>
	<path class="st8" d="M396.5,300.3c-0.4,0-0.7-0.1-1-0.2c-0.3-0.1-0.5-0.3-0.7-0.5s-0.3-0.5-0.4-0.8c-0.1-0.3-0.1-0.6-0.1-0.9v-5.5
		h-1.1v-1h1.1v-2.7h1.3v2.7h1.9v1h-1.9v5.5c0,0.4,0.1,0.7,0.3,1c0.2,0.2,0.5,0.3,0.9,0.3h0.7v1.1H396.5z"/>
	<path class="st8" d="M402.4,300.3c-0.4,0-0.7-0.1-1-0.2c-0.3-0.1-0.5-0.3-0.7-0.5s-0.3-0.5-0.4-0.8c-0.1-0.3-0.1-0.6-0.1-0.9v-5.5
		h-1.1v-1h1.1v-2.7h1.3v2.7h1.9v1h-1.9v5.5c0,0.4,0.1,0.7,0.3,1c0.2,0.2,0.5,0.3,0.9,0.3h0.7v1.1H402.4z"/>
	<path class="st8" d="M405.9,300.3v-1.7h1.7v1.7H405.9z"/>
	<path class="st8" d="M415.5,300.3v-12.8h1.4v11.6h6.6v1.2H415.5z"/>
	<path class="st8" d="M432.4,295.9c0,0.7-0.1,1.3-0.2,1.9c-0.1,0.6-0.4,1.1-0.9,1.6c-0.3,0.3-0.7,0.6-1.1,0.7s-0.9,0.3-1.4,0.3
		s-1-0.1-1.4-0.3c-0.4-0.2-0.8-0.4-1.1-0.7c-0.2-0.2-0.4-0.5-0.5-0.7c-0.1-0.3-0.2-0.6-0.3-0.8s-0.1-0.6-0.2-0.9c0-0.3,0-0.7,0-1
		c0-0.7,0.1-1.3,0.2-1.9c0.1-0.6,0.4-1.1,0.9-1.6c0.3-0.3,0.7-0.6,1.1-0.7c0.4-0.2,0.9-0.3,1.4-0.3s1,0.1,1.4,0.3
		c0.4,0.2,0.8,0.4,1.1,0.7c0.5,0.5,0.7,1,0.9,1.6C432.3,294.6,432.4,295.2,432.4,295.9z M431.1,295.9c0-0.5,0-1-0.1-1.5
		c-0.1-0.5-0.3-0.9-0.6-1.2c-0.4-0.4-1-0.6-1.6-0.6c-0.6,0-1.2,0.2-1.6,0.6c-0.3,0.3-0.5,0.7-0.6,1.2s-0.1,1-0.1,1.5
		c0,0.3,0,0.5,0,0.8c0,0.3,0,0.5,0.1,0.7c0,0.2,0.1,0.5,0.2,0.7c0.1,0.2,0.2,0.4,0.4,0.6c0.4,0.4,1,0.6,1.6,0.6
		c0.6,0,1.2-0.2,1.6-0.6c0.3-0.3,0.5-0.7,0.6-1.2C431,296.9,431.1,296.4,431.1,295.9z"/>
	<path class="st8" d="M441.7,300.6c0,0.6-0.1,1.1-0.3,1.5s-0.4,0.9-0.7,1.2c-0.3,0.3-0.7,0.6-1.2,0.8c-0.5,0.2-1,0.3-1.6,0.3
		c-0.3,0-0.6,0-0.9-0.1c-0.3,0-0.5-0.1-0.7-0.2s-0.5-0.2-0.7-0.4c-0.2-0.1-0.4-0.3-0.7-0.5l0.8-0.8c0.2,0.1,0.3,0.3,0.5,0.4
		c0.1,0.1,0.3,0.2,0.5,0.3s0.3,0.1,0.5,0.2c0.2,0,0.4,0.1,0.7,0.1c0.4,0,0.8-0.1,1.1-0.2c0.3-0.1,0.6-0.3,0.8-0.6
		c0.2-0.2,0.3-0.5,0.4-0.9c0.1-0.3,0.1-0.7,0.1-1.1v-1.4c-0.4,0.5-0.7,0.8-1.2,0.9c-0.4,0.2-0.9,0.2-1.3,0.2c-0.5,0-0.9-0.1-1.2-0.2
		c-0.4-0.1-0.7-0.3-0.9-0.6c-0.4-0.4-0.7-1-0.9-1.6c-0.1-0.6-0.2-1.3-0.2-2.1s0.1-1.4,0.2-2.1c0.1-0.6,0.4-1.2,0.9-1.6
		c0.2-0.2,0.5-0.4,0.9-0.6s0.8-0.2,1.2-0.2c0.5,0,0.9,0.1,1.3,0.2c0.4,0.2,0.8,0.5,1.1,0.9v-1h1.3V300.6z M440.4,295.8
		c0-0.4,0-0.8-0.1-1.2c0-0.4-0.2-0.8-0.3-1.1c-0.2-0.3-0.4-0.6-0.7-0.7c-0.3-0.2-0.7-0.3-1.2-0.3c-0.5,0-0.9,0.1-1.2,0.3
		c-0.3,0.2-0.5,0.4-0.7,0.7c-0.2,0.3-0.3,0.7-0.3,1.1c0,0.4-0.1,0.8-0.1,1.2c0,0.4,0,0.8,0.1,1.2c0,0.4,0.1,0.7,0.3,1.1
		c0.2,0.3,0.4,0.6,0.7,0.7c0.3,0.2,0.7,0.3,1.2,0.3c0.5,0,0.9-0.1,1.2-0.3c0.3-0.2,0.5-0.4,0.7-0.7c0.2-0.3,0.3-0.7,0.3-1.1
		C440.3,296.7,440.4,296.3,440.4,295.8z"/>
	<path class="st8" d="M451.4,300.6c0,0.6-0.1,1.1-0.3,1.5s-0.4,0.9-0.7,1.2c-0.3,0.3-0.7,0.6-1.2,0.8c-0.5,0.2-1,0.3-1.6,0.3
		c-0.3,0-0.6,0-0.9-0.1c-0.3,0-0.5-0.1-0.7-0.2s-0.5-0.2-0.7-0.4c-0.2-0.1-0.4-0.3-0.7-0.5l0.8-0.8c0.2,0.1,0.3,0.3,0.5,0.4
		c0.1,0.1,0.3,0.2,0.5,0.3s0.3,0.1,0.5,0.2c0.2,0,0.4,0.1,0.7,0.1c0.4,0,0.8-0.1,1.1-0.2c0.3-0.1,0.6-0.3,0.8-0.6
		c0.2-0.2,0.3-0.5,0.4-0.9c0.1-0.3,0.1-0.7,0.1-1.1v-1.4c-0.4,0.5-0.7,0.8-1.2,0.9c-0.4,0.2-0.9,0.2-1.3,0.2c-0.5,0-0.9-0.1-1.2-0.2
		c-0.4-0.1-0.7-0.3-0.9-0.6c-0.4-0.4-0.7-1-0.9-1.6c-0.1-0.6-0.2-1.3-0.2-2.1s0.1-1.4,0.2-2.1c0.1-0.6,0.4-1.2,0.9-1.6
		c0.2-0.2,0.5-0.4,0.9-0.6s0.8-0.2,1.2-0.2c0.5,0,0.9,0.1,1.3,0.2c0.4,0.2,0.8,0.5,1.1,0.9v-1h1.3V300.6z M450.1,295.8
		c0-0.4,0-0.8-0.1-1.2c0-0.4-0.2-0.8-0.3-1.1c-0.2-0.3-0.4-0.6-0.7-0.7c-0.3-0.2-0.7-0.3-1.2-0.3c-0.5,0-0.9,0.1-1.2,0.3
		c-0.3,0.2-0.5,0.4-0.7,0.7c-0.2,0.3-0.3,0.7-0.3,1.1c0,0.4-0.1,0.8-0.1,1.2c0,0.4,0,0.8,0.1,1.2c0,0.4,0.1,0.7,0.3,1.1
		c0.2,0.3,0.4,0.6,0.7,0.7c0.3,0.2,0.7,0.3,1.2,0.3c0.5,0,0.9-0.1,1.2-0.3c0.3-0.2,0.5-0.4,0.7-0.7c0.2-0.3,0.3-0.7,0.3-1.1
		C450.1,296.7,450.1,296.3,450.1,295.8z"/>
	<path class="st8" d="M459.1,289v-1.5h1.5v1.5H459.1z M459.2,300.3v-8.9h1.3v8.9H459.2z"/>
	<path class="st8" d="M469.4,300.3v-5.5c0-0.8-0.2-1.4-0.6-1.8c-0.4-0.4-0.9-0.6-1.6-0.6s-1.2,0.2-1.6,0.6c-0.4,0.4-0.6,1-0.6,1.8
		v5.5h-1.3v-8.9h1.3v1c0.3-0.4,0.7-0.6,1.1-0.8c0.4-0.2,0.9-0.3,1.4-0.3c1,0,1.7,0.3,2.3,0.8c0.6,0.6,0.9,1.4,0.9,2.5v5.7H469.4z"/>
	<path class="st8" d="M479.5,300.3v-5.5c0-0.8-0.2-1.4-0.6-1.8c-0.4-0.4-0.9-0.6-1.6-0.6s-1.2,0.2-1.6,0.6c-0.4,0.4-0.6,1-0.6,1.8
		v5.5h-1.3v-8.9h1.3v1c0.3-0.4,0.7-0.6,1.1-0.8c0.4-0.2,0.9-0.3,1.4-0.3c1,0,1.7,0.3,2.3,0.8c0.6,0.6,0.9,1.4,0.9,2.5v5.7H479.5z"/>
	<path class="st8" d="M495.2,295.9c0,0.7-0.1,1.3-0.2,1.9c-0.1,0.6-0.4,1.1-0.9,1.6c-0.3,0.3-0.7,0.6-1.1,0.7s-0.9,0.3-1.4,0.3
		c-0.5,0-1-0.1-1.4-0.3s-0.8-0.4-1.1-0.7c-0.2-0.2-0.4-0.5-0.5-0.7c-0.1-0.3-0.2-0.6-0.3-0.8c-0.1-0.3-0.1-0.6-0.2-0.9
		c0-0.3,0-0.7,0-1c0-0.7,0.1-1.3,0.2-1.9c0.1-0.6,0.4-1.1,0.9-1.6c0.3-0.3,0.7-0.6,1.1-0.7c0.4-0.2,0.9-0.3,1.4-0.3
		c0.5,0,1,0.1,1.4,0.3c0.4,0.2,0.8,0.4,1.1,0.7c0.5,0.5,0.8,1,0.9,1.6C495.1,294.6,495.2,295.2,495.2,295.9z M493.9,295.9
		c0-0.5,0-1-0.1-1.5c-0.1-0.5-0.3-0.9-0.6-1.2c-0.4-0.4-1-0.6-1.6-0.6c-0.6,0-1.2,0.2-1.6,0.6c-0.3,0.3-0.5,0.7-0.6,1.2
		c-0.1,0.5-0.1,1-0.1,1.5c0,0.3,0,0.5,0,0.8s0,0.5,0.1,0.7s0.1,0.5,0.2,0.7c0.1,0.2,0.2,0.4,0.4,0.6c0.4,0.4,1,0.6,1.6,0.6
		c0.6,0,1.2-0.2,1.6-0.6c0.3-0.3,0.5-0.7,0.6-1.2C493.9,296.9,493.9,296.4,493.9,295.9z"/>
	<path class="st8" d="M504.5,300.6c0,0.6-0.1,1.1-0.3,1.5c-0.2,0.5-0.4,0.9-0.7,1.2c-0.3,0.3-0.7,0.6-1.2,0.8
		c-0.5,0.2-1,0.3-1.6,0.3c-0.3,0-0.6,0-0.9-0.1c-0.3,0-0.5-0.1-0.7-0.2c-0.2-0.1-0.5-0.2-0.7-0.4c-0.2-0.1-0.4-0.3-0.7-0.5l0.8-0.8
		c0.2,0.1,0.3,0.3,0.5,0.4c0.2,0.1,0.3,0.2,0.5,0.3c0.2,0.1,0.3,0.1,0.5,0.2c0.2,0,0.4,0.1,0.7,0.1c0.4,0,0.8-0.1,1.1-0.2
		c0.3-0.1,0.6-0.3,0.8-0.6s0.3-0.5,0.4-0.9c0.1-0.3,0.1-0.7,0.1-1.1v-1.4c-0.4,0.5-0.7,0.8-1.2,0.9s-0.9,0.2-1.3,0.2
		c-0.5,0-0.9-0.1-1.2-0.2c-0.4-0.1-0.7-0.3-0.9-0.6c-0.4-0.4-0.7-1-0.9-1.6c-0.1-0.6-0.2-1.3-0.2-2.1s0.1-1.4,0.2-2.1
		c0.1-0.6,0.4-1.2,0.9-1.6c0.2-0.2,0.5-0.4,0.9-0.6c0.4-0.1,0.8-0.2,1.2-0.2c0.5,0,0.9,0.1,1.3,0.2c0.4,0.2,0.8,0.5,1.1,0.9v-1h1.3
		V300.6z M503.2,295.8c0-0.4,0-0.8-0.1-1.2s-0.2-0.8-0.3-1.1c-0.2-0.3-0.4-0.6-0.7-0.7c-0.3-0.2-0.7-0.3-1.2-0.3
		c-0.5,0-0.9,0.1-1.2,0.3c-0.3,0.2-0.5,0.4-0.7,0.7c-0.2,0.3-0.3,0.7-0.3,1.1s-0.1,0.8-0.1,1.2c0,0.4,0,0.8,0.1,1.2
		c0,0.4,0.2,0.7,0.3,1.1c0.2,0.3,0.4,0.6,0.7,0.7c0.3,0.2,0.7,0.3,1.2,0.3c0.5,0,0.9-0.1,1.2-0.3c0.3-0.2,0.5-0.4,0.7-0.7
		c0.2-0.3,0.3-0.7,0.3-1.1C503.2,296.7,503.2,296.3,503.2,295.8z"/>
	<path class="st8" d="M514.4,300.3c-0.8,0-1.3-0.2-1.7-0.7s-0.5-1-0.5-1.7v-10.5h1.3v10.4c0,0.4,0.1,0.8,0.3,1
		c0.2,0.2,0.5,0.3,0.9,0.3h0.7v1.1H514.4z"/>
	<path class="st8" d="M518.1,296.3c0,1,0.2,1.7,0.7,2.3c0.4,0.5,1.1,0.8,2,0.8c0.5,0,0.9-0.1,1.3-0.2c0.3-0.2,0.7-0.4,1-0.8l0.9,0.8
		c-0.2,0.2-0.5,0.4-0.7,0.6c-0.2,0.2-0.5,0.3-0.7,0.4c-0.3,0.1-0.5,0.2-0.8,0.3c-0.3,0.1-0.6,0.1-1,0.1c-0.6,0-1.1-0.1-1.6-0.3
		c-0.5-0.2-0.9-0.5-1.2-0.8c-0.3-0.4-0.6-0.8-0.8-1.4c-0.2-0.6-0.3-1.2-0.3-2c0-1.5,0.3-2.6,1-3.4c0.6-0.8,1.5-1.2,2.7-1.2
		c1.2,0,2.1,0.4,2.7,1.1c0.6,0.8,0.9,1.8,0.9,3.2v0.6H518.1z M522.8,295.3c0-0.2,0-0.3,0-0.5c0-0.1,0-0.3,0-0.4c0-0.1,0-0.2-0.1-0.3
		c0-0.1-0.1-0.2-0.1-0.3c-0.2-0.4-0.5-0.7-0.8-1c-0.4-0.2-0.8-0.4-1.3-0.4c-0.5,0-0.9,0.1-1.3,0.4c-0.4,0.2-0.6,0.6-0.8,1
		c-0.1,0.1-0.1,0.2-0.1,0.3c0,0.1-0.1,0.2-0.1,0.3c0,0.1,0,0.2,0,0.4c0,0.1,0,0.3,0,0.5H522.8z"/>
	<path class="st8" d="M533.3,297.8c0,0.9-0.3,1.5-1,2c-0.7,0.5-1.5,0.7-2.6,0.7c-0.8,0-1.4-0.1-2-0.3c-0.6-0.2-1.1-0.5-1.6-1
		l0.9-0.9c0.3,0.4,0.8,0.6,1.2,0.8c0.5,0.2,1,0.2,1.5,0.2c0.7,0,1.3-0.1,1.7-0.4c0.4-0.3,0.6-0.7,0.6-1.2c0-0.4-0.1-0.7-0.3-0.9
		c-0.2-0.2-0.6-0.3-1.1-0.4l-1.5-0.1c-0.9-0.1-1.5-0.3-2-0.7s-0.7-0.9-0.7-1.7c0-0.4,0.1-0.8,0.2-1.1s0.4-0.6,0.7-0.8
		c0.3-0.2,0.6-0.4,1-0.5c0.4-0.1,0.8-0.2,1.3-0.2c0.6,0,1.2,0.1,1.8,0.2c0.5,0.2,1,0.4,1.4,0.7l-0.8,0.8c-0.3-0.2-0.7-0.4-1.1-0.5
		c-0.4-0.1-0.8-0.2-1.3-0.2c-0.6,0-1.1,0.1-1.5,0.4c-0.3,0.3-0.5,0.6-0.5,1.1c0,0.4,0.1,0.7,0.4,0.9s0.7,0.3,1.2,0.4l1.4,0.1
		c0.4,0,0.7,0.1,1.1,0.2c0.3,0.1,0.6,0.2,0.8,0.4c0.2,0.2,0.4,0.4,0.5,0.7S533.3,297.3,533.3,297.8z"/>
	<path class="st8" d="M545.6,300.3v-1.1c-0.4,0.5-0.8,0.8-1.2,0.9s-0.9,0.2-1.4,0.2c-0.5,0-0.9-0.1-1.2-0.2
		c-0.4-0.1-0.7-0.3-0.9-0.6c-0.4-0.5-0.7-1-0.9-1.7c-0.1-0.7-0.2-1.4-0.2-2.1c0-0.4,0-0.7,0-1.1c0-0.4,0.1-0.7,0.2-1
		c0.1-0.3,0.2-0.6,0.3-0.9c0.1-0.3,0.3-0.5,0.5-0.8c0.2-0.2,0.5-0.4,0.9-0.6c0.4-0.1,0.8-0.2,1.2-0.2c0.5,0,1,0.1,1.4,0.2
		c0.4,0.2,0.8,0.5,1.2,0.9v-5h1.3v12.8H545.6z M545.5,295.9c0-0.4,0-0.9-0.1-1.3c0-0.4-0.2-0.8-0.3-1.1c-0.2-0.3-0.4-0.6-0.7-0.8
		c-0.3-0.2-0.7-0.3-1.2-0.3c-0.5,0-0.9,0.1-1.2,0.3c-0.3,0.2-0.5,0.4-0.7,0.8c-0.2,0.3-0.3,0.7-0.3,1.1c0,0.4-0.1,0.8-0.1,1.3
		c0,0.4,0,0.9,0.1,1.3s0.2,0.8,0.3,1.1s0.4,0.6,0.7,0.8c0.3,0.2,0.7,0.3,1.2,0.3c0.5,0,0.9-0.1,1.2-0.3c0.3-0.2,0.5-0.4,0.7-0.8
		c0.2-0.3,0.3-0.7,0.3-1.1C545.5,296.8,545.5,296.3,545.5,295.9z"/>
	<path class="st8" d="M550.9,296.3c0,1,0.2,1.7,0.7,2.3c0.4,0.5,1.1,0.8,2,0.8c0.5,0,0.9-0.1,1.3-0.2c0.3-0.2,0.7-0.4,1-0.8l0.9,0.8
		c-0.2,0.2-0.5,0.4-0.7,0.6c-0.2,0.2-0.5,0.3-0.7,0.4c-0.3,0.1-0.5,0.2-0.8,0.3c-0.3,0.1-0.6,0.1-1,0.1c-0.6,0-1.1-0.1-1.6-0.3
		c-0.5-0.2-0.9-0.5-1.2-0.8c-0.3-0.4-0.6-0.8-0.8-1.4c-0.2-0.6-0.3-1.2-0.3-2c0-1.5,0.3-2.6,1-3.4c0.6-0.8,1.5-1.2,2.7-1.2
		c1.2,0,2.1,0.4,2.7,1.1c0.6,0.8,0.9,1.8,0.9,3.2v0.6H550.9z M555.6,295.3c0-0.2,0-0.3,0-0.5c0-0.1,0-0.3,0-0.4c0-0.1,0-0.2-0.1-0.3
		c0-0.1-0.1-0.2-0.1-0.3c-0.2-0.4-0.5-0.7-0.8-1c-0.4-0.2-0.8-0.4-1.3-0.4c-0.5,0-0.9,0.1-1.3,0.4c-0.4,0.2-0.6,0.6-0.8,1
		c-0.1,0.1-0.1,0.2-0.1,0.3c0,0.1-0.1,0.2-0.1,0.3c0,0.1,0,0.2,0,0.4c0,0.1,0,0.3,0,0.5H555.6z"/>
	<path class="st8" d="M565.3,300.3v-5.5c0-0.8-0.2-1.4-0.6-1.8c-0.4-0.4-0.9-0.6-1.6-0.6c-0.7,0-1.2,0.2-1.6,0.6
		c-0.4,0.4-0.6,1-0.6,1.8v5.5h-1.3v-8.9h1.3v1c0.3-0.4,0.7-0.6,1.1-0.8c0.4-0.2,0.9-0.3,1.4-0.3c1,0,1.7,0.3,2.3,0.8
		c0.6,0.6,0.9,1.4,0.9,2.5v5.7H565.3z"/>
</g>
<g class="st5">
	<path class="st8" d="M385.3,327.3v-5.5c0-0.8-0.2-1.4-0.6-1.8c-0.4-0.4-0.9-0.6-1.6-0.6s-1.2,0.2-1.6,0.6c-0.4,0.4-0.6,1-0.6,1.8
		v5.5h-1.3v-8.9h1.3v1c0.3-0.4,0.7-0.6,1.1-0.8c0.4-0.2,0.9-0.3,1.4-0.3c1,0,1.7,0.3,2.3,0.8c0.6,0.6,0.9,1.4,0.9,2.5v5.7H385.3z"/>
	<path class="st8" d="M394.8,327.3v-0.8c-0.3,0.3-0.7,0.6-1.1,0.7c-0.4,0.1-0.9,0.2-1.5,0.2c-0.6,0-1.1-0.1-1.5-0.2
		c-0.4-0.1-0.7-0.3-1-0.6c-0.2-0.2-0.4-0.5-0.5-0.8s-0.2-0.7-0.2-1c0-0.8,0.3-1.4,0.8-1.9c0.5-0.5,1.3-0.7,2.3-0.7h2.6v-0.8
		c0-0.6-0.2-1.1-0.5-1.5c-0.3-0.3-0.9-0.5-1.8-0.5c-0.6,0-1,0.1-1.3,0.2c-0.3,0.2-0.6,0.4-0.9,0.8l-0.9-0.8c0.4-0.5,0.8-0.9,1.3-1.1
		c0.5-0.2,1.1-0.3,1.8-0.3c1.2,0,2.1,0.3,2.7,0.8s0.9,1.2,0.9,2.2v6H394.8z M394.8,323.3h-2.5c-1.3,0-2,0.5-2,1.6
		c0,0.5,0.2,0.9,0.5,1.1c0.3,0.2,0.8,0.4,1.6,0.4c0.4,0,0.7,0,1-0.1c0.3-0.1,0.6-0.2,0.9-0.5c0.3-0.3,0.5-0.8,0.5-1.5V323.3z
		 M394.8,315c0,0.3-0.1,0.6-0.2,0.8c-0.1,0.3-0.3,0.5-0.5,0.7c-0.2,0.2-0.4,0.3-0.7,0.5c-0.3,0.1-0.5,0.2-0.8,0.2s-0.6-0.1-0.8-0.2
		c-0.3-0.1-0.5-0.3-0.7-0.5c-0.2-0.2-0.3-0.4-0.5-0.7c-0.1-0.3-0.2-0.5-0.2-0.8s0.1-0.6,0.2-0.8c0.1-0.3,0.3-0.5,0.5-0.7
		c0.2-0.2,0.4-0.3,0.7-0.5c0.3-0.1,0.5-0.2,0.8-0.2s0.6,0.1,0.8,0.2c0.3,0.1,0.5,0.3,0.7,0.5c0.2,0.2,0.3,0.4,0.5,0.7
		C394.7,314.4,394.8,314.7,394.8,315z M393.9,315c0-0.3-0.1-0.6-0.4-0.9c-0.2-0.2-0.5-0.4-0.9-0.4c-0.3,0-0.6,0.1-0.9,0.4
		c-0.2,0.2-0.4,0.5-0.4,0.9c0,0.3,0.1,0.6,0.4,0.9c0.2,0.2,0.5,0.4,0.9,0.4c0.3,0,0.6-0.1,0.9-0.4
		C393.8,315.6,393.9,315.3,393.9,315z"/>
	<path class="st8" d="M399.2,327.3v-1.7h1.7v1.7H399.2z"/>
</g>
<path class="st0" d="M583.8,536.1H346.6V72H608v440C608,525.3,597.2,536.1,583.8,536.1z"/>
<path class="st6" d="M379.4,150.5v18.6h27.9v-18.6H379.4z M394.9,160.3c-0.9,0.8-2.2,0.8-3.1,0l-8.2-7.5h19.5L394.9,160.3z
	 M387.8,159.8l-6.1,5.5v-11.1L387.8,159.8z M389.6,161.4l0.7,0.6c0.9,0.8,2,1.2,3.1,1.2s2.2-0.4,3.1-1.2l0.7-0.6l5.9,5.4h-19.4
	L389.6,161.4z M398.9,159.8l6.1-5.5v11.1L398.9,159.8z"/>
<path class="st2" d="M1250,536.1h-243.5V71.9h261.3v446.3C1267.9,528.1,1259.9,536.1,1250,536.1z"/>
<path class="st0" d="M1267.9,72h-261.3l0,0c0-28.5,23.1-51.6,51.6-51.6h158.2C1244.8,20.4,1267.9,43.5,1267.9,72L1267.9,72z"/>
<path class="st6" d="M1039.6,160.3v18.6h27.9v-18.6H1039.6z M1055.1,170c-0.9,0.8-2.2,0.8-3.1,0l-8.2-7.5h19.5L1055.1,170z
	 M1048,169.6l-6.1,5.5V164L1048,169.6z M1049.8,171.1l0.7,0.6c0.9,0.8,2,1.2,3.1,1.2s2.2-0.4,3.1-1.2l0.7-0.6l5.9,5.4h-19.4
	L1049.8,171.1z M1059.1,169.6l6.1-5.5v11.1L1059.1,169.6z"/>
<rect x="1025" y="136.8" class="st9" width="224.4" height="266.2"/>
<rect x="1025" y="181.7" class="st10" width="224.4" height="4.3"/>
<path class="st0" d="M1250,536.1h-243.5V72h261.3v446.3C1267.9,528.1,1259.9,536.1,1250,536.1z"/>
<line class="st0" x1="1007.2" y1="536.6" x2="936.6" y2="536.6"/>
<rect x="1038.2" y="319.4" class="st7" width="114.1" height="48.8"/>
<rect x="1061" y="337.5" class="st4" width="86.4" height="32.8"/>
<g class="st5">
	<path class="st6" d="M1062.9,350.3v-12.8h1.4v11.6h6.6v1.2H1062.9z"/>
	<path class="st6" d="M1078,350.3v-0.8c-0.3,0.3-0.7,0.6-1.1,0.7c-0.4,0.1-0.9,0.2-1.5,0.2c-0.6,0-1.1-0.1-1.5-0.2
		c-0.4-0.1-0.7-0.3-1-0.6c-0.2-0.2-0.4-0.5-0.5-0.8c-0.1-0.3-0.2-0.7-0.2-1c0-0.8,0.3-1.4,0.8-1.9c0.5-0.5,1.3-0.7,2.3-0.7h2.6v-0.8
		c0-0.6-0.2-1.1-0.5-1.5c-0.3-0.3-0.9-0.5-1.8-0.5c-0.6,0-1,0.1-1.3,0.2c-0.3,0.2-0.6,0.4-0.9,0.8l-0.9-0.8c0.4-0.5,0.8-0.9,1.3-1.1
		c0.5-0.2,1.1-0.3,1.8-0.3c1.2,0,2.1,0.3,2.7,0.8s0.9,1.2,0.9,2.2v6H1078z M1078,346.2h-2.5c-1.3,0-2,0.5-2,1.6
		c0,0.5,0.2,0.9,0.5,1.1s0.8,0.4,1.6,0.4c0.4,0,0.7,0,1-0.1c0.3-0.1,0.6-0.2,0.9-0.5c0.3-0.3,0.5-0.8,0.5-1.5V346.2z"/>
	<path class="st6" d="M1088.8,347.7c0,0.9-0.3,1.5-1,2c-0.7,0.5-1.5,0.7-2.6,0.7c-0.8,0-1.4-0.1-2-0.3c-0.6-0.2-1.1-0.5-1.6-1
		l0.9-0.9c0.3,0.4,0.8,0.6,1.2,0.8c0.5,0.2,1,0.2,1.5,0.2c0.7,0,1.3-0.1,1.7-0.4c0.4-0.3,0.6-0.7,0.6-1.2c0-0.4-0.1-0.7-0.3-0.9
		c-0.2-0.2-0.6-0.3-1.1-0.4l-1.5-0.1c-0.9-0.1-1.5-0.3-2-0.7s-0.7-0.9-0.7-1.7c0-0.4,0.1-0.8,0.2-1.1s0.4-0.6,0.7-0.8
		c0.3-0.2,0.6-0.4,1-0.5s0.8-0.2,1.3-0.2c0.6,0,1.2,0.1,1.8,0.2c0.5,0.2,1,0.4,1.4,0.7l-0.8,0.8c-0.3-0.2-0.7-0.4-1.1-0.5
		c-0.4-0.1-0.8-0.2-1.3-0.2c-0.6,0-1.1,0.1-1.5,0.4c-0.3,0.3-0.5,0.6-0.5,1.1c0,0.4,0.1,0.7,0.4,0.9s0.7,0.3,1.2,0.4l1.4,0.1
		c0.4,0,0.7,0.1,1.1,0.2c0.3,0.1,0.6,0.2,0.8,0.4c0.2,0.2,0.4,0.4,0.5,0.7S1088.8,347.3,1088.8,347.7z"/>
	<path class="st6" d="M1093.7,350.3c-0.4,0-0.7-0.1-1-0.2s-0.5-0.3-0.7-0.5s-0.3-0.5-0.4-0.8c-0.1-0.3-0.1-0.6-0.1-0.9v-5.5h-1.1v-1
		h1.1v-2.7h1.3v2.7h1.9v1h-1.9v5.5c0,0.4,0.1,0.7,0.3,1c0.2,0.2,0.5,0.3,0.9,0.3h0.7v1.1H1093.7z"/>
	<path class="st6" d="M1107.3,350.3v-5.5c0-0.8-0.2-1.4-0.6-1.8c-0.4-0.4-0.9-0.6-1.6-0.6s-1.2,0.2-1.6,0.6c-0.4,0.4-0.6,1-0.6,1.8
		v5.5h-1.3v-8.9h1.3v1c0.3-0.4,0.7-0.6,1.1-0.8c0.4-0.2,0.9-0.3,1.4-0.3c1,0,1.7,0.3,2.3,0.8c0.6,0.6,0.9,1.4,0.9,2.5v5.7H1107.3z"
		/>
	<path class="st6" d="M1112.6,346.2c0,1,0.2,1.7,0.7,2.3c0.4,0.5,1.1,0.8,2,0.8c0.5,0,0.9-0.1,1.3-0.2c0.3-0.2,0.7-0.4,1-0.8
		l0.9,0.8c-0.2,0.2-0.5,0.4-0.7,0.6s-0.5,0.3-0.7,0.4c-0.3,0.1-0.5,0.2-0.8,0.3c-0.3,0.1-0.6,0.1-1,0.1c-0.6,0-1.1-0.1-1.6-0.3
		s-0.9-0.5-1.2-0.8c-0.3-0.4-0.6-0.8-0.8-1.4c-0.2-0.6-0.3-1.2-0.3-2c0-1.5,0.3-2.6,1-3.4s1.5-1.2,2.7-1.2c1.2,0,2.1,0.4,2.7,1.1
		c0.6,0.8,0.9,1.8,0.9,3.2v0.6H1112.6z M1117.3,345.3c0-0.2,0-0.3,0-0.5c0-0.1,0-0.3,0-0.4c0-0.1,0-0.2-0.1-0.3
		c0-0.1-0.1-0.2-0.1-0.3c-0.2-0.4-0.5-0.7-0.8-1s-0.8-0.4-1.3-0.4s-0.9,0.1-1.3,0.4s-0.6,0.6-0.8,1c-0.1,0.1-0.1,0.2-0.1,0.3
		c0,0.1-0.1,0.2-0.1,0.3c0,0.1,0,0.2,0,0.4c0,0.1,0,0.3,0,0.5H1117.3z"/>
	<path class="st6" d="M1126.6,350.3v-1.1c-0.4,0.5-0.8,0.8-1.2,0.9s-0.9,0.2-1.4,0.2c-0.5,0-0.9-0.1-1.2-0.2s-0.7-0.3-0.9-0.6
		c-0.4-0.5-0.7-1-0.9-1.7s-0.2-1.4-0.2-2.1c0-0.4,0-0.7,0-1.1c0-0.4,0.1-0.7,0.2-1c0.1-0.3,0.2-0.6,0.3-0.9c0.1-0.3,0.3-0.5,0.5-0.8
		c0.2-0.2,0.5-0.4,0.9-0.6s0.8-0.2,1.2-0.2c0.5,0,1,0.1,1.4,0.2c0.4,0.2,0.8,0.5,1.2,0.9v-5h1.3v12.8H1126.6z M1126.6,345.9
		c0-0.4,0-0.9-0.1-1.3c0-0.4-0.1-0.8-0.3-1.1c-0.2-0.3-0.4-0.6-0.7-0.8c-0.3-0.2-0.7-0.3-1.2-0.3c-0.5,0-0.9,0.1-1.2,0.3
		c-0.3,0.2-0.5,0.4-0.7,0.8c-0.2,0.3-0.3,0.7-0.3,1.1c0,0.4-0.1,0.8-0.1,1.3c0,0.4,0,0.9,0.1,1.3c0,0.4,0.2,0.8,0.3,1.1
		s0.4,0.6,0.7,0.8c0.3,0.2,0.7,0.3,1.2,0.3c0.5,0,0.9-0.1,1.2-0.3c0.3-0.2,0.5-0.4,0.7-0.8s0.3-0.7,0.3-1.1
		S1126.6,346.3,1126.6,345.9z"/>
</g>
<rect x="1083.2" y="151.9" class="st4" width="200.7" height="34.8"/>
<g class="st5">
	<path class="st6" d="M1088.7,164.7h-1.1l-4.2-12.8h1.4l3.3,10.4l3.3-10.4h1.4L1088.7,164.7z"/>
	<path class="st6" d="M1094.6,153.3v-1.5h1.5v1.5H1094.6z M1094.7,164.7v-8.9h1.3v8.9H1094.7z"/>
	<path class="st6" d="M1105.1,164.7l-2.8-4.5l-1.7,2v2.6h-1.3v-12.8h1.3v8.6l4-4.6h1.6l-3,3.4l3.5,5.5H1105.1z"/>
	<path class="st6" d="M1111.4,164.7c-0.4,0-0.7-0.1-1-0.2c-0.3-0.1-0.5-0.3-0.7-0.5c-0.2-0.2-0.3-0.5-0.4-0.8s-0.1-0.6-0.1-0.9v-5.5
		h-1.1v-1h1.1v-2.7h1.3v2.7h1.9v1h-1.9v5.5c0,0.4,0.1,0.7,0.3,1c0.2,0.2,0.5,0.3,0.9,0.3h0.7v1.1H1111.4z"/>
	<path class="st6" d="M1114.8,153.3v-1.5h1.5v1.5H1114.8z M1114.9,164.7v-8.9h1.3v8.9H1114.9z"/>
	<path class="st6" d="M1125.9,164.9c0,0.6-0.1,1.1-0.3,1.5s-0.4,0.9-0.7,1.2c-0.3,0.3-0.7,0.6-1.2,0.8c-0.5,0.2-1,0.3-1.6,0.3
		c-0.3,0-0.6,0-0.9-0.1s-0.5-0.1-0.7-0.2c-0.2-0.1-0.5-0.2-0.7-0.4c-0.2-0.1-0.4-0.3-0.7-0.5l0.8-0.8c0.2,0.1,0.3,0.3,0.5,0.4
		c0.2,0.1,0.3,0.2,0.5,0.3s0.3,0.1,0.5,0.2c0.2,0,0.4,0.1,0.7,0.1c0.4,0,0.8-0.1,1.1-0.2c0.3-0.1,0.6-0.3,0.8-0.6s0.3-0.5,0.4-0.9
		c0.1-0.3,0.1-0.7,0.1-1.1v-1.4c-0.4,0.5-0.7,0.8-1.2,0.9s-0.9,0.2-1.3,0.2c-0.5,0-0.9-0.1-1.2-0.2c-0.4-0.1-0.7-0.3-0.9-0.6
		c-0.4-0.4-0.7-1-0.9-1.6c-0.1-0.6-0.2-1.3-0.2-2.1s0.1-1.4,0.2-2.1c0.1-0.6,0.4-1.2,0.9-1.6c0.2-0.2,0.5-0.4,0.9-0.6
		c0.4-0.1,0.8-0.2,1.2-0.2c0.5,0,0.9,0.1,1.3,0.2c0.4,0.2,0.8,0.5,1.1,0.9v-1h1.3V164.9z M1124.6,160.2c0-0.4,0-0.8-0.1-1.2
		c0-0.4-0.2-0.8-0.3-1.1c-0.2-0.3-0.4-0.6-0.7-0.7c-0.3-0.2-0.7-0.3-1.2-0.3s-0.9,0.1-1.2,0.3c-0.3,0.2-0.5,0.4-0.7,0.7
		c-0.2,0.3-0.3,0.7-0.3,1.1c0,0.4-0.1,0.8-0.1,1.2c0,0.4,0,0.8,0.1,1.2c0,0.4,0.1,0.7,0.3,1.1c0.2,0.3,0.4,0.6,0.7,0.7
		c0.3,0.2,0.7,0.3,1.2,0.3s0.9-0.1,1.2-0.3c0.3-0.2,0.5-0.4,0.7-0.7c0.2-0.3,0.3-0.7,0.3-1.1C1124.6,161,1124.6,160.6,1124.6,160.2z
		"/>
	<path class="st6" d="M1145,164.7v-5.5c0-0.8-0.2-1.4-0.6-1.8c-0.4-0.4-0.9-0.6-1.6-0.6c-0.6,0-1.2,0.2-1.6,0.6
		c-0.4,0.4-0.6,0.9-0.6,1.6v5.6h-1.3v-5.5c0-0.8-0.2-1.4-0.6-1.8c-0.4-0.4-0.9-0.6-1.6-0.6s-1.2,0.2-1.6,0.6c-0.4,0.4-0.6,1-0.6,1.8
		v5.5h-1.3v-8.9h1.3v1c0.3-0.4,0.7-0.6,1.1-0.8c0.4-0.2,0.9-0.3,1.4-0.3c0.6,0,1.1,0.1,1.6,0.4c0.5,0.2,0.8,0.6,1.1,1.1
		c0.7-1,1.7-1.5,2.9-1.5c0.5,0,0.9,0.1,1.3,0.2c0.4,0.1,0.7,0.3,1,0.6c0.6,0.6,1,1.4,1,2.5v5.7H1145z"/>
	<path class="st6" d="M1150.3,160.6c0,1,0.2,1.7,0.7,2.3c0.4,0.5,1.1,0.8,2,0.8c0.5,0,0.9-0.1,1.3-0.2c0.3-0.2,0.7-0.4,1-0.8
		l0.9,0.8c-0.2,0.2-0.5,0.4-0.7,0.6s-0.5,0.3-0.7,0.4c-0.3,0.1-0.5,0.2-0.8,0.3c-0.3,0.1-0.6,0.1-1,0.1c-0.6,0-1.1-0.1-1.6-0.3
		s-0.9-0.5-1.2-0.8c-0.3-0.4-0.6-0.8-0.8-1.4c-0.2-0.6-0.3-1.2-0.3-2c0-1.5,0.3-2.6,1-3.4s1.5-1.2,2.7-1.2c1.2,0,2.1,0.4,2.7,1.1
		c0.6,0.8,0.9,1.8,0.9,3.2v0.6H1150.3z M1155,159.6c0-0.2,0-0.3,0-0.5c0-0.1,0-0.3,0-0.4c0-0.1,0-0.2-0.1-0.3c0-0.1-0.1-0.2-0.1-0.3
		c-0.2-0.4-0.5-0.7-0.8-1s-0.8-0.4-1.3-0.4s-0.9,0.1-1.3,0.4s-0.6,0.6-0.8,1c-0.1,0.1-0.1,0.2-0.1,0.3c0,0.1-0.1,0.2-0.1,0.3
		c0,0.1,0,0.2,0,0.4c0,0.1,0,0.3,0,0.5H1155z"/>
	<path class="st6" d="M1161.2,164.7c-0.8,0-1.4-0.2-1.7-0.7c-0.4-0.5-0.5-1-0.5-1.7v-10.5h1.3v10.4c0,0.4,0.1,0.8,0.3,1
		c0.2,0.2,0.5,0.3,0.9,0.3h0.7v1.1H1161.2z"/>
	<path class="st6" d="M1169.4,164.7v-1.1c-0.4,0.5-0.8,0.8-1.2,0.9c-0.4,0.2-0.9,0.2-1.4,0.2c-0.5,0-0.9-0.1-1.2-0.2
		c-0.4-0.1-0.7-0.3-0.9-0.6c-0.4-0.5-0.7-1-0.9-1.7c-0.1-0.7-0.2-1.4-0.2-2.1c0-0.4,0-0.7,0-1.1c0-0.4,0.1-0.7,0.2-1
		c0.1-0.3,0.2-0.6,0.3-0.9c0.1-0.3,0.3-0.5,0.5-0.8c0.2-0.2,0.5-0.4,0.9-0.6c0.4-0.1,0.8-0.2,1.2-0.2c0.5,0,1,0.1,1.3,0.2
		c0.4,0.2,0.8,0.5,1.2,0.9v-5h1.3v12.8H1169.4z M1169.4,160.2c0-0.4,0-0.9-0.1-1.3c0-0.4-0.2-0.8-0.3-1.1c-0.2-0.3-0.4-0.6-0.7-0.8
		c-0.3-0.2-0.7-0.3-1.2-0.3c-0.5,0-0.9,0.1-1.2,0.3c-0.3,0.2-0.5,0.4-0.7,0.8c-0.2,0.3-0.3,0.7-0.3,1.1c0,0.4-0.1,0.8-0.1,1.3
		c0,0.4,0,0.9,0.1,1.3c0,0.4,0.2,0.8,0.3,1.1s0.4,0.6,0.7,0.8c0.3,0.2,0.7,0.3,1.2,0.3c0.5,0,0.9-0.1,1.2-0.3
		c0.3-0.2,0.5-0.4,0.7-0.8s0.3-0.7,0.3-1.1C1169.4,161.1,1169.4,160.7,1169.4,160.2z"/>
	<path class="st6" d="M1173.9,153.3v-1.5h1.5v1.5H1173.9z M1173.9,164.7v-8.9h1.3v8.9H1173.9z"/>
	<path class="st6" d="M1184.1,164.7v-5.5c0-0.8-0.2-1.4-0.6-1.8c-0.4-0.4-0.9-0.6-1.6-0.6s-1.2,0.2-1.6,0.6c-0.4,0.4-0.6,1-0.6,1.8
		v5.5h-1.3v-8.9h1.3v1c0.3-0.4,0.7-0.6,1.1-0.8c0.4-0.2,0.9-0.3,1.4-0.3c1,0,1.7,0.3,2.3,0.8c0.6,0.6,0.9,1.4,0.9,2.5v5.7H1184.1z"
		/>
	<path class="st6" d="M1195.1,164.9c0,0.6-0.1,1.1-0.3,1.5c-0.2,0.5-0.4,0.9-0.7,1.2c-0.3,0.3-0.7,0.6-1.2,0.8
		c-0.5,0.2-1,0.3-1.6,0.3c-0.3,0-0.6,0-0.9-0.1c-0.3,0-0.5-0.1-0.7-0.2c-0.2-0.1-0.5-0.2-0.7-0.4c-0.2-0.1-0.4-0.3-0.7-0.5l0.8-0.8
		c0.2,0.1,0.3,0.3,0.5,0.4c0.2,0.1,0.3,0.2,0.5,0.3c0.2,0.1,0.3,0.1,0.5,0.2c0.2,0,0.4,0.1,0.7,0.1c0.4,0,0.8-0.1,1.1-0.2
		c0.3-0.1,0.6-0.3,0.8-0.6s0.3-0.5,0.4-0.9c0.1-0.3,0.1-0.7,0.1-1.1v-1.4c-0.4,0.5-0.7,0.8-1.2,0.9s-0.9,0.2-1.3,0.2
		c-0.5,0-0.9-0.1-1.2-0.2c-0.4-0.1-0.7-0.3-0.9-0.6c-0.4-0.4-0.7-1-0.9-1.6c-0.1-0.6-0.2-1.3-0.2-2.1s0.1-1.4,0.2-2.1
		c0.1-0.6,0.4-1.2,0.9-1.6c0.2-0.2,0.5-0.4,0.9-0.6c0.4-0.1,0.8-0.2,1.2-0.2c0.5,0,0.9,0.1,1.3,0.2c0.4,0.2,0.8,0.5,1.1,0.9v-1h1.3
		V164.9z M1193.8,160.2c0-0.4,0-0.8-0.1-1.2s-0.2-0.8-0.3-1.1c-0.2-0.3-0.4-0.6-0.7-0.7c-0.3-0.2-0.7-0.3-1.2-0.3
		c-0.5,0-0.9,0.1-1.2,0.3c-0.3,0.2-0.5,0.4-0.7,0.7c-0.2,0.3-0.3,0.7-0.3,1.1s-0.1,0.8-0.1,1.2c0,0.4,0,0.8,0.1,1.2
		c0,0.4,0.2,0.7,0.3,1.1c0.2,0.3,0.4,0.6,0.7,0.7c0.3,0.2,0.7,0.3,1.2,0.3c0.5,0,0.9-0.1,1.2-0.3c0.3-0.2,0.5-0.4,0.7-0.7
		c0.2-0.3,0.3-0.7,0.3-1.1C1193.8,161,1193.8,160.6,1193.8,160.2z"/>
</g>
<path class="st0" d="M1006.9,536.1L1006.9,536.1c0,28.5,23.1,51.6,51.6,51.6h483.1H1649"/>
<path class="st6" d="M1038.2,150.5v18.6h27.9v-18.6H1038.2z M1053.7,160.3c-0.9,0.8-2.2,0.8-3.1,0l-8.2-7.5h19.5L1053.7,160.3z
	 M1046.7,159.8l-6.1,5.5v-11.1L1046.7,159.8z M1048.4,161.4l0.7,0.6c0.9,0.8,2,1.2,3.1,1.2s2.2-0.4,3.1-1.2l0.7-0.6l5.9,5.4h-19.4
	L1048.4,161.4z M1057.7,159.8l6.1-5.5v11.1L1057.7,159.8z"/>
<rect x="1038.2" y="200.9" class="st4" width="200.7" height="191.4"/>
<g class="st5">
	<path class="st6" d="M1040.1,213.7v-12.8h8v1.2h-6.6v4.5h5.6v1.2h-5.6v4.6h6.6v1.2H1040.1z"/>
	<path class="st6" d="M1053.1,213.7c-0.4,0-0.7-0.1-1-0.2c-0.3-0.1-0.5-0.3-0.7-0.5c-0.2-0.2-0.3-0.5-0.4-0.8
		c-0.1-0.3-0.1-0.6-0.1-0.9v-5.5h-1.1v-1h1.1v-2.7h1.3v2.7h1.9v1h-1.9v5.5c0,0.4,0.1,0.7,0.3,1c0.2,0.2,0.5,0.3,0.9,0.3h0.7v1.1
		H1053.1z"/>
	<path class="st6" d="M1061.6,213.7v-0.8c-0.3,0.3-0.7,0.6-1.1,0.7c-0.4,0.1-0.9,0.2-1.5,0.2c-0.6,0-1.1-0.1-1.5-0.2
		c-0.4-0.1-0.7-0.3-1-0.6c-0.2-0.2-0.4-0.5-0.5-0.8s-0.2-0.7-0.2-1c0-0.8,0.3-1.4,0.8-1.9c0.5-0.5,1.3-0.7,2.3-0.7h2.6v-0.8
		c0-0.6-0.2-1.1-0.5-1.5c-0.3-0.3-0.9-0.5-1.8-0.5c-0.6,0-1,0.1-1.3,0.2c-0.3,0.2-0.6,0.4-0.9,0.8l-0.9-0.8c0.4-0.5,0.8-0.9,1.3-1.1
		c0.5-0.2,1.1-0.3,1.8-0.3c1.2,0,2.1,0.3,2.7,0.8s0.9,1.2,0.9,2.2v6H1061.6z M1061.6,209.6h-2.5c-1.3,0-2,0.5-2,1.6
		c0,0.5,0.2,0.9,0.5,1.1c0.3,0.2,0.8,0.4,1.6,0.4c0.4,0,0.7,0,1-0.1c0.3-0.1,0.6-0.2,0.9-0.5c0.3-0.3,0.4-0.8,0.4-1.5V209.6z"/>
	<path class="st6" d="M1068.5,213.7c-0.4,0-0.7-0.1-1-0.2c-0.3-0.1-0.5-0.3-0.7-0.5c-0.2-0.2-0.3-0.5-0.4-0.8
		c-0.1-0.3-0.1-0.6-0.1-0.9v-5.5h-1.1v-1h1.1v-2.7h1.3v2.7h1.9v1h-1.9v5.5c0,0.4,0.1,0.7,0.3,1c0.2,0.2,0.5,0.3,0.9,0.3h0.7v1.1
		H1068.5z"/>
	<path class="st6" d="M1072.7,209.6c0,1,0.2,1.7,0.7,2.3c0.4,0.5,1.1,0.8,2,0.8c0.5,0,0.9-0.1,1.3-0.2c0.3-0.2,0.7-0.4,1-0.8
		l0.9,0.8c-0.2,0.2-0.5,0.4-0.7,0.6s-0.5,0.3-0.7,0.4c-0.3,0.1-0.5,0.2-0.8,0.3c-0.3,0.1-0.6,0.1-1,0.1c-0.6,0-1.1-0.1-1.6-0.3
		s-0.9-0.5-1.2-0.8c-0.3-0.4-0.6-0.8-0.8-1.4c-0.2-0.6-0.3-1.2-0.3-2c0-1.5,0.3-2.6,1-3.4s1.5-1.2,2.7-1.2c1.2,0,2.1,0.4,2.7,1.1
		c0.6,0.8,0.9,1.8,0.9,3.2v0.6H1072.7z M1077.4,208.7c0-0.2,0-0.3,0-0.5c0-0.1,0-0.3,0-0.4c0-0.1,0-0.2-0.1-0.3
		c0-0.1-0.1-0.2-0.1-0.3c-0.2-0.4-0.5-0.7-0.8-1s-0.8-0.4-1.3-0.4s-0.9,0.1-1.3,0.4s-0.6,0.6-0.8,1c-0.1,0.1-0.1,0.2-0.1,0.3
		c0,0.1-0.1,0.2-0.1,0.3c0,0.1,0,0.2,0,0.4c0,0.1,0,0.3,0,0.5H1077.4z"/>
	<path class="st6" d="M1087.1,213.7v-5.5c0-0.8-0.2-1.4-0.6-1.8c-0.4-0.4-0.9-0.6-1.6-0.6s-1.2,0.2-1.6,0.6c-0.4,0.4-0.6,1-0.6,1.8
		v5.5h-1.3v-8.9h1.3v1c0.3-0.4,0.7-0.6,1.1-0.8c0.4-0.2,0.9-0.3,1.4-0.3c1,0,1.7,0.3,2.3,0.8c0.6,0.6,0.9,1.4,0.9,2.5v5.7H1087.1z"
		/>
	<path class="st6" d="M1096,202.4v-1.5h1.5v1.5H1096z M1096,213.7v-8.9h1.3v8.9H1096z"/>
	<path class="st6" d="M1106.2,213.7v-5.5c0-0.8-0.2-1.4-0.6-1.8c-0.4-0.4-0.9-0.6-1.6-0.6s-1.2,0.2-1.6,0.6c-0.4,0.4-0.6,1-0.6,1.8
		v5.5h-1.3v-8.9h1.3v1c0.3-0.4,0.7-0.6,1.1-0.8c0.4-0.2,0.9-0.3,1.4-0.3c1,0,1.7,0.3,2.3,0.8c0.6,0.6,0.9,1.4,0.9,2.5v5.7H1106.2z"
		/>
	<path class="st6" d="M1116.4,213.7v-5.5c0-0.8-0.2-1.4-0.6-1.8c-0.4-0.4-0.9-0.6-1.6-0.6s-1.2,0.2-1.6,0.6c-0.4,0.4-0.6,1-0.6,1.8
		v5.5h-1.3v-8.9h1.3v1c0.3-0.4,0.7-0.6,1.1-0.8c0.4-0.2,0.9-0.3,1.4-0.3c1,0,1.7,0.3,2.3,0.8c0.6,0.6,0.9,1.4,0.9,2.5v5.7H1116.4z"
		/>
	<path class="st6" d="M1122.4,205.9v7.9h-1.3v-7.9h-1.1v-1h1.1v-1.6c0-0.3,0-0.6,0.1-0.9c0.1-0.3,0.2-0.5,0.4-0.8
		c0.2-0.2,0.4-0.4,0.7-0.5s0.6-0.2,1-0.2h0.9v1.1h-0.7c-0.4,0-0.7,0.1-0.9,0.3c-0.2,0.2-0.3,0.5-0.3,1v1.6h1.9v1H1122.4z"/>
	<path class="st6" d="M1133,209.3c0,0.7-0.1,1.3-0.2,1.9c-0.1,0.6-0.4,1.1-0.9,1.6c-0.3,0.3-0.7,0.6-1.1,0.7s-0.9,0.3-1.4,0.3
		c-0.4,0-0.7,0-1-0.1c-0.3-0.1-0.6-0.2-0.9-0.4l-0.7,1.2h-1l1-1.7c-0.4-0.5-0.7-1-0.8-1.6c-0.1-0.6-0.2-1.2-0.2-1.9c0-0.3,0-0.7,0-1
		c0-0.3,0.1-0.6,0.2-0.9c0.1-0.3,0.2-0.6,0.3-0.8c0.1-0.3,0.3-0.5,0.5-0.7c0.3-0.3,0.7-0.6,1.1-0.7c0.4-0.2,0.9-0.3,1.4-0.3
		c0.4,0,0.7,0,1,0.1s0.6,0.2,0.9,0.4l0.7-1.2h1l-1,1.7c0.4,0.5,0.7,1,0.8,1.6C1132.9,208,1133,208.6,1133,209.3z M1130.6,206.3
		c-0.4-0.3-0.8-0.4-1.3-0.4c-0.6,0-1.2,0.2-1.6,0.6c-0.2,0.2-0.3,0.4-0.4,0.6s-0.2,0.4-0.2,0.7c-0.1,0.2-0.1,0.5-0.1,0.7
		c0,0.3,0,0.5,0,0.8c0,0.4,0,0.8,0.1,1.3c0,0.4,0.2,0.8,0.4,1.1L1130.6,206.3z M1131.7,209.3c0-0.4,0-0.8-0.1-1.3
		c0-0.4-0.2-0.8-0.4-1.1l-3.2,5.4c0.4,0.3,0.8,0.4,1.3,0.4c0.6,0,1.2-0.2,1.6-0.6c0.2-0.2,0.3-0.3,0.4-0.6s0.2-0.4,0.2-0.7
		c0-0.2,0.1-0.5,0.1-0.7S1131.7,209.6,1131.7,209.3z"/>
	<path class="st6" d="M1140.7,206.6c-0.2-0.2-0.5-0.4-0.7-0.5s-0.5-0.1-0.8-0.1c-0.3,0-0.6,0.1-0.9,0.2c-0.3,0.1-0.5,0.3-0.7,0.5
		c-0.2,0.2-0.3,0.5-0.4,0.8c-0.1,0.3-0.2,0.6-0.2,0.9v5.4h-1.3v-8.9h1.3v1.1c0.2-0.4,0.6-0.7,1-0.9c0.4-0.2,0.9-0.3,1.4-0.3
		c0.4,0,0.8,0.1,1.1,0.2s0.7,0.3,1,0.6L1140.7,206.6z"/>
	<path class="st6" d="M1143.6,209.6c0,1,0.2,1.7,0.7,2.3c0.4,0.5,1.1,0.8,2,0.8c0.5,0,0.9-0.1,1.3-0.2c0.3-0.2,0.7-0.4,1-0.8
		l0.9,0.8c-0.2,0.2-0.5,0.4-0.7,0.6c-0.2,0.2-0.5,0.3-0.7,0.4c-0.3,0.1-0.5,0.2-0.8,0.3c-0.3,0.1-0.6,0.1-1,0.1
		c-0.6,0-1.1-0.1-1.6-0.3c-0.5-0.2-0.9-0.5-1.2-0.8c-0.3-0.4-0.6-0.8-0.8-1.4c-0.2-0.6-0.3-1.2-0.3-2c0-1.5,0.3-2.6,1-3.4
		c0.6-0.8,1.5-1.2,2.7-1.2c1.2,0,2.1,0.4,2.7,1.1c0.6,0.8,0.9,1.8,0.9,3.2v0.6H1143.6z M1148.3,208.7c0-0.2,0-0.3,0-0.5
		c0-0.1,0-0.3,0-0.4c0-0.1,0-0.2-0.1-0.3c0-0.1-0.1-0.2-0.1-0.3c-0.2-0.4-0.5-0.7-0.8-1c-0.4-0.2-0.8-0.4-1.3-0.4
		c-0.5,0-0.9,0.1-1.3,0.4c-0.4,0.2-0.6,0.6-0.8,1c-0.1,0.1-0.1,0.2-0.1,0.3c0,0.1-0.1,0.2-0.1,0.3c0,0.1,0,0.2,0,0.4
		c0,0.1,0,0.3,0,0.5H1148.3z"/>
	<path class="st6" d="M1157.3,206.6c-0.2-0.2-0.5-0.4-0.7-0.5s-0.5-0.1-0.8-0.1c-0.3,0-0.6,0.1-0.9,0.2c-0.3,0.1-0.5,0.3-0.7,0.5
		c-0.2,0.2-0.3,0.5-0.4,0.8c-0.1,0.3-0.2,0.6-0.2,0.9v5.4h-1.3v-8.9h1.3v1.1c0.2-0.4,0.6-0.7,1-0.9c0.5-0.2,0.9-0.3,1.4-0.3
		c0.4,0,0.8,0.1,1.1,0.2s0.7,0.3,1,0.6L1157.3,206.6z"/>
	<path class="st6" d="M1170,213.7v-5.5c0-0.8-0.2-1.4-0.6-1.8c-0.4-0.4-0.9-0.6-1.6-0.6c-0.7,0-1.2,0.2-1.6,0.6
		c-0.4,0.4-0.6,1-0.6,1.8v5.5h-1.3v-8.9h1.3v1c0.3-0.4,0.7-0.6,1.1-0.8c0.4-0.2,0.9-0.3,1.4-0.3c1,0,1.7,0.3,2.3,0.8
		c0.6,0.6,0.9,1.4,0.9,2.5v5.7H1170z"/>
	<path class="st6" d="M1176.7,215.9c-0.2,0.5-0.4,0.8-0.6,1c-0.2,0.2-0.5,0.4-0.8,0.5s-0.6,0.1-0.9,0.1h-0.6v-1.2h0.4
		c0.4,0,0.8-0.1,1-0.2c0.2-0.2,0.4-0.4,0.5-0.9l0.6-1.7l-3.2-8.7h1.4l2.4,7.1l2.4-7.1h1.4L1176.7,215.9z"/>
	<path class="st6" d="M1183.2,209.6c0,1,0.2,1.7,0.7,2.3c0.4,0.5,1.1,0.8,2,0.8c0.5,0,0.9-0.1,1.3-0.2c0.3-0.2,0.7-0.4,1-0.8
		l0.9,0.8c-0.2,0.2-0.5,0.4-0.7,0.6c-0.2,0.2-0.5,0.3-0.7,0.4c-0.3,0.1-0.5,0.2-0.8,0.3c-0.3,0.1-0.6,0.1-1,0.1
		c-0.6,0-1.1-0.1-1.6-0.3c-0.5-0.2-0.9-0.5-1.2-0.8c-0.3-0.4-0.6-0.8-0.8-1.4c-0.2-0.6-0.3-1.2-0.3-2c0-1.5,0.3-2.6,1-3.4
		c0.6-0.8,1.5-1.2,2.7-1.2c1.2,0,2.1,0.4,2.7,1.1c0.6,0.8,0.9,1.8,0.9,3.2v0.6H1183.2z M1187.9,208.7c0-0.2,0-0.3,0-0.5
		c0-0.1,0-0.3,0-0.4c0-0.1,0-0.2-0.1-0.3c0-0.1-0.1-0.2-0.1-0.3c-0.2-0.4-0.5-0.7-0.8-1c-0.4-0.2-0.8-0.4-1.3-0.4
		c-0.5,0-0.9,0.1-1.3,0.4c-0.4,0.2-0.6,0.6-0.8,1c-0.1,0.1-0.1,0.2-0.1,0.3c0,0.1-0.1,0.2-0.1,0.3c0,0.1,0,0.2,0,0.4
		c0,0.1,0,0.3,0,0.5H1187.9z"/>
	<path class="st6" d="M1201.3,206.6c-0.2-0.2-0.5-0.4-0.7-0.5s-0.5-0.1-0.8-0.1c-0.3,0-0.6,0.1-0.9,0.2c-0.3,0.1-0.5,0.3-0.7,0.5
		c-0.2,0.2-0.3,0.5-0.4,0.8c-0.1,0.3-0.2,0.6-0.2,0.9v5.4h-1.3v-8.9h1.3v1.1c0.2-0.4,0.6-0.7,1-0.9c0.5-0.2,0.9-0.3,1.4-0.3
		c0.4,0,0.8,0.1,1.1,0.2s0.7,0.3,1,0.6L1201.3,206.6z"/>
	<path class="st6" d="M1204.2,209.6c0,1,0.2,1.7,0.7,2.3c0.4,0.5,1.1,0.8,2,0.8c0.5,0,0.9-0.1,1.3-0.2c0.3-0.2,0.7-0.4,1-0.8
		l0.9,0.8c-0.2,0.2-0.5,0.4-0.7,0.6c-0.2,0.2-0.5,0.3-0.7,0.4c-0.3,0.1-0.5,0.2-0.8,0.3c-0.3,0.1-0.6,0.1-1,0.1
		c-0.6,0-1.1-0.1-1.6-0.3c-0.5-0.2-0.9-0.5-1.2-0.8c-0.3-0.4-0.6-0.8-0.8-1.4c-0.2-0.6-0.3-1.2-0.3-2c0-1.5,0.3-2.6,1-3.4
		c0.6-0.8,1.5-1.2,2.7-1.2c1.2,0,2.1,0.4,2.7,1.1c0.6,0.8,0.9,1.8,0.9,3.2v0.6H1204.2z M1208.9,208.7c0-0.2,0-0.3,0-0.5
		c0-0.1,0-0.3,0-0.4c0-0.1,0-0.2-0.1-0.3c0-0.1-0.1-0.2-0.1-0.3c-0.2-0.4-0.5-0.7-0.8-1c-0.4-0.2-0.8-0.4-1.3-0.4
		c-0.5,0-0.9,0.1-1.3,0.4c-0.4,0.2-0.6,0.6-0.8,1c-0.1,0.1-0.1,0.2-0.1,0.3c0,0.1-0.1,0.2-0.1,0.3c0,0.1,0,0.2,0,0.4
		c0,0.1,0,0.3,0,0.5H1208.9z"/>
	<path class="st6" d="M1215.4,213.7c-0.4,0-0.7-0.1-1-0.2c-0.3-0.1-0.5-0.3-0.7-0.5c-0.2-0.2-0.3-0.5-0.4-0.8
		c-0.1-0.3-0.1-0.6-0.1-0.9v-5.5h-1.1v-1h1.1v-2.7h1.3v2.7h1.9v1h-1.9v5.5c0,0.4,0.1,0.7,0.3,1c0.2,0.2,0.5,0.3,0.9,0.3h0.7v1.1
		H1215.4z"/>
	<path class="st6" d="M1224.6,213.7v-5.5c0-0.8-0.2-1.4-0.6-1.8c-0.4-0.4-0.9-0.6-1.6-0.6c-0.7,0-1.2,0.2-1.6,0.6
		c-0.4,0.4-0.6,1-0.6,1.8v5.5h-1.3v-8.9h1.3v1c0.3-0.4,0.7-0.6,1.1-0.8c0.4-0.2,0.9-0.3,1.4-0.3c1,0,1.7,0.3,2.3,0.8
		c0.6,0.6,0.9,1.4,0.9,2.5v5.7H1224.6z"/>
</g>
<g class="st5">
	<path class="st6" d="M1229.7,209.9v-1.6h4.9v1.6H1229.7z"/>
</g>
<g class="st5">
	<path class="st6" d="M1039.8,224.6v-1.5h1.5v1.5H1039.8z M1039.9,236v-8.9h1.3v8.9H1039.9z"/>
	<path class="st6" d="M1050.1,236v-5.5c0-0.8-0.2-1.4-0.6-1.8c-0.4-0.4-0.9-0.6-1.6-0.6s-1.2,0.2-1.6,0.6c-0.4,0.4-0.6,1-0.6,1.8
		v5.5h-1.3v-8.9h1.3v1c0.3-0.4,0.7-0.6,1.1-0.8c0.4-0.2,0.9-0.3,1.4-0.3c1,0,1.7,0.3,2.3,0.8c0.6,0.6,0.9,1.4,0.9,2.5v5.7H1050.1z"
		/>
	<path class="st6" d="M1061,236.3c0,0.6-0.1,1.1-0.3,1.5s-0.4,0.9-0.7,1.2c-0.3,0.3-0.7,0.6-1.2,0.8c-0.5,0.2-1,0.3-1.6,0.3
		c-0.3,0-0.6,0-0.9-0.1s-0.5-0.1-0.7-0.2s-0.5-0.2-0.7-0.4c-0.2-0.1-0.4-0.3-0.7-0.5l0.8-0.8c0.2,0.1,0.3,0.3,0.5,0.4
		c0.2,0.1,0.3,0.2,0.5,0.3s0.3,0.1,0.5,0.2c0.2,0,0.4,0.1,0.7,0.1c0.4,0,0.8-0.1,1.1-0.2c0.3-0.1,0.6-0.3,0.8-0.6
		c0.2-0.2,0.3-0.5,0.4-0.9c0.1-0.3,0.1-0.7,0.1-1.1v-1.4c-0.4,0.5-0.7,0.8-1.2,0.9c-0.4,0.2-0.9,0.2-1.3,0.2c-0.5,0-0.9-0.1-1.2-0.2
		c-0.4-0.1-0.7-0.3-0.9-0.6c-0.4-0.4-0.7-1-0.9-1.6c-0.1-0.6-0.2-1.3-0.2-2.1s0.1-1.4,0.2-2.1c0.1-0.6,0.4-1.2,0.9-1.6
		c0.2-0.2,0.5-0.4,0.9-0.6s0.8-0.2,1.2-0.2c0.5,0,0.9,0.1,1.3,0.2c0.4,0.2,0.8,0.5,1.1,0.9v-1h1.3V236.3z M1059.8,231.5
		c0-0.4,0-0.8-0.1-1.2c0-0.4-0.2-0.8-0.3-1.1c-0.2-0.3-0.4-0.6-0.7-0.7c-0.3-0.2-0.7-0.3-1.2-0.3c-0.5,0-0.9,0.1-1.2,0.3
		c-0.3,0.2-0.5,0.4-0.7,0.7c-0.2,0.3-0.3,0.7-0.3,1.1s-0.1,0.8-0.1,1.2c0,0.4,0,0.8,0.1,1.2c0,0.4,0.1,0.7,0.3,1.1
		c0.2,0.3,0.4,0.6,0.7,0.7c0.3,0.2,0.7,0.3,1.2,0.3c0.5,0,0.9-0.1,1.2-0.3c0.3-0.2,0.5-0.4,0.7-0.7c0.2-0.3,0.3-0.7,0.3-1.1
		C1059.7,232.4,1059.8,231.9,1059.8,231.5z"/>
	<path class="st6" d="M1070.7,233.4c0,0.9-0.3,1.5-1,2c-0.7,0.5-1.5,0.7-2.6,0.7c-0.8,0-1.4-0.1-2-0.3c-0.6-0.2-1.1-0.5-1.6-1
		l0.9-0.9c0.3,0.4,0.8,0.6,1.2,0.8c0.5,0.2,1,0.2,1.5,0.2c0.7,0,1.3-0.1,1.7-0.4c0.4-0.3,0.6-0.7,0.6-1.2c0-0.4-0.1-0.7-0.3-0.9
		c-0.2-0.2-0.6-0.3-1.1-0.4l-1.5-0.1c-0.9-0.1-1.5-0.3-2-0.7c-0.4-0.4-0.7-0.9-0.7-1.7c0-0.4,0.1-0.8,0.2-1.1s0.4-0.6,0.7-0.8
		c0.3-0.2,0.6-0.4,1-0.5c0.4-0.1,0.8-0.2,1.3-0.2c0.6,0,1.2,0.1,1.8,0.2c0.5,0.2,1,0.4,1.4,0.7l-0.8,0.8c-0.3-0.2-0.7-0.4-1.1-0.5
		c-0.4-0.1-0.8-0.2-1.3-0.2c-0.6,0-1.1,0.1-1.5,0.4c-0.3,0.3-0.5,0.6-0.5,1.1c0,0.4,0.1,0.7,0.4,0.9s0.7,0.3,1.2,0.4l1.4,0.1
		c0.4,0,0.7,0.1,1.1,0.2c0.3,0.1,0.6,0.2,0.8,0.4c0.2,0.2,0.4,0.4,0.5,0.7C1070.6,232.7,1070.7,233,1070.7,233.4z"/>
	<path class="st6" d="M1075.4,236c-0.8,0-1.4-0.2-1.7-0.7s-0.5-1-0.5-1.7v-10.5h1.3v10.4c0,0.4,0.1,0.8,0.3,1
		c0.2,0.2,0.5,0.3,0.9,0.3h0.7v1.1H1075.4z"/>
	<path class="st6" d="M1078.4,224.6v-1.5h1.5v1.5H1078.4z M1078.5,236v-8.9h1.3v8.9H1078.5z"/>
	<path class="st6" d="M1088.7,236v-5.5c0-0.8-0.2-1.4-0.6-1.8c-0.4-0.4-0.9-0.6-1.6-0.6s-1.2,0.2-1.6,0.6c-0.4,0.4-0.6,1-0.6,1.8
		v5.5h-1.3v-8.9h1.3v1c0.3-0.4,0.7-0.6,1.1-0.8c0.4-0.2,0.9-0.3,1.4-0.3c1,0,1.7,0.3,2.3,0.8c0.6,0.6,0.9,1.4,0.9,2.5v5.7H1088.7z"
		/>
	<path class="st6" d="M1094.5,237.6c0,0.3,0,0.6-0.1,0.9c-0.1,0.3-0.2,0.5-0.4,0.8c-0.2,0.2-0.4,0.4-0.7,0.5c-0.3,0.1-0.6,0.2-1,0.2
		h-0.9v-1.1h0.7c0.5,0,0.8-0.1,0.9-0.3c0.2-0.2,0.3-0.5,0.3-1v-10.4h1.3V237.6z M1093.1,224.6v-1.5h1.5v1.5H1093.1z"/>
	<path class="st6" d="M1098.5,231.9c0,1,0.2,1.7,0.7,2.3c0.4,0.5,1.1,0.8,2,0.8c0.5,0,0.9-0.1,1.3-0.2c0.3-0.2,0.7-0.4,1-0.8
		l0.9,0.8c-0.2,0.2-0.5,0.4-0.7,0.6s-0.5,0.3-0.7,0.4c-0.3,0.1-0.5,0.2-0.8,0.3c-0.3,0.1-0.6,0.1-1,0.1c-0.6,0-1.1-0.1-1.6-0.3
		s-0.9-0.5-1.2-0.8c-0.3-0.4-0.6-0.8-0.8-1.4c-0.2-0.6-0.3-1.2-0.3-2c0-1.5,0.3-2.6,1-3.4s1.5-1.2,2.7-1.2c1.2,0,2.1,0.4,2.7,1.1
		c0.6,0.8,0.9,1.8,0.9,3.2v0.6H1098.5z M1103.2,231c0-0.2,0-0.3,0-0.5c0-0.1,0-0.3,0-0.4c0-0.1,0-0.2-0.1-0.3c0-0.1-0.1-0.2-0.1-0.3
		c-0.2-0.4-0.5-0.7-0.8-1s-0.8-0.4-1.3-0.4s-0.9,0.1-1.3,0.4s-0.6,0.6-0.8,1c-0.1,0.1-0.1,0.2-0.1,0.3c0,0.1-0.1,0.2-0.1,0.3
		c0,0.1,0,0.2,0,0.4c0,0.1,0,0.3,0,0.5H1103.2z"/>
	<path class="st6" d="M1112.2,228.9c-0.2-0.2-0.5-0.4-0.7-0.5s-0.5-0.1-0.8-0.1c-0.3,0-0.6,0.1-0.9,0.2c-0.3,0.1-0.5,0.3-0.7,0.5
		c-0.2,0.2-0.3,0.5-0.4,0.8s-0.2,0.6-0.2,0.9v5.4h-1.3v-8.9h1.3v1.1c0.2-0.4,0.6-0.7,1-0.9c0.4-0.2,0.9-0.3,1.4-0.3
		c0.4,0,0.8,0.1,1.1,0.2s0.7,0.3,1,0.6L1112.2,228.9z"/>
	<path class="st6" d="M1120.9,228.2v7.9h-1.3v-7.9h-1.1v-1h1.1v-1.6c0-0.3,0-0.6,0.1-0.9c0.1-0.3,0.2-0.5,0.4-0.8
		c0.2-0.2,0.4-0.4,0.7-0.5s0.6-0.2,1-0.2h0.9v1.1h-0.7c-0.4,0-0.7,0.1-0.9,0.3c-0.2,0.2-0.3,0.5-0.3,1v1.6h1.9v1H1120.9z"/>
	<path class="st6" d="M1131.5,231.6c0,0.7-0.1,1.3-0.2,1.9c-0.1,0.6-0.4,1.1-0.9,1.6c-0.3,0.3-0.7,0.6-1.1,0.7s-0.9,0.3-1.4,0.3
		c-0.5,0-1-0.1-1.4-0.3s-0.8-0.4-1.1-0.7c-0.2-0.2-0.4-0.5-0.5-0.7c-0.1-0.3-0.2-0.6-0.3-0.8s-0.1-0.6-0.2-0.9c0-0.3,0-0.7,0-1
		c0-0.7,0.1-1.3,0.2-1.9c0.1-0.6,0.4-1.1,0.9-1.6c0.3-0.3,0.7-0.6,1.1-0.7c0.4-0.2,0.9-0.3,1.4-0.3c0.5,0,1,0.1,1.4,0.3
		c0.4,0.2,0.8,0.4,1.1,0.7c0.5,0.5,0.7,1,0.9,1.6C1131.4,230.3,1131.5,230.9,1131.5,231.6z M1130.2,231.6c0-0.5,0-1-0.1-1.5
		s-0.3-0.9-0.6-1.2c-0.4-0.4-1-0.6-1.6-0.6c-0.6,0-1.2,0.2-1.6,0.6c-0.3,0.3-0.5,0.7-0.6,1.2s-0.1,1-0.1,1.5c0,0.3,0,0.5,0,0.8
		c0,0.3,0,0.5,0.1,0.7c0,0.2,0.1,0.5,0.2,0.7s0.2,0.4,0.4,0.6c0.4,0.4,1,0.6,1.6,0.6c0.6,0,1.2-0.2,1.6-0.6c0.3-0.3,0.5-0.7,0.6-1.2
		S1130.2,232.1,1130.2,231.6z"/>
	<path class="st6" d="M1139.2,228.9c-0.2-0.2-0.5-0.4-0.7-0.5c-0.2-0.1-0.5-0.1-0.8-0.1c-0.3,0-0.6,0.1-0.9,0.2
		c-0.3,0.1-0.5,0.3-0.7,0.5c-0.2,0.2-0.3,0.5-0.4,0.8c-0.1,0.3-0.2,0.6-0.2,0.9v5.4h-1.3v-8.9h1.3v1.1c0.2-0.4,0.6-0.7,1-0.9
		c0.5-0.2,0.9-0.3,1.4-0.3c0.4,0,0.8,0.1,1.1,0.2s0.7,0.3,1,0.6L1139.2,228.9z"/>
	<path class="st6" d="M1151.3,236v-0.8c-0.3,0.3-0.7,0.6-1.1,0.7c-0.4,0.1-0.9,0.2-1.5,0.2c-0.6,0-1.1-0.1-1.5-0.2
		c-0.4-0.1-0.7-0.3-1-0.6c-0.2-0.2-0.4-0.5-0.5-0.8s-0.2-0.7-0.2-1c0-0.8,0.3-1.4,0.8-1.9s1.3-0.7,2.3-0.7h2.6v-0.8
		c0-0.6-0.2-1.1-0.5-1.5c-0.3-0.3-0.9-0.5-1.8-0.5c-0.6,0-1,0.1-1.3,0.2c-0.3,0.2-0.6,0.4-0.9,0.8l-0.9-0.8c0.4-0.5,0.8-0.9,1.3-1.1
		c0.5-0.2,1.1-0.3,1.8-0.3c1.2,0,2.1,0.3,2.7,0.8c0.6,0.5,0.9,1.2,0.9,2.2v6H1151.3z M1151.3,231.9h-2.5c-1.3,0-2,0.5-2,1.6
		c0,0.5,0.2,0.9,0.5,1.1s0.8,0.4,1.6,0.4c0.4,0,0.7,0,1-0.1c0.3-0.1,0.6-0.2,0.9-0.5c0.3-0.3,0.4-0.8,0.4-1.5V231.9z"/>
	<path class="st6" d="M1158,236c-0.8,0-1.3-0.2-1.7-0.7s-0.5-1-0.5-1.7v-10.5h1.3v10.4c0,0.4,0.1,0.8,0.3,1c0.2,0.2,0.5,0.3,0.9,0.3
		h0.7v1.1H1158z"/>
	<path class="st6" d="M1163.3,236c-0.8,0-1.3-0.2-1.7-0.7s-0.5-1-0.5-1.7v-10.5h1.3v10.4c0,0.4,0.1,0.8,0.3,1
		c0.2,0.2,0.5,0.3,0.9,0.3h0.7v1.1H1163.3z"/>
	<path class="st6" d="M1167,231.9c0,1,0.2,1.7,0.7,2.3c0.4,0.5,1.1,0.8,2,0.8c0.5,0,0.9-0.1,1.3-0.2c0.3-0.2,0.7-0.4,1-0.8l0.9,0.8
		c-0.2,0.2-0.5,0.4-0.7,0.6c-0.2,0.2-0.5,0.3-0.7,0.4c-0.3,0.1-0.5,0.2-0.8,0.3c-0.3,0.1-0.6,0.1-1,0.1c-0.6,0-1.1-0.1-1.6-0.3
		c-0.5-0.2-0.9-0.5-1.2-0.8c-0.3-0.4-0.6-0.8-0.8-1.4c-0.2-0.6-0.3-1.2-0.3-2c0-1.5,0.3-2.6,1-3.4c0.6-0.8,1.5-1.2,2.7-1.2
		c1.2,0,2.1,0.4,2.7,1.1c0.6,0.8,0.9,1.8,0.9,3.2v0.6H1167z M1171.7,231c0-0.2,0-0.3,0-0.5c0-0.1,0-0.3,0-0.4c0-0.1,0-0.2-0.1-0.3
		c0-0.1-0.1-0.2-0.1-0.3c-0.2-0.4-0.5-0.7-0.8-1c-0.4-0.2-0.8-0.4-1.3-0.4c-0.5,0-0.9,0.1-1.3,0.4c-0.4,0.2-0.6,0.6-0.8,1
		c-0.1,0.1-0.1,0.2-0.1,0.3c0,0.1-0.1,0.2-0.1,0.3c0,0.1,0,0.2,0,0.4c0,0.1,0,0.3,0,0.5H1171.7z"/>
	<path class="st6" d="M1181.8,228.2v7.9h-1.3v-7.9h-1.1v-1h1.1v-1.6c0-0.3,0-0.6,0.1-0.9c0.1-0.3,0.2-0.5,0.4-0.8
		c0.2-0.2,0.4-0.4,0.7-0.5s0.6-0.2,1-0.2h0.9v1.1h-0.7c-0.4,0-0.7,0.1-0.9,0.3c-0.2,0.2-0.3,0.5-0.3,1v1.6h1.9v1H1181.8z"/>
	<path class="st6" d="M1192.3,231.6c0,0.7-0.1,1.3-0.2,1.9c-0.1,0.6-0.4,1.1-0.9,1.6c-0.3,0.3-0.7,0.6-1.1,0.7s-0.9,0.3-1.4,0.3
		c-0.5,0-1-0.1-1.4-0.3s-0.8-0.4-1.1-0.7c-0.2-0.2-0.4-0.5-0.5-0.7c-0.1-0.3-0.2-0.6-0.3-0.8c-0.1-0.3-0.1-0.6-0.2-0.9
		c0-0.3,0-0.7,0-1c0-0.7,0.1-1.3,0.2-1.9c0.1-0.6,0.4-1.1,0.9-1.6c0.3-0.3,0.7-0.6,1.1-0.7c0.4-0.2,0.9-0.3,1.4-0.3
		c0.5,0,1,0.1,1.4,0.3c0.4,0.2,0.8,0.4,1.1,0.7c0.5,0.5,0.8,1,0.9,1.6C1192.3,230.3,1192.3,230.9,1192.3,231.6z M1191,231.6
		c0-0.5,0-1-0.1-1.5c-0.1-0.5-0.3-0.9-0.6-1.2c-0.4-0.4-1-0.6-1.6-0.6c-0.6,0-1.2,0.2-1.6,0.6c-0.3,0.3-0.5,0.7-0.6,1.2
		c-0.1,0.5-0.1,1-0.1,1.5c0,0.3,0,0.5,0,0.8s0,0.5,0.1,0.7s0.1,0.5,0.2,0.7c0.1,0.2,0.2,0.4,0.4,0.6c0.4,0.4,1,0.6,1.6,0.6
		c0.6,0,1.2-0.2,1.6-0.6c0.3-0.3,0.5-0.7,0.6-1.2C1191,232.6,1191,232.1,1191,231.6z"/>
	<path class="st6" d="M1200.1,228.9c-0.2-0.2-0.5-0.4-0.7-0.5s-0.5-0.1-0.8-0.1c-0.3,0-0.6,0.1-0.9,0.2c-0.3,0.1-0.5,0.3-0.7,0.5
		c-0.2,0.2-0.3,0.5-0.4,0.8c-0.1,0.3-0.2,0.6-0.2,0.9v5.4h-1.3v-8.9h1.3v1.1c0.2-0.4,0.6-0.7,1-0.9c0.5-0.2,0.9-0.3,1.4-0.3
		c0.4,0,0.8,0.1,1.1,0.2s0.7,0.3,1,0.6L1200.1,228.9z"/>
	<path class="st6" d="M1203,231.9c0,1,0.2,1.7,0.7,2.3c0.4,0.5,1.1,0.8,2,0.8c0.5,0,0.9-0.1,1.3-0.2c0.3-0.2,0.7-0.4,1-0.8l0.9,0.8
		c-0.2,0.2-0.5,0.4-0.7,0.6c-0.2,0.2-0.5,0.3-0.7,0.4c-0.3,0.1-0.5,0.2-0.8,0.3c-0.3,0.1-0.6,0.1-1,0.1c-0.6,0-1.1-0.1-1.6-0.3
		c-0.5-0.2-0.9-0.5-1.2-0.8c-0.3-0.4-0.6-0.8-0.8-1.4c-0.2-0.6-0.3-1.2-0.3-2c0-1.5,0.3-2.6,1-3.4c0.6-0.8,1.5-1.2,2.7-1.2
		c1.2,0,2.1,0.4,2.7,1.1c0.6,0.8,0.9,1.8,0.9,3.2v0.6H1203z M1207.7,231c0-0.2,0-0.3,0-0.5c0-0.1,0-0.3,0-0.4c0-0.1,0-0.2-0.1-0.3
		c0-0.1-0.1-0.2-0.1-0.3c-0.2-0.4-0.5-0.7-0.8-1c-0.4-0.2-0.8-0.4-1.3-0.4c-0.5,0-0.9,0.1-1.3,0.4c-0.4,0.2-0.6,0.6-0.8,1
		c-0.1,0.1-0.1,0.2-0.1,0.3c0,0.1-0.1,0.2-0.1,0.3c0,0.1,0,0.2,0,0.4c0,0.1,0,0.3,0,0.5H1207.7z"/>
	<path class="st6" d="M1214.2,236c-0.4,0-0.7-0.1-1-0.2c-0.3-0.1-0.5-0.3-0.7-0.5c-0.2-0.2-0.3-0.5-0.4-0.8
		c-0.1-0.3-0.1-0.6-0.1-0.9v-5.5h-1.1v-1h1.1v-2.7h1.3v2.7h1.9v1h-1.9v5.5c0,0.4,0.1,0.7,0.3,1c0.2,0.2,0.5,0.3,0.9,0.3h0.7v1.1
		H1214.2z"/>
	<path class="st6" d="M1222.6,236v-0.8c-0.3,0.3-0.7,0.6-1.1,0.7c-0.4,0.1-0.9,0.2-1.5,0.2c-0.6,0-1.1-0.1-1.5-0.2
		c-0.4-0.1-0.7-0.3-1-0.6c-0.2-0.2-0.4-0.5-0.5-0.8s-0.2-0.7-0.2-1c0-0.8,0.3-1.4,0.8-1.9s1.3-0.7,2.3-0.7h2.6v-0.8
		c0-0.6-0.2-1.1-0.5-1.5c-0.3-0.3-0.9-0.5-1.8-0.5c-0.6,0-1,0.1-1.3,0.2c-0.3,0.2-0.6,0.4-0.9,0.8l-0.9-0.8c0.4-0.5,0.8-0.9,1.3-1.1
		c0.5-0.2,1.1-0.3,1.8-0.3c1.2,0,2.1,0.3,2.7,0.8c0.6,0.5,0.9,1.2,0.9,2.2v6H1222.6z M1222.6,231.9h-2.5c-1.3,0-2,0.5-2,1.6
		c0,0.5,0.2,0.9,0.5,1.1s0.8,0.4,1.6,0.4c0.4,0,0.7,0,1-0.1c0.3-0.1,0.6-0.2,0.9-0.5c0.3-0.3,0.4-0.8,0.4-1.5V231.9z"/>
	<path class="st6" d="M1232.9,236l-2.8-4.5l-1.7,2v2.6h-1.3v-12.8h1.3v8.6l4-4.6h1.6l-3,3.4l3.5,5.5H1232.9z"/>
</g>
<g class="st5">
	<path class="st6" d="M1039.8,247v-1.5h1.5v1.5H1039.8z M1039.9,258.3v-8.9h1.3v8.9H1039.9z"/>
	<path class="st6" d="M1055.9,253.9c0,0.7-0.1,1.4-0.2,2.1c-0.1,0.7-0.4,1.2-0.9,1.7c-0.2,0.2-0.5,0.4-0.9,0.6
		c-0.4,0.1-0.8,0.2-1.2,0.2c-0.5,0-1-0.1-1.4-0.2s-0.8-0.5-1.2-0.9v1.1h-1.3v-12.8h1.3v5c0.4-0.5,0.8-0.8,1.2-0.9
		c0.4-0.1,0.8-0.2,1.3-0.2c0.5,0,0.9,0.1,1.2,0.2c0.4,0.1,0.7,0.3,0.9,0.6c0.2,0.2,0.4,0.5,0.5,0.8c0.1,0.3,0.3,0.6,0.3,0.9
		c0.1,0.3,0.1,0.7,0.2,1C1055.9,253.2,1055.9,253.5,1055.9,253.9z M1054.6,253.9c0-0.4,0-0.9-0.1-1.3c0-0.4-0.2-0.8-0.3-1.1
		c-0.2-0.3-0.4-0.6-0.7-0.8c-0.3-0.2-0.7-0.3-1.2-0.3c-0.5,0-0.9,0.1-1.2,0.3c-0.3,0.2-0.5,0.4-0.7,0.8c-0.2,0.3-0.3,0.7-0.3,1.1
		c0,0.4-0.1,0.8-0.1,1.3c0,0.4,0,0.9,0.1,1.3s0.2,0.8,0.3,1.1s0.4,0.6,0.7,0.8c0.3,0.2,0.7,0.3,1.2,0.3c0.5,0,0.9-0.1,1.2-0.3
		c0.3-0.2,0.5-0.4,0.7-0.8s0.3-0.7,0.3-1.1C1054.6,254.8,1054.6,254.3,1054.6,253.9z"/>
	<path class="st6" d="M1063.6,251.2c-0.2-0.2-0.5-0.4-0.7-0.5c-0.2-0.1-0.5-0.1-0.8-0.1c-0.3,0-0.6,0.1-0.9,0.2s-0.5,0.3-0.7,0.5
		s-0.3,0.5-0.4,0.8s-0.2,0.6-0.2,0.9v5.4h-1.3v-8.9h1.3v1.1c0.2-0.4,0.6-0.7,1-0.9c0.5-0.2,0.9-0.3,1.4-0.3c0.4,0,0.8,0.1,1.1,0.2
		s0.7,0.3,1,0.6L1063.6,251.2z"/>
	<path class="st6" d="M1071.1,258.3v-0.8c-0.3,0.3-0.7,0.6-1.1,0.7c-0.4,0.1-0.9,0.2-1.5,0.2c-0.6,0-1.1-0.1-1.5-0.2
		c-0.4-0.1-0.7-0.3-1-0.6c-0.2-0.2-0.4-0.5-0.5-0.8s-0.2-0.7-0.2-1c0-0.8,0.3-1.4,0.8-1.9s1.3-0.7,2.3-0.7h2.6v-0.8
		c0-0.6-0.2-1.1-0.5-1.5c-0.3-0.3-0.9-0.5-1.8-0.5c-0.6,0-1,0.1-1.3,0.2c-0.3,0.2-0.6,0.4-0.9,0.8l-0.9-0.8c0.4-0.5,0.8-0.9,1.3-1.1
		c0.5-0.2,1.1-0.3,1.8-0.3c1.2,0,2.1,0.3,2.7,0.8s0.9,1.2,0.9,2.2v6H1071.1z M1071.1,254.2h-2.5c-1.3,0-2,0.5-2,1.6
		c0,0.5,0.2,0.9,0.5,1.1s0.8,0.4,1.6,0.4c0.4,0,0.7,0,1-0.1c0.3-0.1,0.6-0.2,0.9-0.5c0.3-0.3,0.5-0.8,0.5-1.5V254.2z"/>
	<path class="st6" d="M1081.2,258.3v-5.5c0-0.8-0.2-1.4-0.6-1.8c-0.4-0.4-0.9-0.6-1.6-0.6s-1.2,0.2-1.6,0.6c-0.4,0.4-0.6,1-0.6,1.8
		v5.5h-1.3v-8.9h1.3v1c0.3-0.4,0.7-0.6,1.1-0.8c0.4-0.2,0.9-0.3,1.4-0.3c1,0,1.7,0.3,2.3,0.8c0.6,0.6,0.9,1.4,0.9,2.5v5.7H1081.2z"
		/>
	<path class="st6" d="M1092.1,255.7c0,0.9-0.3,1.5-1,2c-0.7,0.5-1.5,0.7-2.6,0.7c-0.8,0-1.4-0.1-2-0.3c-0.6-0.2-1.1-0.5-1.6-1
		l0.9-0.9c0.3,0.4,0.8,0.6,1.2,0.8c0.5,0.2,1,0.2,1.5,0.2c0.7,0,1.3-0.1,1.7-0.4c0.4-0.3,0.6-0.7,0.6-1.2c0-0.4-0.1-0.7-0.3-0.9
		c-0.2-0.2-0.6-0.3-1.1-0.4l-1.5-0.1c-0.9-0.1-1.5-0.3-2-0.7c-0.5-0.4-0.7-0.9-0.7-1.7c0-0.4,0.1-0.8,0.2-1.1s0.4-0.6,0.7-0.8
		c0.3-0.2,0.6-0.4,1-0.5c0.4-0.1,0.8-0.2,1.3-0.2c0.6,0,1.2,0.1,1.8,0.2c0.5,0.2,1,0.4,1.4,0.7l-0.8,0.8c-0.3-0.2-0.7-0.4-1.1-0.5
		c-0.4-0.1-0.8-0.2-1.3-0.2c-0.6,0-1.1,0.1-1.5,0.4c-0.3,0.3-0.5,0.6-0.5,1.1c0,0.4,0.1,0.7,0.4,0.9s0.7,0.3,1.2,0.4l1.4,0.1
		c0.4,0,0.7,0.1,1.1,0.2c0.3,0.1,0.6,0.2,0.8,0.4c0.2,0.2,0.4,0.4,0.5,0.7C1092,255,1092.1,255.3,1092.1,255.7z"/>
	<path class="st6" d="M1095.9,259.9c0,0.3,0,0.6-0.1,0.9s-0.2,0.5-0.4,0.8c-0.2,0.2-0.4,0.4-0.7,0.5s-0.6,0.2-1,0.2h-0.9v-1.1h0.7
		c0.5,0,0.8-0.1,0.9-0.3c0.2-0.2,0.3-0.5,0.3-1v-10.4h1.3V259.9z M1094.5,247v-1.5h1.5v1.5H1094.5z"/>
	<path class="st6" d="M1100,254.2c0,1,0.2,1.7,0.7,2.3c0.4,0.5,1.1,0.8,2,0.8c0.5,0,0.9-0.1,1.3-0.2c0.3-0.2,0.7-0.4,1-0.8l0.9,0.8
		c-0.2,0.2-0.5,0.4-0.7,0.6c-0.2,0.2-0.5,0.3-0.7,0.4c-0.3,0.1-0.5,0.2-0.8,0.3c-0.3,0.1-0.6,0.1-1,0.1c-0.6,0-1.1-0.1-1.6-0.3
		c-0.5-0.2-0.9-0.5-1.2-0.8c-0.3-0.4-0.6-0.8-0.8-1.4c-0.2-0.6-0.3-1.2-0.3-2c0-1.5,0.3-2.6,1-3.4c0.6-0.8,1.5-1.2,2.7-1.2
		c1.2,0,2.1,0.4,2.7,1.1c0.6,0.8,0.9,1.8,0.9,3.2v0.6H1100z M1104.7,253.3c0-0.2,0-0.3,0-0.5c0-0.1,0-0.3,0-0.4c0-0.1,0-0.2-0.1-0.3
		c0-0.1-0.1-0.2-0.1-0.3c-0.2-0.4-0.5-0.7-0.8-1c-0.4-0.2-0.8-0.4-1.3-0.4c-0.5,0-0.9,0.1-1.3,0.4c-0.4,0.2-0.6,0.6-0.8,1
		c-0.1,0.1-0.1,0.2-0.1,0.3c0,0.1-0.1,0.2-0.1,0.3c0,0.1,0,0.2,0,0.4c0,0.1,0,0.3,0,0.5H1104.7z"/>
	<path class="st6" d="M1114.4,258.3v-5.5c0-0.8-0.2-1.4-0.6-1.8c-0.4-0.4-0.9-0.6-1.6-0.6s-1.2,0.2-1.6,0.6c-0.4,0.4-0.6,1-0.6,1.8
		v5.5h-1.3v-8.9h1.3v1c0.3-0.4,0.7-0.6,1.1-0.8c0.4-0.2,0.9-0.3,1.4-0.3c1,0,1.7,0.3,2.3,0.8c0.6,0.6,0.9,1.4,0.9,2.5v5.7H1114.4z"
		/>
	<path class="st6" d="M1129.7,255.7c0,0.9-0.3,1.5-1,2c-0.7,0.5-1.5,0.7-2.6,0.7c-0.8,0-1.4-0.1-2-0.3c-0.6-0.2-1.1-0.5-1.6-1
		l0.9-0.9c0.3,0.4,0.8,0.6,1.2,0.8c0.5,0.2,1,0.2,1.5,0.2c0.7,0,1.3-0.1,1.7-0.4c0.4-0.3,0.6-0.7,0.6-1.2c0-0.4-0.1-0.7-0.3-0.9
		c-0.2-0.2-0.6-0.3-1.1-0.4l-1.5-0.1c-0.9-0.1-1.5-0.3-2-0.7c-0.5-0.4-0.7-0.9-0.7-1.7c0-0.4,0.1-0.8,0.2-1.1s0.4-0.6,0.7-0.8
		c0.3-0.2,0.6-0.4,1-0.5c0.4-0.1,0.8-0.2,1.3-0.2c0.6,0,1.2,0.1,1.8,0.2c0.5,0.2,1,0.4,1.4,0.7l-0.8,0.8c-0.3-0.2-0.7-0.4-1.1-0.5
		c-0.4-0.1-0.8-0.2-1.3-0.2c-0.6,0-1.1,0.1-1.5,0.4c-0.3,0.3-0.5,0.6-0.5,1.1c0,0.4,0.1,0.7,0.4,0.9s0.7,0.3,1.2,0.4l1.4,0.1
		c0.4,0,0.7,0.1,1.1,0.2c0.3,0.1,0.6,0.2,0.8,0.4c0.2,0.2,0.4,0.4,0.5,0.7C1129.6,255,1129.7,255.3,1129.7,255.7z"/>
	<path class="st6" d="M1139,253.9c0,0.7-0.1,1.3-0.2,1.9c-0.1,0.6-0.4,1.1-0.9,1.6c-0.3,0.3-0.7,0.6-1.1,0.7s-0.9,0.3-1.4,0.3
		c-0.5,0-1-0.1-1.4-0.3s-0.8-0.4-1.1-0.7c-0.2-0.2-0.4-0.5-0.5-0.7c-0.1-0.3-0.2-0.6-0.3-0.8s-0.1-0.6-0.2-0.9c0-0.3,0-0.7,0-1
		c0-0.7,0.1-1.3,0.2-1.9c0.1-0.6,0.4-1.1,0.9-1.6c0.3-0.3,0.7-0.6,1.1-0.7c0.4-0.2,0.9-0.3,1.4-0.3c0.5,0,1,0.1,1.4,0.3
		c0.4,0.2,0.8,0.4,1.1,0.7c0.5,0.5,0.7,1,0.9,1.6C1138.9,252.6,1139,253.2,1139,253.9z M1137.7,253.9c0-0.5,0-1-0.1-1.5
		s-0.3-0.9-0.6-1.2c-0.4-0.4-1-0.6-1.6-0.6c-0.6,0-1.2,0.2-1.6,0.6c-0.3,0.3-0.5,0.7-0.6,1.2s-0.1,1-0.1,1.5c0,0.3,0,0.5,0,0.8
		c0,0.3,0,0.5,0.1,0.7c0,0.2,0.1,0.5,0.2,0.7s0.2,0.4,0.4,0.6c0.4,0.4,1,0.6,1.6,0.6c0.6,0,1.2-0.2,1.6-0.6c0.3-0.3,0.5-0.7,0.6-1.2
		S1137.7,254.4,1137.7,253.9z"/>
	<path class="st6" d="M1153.1,258.3v-5.5c0-0.8-0.2-1.4-0.6-1.8c-0.4-0.4-0.9-0.6-1.6-0.6c-0.6,0-1.2,0.2-1.6,0.6
		c-0.4,0.4-0.6,0.9-0.6,1.6v5.6h-1.3v-5.5c0-0.8-0.2-1.4-0.6-1.8c-0.4-0.4-0.9-0.6-1.6-0.6s-1.2,0.2-1.6,0.6c-0.4,0.4-0.6,1-0.6,1.8
		v5.5h-1.3v-8.9h1.3v1c0.3-0.4,0.7-0.6,1.1-0.8c0.4-0.2,0.9-0.3,1.4-0.3c0.6,0,1.1,0.1,1.6,0.4s0.8,0.6,1.1,1.1
		c0.7-1,1.7-1.5,2.9-1.5c0.5,0,0.9,0.1,1.3,0.2c0.4,0.1,0.7,0.3,1,0.6c0.6,0.6,1,1.4,1,2.5v5.7H1153.1z"/>
	<path class="st6" d="M1167.4,258.3v-1.1c-0.4,0.5-0.8,0.8-1.2,0.9s-0.9,0.2-1.4,0.2c-0.5,0-0.9-0.1-1.2-0.2
		c-0.4-0.1-0.7-0.3-0.9-0.6c-0.4-0.5-0.7-1-0.9-1.7c-0.1-0.7-0.2-1.4-0.2-2.1c0-0.4,0-0.7,0-1.1c0-0.4,0.1-0.7,0.2-1
		c0.1-0.3,0.2-0.6,0.3-0.9c0.1-0.3,0.3-0.5,0.5-0.8c0.2-0.2,0.5-0.4,0.9-0.6c0.4-0.1,0.8-0.2,1.2-0.2c0.5,0,1,0.1,1.4,0.2
		c0.4,0.2,0.8,0.5,1.2,0.9v-5h1.3v12.8H1167.4z M1167.3,253.9c0-0.4,0-0.9-0.1-1.3c0-0.4-0.2-0.8-0.3-1.1c-0.2-0.3-0.4-0.6-0.7-0.8
		c-0.3-0.2-0.7-0.3-1.2-0.3c-0.5,0-0.9,0.1-1.2,0.3c-0.3,0.2-0.5,0.4-0.7,0.8c-0.2,0.3-0.3,0.7-0.3,1.1c0,0.4-0.1,0.8-0.1,1.3
		c0,0.4,0,0.9,0.1,1.3s0.2,0.8,0.3,1.1s0.4,0.6,0.7,0.8c0.3,0.2,0.7,0.3,1.2,0.3c0.5,0,0.9-0.1,1.2-0.3c0.3-0.2,0.5-0.4,0.7-0.8
		c0.2-0.3,0.3-0.7,0.3-1.1C1167.3,254.8,1167.3,254.3,1167.3,253.9z"/>
	<path class="st6" d="M1177.5,258.3v-1c-0.3,0.4-0.7,0.6-1.1,0.8c-0.4,0.2-0.9,0.3-1.4,0.3c-1,0-1.7-0.3-2.3-0.8
		c-0.3-0.3-0.5-0.7-0.7-1.1c-0.1-0.4-0.2-0.9-0.2-1.4v-5.7h1.3v5.5c0,0.8,0.2,1.4,0.6,1.8c0.4,0.4,0.9,0.6,1.6,0.6
		c0.7,0,1.2-0.2,1.6-0.6c0.4-0.4,0.6-1,0.6-1.8v-5.5h1.3v8.9H1177.5z"/>
	<path class="st6" d="M1197.8,258.3v-5.5c0-0.8-0.2-1.4-0.6-1.8c-0.4-0.4-0.9-0.6-1.6-0.6c-0.6,0-1.2,0.2-1.6,0.6
		c-0.4,0.4-0.6,0.9-0.6,1.6v5.6h-1.3v-5.5c0-0.8-0.2-1.4-0.6-1.8c-0.4-0.4-0.9-0.6-1.6-0.6s-1.2,0.2-1.6,0.6c-0.4,0.4-0.6,1-0.6,1.8
		v5.5h-1.3v-8.9h1.3v1c0.3-0.4,0.7-0.6,1.1-0.8c0.4-0.2,0.9-0.3,1.4-0.3c0.6,0,1.1,0.1,1.6,0.4s0.8,0.6,1.1,1.1
		c0.7-1,1.7-1.5,2.9-1.5c0.5,0,0.9,0.1,1.3,0.2c0.4,0.1,0.7,0.3,1,0.6c0.6,0.6,1,1.4,1,2.5v5.7H1197.8z"/>
	<path class="st6" d="M1207.3,258.3v-0.8c-0.3,0.3-0.7,0.6-1.1,0.7c-0.4,0.1-0.9,0.2-1.5,0.2c-0.6,0-1.1-0.1-1.5-0.2
		c-0.4-0.1-0.7-0.3-1-0.6c-0.2-0.2-0.4-0.5-0.5-0.8s-0.2-0.7-0.2-1c0-0.8,0.3-1.4,0.8-1.9s1.3-0.7,2.3-0.7h2.6v-0.8
		c0-0.6-0.2-1.1-0.5-1.5c-0.3-0.3-0.9-0.5-1.8-0.5c-0.6,0-1,0.1-1.3,0.2c-0.3,0.2-0.6,0.4-0.9,0.8l-0.9-0.8c0.4-0.5,0.8-0.9,1.3-1.1
		c0.5-0.2,1.1-0.3,1.8-0.3c1.2,0,2.1,0.3,2.7,0.8c0.6,0.5,0.9,1.2,0.9,2.2v6H1207.3z M1207.3,254.2h-2.5c-1.3,0-2,0.5-2,1.6
		c0,0.5,0.2,0.9,0.5,1.1s0.8,0.4,1.6,0.4c0.4,0,0.7,0,1-0.1c0.3-0.1,0.6-0.2,0.9-0.5c0.3-0.3,0.4-0.8,0.4-1.5V254.2z M1207.3,246
		c0,0.3-0.1,0.6-0.2,0.8c-0.1,0.3-0.3,0.5-0.5,0.7c-0.2,0.2-0.4,0.3-0.7,0.5c-0.3,0.1-0.5,0.2-0.8,0.2s-0.6-0.1-0.8-0.2
		c-0.3-0.1-0.5-0.3-0.7-0.5c-0.2-0.2-0.3-0.4-0.5-0.7c-0.1-0.3-0.2-0.5-0.2-0.8s0.1-0.6,0.2-0.8c0.1-0.3,0.3-0.5,0.5-0.7
		c0.2-0.2,0.4-0.3,0.7-0.5c0.3-0.1,0.5-0.2,0.8-0.2s0.6,0.1,0.8,0.2c0.3,0.1,0.5,0.3,0.7,0.5c0.2,0.2,0.3,0.4,0.5,0.7
		C1207.3,245.4,1207.3,245.7,1207.3,246z M1206.5,246c0-0.3-0.1-0.6-0.4-0.9c-0.2-0.2-0.5-0.4-0.9-0.4c-0.3,0-0.6,0.1-0.9,0.4
		c-0.2,0.2-0.4,0.5-0.4,0.9c0,0.3,0.1,0.6,0.4,0.9c0.2,0.2,0.5,0.4,0.9,0.4c0.3,0,0.6-0.1,0.9-0.4
		C1206.3,246.6,1206.5,246.3,1206.5,246z"/>
</g>
<g class="st5">
	<path class="st6" d="M1046.3,278c0,0.9-0.3,1.5-1,2c-0.7,0.5-1.5,0.7-2.6,0.7c-0.8,0-1.4-0.1-2-0.3c-0.6-0.2-1.1-0.5-1.6-1l0.9-0.9
		c0.3,0.4,0.8,0.6,1.2,0.8c0.5,0.2,1,0.2,1.5,0.2c0.7,0,1.3-0.1,1.7-0.4c0.4-0.3,0.6-0.7,0.6-1.2c0-0.4-0.1-0.7-0.3-0.9
		c-0.2-0.2-0.6-0.3-1.1-0.4l-1.5-0.1c-0.9-0.1-1.5-0.3-2-0.7c-0.4-0.4-0.7-0.9-0.7-1.7c0-0.4,0.1-0.8,0.2-1.1s0.4-0.6,0.7-0.8
		c0.3-0.2,0.6-0.4,1-0.5c0.4-0.1,0.8-0.2,1.3-0.2c0.6,0,1.2,0.1,1.8,0.2c0.5,0.2,1,0.4,1.4,0.7l-0.8,0.8c-0.3-0.2-0.7-0.4-1.1-0.5
		c-0.4-0.1-0.8-0.2-1.3-0.2c-0.6,0-1.1,0.1-1.5,0.4c-0.3,0.3-0.5,0.6-0.5,1.1c0,0.4,0.1,0.7,0.4,0.9s0.7,0.3,1.2,0.4l1.4,0.1
		c0.4,0,0.7,0.1,1.1,0.2c0.3,0.1,0.6,0.2,0.8,0.4c0.2,0.2,0.4,0.4,0.5,0.7C1046.2,277.3,1046.3,277.6,1046.3,278z"/>
	<path class="st6" d="M1049.6,276.5c0,1,0.2,1.7,0.7,2.3c0.4,0.5,1.1,0.8,2,0.8c0.5,0,0.9-0.1,1.3-0.2c0.3-0.2,0.7-0.4,1-0.8
		l0.9,0.8c-0.2,0.2-0.5,0.4-0.7,0.6c-0.2,0.2-0.5,0.3-0.7,0.4c-0.3,0.1-0.5,0.2-0.8,0.3c-0.3,0.1-0.6,0.1-1,0.1
		c-0.6,0-1.1-0.1-1.6-0.3c-0.5-0.2-0.9-0.5-1.2-0.8c-0.3-0.4-0.6-0.8-0.8-1.4c-0.2-0.6-0.3-1.2-0.3-2c0-1.5,0.3-2.6,1-3.4
		c0.6-0.8,1.5-1.2,2.7-1.2c1.2,0,2.1,0.4,2.7,1.1c0.6,0.8,0.9,1.8,0.9,3.2v0.6H1049.6z M1054.3,275.6c0-0.2,0-0.3,0-0.5
		c0-0.1,0-0.3,0-0.4c0-0.1,0-0.2-0.1-0.3c0-0.1-0.1-0.2-0.1-0.3c-0.2-0.4-0.5-0.7-0.8-1c-0.4-0.2-0.8-0.4-1.3-0.4
		c-0.5,0-0.9,0.1-1.3,0.4c-0.4,0.2-0.6,0.6-0.8,1c-0.1,0.1-0.1,0.2-0.1,0.3c0,0.1-0.1,0.2-0.1,0.3c0,0.1,0,0.2,0,0.4
		c0,0.1,0,0.3,0,0.5H1054.3z"/>
	<path class="st6" d="M1060.8,280.6c-0.4,0-0.7-0.1-1-0.2c-0.3-0.1-0.5-0.3-0.7-0.5c-0.2-0.2-0.3-0.5-0.4-0.8
		c-0.1-0.3-0.1-0.6-0.1-0.9v-5.5h-1.1v-1h1.1v-2.7h1.3v2.7h1.9v1h-1.9v5.5c0,0.4,0.1,0.7,0.3,1c0.2,0.2,0.5,0.3,0.9,0.3h0.7v1.1
		H1060.8z"/>
	<path class="st6" d="M1066.8,280.6c-0.4,0-0.7-0.1-1-0.2c-0.3-0.1-0.5-0.3-0.7-0.5c-0.2-0.2-0.3-0.5-0.4-0.8s-0.1-0.6-0.1-0.9v-5.5
		h-1.1v-1h1.1v-2.7h1.3v2.7h1.9v1h-1.9v5.5c0,0.4,0.1,0.7,0.3,1c0.2,0.2,0.5,0.3,0.9,0.3h0.7v1.1H1066.8z"/>
	<path class="st6" d="M1071,276.5c0,1,0.2,1.7,0.7,2.3c0.4,0.5,1.1,0.8,2,0.8c0.5,0,0.9-0.1,1.3-0.2c0.3-0.2,0.7-0.4,1-0.8l0.9,0.8
		c-0.2,0.2-0.5,0.4-0.7,0.6s-0.5,0.3-0.7,0.4c-0.3,0.1-0.5,0.2-0.8,0.3c-0.3,0.1-0.6,0.1-1,0.1c-0.6,0-1.1-0.1-1.6-0.3
		s-0.9-0.5-1.2-0.8c-0.3-0.4-0.6-0.8-0.8-1.4c-0.2-0.6-0.3-1.2-0.3-2c0-1.5,0.3-2.6,1-3.4s1.5-1.2,2.7-1.2c1.2,0,2.1,0.4,2.7,1.1
		c0.6,0.8,0.9,1.8,0.9,3.2v0.6H1071z M1075.7,275.6c0-0.2,0-0.3,0-0.5c0-0.1,0-0.3,0-0.4c0-0.1,0-0.2-0.1-0.3c0-0.1-0.1-0.2-0.1-0.3
		c-0.2-0.4-0.5-0.7-0.8-1s-0.8-0.4-1.3-0.4s-0.9,0.1-1.3,0.4s-0.6,0.6-0.8,1c-0.1,0.1-0.1,0.2-0.1,0.3c0,0.1-0.1,0.2-0.1,0.3
		c0,0.1,0,0.2,0,0.4c0,0.1,0,0.3,0,0.5H1075.7z"/>
	<path class="st6" d="M1089.5,280.6v-1.1c-0.4,0.5-0.8,0.8-1.2,0.9c-0.4,0.2-0.9,0.2-1.4,0.2c-0.5,0-0.9-0.1-1.2-0.2
		s-0.7-0.3-0.9-0.6c-0.4-0.5-0.7-1-0.9-1.7c-0.1-0.7-0.2-1.4-0.2-2.1c0-0.4,0-0.7,0-1.1c0-0.4,0.1-0.7,0.2-1
		c0.1-0.3,0.2-0.6,0.3-0.9c0.1-0.3,0.3-0.5,0.5-0.8c0.2-0.2,0.5-0.4,0.9-0.6s0.8-0.2,1.2-0.2c0.5,0,1,0.1,1.3,0.2
		c0.4,0.2,0.8,0.5,1.2,0.9v-5h1.3v12.8H1089.5z M1089.5,276.2c0-0.4,0-0.9-0.1-1.3c0-0.4-0.2-0.8-0.3-1.1c-0.2-0.3-0.4-0.6-0.7-0.8
		c-0.3-0.2-0.7-0.3-1.2-0.3c-0.5,0-0.9,0.1-1.2,0.3c-0.3,0.2-0.5,0.4-0.7,0.8c-0.2,0.3-0.3,0.7-0.3,1.1c0,0.4-0.1,0.8-0.1,1.3
		c0,0.4,0,0.9,0.1,1.3s0.2,0.8,0.3,1.1s0.4,0.6,0.7,0.8c0.3,0.2,0.7,0.3,1.2,0.3c0.5,0,0.9-0.1,1.2-0.3c0.3-0.2,0.5-0.4,0.7-0.8
		c0.2-0.3,0.3-0.7,0.3-1.1S1089.5,276.6,1089.5,276.2z"/>
	<path class="st6" d="M1094.8,276.5c0,1,0.2,1.7,0.7,2.3c0.4,0.5,1.1,0.8,2,0.8c0.5,0,0.9-0.1,1.3-0.2c0.3-0.2,0.7-0.4,1-0.8
		l0.9,0.8c-0.2,0.2-0.5,0.4-0.7,0.6c-0.2,0.2-0.5,0.3-0.7,0.4c-0.3,0.1-0.5,0.2-0.8,0.3c-0.3,0.1-0.6,0.1-1,0.1
		c-0.6,0-1.1-0.1-1.6-0.3c-0.5-0.2-0.9-0.5-1.2-0.8c-0.3-0.4-0.6-0.8-0.8-1.4c-0.2-0.6-0.3-1.2-0.3-2c0-1.5,0.3-2.6,1-3.4
		c0.6-0.8,1.5-1.2,2.7-1.2c1.2,0,2.1,0.4,2.7,1.1c0.6,0.8,0.9,1.8,0.9,3.2v0.6H1094.8z M1099.5,275.6c0-0.2,0-0.3,0-0.5
		c0-0.1,0-0.3,0-0.4c0-0.1,0-0.2-0.1-0.3c0-0.1-0.1-0.2-0.1-0.3c-0.2-0.4-0.5-0.7-0.8-1c-0.4-0.2-0.8-0.4-1.3-0.4
		c-0.5,0-0.9,0.1-1.3,0.4c-0.4,0.2-0.6,0.6-0.8,1c-0.1,0.1-0.1,0.2-0.1,0.3c0,0.1-0.1,0.2-0.1,0.3c0,0.1,0,0.2,0,0.4
		c0,0.1,0,0.3,0,0.5H1099.5z"/>
	<path class="st6" d="M1110.1,280.9c0,0.6-0.1,1.1-0.3,1.5s-0.4,0.9-0.7,1.2c-0.3,0.3-0.7,0.6-1.2,0.8c-0.5,0.2-1,0.3-1.6,0.3
		c-0.3,0-0.6,0-0.9-0.1s-0.5-0.1-0.7-0.2c-0.2-0.1-0.5-0.2-0.7-0.4c-0.2-0.1-0.4-0.3-0.7-0.5l0.8-0.8c0.2,0.1,0.3,0.3,0.5,0.4
		c0.2,0.1,0.3,0.2,0.5,0.3s0.3,0.1,0.5,0.2c0.2,0,0.4,0.1,0.7,0.1c0.4,0,0.8-0.1,1.1-0.2c0.3-0.1,0.6-0.3,0.8-0.6s0.3-0.5,0.4-0.9
		c0.1-0.3,0.1-0.7,0.1-1.1v-1.4c-0.4,0.5-0.7,0.8-1.2,0.9s-0.9,0.2-1.3,0.2c-0.5,0-0.9-0.1-1.2-0.2c-0.4-0.1-0.7-0.3-0.9-0.6
		c-0.4-0.4-0.7-1-0.9-1.6c-0.1-0.6-0.2-1.3-0.2-2.1s0.1-1.4,0.2-2.1c0.1-0.6,0.4-1.2,0.9-1.6c0.2-0.2,0.5-0.4,0.9-0.6
		c0.4-0.1,0.8-0.2,1.2-0.2c0.5,0,0.9,0.1,1.3,0.2c0.4,0.2,0.8,0.5,1.1,0.9v-1h1.3V280.9z M1108.8,276.1c0-0.4,0-0.8-0.1-1.2
		c0-0.4-0.2-0.8-0.3-1.1c-0.2-0.3-0.4-0.6-0.7-0.7c-0.3-0.2-0.7-0.3-1.2-0.3s-0.9,0.1-1.2,0.3c-0.3,0.2-0.5,0.4-0.7,0.7
		c-0.2,0.3-0.3,0.7-0.3,1.1c0,0.4-0.1,0.8-0.1,1.2c0,0.4,0,0.8,0.1,1.2c0,0.4,0.1,0.7,0.3,1.1c0.2,0.3,0.4,0.6,0.7,0.7
		c0.3,0.2,0.7,0.3,1.2,0.3s0.9-0.1,1.2-0.3c0.3-0.2,0.5-0.4,0.7-0.7c0.2-0.3,0.3-0.7,0.3-1.1C1108.8,277,1108.8,276.5,1108.8,276.1z
		"/>
	<path class="st6" d="M1117.7,269.3v-1.5h1.5v1.5H1117.7z M1117.8,280.6v-8.9h1.3v8.9H1117.8z"/>
	<path class="st6" d="M1128,280.6v-5.5c0-0.8-0.2-1.4-0.6-1.8c-0.4-0.4-0.9-0.6-1.6-0.6s-1.2,0.2-1.6,0.6c-0.4,0.4-0.6,1-0.6,1.8
		v5.5h-1.3v-8.9h1.3v1c0.3-0.4,0.7-0.6,1.1-0.8c0.4-0.2,0.9-0.3,1.4-0.3c1,0,1.7,0.3,2.3,0.8c0.6,0.6,0.9,1.4,0.9,2.5v5.7H1128z"/>
	<path class="st6" d="M1138.1,280.6v-5.5c0-0.8-0.2-1.4-0.6-1.8c-0.4-0.4-0.9-0.6-1.6-0.6s-1.2,0.2-1.6,0.6c-0.4,0.4-0.6,1-0.6,1.8
		v5.5h-1.3v-8.9h1.3v1c0.3-0.4,0.7-0.6,1.1-0.8c0.4-0.2,0.9-0.3,1.4-0.3c1,0,1.7,0.3,2.3,0.8c0.6,0.6,0.9,1.4,0.9,2.5v5.7H1138.1z"
		/>
	<path class="st6" d="M1147,269.3v-1.5h1.5v1.5H1147z M1147.1,280.6v-8.9h1.3v8.9H1147.1z"/>
	<path class="st6" d="M1151.6,280.6v-1.7h1.7v1.7H1151.6z"/>
</g>
</svg>
