<?xml version="1.0" encoding="UTF-8"?>
<svg width="170px" height="170px" viewBox="0 0 170 170" version="1.1" xmlns="http://www.w3.org/2000/svg" xmlns:xlink="http://www.w3.org/1999/xlink">
    <!-- Generator: Sketch 46.2 (44496) - http://www.bohemiancoding.com/sketch -->
    <title>Artboard</title>
    <desc>Created with Sketch.</desc>
    <defs></defs>
    <g id="Page-1" stroke="none" stroke-width="1" fill="none" fill-rule="evenodd">
        <g id="temp-placeholder" transform="translate(-64.000000, -208.000000)" fill-rule="nonzero">
            <rect id="Rectangle-path" fill="#1EAEF7" x="60.1" y="292.6" width="1032.9" height="236.5"></rect>
            <polygon id="Shape" fill="#CFF0FF" points="60.6 292.6 121.2 292.6 128.7 288.8 158.7 284.8 183.8 292.6 1092.5 292.6 1092.5 0.3 63.1 0.3"></polygon>
            <path d="M121.2,292.6 C132.3,286.2 148.3,280.7 162.8,285 C176.7,289.1 187.9,291 200.7,292.6 C200.7,292.6 204.3,300.6 194,303.4 C183.7,306.2 172.9,306.5 172.1,310.5 C171.3,314.4 177.2,311.7 176.8,317.8 C176.4,324 164.4,326.8 147.7,323.9 C131,321 111.8,322.7 105.2,322.8 C98.7,322.9 96.8,318.5 97.3,314.4 C97.3,314.4 99.9,312.4 104.8,309.6 C112.2,305.2 119.2,295.7 121.2,292.6 Z" id="Shape" fill="#0062BA"></path>
            <path d="M759.7,423.1 C759.7,423.1 748.5,446.2 692.7,441.3 C668.9,439.2 645.4,445.3 627.8,444.2 C601.7,442.7 592.9,436.4 587.4,431.3 C587.4,431.3 587.4,431.3 587.4,431.3 C575.8,417.6 601.3,412.4 613.6,414.7 C625.6,417 632.1,416.7 643.7,410.1 C658.2,401.9 664.5,407.8 673.7,399.8 C684.2,390.7 698.5,395.1 698.5,395.1 C698.5,395.1 702.3,391.9 705,393.8 C705,393.8 703.6,392.3 699.3,390.1 C687.4,383.8 674.9,391 669.6,394.6 C667,396.4 661.6,397.4 654,398.6 C638.8,401.1 636,410 619.9,406.1 C602.5,401.9 592.4,404.6 568.9,411.4 C545.4,418.2 480.5,436.9 455.2,436.8 C425.1,436.8 408.4,427 406.2,412.9 C402.7,390 461.8,382.6 498.9,386.9 C512.8,388.5 539.4,393.5 562.1,392.6 C588.1,391.6 623.4,381.2 631.7,375.6 C651.2,362.4 725.7,379 725.7,379 L779.6,340.3 C779.6,340.3 774,341.1 765.1,339.1 C761.9,338.4 759.4,332.4 755,332.8 C733.2,335 698.7,328.8 684.6,328.8 C662.4,328.8 613.6,343.8 563.6,353.7 C492.3,367.8 440.5,356.1 439.1,338.8 C438.2,326.9 464.9,317.2 417.6,312.5 C382.7,309 343.5,311.8 311.9,314.3 C274,317.3 225.4,327.9 176.9,317.6 C174.3,327.3 153.5,323.7 136.5,322.2 C124.3,321.2 88.8,320.8 79.2,320.1 C68.9,325 66.8,323.5 64.1,323.8 C56.1,324.8 -65.7,328.2 51.8,347.7 C169.3,367.2 304.6,326.6 357.3,332.8 C396.9,337.5 419.3,352.2 412.9,367.1 C387.2,426.7 116,387.1 66.7,372.5 C20.8,359 43.9,426.7 43.9,426.7 C43.9,426.7 34.8,466.6 60.7,451.4 C101.2,427.5 171.5,415.5 246.8,431 C290.9,440.1 358.1,466.3 387.8,484.9 C434.7,514.4 496.6,486.9 505.8,480.2 C518.9,470.7 535.6,458.3 574.4,453.6 C623.7,447.7 665.8,470.1 723.1,474.6 C751.9,476.9 753.4,457.5 766.2,455.4 C820,446.6 827.8,446.1 850.6,438.2 L850.6,421.1 L759.7,423.1 Z" id="Shape" fill="#CFF0FF"></path>
            <path d="M1044.3,97.3 C999.3,101.3 984.7,81.6 949.7,91.3 C913.1,101.4 910.2,132.8 850.7,126 C826.4,123.2 774.8,106.9 742.2,115.3 C709.1,123.9 695.1,157.4 690.7,160.3 C680.7,167 679.5,150.4 655.7,148.2 C639.5,146.7 625.7,152 617.2,154.4 C608.7,156.8 601.6,146.2 593.8,139.3 C574.8,122.4 538,116.5 510,138 C482,159.5 489.3,153.2 462.4,144 C432.4,133.7 393.5,136.6 370.9,168.1 C370.9,168.1 364.7,143.8 338.3,124.4 C313,105.8 282.9,112 255.7,120 C228.5,128 206.7,118.2 186.7,108.2 C166.7,98.2 140.7,88 110.7,96.2 C80.7,104.4 59.7,94.2 59.7,94.2 L65.7,186.9 C94.4,186.9 345.2,171.2 396.2,213.6 C447.2,255.9 436.4,270.6 471.4,270.6 L605.2,270.6 C605.2,270.6 617,251.3 643.4,252.6 C669.7,253.9 697.1,252.3 705.1,239.9 C713.1,227.6 729.9,180.1 809.5,176.6 C854.8,174.6 862.4,170.3 883.8,197.6 C905.2,224.9 917,245.8 960.8,222.8 C1005.8,199.2 1022.6,196.2 1094.7,196.2 L1094.7,56.9 C1094.5,56.9 1089.2,93.3 1044.3,97.3 Z M950,218.4 C939.2,217.8 933.7,226.8 931.4,226.3 C929.1,225.8 934.1,221 923.8,217.4 C918.6,215.6 914.2,215.9 914,214.8 C913.8,213.7 917,212.1 921.8,212.2 C929.9,212.4 933.8,217.5 933.8,217.5 C933.8,217.5 937.9,214.4 943.6,214.4 C949.2,214.6 957.6,218.8 950,218.4 Z M975.9,174.1 C975.9,174.1 970.6,171.3 963.1,171.1 C955.6,170.8 945.6,179.7 954.2,170.6 C962.8,161.5 973.9,167 973.9,167 C981.7,155.2 990.3,165.4 990.3,165.4 C980.8,165 975.9,174.1 975.9,174.1 Z" id="Shape" fill="#FFFFFF"></path>
            <path d="M127.7,234.8 C127.7,234.8 120.1,239.2 120.1,245.9 C120.1,245.9 113.8,242.8 104.1,245.4 C104.1,245.4 111.7,237.8 117.8,241.9 C117.9,241.9 118.2,233.2 127.7,234.8 Z" id="Shape" fill="#FFFFFF"></path>
            <path d="M136.2,275.2 L133.2,292.2 C133.2,292.2 134.2,295.7 143.6,295.7 C153,295.7 155.2,292.1 155.2,292.1 L152.8,275.2 L136.2,275.2 Z" id="Shape" fill="#E23B53"></path>
            <path d="M145.6,254 L145.6,252.5 L144.9,252.5 L144.5,253 L144,252.6 L143.3,252.6 L143.3,254 L136.5,260.5 C135.8,261.2 135.5,262.1 135.7,263.1 L136.6,267.5 L143.3,267.5 L145.5,267.5 L152.2,267.5 L153.1,263.1 C153.3,262.2 153,261.2 152.3,260.5 L145.6,254 Z" id="Shape" fill="#E23B53"></path>
            <path d="M126.7,294.1 C125.8,290.9 127.5,287.9 131.2,288.8 C133.6,289.4 133.3,292 133.3,292 C133.3,292 133.9,291.3 135,290.9 C136.5,290.4 138.9,291.6 137.9,294.1 C137.9,294.1 140.5,292.2 140.8,294.4 C140.8,294.4 147.5,292.5 147.6,295.4 C147.7,298.3 142.7,297.5 138.8,296.6 C134.7,295.8 127.8,298.1 126.7,294.1 Z" id="Shape" fill="#3F3161"></path>
            <path d="M143,303.8 C143.5,302.4 142.7,300.4 138.4,303.2 C134.1,306 130.3,308.8 132.4,310.4 C134.5,312 138.8,307.5 139.4,308.7 C140.9,312.1 147.3,311.2 149.1,307.2 C149.1,307.2 153.4,310.1 157.6,309.3 C161.7,308.4 170.9,312.1 173.3,312.8 C172.6,309.5 171.9,308.1 167.4,308 C167.4,308 168,304.7 164.2,304.6 C162.3,304.5 162.2,301.8 159.2,301 C155.6,300 154.9,302.3 153.7,302.4 C152.5,302.5 149.9,299.1 146.8,300.9 C145.7,301.5 143,303.8 143,303.8 Z" id="Shape" fill="#3F3161"></path>
            <path d="M172.3,301.3 C174.3,302.7 177.4,301.2 180.1,300.7 C182.9,300.1 187.4,299.8 187.7,298.4 C188.2,296.3 183.3,296.6 182.4,296.4 C181.2,296.1 180.4,294.9 178.8,294.6 C176.8,294.2 175.4,295.4 174.5,297.4 C171.9,296.8 170.4,299.9 172.3,301.3 Z" id="Shape" fill="#3F3161"></path>
            <path d="M152.8,293.4 C153.9,295 156.7,294.2 158.6,291.8 C160.9,289 162.4,290.9 165.7,291.3 C170.3,291.8 174.1,288.9 169.1,287.5 C166.8,286.8 165.7,286.7 165.3,285.9 C164.6,284.5 162.5,282 159.5,282.5 C158,282.7 157.4,283.6 157.4,283.6 C157.4,283.6 156.6,281.2 153.6,281.4 C153.6,281.4 154.4,286.7 154.8,289.8 C152.8,290.5 152.1,292.3 152.8,293.4 Z" id="Shape" fill="#3F3161"></path>
            <path d="M141.6,266 C141.6,268.6 140.9,268.9 140,268.9 C139.1,268.9 138.4,268.5 138.4,266 C138.4,263.6 139.1,263.1 140,263.1 C140.9,263.1 141.6,263.6 141.6,266 Z" id="Shape" fill="#CFF0FF"></path>
            <path d="M146,266 C146,268.6 145.3,268.9 144.4,268.9 C143.5,268.9 142.8,268.5 142.8,266 C142.8,263.6 143.5,263.1 144.4,263.1 C145.3,263.1 146,263.6 146,266 Z" id="Shape" fill="#CFF0FF"></path>
            <path d="M150.4,266 C150.4,268.6 149.7,268.9 148.8,268.9 C147.9,268.9 147.2,268.5 147.2,266 C147.2,263.6 147.9,263.1 148.8,263.1 C149.7,263.1 150.4,263.6 150.4,266 Z" id="Shape" fill="#CFF0FF"></path>
            <path d="M154.9,266.7 L145.3,266.7 L143.6,266.7 L134,266.7 C134,266.7 132.6,268.2 132.6,271.4 C132.6,272.5 132.7,273.3 132.9,274 C133.2,275.2 134.4,276.1 135.6,276.1 L143.5,276.1 L145.2,276.1 L153.1,276.1 C154.4,276.1 155.5,275.3 155.8,274 C156,273.3 156.1,272.4 156.1,271.4 C156.3,268.1 154.9,266.7 154.9,266.7 Z M135.7,274.3 C134.8,274.3 134.1,273.9 134.1,271.4 C134.1,269 134.8,268.5 135.7,268.5 C136.6,268.5 137.3,269 137.3,271.4 C137.3,273.9 136.5,274.3 135.7,274.3 Z M140.1,274.3 C139.2,274.3 138.5,273.9 138.5,271.4 C138.5,269 139.2,268.5 140.1,268.5 C141,268.5 141.7,269 141.7,271.4 C141.6,273.9 140.9,274.3 140.1,274.3 Z M144.5,274.3 C143.6,274.3 142.9,273.9 142.9,271.4 C142.9,269 143.6,268.5 144.5,268.5 C145.4,268.5 146.1,269 146.1,271.4 C146,273.9 145.3,274.3 144.5,274.3 Z M148.8,274.3 C147.9,274.3 147.2,273.9 147.2,271.4 C147.2,269 147.9,268.5 148.8,268.5 C149.7,268.5 150.4,269 150.4,271.4 C150.4,273.9 149.7,274.3 148.8,274.3 Z M153.2,274.3 C152.3,274.3 151.6,273.9 151.6,271.4 C151.6,269 152.3,268.5 153.2,268.5 C154.1,268.5 154.8,269 154.8,271.4 C154.8,273.9 154.1,274.3 153.2,274.3 Z" id="Shape" fill="#FFFFFF"></path>
            <path d="M146.1,253.1 L142.8,253.1 L142.8,252.6 C142.8,251.4 143,249.7 144.5,249.7 C145.9,249.7 146.1,251.2 146.1,252.6 L146.1,253.1 Z M143.8,252.1 L145.1,252.1 C145,250.7 144.7,250.7 144.5,250.7 C144.3,250.7 143.8,250.7 143.8,252.1 Z" id="Shape" fill="#FFFFFF"></path>
            <path d="M76.3,321.6 C81.3,319.5 91.4,312.3 97.4,314.2 C103.4,316.1 102.8,321.6 109,320.4 C115.2,319.3 119.4,315.2 124.9,319.7 C130.4,324.2 131.6,328.1 136.1,327.7 C140.6,327.3 130.3,333.6 122.5,329.2 C114.7,324.7 112.6,324.6 105.8,327.3 C98.9,330 95.4,322.7 91.6,322.4 C87.8,322.1 83.5,324.3 76.3,321.6 Z" id="Shape" fill="#FFFFFF"></path>
            <path d="M78.9,313.3 C90.3,307.6 91.4,312.4 100.3,306.9 C105.4,303.8 95.6,313 101.6,310.8 C107.7,308.6 111,305.3 116.1,299.3 C115,298 112.5,298.4 110.3,300.2 C108.4,301.7 110.4,298.1 108.3,298.2 C105.7,298.4 102.7,303.1 95.7,305.6 C88.7,308.1 86.9,303.8 78.5,307.8 C63.3,315 48.9,304.2 48.9,304.2 C48.9,304.2 53.7,319.3 55.3,319.5 C66.9,320.6 73.5,316 78.9,313.3 Z" id="Shape" fill="#CFF0FF"></path>
            <path d="M187.7,304.8 C197.5,303.6 198.1,302.5 201.9,300.5 C208,297.2 213.8,301.7 217.3,302.6 C220.7,303.5 221.2,299.6 224.1,298.8 C226.1,298.2 227.8,298.8 229.1,299 C230.4,299.2 231.3,298.7 230,298.3 C228.4,297.8 227.4,297.5 226.2,297.2 C223.2,296.5 221.5,297.4 219.6,299.9 C218,302 212.6,295.4 205.4,296.1 C198.5,296.7 194.5,303.6 187.7,304.8 Z" id="Shape" fill="#CFF0FF"></path>
            <path d="M175.1,312.3 C175.4,309.6 182.5,307.5 187.1,309.9 C195,314.1 197.6,310.5 197.4,312.3 C197.3,313.4 195.6,314.5 191.2,314.2 C189.4,314.1 187.3,313.1 186.3,313.2 C184.9,313.4 186.1,314.3 187.6,314.9 C189.1,315.5 191,315.9 189.6,316.8 C186.8,318.6 174.7,316.6 175.1,312.3 Z" id="Shape" fill="#CFF0FF"></path>
            <path d="M199.1,310.2 C197.4,311.6 198.7,312.1 199.7,311.3 C200.6,310.4 200.2,309.2 199.1,310.2 Z" id="Shape" fill="#CFF0FF"></path>
            <path d="M232.9,298.3 C230.7,298.3 231.4,299.5 232.7,299.5 C233.9,299.4 234.4,298.3 232.9,298.3 Z" id="Shape" fill="#CFF0FF"></path>
            <path d="M143.2,327.5 C139.2,326.8 139.2,330.3 142.8,330.2 C146.5,330.1 145.5,327.9 143.2,327.5 Z" id="Shape" fill="#FFFFFF"></path>
            <path d="M135,320.4 C131.9,320.3 132.1,323.8 135,323.8 C137.9,323.8 136.9,320.4 135,320.4 Z" id="Shape" fill="#FFFFFF"></path>
            <path d="M113.6,294.6 C111.3,295.5 111.2,298.3 113.1,297.2 C115.2,296.1 114.8,294.2 113.6,294.6 Z" id="Shape" fill="#CFF0FF"></path>
            <polygon id="Shape" fill="#FFFFFF" points="135.1 281.4 153.6 281.4 154.3 286.7 134.1 286.7"></polygon>
        </g>
        <g id="Artboard"></g>
    </g>
</svg>