<?xml version="1.0" encoding="utf-8"?>
<!-- Generator: Adobe Illustrator 22.1.0, SVG Export Plug-In . SVG Version: 6.00 Build 0)  -->
<svg version="1.1" id="Layer_1" xmlns="http://www.w3.org/2000/svg" xmlns:xlink="http://www.w3.org/1999/xlink" x="0px" y="0px"
	 viewBox="0 0 740 740" style="enable-background:new 0 0 740 740;" xml:space="preserve">
<style type="text/css">
	.st0{opacity:0.2;fill:#1EAEF7;enable-background:new    ;}
	.st1{fill:none;stroke:#1EAEF7;stroke-width:3;stroke-miterlimit:10;}
	.st2{fill:#0E3050;}
	.st3{fill:#FFFFFF;}
	.st4{opacity:0.2;fill:#41A9DF;enable-background:new    ;}
	.st5{fill:#1EAEF7;}
	.st6{fill:none;}
	.st7{enable-background:new    ;}
</style>
<path class="st0" d="M483.8,601.6H240.3V137.4h261.3v446.3C501.7,593.6,493.7,601.6,483.8,601.6z"/>
<path class="st1" d="M501.7,137.5H240.4l0,0c0-28.5,23.1-51.6,51.6-51.6h158.2C478.6,85.9,501.7,109,501.7,137.5L501.7,137.5z"/>
<path class="st2" d="M273.4,225.8v18.6h27.9v-18.6H273.4z M288.9,235.5c-0.9,0.8-2.2,0.8-3.1,0l-8.2-7.5h19.5L288.9,235.5z
	 M281.8,235.1l-6.1,5.5v-11.1L281.8,235.1z M283.6,236.6l0.7,0.6c0.9,0.8,2,1.2,3.1,1.2s2.2-0.4,3.1-1.2l0.7-0.6l5.9,5.4h-19.4
	L283.6,236.6z M292.9,235.1l6.1-5.5v11.1L292.9,235.1z"/>
<rect x="258.8" y="202.3" class="st3" width="224.4" height="266.2"/>
<rect x="258.8" y="247.2" class="st4" width="224.4" height="4.3"/>
<path class="st1" d="M483.8,601.6H240.3V137.5h261.3v446.3C501.7,593.6,493.7,601.6,483.8,601.6z"/>
<polyline class="st1" points="-60,602.1 -201.3,602.1 -236.6,602.1 "/>
<polyline class="st1" points="240,602.1 204.7,602.1 -60,602.1 "/>
<rect x="272" y="384.9" class="st5" width="114.1" height="48.8"/>
<rect x="294.8" y="403" class="st6" width="86.4" height="32.8"/>
<g class="st7">
	<path class="st2" d="M296.7,415.8V403h1.4v11.6h6.6v1.2H296.7z"/>
	<path class="st2" d="M311.8,415.8V415c-0.3,0.3-0.7,0.6-1.1,0.7c-0.4,0.1-0.9,0.2-1.5,0.2c-0.6,0-1.1-0.1-1.5-0.2
		c-0.4-0.1-0.7-0.3-1-0.6c-0.2-0.2-0.4-0.5-0.5-0.8s-0.2-0.7-0.2-1c0-0.8,0.3-1.4,0.8-1.9c0.5-0.5,1.3-0.7,2.3-0.7h2.6v-0.8
		c0-0.6-0.2-1.1-0.5-1.5c-0.3-0.3-0.9-0.5-1.8-0.5c-0.6,0-1,0.1-1.3,0.2c-0.3,0.2-0.6,0.4-0.9,0.8l-0.9-0.8c0.4-0.5,0.8-0.9,1.3-1.1
		c0.5-0.2,1.1-0.3,1.8-0.3c1.2,0,2.1,0.3,2.7,0.8s0.9,1.2,0.9,2.2v6H311.8z M311.8,411.7h-2.5c-1.3,0-2,0.5-2,1.6
		c0,0.5,0.2,0.9,0.5,1.1c0.3,0.2,0.8,0.4,1.6,0.4c0.4,0,0.7,0,1-0.1c0.3-0.1,0.6-0.2,0.9-0.5c0.3-0.3,0.5-0.8,0.5-1.5V411.7z"/>
	<path class="st2" d="M322.6,413.2c0,0.9-0.3,1.5-1,2c-0.7,0.5-1.5,0.7-2.6,0.7c-0.8,0-1.4-0.1-2-0.3c-0.6-0.2-1.1-0.5-1.6-1
		l0.9-0.9c0.3,0.4,0.8,0.6,1.2,0.8c0.5,0.2,1,0.2,1.5,0.2c0.7,0,1.3-0.1,1.7-0.4c0.4-0.3,0.6-0.7,0.6-1.2c0-0.4-0.1-0.7-0.3-0.9
		c-0.2-0.2-0.6-0.3-1.1-0.4l-1.5-0.1c-0.9-0.1-1.5-0.3-2-0.7c-0.5-0.4-0.7-0.9-0.7-1.7c0-0.4,0.1-0.8,0.2-1.1s0.4-0.6,0.7-0.8
		c0.3-0.2,0.6-0.4,1-0.5s0.8-0.2,1.3-0.2c0.6,0,1.2,0.1,1.8,0.2c0.5,0.2,1,0.4,1.4,0.7l-0.8,0.8c-0.3-0.2-0.7-0.4-1.1-0.5
		c-0.4-0.1-0.8-0.2-1.3-0.2c-0.6,0-1.1,0.1-1.5,0.4c-0.3,0.3-0.5,0.6-0.5,1.1c0,0.4,0.1,0.7,0.4,0.9s0.7,0.3,1.2,0.4l1.4,0.1
		c0.4,0,0.7,0.1,1.1,0.2c0.3,0.1,0.6,0.2,0.8,0.4c0.2,0.2,0.4,0.4,0.5,0.7S322.6,412.8,322.6,413.2z"/>
	<path class="st2" d="M327.5,415.8c-0.4,0-0.7-0.1-1-0.2c-0.3-0.1-0.5-0.3-0.7-0.5s-0.3-0.5-0.4-0.8c-0.1-0.3-0.1-0.6-0.1-0.9v-5.5
		h-1.1v-1h1.1v-2.7h1.3v2.7h1.9v1h-1.9v5.5c0,0.4,0.1,0.7,0.3,1c0.2,0.2,0.5,0.3,0.9,0.3h0.7v1.1H327.5z"/>
	<path class="st2" d="M341.1,415.8v-5.5c0-0.8-0.2-1.4-0.6-1.8c-0.4-0.4-0.9-0.6-1.6-0.6s-1.2,0.2-1.6,0.6c-0.4,0.4-0.6,1-0.6,1.8
		v5.5h-1.3V407h1.3v1c0.3-0.4,0.7-0.6,1.1-0.8c0.4-0.2,0.9-0.3,1.4-0.3c1,0,1.7,0.3,2.3,0.8c0.6,0.6,0.9,1.4,0.9,2.5v5.7H341.1z"/>
	<path class="st2" d="M346.4,411.7c0,1,0.2,1.7,0.7,2.3c0.4,0.5,1.1,0.8,2,0.8c0.5,0,0.9-0.1,1.3-0.2c0.3-0.2,0.7-0.4,1-0.8l0.9,0.8
		c-0.2,0.2-0.5,0.4-0.7,0.6s-0.5,0.3-0.7,0.4c-0.3,0.1-0.5,0.2-0.8,0.3c-0.3,0.1-0.6,0.1-1,0.1c-0.6,0-1.1-0.1-1.6-0.3
		s-0.9-0.5-1.2-0.8c-0.3-0.4-0.6-0.8-0.8-1.4c-0.2-0.6-0.3-1.2-0.3-2c0-1.5,0.3-2.6,1-3.4s1.5-1.2,2.7-1.2c1.2,0,2.1,0.4,2.7,1.1
		c0.6,0.8,0.9,1.8,0.9,3.2v0.6H346.4z M351.1,410.8c0-0.2,0-0.3,0-0.5c0-0.1,0-0.3,0-0.4c0-0.1,0-0.2-0.1-0.3c0-0.1-0.1-0.2-0.1-0.3
		c-0.2-0.4-0.5-0.7-0.8-1s-0.8-0.4-1.3-0.4s-0.9,0.1-1.3,0.4s-0.6,0.6-0.8,1c-0.1,0.1-0.1,0.2-0.1,0.3c0,0.1-0.1,0.2-0.1,0.3
		c0,0.1,0,0.2,0,0.4c0,0.1,0,0.3,0,0.5H351.1z"/>
	<path class="st2" d="M360.4,415.8v-1.1c-0.4,0.5-0.8,0.8-1.2,0.9c-0.4,0.2-0.9,0.2-1.4,0.2c-0.5,0-0.9-0.1-1.2-0.2
		s-0.7-0.3-0.9-0.6c-0.4-0.5-0.7-1-0.9-1.7c-0.1-0.7-0.2-1.4-0.2-2.1c0-0.4,0-0.7,0-1.1c0-0.4,0.1-0.7,0.2-1
		c0.1-0.3,0.2-0.6,0.3-0.9c0.1-0.3,0.3-0.5,0.5-0.8c0.2-0.2,0.5-0.4,0.9-0.6s0.8-0.2,1.2-0.2c0.5,0,1,0.1,1.4,0.2
		c0.4,0.2,0.8,0.5,1.2,0.9v-5h1.3v12.8H360.4z M360.4,411.4c0-0.4,0-0.9-0.1-1.3c0-0.4-0.1-0.8-0.3-1.1c-0.2-0.3-0.4-0.6-0.7-0.8
		c-0.3-0.2-0.7-0.3-1.2-0.3c-0.5,0-0.9,0.1-1.2,0.3c-0.3,0.2-0.5,0.4-0.7,0.8c-0.2,0.3-0.3,0.7-0.3,1.1c0,0.4-0.1,0.8-0.1,1.3
		c0,0.4,0,0.9,0.1,1.3c0,0.4,0.2,0.8,0.3,1.1s0.4,0.6,0.7,0.8c0.3,0.2,0.7,0.3,1.2,0.3c0.5,0,0.9-0.1,1.2-0.3
		c0.3-0.2,0.5-0.4,0.7-0.8c0.2-0.3,0.3-0.7,0.3-1.1S360.4,411.8,360.4,411.4z"/>
</g>
<rect x="317" y="217.4" class="st6" width="200.7" height="34.8"/>
<g class="st7">
	<path class="st2" d="M322.5,230.2h-1.1l-4.2-12.8h1.4l3.3,10.4l3.3-10.4h1.4L322.5,230.2z"/>
	<path class="st2" d="M328.4,218.8v-1.5h1.5v1.5H328.4z M328.5,230.2v-8.9h1.3v8.9H328.5z"/>
	<path class="st2" d="M338.9,230.2l-2.8-4.5l-1.7,2v2.6H333v-12.8h1.3v8.6l4-4.6h1.6l-3,3.4l3.5,5.5H338.9z"/>
	<path class="st2" d="M345.2,230.2c-0.4,0-0.7-0.1-1-0.2c-0.3-0.1-0.5-0.3-0.7-0.5s-0.3-0.5-0.4-0.8c-0.1-0.3-0.1-0.6-0.1-0.9v-5.5
		h-1.1v-1h1.1v-2.7h1.3v2.7h1.9v1h-1.9v5.5c0,0.4,0.1,0.7,0.3,1c0.2,0.2,0.5,0.3,0.9,0.3h0.7v1.1H345.2z"/>
	<path class="st2" d="M348.6,218.8v-1.5h1.5v1.5H348.6z M348.7,230.2v-8.9h1.3v8.9H348.7z"/>
	<path class="st2" d="M359.7,230.4c0,0.6-0.1,1.1-0.3,1.5s-0.4,0.9-0.7,1.2c-0.3,0.3-0.7,0.6-1.2,0.8c-0.5,0.2-1,0.3-1.6,0.3
		c-0.3,0-0.6,0-0.9-0.1c-0.3,0-0.5-0.1-0.7-0.2s-0.5-0.2-0.7-0.4c-0.2-0.1-0.4-0.3-0.7-0.5l0.8-0.8c0.2,0.1,0.3,0.3,0.5,0.4
		c0.1,0.1,0.3,0.2,0.5,0.3s0.3,0.1,0.5,0.2c0.2,0,0.4,0.1,0.7,0.1c0.4,0,0.8-0.1,1.1-0.2c0.3-0.1,0.6-0.3,0.8-0.6
		c0.2-0.2,0.3-0.5,0.4-0.9c0.1-0.3,0.1-0.7,0.1-1.1V229c-0.4,0.5-0.7,0.8-1.2,0.9c-0.4,0.2-0.9,0.2-1.3,0.2c-0.5,0-0.9-0.1-1.2-0.2
		c-0.4-0.1-0.7-0.3-0.9-0.6c-0.4-0.4-0.7-1-0.9-1.6c-0.1-0.6-0.2-1.3-0.2-2.1s0.1-1.4,0.2-2.1c0.1-0.6,0.4-1.2,0.9-1.6
		c0.2-0.2,0.5-0.4,0.9-0.6s0.8-0.2,1.2-0.2c0.5,0,0.9,0.1,1.3,0.2c0.4,0.2,0.8,0.5,1.1,0.9v-1h1.3V230.4z M358.4,225.7
		c0-0.4,0-0.8-0.1-1.2c0-0.4-0.2-0.8-0.3-1.1c-0.2-0.3-0.4-0.6-0.7-0.7c-0.3-0.2-0.7-0.3-1.2-0.3c-0.5,0-0.9,0.1-1.2,0.3
		c-0.3,0.2-0.5,0.4-0.7,0.7c-0.2,0.3-0.3,0.7-0.3,1.1c0,0.4-0.1,0.8-0.1,1.2c0,0.4,0,0.8,0.1,1.2c0,0.4,0.1,0.7,0.3,1.1
		c0.2,0.3,0.4,0.6,0.7,0.7c0.3,0.2,0.7,0.3,1.2,0.3c0.5,0,0.9-0.1,1.2-0.3c0.3-0.2,0.5-0.4,0.7-0.7c0.2-0.3,0.3-0.7,0.3-1.1
		C358.4,226.5,358.4,226.1,358.4,225.7z"/>
	<path class="st2" d="M378.8,230.2v-5.5c0-0.8-0.2-1.4-0.6-1.8c-0.4-0.4-0.9-0.6-1.6-0.6c-0.6,0-1.2,0.2-1.6,0.6
		c-0.4,0.4-0.6,0.9-0.6,1.6v5.6h-1.3v-5.5c0-0.8-0.2-1.4-0.6-1.8c-0.4-0.4-0.9-0.6-1.6-0.6s-1.2,0.2-1.6,0.6c-0.4,0.4-0.6,1-0.6,1.8
		v5.5h-1.3v-8.9h1.3v1c0.3-0.4,0.7-0.6,1.1-0.8c0.4-0.2,0.9-0.3,1.4-0.3c0.6,0,1.1,0.1,1.6,0.4s0.8,0.6,1.1,1.1
		c0.7-1,1.7-1.5,2.9-1.5c0.5,0,0.9,0.1,1.3,0.2c0.4,0.1,0.7,0.3,1,0.6c0.6,0.6,1,1.4,1,2.5v5.7H378.8z"/>
	<path class="st2" d="M384.1,226.1c0,1,0.2,1.7,0.7,2.3c0.4,0.5,1.1,0.8,2,0.8c0.5,0,0.9-0.1,1.3-0.2c0.3-0.2,0.7-0.4,1-0.8l0.9,0.8
		c-0.2,0.2-0.5,0.4-0.7,0.6c-0.2,0.2-0.5,0.3-0.7,0.4c-0.3,0.1-0.5,0.2-0.8,0.3c-0.3,0.1-0.6,0.1-1,0.1c-0.6,0-1.1-0.1-1.6-0.3
		c-0.5-0.2-0.9-0.5-1.2-0.8c-0.3-0.4-0.6-0.8-0.8-1.4c-0.2-0.6-0.3-1.2-0.3-2c0-1.5,0.3-2.6,1-3.4c0.6-0.8,1.5-1.2,2.7-1.2
		c1.2,0,2.1,0.4,2.7,1.1c0.6,0.8,0.9,1.8,0.9,3.2v0.6H384.1z M388.8,225.1c0-0.2,0-0.3,0-0.5c0-0.1,0-0.3,0-0.4c0-0.1,0-0.2-0.1-0.3
		c0-0.1-0.1-0.2-0.1-0.3c-0.2-0.4-0.5-0.7-0.8-1c-0.4-0.2-0.8-0.4-1.3-0.4c-0.5,0-0.9,0.1-1.3,0.4c-0.4,0.2-0.6,0.6-0.8,1
		c-0.1,0.1-0.1,0.2-0.1,0.3c0,0.1-0.1,0.2-0.1,0.3c0,0.1,0,0.2,0,0.4c0,0.1,0,0.3,0,0.5H388.8z"/>
	<path class="st2" d="M395,230.2c-0.8,0-1.4-0.2-1.7-0.7c-0.4-0.5-0.5-1-0.5-1.7v-10.5h1.3v10.4c0,0.4,0.1,0.8,0.3,1
		c0.2,0.2,0.5,0.3,0.9,0.3h0.7v1.1H395z"/>
	<path class="st2" d="M403.2,230.2v-1.1c-0.4,0.5-0.8,0.8-1.2,0.9s-0.9,0.2-1.4,0.2c-0.5,0-0.9-0.1-1.2-0.2s-0.7-0.3-0.9-0.6
		c-0.4-0.5-0.7-1-0.9-1.7c-0.1-0.7-0.2-1.4-0.2-2.1c0-0.4,0-0.7,0-1.1c0-0.4,0.1-0.7,0.2-1c0.1-0.3,0.2-0.6,0.3-0.9
		c0.1-0.3,0.3-0.5,0.5-0.8c0.2-0.2,0.5-0.4,0.9-0.6s0.8-0.2,1.2-0.2c0.5,0,1,0.1,1.3,0.2c0.4,0.2,0.8,0.5,1.2,0.9v-5h1.3v12.8H403.2
		z M403.2,225.7c0-0.4,0-0.9-0.1-1.3c0-0.4-0.2-0.8-0.3-1.1c-0.2-0.3-0.4-0.6-0.7-0.8c-0.3-0.2-0.7-0.3-1.2-0.3
		c-0.5,0-0.9,0.1-1.2,0.3c-0.3,0.2-0.5,0.4-0.7,0.8c-0.2,0.3-0.3,0.7-0.3,1.1c0,0.4-0.1,0.8-0.1,1.3c0,0.4,0,0.9,0.1,1.3
		c0,0.4,0.2,0.8,0.3,1.1s0.4,0.6,0.7,0.8c0.3,0.2,0.7,0.3,1.2,0.3c0.5,0,0.9-0.1,1.2-0.3c0.3-0.2,0.5-0.4,0.7-0.8
		c0.2-0.3,0.3-0.7,0.3-1.1S403.2,226.2,403.2,225.7z"/>
	<path class="st2" d="M407.7,218.8v-1.5h1.5v1.5H407.7z M407.7,230.2v-8.9h1.3v8.9H407.7z"/>
	<path class="st2" d="M417.9,230.2v-5.5c0-0.8-0.2-1.4-0.6-1.8c-0.4-0.4-0.9-0.6-1.6-0.6s-1.2,0.2-1.6,0.6c-0.4,0.4-0.6,1-0.6,1.8
		v5.5h-1.3v-8.9h1.3v1c0.3-0.4,0.7-0.6,1.1-0.8c0.4-0.2,0.9-0.3,1.4-0.3c1,0,1.7,0.3,2.3,0.8c0.6,0.6,0.9,1.4,0.9,2.5v5.7H417.9z"/>
	<path class="st2" d="M428.9,230.4c0,0.6-0.1,1.1-0.3,1.5c-0.2,0.5-0.4,0.9-0.7,1.2c-0.3,0.3-0.7,0.6-1.2,0.8
		c-0.5,0.2-1,0.3-1.6,0.3c-0.3,0-0.6,0-0.9-0.1c-0.3,0-0.5-0.1-0.7-0.2c-0.2-0.1-0.5-0.2-0.7-0.4c-0.2-0.1-0.4-0.3-0.7-0.5l0.8-0.8
		c0.2,0.1,0.3,0.3,0.5,0.4c0.2,0.1,0.3,0.2,0.5,0.3c0.2,0.1,0.3,0.1,0.5,0.2c0.2,0,0.4,0.1,0.7,0.1c0.4,0,0.8-0.1,1.1-0.2
		c0.3-0.1,0.6-0.3,0.8-0.6s0.3-0.5,0.4-0.9c0.1-0.3,0.1-0.7,0.1-1.1V229c-0.4,0.5-0.7,0.8-1.2,0.9s-0.9,0.2-1.3,0.2
		c-0.5,0-0.9-0.1-1.2-0.2c-0.4-0.1-0.7-0.3-0.9-0.6c-0.4-0.4-0.7-1-0.9-1.6c-0.1-0.6-0.2-1.3-0.2-2.1s0.1-1.4,0.2-2.1
		c0.1-0.6,0.4-1.2,0.9-1.6c0.2-0.2,0.5-0.4,0.9-0.6c0.4-0.1,0.8-0.2,1.2-0.2c0.5,0,0.9,0.1,1.3,0.2c0.4,0.2,0.8,0.5,1.1,0.9v-1h1.3
		V230.4z M427.6,225.7c0-0.4,0-0.8-0.1-1.2s-0.2-0.8-0.3-1.1c-0.2-0.3-0.4-0.6-0.7-0.7c-0.3-0.2-0.7-0.3-1.2-0.3
		c-0.5,0-0.9,0.1-1.2,0.3c-0.3,0.2-0.5,0.4-0.7,0.7c-0.2,0.3-0.3,0.7-0.3,1.1s-0.1,0.8-0.1,1.2c0,0.4,0,0.8,0.1,1.2
		c0,0.4,0.2,0.7,0.3,1.1c0.2,0.3,0.4,0.6,0.7,0.7c0.3,0.2,0.7,0.3,1.2,0.3c0.5,0,0.9-0.1,1.2-0.3c0.3-0.2,0.5-0.4,0.7-0.7
		c0.2-0.3,0.3-0.7,0.3-1.1C427.6,226.5,427.6,226.1,427.6,225.7z"/>
</g>
<path class="st1" d="M240.7,601.6L240.7,601.6c0,28.5,23.1,51.6,51.6,51.6h274.4h115.1h114.3"/>
<path class="st2" d="M272,216v18.6h27.9V216H272z M287.5,225.8c-0.9,0.8-2.2,0.8-3.1,0l-8.2-7.5h19.5L287.5,225.8z M280.5,225.3
	l-6.1,5.5v-11.1L280.5,225.3z M282.2,226.9l0.7,0.6c0.9,0.8,2,1.2,3.1,1.2s2.2-0.4,3.1-1.2l0.7-0.6l5.9,5.4h-19.4L282.2,226.9z
	 M291.5,225.3l6.1-5.5v11.1L291.5,225.3z"/>
<rect x="272" y="266.4" class="st6" width="200.7" height="191.4"/>
<g class="st7">
	<path class="st2" d="M273.9,279.2v-12.8h8v1.2h-6.6v4.5h5.6v1.2h-5.6v4.6h6.6v1.2H273.9z"/>
	<path class="st2" d="M286.9,279.2c-0.4,0-0.7-0.1-1-0.2c-0.3-0.1-0.5-0.3-0.7-0.5s-0.3-0.5-0.4-0.8c-0.1-0.3-0.1-0.6-0.1-0.9v-5.5
		h-1.1v-1h1.1v-2.7h1.3v2.7h1.9v1H286v5.5c0,0.4,0.1,0.7,0.3,1c0.2,0.2,0.5,0.3,0.9,0.3h0.7v1.1H286.9z"/>
	<path class="st2" d="M295.4,279.2v-0.8c-0.3,0.3-0.7,0.6-1.1,0.7c-0.4,0.1-0.9,0.2-1.5,0.2c-0.6,0-1.1-0.1-1.5-0.2
		c-0.4-0.1-0.7-0.3-1-0.6c-0.2-0.2-0.4-0.5-0.5-0.8s-0.2-0.7-0.2-1c0-0.8,0.3-1.4,0.8-1.9c0.5-0.5,1.3-0.7,2.3-0.7h2.6v-0.8
		c0-0.6-0.2-1.1-0.5-1.5c-0.3-0.3-0.9-0.5-1.8-0.5c-0.6,0-1,0.1-1.3,0.2c-0.3,0.2-0.6,0.4-0.9,0.8l-0.9-0.8c0.4-0.5,0.8-0.9,1.3-1.1
		c0.5-0.2,1.1-0.3,1.8-0.3c1.2,0,2.1,0.3,2.7,0.8s0.9,1.2,0.9,2.2v6H295.4z M295.4,275.1h-2.5c-1.3,0-2,0.5-2,1.6
		c0,0.5,0.2,0.9,0.5,1.1c0.3,0.2,0.8,0.4,1.6,0.4c0.4,0,0.7,0,1-0.1c0.3-0.1,0.6-0.2,0.9-0.5c0.3-0.3,0.5-0.8,0.5-1.5V275.1z"/>
	<path class="st2" d="M302.3,279.2c-0.4,0-0.7-0.1-1-0.2c-0.3-0.1-0.5-0.3-0.7-0.5s-0.3-0.5-0.4-0.8c-0.1-0.3-0.1-0.6-0.1-0.9v-5.5
		h-1.1v-1h1.1v-2.7h1.3v2.7h1.9v1h-1.9v5.5c0,0.4,0.1,0.7,0.3,1c0.2,0.2,0.5,0.3,0.9,0.3h0.7v1.1H302.3z"/>
	<path class="st2" d="M306.5,275.1c0,1,0.2,1.7,0.7,2.3c0.4,0.5,1.1,0.8,2,0.8c0.5,0,0.9-0.1,1.3-0.2c0.3-0.2,0.7-0.4,1-0.8l0.9,0.8
		c-0.2,0.2-0.5,0.4-0.7,0.6s-0.5,0.3-0.7,0.4c-0.3,0.1-0.5,0.2-0.8,0.3c-0.3,0.1-0.6,0.1-1,0.1c-0.6,0-1.1-0.1-1.6-0.3
		s-0.9-0.5-1.2-0.8c-0.3-0.4-0.6-0.8-0.8-1.4c-0.2-0.6-0.3-1.2-0.3-2c0-1.5,0.3-2.6,1-3.4s1.5-1.2,2.7-1.2c1.2,0,2.1,0.4,2.7,1.1
		c0.6,0.8,0.9,1.8,0.9,3.2v0.6H306.5z M311.2,274.2c0-0.2,0-0.3,0-0.5c0-0.1,0-0.3,0-0.4c0-0.1,0-0.2-0.1-0.3c0-0.1-0.1-0.2-0.1-0.3
		c-0.2-0.4-0.5-0.7-0.8-1s-0.8-0.4-1.3-0.4s-0.9,0.1-1.3,0.4s-0.6,0.6-0.8,1c-0.1,0.1-0.1,0.2-0.1,0.3c0,0.1-0.1,0.2-0.1,0.3
		c0,0.1,0,0.2,0,0.4c0,0.1,0,0.3,0,0.5H311.2z"/>
	<path class="st2" d="M320.9,279.2v-5.5c0-0.8-0.2-1.4-0.6-1.8c-0.4-0.4-0.9-0.6-1.6-0.6s-1.2,0.2-1.6,0.6c-0.4,0.4-0.6,1-0.6,1.8
		v5.5h-1.3v-8.9h1.3v1c0.3-0.4,0.7-0.6,1.1-0.8c0.4-0.2,0.9-0.3,1.4-0.3c1,0,1.7,0.3,2.3,0.8c0.6,0.6,0.9,1.4,0.9,2.5v5.7H320.9z"/>
	<path class="st2" d="M329.8,267.9v-1.5h1.5v1.5H329.8z M329.8,279.2v-8.9h1.3v8.9H329.8z"/>
	<path class="st2" d="M340,279.2v-5.5c0-0.8-0.2-1.4-0.6-1.8c-0.4-0.4-0.9-0.6-1.6-0.6s-1.2,0.2-1.6,0.6c-0.4,0.4-0.6,1-0.6,1.8v5.5
		h-1.3v-8.9h1.3v1c0.3-0.4,0.7-0.6,1.1-0.8c0.4-0.2,0.9-0.3,1.4-0.3c1,0,1.7,0.3,2.3,0.8c0.6,0.6,0.9,1.4,0.9,2.5v5.7H340z"/>
	<path class="st2" d="M350.2,279.2v-5.5c0-0.8-0.2-1.4-0.6-1.8c-0.4-0.4-0.9-0.6-1.6-0.6s-1.2,0.2-1.6,0.6c-0.4,0.4-0.6,1-0.6,1.8
		v5.5h-1.3v-8.9h1.3v1c0.3-0.4,0.7-0.6,1.1-0.8c0.4-0.2,0.9-0.3,1.4-0.3c1,0,1.7,0.3,2.3,0.8c0.6,0.6,0.9,1.4,0.9,2.5v5.7H350.2z"/>
	<path class="st2" d="M356.2,271.4v7.9h-1.3v-7.9h-1.1v-1h1.1v-1.6c0-0.3,0-0.6,0.1-0.9c0.1-0.3,0.2-0.5,0.4-0.8
		c0.2-0.2,0.4-0.4,0.7-0.5c0.3-0.1,0.6-0.2,1-0.2h0.9v1.1h-0.7c-0.4,0-0.7,0.1-0.9,0.3c-0.2,0.2-0.3,0.5-0.3,1v1.6h1.9v1H356.2z"/>
	<path class="st2" d="M366.8,274.8c0,0.7-0.1,1.3-0.2,1.9c-0.1,0.6-0.4,1.1-0.9,1.6c-0.3,0.3-0.7,0.6-1.1,0.7s-0.9,0.3-1.4,0.3
		c-0.4,0-0.7,0-1-0.1c-0.3-0.1-0.6-0.2-0.9-0.4l-0.7,1.2h-1l1-1.7c-0.4-0.5-0.7-1-0.8-1.6c-0.1-0.6-0.2-1.2-0.2-1.9c0-0.3,0-0.7,0-1
		c0-0.3,0.1-0.6,0.2-0.9c0.1-0.3,0.2-0.6,0.3-0.8c0.1-0.3,0.3-0.5,0.5-0.7c0.3-0.3,0.7-0.6,1.1-0.7c0.4-0.2,0.9-0.3,1.4-0.3
		c0.4,0,0.7,0,1,0.1s0.6,0.2,0.9,0.4l0.7-1.2h1l-1,1.7c0.4,0.5,0.7,1,0.8,1.6C366.7,273.5,366.8,274.1,366.8,274.8z M364.4,271.8
		c-0.4-0.3-0.8-0.4-1.3-0.4c-0.6,0-1.2,0.2-1.6,0.6c-0.2,0.2-0.3,0.4-0.4,0.6c-0.1,0.2-0.2,0.4-0.2,0.7c-0.1,0.2-0.1,0.5-0.1,0.7
		c0,0.3,0,0.5,0,0.8c0,0.4,0,0.8,0.1,1.3c0,0.4,0.2,0.8,0.4,1.1L364.4,271.8z M365.5,274.8c0-0.4,0-0.8-0.1-1.3
		c0-0.4-0.2-0.8-0.4-1.1l-3.2,5.4c0.4,0.3,0.8,0.4,1.3,0.4c0.6,0,1.2-0.2,1.6-0.6c0.2-0.2,0.3-0.3,0.4-0.6c0.1-0.2,0.2-0.4,0.2-0.7
		s0.1-0.5,0.1-0.7C365.5,275.3,365.5,275.1,365.5,274.8z"/>
	<path class="st2" d="M374.5,272.1c-0.2-0.2-0.5-0.4-0.7-0.5s-0.5-0.1-0.8-0.1c-0.3,0-0.6,0.1-0.9,0.2s-0.5,0.3-0.7,0.5
		s-0.3,0.5-0.4,0.8c-0.1,0.3-0.2,0.6-0.2,0.9v5.4h-1.3v-8.9h1.3v1.1c0.2-0.4,0.6-0.7,1-0.9c0.4-0.2,0.9-0.3,1.4-0.3
		c0.4,0,0.8,0.1,1.1,0.2s0.7,0.3,1,0.6L374.5,272.1z"/>
	<path class="st2" d="M377.4,275.1c0,1,0.2,1.7,0.7,2.3c0.4,0.5,1.1,0.8,2,0.8c0.5,0,0.9-0.1,1.3-0.2c0.3-0.2,0.7-0.4,1-0.8l0.9,0.8
		c-0.2,0.2-0.5,0.4-0.7,0.6c-0.2,0.2-0.5,0.3-0.7,0.4c-0.3,0.1-0.5,0.2-0.8,0.3c-0.3,0.1-0.6,0.1-1,0.1c-0.6,0-1.1-0.1-1.6-0.3
		c-0.5-0.2-0.9-0.5-1.2-0.8c-0.3-0.4-0.6-0.8-0.8-1.4c-0.2-0.6-0.3-1.2-0.3-2c0-1.5,0.3-2.6,1-3.4c0.6-0.8,1.5-1.2,2.7-1.2
		c1.2,0,2.1,0.4,2.7,1.1c0.6,0.8,0.9,1.8,0.9,3.2v0.6H377.4z M382.1,274.2c0-0.2,0-0.3,0-0.5c0-0.1,0-0.3,0-0.4c0-0.1,0-0.2-0.1-0.3
		c0-0.1-0.1-0.2-0.1-0.3c-0.2-0.4-0.5-0.7-0.8-1c-0.4-0.2-0.8-0.4-1.3-0.4c-0.5,0-0.9,0.1-1.3,0.4c-0.4,0.2-0.6,0.6-0.8,1
		c-0.1,0.1-0.1,0.2-0.1,0.3c0,0.1-0.1,0.2-0.1,0.3c0,0.1,0,0.2,0,0.4c0,0.1,0,0.3,0,0.5H382.1z"/>
	<path class="st2" d="M391.1,272.1c-0.2-0.2-0.5-0.4-0.7-0.5s-0.5-0.1-0.8-0.1c-0.3,0-0.6,0.1-0.9,0.2c-0.3,0.1-0.5,0.3-0.7,0.5
		c-0.2,0.2-0.3,0.5-0.4,0.8c-0.1,0.3-0.2,0.6-0.2,0.9v5.4h-1.3v-8.9h1.3v1.1c0.2-0.4,0.6-0.7,1-0.9c0.5-0.2,0.9-0.3,1.4-0.3
		c0.4,0,0.8,0.1,1.1,0.2s0.7,0.3,1,0.6L391.1,272.1z"/>
	<path class="st2" d="M403.8,279.2v-5.5c0-0.8-0.2-1.4-0.6-1.8c-0.4-0.4-0.9-0.6-1.6-0.6c-0.7,0-1.2,0.2-1.6,0.6
		c-0.4,0.4-0.6,1-0.6,1.8v5.5h-1.3v-8.9h1.3v1c0.3-0.4,0.7-0.6,1.1-0.8c0.4-0.2,0.9-0.3,1.4-0.3c1,0,1.7,0.3,2.3,0.8
		c0.6,0.6,0.9,1.4,0.9,2.5v5.7H403.8z"/>
	<path class="st2" d="M410.5,281.4c-0.2,0.5-0.4,0.8-0.6,1c-0.2,0.2-0.5,0.4-0.8,0.5s-0.6,0.1-0.9,0.1h-0.6v-1.2h0.4
		c0.4,0,0.8-0.1,1-0.2c0.2-0.2,0.4-0.4,0.5-0.9l0.6-1.7l-3.2-8.7h1.4l2.4,7.1l2.4-7.1h1.4L410.5,281.4z"/>
	<path class="st2" d="M417,275.1c0,1,0.2,1.7,0.7,2.3c0.4,0.5,1.1,0.8,2,0.8c0.5,0,0.9-0.1,1.3-0.2c0.3-0.2,0.7-0.4,1-0.8l0.9,0.8
		c-0.2,0.2-0.5,0.4-0.7,0.6c-0.2,0.2-0.5,0.3-0.7,0.4c-0.3,0.1-0.5,0.2-0.8,0.3c-0.3,0.1-0.6,0.1-1,0.1c-0.6,0-1.1-0.1-1.6-0.3
		c-0.5-0.2-0.9-0.5-1.2-0.8c-0.3-0.4-0.6-0.8-0.8-1.4c-0.2-0.6-0.3-1.2-0.3-2c0-1.5,0.3-2.6,1-3.4c0.6-0.8,1.5-1.2,2.7-1.2
		c1.2,0,2.1,0.4,2.7,1.1c0.6,0.8,0.9,1.8,0.9,3.2v0.6H417z M421.7,274.2c0-0.2,0-0.3,0-0.5c0-0.1,0-0.3,0-0.4c0-0.1,0-0.2-0.1-0.3
		c0-0.1-0.1-0.2-0.1-0.3c-0.2-0.4-0.5-0.7-0.8-1c-0.4-0.2-0.8-0.4-1.3-0.4c-0.5,0-0.9,0.1-1.3,0.4c-0.4,0.2-0.6,0.6-0.8,1
		c-0.1,0.1-0.1,0.2-0.1,0.3c0,0.1-0.1,0.2-0.1,0.3c0,0.1,0,0.2,0,0.4c0,0.1,0,0.3,0,0.5H421.7z"/>
	<path class="st2" d="M435.1,272.1c-0.2-0.2-0.5-0.4-0.7-0.5s-0.5-0.1-0.8-0.1c-0.3,0-0.6,0.1-0.9,0.2c-0.3,0.1-0.5,0.3-0.7,0.5
		c-0.2,0.2-0.3,0.5-0.4,0.8c-0.1,0.3-0.2,0.6-0.2,0.9v5.4h-1.3v-8.9h1.3v1.1c0.2-0.4,0.6-0.7,1-0.9c0.5-0.2,0.9-0.3,1.4-0.3
		c0.4,0,0.8,0.1,1.1,0.2s0.7,0.3,1,0.6L435.1,272.1z"/>
	<path class="st2" d="M438,275.1c0,1,0.2,1.7,0.7,2.3c0.4,0.5,1.1,0.8,2,0.8c0.5,0,0.9-0.1,1.3-0.2c0.3-0.2,0.7-0.4,1-0.8l0.9,0.8
		c-0.2,0.2-0.5,0.4-0.7,0.6c-0.2,0.2-0.5,0.3-0.7,0.4c-0.3,0.1-0.5,0.2-0.8,0.3c-0.3,0.1-0.6,0.1-1,0.1c-0.6,0-1.1-0.1-1.6-0.3
		c-0.5-0.2-0.9-0.5-1.2-0.8c-0.3-0.4-0.6-0.8-0.8-1.4c-0.2-0.6-0.3-1.2-0.3-2c0-1.5,0.3-2.6,1-3.4c0.6-0.8,1.5-1.2,2.7-1.2
		c1.2,0,2.1,0.4,2.7,1.1c0.6,0.8,0.9,1.8,0.9,3.2v0.6H438z M442.7,274.2c0-0.2,0-0.3,0-0.5c0-0.1,0-0.3,0-0.4c0-0.1,0-0.2-0.1-0.3
		c0-0.1-0.1-0.2-0.1-0.3c-0.2-0.4-0.5-0.7-0.8-1c-0.4-0.2-0.8-0.4-1.3-0.4c-0.5,0-0.9,0.1-1.3,0.4c-0.4,0.2-0.6,0.6-0.8,1
		c-0.1,0.1-0.1,0.2-0.1,0.3c0,0.1-0.1,0.2-0.1,0.3c0,0.1,0,0.2,0,0.4c0,0.1,0,0.3,0,0.5H442.7z"/>
	<path class="st2" d="M449.2,279.2c-0.4,0-0.7-0.1-1-0.2c-0.3-0.1-0.5-0.3-0.7-0.5c-0.2-0.2-0.3-0.5-0.4-0.8
		c-0.1-0.3-0.1-0.6-0.1-0.9v-5.5h-1.1v-1h1.1v-2.7h1.3v2.7h1.9v1h-1.9v5.5c0,0.4,0.1,0.7,0.3,1c0.2,0.2,0.5,0.3,0.9,0.3h0.7v1.1
		H449.2z"/>
	<path class="st2" d="M458.4,279.2v-5.5c0-0.8-0.2-1.4-0.6-1.8c-0.4-0.4-0.9-0.6-1.6-0.6c-0.7,0-1.2,0.2-1.6,0.6
		c-0.4,0.4-0.6,1-0.6,1.8v5.5h-1.3v-8.9h1.3v1c0.3-0.4,0.7-0.6,1.1-0.8c0.4-0.2,0.9-0.3,1.4-0.3c1,0,1.7,0.3,2.3,0.8
		c0.6,0.6,0.9,1.4,0.9,2.5v5.7H458.4z"/>
</g>
<g class="st7">
	<path class="st2" d="M463.5,275.4v-1.6h4.9v1.6H463.5z"/>
</g>
<g class="st7">
	<path class="st2" d="M273.6,290.1v-1.5h1.5v1.5H273.6z M273.7,301.5v-8.9h1.3v8.9H273.7z"/>
	<path class="st2" d="M283.9,301.5v-5.5c0-0.8-0.2-1.4-0.6-1.8c-0.4-0.4-0.9-0.6-1.6-0.6s-1.2,0.2-1.6,0.6c-0.4,0.4-0.6,1-0.6,1.8
		v5.5h-1.3v-8.9h1.3v1c0.3-0.4,0.7-0.6,1.1-0.8c0.4-0.2,0.9-0.3,1.4-0.3c1,0,1.7,0.3,2.3,0.8c0.6,0.6,0.9,1.4,0.9,2.5v5.7H283.9z"/>
	<path class="st2" d="M294.8,301.8c0,0.6-0.1,1.1-0.3,1.5s-0.4,0.9-0.7,1.2c-0.3,0.3-0.7,0.6-1.2,0.8c-0.5,0.2-1,0.3-1.6,0.3
		c-0.3,0-0.6,0-0.9-0.1c-0.3,0-0.5-0.1-0.7-0.2s-0.5-0.2-0.7-0.4c-0.2-0.1-0.4-0.3-0.7-0.5l0.8-0.8c0.2,0.1,0.3,0.3,0.5,0.4
		c0.1,0.1,0.3,0.2,0.5,0.3s0.3,0.1,0.5,0.2c0.2,0,0.4,0.1,0.7,0.1c0.4,0,0.8-0.1,1.1-0.2c0.3-0.1,0.6-0.3,0.8-0.6
		c0.2-0.2,0.3-0.5,0.4-0.9c0.1-0.3,0.1-0.7,0.1-1.1v-1.4c-0.4,0.5-0.7,0.8-1.2,0.9c-0.4,0.2-0.9,0.2-1.3,0.2c-0.5,0-0.9-0.1-1.2-0.2
		c-0.4-0.1-0.7-0.3-0.9-0.6c-0.4-0.4-0.7-1-0.9-1.6c-0.1-0.6-0.2-1.3-0.2-2.1s0.1-1.4,0.2-2.1c0.1-0.6,0.4-1.2,0.9-1.6
		c0.2-0.2,0.5-0.4,0.9-0.6s0.8-0.2,1.2-0.2c0.5,0,0.9,0.1,1.3,0.2c0.4,0.2,0.8,0.5,1.1,0.9v-1h1.3V301.8z M293.6,297
		c0-0.4,0-0.8-0.1-1.2c0-0.4-0.2-0.8-0.3-1.1c-0.2-0.3-0.4-0.6-0.7-0.7c-0.3-0.2-0.7-0.3-1.2-0.3c-0.5,0-0.9,0.1-1.2,0.3
		c-0.3,0.2-0.5,0.4-0.7,0.7c-0.2,0.3-0.3,0.7-0.3,1.1c0,0.4-0.1,0.8-0.1,1.2c0,0.4,0,0.8,0.1,1.2c0,0.4,0.1,0.7,0.3,1.1
		c0.2,0.3,0.4,0.6,0.7,0.7c0.3,0.2,0.7,0.3,1.2,0.3c0.5,0,0.9-0.1,1.2-0.3c0.3-0.2,0.5-0.4,0.7-0.7c0.2-0.3,0.3-0.7,0.3-1.1
		C293.5,297.9,293.6,297.4,293.6,297z"/>
	<path class="st2" d="M304.5,298.9c0,0.9-0.3,1.5-1,2c-0.7,0.5-1.5,0.7-2.6,0.7c-0.8,0-1.4-0.1-2-0.3c-0.6-0.2-1.1-0.5-1.6-1
		l0.9-0.9c0.3,0.4,0.8,0.6,1.2,0.8c0.5,0.2,1,0.2,1.5,0.2c0.7,0,1.3-0.1,1.7-0.4c0.4-0.3,0.6-0.7,0.6-1.2c0-0.4-0.1-0.7-0.3-0.9
		c-0.2-0.2-0.6-0.3-1.1-0.4l-1.5-0.1c-0.9-0.1-1.5-0.3-2-0.7c-0.5-0.4-0.7-0.9-0.7-1.7c0-0.4,0.1-0.8,0.2-1.1s0.4-0.6,0.7-0.8
		c0.3-0.2,0.6-0.4,1-0.5s0.8-0.2,1.3-0.2c0.6,0,1.2,0.1,1.8,0.2c0.5,0.2,1,0.4,1.4,0.7l-0.8,0.8c-0.3-0.2-0.7-0.4-1.1-0.5
		c-0.4-0.1-0.8-0.2-1.3-0.2c-0.6,0-1.1,0.1-1.5,0.4c-0.3,0.3-0.5,0.6-0.5,1.1c0,0.4,0.1,0.7,0.4,0.9s0.7,0.3,1.2,0.4l1.4,0.1
		c0.4,0,0.7,0.1,1.1,0.2c0.3,0.1,0.6,0.2,0.8,0.4c0.2,0.2,0.4,0.4,0.5,0.7S304.5,298.5,304.5,298.9z"/>
	<path class="st2" d="M309.2,301.5c-0.8,0-1.4-0.2-1.7-0.7s-0.5-1-0.5-1.7v-10.5h1.3v10.4c0,0.4,0.1,0.8,0.3,1
		c0.2,0.2,0.5,0.3,0.9,0.3h0.7v1.1H309.2z"/>
	<path class="st2" d="M312.2,290.1v-1.5h1.5v1.5H312.2z M312.3,301.5v-8.9h1.3v8.9H312.3z"/>
	<path class="st2" d="M322.5,301.5v-5.5c0-0.8-0.2-1.4-0.6-1.8c-0.4-0.4-0.9-0.6-1.6-0.6s-1.2,0.2-1.6,0.6c-0.4,0.4-0.6,1-0.6,1.8
		v5.5h-1.3v-8.9h1.3v1c0.3-0.4,0.7-0.6,1.1-0.8c0.4-0.2,0.9-0.3,1.4-0.3c1,0,1.7,0.3,2.3,0.8c0.6,0.6,0.9,1.4,0.9,2.5v5.7H322.5z"/>
	<path class="st2" d="M328.3,303.1c0,0.3,0,0.6-0.1,0.9c-0.1,0.3-0.2,0.5-0.4,0.8c-0.2,0.2-0.4,0.4-0.7,0.5c-0.3,0.1-0.6,0.2-1,0.2
		h-0.9v-1.1h0.7c0.5,0,0.8-0.1,0.9-0.3c0.2-0.2,0.3-0.5,0.3-1v-10.4h1.3V303.1z M326.9,290.1v-1.5h1.5v1.5H326.9z"/>
	<path class="st2" d="M332.3,297.4c0,1,0.2,1.7,0.7,2.3c0.4,0.5,1.1,0.8,2,0.8c0.5,0,0.9-0.1,1.3-0.2c0.3-0.2,0.7-0.4,1-0.8l0.9,0.8
		c-0.2,0.2-0.5,0.4-0.7,0.6s-0.5,0.3-0.7,0.4c-0.3,0.1-0.5,0.2-0.8,0.3c-0.3,0.1-0.6,0.1-1,0.1c-0.6,0-1.1-0.1-1.6-0.3
		s-0.9-0.5-1.2-0.8c-0.3-0.4-0.6-0.8-0.8-1.4c-0.2-0.6-0.3-1.2-0.3-2c0-1.5,0.3-2.6,1-3.4s1.5-1.2,2.7-1.2c1.2,0,2.1,0.4,2.7,1.1
		c0.6,0.8,0.9,1.8,0.9,3.2v0.6H332.3z M337,296.5c0-0.2,0-0.3,0-0.5c0-0.1,0-0.3,0-0.4c0-0.1,0-0.2-0.1-0.3c0-0.1-0.1-0.2-0.1-0.3
		c-0.2-0.4-0.5-0.7-0.8-1s-0.8-0.4-1.3-0.4s-0.9,0.1-1.3,0.4s-0.6,0.6-0.8,1c-0.1,0.1-0.1,0.2-0.1,0.3c0,0.1-0.1,0.2-0.1,0.3
		c0,0.1,0,0.2,0,0.4c0,0.1,0,0.3,0,0.5H337z"/>
	<path class="st2" d="M346,294.4c-0.2-0.2-0.5-0.4-0.7-0.5c-0.2-0.1-0.5-0.1-0.8-0.1c-0.3,0-0.6,0.1-0.9,0.2
		c-0.3,0.1-0.5,0.3-0.7,0.5c-0.2,0.2-0.3,0.5-0.4,0.8s-0.2,0.6-0.2,0.9v5.4h-1.3v-8.9h1.3v1.1c0.2-0.4,0.6-0.7,1-0.9
		c0.4-0.2,0.9-0.3,1.4-0.3c0.4,0,0.8,0.1,1.1,0.2s0.7,0.3,1,0.6L346,294.4z"/>
	<path class="st2" d="M354.7,293.7v7.9h-1.3v-7.9h-1.1v-1h1.1v-1.6c0-0.3,0-0.6,0.1-0.9c0.1-0.3,0.2-0.5,0.4-0.8
		c0.2-0.2,0.4-0.4,0.7-0.5c0.3-0.1,0.6-0.2,1-0.2h0.9v1.1h-0.7c-0.4,0-0.7,0.1-0.9,0.3c-0.2,0.2-0.3,0.5-0.3,1v1.6h1.9v1H354.7z"/>
	<path class="st2" d="M365.3,297.1c0,0.7-0.1,1.3-0.2,1.9c-0.1,0.6-0.4,1.1-0.9,1.6c-0.3,0.3-0.7,0.6-1.1,0.7s-0.9,0.3-1.4,0.3
		s-1-0.1-1.4-0.3c-0.4-0.2-0.8-0.4-1.1-0.7c-0.2-0.2-0.4-0.5-0.5-0.7c-0.1-0.3-0.2-0.6-0.3-0.8s-0.1-0.6-0.2-0.9c0-0.3,0-0.7,0-1
		c0-0.7,0.1-1.3,0.2-1.9c0.1-0.6,0.4-1.1,0.9-1.6c0.3-0.3,0.7-0.6,1.1-0.7c0.4-0.2,0.9-0.3,1.4-0.3s1,0.1,1.4,0.3
		c0.4,0.2,0.8,0.4,1.1,0.7c0.5,0.5,0.7,1,0.9,1.6C365.2,295.8,365.3,296.4,365.3,297.1z M364,297.1c0-0.5,0-1-0.1-1.5
		c-0.1-0.5-0.3-0.9-0.6-1.2c-0.4-0.4-1-0.6-1.6-0.6c-0.6,0-1.2,0.2-1.6,0.6c-0.3,0.3-0.5,0.7-0.6,1.2s-0.1,1-0.1,1.5
		c0,0.3,0,0.5,0,0.8c0,0.3,0,0.5,0.1,0.7c0,0.2,0.1,0.5,0.2,0.7c0.1,0.2,0.2,0.4,0.4,0.6c0.4,0.4,1,0.6,1.6,0.6
		c0.6,0,1.2-0.2,1.6-0.6c0.3-0.3,0.5-0.7,0.6-1.2C363.9,298.1,364,297.6,364,297.1z"/>
	<path class="st2" d="M373,294.4c-0.2-0.2-0.5-0.4-0.7-0.5c-0.2-0.1-0.5-0.1-0.8-0.1c-0.3,0-0.6,0.1-0.9,0.2s-0.5,0.3-0.7,0.5
		c-0.2,0.2-0.3,0.5-0.4,0.8s-0.2,0.6-0.2,0.9v5.4H368v-8.9h1.3v1.1c0.2-0.4,0.6-0.7,1-0.9c0.5-0.2,0.9-0.3,1.4-0.3
		c0.4,0,0.8,0.1,1.1,0.2s0.7,0.3,1,0.6L373,294.4z"/>
	<path class="st2" d="M385.1,301.5v-0.8c-0.3,0.3-0.7,0.6-1.1,0.7c-0.4,0.1-0.9,0.2-1.5,0.2c-0.6,0-1.1-0.1-1.5-0.2
		c-0.4-0.1-0.7-0.3-1-0.6c-0.2-0.2-0.4-0.5-0.5-0.8s-0.2-0.7-0.2-1c0-0.8,0.3-1.4,0.8-1.9s1.3-0.7,2.3-0.7h2.6v-0.8
		c0-0.6-0.2-1.1-0.5-1.5c-0.3-0.3-0.9-0.5-1.8-0.5c-0.6,0-1,0.1-1.3,0.2c-0.3,0.2-0.6,0.4-0.9,0.8l-0.9-0.8c0.4-0.5,0.8-0.9,1.3-1.1
		c0.5-0.2,1.1-0.3,1.8-0.3c1.2,0,2.1,0.3,2.7,0.8c0.6,0.5,0.9,1.2,0.9,2.2v6H385.1z M385.1,297.4h-2.5c-1.3,0-2,0.5-2,1.6
		c0,0.5,0.2,0.9,0.5,1.1s0.8,0.4,1.6,0.4c0.4,0,0.7,0,1-0.1c0.3-0.1,0.6-0.2,0.9-0.5c0.3-0.3,0.4-0.8,0.4-1.5V297.4z"/>
	<path class="st2" d="M391.8,301.5c-0.8,0-1.3-0.2-1.7-0.7s-0.5-1-0.5-1.7v-10.5h1.3v10.4c0,0.4,0.1,0.8,0.3,1
		c0.2,0.2,0.5,0.3,0.9,0.3h0.7v1.1H391.8z"/>
	<path class="st2" d="M397.1,301.5c-0.8,0-1.3-0.2-1.7-0.7s-0.5-1-0.5-1.7v-10.5h1.3v10.4c0,0.4,0.1,0.8,0.3,1
		c0.2,0.2,0.5,0.3,0.9,0.3h0.7v1.1H397.1z"/>
	<path class="st2" d="M400.8,297.4c0,1,0.2,1.7,0.7,2.3c0.4,0.5,1.1,0.8,2,0.8c0.5,0,0.9-0.1,1.3-0.2c0.3-0.2,0.7-0.4,1-0.8l0.9,0.8
		c-0.2,0.2-0.5,0.4-0.7,0.6c-0.2,0.2-0.5,0.3-0.7,0.4c-0.3,0.1-0.5,0.2-0.8,0.3c-0.3,0.1-0.6,0.1-1,0.1c-0.6,0-1.1-0.1-1.6-0.3
		c-0.5-0.2-0.9-0.5-1.2-0.8c-0.3-0.4-0.6-0.8-0.8-1.4c-0.2-0.6-0.3-1.2-0.3-2c0-1.5,0.3-2.6,1-3.4c0.6-0.8,1.5-1.2,2.7-1.2
		c1.2,0,2.1,0.4,2.7,1.1c0.6,0.8,0.9,1.8,0.9,3.2v0.6H400.8z M405.5,296.5c0-0.2,0-0.3,0-0.5c0-0.1,0-0.3,0-0.4c0-0.1,0-0.2-0.1-0.3
		c0-0.1-0.1-0.2-0.1-0.3c-0.2-0.4-0.5-0.7-0.8-1c-0.4-0.2-0.8-0.4-1.3-0.4c-0.5,0-0.9,0.1-1.3,0.4c-0.4,0.2-0.6,0.6-0.8,1
		c-0.1,0.1-0.1,0.2-0.1,0.3c0,0.1-0.1,0.2-0.1,0.3c0,0.1,0,0.2,0,0.4c0,0.1,0,0.3,0,0.5H405.5z"/>
	<path class="st2" d="M415.6,293.7v7.9h-1.3v-7.9h-1.1v-1h1.1v-1.6c0-0.3,0-0.6,0.1-0.9c0.1-0.3,0.2-0.5,0.4-0.8
		c0.2-0.2,0.4-0.4,0.7-0.5s0.6-0.2,1-0.2h0.9v1.1h-0.7c-0.4,0-0.7,0.1-0.9,0.3c-0.2,0.2-0.3,0.5-0.3,1v1.6h1.9v1H415.6z"/>
	<path class="st2" d="M426.1,297.1c0,0.7-0.1,1.3-0.2,1.9c-0.1,0.6-0.4,1.1-0.9,1.6c-0.3,0.3-0.7,0.6-1.1,0.7s-0.9,0.3-1.4,0.3
		c-0.5,0-1-0.1-1.4-0.3s-0.8-0.4-1.1-0.7c-0.2-0.2-0.4-0.5-0.5-0.7c-0.1-0.3-0.2-0.6-0.3-0.8c-0.1-0.3-0.1-0.6-0.2-0.9
		c0-0.3,0-0.7,0-1c0-0.7,0.1-1.3,0.2-1.9c0.1-0.6,0.4-1.1,0.9-1.6c0.3-0.3,0.7-0.6,1.1-0.7c0.4-0.2,0.9-0.3,1.4-0.3
		c0.5,0,1,0.1,1.4,0.3c0.4,0.2,0.8,0.4,1.1,0.7c0.5,0.5,0.8,1,0.9,1.6C426.1,295.8,426.1,296.4,426.1,297.1z M424.8,297.1
		c0-0.5,0-1-0.1-1.5c-0.1-0.5-0.3-0.9-0.6-1.2c-0.4-0.4-1-0.6-1.6-0.6c-0.6,0-1.2,0.2-1.6,0.6c-0.3,0.3-0.5,0.7-0.6,1.2
		c-0.1,0.5-0.1,1-0.1,1.5c0,0.3,0,0.5,0,0.8s0,0.5,0.1,0.7s0.1,0.5,0.2,0.7c0.1,0.2,0.2,0.4,0.4,0.6c0.4,0.4,1,0.6,1.6,0.6
		c0.6,0,1.2-0.2,1.6-0.6c0.3-0.3,0.5-0.7,0.6-1.2C424.8,298.1,424.8,297.6,424.8,297.1z"/>
	<path class="st2" d="M433.9,294.4c-0.2-0.2-0.5-0.4-0.7-0.5s-0.5-0.1-0.8-0.1c-0.3,0-0.6,0.1-0.9,0.2c-0.3,0.1-0.5,0.3-0.7,0.5
		c-0.2,0.2-0.3,0.5-0.4,0.8c-0.1,0.3-0.2,0.6-0.2,0.9v5.4h-1.3v-8.9h1.3v1.1c0.2-0.4,0.6-0.7,1-0.9c0.5-0.2,0.9-0.3,1.4-0.3
		c0.4,0,0.8,0.1,1.1,0.2s0.7,0.3,1,0.6L433.9,294.4z"/>
	<path class="st2" d="M436.8,297.4c0,1,0.2,1.7,0.7,2.3c0.4,0.5,1.1,0.8,2,0.8c0.5,0,0.9-0.1,1.3-0.2c0.3-0.2,0.7-0.4,1-0.8l0.9,0.8
		c-0.2,0.2-0.5,0.4-0.7,0.6c-0.2,0.2-0.5,0.3-0.7,0.4c-0.3,0.1-0.5,0.2-0.8,0.3c-0.3,0.1-0.6,0.1-1,0.1c-0.6,0-1.1-0.1-1.6-0.3
		c-0.5-0.2-0.9-0.5-1.2-0.8c-0.3-0.4-0.6-0.8-0.8-1.4c-0.2-0.6-0.3-1.2-0.3-2c0-1.5,0.3-2.6,1-3.4c0.6-0.8,1.5-1.2,2.7-1.2
		c1.2,0,2.1,0.4,2.7,1.1c0.6,0.8,0.9,1.8,0.9,3.2v0.6H436.8z M441.5,296.5c0-0.2,0-0.3,0-0.5c0-0.1,0-0.3,0-0.4c0-0.1,0-0.2-0.1-0.3
		c0-0.1-0.1-0.2-0.1-0.3c-0.2-0.4-0.5-0.7-0.8-1c-0.4-0.2-0.8-0.4-1.3-0.4c-0.5,0-0.9,0.1-1.3,0.4c-0.4,0.2-0.6,0.6-0.8,1
		c-0.1,0.1-0.1,0.2-0.1,0.3c0,0.1-0.1,0.2-0.1,0.3c0,0.1,0,0.2,0,0.4c0,0.1,0,0.3,0,0.5H441.5z"/>
	<path class="st2" d="M448,301.5c-0.4,0-0.7-0.1-1-0.2c-0.3-0.1-0.5-0.3-0.7-0.5c-0.2-0.2-0.3-0.5-0.4-0.8c-0.1-0.3-0.1-0.6-0.1-0.9
		v-5.5h-1.1v-1h1.1V290h1.3v2.7h1.9v1H447v5.5c0,0.4,0.1,0.7,0.3,1c0.2,0.2,0.5,0.3,0.9,0.3h0.7v1.1H448z"/>
	<path class="st2" d="M456.4,301.5v-0.8c-0.3,0.3-0.7,0.6-1.1,0.7c-0.4,0.1-0.9,0.2-1.5,0.2c-0.6,0-1.1-0.1-1.5-0.2
		c-0.4-0.1-0.7-0.3-1-0.6c-0.2-0.2-0.4-0.5-0.5-0.8s-0.2-0.7-0.2-1c0-0.8,0.3-1.4,0.8-1.9s1.3-0.7,2.3-0.7h2.6v-0.8
		c0-0.6-0.2-1.1-0.5-1.5c-0.3-0.3-0.9-0.5-1.8-0.5c-0.6,0-1,0.1-1.3,0.2c-0.3,0.2-0.6,0.4-0.9,0.8l-0.9-0.8c0.4-0.5,0.8-0.9,1.3-1.1
		c0.5-0.2,1.1-0.3,1.8-0.3c1.2,0,2.1,0.3,2.7,0.8c0.6,0.5,0.9,1.2,0.9,2.2v6H456.4z M456.4,297.4h-2.5c-1.3,0-2,0.5-2,1.6
		c0,0.5,0.2,0.9,0.5,1.1s0.8,0.4,1.6,0.4c0.4,0,0.7,0,1-0.1c0.3-0.1,0.6-0.2,0.9-0.5c0.3-0.3,0.4-0.8,0.4-1.5V297.4z"/>
	<path class="st2" d="M466.7,301.5l-2.8-4.5l-1.7,2v2.6h-1.3v-12.8h1.3v8.6l4-4.6h1.6l-3,3.4l3.5,5.5H466.7z"/>
</g>
<g class="st7">
	<path class="st2" d="M273.6,312.5V311h1.5v1.5H273.6z M273.7,323.8V315h1.3v8.9H273.7z"/>
	<path class="st2" d="M289.7,319.4c0,0.7-0.1,1.4-0.2,2.1c-0.1,0.7-0.4,1.2-0.9,1.7c-0.2,0.2-0.5,0.4-0.9,0.6
		c-0.4,0.1-0.8,0.2-1.2,0.2c-0.5,0-1-0.1-1.4-0.2s-0.8-0.5-1.2-0.9v1.1h-1.3V311h1.3v5c0.4-0.5,0.8-0.8,1.2-0.9
		c0.4-0.1,0.8-0.2,1.3-0.2c0.5,0,0.9,0.1,1.2,0.2c0.4,0.1,0.7,0.3,0.9,0.6c0.2,0.2,0.4,0.5,0.5,0.8c0.1,0.3,0.3,0.6,0.3,0.9
		c0.1,0.3,0.1,0.7,0.2,1C289.7,318.7,289.7,319,289.7,319.4z M288.4,319.4c0-0.4,0-0.9-0.1-1.3c0-0.4-0.2-0.8-0.3-1.1
		c-0.2-0.3-0.4-0.6-0.7-0.8c-0.3-0.2-0.7-0.3-1.2-0.3c-0.5,0-0.9,0.1-1.2,0.3c-0.3,0.2-0.5,0.4-0.7,0.8c-0.2,0.3-0.3,0.7-0.3,1.1
		c0,0.4-0.1,0.8-0.1,1.3c0,0.4,0,0.9,0.1,1.3s0.2,0.8,0.3,1.1c0.2,0.3,0.4,0.6,0.7,0.8c0.3,0.2,0.7,0.3,1.2,0.3
		c0.5,0,0.9-0.1,1.2-0.3c0.3-0.2,0.5-0.4,0.7-0.8s0.3-0.7,0.3-1.1C288.4,320.3,288.4,319.8,288.4,319.4z"/>
	<path class="st2" d="M297.4,316.7c-0.2-0.2-0.5-0.4-0.7-0.5c-0.2-0.1-0.5-0.1-0.8-0.1c-0.3,0-0.6,0.1-0.9,0.2
		c-0.3,0.1-0.5,0.3-0.7,0.5c-0.2,0.2-0.3,0.5-0.4,0.8s-0.2,0.6-0.2,0.9v5.4h-1.3V315h1.3v1.1c0.2-0.4,0.6-0.7,1-0.9
		c0.4-0.2,0.9-0.3,1.4-0.3c0.4,0,0.8,0.1,1.1,0.2s0.7,0.3,1,0.6L297.4,316.7z"/>
	<path class="st2" d="M304.9,323.8V323c-0.3,0.3-0.7,0.6-1.1,0.7c-0.4,0.1-0.9,0.2-1.5,0.2c-0.6,0-1.1-0.1-1.5-0.2
		c-0.4-0.1-0.7-0.3-1-0.6c-0.2-0.2-0.4-0.5-0.5-0.8s-0.2-0.7-0.2-1c0-0.8,0.3-1.4,0.8-1.9c0.5-0.5,1.3-0.7,2.3-0.7h2.6v-0.8
		c0-0.6-0.2-1.1-0.5-1.5c-0.3-0.3-0.9-0.5-1.8-0.5c-0.6,0-1,0.1-1.3,0.2c-0.3,0.2-0.6,0.4-0.9,0.8l-0.9-0.8c0.4-0.5,0.8-0.9,1.3-1.1
		c0.5-0.2,1.1-0.3,1.8-0.3c1.2,0,2.1,0.3,2.7,0.8s0.9,1.2,0.9,2.2v6H304.9z M304.9,319.7h-2.5c-1.3,0-2,0.5-2,1.6
		c0,0.5,0.2,0.9,0.5,1.1c0.3,0.2,0.8,0.4,1.6,0.4c0.4,0,0.7,0,1-0.1c0.3-0.1,0.6-0.2,0.9-0.5c0.3-0.3,0.5-0.8,0.5-1.5V319.7z"/>
	<path class="st2" d="M315,323.8v-5.5c0-0.8-0.2-1.4-0.6-1.8c-0.4-0.4-0.9-0.6-1.6-0.6s-1.2,0.2-1.6,0.6c-0.4,0.4-0.6,1-0.6,1.8v5.5
		h-1.3V315h1.3v1c0.3-0.4,0.7-0.6,1.1-0.8c0.4-0.2,0.9-0.3,1.4-0.3c1,0,1.7,0.3,2.3,0.8c0.6,0.6,0.9,1.4,0.9,2.5v5.7H315z"/>
	<path class="st2" d="M325.9,321.2c0,0.9-0.3,1.5-1,2c-0.7,0.5-1.5,0.7-2.6,0.7c-0.8,0-1.4-0.1-2-0.3c-0.6-0.2-1.1-0.5-1.6-1
		l0.9-0.9c0.3,0.4,0.8,0.6,1.2,0.8c0.5,0.2,1,0.2,1.5,0.2c0.7,0,1.3-0.1,1.7-0.4c0.4-0.3,0.6-0.7,0.6-1.2c0-0.4-0.1-0.7-0.3-0.9
		c-0.2-0.2-0.6-0.3-1.1-0.4l-1.5-0.1c-0.9-0.1-1.5-0.3-2-0.7c-0.5-0.4-0.7-0.9-0.7-1.7c0-0.4,0.1-0.8,0.2-1.1s0.4-0.6,0.7-0.8
		c0.3-0.2,0.6-0.4,1-0.5s0.8-0.2,1.3-0.2c0.6,0,1.2,0.1,1.8,0.2c0.5,0.2,1,0.4,1.4,0.7l-0.8,0.8c-0.3-0.2-0.7-0.4-1.1-0.5
		c-0.4-0.1-0.8-0.2-1.3-0.2c-0.6,0-1.1,0.1-1.5,0.4c-0.3,0.3-0.5,0.6-0.5,1.1c0,0.4,0.1,0.7,0.4,0.9s0.7,0.3,1.2,0.4l1.4,0.1
		c0.4,0,0.7,0.1,1.1,0.2c0.3,0.1,0.6,0.2,0.8,0.4c0.2,0.2,0.4,0.4,0.5,0.7S325.9,320.8,325.9,321.2z"/>
	<path class="st2" d="M329.7,325.4c0,0.3,0,0.6-0.1,0.9c-0.1,0.3-0.2,0.5-0.4,0.8c-0.2,0.2-0.4,0.4-0.7,0.5c-0.3,0.1-0.6,0.2-1,0.2
		h-0.9v-1.1h0.7c0.5,0,0.8-0.1,0.9-0.3c0.2-0.2,0.3-0.5,0.3-1V315h1.3V325.4z M328.3,312.5V311h1.5v1.5H328.3z"/>
	<path class="st2" d="M333.8,319.7c0,1,0.2,1.7,0.7,2.3c0.4,0.5,1.1,0.8,2,0.8c0.5,0,0.9-0.1,1.3-0.2c0.3-0.2,0.7-0.4,1-0.8l0.9,0.8
		c-0.2,0.2-0.5,0.4-0.7,0.6s-0.5,0.3-0.7,0.4c-0.3,0.1-0.5,0.2-0.8,0.3c-0.3,0.1-0.6,0.1-1,0.1c-0.6,0-1.1-0.1-1.6-0.3
		s-0.9-0.5-1.2-0.8c-0.3-0.4-0.6-0.8-0.8-1.4c-0.2-0.6-0.3-1.2-0.3-2c0-1.5,0.3-2.6,1-3.4s1.5-1.2,2.7-1.2c1.2,0,2.1,0.4,2.7,1.1
		c0.6,0.8,0.9,1.8,0.9,3.2v0.6H333.8z M338.5,318.8c0-0.2,0-0.3,0-0.5c0-0.1,0-0.3,0-0.4c0-0.1,0-0.2-0.1-0.3c0-0.1-0.1-0.2-0.1-0.3
		c-0.2-0.4-0.5-0.7-0.8-1s-0.8-0.4-1.3-0.4s-0.9,0.1-1.3,0.4s-0.6,0.6-0.8,1c-0.1,0.1-0.1,0.2-0.1,0.3c0,0.1-0.1,0.2-0.1,0.3
		c0,0.1,0,0.2,0,0.4c0,0.1,0,0.3,0,0.5H338.5z"/>
	<path class="st2" d="M348.2,323.8v-5.5c0-0.8-0.2-1.4-0.6-1.8c-0.4-0.4-0.9-0.6-1.6-0.6s-1.2,0.2-1.6,0.6c-0.4,0.4-0.6,1-0.6,1.8
		v5.5h-1.3V315h1.3v1c0.3-0.4,0.7-0.6,1.1-0.8c0.4-0.2,0.9-0.3,1.4-0.3c1,0,1.7,0.3,2.3,0.8c0.6,0.6,0.9,1.4,0.9,2.5v5.7H348.2z"/>
	<path class="st2" d="M363.5,321.2c0,0.9-0.3,1.5-1,2c-0.7,0.5-1.5,0.7-2.6,0.7c-0.8,0-1.4-0.1-2-0.3c-0.6-0.2-1.1-0.5-1.6-1
		l0.9-0.9c0.3,0.4,0.8,0.6,1.2,0.8c0.5,0.2,1,0.2,1.5,0.2c0.7,0,1.3-0.1,1.7-0.4c0.4-0.3,0.6-0.7,0.6-1.2c0-0.4-0.1-0.7-0.3-0.9
		c-0.2-0.2-0.6-0.3-1.1-0.4l-1.5-0.1c-0.9-0.1-1.5-0.3-2-0.7c-0.5-0.4-0.7-0.9-0.7-1.7c0-0.4,0.1-0.8,0.2-1.1s0.4-0.6,0.7-0.8
		c0.3-0.2,0.6-0.4,1-0.5s0.8-0.2,1.3-0.2c0.6,0,1.2,0.1,1.8,0.2c0.5,0.2,1,0.4,1.4,0.7l-0.8,0.8c-0.3-0.2-0.7-0.4-1.1-0.5
		c-0.4-0.1-0.8-0.2-1.3-0.2c-0.6,0-1.1,0.1-1.5,0.4c-0.3,0.3-0.5,0.6-0.5,1.1c0,0.4,0.1,0.7,0.4,0.9s0.7,0.3,1.2,0.4l1.4,0.1
		c0.4,0,0.7,0.1,1.1,0.2c0.3,0.1,0.6,0.2,0.8,0.4c0.2,0.2,0.4,0.4,0.5,0.7S363.5,320.8,363.5,321.2z"/>
	<path class="st2" d="M372.8,319.4c0,0.7-0.1,1.3-0.2,1.9c-0.1,0.6-0.4,1.1-0.9,1.6c-0.3,0.3-0.7,0.6-1.1,0.7s-0.9,0.3-1.4,0.3
		s-1-0.1-1.4-0.3c-0.4-0.2-0.8-0.4-1.1-0.7c-0.2-0.2-0.4-0.5-0.5-0.7c-0.1-0.3-0.2-0.6-0.3-0.8s-0.1-0.6-0.2-0.9c0-0.3,0-0.7,0-1
		c0-0.7,0.1-1.3,0.2-1.9c0.1-0.6,0.4-1.1,0.9-1.6c0.3-0.3,0.7-0.6,1.1-0.7c0.4-0.2,0.9-0.3,1.4-0.3s1,0.1,1.4,0.3
		c0.4,0.2,0.8,0.4,1.1,0.7c0.5,0.5,0.7,1,0.9,1.6C372.7,318.1,372.8,318.7,372.8,319.4z M371.5,319.4c0-0.5,0-1-0.1-1.5
		s-0.3-0.9-0.6-1.2c-0.4-0.4-1-0.6-1.6-0.6c-0.6,0-1.2,0.2-1.6,0.6c-0.3,0.3-0.5,0.7-0.6,1.2s-0.1,1-0.1,1.5c0,0.3,0,0.5,0,0.8
		c0,0.3,0,0.5,0.1,0.7c0,0.2,0.1,0.5,0.2,0.7c0.1,0.2,0.2,0.4,0.4,0.6c0.4,0.4,1,0.6,1.6,0.6c0.6,0,1.2-0.2,1.6-0.6
		c0.3-0.3,0.5-0.7,0.6-1.2S371.5,319.9,371.5,319.4z"/>
	<path class="st2" d="M386.9,323.8v-5.5c0-0.8-0.2-1.4-0.6-1.8c-0.4-0.4-0.9-0.6-1.6-0.6c-0.6,0-1.2,0.2-1.6,0.6
		c-0.4,0.4-0.6,0.9-0.6,1.6v5.6h-1.3v-5.5c0-0.8-0.2-1.4-0.6-1.8c-0.4-0.4-0.9-0.6-1.6-0.6s-1.2,0.2-1.6,0.6c-0.4,0.4-0.6,1-0.6,1.8
		v5.5h-1.3V315h1.3v1c0.3-0.4,0.7-0.6,1.1-0.8c0.4-0.2,0.9-0.3,1.4-0.3c0.6,0,1.1,0.1,1.6,0.4s0.8,0.6,1.1,1.1
		c0.7-1,1.7-1.5,2.9-1.5c0.5,0,0.9,0.1,1.3,0.2c0.4,0.1,0.7,0.3,1,0.6c0.6,0.6,1,1.4,1,2.5v5.7H386.9z"/>
	<path class="st2" d="M401.2,323.8v-1.1c-0.4,0.5-0.8,0.8-1.2,0.9s-0.9,0.2-1.4,0.2c-0.5,0-0.9-0.1-1.2-0.2
		c-0.4-0.1-0.7-0.3-0.9-0.6c-0.4-0.5-0.7-1-0.9-1.7c-0.1-0.7-0.2-1.4-0.2-2.1c0-0.4,0-0.7,0-1.1c0-0.4,0.1-0.7,0.2-1
		c0.1-0.3,0.2-0.6,0.3-0.9c0.1-0.3,0.3-0.5,0.5-0.8c0.2-0.2,0.5-0.4,0.9-0.6c0.4-0.1,0.8-0.2,1.2-0.2c0.5,0,1,0.1,1.4,0.2
		c0.4,0.2,0.8,0.5,1.2,0.9v-5h1.3v12.8H401.2z M401.1,319.4c0-0.4,0-0.9-0.1-1.3c0-0.4-0.2-0.8-0.3-1.1c-0.2-0.3-0.4-0.6-0.7-0.8
		c-0.3-0.2-0.7-0.3-1.2-0.3c-0.5,0-0.9,0.1-1.2,0.3c-0.3,0.2-0.5,0.4-0.7,0.8c-0.2,0.3-0.3,0.7-0.3,1.1c0,0.4-0.1,0.8-0.1,1.3
		c0,0.4,0,0.9,0.1,1.3s0.2,0.8,0.3,1.1s0.4,0.6,0.7,0.8c0.3,0.2,0.7,0.3,1.2,0.3c0.5,0,0.9-0.1,1.2-0.3c0.3-0.2,0.5-0.4,0.7-0.8
		c0.2-0.3,0.3-0.7,0.3-1.1C401.1,320.3,401.1,319.8,401.1,319.4z"/>
	<path class="st2" d="M411.3,323.8v-1c-0.3,0.4-0.7,0.6-1.1,0.8c-0.4,0.2-0.9,0.3-1.4,0.3c-1,0-1.7-0.3-2.3-0.8
		c-0.3-0.3-0.5-0.7-0.7-1.1c-0.1-0.4-0.2-0.9-0.2-1.4V315h1.3v5.5c0,0.8,0.2,1.4,0.6,1.8c0.4,0.4,0.9,0.6,1.6,0.6
		c0.7,0,1.2-0.2,1.6-0.6c0.4-0.4,0.6-1,0.6-1.8V315h1.3v8.9H411.3z"/>
	<path class="st2" d="M431.6,323.8v-5.5c0-0.8-0.2-1.4-0.6-1.8c-0.4-0.4-0.9-0.6-1.6-0.6c-0.6,0-1.2,0.2-1.6,0.6
		c-0.4,0.4-0.6,0.9-0.6,1.6v5.6H426v-5.5c0-0.8-0.2-1.4-0.6-1.8c-0.4-0.4-0.9-0.6-1.6-0.6s-1.2,0.2-1.6,0.6c-0.4,0.4-0.6,1-0.6,1.8
		v5.5h-1.3V315h1.3v1c0.3-0.4,0.7-0.6,1.1-0.8c0.4-0.2,0.9-0.3,1.4-0.3c0.6,0,1.1,0.1,1.6,0.4s0.8,0.6,1.1,1.1
		c0.7-1,1.7-1.5,2.9-1.5c0.5,0,0.9,0.1,1.3,0.2c0.4,0.1,0.7,0.3,1,0.6c0.6,0.6,1,1.4,1,2.5v5.7H431.6z"/>
	<path class="st2" d="M441.1,323.8V323c-0.3,0.3-0.7,0.6-1.1,0.7c-0.4,0.1-0.9,0.2-1.5,0.2c-0.6,0-1.1-0.1-1.5-0.2
		c-0.4-0.1-0.7-0.3-1-0.6c-0.2-0.2-0.4-0.5-0.5-0.8s-0.2-0.7-0.2-1c0-0.8,0.3-1.4,0.8-1.9s1.3-0.7,2.3-0.7h2.6v-0.8
		c0-0.6-0.2-1.1-0.5-1.5c-0.3-0.3-0.9-0.5-1.8-0.5c-0.6,0-1,0.1-1.3,0.2c-0.3,0.2-0.6,0.4-0.9,0.8l-0.9-0.8c0.4-0.5,0.8-0.9,1.3-1.1
		c0.5-0.2,1.1-0.3,1.8-0.3c1.2,0,2.1,0.3,2.7,0.8c0.6,0.5,0.9,1.2,0.9,2.2v6H441.1z M441.1,319.7h-2.5c-1.3,0-2,0.5-2,1.6
		c0,0.5,0.2,0.9,0.5,1.1s0.8,0.4,1.6,0.4c0.4,0,0.7,0,1-0.1c0.3-0.1,0.6-0.2,0.9-0.5c0.3-0.3,0.4-0.8,0.4-1.5V319.7z M441.1,311.5
		c0,0.3-0.1,0.6-0.2,0.8c-0.1,0.3-0.3,0.5-0.5,0.7c-0.2,0.2-0.4,0.3-0.7,0.5c-0.3,0.1-0.5,0.2-0.8,0.2s-0.6-0.1-0.8-0.2
		c-0.3-0.1-0.5-0.3-0.7-0.5c-0.2-0.2-0.3-0.4-0.5-0.7c-0.1-0.3-0.2-0.5-0.2-0.8s0.1-0.6,0.2-0.8c0.1-0.3,0.3-0.5,0.5-0.7
		c0.2-0.2,0.4-0.3,0.7-0.5c0.3-0.1,0.5-0.2,0.8-0.2s0.6,0.1,0.8,0.2c0.3,0.1,0.5,0.3,0.7,0.5c0.2,0.2,0.3,0.4,0.5,0.7
		C441.1,310.9,441.1,311.2,441.1,311.5z M440.3,311.5c0-0.3-0.1-0.6-0.4-0.9c-0.2-0.2-0.5-0.4-0.9-0.4c-0.3,0-0.6,0.1-0.9,0.4
		c-0.2,0.2-0.4,0.5-0.4,0.9c0,0.3,0.1,0.6,0.4,0.9c0.2,0.2,0.5,0.4,0.9,0.4c0.3,0,0.6-0.1,0.9-0.4
		C440.1,312.1,440.3,311.8,440.3,311.5z"/>
</g>
<g class="st7">
	<path class="st2" d="M280.1,343.5c0,0.9-0.3,1.5-1,2c-0.7,0.5-1.5,0.7-2.6,0.7c-0.8,0-1.4-0.1-2-0.3c-0.6-0.2-1.1-0.5-1.6-1
		l0.9-0.9c0.3,0.4,0.8,0.6,1.2,0.8c0.5,0.2,1,0.2,1.5,0.2c0.7,0,1.3-0.1,1.7-0.4c0.4-0.3,0.6-0.7,0.6-1.2c0-0.4-0.1-0.7-0.3-0.9
		c-0.2-0.2-0.6-0.3-1.1-0.4l-1.5-0.1c-0.9-0.1-1.5-0.3-2-0.7c-0.5-0.4-0.7-0.9-0.7-1.7c0-0.4,0.1-0.8,0.2-1.1s0.4-0.6,0.7-0.8
		c0.3-0.2,0.6-0.4,1-0.5s0.8-0.2,1.3-0.2c0.6,0,1.2,0.1,1.8,0.2c0.5,0.2,1,0.4,1.4,0.7l-0.8,0.8c-0.3-0.2-0.7-0.4-1.1-0.5
		c-0.4-0.1-0.8-0.2-1.3-0.2c-0.6,0-1.1,0.1-1.5,0.4c-0.3,0.3-0.5,0.6-0.5,1.1c0,0.4,0.1,0.7,0.4,0.9s0.7,0.3,1.2,0.4l1.4,0.1
		c0.4,0,0.7,0.1,1.1,0.2c0.3,0.1,0.6,0.2,0.8,0.4c0.2,0.2,0.4,0.4,0.5,0.7S280.1,343.1,280.1,343.5z"/>
	<path class="st2" d="M283.4,342c0,1,0.2,1.7,0.7,2.3c0.4,0.5,1.1,0.8,2,0.8c0.5,0,0.9-0.1,1.3-0.2c0.3-0.2,0.7-0.4,1-0.8l0.9,0.8
		c-0.2,0.2-0.5,0.4-0.7,0.6s-0.5,0.3-0.7,0.4c-0.3,0.1-0.5,0.2-0.8,0.3c-0.3,0.1-0.6,0.1-1,0.1c-0.6,0-1.1-0.1-1.6-0.3
		s-0.9-0.5-1.2-0.8c-0.3-0.4-0.6-0.8-0.8-1.4c-0.2-0.6-0.3-1.2-0.3-2c0-1.5,0.3-2.6,1-3.4s1.5-1.2,2.7-1.2c1.2,0,2.1,0.4,2.7,1.1
		c0.6,0.8,0.9,1.8,0.9,3.2v0.6H283.4z M288.1,341.1c0-0.2,0-0.3,0-0.5c0-0.1,0-0.3,0-0.4c0-0.1,0-0.2-0.1-0.3c0-0.1-0.1-0.2-0.1-0.3
		c-0.2-0.4-0.5-0.7-0.8-1s-0.8-0.4-1.3-0.4s-0.9,0.1-1.3,0.4s-0.6,0.6-0.8,1c-0.1,0.1-0.1,0.2-0.1,0.3c0,0.1-0.1,0.2-0.1,0.3
		c0,0.1,0,0.2,0,0.4c0,0.1,0,0.3,0,0.5H288.1z"/>
	<path class="st2" d="M294.6,346.1c-0.4,0-0.7-0.1-1-0.2c-0.3-0.1-0.5-0.3-0.7-0.5s-0.3-0.5-0.4-0.8c-0.1-0.3-0.1-0.6-0.1-0.9v-5.5
		h-1.1v-1h1.1v-2.7h1.3v2.7h1.9v1h-1.9v5.5c0,0.4,0.1,0.7,0.3,1c0.2,0.2,0.5,0.3,0.9,0.3h0.7v1.1H294.6z"/>
	<path class="st2" d="M300.6,346.1c-0.4,0-0.7-0.1-1-0.2c-0.3-0.1-0.5-0.3-0.7-0.5s-0.3-0.5-0.4-0.8c-0.1-0.3-0.1-0.6-0.1-0.9v-5.5
		h-1.1v-1h1.1v-2.7h1.3v2.7h1.9v1h-1.9v5.5c0,0.4,0.1,0.7,0.3,1c0.2,0.2,0.5,0.3,0.9,0.3h0.7v1.1H300.6z"/>
	<path class="st2" d="M304.8,342c0,1,0.2,1.7,0.7,2.3c0.4,0.5,1.1,0.8,2,0.8c0.5,0,0.9-0.1,1.3-0.2c0.3-0.2,0.7-0.4,1-0.8l0.9,0.8
		c-0.2,0.2-0.5,0.4-0.7,0.6s-0.5,0.3-0.7,0.4c-0.3,0.1-0.5,0.2-0.8,0.3c-0.3,0.1-0.6,0.1-1,0.1c-0.6,0-1.1-0.1-1.6-0.3
		s-0.9-0.5-1.2-0.8c-0.3-0.4-0.6-0.8-0.8-1.4c-0.2-0.6-0.3-1.2-0.3-2c0-1.5,0.3-2.6,1-3.4s1.5-1.2,2.7-1.2c1.2,0,2.1,0.4,2.7,1.1
		c0.6,0.8,0.9,1.8,0.9,3.2v0.6H304.8z M309.5,341.1c0-0.2,0-0.3,0-0.5c0-0.1,0-0.3,0-0.4c0-0.1,0-0.2-0.1-0.3c0-0.1-0.1-0.2-0.1-0.3
		c-0.2-0.4-0.5-0.7-0.8-1s-0.8-0.4-1.3-0.4s-0.9,0.1-1.3,0.4s-0.6,0.6-0.8,1c-0.1,0.1-0.1,0.2-0.1,0.3c0,0.1-0.1,0.2-0.1,0.3
		c0,0.1,0,0.2,0,0.4c0,0.1,0,0.3,0,0.5H309.5z"/>
	<path class="st2" d="M323.3,346.1v-1.1c-0.4,0.5-0.8,0.8-1.2,0.9c-0.4,0.2-0.9,0.2-1.4,0.2c-0.5,0-0.9-0.1-1.2-0.2
		s-0.7-0.3-0.9-0.6c-0.4-0.5-0.7-1-0.9-1.7c-0.1-0.7-0.2-1.4-0.2-2.1c0-0.4,0-0.7,0-1.1c0-0.4,0.1-0.7,0.2-1
		c0.1-0.3,0.2-0.6,0.3-0.9c0.1-0.3,0.3-0.5,0.5-0.8c0.2-0.2,0.5-0.4,0.9-0.6s0.8-0.2,1.2-0.2c0.5,0,1,0.1,1.4,0.2
		c0.4,0.2,0.8,0.5,1.2,0.9v-5h1.3v12.8H323.3z M323.3,341.7c0-0.4,0-0.9-0.1-1.3c0-0.4-0.1-0.8-0.3-1.1c-0.2-0.3-0.4-0.6-0.7-0.8
		c-0.3-0.2-0.7-0.3-1.2-0.3c-0.5,0-0.9,0.1-1.2,0.3c-0.3,0.2-0.5,0.4-0.7,0.8c-0.2,0.3-0.3,0.7-0.3,1.1c0,0.4-0.1,0.8-0.1,1.3
		c0,0.4,0,0.9,0.1,1.3c0,0.4,0.2,0.8,0.3,1.1s0.4,0.6,0.7,0.8c0.3,0.2,0.7,0.3,1.2,0.3c0.5,0,0.9-0.1,1.2-0.3
		c0.3-0.2,0.5-0.4,0.7-0.8c0.2-0.3,0.3-0.7,0.3-1.1S323.3,342.1,323.3,341.7z"/>
	<path class="st2" d="M328.6,342c0,1,0.2,1.7,0.7,2.3c0.4,0.5,1.1,0.8,2,0.8c0.5,0,0.9-0.1,1.3-0.2c0.3-0.2,0.7-0.4,1-0.8l0.9,0.8
		c-0.2,0.2-0.5,0.4-0.7,0.6s-0.5,0.3-0.7,0.4c-0.3,0.1-0.5,0.2-0.8,0.3c-0.3,0.1-0.6,0.1-1,0.1c-0.6,0-1.1-0.1-1.6-0.3
		s-0.9-0.5-1.2-0.8c-0.3-0.4-0.6-0.8-0.8-1.4c-0.2-0.6-0.3-1.2-0.3-2c0-1.5,0.3-2.6,1-3.4s1.5-1.2,2.7-1.2c1.2,0,2.1,0.4,2.7,1.1
		c0.6,0.8,0.9,1.8,0.9,3.2v0.6H328.6z M333.3,341.1c0-0.2,0-0.3,0-0.5c0-0.1,0-0.3,0-0.4c0-0.1,0-0.2-0.1-0.3c0-0.1-0.1-0.2-0.1-0.3
		c-0.2-0.4-0.5-0.7-0.8-1s-0.8-0.4-1.3-0.4s-0.9,0.1-1.3,0.4s-0.6,0.6-0.8,1c-0.1,0.1-0.1,0.2-0.1,0.3c0,0.1-0.1,0.2-0.1,0.3
		c0,0.1,0,0.2,0,0.4c0,0.1,0,0.3,0,0.5H333.3z"/>
	<path class="st2" d="M343.9,346.4c0,0.6-0.1,1.1-0.3,1.5s-0.4,0.9-0.7,1.2c-0.3,0.3-0.7,0.6-1.2,0.8c-0.5,0.2-1,0.3-1.6,0.3
		c-0.3,0-0.6,0-0.9-0.1c-0.3,0-0.5-0.1-0.7-0.2s-0.5-0.2-0.7-0.4c-0.2-0.1-0.4-0.3-0.7-0.5l0.8-0.8c0.2,0.1,0.3,0.3,0.5,0.4
		c0.1,0.1,0.3,0.2,0.5,0.3s0.3,0.1,0.5,0.2c0.2,0,0.4,0.1,0.7,0.1c0.4,0,0.8-0.1,1.1-0.2c0.3-0.1,0.6-0.3,0.8-0.6
		c0.2-0.2,0.3-0.5,0.4-0.9c0.1-0.3,0.1-0.7,0.1-1.1V345c-0.4,0.5-0.7,0.8-1.2,0.9c-0.4,0.2-0.9,0.2-1.3,0.2c-0.5,0-0.9-0.1-1.2-0.2
		c-0.4-0.1-0.7-0.3-0.9-0.6c-0.4-0.4-0.7-1-0.9-1.6c-0.1-0.6-0.2-1.3-0.2-2.1s0.1-1.4,0.2-2.1c0.1-0.6,0.4-1.2,0.9-1.6
		c0.2-0.2,0.5-0.4,0.9-0.6s0.8-0.2,1.2-0.2c0.5,0,0.9,0.1,1.3,0.2c0.4,0.2,0.8,0.5,1.1,0.9v-1h1.3V346.4z M342.6,341.6
		c0-0.4,0-0.8-0.1-1.2c0-0.4-0.2-0.8-0.3-1.1c-0.2-0.3-0.4-0.6-0.7-0.7c-0.3-0.2-0.7-0.3-1.2-0.3c-0.5,0-0.9,0.1-1.2,0.3
		c-0.3,0.2-0.5,0.4-0.7,0.7c-0.2,0.3-0.3,0.7-0.3,1.1c0,0.4-0.1,0.8-0.1,1.2c0,0.4,0,0.8,0.1,1.2c0,0.4,0.1,0.7,0.3,1.1
		c0.2,0.3,0.4,0.6,0.7,0.7c0.3,0.2,0.7,0.3,1.2,0.3c0.5,0,0.9-0.1,1.2-0.3c0.3-0.2,0.5-0.4,0.7-0.7c0.2-0.3,0.3-0.7,0.3-1.1
		C342.6,342.5,342.6,342,342.6,341.6z"/>
	<path class="st2" d="M351.5,334.8v-1.5h1.5v1.5H351.5z M351.6,346.1v-8.9h1.3v8.9H351.6z"/>
	<path class="st2" d="M361.8,346.1v-5.5c0-0.8-0.2-1.4-0.6-1.8c-0.4-0.4-0.9-0.6-1.6-0.6s-1.2,0.2-1.6,0.6c-0.4,0.4-0.6,1-0.6,1.8
		v5.5h-1.3v-8.9h1.3v1c0.3-0.4,0.7-0.6,1.1-0.8c0.4-0.2,0.9-0.3,1.4-0.3c1,0,1.7,0.3,2.3,0.8c0.6,0.6,0.9,1.4,0.9,2.5v5.7H361.8z"/>
	<path class="st2" d="M371.9,346.1v-5.5c0-0.8-0.2-1.4-0.6-1.8c-0.4-0.4-0.9-0.6-1.6-0.6s-1.2,0.2-1.6,0.6c-0.4,0.4-0.6,1-0.6,1.8
		v5.5h-1.3v-8.9h1.3v1c0.3-0.4,0.7-0.6,1.1-0.8c0.4-0.2,0.9-0.3,1.4-0.3c1,0,1.7,0.3,2.3,0.8c0.6,0.6,0.9,1.4,0.9,2.5v5.7H371.9z"/>
	<path class="st2" d="M380.8,334.8v-1.5h1.5v1.5H380.8z M380.9,346.1v-8.9h1.3v8.9H380.9z"/>
	<path class="st2" d="M385.4,346.1v-1.7h1.7v1.7H385.4z"/>
</g>
</svg>
