<?xml version="1.0" encoding="utf-8"?>
<!-- Generator: Adobe Illustrator 22.1.0, SVG Export Plug-In . SVG Version: 6.00 Build 0)  -->
<svg version="1.1" id="Layer_1" xmlns="http://www.w3.org/2000/svg" xmlns:xlink="http://www.w3.org/1999/xlink" x="0px" y="0px"
	 viewBox="0 0 740 740" style="enable-background:new 0 0 740 740;" xml:space="preserve">
<style type="text/css">
	.st0{fill:none;stroke:#1EAEF7;stroke-width:3;stroke-miterlimit:10;}
	.st1{opacity:0.2;fill:#1EAEF7;enable-background:new    ;}
	.st2{fill:none;}
	.st3{enable-background:new    ;}
	.st4{fill:#404041;}
	.st5{fill:#0E3050;}
</style>
<path class="st0" d="M240.4,137.5h261.3l0,0c0-28.5-23.1-51.6-51.6-51.6H259.2H-39"/>
<path class="st0" d="M809,653.2H533.5H291.9c-28.5,0-51.6-23.1-51.6-51.6l0,0h144.1H240.7"/>
<rect x="259.2" y="192.5" class="st1" width="224.4" height="241.1"/>
<rect x="271.7" y="262.2" class="st2" width="200.7" height="157.1"/>
<g class="st3">
	<path class="st4" d="M281.7,275l-6.8-10.3V275h-1.4v-12.8h1.3l6.8,10.2v-10.2h1.4V275H281.7z"/>
	<path class="st4" d="M288.7,277.2c-0.2,0.5-0.4,0.8-0.6,1c-0.2,0.2-0.5,0.4-0.8,0.5c-0.3,0.1-0.6,0.1-0.9,0.1h-0.6v-1.2h0.4
		c0.4,0,0.8-0.1,1-0.2s0.4-0.4,0.5-0.9l0.6-1.7l-3.2-8.7h1.4l2.4,7.1l2.4-7.1h1.4L288.7,277.2z"/>
	<path class="st4" d="M310.4,275v-5.5c0-0.8-0.2-1.4-0.6-1.8c-0.4-0.4-0.9-0.6-1.6-0.6c-0.6,0-1.2,0.2-1.6,0.6
		c-0.4,0.4-0.6,0.9-0.6,1.6v5.6h-1.3v-5.5c0-0.8-0.2-1.4-0.6-1.8c-0.4-0.4-0.9-0.6-1.6-0.6s-1.2,0.2-1.6,0.6c-0.4,0.4-0.6,1-0.6,1.8
		v5.5H299v-8.9h1.3v1c0.3-0.4,0.7-0.6,1.1-0.8c0.4-0.2,0.9-0.3,1.4-0.3c0.6,0,1.1,0.1,1.6,0.4s0.8,0.6,1.1,1.1
		c0.7-1,1.7-1.5,2.9-1.5c0.5,0,0.9,0.1,1.3,0.2c0.4,0.1,0.7,0.3,1,0.6c0.6,0.6,1,1.4,1,2.5v5.7H310.4z"/>
	<path class="st4" d="M315.7,271c0,1,0.2,1.7,0.7,2.3c0.4,0.5,1.1,0.8,2,0.8c0.5,0,0.9-0.1,1.3-0.2c0.3-0.2,0.7-0.4,1-0.8l0.9,0.8
		c-0.2,0.2-0.5,0.4-0.7,0.6s-0.5,0.3-0.7,0.4c-0.3,0.1-0.5,0.2-0.8,0.3c-0.3,0.1-0.6,0.1-1,0.1c-0.6,0-1.1-0.1-1.6-0.3
		s-0.9-0.5-1.2-0.8c-0.3-0.4-0.6-0.8-0.8-1.4c-0.2-0.6-0.3-1.2-0.3-2c0-1.5,0.3-2.6,1-3.4s1.5-1.2,2.7-1.2c1.2,0,2.1,0.4,2.7,1.1
		c0.6,0.8,0.9,1.8,0.9,3.2v0.6H315.7z M320.4,270c0-0.2,0-0.3,0-0.5c0-0.1,0-0.3,0-0.4c0-0.1,0-0.2-0.1-0.3c0-0.1-0.1-0.2-0.1-0.3
		c-0.2-0.4-0.5-0.7-0.8-1s-0.8-0.4-1.3-0.4s-0.9,0.1-1.3,0.4s-0.6,0.6-0.8,1c-0.1,0.1-0.1,0.2-0.1,0.3c0,0.1-0.1,0.2-0.1,0.3
		c0,0.1,0,0.2,0,0.4c0,0.1,0,0.3,0,0.5H320.4z"/>
	<path class="st4" d="M326.6,275c-0.8,0-1.4-0.2-1.7-0.7s-0.5-1-0.5-1.7v-10.5h1.3v10.4c0,0.4,0.1,0.8,0.3,1
		c0.2,0.2,0.5,0.3,0.9,0.3h0.7v1.1H326.6z"/>
	<path class="st4" d="M334.8,275V274c-0.4,0.5-0.8,0.8-1.2,0.9c-0.4,0.2-0.9,0.2-1.4,0.2c-0.5,0-0.9-0.1-1.2-0.2s-0.7-0.3-0.9-0.6
		c-0.4-0.5-0.7-1-0.9-1.7c-0.1-0.7-0.2-1.4-0.2-2.1c0-0.4,0-0.7,0-1.1c0-0.4,0.1-0.7,0.2-1c0.1-0.3,0.2-0.6,0.3-0.9
		c0.1-0.3,0.3-0.5,0.5-0.8c0.2-0.2,0.5-0.4,0.9-0.6s0.8-0.2,1.2-0.2c0.5,0,1,0.1,1.4,0.2c0.4,0.2,0.8,0.5,1.2,0.9v-5h1.3V275H334.8z
		 M334.8,270.6c0-0.4,0-0.9-0.1-1.3c0-0.4-0.1-0.8-0.3-1.1c-0.2-0.3-0.4-0.6-0.7-0.8c-0.3-0.2-0.7-0.3-1.2-0.3
		c-0.5,0-0.9,0.1-1.2,0.3c-0.3,0.2-0.5,0.4-0.7,0.8c-0.2,0.3-0.3,0.7-0.3,1.1c0,0.4-0.1,0.8-0.1,1.3c0,0.4,0,0.9,0.1,1.3
		c0,0.4,0.2,0.8,0.3,1.1s0.4,0.6,0.7,0.8c0.3,0.2,0.7,0.3,1.2,0.3c0.5,0,0.9-0.1,1.2-0.3c0.3-0.2,0.5-0.4,0.7-0.8
		c0.2-0.3,0.3-0.7,0.3-1.1S334.8,271,334.8,270.6z"/>
	<path class="st4" d="M339.3,263.7v-1.5h1.5v1.5H339.3z M339.3,275v-8.9h1.3v8.9H339.3z"/>
	<path class="st4" d="M349.5,275v-5.5c0-0.8-0.2-1.4-0.6-1.8c-0.4-0.4-0.9-0.6-1.6-0.6s-1.2,0.2-1.6,0.6c-0.4,0.4-0.6,1-0.6,1.8v5.5
		h-1.3v-8.9h1.3v1c0.3-0.4,0.7-0.6,1.1-0.8c0.4-0.2,0.9-0.3,1.4-0.3c1,0,1.7,0.3,2.3,0.8c0.6,0.6,0.9,1.4,0.9,2.5v5.7H349.5z"/>
	<path class="st4" d="M360.5,275.3c0,0.6-0.1,1.1-0.3,1.5s-0.4,0.9-0.7,1.2c-0.3,0.3-0.7,0.6-1.2,0.8c-0.5,0.2-1,0.3-1.6,0.3
		c-0.3,0-0.6,0-0.9-0.1c-0.3,0-0.5-0.1-0.7-0.2s-0.5-0.2-0.7-0.4c-0.2-0.1-0.4-0.3-0.7-0.5l0.8-0.8c0.2,0.1,0.3,0.3,0.5,0.4
		c0.1,0.1,0.3,0.2,0.5,0.3s0.3,0.1,0.5,0.2c0.2,0,0.4,0.1,0.7,0.1c0.4,0,0.8-0.1,1.1-0.2c0.3-0.1,0.6-0.3,0.8-0.6
		c0.2-0.2,0.3-0.5,0.4-0.9c0.1-0.3,0.1-0.7,0.1-1.1v-1.4c-0.4,0.5-0.7,0.8-1.2,0.9c-0.4,0.2-0.9,0.2-1.3,0.2c-0.5,0-0.9-0.1-1.2-0.2
		c-0.4-0.1-0.7-0.3-0.9-0.6c-0.4-0.4-0.7-1-0.9-1.6c-0.1-0.6-0.2-1.3-0.2-2.1s0.1-1.4,0.2-2.1c0.1-0.6,0.4-1.2,0.9-1.6
		c0.2-0.2,0.5-0.4,0.9-0.6s0.8-0.2,1.2-0.2c0.5,0,0.9,0.1,1.3,0.2c0.4,0.2,0.8,0.5,1.1,0.9v-1h1.3V275.3z M359.2,270.5
		c0-0.4,0-0.8-0.1-1.2c0-0.4-0.2-0.8-0.3-1.1c-0.2-0.3-0.4-0.6-0.7-0.7c-0.3-0.2-0.7-0.3-1.2-0.3c-0.5,0-0.9,0.1-1.2,0.3
		c-0.3,0.2-0.5,0.4-0.7,0.7c-0.2,0.3-0.3,0.7-0.3,1.1c0,0.4-0.1,0.8-0.1,1.2c0,0.4,0,0.8,0.1,1.2c0,0.4,0.1,0.7,0.3,1.1
		c0.2,0.3,0.4,0.6,0.7,0.7c0.3,0.2,0.7,0.3,1.2,0.3c0.5,0,0.9-0.1,1.2-0.3c0.3-0.2,0.5-0.4,0.7-0.7c0.2-0.3,0.3-0.7,0.3-1.1
		C359.2,271.4,359.2,271,359.2,270.5z"/>
</g>
<g class="st3">
	<path class="st4" d="M282.5,305.4c0,0.5,0,1,0,1.4c0,0.5-0.1,0.9-0.1,1.4c-0.1,0.4-0.2,0.8-0.3,1.2c-0.2,0.4-0.4,0.7-0.7,1
		c-0.4,0.5-0.9,0.8-1.5,1c-0.5,0.2-1.2,0.3-1.9,0.3h-4.4V299h4.4c0.7,0,1.4,0.1,1.9,0.3c0.5,0.2,1,0.6,1.5,1c0.3,0.3,0.5,0.7,0.7,1
		c0.1,0.4,0.3,0.8,0.3,1.2c0.1,0.4,0.1,0.9,0.1,1.4C282.5,304.5,282.5,304.9,282.5,305.4z M281.1,305.4c0-0.4,0-0.9,0-1.3
		s0-0.8-0.1-1.2c-0.1-0.4-0.1-0.7-0.3-1c-0.1-0.3-0.3-0.6-0.5-0.8c-0.3-0.4-0.7-0.6-1.1-0.7c-0.4-0.1-0.9-0.2-1.4-0.2h-2.8v10.4h2.8
		c0.5,0,1-0.1,1.4-0.2s0.8-0.4,1.1-0.7c0.2-0.2,0.4-0.5,0.5-0.8c0.1-0.3,0.2-0.6,0.3-1c0.1-0.4,0.1-0.8,0.1-1.2
		S281.1,305.9,281.1,305.4z"/>
	<path class="st4" d="M291,311.8v-1c-0.3,0.4-0.7,0.6-1.1,0.8s-0.9,0.3-1.4,0.3c-1,0-1.7-0.3-2.3-0.8c-0.3-0.3-0.5-0.7-0.7-1.1
		s-0.2-0.9-0.2-1.4V303h1.3v5.5c0,0.8,0.2,1.4,0.6,1.8s0.9,0.6,1.6,0.6s1.2-0.2,1.6-0.6c0.4-0.4,0.6-1,0.6-1.8V303h1.3v8.9H291z"/>
	<path class="st4" d="M305.7,311.8v-5.5c0-0.8-0.2-1.4-0.6-1.8c-0.4-0.4-0.9-0.6-1.6-0.6s-1.2,0.2-1.6,0.6c-0.4,0.4-0.6,1-0.6,1.8
		v5.5H300V299h1.3v4.9c0.6-0.7,1.5-1.1,2.5-1.1c1,0,1.8,0.3,2.4,0.9s0.8,1.4,0.8,2.4v5.7H305.7z"/>
	<path class="st4" d="M315.2,311.8V311c-0.3,0.3-0.7,0.6-1.1,0.7c-0.4,0.1-0.9,0.2-1.5,0.2c-0.6,0-1.1-0.1-1.5-0.2
		c-0.4-0.1-0.7-0.3-1-0.6c-0.2-0.2-0.4-0.5-0.5-0.8s-0.2-0.7-0.2-1c0-0.8,0.3-1.4,0.8-1.9c0.5-0.5,1.3-0.7,2.3-0.7h2.6v-0.8
		c0-0.6-0.2-1.1-0.5-1.5c-0.3-0.3-0.9-0.5-1.8-0.5c-0.6,0-1,0.1-1.3,0.2c-0.3,0.2-0.6,0.4-0.9,0.8l-0.9-0.8c0.4-0.5,0.8-0.9,1.3-1.1
		c0.5-0.2,1.1-0.3,1.8-0.3c1.2,0,2.1,0.3,2.7,0.8s0.9,1.2,0.9,2.2v6H315.2z M315.2,307.8h-2.5c-1.3,0-2,0.5-2,1.6
		c0,0.5,0.2,0.9,0.5,1.1c0.3,0.2,0.8,0.4,1.6,0.4c0.4,0,0.7,0,1-0.1c0.3-0.1,0.6-0.2,0.9-0.5c0.3-0.3,0.5-0.8,0.5-1.5V307.8z"/>
	<path class="st4" d="M324.6,304.7c-0.2-0.2-0.5-0.4-0.7-0.5c-0.2-0.1-0.5-0.1-0.8-0.1c-0.3,0-0.6,0.1-0.9,0.2
		c-0.3,0.1-0.5,0.3-0.7,0.5c-0.2,0.2-0.3,0.5-0.4,0.8s-0.2,0.6-0.2,0.9v5.4h-1.3V303h1.3v1.1c0.2-0.4,0.6-0.7,1-0.9
		c0.4-0.2,0.9-0.3,1.4-0.3c0.4,0,0.8,0.1,1.1,0.2s0.7,0.3,1,0.6L324.6,304.7z"/>
	<path class="st4" d="M343.1,311.8v-5.5c0-0.8-0.2-1.4-0.6-1.8c-0.4-0.4-0.9-0.6-1.6-0.6c-0.6,0-1.2,0.2-1.6,0.6
		c-0.4,0.4-0.6,0.9-0.6,1.6v5.6h-1.3v-5.5c0-0.8-0.2-1.4-0.6-1.8c-0.4-0.4-0.9-0.6-1.6-0.6s-1.2,0.2-1.6,0.6c-0.4,0.4-0.6,1-0.6,1.8
		v5.5h-1.3V303h1.3v1c0.3-0.4,0.7-0.6,1.1-0.8c0.4-0.2,0.9-0.3,1.4-0.3c0.6,0,1.1,0.1,1.6,0.4s0.8,0.6,1.1,1.1
		c0.7-1,1.7-1.5,2.9-1.5c0.5,0,0.9,0.1,1.3,0.2c0.4,0.1,0.7,0.3,1,0.6c0.6,0.6,1,1.4,1,2.5v5.7H343.1z"/>
	<path class="st4" d="M354.3,307.4c0,0.7-0.1,1.3-0.2,1.9c-0.1,0.6-0.4,1.1-0.9,1.6c-0.3,0.3-0.7,0.6-1.1,0.7s-0.9,0.3-1.4,0.3
		s-1-0.1-1.4-0.3c-0.4-0.2-0.8-0.4-1.1-0.7c-0.2-0.2-0.4-0.5-0.5-0.7c-0.1-0.3-0.2-0.6-0.3-0.8s-0.1-0.6-0.2-0.9c0-0.3,0-0.7,0-1
		c0-0.7,0.1-1.3,0.2-1.9c0.1-0.6,0.4-1.1,0.9-1.6c0.3-0.3,0.7-0.6,1.1-0.7c0.4-0.2,0.9-0.3,1.4-0.3s1,0.1,1.4,0.3
		c0.4,0.2,0.8,0.4,1.1,0.7c0.5,0.5,0.7,1,0.9,1.6C354.2,306.1,354.3,306.7,354.3,307.4z M353,307.4c0-0.5,0-1-0.1-1.5
		c-0.1-0.5-0.3-0.9-0.6-1.2c-0.4-0.4-1-0.6-1.6-0.6c-0.6,0-1.2,0.2-1.6,0.6c-0.3,0.3-0.5,0.7-0.6,1.2s-0.1,1-0.1,1.5
		c0,0.3,0,0.5,0,0.8c0,0.3,0,0.5,0.1,0.7c0,0.2,0.1,0.5,0.2,0.7c0.1,0.2,0.2,0.4,0.4,0.6c0.4,0.4,1,0.6,1.6,0.6
		c0.6,0,1.2-0.2,1.6-0.6c0.3-0.3,0.5-0.7,0.6-1.2C352.9,308.4,353,307.9,353,307.4z"/>
	<path class="st4" d="M359.5,311.8c-0.4,0-0.7-0.1-1-0.2c-0.3-0.1-0.5-0.3-0.7-0.5s-0.3-0.5-0.4-0.8c-0.1-0.3-0.1-0.6-0.1-0.9V304
		h-1.1v-1h1.1v-2.7h1.3v2.7h1.9v1h-1.9v5.5c0,0.4,0.1,0.7,0.3,1c0.2,0.2,0.5,0.3,0.9,0.3h0.7v1.1H359.5z"/>
	<path class="st4" d="M365.5,311.8c-0.4,0-0.7-0.1-1-0.2c-0.3-0.1-0.5-0.3-0.7-0.5s-0.3-0.5-0.4-0.8c-0.1-0.3-0.1-0.6-0.1-0.9V304
		h-1.1v-1h1.1v-2.7h1.3v2.7h1.9v1h-1.9v5.5c0,0.4,0.1,0.7,0.3,1c0.2,0.2,0.5,0.3,0.9,0.3h0.7v1.1H365.5z"/>
	<path class="st4" d="M373.9,311.8V311c-0.3,0.3-0.7,0.6-1.1,0.7c-0.4,0.1-0.9,0.2-1.5,0.2c-0.6,0-1.1-0.1-1.5-0.2
		c-0.4-0.1-0.7-0.3-1-0.6c-0.2-0.2-0.4-0.5-0.5-0.8s-0.2-0.7-0.2-1c0-0.8,0.3-1.4,0.8-1.9c0.5-0.5,1.3-0.7,2.3-0.7h2.6v-0.8
		c0-0.6-0.2-1.1-0.5-1.5c-0.3-0.3-0.9-0.5-1.8-0.5c-0.6,0-1,0.1-1.3,0.2c-0.3,0.2-0.6,0.4-0.9,0.8l-0.9-0.8c0.4-0.5,0.8-0.9,1.3-1.1
		c0.5-0.2,1.1-0.3,1.8-0.3c1.2,0,2.1,0.3,2.7,0.8c0.6,0.5,0.9,1.2,0.9,2.2v6H373.9z M373.9,307.8h-2.5c-1.3,0-2,0.5-2,1.6
		c0,0.5,0.2,0.9,0.5,1.1c0.3,0.2,0.8,0.4,1.6,0.4c0.4,0,0.7,0,1-0.1c0.3-0.1,0.6-0.2,0.9-0.5c0.3-0.3,0.4-0.8,0.4-1.5V307.8z"/>
	<path class="st4" d="M380.9,311.8c-0.4,0-0.7-0.1-1-0.2c-0.3-0.1-0.5-0.3-0.7-0.5c-0.2-0.2-0.3-0.5-0.4-0.8
		c-0.1-0.3-0.1-0.6-0.1-0.9V304h-1.1v-1h1.1v-2.7h1.3v2.7h1.9v1h-1.9v5.5c0,0.4,0.1,0.7,0.3,1c0.2,0.2,0.5,0.3,0.9,0.3h0.7v1.1
		H380.9z"/>
	<path class="st4" d="M386.8,311.8c-0.4,0-0.7-0.1-1-0.2c-0.3-0.1-0.5-0.3-0.7-0.5c-0.2-0.2-0.3-0.5-0.4-0.8
		c-0.1-0.3-0.1-0.6-0.1-0.9V304h-1.1v-1h1.1v-2.7h1.3v2.7h1.9v1h-1.9v5.5c0,0.4,0.1,0.7,0.3,1c0.2,0.2,0.5,0.3,0.9,0.3h0.7v1.1
		H386.8z"/>
	<path class="st4" d="M395.6,307.8c0,1,0.2,1.7,0.7,2.3c0.4,0.5,1.1,0.8,2,0.8c0.5,0,0.9-0.1,1.3-0.2c0.3-0.2,0.7-0.4,1-0.8l0.9,0.8
		c-0.2,0.2-0.5,0.4-0.7,0.6c-0.2,0.2-0.5,0.3-0.7,0.4c-0.3,0.1-0.5,0.2-0.8,0.3c-0.3,0.1-0.6,0.1-1,0.1c-0.6,0-1.1-0.1-1.6-0.3
		c-0.5-0.2-0.9-0.5-1.2-0.8c-0.3-0.4-0.6-0.8-0.8-1.4c-0.2-0.6-0.3-1.2-0.3-2c0-1.5,0.3-2.6,1-3.4c0.6-0.8,1.5-1.2,2.7-1.2
		c1.2,0,2.1,0.4,2.7,1.1c0.6,0.8,0.9,1.8,0.9,3.2v0.6H395.6z M400.3,306.8c0-0.2,0-0.3,0-0.5c0-0.1,0-0.3,0-0.4c0-0.1,0-0.2-0.1-0.3
		c0-0.1-0.1-0.2-0.1-0.3c-0.2-0.4-0.5-0.7-0.8-1c-0.4-0.2-0.8-0.4-1.3-0.4c-0.5,0-0.9,0.1-1.3,0.4c-0.4,0.2-0.6,0.6-0.8,1
		c-0.1,0.1-0.1,0.2-0.1,0.3c0,0.1-0.1,0.2-0.1,0.3c0,0.1,0,0.2,0,0.4c0,0.1,0,0.3,0,0.5H400.3z"/>
	<path class="st4" d="M410,311.8v-5.5c0-0.8-0.2-1.4-0.6-1.8c-0.4-0.4-0.9-0.6-1.6-0.6c-0.7,0-1.2,0.2-1.6,0.6
		c-0.4,0.4-0.6,1-0.6,1.8v5.5h-1.3V303h1.3v1c0.3-0.4,0.7-0.6,1.1-0.8c0.4-0.2,0.9-0.3,1.4-0.3c1,0,1.7,0.3,2.3,0.8
		c0.6,0.6,0.9,1.4,0.9,2.5v5.7H410z"/>
	<path class="st4" d="M421.9,311.8h-1.2l-3.2-8.9h1.4l2.4,7.1l2.4-7.1h1.4L421.9,311.8z"/>
	<path class="st4" d="M426.9,300.5V299h1.5v1.5H426.9z M427,311.8V303h1.3v8.9H427z"/>
	<path class="st4" d="M437.4,311.8l-2.8-4.5l-1.7,2v2.6h-1.3V299h1.3v8.6l4-4.6h1.6l-3,3.4l3.5,5.5H437.4z"/>
	<path class="st4" d="M443.7,311.8c-0.4,0-0.7-0.1-1-0.2c-0.3-0.1-0.5-0.3-0.7-0.5c-0.2-0.2-0.3-0.5-0.4-0.8
		c-0.1-0.3-0.1-0.6-0.1-0.9V304h-1.1v-1h1.1v-2.7h1.3v2.7h1.9v1h-1.9v5.5c0,0.4,0.1,0.7,0.3,1c0.2,0.2,0.5,0.3,0.9,0.3h0.7v1.1
		H443.7z"/>
	<path class="st4" d="M447.1,300.5V299h1.5v1.5H447.1z M447.2,311.8V303h1.3v8.9H447.2z"/>
	<path class="st4" d="M458.2,312.1c0,0.6-0.1,1.1-0.3,1.5c-0.2,0.5-0.4,0.9-0.7,1.2c-0.3,0.3-0.7,0.6-1.2,0.8
		c-0.5,0.2-1,0.3-1.6,0.3c-0.3,0-0.6,0-0.9-0.1c-0.3,0-0.5-0.1-0.7-0.2c-0.2-0.1-0.5-0.2-0.7-0.4c-0.2-0.1-0.4-0.3-0.7-0.5l0.8-0.8
		c0.2,0.1,0.3,0.3,0.5,0.4c0.2,0.1,0.3,0.2,0.5,0.3c0.2,0.1,0.3,0.1,0.5,0.2c0.2,0,0.4,0.1,0.7,0.1c0.4,0,0.8-0.1,1.1-0.2
		c0.3-0.1,0.6-0.3,0.8-0.6s0.3-0.5,0.4-0.9c0.1-0.3,0.1-0.7,0.1-1.1v-1.4c-0.4,0.5-0.7,0.8-1.2,0.9s-0.9,0.2-1.3,0.2
		c-0.5,0-0.9-0.1-1.2-0.2c-0.4-0.1-0.7-0.3-0.9-0.6c-0.4-0.4-0.7-1-0.9-1.6c-0.1-0.6-0.2-1.3-0.2-2.1s0.1-1.4,0.2-2.1
		c0.1-0.6,0.4-1.2,0.9-1.6c0.2-0.2,0.5-0.4,0.9-0.6c0.4-0.1,0.8-0.2,1.2-0.2c0.5,0,0.9,0.1,1.3,0.2c0.4,0.2,0.8,0.5,1.1,0.9v-1h1.3
		V312.1z M456.9,307.3c0-0.4,0-0.8-0.1-1.2s-0.2-0.8-0.3-1.1c-0.2-0.3-0.4-0.6-0.7-0.7c-0.3-0.2-0.7-0.3-1.2-0.3
		c-0.5,0-0.9,0.1-1.2,0.3c-0.3,0.2-0.5,0.4-0.7,0.7c-0.2,0.3-0.3,0.7-0.3,1.1s-0.1,0.8-0.1,1.2c0,0.4,0,0.8,0.1,1.2
		c0,0.4,0.2,0.7,0.3,1.1c0.2,0.3,0.4,0.6,0.7,0.7c0.3,0.2,0.7,0.3,1.2,0.3c0.5,0,0.9-0.1,1.2-0.3c0.3-0.2,0.5-0.4,0.7-0.7
		c0.2-0.3,0.3-0.7,0.3-1.1C456.9,308.2,456.9,307.8,456.9,307.3z"/>
</g>
<g class="st3">
	<path class="st4" d="M284.7,338.8v-5.5c0-0.8-0.2-1.4-0.6-1.8c-0.4-0.4-0.9-0.6-1.6-0.6c-0.6,0-1.2,0.2-1.6,0.6
		c-0.4,0.4-0.6,0.9-0.6,1.6v5.6H279v-5.5c0-0.8-0.2-1.4-0.6-1.8c-0.4-0.4-0.9-0.6-1.6-0.6s-1.2,0.2-1.6,0.6c-0.4,0.4-0.6,1-0.6,1.8
		v5.5h-1.3V330h1.3v1c0.3-0.4,0.7-0.6,1.1-0.8c0.4-0.2,0.9-0.3,1.4-0.3c0.6,0,1.1,0.1,1.6,0.4s0.8,0.6,1.1,1.1
		c0.7-1,1.7-1.5,2.9-1.5c0.5,0,0.9,0.1,1.3,0.2c0.4,0.1,0.7,0.3,1,0.6c0.6,0.6,1,1.4,1,2.5v5.7H284.7z"/>
	<path class="st4" d="M290,334.8c0,1,0.2,1.7,0.7,2.3c0.4,0.5,1.1,0.8,2,0.8c0.5,0,0.9-0.1,1.3-0.2c0.3-0.2,0.7-0.4,1-0.8l0.9,0.8
		c-0.2,0.2-0.5,0.4-0.7,0.6s-0.5,0.3-0.7,0.4c-0.3,0.1-0.5,0.2-0.8,0.3c-0.3,0.1-0.6,0.1-1,0.1c-0.6,0-1.1-0.1-1.6-0.3
		s-0.9-0.5-1.2-0.8c-0.3-0.4-0.6-0.8-0.8-1.4c-0.2-0.6-0.3-1.2-0.3-2c0-1.5,0.3-2.6,1-3.4s1.5-1.2,2.7-1.2c1.2,0,2.1,0.4,2.7,1.1
		c0.6,0.8,0.9,1.8,0.9,3.2v0.6H290z M294.7,333.8c0-0.2,0-0.3,0-0.5c0-0.1,0-0.3,0-0.4c0-0.1,0-0.2-0.1-0.3c0-0.1-0.1-0.2-0.1-0.3
		c-0.2-0.4-0.5-0.7-0.8-1s-0.8-0.4-1.3-0.4s-0.9,0.1-1.3,0.4s-0.6,0.6-0.8,1c-0.1,0.1-0.1,0.2-0.1,0.3c0,0.1-0.1,0.2-0.1,0.3
		c0,0.1,0,0.2,0,0.4c0,0.1,0,0.3,0,0.5H294.7z"/>
	<path class="st4" d="M300.9,338.8c-0.8,0-1.4-0.2-1.7-0.7s-0.5-1-0.5-1.7V326h1.3v10.4c0,0.4,0.1,0.8,0.3,1
		c0.2,0.2,0.5,0.3,0.9,0.3h0.7v1.1H300.9z"/>
	<path class="st4" d="M309.1,338.8v-1.1c-0.4,0.5-0.8,0.8-1.2,0.9c-0.4,0.2-0.9,0.2-1.4,0.2c-0.5,0-0.9-0.1-1.2-0.2
		s-0.7-0.3-0.9-0.6c-0.4-0.5-0.7-1-0.9-1.7c-0.1-0.7-0.2-1.4-0.2-2.1c0-0.4,0-0.7,0-1.1c0-0.4,0.1-0.7,0.2-1
		c0.1-0.3,0.2-0.6,0.3-0.9c0.1-0.3,0.3-0.5,0.5-0.8c0.2-0.2,0.5-0.4,0.9-0.6s0.8-0.2,1.2-0.2c0.5,0,1,0.1,1.4,0.2
		c0.4,0.2,0.8,0.5,1.2,0.9v-5h1.3v12.8H309.1z M309.1,334.4c0-0.4,0-0.9-0.1-1.3c0-0.4-0.1-0.8-0.3-1.1c-0.2-0.3-0.4-0.6-0.7-0.8
		c-0.3-0.2-0.7-0.3-1.2-0.3c-0.5,0-0.9,0.1-1.2,0.3c-0.3,0.2-0.5,0.4-0.7,0.8c-0.2,0.3-0.3,0.7-0.3,1.1c0,0.4-0.1,0.8-0.1,1.3
		c0,0.4,0,0.9,0.1,1.3c0,0.4,0.2,0.8,0.3,1.1s0.4,0.6,0.7,0.8c0.3,0.2,0.7,0.3,1.2,0.3c0.5,0,0.9-0.1,1.2-0.3
		c0.3-0.2,0.5-0.4,0.7-0.8c0.2-0.3,0.3-0.7,0.3-1.1S309.1,334.8,309.1,334.4z"/>
	<path class="st4" d="M313.5,327.5V326h1.5v1.5H313.5z M313.6,338.8V330h1.3v8.9H313.6z"/>
	<path class="st4" d="M323.8,338.8v-5.5c0-0.8-0.2-1.4-0.6-1.8c-0.4-0.4-0.9-0.6-1.6-0.6s-1.2,0.2-1.6,0.6c-0.4,0.4-0.6,1-0.6,1.8
		v5.5h-1.3V330h1.3v1c0.3-0.4,0.7-0.6,1.1-0.8c0.4-0.2,0.9-0.3,1.4-0.3c1,0,1.7,0.3,2.3,0.8c0.6,0.6,0.9,1.4,0.9,2.5v5.7H323.8z"/>
	<path class="st4" d="M334.8,339.1c0,0.6-0.1,1.1-0.3,1.5s-0.4,0.9-0.7,1.2c-0.3,0.3-0.7,0.6-1.2,0.8c-0.5,0.2-1,0.3-1.6,0.3
		c-0.3,0-0.6,0-0.9-0.1c-0.3,0-0.5-0.1-0.7-0.2s-0.5-0.2-0.7-0.4c-0.2-0.1-0.4-0.3-0.7-0.5l0.8-0.8c0.2,0.1,0.3,0.3,0.5,0.4
		c0.1,0.1,0.3,0.2,0.5,0.3s0.3,0.1,0.5,0.2c0.2,0,0.4,0.1,0.7,0.1c0.4,0,0.8-0.1,1.1-0.2c0.3-0.1,0.6-0.3,0.8-0.6
		c0.2-0.2,0.3-0.5,0.4-0.9c0.1-0.3,0.1-0.7,0.1-1.1v-1.4c-0.4,0.5-0.7,0.8-1.2,0.9c-0.4,0.2-0.9,0.2-1.3,0.2c-0.5,0-0.9-0.1-1.2-0.2
		c-0.4-0.1-0.7-0.3-0.9-0.6c-0.4-0.4-0.7-1-0.9-1.6c-0.1-0.6-0.2-1.3-0.2-2.1s0.1-1.4,0.2-2.1c0.1-0.6,0.4-1.2,0.9-1.6
		c0.2-0.2,0.5-0.4,0.9-0.6s0.8-0.2,1.2-0.2c0.5,0,0.9,0.1,1.3,0.2c0.4,0.2,0.8,0.5,1.1,0.9v-1h1.3V339.1z M333.5,334.3
		c0-0.4,0-0.8-0.1-1.2c0-0.4-0.2-0.8-0.3-1.1c-0.2-0.3-0.4-0.6-0.7-0.7c-0.3-0.2-0.7-0.3-1.2-0.3c-0.5,0-0.9,0.1-1.2,0.3
		c-0.3,0.2-0.5,0.4-0.7,0.7c-0.2,0.3-0.3,0.7-0.3,1.1c0,0.4-0.1,0.8-0.1,1.2c0,0.4,0,0.8,0.1,1.2c0,0.4,0.1,0.7,0.3,1.1
		c0.2,0.3,0.4,0.6,0.7,0.7c0.3,0.2,0.7,0.3,1.2,0.3c0.5,0,0.9-0.1,1.2-0.3c0.3-0.2,0.5-0.4,0.7-0.7c0.2-0.3,0.3-0.7,0.3-1.1
		C333.5,335.2,333.5,334.8,333.5,334.3z"/>
	<path class="st4" d="M349.3,334.4c0,0.7-0.1,1.3-0.2,1.9c-0.1,0.6-0.4,1.1-0.9,1.6c-0.3,0.3-0.7,0.6-1.1,0.7s-0.9,0.3-1.4,0.3
		s-1-0.1-1.4-0.3c-0.4-0.2-0.8-0.4-1.1-0.7c-0.2-0.2-0.4-0.5-0.5-0.7c-0.1-0.3-0.2-0.6-0.3-0.8s-0.1-0.6-0.2-0.9c0-0.3,0-0.7,0-1
		c0-0.7,0.1-1.3,0.2-1.9c0.1-0.6,0.4-1.1,0.9-1.6c0.3-0.3,0.7-0.6,1.1-0.7c0.4-0.2,0.9-0.3,1.4-0.3s1,0.1,1.4,0.3
		c0.4,0.2,0.8,0.4,1.1,0.7c0.5,0.5,0.7,1,0.9,1.6C349.2,333.1,349.3,333.7,349.3,334.4z M348,334.4c0-0.5,0-1-0.1-1.5
		c-0.1-0.5-0.3-0.9-0.6-1.2c-0.4-0.4-1-0.6-1.6-0.6c-0.6,0-1.2,0.2-1.6,0.6c-0.3,0.3-0.5,0.7-0.6,1.2s-0.1,1-0.1,1.5
		c0,0.3,0,0.5,0,0.8c0,0.3,0,0.5,0.1,0.7c0,0.2,0.1,0.5,0.2,0.7c0.1,0.2,0.2,0.4,0.4,0.6c0.4,0.4,1,0.6,1.6,0.6
		c0.6,0,1.2-0.2,1.6-0.6c0.3-0.3,0.5-0.7,0.6-1.2C348,335.4,348,334.9,348,334.4z"/>
	<path class="st4" d="M363.4,338.8v-5.5c0-0.8-0.2-1.4-0.6-1.8c-0.4-0.4-0.9-0.6-1.6-0.6c-0.6,0-1.2,0.2-1.6,0.6
		c-0.4,0.4-0.6,0.9-0.6,1.6v5.6h-1.3v-5.5c0-0.8-0.2-1.4-0.6-1.8c-0.4-0.4-0.9-0.6-1.6-0.6s-1.2,0.2-1.6,0.6c-0.4,0.4-0.6,1-0.6,1.8
		v5.5h-1.3V330h1.3v1c0.3-0.4,0.7-0.6,1.1-0.8c0.4-0.2,0.9-0.3,1.4-0.3c0.6,0,1.1,0.1,1.6,0.4s0.8,0.6,1.1,1.1
		c0.7-1,1.7-1.5,2.9-1.5c0.5,0,0.9,0.1,1.3,0.2c0.4,0.1,0.7,0.3,1,0.6c0.6,0.6,1,1.4,1,2.5v5.7H363.4z"/>
	<path class="st4" d="M374,331v7.9h-1.3V331h-1.1v-1h1.1v-1.6c0-0.3,0-0.6,0.1-0.9c0.1-0.3,0.2-0.5,0.4-0.8c0.2-0.2,0.4-0.4,0.7-0.5
		c0.3-0.1,0.6-0.2,1-0.2h0.9v1.1h-0.7c-0.4,0-0.7,0.1-0.9,0.3c-0.2,0.2-0.3,0.5-0.3,1v1.6h1.9v1H374z"/>
	<path class="st4" d="M384.5,334.4c0,0.7-0.1,1.3-0.2,1.9c-0.1,0.6-0.4,1.1-0.9,1.6c-0.3,0.3-0.7,0.6-1.1,0.7s-0.9,0.3-1.4,0.3
		c-0.5,0-1-0.1-1.4-0.3s-0.8-0.4-1.1-0.7c-0.2-0.2-0.4-0.5-0.5-0.7c-0.1-0.3-0.2-0.6-0.3-0.8c-0.1-0.3-0.1-0.6-0.2-0.9
		c0-0.3,0-0.7,0-1c0-0.7,0.1-1.3,0.2-1.9c0.1-0.6,0.4-1.1,0.9-1.6c0.3-0.3,0.7-0.6,1.1-0.7c0.4-0.2,0.9-0.3,1.4-0.3
		c0.5,0,1,0.1,1.4,0.3c0.4,0.2,0.8,0.4,1.1,0.7c0.5,0.5,0.8,1,0.9,1.6C384.5,333.1,384.5,333.7,384.5,334.4z M383.2,334.4
		c0-0.5,0-1-0.1-1.5c-0.1-0.5-0.3-0.9-0.6-1.2c-0.4-0.4-1-0.6-1.6-0.6c-0.6,0-1.2,0.2-1.6,0.6c-0.3,0.3-0.5,0.7-0.6,1.2
		c-0.1,0.5-0.1,1-0.1,1.5c0,0.3,0,0.5,0,0.8s0,0.5,0.1,0.7s0.1,0.5,0.2,0.7c0.1,0.2,0.2,0.4,0.4,0.6c0.4,0.4,1,0.6,1.6,0.6
		c0.6,0,1.2-0.2,1.6-0.6c0.3-0.3,0.5-0.7,0.6-1.2C383.2,335.4,383.2,334.9,383.2,334.4z"/>
	<path class="st4" d="M392.2,331.7c-0.2-0.2-0.5-0.4-0.7-0.5s-0.5-0.1-0.8-0.1c-0.3,0-0.6,0.1-0.9,0.2c-0.3,0.1-0.5,0.3-0.7,0.5
		c-0.2,0.2-0.3,0.5-0.4,0.8c-0.1,0.3-0.2,0.6-0.2,0.9v5.4h-1.3V330h1.3v1.1c0.2-0.4,0.6-0.7,1-0.9c0.5-0.2,0.9-0.3,1.4-0.3
		c0.4,0,0.8,0.1,1.1,0.2s0.7,0.3,1,0.6L392.2,331.7z"/>
	<path class="st4" d="M395.1,334.8c0,1,0.2,1.7,0.7,2.3c0.4,0.5,1.1,0.8,2,0.8c0.5,0,0.9-0.1,1.3-0.2c0.3-0.2,0.7-0.4,1-0.8l0.9,0.8
		c-0.2,0.2-0.5,0.4-0.7,0.6c-0.2,0.2-0.5,0.3-0.7,0.4c-0.3,0.1-0.5,0.2-0.8,0.3c-0.3,0.1-0.6,0.1-1,0.1c-0.6,0-1.1-0.1-1.6-0.3
		c-0.5-0.2-0.9-0.5-1.2-0.8c-0.3-0.4-0.6-0.8-0.8-1.4c-0.2-0.6-0.3-1.2-0.3-2c0-1.5,0.3-2.6,1-3.4c0.6-0.8,1.5-1.2,2.7-1.2
		c1.2,0,2.1,0.4,2.7,1.1c0.6,0.8,0.9,1.8,0.9,3.2v0.6H395.1z M399.8,333.8c0-0.2,0-0.3,0-0.5c0-0.1,0-0.3,0-0.4c0-0.1,0-0.2-0.1-0.3
		c0-0.1-0.1-0.2-0.1-0.3c-0.2-0.4-0.5-0.7-0.8-1c-0.4-0.2-0.8-0.4-1.3-0.4c-0.5,0-0.9,0.1-1.3,0.4c-0.4,0.2-0.6,0.6-0.8,1
		c-0.1,0.1-0.1,0.2-0.1,0.3c0,0.1-0.1,0.2-0.1,0.3c0,0.1,0,0.2,0,0.4c0,0.1,0,0.3,0,0.5H399.8z"/>
	<path class="st4" d="M406.4,338.8c-0.4,0-0.7-0.1-1-0.2c-0.3-0.1-0.5-0.3-0.7-0.5c-0.2-0.2-0.3-0.5-0.4-0.8
		c-0.1-0.3-0.1-0.6-0.1-0.9V331H403v-1h1.1v-2.7h1.3v2.7h1.9v1h-1.9v5.5c0,0.4,0.1,0.7,0.3,1c0.2,0.2,0.5,0.3,0.9,0.3h0.7v1.1H406.4
		z"/>
	<path class="st4" d="M414.8,338.8V338c-0.3,0.3-0.7,0.6-1.1,0.7c-0.4,0.1-0.9,0.2-1.5,0.2c-0.6,0-1.1-0.1-1.5-0.2
		c-0.4-0.1-0.7-0.3-1-0.6c-0.2-0.2-0.4-0.5-0.5-0.8s-0.2-0.7-0.2-1c0-0.8,0.3-1.4,0.8-1.9s1.3-0.7,2.3-0.7h2.6v-0.8
		c0-0.6-0.2-1.1-0.5-1.5c-0.3-0.3-0.9-0.5-1.8-0.5c-0.6,0-1,0.1-1.3,0.2c-0.3,0.2-0.6,0.4-0.9,0.8l-0.9-0.8c0.4-0.5,0.8-0.9,1.3-1.1
		c0.5-0.2,1.1-0.3,1.8-0.3c1.2,0,2.1,0.3,2.7,0.8c0.6,0.5,0.9,1.2,0.9,2.2v6H414.8z M414.8,334.8h-2.5c-1.3,0-2,0.5-2,1.6
		c0,0.5,0.2,0.9,0.5,1.1s0.8,0.4,1.6,0.4c0.4,0,0.7,0,1-0.1c0.3-0.1,0.6-0.2,0.9-0.5c0.3-0.3,0.4-0.8,0.4-1.5V334.8z"/>
	<path class="st4" d="M425.1,338.8l-2.8-4.5l-1.7,2v2.6h-1.3V326h1.3v8.6l4-4.6h1.6l-3,3.4l3.5,5.5H425.1z"/>
	<path class="st4" d="M429,334.8c0,1,0.2,1.7,0.7,2.3c0.4,0.5,1.1,0.8,2,0.8c0.5,0,0.9-0.1,1.3-0.2c0.3-0.2,0.7-0.4,1-0.8l0.9,0.8
		c-0.2,0.2-0.5,0.4-0.7,0.6c-0.2,0.2-0.5,0.3-0.7,0.4c-0.3,0.1-0.5,0.2-0.8,0.3c-0.3,0.1-0.6,0.1-1,0.1c-0.6,0-1.1-0.1-1.6-0.3
		c-0.5-0.2-0.9-0.5-1.2-0.8c-0.3-0.4-0.6-0.8-0.8-1.4c-0.2-0.6-0.3-1.2-0.3-2c0-1.5,0.3-2.6,1-3.4c0.6-0.8,1.5-1.2,2.7-1.2
		c1.2,0,2.1,0.4,2.7,1.1c0.6,0.8,0.9,1.8,0.9,3.2v0.6H429z M433.7,333.8c0-0.2,0-0.3,0-0.5c0-0.1,0-0.3,0-0.4c0-0.1,0-0.2-0.1-0.3
		c0-0.1-0.1-0.2-0.1-0.3c-0.2-0.4-0.5-0.7-0.8-1c-0.4-0.2-0.8-0.4-1.3-0.4c-0.5,0-0.9,0.1-1.3,0.4c-0.4,0.2-0.6,0.6-0.8,1
		c-0.1,0.1-0.1,0.2-0.1,0.3c0,0.1-0.1,0.2-0.1,0.3c0,0.1,0,0.2,0,0.4c0,0.1,0,0.3,0,0.5H433.7z"/>
	<path class="st4" d="M440.2,338.8c-0.4,0-0.7-0.1-1-0.2c-0.3-0.1-0.5-0.3-0.7-0.5c-0.2-0.2-0.3-0.5-0.4-0.8
		c-0.1-0.3-0.1-0.6-0.1-0.9V331h-1.1v-1h1.1v-2.7h1.3v2.7h1.9v1h-1.9v5.5c0,0.4,0.1,0.7,0.3,1c0.2,0.2,0.5,0.3,0.9,0.3h0.7v1.1
		H440.2z"/>
</g>
<g class="st3">
	<path class="st4" d="M278.6,365.8v-1.1c-0.4,0.5-0.8,0.8-1.2,0.9c-0.4,0.2-0.9,0.2-1.4,0.2c-0.5,0-0.9-0.1-1.2-0.2
		s-0.7-0.3-0.9-0.6c-0.4-0.5-0.7-1-0.9-1.7c-0.1-0.7-0.2-1.4-0.2-2.1c0-0.4,0-0.7,0-1.1c0-0.4,0.1-0.7,0.2-1
		c0.1-0.3,0.2-0.6,0.3-0.9c0.1-0.3,0.3-0.5,0.5-0.8c0.2-0.2,0.5-0.4,0.9-0.6s0.8-0.2,1.2-0.2c0.5,0,1,0.1,1.4,0.2
		c0.4,0.2,0.8,0.5,1.2,0.9v-5h1.3v12.8H278.6z M278.6,361.4c0-0.4,0-0.9-0.1-1.3c0-0.4-0.1-0.8-0.3-1.1c-0.2-0.3-0.4-0.6-0.7-0.8
		c-0.3-0.2-0.7-0.3-1.2-0.3c-0.5,0-0.9,0.1-1.2,0.3c-0.3,0.2-0.5,0.4-0.7,0.8c-0.2,0.3-0.3,0.7-0.3,1.1c0,0.4-0.1,0.8-0.1,1.3
		c0,0.4,0,0.9,0.1,1.3c0,0.4,0.2,0.8,0.3,1.1s0.4,0.6,0.7,0.8c0.3,0.2,0.7,0.3,1.2,0.3c0.5,0,0.9-0.1,1.2-0.3
		c0.3-0.2,0.5-0.4,0.7-0.8c0.2-0.3,0.3-0.7,0.3-1.1S278.6,361.8,278.6,361.4z"/>
	<path class="st4" d="M283.1,354.5V353h1.5v1.5H283.1z M283.1,365.8V357h1.3v8.9H283.1z"/>
	<path class="st4" d="M290.2,365.8c-0.4,0-0.7-0.1-1-0.2c-0.3-0.1-0.5-0.3-0.7-0.5s-0.3-0.5-0.4-0.8c-0.1-0.3-0.1-0.6-0.1-0.9V358
		h-1.1v-1h1.1v-2.7h1.3v2.7h1.9v1h-1.9v5.5c0,0.4,0.1,0.7,0.3,1c0.2,0.2,0.5,0.3,0.9,0.3h0.7v1.1H290.2z"/>
	<path class="st4" d="M296.1,365.8c-0.4,0-0.7-0.1-1-0.2c-0.3-0.1-0.5-0.3-0.7-0.5s-0.3-0.5-0.4-0.8c-0.1-0.3-0.1-0.6-0.1-0.9V358
		h-1.1v-1h1.1v-2.7h1.3v2.7h1.9v1h-1.9v5.5c0,0.4,0.1,0.7,0.3,1c0.2,0.2,0.5,0.3,0.9,0.3h0.7v1.1H296.1z"/>
	<path class="st4" d="M299.6,365.8v-1.7h1.7v1.7H299.6z"/>
	<path class="st4" d="M309.2,365.8V353h1.4v11.6h6.6v1.2H309.2z"/>
	<path class="st4" d="M326.1,361.4c0,0.7-0.1,1.3-0.2,1.9c-0.1,0.6-0.4,1.1-0.9,1.6c-0.3,0.3-0.7,0.6-1.1,0.7s-0.9,0.3-1.4,0.3
		s-1-0.1-1.4-0.3c-0.4-0.2-0.8-0.4-1.1-0.7c-0.2-0.2-0.4-0.5-0.5-0.7c-0.1-0.3-0.2-0.6-0.3-0.8s-0.1-0.6-0.2-0.9c0-0.3,0-0.7,0-1
		c0-0.7,0.1-1.3,0.2-1.9c0.1-0.6,0.4-1.1,0.9-1.6c0.3-0.3,0.7-0.6,1.1-0.7c0.4-0.2,0.9-0.3,1.4-0.3s1,0.1,1.4,0.3
		c0.4,0.2,0.8,0.4,1.1,0.7c0.5,0.5,0.7,1,0.9,1.6C326,360.1,326.1,360.7,326.1,361.4z M324.8,361.4c0-0.5,0-1-0.1-1.5
		c-0.1-0.5-0.3-0.9-0.6-1.2c-0.4-0.4-1-0.6-1.6-0.6c-0.6,0-1.2,0.2-1.6,0.6c-0.3,0.3-0.5,0.7-0.6,1.2s-0.1,1-0.1,1.5
		c0,0.3,0,0.5,0,0.8c0,0.3,0,0.5,0.1,0.7c0,0.2,0.1,0.5,0.2,0.7c0.1,0.2,0.2,0.4,0.4,0.6c0.4,0.4,1,0.6,1.6,0.6
		c0.6,0,1.2-0.2,1.6-0.6c0.3-0.3,0.5-0.7,0.6-1.2C324.7,362.4,324.8,361.9,324.8,361.4z"/>
	<path class="st4" d="M335.4,366.1c0,0.6-0.1,1.1-0.3,1.5s-0.4,0.9-0.7,1.2c-0.3,0.3-0.7,0.6-1.2,0.8c-0.5,0.2-1,0.3-1.6,0.3
		c-0.3,0-0.6,0-0.9-0.1c-0.3,0-0.5-0.1-0.7-0.2s-0.5-0.2-0.7-0.4c-0.2-0.1-0.4-0.3-0.7-0.5l0.8-0.8c0.2,0.1,0.3,0.3,0.5,0.4
		c0.1,0.1,0.3,0.2,0.5,0.3s0.3,0.1,0.5,0.2c0.2,0,0.4,0.1,0.7,0.1c0.4,0,0.8-0.1,1.1-0.2c0.3-0.1,0.6-0.3,0.8-0.6
		c0.2-0.2,0.3-0.5,0.4-0.9c0.1-0.3,0.1-0.7,0.1-1.1v-1.4c-0.4,0.5-0.7,0.8-1.2,0.9c-0.4,0.2-0.9,0.2-1.3,0.2c-0.5,0-0.9-0.1-1.2-0.2
		c-0.4-0.1-0.7-0.3-0.9-0.6c-0.4-0.4-0.7-1-0.9-1.6c-0.1-0.6-0.2-1.3-0.2-2.1s0.1-1.4,0.2-2.1c0.1-0.6,0.4-1.2,0.9-1.6
		c0.2-0.2,0.5-0.4,0.9-0.6s0.8-0.2,1.2-0.2c0.5,0,0.9,0.1,1.3,0.2c0.4,0.2,0.8,0.5,1.1,0.9v-1h1.3V366.1z M334.1,361.3
		c0-0.4,0-0.8-0.1-1.2c0-0.4-0.2-0.8-0.3-1.1c-0.2-0.3-0.4-0.6-0.7-0.7c-0.3-0.2-0.7-0.3-1.2-0.3c-0.5,0-0.9,0.1-1.2,0.3
		c-0.3,0.2-0.5,0.4-0.7,0.7c-0.2,0.3-0.3,0.7-0.3,1.1c0,0.4-0.1,0.8-0.1,1.2c0,0.4,0,0.8,0.1,1.2c0,0.4,0.1,0.7,0.3,1.1
		c0.2,0.3,0.4,0.6,0.7,0.7c0.3,0.2,0.7,0.3,1.2,0.3c0.5,0,0.9-0.1,1.2-0.3c0.3-0.2,0.5-0.4,0.7-0.7c0.2-0.3,0.3-0.7,0.3-1.1
		C334,362.2,334.1,361.8,334.1,361.3z"/>
	<path class="st4" d="M345.1,366.1c0,0.6-0.1,1.1-0.3,1.5s-0.4,0.9-0.7,1.2c-0.3,0.3-0.7,0.6-1.2,0.8c-0.5,0.2-1,0.3-1.6,0.3
		c-0.3,0-0.6,0-0.9-0.1c-0.3,0-0.5-0.1-0.7-0.2s-0.5-0.2-0.7-0.4c-0.2-0.1-0.4-0.3-0.7-0.5l0.8-0.8c0.2,0.1,0.3,0.3,0.5,0.4
		c0.1,0.1,0.3,0.2,0.5,0.3s0.3,0.1,0.5,0.2c0.2,0,0.4,0.1,0.7,0.1c0.4,0,0.8-0.1,1.1-0.2c0.3-0.1,0.6-0.3,0.8-0.6
		c0.2-0.2,0.3-0.5,0.4-0.9c0.1-0.3,0.1-0.7,0.1-1.1v-1.4c-0.4,0.5-0.7,0.8-1.2,0.9c-0.4,0.2-0.9,0.2-1.3,0.2c-0.5,0-0.9-0.1-1.2-0.2
		c-0.4-0.1-0.7-0.3-0.9-0.6c-0.4-0.4-0.7-1-0.9-1.6c-0.1-0.6-0.2-1.3-0.2-2.1s0.1-1.4,0.2-2.1c0.1-0.6,0.4-1.2,0.9-1.6
		c0.2-0.2,0.5-0.4,0.9-0.6s0.8-0.2,1.2-0.2c0.5,0,0.9,0.1,1.3,0.2c0.4,0.2,0.8,0.5,1.1,0.9v-1h1.3V366.1z M343.8,361.3
		c0-0.4,0-0.8-0.1-1.2c0-0.4-0.2-0.8-0.3-1.1c-0.2-0.3-0.4-0.6-0.7-0.7c-0.3-0.2-0.7-0.3-1.2-0.3c-0.5,0-0.9,0.1-1.2,0.3
		c-0.3,0.2-0.5,0.4-0.7,0.7c-0.2,0.3-0.3,0.7-0.3,1.1c0,0.4-0.1,0.8-0.1,1.2c0,0.4,0,0.8,0.1,1.2c0,0.4,0.1,0.7,0.3,1.1
		c0.2,0.3,0.4,0.6,0.7,0.7c0.3,0.2,0.7,0.3,1.2,0.3c0.5,0,0.9-0.1,1.2-0.3c0.3-0.2,0.5-0.4,0.7-0.7c0.2-0.3,0.3-0.7,0.3-1.1
		C343.8,362.2,343.8,361.8,343.8,361.3z"/>
	<path class="st4" d="M352.8,354.5V353h1.5v1.5H352.8z M352.9,365.8V357h1.3v8.9H352.9z"/>
	<path class="st4" d="M363.1,365.8v-5.5c0-0.8-0.2-1.4-0.6-1.8c-0.4-0.4-0.9-0.6-1.6-0.6s-1.2,0.2-1.6,0.6c-0.4,0.4-0.6,1-0.6,1.8
		v5.5h-1.3V357h1.3v1c0.3-0.4,0.7-0.6,1.1-0.8c0.4-0.2,0.9-0.3,1.4-0.3c1,0,1.7,0.3,2.3,0.8c0.6,0.6,0.9,1.4,0.9,2.5v5.7H363.1z"/>
	<path class="st4" d="M373.2,365.8v-5.5c0-0.8-0.2-1.4-0.6-1.8c-0.4-0.4-0.9-0.6-1.6-0.6s-1.2,0.2-1.6,0.6c-0.4,0.4-0.6,1-0.6,1.8
		v5.5h-1.3V357h1.3v1c0.3-0.4,0.7-0.6,1.1-0.8c0.4-0.2,0.9-0.3,1.4-0.3c1,0,1.7,0.3,2.3,0.8c0.6,0.6,0.9,1.4,0.9,2.5v5.7H373.2z"/>
	<path class="st4" d="M388.9,361.4c0,0.7-0.1,1.3-0.2,1.9c-0.1,0.6-0.4,1.1-0.9,1.6c-0.3,0.3-0.7,0.6-1.1,0.7s-0.9,0.3-1.4,0.3
		c-0.5,0-1-0.1-1.4-0.3s-0.8-0.4-1.1-0.7c-0.2-0.2-0.4-0.5-0.5-0.7c-0.1-0.3-0.2-0.6-0.3-0.8c-0.1-0.3-0.1-0.6-0.2-0.9
		c0-0.3,0-0.7,0-1c0-0.7,0.1-1.3,0.2-1.9c0.1-0.6,0.4-1.1,0.9-1.6c0.3-0.3,0.7-0.6,1.1-0.7c0.4-0.2,0.9-0.3,1.4-0.3
		c0.5,0,1,0.1,1.4,0.3c0.4,0.2,0.8,0.4,1.1,0.7c0.5,0.5,0.8,1,0.9,1.6C388.8,360.1,388.9,360.7,388.9,361.4z M387.6,361.4
		c0-0.5,0-1-0.1-1.5c-0.1-0.5-0.3-0.9-0.6-1.2c-0.4-0.4-1-0.6-1.6-0.6c-0.6,0-1.2,0.2-1.6,0.6c-0.3,0.3-0.5,0.7-0.6,1.2
		c-0.1,0.5-0.1,1-0.1,1.5c0,0.3,0,0.5,0,0.8s0,0.5,0.1,0.7s0.1,0.5,0.2,0.7c0.1,0.2,0.2,0.4,0.4,0.6c0.4,0.4,1,0.6,1.6,0.6
		c0.6,0,1.2-0.2,1.6-0.6c0.3-0.3,0.5-0.7,0.6-1.2C387.5,362.4,387.6,361.9,387.6,361.4z"/>
	<path class="st4" d="M398.2,366.1c0,0.6-0.1,1.1-0.3,1.5c-0.2,0.5-0.4,0.9-0.7,1.2c-0.3,0.3-0.7,0.6-1.2,0.8
		c-0.5,0.2-1,0.3-1.6,0.3c-0.3,0-0.6,0-0.9-0.1c-0.3,0-0.5-0.1-0.7-0.2c-0.2-0.1-0.5-0.2-0.7-0.4c-0.2-0.1-0.4-0.3-0.7-0.5l0.8-0.8
		c0.2,0.1,0.3,0.3,0.5,0.4c0.2,0.1,0.3,0.2,0.5,0.3c0.2,0.1,0.3,0.1,0.5,0.2c0.2,0,0.4,0.1,0.7,0.1c0.4,0,0.8-0.1,1.1-0.2
		c0.3-0.1,0.6-0.3,0.8-0.6s0.3-0.5,0.4-0.9c0.1-0.3,0.1-0.7,0.1-1.1v-1.4c-0.4,0.5-0.7,0.8-1.2,0.9s-0.9,0.2-1.3,0.2
		c-0.5,0-0.9-0.1-1.2-0.2c-0.4-0.1-0.7-0.3-0.9-0.6c-0.4-0.4-0.7-1-0.9-1.6c-0.1-0.6-0.2-1.3-0.2-2.1s0.1-1.4,0.2-2.1
		c0.1-0.6,0.4-1.2,0.9-1.6c0.2-0.2,0.5-0.4,0.9-0.6c0.4-0.1,0.8-0.2,1.2-0.2c0.5,0,0.9,0.1,1.3,0.2c0.4,0.2,0.8,0.5,1.1,0.9v-1h1.3
		V366.1z M396.9,361.3c0-0.4,0-0.8-0.1-1.2s-0.2-0.8-0.3-1.1c-0.2-0.3-0.4-0.6-0.7-0.7c-0.3-0.2-0.7-0.3-1.2-0.3
		c-0.5,0-0.9,0.1-1.2,0.3c-0.3,0.2-0.5,0.4-0.7,0.7c-0.2,0.3-0.3,0.7-0.3,1.1s-0.1,0.8-0.1,1.2c0,0.4,0,0.8,0.1,1.2
		c0,0.4,0.2,0.7,0.3,1.1c0.2,0.3,0.4,0.6,0.7,0.7c0.3,0.2,0.7,0.3,1.2,0.3c0.5,0,0.9-0.1,1.2-0.3c0.3-0.2,0.5-0.4,0.7-0.7
		c0.2-0.3,0.3-0.7,0.3-1.1C396.9,362.2,396.9,361.8,396.9,361.3z"/>
	<path class="st4" d="M408.1,365.8c-0.8,0-1.3-0.2-1.7-0.7s-0.5-1-0.5-1.7V353h1.3v10.4c0,0.4,0.1,0.8,0.3,1
		c0.2,0.2,0.5,0.3,0.9,0.3h0.7v1.1H408.1z"/>
	<path class="st4" d="M411.8,361.8c0,1,0.2,1.7,0.7,2.3c0.4,0.5,1.1,0.8,2,0.8c0.5,0,0.9-0.1,1.3-0.2c0.3-0.2,0.7-0.4,1-0.8l0.9,0.8
		c-0.2,0.2-0.5,0.4-0.7,0.6c-0.2,0.2-0.5,0.3-0.7,0.4c-0.3,0.1-0.5,0.2-0.8,0.3c-0.3,0.1-0.6,0.1-1,0.1c-0.6,0-1.1-0.1-1.6-0.3
		c-0.5-0.2-0.9-0.5-1.2-0.8c-0.3-0.4-0.6-0.8-0.8-1.4c-0.2-0.6-0.3-1.2-0.3-2c0-1.5,0.3-2.6,1-3.4c0.6-0.8,1.5-1.2,2.7-1.2
		c1.2,0,2.1,0.4,2.7,1.1c0.6,0.8,0.9,1.8,0.9,3.2v0.6H411.8z M416.5,360.8c0-0.2,0-0.3,0-0.5c0-0.1,0-0.3,0-0.4c0-0.1,0-0.2-0.1-0.3
		c0-0.1-0.1-0.2-0.1-0.3c-0.2-0.4-0.5-0.7-0.8-1c-0.4-0.2-0.8-0.4-1.3-0.4c-0.5,0-0.9,0.1-1.3,0.4c-0.4,0.2-0.6,0.6-0.8,1
		c-0.1,0.1-0.1,0.2-0.1,0.3c0,0.1-0.1,0.2-0.1,0.3c0,0.1,0,0.2,0,0.4c0,0.1,0,0.3,0,0.5H416.5z"/>
	<path class="st4" d="M426.9,363.3c0,0.9-0.3,1.5-1,2c-0.7,0.5-1.5,0.7-2.6,0.7c-0.8,0-1.4-0.1-2-0.3c-0.6-0.2-1.1-0.5-1.6-1
		l0.9-0.9c0.3,0.4,0.8,0.6,1.2,0.8c0.5,0.2,1,0.2,1.5,0.2c0.7,0,1.3-0.1,1.7-0.4c0.4-0.3,0.6-0.7,0.6-1.2c0-0.4-0.1-0.7-0.3-0.9
		c-0.2-0.2-0.6-0.3-1.1-0.4l-1.5-0.1c-0.9-0.1-1.5-0.3-2-0.7s-0.7-0.9-0.7-1.7c0-0.4,0.1-0.8,0.2-1.1s0.4-0.6,0.7-0.8
		c0.3-0.2,0.6-0.4,1-0.5c0.4-0.1,0.8-0.2,1.3-0.2c0.6,0,1.2,0.1,1.8,0.2c0.5,0.2,1,0.4,1.4,0.7l-0.8,0.8c-0.3-0.2-0.7-0.4-1.1-0.5
		c-0.4-0.1-0.8-0.2-1.3-0.2c-0.6,0-1.1,0.1-1.5,0.4c-0.3,0.3-0.5,0.6-0.5,1.1c0,0.4,0.1,0.7,0.4,0.9s0.7,0.3,1.2,0.4l1.4,0.1
		c0.4,0,0.7,0.1,1.1,0.2c0.3,0.1,0.6,0.2,0.8,0.4c0.2,0.2,0.4,0.4,0.5,0.7S426.9,362.8,426.9,363.3z"/>
	<path class="st4" d="M439.3,365.8v-1.1c-0.4,0.5-0.8,0.8-1.2,0.9s-0.9,0.2-1.4,0.2c-0.5,0-0.9-0.1-1.2-0.2
		c-0.4-0.1-0.7-0.3-0.9-0.6c-0.4-0.5-0.7-1-0.9-1.7c-0.1-0.7-0.2-1.4-0.2-2.1c0-0.4,0-0.7,0-1.1c0-0.4,0.1-0.7,0.2-1
		c0.1-0.3,0.2-0.6,0.3-0.9c0.1-0.3,0.3-0.5,0.5-0.8c0.2-0.2,0.5-0.4,0.9-0.6c0.4-0.1,0.8-0.2,1.2-0.2c0.5,0,1,0.1,1.4,0.2
		c0.4,0.2,0.8,0.5,1.2,0.9v-5h1.3v12.8H439.3z M439.2,361.4c0-0.4,0-0.9-0.1-1.3c0-0.4-0.2-0.8-0.3-1.1c-0.2-0.3-0.4-0.6-0.7-0.8
		c-0.3-0.2-0.7-0.3-1.2-0.3c-0.5,0-0.9,0.1-1.2,0.3c-0.3,0.2-0.5,0.4-0.7,0.8c-0.2,0.3-0.3,0.7-0.3,1.1c0,0.4-0.1,0.8-0.1,1.3
		c0,0.4,0,0.9,0.1,1.3s0.2,0.8,0.3,1.1s0.4,0.6,0.7,0.8c0.3,0.2,0.7,0.3,1.2,0.3c0.5,0,0.9-0.1,1.2-0.3c0.3-0.2,0.5-0.4,0.7-0.8
		c0.2-0.3,0.3-0.7,0.3-1.1C439.2,362.3,439.2,361.8,439.2,361.4z"/>
	<path class="st4" d="M444.6,361.8c0,1,0.2,1.7,0.7,2.3c0.4,0.5,1.1,0.8,2,0.8c0.5,0,0.9-0.1,1.3-0.2c0.3-0.2,0.7-0.4,1-0.8l0.9,0.8
		c-0.2,0.2-0.5,0.4-0.7,0.6c-0.2,0.2-0.5,0.3-0.7,0.4c-0.3,0.1-0.5,0.2-0.8,0.3c-0.3,0.1-0.6,0.1-1,0.1c-0.6,0-1.1-0.1-1.6-0.3
		c-0.5-0.2-0.9-0.5-1.2-0.8c-0.3-0.4-0.6-0.8-0.8-1.4c-0.2-0.6-0.3-1.2-0.3-2c0-1.5,0.3-2.6,1-3.4c0.6-0.8,1.5-1.2,2.7-1.2
		c1.2,0,2.1,0.4,2.7,1.1c0.6,0.8,0.9,1.8,0.9,3.2v0.6H444.6z M449.3,360.8c0-0.2,0-0.3,0-0.5c0-0.1,0-0.3,0-0.4c0-0.1,0-0.2-0.1-0.3
		c0-0.1-0.1-0.2-0.1-0.3c-0.2-0.4-0.5-0.7-0.8-1c-0.4-0.2-0.8-0.4-1.3-0.4c-0.5,0-0.9,0.1-1.3,0.4c-0.4,0.2-0.6,0.6-0.8,1
		c-0.1,0.1-0.1,0.2-0.1,0.3c0,0.1-0.1,0.2-0.1,0.3c0,0.1,0,0.2,0,0.4c0,0.1,0,0.3,0,0.5H449.3z"/>
	<path class="st4" d="M459,365.8v-5.5c0-0.8-0.2-1.4-0.6-1.8c-0.4-0.4-0.9-0.6-1.6-0.6c-0.7,0-1.2,0.2-1.6,0.6
		c-0.4,0.4-0.6,1-0.6,1.8v5.5h-1.3V357h1.3v1c0.3-0.4,0.7-0.6,1.1-0.8c0.4-0.2,0.9-0.3,1.4-0.3c1,0,1.7,0.3,2.3,0.8
		c0.6,0.6,0.9,1.4,0.9,2.5v5.7H459z"/>
</g>
<g class="st3">
	<path class="st4" d="M279,392.8v-5.5c0-0.8-0.2-1.4-0.6-1.8c-0.4-0.4-0.9-0.6-1.6-0.6s-1.2,0.2-1.6,0.6c-0.4,0.4-0.6,1-0.6,1.8v5.5
		h-1.3V384h1.3v1c0.3-0.4,0.7-0.6,1.1-0.8c0.4-0.2,0.9-0.3,1.4-0.3c1,0,1.7,0.3,2.3,0.8c0.6,0.6,0.9,1.4,0.9,2.5v5.7H279z"/>
	<path class="st4" d="M288.5,392.8V392c-0.3,0.3-0.7,0.6-1.1,0.7c-0.4,0.1-0.9,0.2-1.5,0.2c-0.6,0-1.1-0.1-1.5-0.2
		c-0.4-0.1-0.7-0.3-1-0.6c-0.2-0.2-0.4-0.5-0.5-0.8s-0.2-0.7-0.2-1c0-0.8,0.3-1.4,0.8-1.9c0.5-0.5,1.3-0.7,2.3-0.7h2.6v-0.8
		c0-0.6-0.2-1.1-0.5-1.5c-0.3-0.3-0.9-0.5-1.8-0.5c-0.6,0-1,0.1-1.3,0.2c-0.3,0.2-0.6,0.4-0.9,0.8l-0.9-0.8c0.4-0.5,0.8-0.9,1.3-1.1
		c0.5-0.2,1.1-0.3,1.8-0.3c1.2,0,2.1,0.3,2.7,0.8s0.9,1.2,0.9,2.2v6H288.5z M288.5,388.8H286c-1.3,0-2,0.5-2,1.6
		c0,0.5,0.2,0.9,0.5,1.1c0.3,0.2,0.8,0.4,1.6,0.4c0.4,0,0.7,0,1-0.1c0.3-0.1,0.6-0.2,0.9-0.5c0.3-0.3,0.5-0.8,0.5-1.5V388.8z
		 M288.5,380.5c0,0.3-0.1,0.6-0.2,0.8c-0.1,0.3-0.3,0.5-0.5,0.7c-0.2,0.2-0.4,0.3-0.7,0.5c-0.3,0.1-0.5,0.2-0.8,0.2
		s-0.6-0.1-0.8-0.2c-0.3-0.1-0.5-0.3-0.7-0.5c-0.2-0.2-0.3-0.4-0.5-0.7c-0.1-0.3-0.2-0.5-0.2-0.8s0.1-0.6,0.2-0.8
		c0.1-0.3,0.3-0.5,0.5-0.7c0.2-0.2,0.4-0.3,0.7-0.5c0.3-0.1,0.5-0.2,0.8-0.2s0.6,0.1,0.8,0.2c0.3,0.1,0.5,0.3,0.7,0.5
		c0.2,0.2,0.3,0.4,0.5,0.7C288.4,379.9,288.5,380.2,288.5,380.5z M287.6,380.5c0-0.3-0.1-0.6-0.4-0.9c-0.2-0.2-0.5-0.4-0.9-0.4
		c-0.3,0-0.6,0.1-0.9,0.4c-0.2,0.2-0.4,0.5-0.4,0.9c0,0.3,0.1,0.6,0.4,0.9c0.2,0.2,0.5,0.4,0.9,0.4c0.3,0,0.6-0.1,0.9-0.4
		C287.5,381.1,287.6,380.8,287.6,380.5z"/>
	<path class="st4" d="M292.9,392.8v-1.7h1.7v1.7H292.9z"/>
</g>
<path class="st0" d="M477.5,601.6H240.3V137.5h261.4v440C501.7,590.8,490.9,601.6,477.5,601.6z"/>
<path class="st5" d="M273.1,216v18.6H301V216H273.1z M288.6,225.8c-0.9,0.8-2.2,0.8-3.1,0l-8.2-7.5h19.5L288.6,225.8z M281.5,225.3
	l-6.1,5.5v-11.1L281.5,225.3z M283.3,226.9l0.7,0.6c0.9,0.8,2,1.2,3.1,1.2s2.2-0.4,3.1-1.2l0.7-0.6l5.9,5.4h-19.4L283.3,226.9z
	 M292.6,225.3l6.1-5.5v11.1L292.6,225.3z"/>
</svg>
