<?xml version="1.0" encoding="utf-8"?>
<!-- Generator: Adobe Illustrator 22.1.0, SVG Export Plug-In . SVG Version: 6.00 Build 0)  -->
<svg version="1.1" id="Layer_1" xmlns="http://www.w3.org/2000/svg" xmlns:xlink="http://www.w3.org/1999/xlink" x="0px" y="0px"
	 viewBox="0 0 1624 609" style="enable-background:new 0 0 1624 609;" xml:space="preserve">
<style type="text/css">
	.st0{opacity:0.2;fill:#1EAEF7;enable-background:new    ;}
	.st1{fill:none;stroke:#1EAEF7;stroke-width:3;stroke-miterlimit:10;}
</style>
<rect x="491.2" y="88.8" class="st0" width="626" height="332"/>
<line class="st1" x1="1117.2" y1="419.3" x2="491.2" y2="419.3"/>
<line class="st1" x1="1117.2" y1="86.9" x2="491.2" y2="86.9"/>
<polyline class="st1" points="514.3,383.2 782.1,235.6 828.3,268.7 1059.1,143.1 "/>
<polyline class="st1" points="1027.3,133.7 1059.1,143.1 1049.7,174.9 "/>
<path class="st1" d="M1081.5,505.3H527c-19.7,0-35.7-16-35.7-35.7v-415c0-19.7,16-35.7,35.7-35.7h554.5c19.7,0,35.7,16,35.7,35.7
	v414.9C1117.2,489.3,1101.2,505.3,1081.5,505.3z"/>
<path class="st1" d="M-21.4,587.7h286h555.9h192.9c4.9,0,8.9-4,8.9-8.9l0,0c0-4.9-4-8.9-8.9-8.9H893.7v-64.8"/>
</svg>
