<?xml version="1.0" encoding="utf-8"?>
<!-- Generator: Adobe Illustrator 22.1.0, SVG Export Plug-In . SVG Version: 6.00 Build 0)  -->
<svg version="1.1" id="Layer_1" xmlns="http://www.w3.org/2000/svg" xmlns:xlink="http://www.w3.org/1999/xlink" x="0px" y="0px"
	 viewBox="0 0 740 740" style="enable-background:new 0 0 740 740;" xml:space="preserve">
<style type="text/css">
	.st0{opacity:0.2;fill:#1EAEF7;enable-background:new    ;}
	.st1{fill:none;stroke:#1EAEF7;stroke-width:3;stroke-miterlimit:10;}
</style>
<rect x="57.1" y="154.3" class="st0" width="626" height="332"/>
<line class="st1" x1="683.1" y1="484.8" x2="57.1" y2="484.8"/>
<line class="st1" x1="683.1" y1="152.4" x2="57.1" y2="152.4"/>
<polyline class="st1" points="80.2,448.7 348,301.1 394.2,334.2 625,208.6 "/>
<polyline class="st1" points="593.2,199.2 625,208.6 615.6,240.4 "/>
<path class="st1" d="M647.4,570.8H92.9c-19.7,0-35.7-16-35.7-35.7v-415c0-19.7,16-35.7,35.7-35.7h554.5c19.7,0,35.7,16,35.7,35.7
	V535C683.1,554.8,667.1,570.8,647.4,570.8z"/>
<path class="st1" d="M-57.1,653.2h443.5h192.9c4.9,0,8.9-4,8.9-8.9l0,0c0-4.9-4-8.9-8.9-8.9H459.6v-64.8"/>
</svg>
