<svg xmlns="http://www.w3.org/2000/svg" viewBox="0 0 23 36"><style>.st0{fill:#022f51}.st1{fill:none}.st2{fill:#2a5db8}.st3{fill:none;stroke:#fff;stroke-width:2;stroke-miterlimit:10}.st4{fill:#fff}.st5,.st6{fill:#022f51;stroke:#022f51;stroke-width:.75;stroke-miterlimit:10}.st6{fill:none;stroke-width:8}.st7{opacity:.5;stroke:#ffa683;stroke-width:2}.st7,.st8,.st9{fill:none;stroke-miterlimit:10}.st8{opacity:.5;stroke:#ffa683;stroke-width:1.4142}.st9{stroke:#022f51;stroke-width:4}.st10{opacity:.99;fill:#022f51}</style><g id="Layer_1"><path d="M2.7 25.9h-2v-5.8c0-2.7 3.2-4 6.5-4 1.5 0 3.6.5 4.4 2l-1.7 1c-.3-.5-1.5-1-2.7-1-2.2 0-4.5.8-4.5 2v5.8zM7.2 14c-2.4 0-4.3-1.9-4.3-4.3s1.9-4.3 4.3-4.3 4.3 1.9 4.3 4.3S9.6 14 7.2 14m0-6.7c-1.3 0-2.3 1-2.3 2.3 0 1.3 1 2.3 2.3 2.3 1.3 0 2.3-1 2.3-2.3 0-1.2-1-2.3-2.3-2.3M22.7 26h-2v-2.9c0-.5-.4-1-1.2-1.4-.9-.4-2.1-.6-3.3-.6-2.2 0-4.5.7-4.5 2v2.8h-2v-2.8c0-2.7 3.4-4 6.5-4s6.5 1.3 6.5 4V26zM16.1 17.7c-2.1 0-3.8-1.7-3.8-3.8 0-2.1 1.7-3.8 3.8-3.8 2.1 0 3.8 1.7 3.8 3.8 0 2.2-1.7 3.8-3.8 3.8m0-5.5c-1 0-1.8.8-1.8 1.8s.8 1.8 1.8 1.8 1.8-.8 1.8-1.8-.8-1.8-1.8-1.8"/></g></svg>
