<svg xmlns="http://www.w3.org/2000/svg" viewBox="0 0 26 36"><style>.st0{fill:#022f51}.st1{fill:none}.st2{fill:#2a5db8}.st3{fill:none;stroke:#fff;stroke-width:2;stroke-miterlimit:10}.st4{fill:#fff}.st5,.st6{fill:#022f51;stroke:#022f51;stroke-width:.75;stroke-miterlimit:10}.st6{fill:none;stroke-width:8}.st7{opacity:.5;stroke:#ffa683;stroke-width:2}.st7,.st8,.st9{fill:none;stroke-miterlimit:10}.st8{opacity:.5;stroke:#ffa683;stroke-width:1.4142}.st9{stroke:#022f51;stroke-width:4}.st10{opacity:.99;fill:#022f51}</style><path class="st0" d="M13 6C6.4 6 1 11.4 1 18s5.4 12 12 12 12-5.4 12-12S19.6 6 13 6zm1.4 18h-2.2v-2.1h2.2V24zm1.4-6.3l-1.2 1.6c-.2.2-.3.5-.3.8v.3h-2.1V20c0-.7.2-1.1.6-1.7l1.2-1.5c.3-.3.5-.7.5-1.1 0-.8-.5-1.3-1.3-1.3s-1.3.6-1.3 1.3h-2c0-2 1.5-3.2 3.4-3.2 1.8 0 3.4 1.2 3.4 3.2-.1.8-.4 1.4-.9 2z" id="Layer_1"/></svg>
