<svg xmlns="http://www.w3.org/2000/svg" viewBox="0 0 26 36"><style>.st0{fill:#022f51}.st1{fill:none}.st2{fill:#2a5db8}.st3{fill:none;stroke:#fff;stroke-width:2;stroke-miterlimit:10}.st4{fill:#fff}.st5{fill:none;stroke:#022f51;stroke-width:8;stroke-miterlimit:10}.st6{opacity:.5;stroke:#ffa683;stroke-width:2}.st6,.st7,.st8{fill:none;stroke-miterlimit:10}.st7{opacity:.5;stroke:#ffa683;stroke-width:1.4142}.st8{stroke:#022f51;stroke-width:4}.st9{opacity:.99;fill:#022f51}</style><g id="Layer_1"><path class="st0" d="M13 30C5.8 30 0 24.2 0 17S5.8 4 13 4s13 5.8 13 13-5.8 13-13 13zm0-24C6.9 6 2 10.9 2 17s4.9 11 11 11 11-4.9 11-11S19.1 6 13 6z"/><path class="st0" d="M14.4 12.8c.9-.5 1.5-1.4 1.5-2.5 0-1.5-1.2-2.8-2.8-2.8s-2.8 1.2-2.8 2.8c0 1.1.6 2 1.5 2.4L8.1 23h2.3l.7-2h4l.7 2h2.3l-3.7-10.2zm-1.3-3.4c.5 0 1 .4 1 .9s-.4 1-1 1-1-.4-1-1c.1-.5.5-.9 1-.9zm-1.4 9.7l1.4-4.1 1.4 4.1h-2.8z"/></g></svg>
