<svg xmlns="http://www.w3.org/2000/svg" viewBox="0 0 26 36"><style>.st0{fill:#022f51}.st1{fill:none}.st2{fill:#2a5db8}.st3{fill:none;stroke:#fff;stroke-width:2;stroke-miterlimit:10}.st4{fill:#fff}.st5,.st6{fill:#022f51;stroke:#022f51;stroke-width:.75;stroke-miterlimit:10}.st6{fill:none;stroke-width:8}.st7{opacity:.5;stroke:#ffa683;stroke-width:2}.st7,.st8,.st9{fill:none;stroke-miterlimit:10}.st8{opacity:.5;stroke:#ffa683;stroke-width:1.4142}.st9{stroke:#022f51;stroke-width:4}.st10{opacity:.99;fill:#022f51}</style><g id="Layer_1"><path class="st0" d="M13 30C5.8 30 0 24.2 0 17S5.8 4 13 4s13 5.8 13 13-5.8 13-13 13zm0-24C6.9 6 2 10.9 2 17s4.9 11 11 11 11-4.9 11-11S19.1 6 13 6z"/><path class="st0" d="M14 23H9.2V11.6h4.6c2.2 0 3.5 1.2 3.5 3.2 0 1.3-.8 2.1-1.4 2.4.7.3 1.6 1 1.6 2.6 0 2.1-1.5 3.2-3.5 3.2zm-.4-9.4h-2.2v2.6h2.2c.9 0 1.5-.5 1.5-1.3s-.6-1.3-1.5-1.3zm.1 4.6h-2.3V21h2.3c1 0 1.5-.6 1.5-1.4 0-.7-.4-1.4-1.5-1.4z"/></g></svg>
