<svg xmlns="http://www.w3.org/2000/svg" viewBox="0 0 30 36"><style>.st0{fill:#022f51}.st1{fill:none}.st2{fill:#2a5db8}.st3{fill:none;stroke:#fff;stroke-width:2;stroke-miterlimit:10}.st4{fill:#fff}.st5,.st6{fill:#022f51;stroke:#022f51;stroke-width:.75;stroke-miterlimit:10}.st6{fill:none;stroke-width:8}.st7{opacity:.5;stroke:#ffa683;stroke-width:2}.st7,.st8,.st9{fill:none;stroke-miterlimit:10}.st8{opacity:.5;stroke:#ffa683;stroke-width:1.4142}.st9{stroke:#022f51;stroke-width:4}.st10{opacity:.99;fill:#022f51}</style><path class="st0" d="M30 16.5L17.2 3.8l-17 17 1.6 1.6c-.6 1.9-.2 4.1 1.3 5.6 1.1 1 2.5 1.5 3.9 1.5.6 0 1.2-.1 1.7-.3l4.2 4.2 5.1-5.1c.5.1 1 .2 1.5.2 1.5 0 2.9-.6 3.9-1.6 1.5-1.5 1.9-3.6 1.4-5.4l5.2-5zm-6.1 3.2c-.1-.1-.2-.2-.2-.3 1.3-1.4 1.7-3.4 1.2-5.2l2.3 2.3-3.3 3.2zm-6.8-1.5c-.7-.7-1-1.5-1-2.5 0-.9.4-1.8 1-2.5s1.5-1 2.5-1c.9 0 1.8.4 2.5 1 1.4 1.4 1.4 3.6 0 5-1.3 1.3-3.6 1.3-5 0zM4.6 26.5c-1.4-1.4-1.4-3.6 0-5 .7-.7 1.6-1 2.5-1 .9 0 1.8.3 2.5 1 1.4 1.4 1.4 3.6 0 5-1.5 1.3-3.7 1.3-5 0zm8.4 4.1l-2.4-2.4c.1-.1.2-.2.4-.3 2.1-2.1 2.1-5.6 0-7.8-1.6-1.6-4.1-2-6.1-1.2L17.2 6.6l3.9 3.9c-.5-.1-1-.2-1.5-.2-1.5 0-2.9.6-3.9 1.6s-1.6 2.4-1.6 3.9c0 1.4.5 2.7 1.4 3.7-.9 1-1.4 2.3-1.4 3.7 0 1.5.6 2.9 1.6 3.9.2.2.3.3.5.4L13 30.6zm9.1-5c-1.3 1.3-3.6 1.3-5 0-.7-.7-1-1.5-1-2.5 0-.9.4-1.8 1-2.5.8.4 1.6.6 2.5.6.9 0 1.7-.2 2.5-.6 1.4 1.4 1.4 3.6 0 5z" id="Layer_1"/></svg>
