<svg xmlns="http://www.w3.org/2000/svg" viewBox="0 0 25 36"><style>.st0{fill:#022f51}.st1{fill:#2a5db8}.st2{fill:none;stroke:#fff;stroke-width:2;stroke-miterlimit:10}.st3{fill:#fff}.st4{fill:#022f51;stroke:#022f51;stroke-width:.75;stroke-miterlimit:10}.st5,.st6{fill:none}.st6{stroke:#022f51;stroke-width:8;stroke-miterlimit:10}.st7{opacity:.5;stroke:#ffa683;stroke-width:2}.st7,.st8,.st9{fill:none;stroke-miterlimit:10}.st8{opacity:.5;stroke:#ffa683;stroke-width:1.4142}.st9{stroke:#022f51;stroke-width:4}.st10{opacity:.99;fill:#022f51}</style><g id="Layer_1"><path class="st0" d="M9 21h7v2H9zM9 24h7v2H9zM18.5 15.9c-.8 0-1.5-.7-1.5-1.5s.7-1.5 1.5-1.5 1.5.7 1.5 1.5-.7 1.5-1.5 1.5z"/><path class="st0" d="M20 10V6H5v4H0v13h5v7h15v-7h5V10h-5zM7 8h11v2H7V8zm11 20H7v-9h11v9zm5-7h-3v-2h1v-2H4v2h1v2H2v-9h21v9z"/></g></svg>
