<svg xmlns="http://www.w3.org/2000/svg" viewBox="0 0 26 36"><style>.st0{fill:#022f51}.st1{fill:none}.st2{fill:#2a5db8}.st3{fill:none;stroke:#fff;stroke-width:2;stroke-miterlimit:10}.st4{fill:#fff}.st5,.st6{fill:#022f51;stroke:#022f51;stroke-width:.75;stroke-miterlimit:10}.st6{fill:none;stroke-width:8}.st7{opacity:.5;stroke:#ffa683;stroke-width:2}.st7,.st8,.st9{fill:none;stroke-miterlimit:10}.st8{opacity:.5;stroke:#ffa683;stroke-width:1.4142}.st9{stroke:#022f51;stroke-width:4}.st10{opacity:.99;fill:#022f51}</style><g id="Layer_1"><path class="st0" d="M16.8 13.7l2.2-.5-.5-1.9-2.3.6c-.5-1.2-1.3-2.1-2.2-2.9l1.2-2-1.7-1-1.3 2.1c-1-.7-2.2-.8-3.4-.7l-.6-2.3-2 .4.6 2.4C5.7 8.4 4.7 9.1 4 10L1.9 8.8l-1 1.7L3 11.8c-.5 1.1-.7 2.3-.5 3.6L.2 16l.5 1.9 2.3-.6c.5 1.2 1.2 2.2 2.2 2.9l-1.2 2 1.7 1 1.2-2c.9.4 1.9.6 2.8.6h.8L11 24l1.9-.5-.5-2.2c1.2-.5 2.2-1.3 3-2.2l1.9 1.2 1-1.7-2-1.2c.5-1.2.6-2.4.5-3.7zm-5.9 6c-1.4.3-2.8.1-4-.6-1.2-.7-2-1.9-2.4-3.2s-.1-2.8.6-4c.7-1.2 1.9-2 3.2-2.4.4-.1.8-.2 1.3-.2 2.4 0 4.5 1.6 5.1 4 .7 2.8-1 5.7-3.8 6.4z"/><path class="st0" d="M23.8 26.3c.1-.4.1-.8 0-1.2l2.2-.9-.7-1.9-2.2.9s0-.1-.1-.1c-.5-.7-1.1-1.1-1.9-1.4l.4-2.4-2-.3-.4 2.4c-.8.1-1.6.3-2.2.8l-.1.1-1.8-1.6-1.3 1.6 1.9 1.5c-.2.4-.3.8-.4 1.2-.1.4 0 .8 0 1.2L13 27l.7 1.9 2.2-.9c.5.7 1.1 1.2 1.9 1.6l-.4 2.4 2 .3.4-2.4c.8-.1 1.6-.3 2.2-.8l.1-.1 1.9 1.5 1.3-1.6-1.9-1.5c.2-.3.3-.7.4-1.1zm-2.9 1.2c-.5.4-1.1.5-1.7.4-1.3-.2-2.1-1.4-1.9-2.7.1-.6.4-1.2.9-1.5.5-.4 1.1-.5 1.7-.4.6.1 1.2.4 1.5.9.4.5.5 1.1.4 1.7s-.4 1.2-.9 1.6z"/></g></svg>
