<svg xmlns="http://www.w3.org/2000/svg" viewBox="0 0 25 36"><style>.st0{fill:#022f51}.st1{fill:none}.st2{fill:#2a5db8}.st3{fill:none;stroke:#fff;stroke-width:2;stroke-miterlimit:10}.st4{fill:#fff}.st5,.st6{fill:#022f51;stroke:#022f51;stroke-width:.75;stroke-miterlimit:10}.st6{fill:none;stroke-width:8}.st7{opacity:.5;stroke:#ffa683;stroke-width:2}.st7,.st8,.st9{fill:none;stroke-miterlimit:10}.st8{opacity:.5;stroke:#ffa683;stroke-width:1.4142}.st9{stroke:#022f51;stroke-width:4}.st10{opacity:.99;fill:#022f51}</style><g id="Layer_1"><path class="st0" d="M.1 28H24v2H.1zM23 9.7l-4.3-4.3L4.2 20l-.4 4-1.3 1.3L4 26.6l1.5-1.5 3.6-.1 13-13c.2.7 0 1.4-.5 1.9l-4.5 4.5 1.4 1.4 4.5-4.5c1.6-1.5 1.6-4 0-5.6zM8.3 23l-2.4.1.2-2.1 7.1-7.1 2.1 2.1-7 7zm8.5-8.5l-2.1-2.1 4.1-4.1 2.1 2.1-4.1 4.1z"/></g></svg>
