<svg xmlns="http://www.w3.org/2000/svg" viewBox="0 0 21 36"><style>.st0{fill:#022f51}.st1{fill:none}.st2{fill:#2a5db8}.st3{fill:none;stroke:#fff;stroke-width:2;stroke-miterlimit:10}.st4{fill:#fff}.st5,.st6{fill:#022f51;stroke:#022f51;stroke-width:.75;stroke-miterlimit:10}.st6{fill:none;stroke-width:8}.st7{opacity:.5;stroke:#ffa683;stroke-width:2}.st7,.st8,.st9{fill:none;stroke-miterlimit:10}.st8{opacity:.5;stroke:#ffa683;stroke-width:1.4142}.st9{stroke:#022f51;stroke-width:4}.st10{opacity:.99;fill:#022f51}</style><g id="Layer_1"><path class="st0" d="M20 21h-6.2l2.6 2.7v.1c-3.1 3.1-8.2 3.1-11.3 0C3.5 22.2 2.7 20 2.7 18h-2c0 3 1 5.2 2.9 7.1 1.9 1.9 4.5 3 7.1 3 2.6 0 5.1-1 7.1-2.9h.1l2.1 2.1V21zM2 15h5.9l-2.6-2.5c3.1-3.1 8.2-3.2 11.3-.1C18.2 13.9 19 16 19 18h2c0-3-1-5.1-2.9-7-1.9-1.9-4.5-2.9-7.1-2.9-2.6 0-5.1 1-7.1 2.9l-2-2v6z"/></g></svg>
