<svg xmlns="http://www.w3.org/2000/svg" viewBox="0 0 25 36"><style>.st0{fill:#022f51}.st1{fill:none}.st2{fill:#2a5db8}.st3{fill:none;stroke:#fff;stroke-width:2;stroke-miterlimit:10}.st4{fill:#fff}.st5,.st6{fill:#022f51;stroke:#022f51;stroke-width:.75;stroke-miterlimit:10}.st6{fill:none;stroke-width:8}.st7{opacity:.5;stroke:#ffa683;stroke-width:2}.st7,.st8,.st9{fill:none;stroke-miterlimit:10}.st8{opacity:.5;stroke:#ffa683;stroke-width:1.4142}.st9{stroke:#022f51;stroke-width:4}.st10{opacity:.99;fill:#022f51}</style><path class="st0" d="M7.9 27.5c-2.7 0-5.3-.8-7.5-2.2l.7-1.8c1.4.2 2.8 0 4.1-.6-1.2-.7-2.2-1.8-2.7-3.2l.4-.5c-1.3-1-2.1-2.6-2.1-4.3v-.1l.8-.4c-.5-.8-.7-1.8-.7-2.7 0-1 .3-1.9.8-2.8l1.6-.1c1.9 2.3 4.6 3.8 7.5 4.3 0-3 2.5-5.5 5.5-5.5 1.3 0 2.6.5 3.6 1.3.7-.3 1.4-.5 2.1-.9l1.5 1.2-.1.3c-.1.2-.1.5-.2.7l1.1 1.3c-.6.9-1.5 1.5-2.3 2l-.1.1v.1c0 6.7-5.3 13.8-14 13.8zm-3-2.4c1 .3 2 .4 3 .4 7.5 0 11.9-6.1 11.9-11.9v-.5l.4-.9c.2-.1.4-.3.6-.4h-.1v-1c-.3.1-.6.2-.9.2l-.9-.3c-.7-.7-1.6-1.1-2.6-1.1-2 0-3.5 1.6-3.5 3.5 0 .3 0 .5.1.8l-1 1.2c-3.3-.2-6.5-1.5-8.9-3.8v.4c0 1.2.6 2.3 1.6 3L4 16.5c-.2 0-.5 0-.7-.1.5 1 1.4 1.8 2.5 2l.1 1.9c-.2.1-.4.1-.6.1.6.7 1.6 1.1 2.5 1.1l.6 1.8c-1.1.9-2.3 1.5-3.5 1.8z" id="Layer_1"/></svg>
